<?xml version="1.0" encoding="utf-8"?>
<!-- Generator: Adobe Illustrator 24.0.3, SVG Export Plug-In . SVG Version: 6.00 Build 0)  -->
<svg version="1.1" id="Layer_1" xmlns="http://www.w3.org/2000/svg" xmlns:xlink="http://www.w3.org/1999/xlink" x="0px" y="0px"
	 viewBox="0 0 200 100" style="enable-background:new 0 0 200 100;" xml:space="preserve">
<style type="text/css">
	.st0{clip-path:url(#SVGID_2_);fill:#695B62;}
	.st1{fill:#FFE800;}
	.st2{fill:#AF042F;}
	.st3{fill:#B8AF00;}
	.st4{fill:#003C7E;}
	.st5{fill:#1A171B;}
	.st6{filter:url(#Adobe_OpacityMaskFilter);}
	.st7{fill-rule:evenodd;clip-rule:evenodd;fill:#FFFFFF;}
	.st8{mask:url(#b_4_);fill-rule:evenodd;clip-rule:evenodd;fill:#349DCC;}
	.st9{filter:url(#Adobe_OpacityMaskFilter_1_);}
	.st10{mask:url(#b_3_);fill-rule:evenodd;clip-rule:evenodd;fill:#424342;}
	.st11{fill:#FFFFFF;}
	.st12{fill:#191919;}
	.st13{fill:none;}
	.st14{fill:#F032B9;}
	.st15{fill:#00BEFF;}
	.st16{fill:#FFC80A;}
	.st17{fill:#00960A;}
	.st18{fill:#FF3607;}
	.st19{fill:#0032C8;}
	.st20{fill:#1D1D1B;}
</style>
<g>
	<defs>
		<filter id="Adobe_OpacityMaskFilter" filterUnits="userSpaceOnUse" x="98.4" y="21" width="30.5" height="30.6">
			<feColorMatrix  type="matrix" values="1 0 0 0 0  0 1 0 0 0  0 0 1 0 0  0 0 0 1 0"/>
		</filter>
	</defs>
	<mask maskUnits="userSpaceOnUse" x="98.4" y="21" width="30.5" height="30.6" id="b_4_">
		<g class="st6">
			<polygon id="a_4_" class="st7" points="71.1,21 128.9,21 128.9,78.8 71.1,78.8 			"/>
		</g>
	</mask>
	<path class="st8" d="M102.1,51.6L128.9,22l-1-1L98.4,47.8C99.9,48.8,101.2,50.1,102.1,51.6"/>
	<defs>
		<filter id="Adobe_OpacityMaskFilter_1_" filterUnits="userSpaceOnUse" x="71.1" y="21.1" width="57.7" height="57.8">
			<feColorMatrix  type="matrix" values="1 0 0 0 0  0 1 0 0 0  0 0 1 0 0  0 0 0 1 0"/>
		</filter>
	</defs>
	<mask maskUnits="userSpaceOnUse" x="71.1" y="21.1" width="57.7" height="57.8" id="b_3_">
		<g class="st9">
			<polygon id="a_3_" class="st7" points="71.1,21 128.9,21 128.9,78.8 71.1,78.8 			"/>
		</g>
	</mask>
	<path class="st10" d="M92.1,63.1c-2.9,0-5.2-2.4-5.2-5.3c0-2.9,2.3-5.2,5.2-5.2c2.9,0,5.2,2.4,5.2,5.2C97.3,60.8,95,63.1,92.1,63.1
		z M94.8,49.2l-2.1-28.1h-1.4l-2.1,28.2c-0.5,0.2-0.9,0.3-1.3,0.6L73.3,38.1l-1,1L84,53.7c-0.2,0.4-0.4,0.9-0.6,1.4l-12.3,2.1v1.4
		l12.3,2.1c0.2,0.5,0.4,1,0.6,1.5l-7.2,10.1l1,1l10-7.2c0.4,0.2,0.9,0.4,1.4,0.6l2,12.3h1.4l2-12.2c0.5-0.2,1-0.4,1.5-0.6l14.6,11.7
		l1-1L100.2,62c0.2-0.4,0.4-0.9,0.6-1.4l28-2.1v-1.4l-28.1-2.1C99.8,52.3,97.6,50.1,94.8,49.2z"/>
</g>
</svg>
