<?xml version="1.0" encoding="utf-8"?>
<!-- Generator: Adobe Illustrator 24.0.3, SVG Export Plug-In . SVG Version: 6.00 Build 0)  -->
<svg version="1.1" id="Layer_1" xmlns="http://www.w3.org/2000/svg" xmlns:xlink="http://www.w3.org/1999/xlink" x="0px" y="0px"
	 viewBox="0 0 200 100" style="enable-background:new 0 0 200 100;" xml:space="preserve">
<style type="text/css">
	.st0{clip-path:url(#SVGID_2_);fill:#695B62;}
	.st1{fill:#FFE800;}
	.st2{fill:#AF042F;}
	.st3{fill:#B8AF00;}
	.st4{fill:#003C7E;}
	.st5{fill:#1A171B;}
	.st6{filter:url(#Adobe_OpacityMaskFilter);}
	.st7{fill-rule:evenodd;clip-rule:evenodd;fill:#FFFFFF;}
	.st8{mask:url(#b_4_);fill-rule:evenodd;clip-rule:evenodd;fill:#349DCC;}
	.st9{filter:url(#Adobe_OpacityMaskFilter_1_);}
	.st10{mask:url(#b_3_);fill-rule:evenodd;clip-rule:evenodd;fill:#424342;}
	.st11{fill:#FFFFFF;}
	.st12{fill:#191919;}
	.st13{fill:none;}
	.st14{fill:#F032B9;}
	.st15{fill:#00BEFF;}
	.st16{fill:#FFC80A;}
	.st17{fill:#00960A;}
	.st18{fill:#FF3607;}
	.st19{fill:#0032C8;}
	.st20{fill:#1D1D1B;}
</style>
<g>
	<path class="st12" d="M80.9,38.7h7.9l8.3,24.1h-6l-1.5-4.8h-9.3l-1.6,4.8h-6L80.9,38.7z M88,53.2l-2.7-8.6h-0.7l-2.7,8.6H88z"/>
	<path class="st12" d="M97,45.3h5.3l3.6,11.6h0.7l3.6-11.6h5.3l-5.9,17.6h-6.9L97,45.3z"/>
	<path class="st12" d="M134.7,57.5c-0.4,1.1-1,2-1.8,2.9c-1.7,1.8-4.2,2.9-6.7,2.8c-5.3,0-9.1-3.8-9.1-9.1s3.8-9.1,9.1-9.1
		c5.2,0,9,3.8,9,8.8c0,0.4,0,0.9-0.1,1.3l-0.1,0.4h-12.8c0.1,2.1,1.9,3.7,4,3.6c0.9,0,1.8-0.3,2.5-0.8c0.3-0.2,0.6-0.5,0.8-0.8
		L134.7,57.5z M130.2,52.4c-0.5-2.3-1.9-3.4-4-3.4c-2.1,0-3.4,1.1-4,3.4H130.2z"/>
	<path class="st12" d="M138.4,45.3h4.5l0.3,1.5h0.2c0.3-0.4,0.7-0.7,1.2-0.9c1.1-0.7,2.4-1,3.7-1c4.1,0,7.1,2.9,7.1,7.2v10.7h-5.2
		v-9.7c0-1.8-1.5-3.3-3.3-3.3c-1.8,0-3.3,1.5-3.3,3.3v9.7h-5.2L138.4,45.3z"/>
	<path class="st12" d="M164.3,63.6c0.1,0.4,0.3,0.7,0.6,1c0.7,0.7,1.7,1,2.7,0.9c2.2,0,3.4-1.2,3.4-3.3v-2.1h-0.2
		c-0.3,0.3-0.6,0.6-1,0.9c-0.9,0.6-2,0.9-3.1,0.8c-4.7,0-8.1-3.4-8.1-8.4s3.4-8.4,8.1-8.4c1.2,0,2.4,0.3,3.4,1
		c0.4,0.3,0.8,0.6,1.1,1h0.2l0.3-1.7h4.5v16.9c0,4.8-2.9,7.8-8.6,7.8c-4.1,0-6.2-1.6-7.3-3.2c-0.7-1-1.1-2.1-1.3-3.2H164.3z
		 M171,53.4c0-2-1.6-3.6-3.6-3.6c-2,0-3.6,1.6-3.6,3.6c0,2,1.6,3.6,3.6,3.6c1.9,0,3.6-1.5,3.6-3.4C171,53.5,171,53.5,171,53.4
		L171,53.4z"/>
	<path class="st12" d="M191.1,61.3H191c-0.3,0.4-0.7,0.7-1.2,1c-1.1,0.6-2.4,1-3.6,0.9c-4.1,0-6.6-2.4-6.6-5.5
		c0-3.3,2.4-5.7,7.2-5.7h4v-0.3c0-1.5-1-2.6-2.7-2.6c-0.8,0-1.6,0.2-2.2,0.8c-0.2,0.2-0.4,0.5-0.6,0.8h-5c0.4-3.1,2.9-5.7,7.8-5.7
		c5.1,0,7.9,2.7,7.9,6.7v11.2h-4.5L191.1,61.3z M190.8,55.5h-3.3c-1.9,0-2.7,0.8-2.7,1.9c0,1.1,0.9,1.9,2.4,1.9
		c2.2,0,3.6-1.4,3.6-3.4L190.8,55.5z"/>
	<path class="st13" d="M23.3,77.1c-0.8-0.3-1.6-0.7-2.4-1.1C21.6,76.5,22.5,76.8,23.3,77.1z"/>
	<path class="st14" d="M14.7,49.6c0-11-4.5-19.1,2.2-23.8C32,14.5,39.3,41,14.7,49.6z"/>
	<path class="st15" d="M38.9,67.2c7.9,3.5,12.3,6.7,16.8,1.8C60.2,63.9,64.2,53,38.9,67.2z"/>
	<path class="st16" d="M23.3,77.2c2.3,0.2,4-0.4,6.3-2.2c2.7-2.1,4.3-4.9,9.3-7.7l0,0c-2.8-1.2-5.8-2-8.8-2.4
		C19.1,63.2,4.6,69.4,23.3,77.2z"/>
	<path class="st17" d="M38.9,67.2c-5,2.9-6.6,5.6-9.3,7.7c-2.4,1.9-4.1,2.4-6.3,2.2c11.4,4.4,24.4,1.1,32.4-8.1
		C51.3,73.9,46.9,70.7,38.9,67.2z"/>
	<path class="st16" d="M5.9,58.5c0,0,0,0.1,0,0.1c0.5,1.5,1.1,3,1.8,4.5c4.8,9.5,7.2-3.7,6.9-13.5C6.7,52.3,5.1,55.7,5.9,58.5z"/>
	<path class="st18" d="M14.7,49.6c0-10.8-4.3-18.7,1.8-23.4C6.5,33.6,2.2,46.6,5.9,58.5C5.1,55.8,6.6,52.3,14.7,49.6z"/>
	<path class="st19" d="M42.5,21.7L42.5,21.7c2.6,1,2.7,5.1,1.6,8c-0.7,1.7-1.3,3.5-1.8,5.3c-0.1,0.4-0.2,0.9-0.3,1.3l0,0
		c2.9,2.1,9.7,2.5,14.7,4.8c3.4,1.5,6.1,3.9,6.2,8.3C62.9,36.8,54.6,25.6,42.5,21.7z"/>
	<path class="st15" d="M62.9,49.6c-0.1-11-16-9.5-20.9-13.2C39.3,49.1,63,66.6,62.9,49.6"/>
	<path class="st14" d="M42.1,36.4c-13.7-9.6-11.2-18.5,0.5-14.6c2.6,1,2.7,5.1,1.6,8C43.2,31.9,42.5,34.1,42.1,36.4z"/>
</g>
</svg>
