<?xml version="1.0" encoding="utf-8"?>
<!-- Generator: Adobe Illustrator 24.0.3, SVG Export Plug-In . SVG Version: 6.00 Build 0)  -->
<svg version="1.1" id="Layer_1" xmlns="http://www.w3.org/2000/svg" xmlns:xlink="http://www.w3.org/1999/xlink" x="0px" y="0px"
	 viewBox="0 0 200 100" style="enable-background:new 0 0 200 100;" xml:space="preserve">
<style type="text/css">
	.st0{clip-path:url(#SVGID_2_);fill:#695B62;}
	.st1{fill:#FFE800;}
	.st2{fill:#00403A;}
	.st3{fill:#00867B;}
	.st4{fill:#00665E;}
	.st5{fill:#D0E5E1;}
	.st6{fill:#ABD1CC;}
	.st7{fill:#BEDAD6;}
	.st8{fill:#029288;}
	.st9{fill:#9CC5BF;}
	.st10{fill:#037E77;}
	.st11{fill:#B8D6D1;}
	.st12{fill:#006F67;}
	.st13{fill:#109C93;}
	.st14{fill:#81B4AE;}
	.st15{fill:#6AB4AC;}
	.st16{fill:#44ABA2;}
	.st17{fill:#83BFB8;}
	.st18{fill:#6CA9A2;}
	.st19{fill:#599E98;}
	.st20{fill:#96C7C1;}
	.st21{fill:#469690;}
	.st22{fill:#2D8D86;}
	.st23{fill:#188982;}
	.st24{fill:#008579;}
	.st25{fill:#006A61;}
	.st26{fill:#00776E;}
	.st27{fill:#007A70;}
	.st28{fill:#D1E5E1;}
	.st29{fill:#D0E4E0;}
	.st30{fill:#CAE1DD;}
	.st31{fill:#71B2AB;}
	.st32{fill:#BFDAD5;}
	.st33{fill:#76AFA8;}
	.st34{fill:#09837C;}
	.st35{fill:#006D65;}
	.st36{fill:#01776F;}
	.st37{fill:#0B8B82;}
	.st38{fill:#B7D8D3;}
	.st39{fill:#018C82;}
	.st40{fill:#BADAD4;}
	.st41{fill:#139E95;}
	.st42{fill:#01877E;}
	.st43{fill:#008B80;}
	.st44{fill:#02948A;}
	.st45{fill:#B4D4CF;}
	.st46{fill:#9AC8C2;}
	.st47{fill:#529B95;}
	.st48{fill:#78BAB2;}
	.st49{fill:#0E928A;}
	.st50{fill:#A0CCC6;}
	.st51{fill:#5FB1A9;}
	.st52{fill:#9CC7C2;}
	.st53{fill:#80B9B2;}
	.st54{fill:#05978D;}
	.st55{fill:#298E88;}
	.st56{fill:#71AAA4;}
	.st57{fill:#048179;}
	.st58{fill:#93BFB9;}
	.st59{fill:#BED9D5;}
	.st60{fill:#8BC3BC;}
	.st61{fill:#9CC4BE;}
	.st62{fill:#73B8B1;}
	.st63{fill:#119E95;}
	.st64{fill:#3AA79F;}
	.st65{fill:#3E938C;}
	.st66{fill:#ABCDC8;}
	.st67{fill:#65A59F;}
	.st68{fill:#89C0B9;}
	.st69{fill:#5FB2AA;}
	.st70{fill:#00736B;}
	.st71{fill:#B5D4CF;}
	.st72{fill:#38A098;}
	.st73{fill:#6DB1A9;}
	.st74{fill:#2BA49C;}
	.st75{fill:#63A59F;}
	.st76{fill:#36918B;}
	.st77{fill:#5DA8A1;}
	.st78{fill:#529D96;}
	.st79{fill:#47A9A1;}
	.st80{fill:#1A8C85;}
	.st81{fill:#4DA39C;}
	.st82{fill:#00786E;}
	.st83{fill:#006860;}
	.st84{fill:#008378;}
	.st85{fill:#007B71;}
	.st86{fill:#CFE4E0;}
	.st87{fill:#00655D;}
	.st88{fill:#C3DCD8;}
	.st89{fill:#60A49E;}
	.st90{fill:#006E67;}
	.st91{fill:#027C74;}
	.st92{fill:#349E96;}
	.st93{fill:#018379;}
	.st94{fill:#0E857E;}
	.st95{fill:#099A90;}
	.st96{fill:#047F79;}
	.st97{fill:#16958C;}
	.st98{fill:#008D82;}
	.st99{fill:#008E83;}
	.st100{fill:#C3DCD7;}
	.st101{fill:#A0C6C1;}
	.st102{fill:#BAD9D4;}
	.st103{fill:#BCDAD5;}
	.st104{fill:#74ADA7;}
	.st105{fill:#61A29C;}
	.st106{fill:#2F9089;}
	.st107{fill:#B2D1CD;}
	.st108{fill:#54A69E;}
	.st109{fill:#93C3BD;}
	.st110{fill:#00746C;}
	.st111{fill:#A7CFCA;}
	.st112{fill:#8EBBB5;}
	.st113{fill:#B4D5CF;}
	.st114{fill:#9AC8C3;}
	.st115{fill:#82B5AF;}
	.st116{fill:#539B95;}
	.st117{fill:#66B4AC;}
	.st118{fill:#A9D1CB;}
	.st119{fill:#2CA49B;}
	.st120{fill:#54ADA5;}
	.st121{fill:#76BAB2;}
	.st122{fill:#119D94;}
	.st123{fill:#7EB9B2;}
	.st124{fill:#8AC2BB;}
	.st125{fill:#93C6BF;}
	.st126{fill:#AACFCA;}
	.st127{fill:#87C1BA;}
	.st128{fill:#77BAB2;}
	.st129{fill:#6AAFA8;}
	.st130{fill:#68B3AB;}
	.st131{fill:#28A49B;}
	.st132{fill:#50AAA2;}
	.st133{fill:#3FA8A0;}
	.st134{fill:#00857A;}
	.st135{fill:#007067;}
	.st136{fill:#006A62;}
	.st137{fill:#00675F;}
	.st138{fill:#00766C;}
	.st139{fill:#008075;}
	.st140{fill:#007B70;}
	.st141{fill:#007369;}
	.st142{fill:#007E73;}
	.st143{fill:#00736A;}
	.st144{fill:#007D73;}
	.st145{fill:#A5CFC9;}
	.st146{fill:#0B837B;}
	.st147{fill:#249E95;}
	.st148{fill:#00736C;}
	.st149{fill:#1A9B92;}
	.st150{fill:#7ABCB4;}
	.st151{fill:#3A928B;}
	.st152{fill:#5A9F99;}
	.st153{fill:#ABCDC9;}
	.st154{fill:#BED9D4;}
	.st155{fill:#93BEB8;}
	.st156{fill:#71ACA5;}
	.st157{fill:#86B8B1;}
	.st158{fill:#A8CFCA;}
	.st159{fill:#BEDCD7;}
	.st160{fill:#008278;}
	.st161{fill:#006D64;}
	.st162{fill:#CDE2DE;}
	.st163{fill:#00645C;}
	.st164{fill:#8FBCB6;}
	.st165{fill:#95BEB9;}
	.st166{fill:#7FB3AD;}
	.st167{fill:#029388;}
	.st168{fill:#06968D;}
	.st169{fill:#006E66;}
	.st170{fill:#0E9C93;}
	.st171{fill:#047F77;}
	.st172{fill:#B8D9D3;}
	.st173{fill:#8FC4BE;}
	.st174{fill:#63A49E;}
	.st175{fill:#A3CDC7;}
	.st176{fill:#01756D;}
	.st177{fill:#7BBCB4;}
	.st178{fill:#A9CCC7;}
	.st179{fill:#C1DDD9;}
	.st180{fill:#058079;}
	.st181{fill:#5BB0A8;}
	.st182{fill:#82BEB7;}
	.st183{fill:#6BB5AD;}
	.st184{fill:#209F96;}
	.st185{fill:#B2D5D0;}
	.st186{fill:#79BBB4;}
	.st187{fill:#BBD7D3;}
	.st188{fill:#A6CEC9;}
	.st189{fill:#16A097;}
	.st190{fill:#B1D5D0;}
	.st191{fill:#5FB0A9;}
	.st192{fill:#64A49D;}
	.st193{fill:#31A59C;}
	.st194{fill:#70B7B0;}
	.st195{fill:#2AA59C;}
	.st196{fill:#4DABA3;}
	.st197{fill:#40A9A1;}
	.st198{fill:#1C8982;}
	.st199{fill:#529B94;}
	.st200{fill:#1B8A83;}
	.st201{fill:#519B94;}
	.st202{fill:#3B928B;}
	.st203{fill:#00776D;}
	.st204{fill:#006C63;}
	.st205{fill:#007F74;}
	.st206{fill:#007269;}
	.st207{fill:#006F66;}
	.st208{fill:#019086;}
	.st209{fill:#03958A;}
	.st210{fill:#81BDB6;}
	.st211{fill:#C1DDD8;}
	.st212{fill:#91C6BF;}
	.st213{fill:#007169;}
	.st214{fill:#8AB9B2;}
	.st215{fill:#6FAAA4;}
	.st216{fill:#07998F;}
	.st217{fill:#037F77;}
	.st218{fill:#A2C8C3;}
	.st219{fill:#1F9F97;}
	.st220{fill:#4A9892;}
	.st221{fill:#5EB0A8;}
	.st222{fill:#46ABA3;}
	.st223{fill:#B4D3CE;}
	.st224{fill:#7CBBB4;}
	.st225{fill:#AED3CD;}
	.st226{fill:#C4DDD9;}
	.st227{fill:#A7D0CA;}
	.st228{fill:#21A198;}
	.st229{fill:#96C8C1;}
	.st230{fill:#5CB0A9;}
	.st231{fill:#2B8F88;}
	.st232{fill:#6DB6AE;}
	.st233{fill:#148982;}
	.st234{fill:#40A69E;}
	.st235{fill:#65B4AC;}
	.st236{fill:#7FBDB6;}
	.st237{fill:#006961;}
	.st238{fill:#00746B;}
	.st239{fill:#006F65;}
	.st240{fill:#00796F;}
	.st241{fill:#007C72;}
	.st242{fill:#007168;}
	.st243{fill:#0D9A91;}
	.st244{fill:#539D96;}
	.st245{fill:#8BBAB4;}
	.st246{fill:#A4CAC4;}
	.st247{fill:#74ABA5;}
	.st248{fill:#208C85;}
	.st249{fill:#74B9B1;}
	.st250{fill:#43A9A1;}
	.st251{fill:#5CAFA7;}
	.st252{fill:#95C0BA;}
	.st253{fill:#6DAAA3;}
	.st254{fill:#018F85;}
	.st255{fill:#01736B;}
	.st256{fill:#8DC4BD;}
	.st257{fill:#06817A;}
	.st258{fill:#1EA097;}
	.st259{fill:#61B2AA;}
	.st260{fill:#A9D0CB;}
	.st261{fill:#78BBB3;}
	.st262{fill:#1B8B83;}
	.st263{fill:#5EA19B;}
	.st264{fill:#4E9892;}
	.st265{fill:#39928C;}
	.st266{fill:#007A6F;}
	.st267{fill:#007268;}
	.st268{fill:#79B0A9;}
	.st269{fill:#057E76;}
	.st270{fill:#B4D6D1;}
	.st271{fill:#008F84;}
	.st272{fill:#90C6BF;}
	.st273{fill:#08998F;}
	.st274{fill:#92BFB9;}
	.st275{fill:#4F9A94;}
	.st276{fill:#67A6A0;}
	.st277{fill:#2B8E86;}
	.st278{fill:#77B9B2;}
	.st279{fill:#A2C8C2;}
	.st280{fill:#B1D1CC;}
	.st281{fill:#C3DDD8;}
	.st282{fill:#5DB0A9;}
	.st283{fill:#38A49C;}
	.st284{fill:#A1CDC7;}
	.st285{fill:#1EA299;}
	.st286{fill:#008C82;}
	.st287{fill:#09988F;}
	.st288{fill:#08988F;}
	.st289{fill:#AED3CE;}
	.st290{fill:#8CC2BB;}
	.st291{fill:#AAD1CB;}
	.st292{fill:#51ADA5;}
	.st293{fill:#82BFB7;}
	.st294{fill:#95C6BF;}
	.st295{fill:#C6E0DB;}
	.st296{fill:#6AB5AD;}
	.st297{fill:#20A198;}
	.st298{fill:#9ECBC4;}
	.st299{fill:#55AEA6;}
	.st300{fill:#39A69E;}
	.st301{fill:#FEFEFE;}
	.st302{fill:#008176;}
	.st303{fill:#00756B;}
	.st304{fill:#006B62;}
	.st305{fill:#006E65;}
	.st306{fill:#007E74;}
	.st307{fill:#007F75;}
	.st308{fill:#83B8B1;}
	.st309{fill:#01766E;}
	.st310{fill:#4F9E97;}
	.st311{fill:#148B84;}
	.st312{fill:#00756C;}
	.st313{fill:#01847B;}
	.st314{fill:#018279;}
	.st315{fill:#068E86;}
	.st316{fill:#007167;}
	.st317{fill:#006C64;}
	.st318{fill:#C2DCD7;}
	.st319{fill:#119F96;}
	.st320{fill:#CADFDB;}
	.st321{fill:#ABD2CC;}
	.st322{fill:#C3DED9;}
	.st323{fill:#BDDBD6;}
	.st324{fill:#BDD9D4;}
	.st325{fill:#00746A;}
	.st326{fill:#006960;}
	.st327{fill:#006B63;}
	.st328{fill:#008277;}
	.st329{fill:#1A171B;}
	.st330{fill:#1B181C;}
	.st331{fill:#242125;}
	.st332{fill:#232024;}
	.st333{fill:#1D1A1E;}
	.st334{fill:#1C1A1E;}
	.st335{fill:#312F32;}
	.st336{fill:#201E21;}
	.st337{fill:#8FC1BB;}
	.st338{fill:#A4CAC5;}
	.st339{fill:#B9D7D2;}
	.st340{fill:#A6CCC6;}
	.st341{fill:#95C2BB;}
	.st342{fill:#74B3AC;}
	.st343{fill:#099088;}
	.st344{fill:#5AA7A0;}
	.st345{fill:#1E978F;}
	.st346{fill:#3C9F97;}
	.st347{fill:#017971;}
	.st348{fill:#0A8881;}
	.st349{fill:#A5CDC7;}
	.st350{fill:#C0DCD7;}
	.st351{fill:#7EB8B1;}
	.st352{fill:#63ACA5;}
	.st353{fill:#439791;}
	.st354{fill:#97C4BE;}
	.st355{fill:#49A29B;}
	.st356{fill:#17948C;}
	.st357{fill:#2C9890;}
	.st358{fill:#85B9B3;}
	.st359{fill:#5EA59E;}
	.st360{fill:#2D958D;}
	.st361{fill:#FDFDFD;}
	.st362{fill:#FAFAFA;}
	.st363{fill:#F5F5F5;}
	.st364{fill:#F3F3F3;}
	.st365{fill:#F6F5F6;}
	.st366{fill:#C8C9CA;}
	.st367{fill:#F4F4F4;}
	.st368{fill:#CACCCD;}
	.st369{fill:#E7E7E7;}
	.st370{fill:#EAEAEA;}
	.st371{fill:#BBBDBE;}
	.st372{fill:#C3C3C5;}
	.st373{fill:#F1F1F1;}
	.st374{fill:#F2F2F3;}
	.st375{fill:#F0F0F0;}
	.st376{fill:#BEC0C1;}
	.st377{fill:#D0D1D2;}
	.st378{fill:#E3E3E4;}
	.st379{fill:#626365;}
	.st380{fill:#262428;}
	.st381{fill:#222024;}
	.st382{fill:#9A9B9D;}
	.st383{fill:#727274;}
	.st384{fill:#E5E5E6;}
	.st385{fill:#28262A;}
	.st386{fill:#D3D3D4;}
	.st387{fill:#6E6E70;}
	.st388{fill:#BEBFC1;}
	.st389{fill:#555457;}
	.st390{fill:#E3E2E3;}
	.st391{fill:#353236;}
	.st392{fill:#A2A3A5;}
	.st393{fill:#696A6C;}
	.st394{fill:#67676A;}
	.st395{fill:#2E2C30;}
	.st396{fill:#4D4C4F;}
	.st397{fill:#848587;}
	.st398{fill:#A0A1A3;}
	.st399{fill:#8D8E90;}
	.st400{fill:#D4D4D6;}
	.st401{fill:#CCCCCD;}
	.st402{fill:#FAF9FA;}
	.st403{fill:#9B9C9D;}
	.st404{fill:#797A7C;}
	.st405{fill:#565659;}
	.st406{fill:#474649;}
	.st407{fill:#8A8B8D;}
	.st408{fill:#A8AAAB;}
	.st409{fill:#BBBCBE;}
	.st410{fill:#403F42;}
	.st411{fill:#3B393D;}
	.st412{fill:#626265;}
	.st413{fill:#343236;}
	.st414{fill:#363437;}
	.st415{fill:#9C9E9F;}
	.st416{fill:#D5D5D6;}
	.st417{fill:#78797B;}
	.st418{fill:#282629;}
	.st419{fill:#606063;}
	.st420{fill:#D4D3D5;}
	.st421{fill:#CDCECF;}
	.st422{fill:#747476;}
	.st423{fill:#8E8F91;}
	.st424{fill:#6B6C6E;}
	.st425{fill:#B2B3B4;}
	.st426{fill:#929395;}
	.st427{fill:#D8D7D8;}
	.st428{fill:#9D9E9F;}
	.st429{fill:#7C7C7F;}
	.st430{fill:#69686B;}
	.st431{fill:#7E7E81;}
	.st432{fill:#646567;}
	.st433{fill:#838385;}
	.st434{fill:#4B494C;}
	.st435{fill:#898A8C;}
	.st436{fill:#58585A;}
	.st437{fill:#777779;}
	.st438{fill:#ADAEAF;}
	.st439{fill:#606163;}
	.st440{fill:#3C3B3E;}
	.st441{fill:#48474A;}
	.st442{fill:#373538;}
	.st443{fill:#504F52;}
	.st444{fill:#525154;}
	.st445{fill:#434145;}
	.st446{fill:#515053;}
	.st447{fill:#38373A;}
	.st448{fill:#6D6D6F;}
	.st449{fill:#505052;}
	.st450{fill:#B4B5B7;}
	.st451{fill:#B6B6B8;}
	.st452{fill:#CCCDCE;}
	.st453{fill:#545456;}
	.st454{fill:#B1B2B4;}
	.st455{fill:#69696C;}
	.st456{fill:#B6B7B9;}
	.st457{fill:#E2E2E3;}
	.st458{fill:#DEDDDE;}
	.st459{fill:#3B3A3D;}
	.st460{fill:#D8D8D9;}
	.st461{fill:#DADADC;}
	.st462{fill:#424044;}
	.st463{fill:#B5B6B8;}
	.st464{fill:#5A5A5D;}
	.st465{fill:#767678;}
	.st466{fill:#595A5C;}
	.st467{fill:#272529;}
	.st468{fill:#7F8082;}
	.st469{fill:#8C8D8F;}
	.st470{fill:#424144;}
	.st471{fill:#B3B4B6;}
	.st472{fill:#BFC0C2;}
	.st473{fill:#A6A7A8;}
	.st474{fill:#B2B4B5;}
	.st475{fill:#676769;}
	.st476{fill:#C6C7C8;}
	.st477{fill:#2A272B;}
	.st478{fill:#59595C;}
	.st479{fill:#4C4A4E;}
	.st480{fill:#959698;}
	.st481{fill:#747477;}
	.st482{fill:#CECECF;}
	.st483{fill:#BCBCBE;}
	.st484{fill:#BBBCBD;}
	.st485{fill:#C1C2C3;}
	.st486{fill:#919394;}
	.st487{fill:#5E5F61;}
	.st488{fill:#D3D2D4;}
	.st489{fill:#B9BABB;}
	.st490{fill:#CDCED0;}
	.st491{fill:#A1A2A4;}
	.st492{fill:#DFDFDF;}
	.st493{fill:#5A595C;}
	.st494{fill:#B1B3B4;}
	.st495{fill:#C8C7C9;}
	.st496{fill:#29272A;}
	.st497{fill:#BDBFC0;}
	.st498{fill:#7A7B7D;}
	.st499{fill:#E3E3E3;}
	.st500{fill:#DBDBDC;}
	.st501{fill:#DBDADC;}
	.st502{fill:#A2A3A4;}
	.st503{fill:#949597;}
	.st504{fill:#6B6B6E;}
	.st505{fill:#616264;}
	.st506{fill:#A7A9AA;}
	.st507{fill:#C8CACB;}
	.st508{fill:#6C6D6F;}
	.st509{fill:#6B6A6C;}
	.st510{fill:#7F7F82;}
	.st511{fill:#2B292C;}
	.st512{fill:#A4A5A7;}
	.st513{fill:#9A9C9E;}
	.st514{fill:#8D8D90;}
	.st515{fill:#8F9092;}
	.st516{fill:#DCDCDE;}
	.st517{fill:#999A9B;}
	.st518{fill:#9B9D9E;}
	.st519{fill:#5E5D5F;}
	.st520{fill:#BDBDBF;}
	.st521{fill:#BCBDBE;}
	.st522{fill:#454346;}
	.st523{fill:#878789;}
	.st524{fill:#BEBEC0;}
	.st525{fill:#717073;}
	.st526{fill:#FBFBFB;}
	.st527{fill:#BCBEBF;}
	.st528{fill:#D2D3D4;}
	.st529{fill:#E1E1E2;}
	.st530{fill:#EEEEEF;}
	.st531{fill:#BFC1C2;}
	.st532{fill:#F9F9F9;}
	.st533{fill:#D6D7D8;}
	.st534{fill:#E3E4E5;}
	.st535{fill:#99C4BE;}
	.st536{fill:#AF042F;}
	.st537{fill:#B8AF00;}
	.st538{fill:#003C7E;}
	.st539{filter:url(#Adobe_OpacityMaskFilter);}
	.st540{fill-rule:evenodd;clip-rule:evenodd;fill:#FFFFFF;}
	.st541{mask:url(#b_4_);fill-rule:evenodd;clip-rule:evenodd;fill:#349DCC;}
	.st542{filter:url(#Adobe_OpacityMaskFilter_1_);}
	.st543{mask:url(#b_3_);fill-rule:evenodd;clip-rule:evenodd;fill:#424342;}
	.st544{fill:#FFFFFF;}
	.st545{fill:#191919;}
	.st546{fill:none;}
	.st547{fill:#F032B9;}
	.st548{fill:#00BEFF;}
	.st549{fill:#FFC80A;}
	.st550{fill:#00960A;}
	.st551{fill:#FF3607;}
	.st552{fill:#0032C8;}
	.st553{fill:#1D1D1B;}
	.st554{fill:#808080;}
	.st555{fill:#808080;stroke:#FFFFFF;stroke-width:0.1209;stroke-miterlimit:10;}
	.st556{fill:none;stroke:#808080;stroke-width:2.5;stroke-miterlimit:10;}
	.st557{fill:#B3B3B3;stroke:#B3B3B3;stroke-width:0.5;stroke-miterlimit:10;}
	.st558{fill:#00403A;stroke:#808080;stroke-width:0.65;stroke-miterlimit:10;}
	.st559{fill:#B3B3B3;}
</style>
<g>
	<g>
		<path class="st554" d="M69.1,37.6c0-0.3-0.1-0.4-0.5-0.4h-0.8v-3.5h7.1v5c1-0.3,1.9-0.5,2.9-0.5c2.7,0,5,1.7,5,6.3
			c0,5.1-3,7.1-7.4,7.1c-2.2,0-4.5-0.4-6.2-0.8L69.1,37.6L69.1,37.6z M75.8,42.5c-0.3,0-0.7,0.1-1,0.2V47c0.1,0,0.4,0.1,0.5,0.1
			c1.2,0,1.5-0.5,1.5-2.5C76.9,43,76.7,42.5,75.8,42.5z"/>
		<path class="st554" d="M83.6,44.9c0-4.8,3-6.8,7-6.8c4.5,0,6,2.7,6,6v1.8h-6.9c0.1,1.1,0.4,1.9,1.9,1.9c0.7,0,1.6-0.1,1.9-1h2.9
			v3.9c-1.9,0.7-4.2,1-5.8,1C86.3,51.6,83.6,49.4,83.6,44.9z M91.4,42.9v-0.1c0-0.6-0.3-0.9-0.8-0.9c-0.7,0-1,0.7-1,1.1L91.4,42.9
			L91.4,42.9z"/>
		<path class="st554" d="M106.7,56h-6v-1.8l2.6-3h-2.2L98.2,42c-0.1-0.1-0.1-0.1-0.3-0.1h-1.1v-3.5h8.2v3.5h-0.9l0.9,4.2h0.4
			l1.2-4.2h-0.9v-3.5h6.8v3.5h-0.9c-0.3,0-0.4,0.1-0.4,0.4L106.7,56z"/>
		<path class="st554" d="M119.7,38.1c4.5,0,7,2.5,7,6.7c0,4.3-2.5,6.7-7,6.7s-7-2.4-7-6.7C112.7,40.5,115.2,38.1,119.7,38.1z
			 M119.7,47.5c1,0,1.1-0.8,1.1-2.6c0-1.9-0.1-2.6-1.1-2.6c-1,0-1.1,0.8-1.1,2.6S118.7,47.5,119.7,47.5z"/>
		<path class="st554" d="M128.2,42.4c0-0.4-0.1-0.6-0.5-0.6h-0.8v-3.5h6.7v1h0.1c1-0.7,2.5-1.2,3.9-1.2c2.2,0,3.9,1,3.9,4v5.2
			c0,0.3,0.1,0.4,0.4,0.4h0.9v3.5h-7.1v-8.2c0-0.5-0.1-0.7-0.7-0.7c-0.3,0-0.7,0.2-1.1,0.4v5h1v3.5h-8v-3.5h0.8
			c0.4,0,0.5-0.1,0.5-0.6V42.4z"/>
		<path class="st554" d="M151,38.3v-1.2h-1.3v-3.5h7.1v13.7c0,0.3,0.1,0.4,0.5,0.4h0.8v3.5c-0.9,0.1-2,0.2-3,0.2
			c-1.3,0-2.6-0.1-3.4-1c-1,0.6-2.2,1-3.7,1c-2.1,0-4.8-1-4.8-6.6c0-4.9,2.5-6.8,6.1-6.8C149.8,38.1,150.4,38.2,151,38.3z M151,47
			v-4.8c-0.2-0.1-0.4-0.1-0.6-0.1c-1.2,0-1.4,0.2-1.4,2.7c0,1.9,0.4,2.5,1.1,2.5C150.3,47.3,150.6,47.3,151,47z"/>
	</g>
	<path class="st555" d="M157.7,63.8L157.7,63.8c-0.7,1.8-1.7,3.3-2.5,3.1c-0.8-0.1-0.7-2.2-0.4-4.5c1-8.4,3.2-11,3.2-11
		s-2.2-2.6-3.8-0.4c-0.8,1.1-1.4,3.6-1.8,6.3c-0.1-0.1-0.3-0.1-0.4-0.2c-2.8-0.8-5.3,1.4-6,5c-0.1,0.7-0.1,1.3-0.1,1.9
		c-0.7,1.7-1.9,3-2.6,2.8c-0.8-0.2-0.6-2.2-0.1-4.5c0.8-3.4,0.5-5.4-0.6-5.6c-1.2-0.3-3.4,1-5,3.9c0.5-3,1-3.4,1-3.4
		s-1.5-1.7-3.2-0.6c-1.3,0.8-1.4,3.4-1.4,7.5c-0.6,1.6-1.6,2.9-2.3,2.8s-0.8-2.2-0.4-4.5c0.6-2.9,1.5-4.9,1.5-4.9
		c-1-1-2.4-1.1-3.3,0.3c-0.3-0.3-0.6-0.6-1-0.7c-2.8-0.8-5.3,1.4-6,5c-0.1,0.6-0.1,1.2-0.1,1.7c-0.7,1.7-1.9,3.3-2.6,3.2
		c-0.8-0.1-0.6-2.7,1.2-7.3c0.8-2.1,0.7-2.4-3.2-2.1c-2.3,0.2-3.2-0.9-3.2-0.9s-0.1,0-0.2,0.1c-0.6,0.8-0.4,2.1,0.5,3
		c-0.2,1.2-0.6,2.7-1,3.9l0,0l0,0c-0.1,0.3-0.3,0.7-0.4,1c-0.1,0.2-0.2,0.3-0.3,0.6c0,0,0,0,0,0.1c-0.6,1-1.2,1.8-1.7,1.7
		c-0.8-0.1,0-2.7,1.8-7.3c0.8-2.1,0.7-2.4-3.2-2.1c-2.3,0.1-3.2-0.9-3.2-0.9s-0.1,0-0.2,0.1c-0.6,0.8-0.3,2.2,0.6,3
		c0,0.1-0.1,0.1-0.1,0.2c-0.6,3.5-2.6,7.4-5.2,7c-1-0.1-1.6-1-1.9-2.1c6.1-3.1,7.4-7.4,3.1-8.2c-3.2-0.6-5.8,1.8-6.5,5.4
		c-0.1,0.6-0.1,1.2-0.1,1.8c-0.6,1.7-1.7,3.2-2.3,2.9c-0.7-0.3-0.5-4.4-0.1-6.8c1.2-6.6,3-8.7,3-8.7s-2.2-2.6-3.9-0.4
		c-1,1.5-1.9,5.6-2.3,9.3c-0.1,1.2-0.1,2.5-0.1,3.8c-0.6,1.7-1.7,3.1-2.3,2.8c-0.7-0.3-0.5-4.4-0.1-6.8c1.2-6.6,3-8.7,3-8.7
		s-2.2-2.6-3.9-0.4c-1,1.5-1.9,5.6-2.3,9.3c-0.1,1.2-0.1,2.5-0.1,3.7c-0.7,1.9-2.5,3.6-4.7,3.1c-0.8-0.1-1.4-1-1.8-1.9
		c6.3-3.1,7.3-7.5,2.9-8.3c-3.2-0.6-5.8,1.8-6.5,5.3c-0.1,0.6-0.1,1.2-0.1,1.7c-0.6,1.7-1.7,3.3-2.4,3c-0.7-0.3-0.5-4.2-0.1-6.6
		c0.3-1.7,0.5-2.9,0.8-4c1.2,0.2,2.3,0.3,3-0.2c1.4-1,0.6-2.9,0.6-2.9c-1.1,0.4-1.8,0.8-2.8,1c0.5-1.2,0.9-1.7,0.9-1.7
		s-1.5-1.7-3.4,0.1c-0.4,0.3-0.7,0.9-1,1.6h-0.3c-1.7-0.2-2.2,1.2-1.4,1.9c0,0,0.3-0.1,1.2-0.1c-0.3,1.2-0.5,2.7-0.6,4.3
		c-0.3,3.4,0,7.4,1.7,8.1c1.5,0.7,3.3-0.9,4.3-3c0.7,1.8,2.3,3,3.5,3.2c3,0.6,5.3-1.2,6.4-2.9c0.3,1.4,0.7,2.3,1.4,2.7
		c1.4,0.6,3.1-0.7,4.1-2.6c0.3,1.3,0.7,2.3,1.4,2.6c1.4,0.6,3.2-0.8,4.3-2.8c0.6,1.7,2.1,2.8,3.5,3c3.9,0.8,7-2.8,8.1-8V60
		c0.3,0.1,0.6,0.1,1,0h0.2c-1.5,4.4-1.6,7.6,0.2,8.1c1.7,0.4,3.2-1,4.3-3c0.1-0.1,0.1-0.1,0.1-0.3c0.8-1.5,1.4-3.2,1.9-4.7
		c0.3,0.1,0.7,0.1,1.1,0.1l0.2-0.1c-1.5,4.4-1,7.6,0.9,8.1c1.7,0.4,3.3-1,4.3-2.8c0.4,1.6,1.3,2.5,2.6,2.5c1.8-0.1,2.7-1.9,3.2-3.4
		c0.1,1.9,0.6,3.2,1.8,3.5c1.5,0.4,2.9-0.6,3.9-2.1c0,0.3,0,0.5,0,0.8c0,0.8,0.1,1.2,0.1,1.2c1.8,0.7,2.5,0,3.1-4.7
		c1.5-3.6,2.5-4.6,3-4.5c0.5,0.1,0.7,1-0.1,3.9c-0.9,3.4,0.1,5.5,1.9,5.7c1.4,0.2,3.1-1,4.2-2.8c0.4,1.6,1.3,2.5,2.6,2.4
		c1.8-0.1,2.7-1.9,3.2-3.4c0.1,1.9,0.6,3.2,1.9,3.5c1.9,0.5,3.6-1.2,4.5-3.6C158.6,64,158.2,63.7,157.7,63.8z M78.5,61.9
		c0.4-1.7,1.5-4.2,2.5-3.9c0.9,0.3,0.4,4.3-2.5,6.4C78.4,63.6,78.4,62.7,78.5,61.9z M99.7,61.9c0.5-1.7,1.5-4.2,2.5-3.9
		c0.9,0.3,0.3,3.9-2.6,5.9C99.5,63.2,99.6,62.5,99.7,61.9z M128.7,60.1c-0.1,0.9-0.3,1.7-0.3,2.5c-0.8,2.9-1.9,4-2.5,3.9
		c-0.8-0.2-0.7-2.6-0.2-4.5c0.4-1.7,1.3-3.5,2.5-3.4c0.3,0,0.6,0.1,0.8,0.3C128.9,59.2,128.8,59.6,128.7,60.1z M152,62.8
		c-0.8,2.8-1.9,3.9-2.5,3.6c-0.8-0.2-0.7-2.6-0.2-4.5c0.4-1.7,1.3-3.5,2.5-3.4c0.2,0,0.3,0.1,0.5,0.1C152.1,60.1,152,61.5,152,62.8z
		"/>
	<g>
		<polygon class="st554" points="42.1,48.7 40,53 51.1,53.1 53,49.1 53.4,69.4 59,67.2 59.4,50.1 53.1,48.9 		"/>
		<polygon class="st554" points="59.8,50.4 59.8,53.1 61.2,52.5 		"/>
		<g>
			<path class="st554" d="M52.7,51.5l-1,3.7l-9.6-1.3l0.5,15.1l10.4,0.6L52.7,51.5z"/>
		</g>
		<path class="st554" d="M54.1,35c0-1.5,0.4-2.8,1.2-3.7c-1.5,0.4-4,1.4-5.4,3.3c-1.4,1.9-1,13.4-1,13.4l2.8,0.2
			c0,0-0.3-8.8,0.3-9.7c0.6-1,1.9-0.7,3-0.3C54.4,37.3,54.1,36.2,54.1,35z"/>
		<path class="st554" d="M58.5,30c-2.1,0-3.7,2.3-3.7,5s1.7,5,3.7,5c2.1,0,3.7-2.3,3.7-5S60.6,30,58.5,30z M58.3,39.7
			c-1.7,0-3.2-2.1-3.2-4.7c0-2.6,1.5-4.7,3.2-4.7c1.7,0,3.2,2.1,3.2,4.7S60.1,39.7,58.3,39.7z"/>
		<path class="st554" d="M59.9,36.4c-0.4,0-0.9-0.3-1-0.7l1-0.3l-1-0.2c0.1-0.4,0.5-0.9,1-0.9c0.3,0,0.6,0.2,0.8,0.3
			c-0.2-0.7-0.9-1.3-1.6-1.3c-1,0-1.7,0.8-1.7,1.8s0.8,1.8,1.7,1.8c0.6,0,1.2-0.4,1.5-1C60.3,36.2,60.1,36.4,59.9,36.4z"/>
		<path class="st554" d="M58.2,30.6c0.8,0,1.3,0.6,1.3,0.6s-0.4-0.3-1.2-0.3c-0.8,0-1.4,0.5-1.4,0.5S57.4,30.6,58.2,30.6z"/>
		<path class="st554" d="M57.4,39.2c0,0,0.6,0.3,1,0.3c0.3,0,0.9-0.2,0.9-0.2s-0.4,0.1-0.9,0.1C57.9,39.4,57.4,39.2,57.4,39.2z"/>
	</g>
</g>
</svg>
