<?xml version="1.0" encoding="utf-8"?>
<!-- Generator: Adobe Illustrator 24.0.3, SVG Export Plug-In . SVG Version: 6.00 Build 0)  -->
<svg version="1.1" id="Layer_1" xmlns="http://www.w3.org/2000/svg" xmlns:xlink="http://www.w3.org/1999/xlink" x="0px" y="0px"
	 viewBox="0 0 200 100" style="enable-background:new 0 0 200 100;" xml:space="preserve">
<style type="text/css">
	.st0{clip-path:url(#SVGID_2_);fill:#695B62;}
	.st1{fill:#FFE800;}
	.st2{fill:#AF042F;}
	.st3{fill:#B8AF00;}
	.st4{fill:#003C7E;}
	.st5{fill:#1A171B;}
	.st6{filter:url(#Adobe_OpacityMaskFilter);}
	.st7{fill-rule:evenodd;clip-rule:evenodd;fill:#FFFFFF;}
	.st8{mask:url(#b_4_);fill-rule:evenodd;clip-rule:evenodd;fill:#349DCC;}
	.st9{filter:url(#Adobe_OpacityMaskFilter_1_);}
	.st10{mask:url(#b_3_);fill-rule:evenodd;clip-rule:evenodd;fill:#424342;}
	.st11{fill:#FFFFFF;}
	.st12{fill:#191919;}
	.st13{fill:none;}
	.st14{fill:#F032B9;}
	.st15{fill:#00BEFF;}
	.st16{fill:#FFC80A;}
	.st17{fill:#00960A;}
	.st18{fill:#FF3607;}
	.st19{fill:#0032C8;}
	.st20{fill:#1D1D1B;}
</style>
<g>
	<rect x="45.4" y="35" class="st11" width="107.8" height="30.6"/>
	<path d="M152.7,65.6H46c-0.3,0-0.5-0.2-0.5-0.5V35.5c0-0.3,0.2-0.5,0.5-0.5h106.7c0.3,0,0.5,0.2,0.5,0.5v29.6
		C153.2,65.4,153,65.6,152.7,65.6z M47.5,63.5h103.6V37.1H47.5V63.5z"/>
	<path d="M52.3,42.1c0-0.2,0.1-0.3,0.3-0.3h6.5c3.1,0,6,0.7,6,4.2c0,2.4-1.5,3.5-3.2,3.9V50c2,0.4,3.7,1.4,3.7,4.1
		c0,3.4-3,4.7-6.1,4.7h-6.8c-0.2,0-0.3-0.1-0.3-0.3V42.1z M58.7,48.8c1.9,0,2.8-0.7,2.8-2c0-1.3-0.8-2-2.8-2H56v4.1H58.7L58.7,48.8z
		 M59,55.9c2,0,3-0.8,3-2.3c0-1.5-1.1-2.2-3.1-2.2H56v4.5H59z"/>
	<path d="M69.5,42.1c0-0.2,0.1-0.3,0.3-0.3h6.1c4.2,0,6.6,1.5,6.6,5.2c0,2.7-1.2,4.1-3.5,4.8l3.5,6.4c0.1,0.2,0,0.4-0.2,0.4H79
		c-0.1,0-0.2-0.1-0.2-0.2l-3.4-6.9c-0.1-0.1-0.1-0.2-0.2-0.2h-2v6.9c0,0.2-0.1,0.3-0.3,0.3h-3.1c-0.2,0-0.3-0.1-0.3-0.3V42.1z
		 M75.7,48.7c1.6,0,3.2-0.3,3.2-1.8c0-1.6-1-2-3.2-2h-2.5v3.8H75.7L75.7,48.7z"/>
	<path d="M133.4,43c0-0.2,0.1-0.3,0.3-0.3h6.1c4.2,0,6.6,1.5,6.6,5.2c0,2.7-1.2,4.1-3.5,4.8l3.5,6.4c0.1,0.2,0,0.4-0.2,0.4h-3.3
		c-0.1,0-0.2-0.1-0.2-0.2l-3.4-6.9c-0.1-0.1-0.1-0.2-0.2-0.2h-2v6.9c0,0.2-0.1,0.3-0.3,0.3h-3.1c-0.2,0-0.3-0.1-0.3-0.3L133.4,43
		L133.4,43z M139.6,49.6c1.6,0,3.2-0.3,3.2-1.8c0-1.6-1-2-3.2-2h-2.5v3.8H139.6L139.6,49.6z"/>
	<path d="M106.1,45h-4.8c-0.2,0-0.3-0.1-0.3-0.3v-2.6c0-0.2,0.1-0.3,0.3-0.3h13.2c0.2,0,0.3,0.1,0.3,0.3v2.6c0,0.2-0.1,0.3-0.3,0.3
		h-4.8v13.5c0,0.2-0.1,0.3-0.3,0.3h-3.2c-0.2,0-0.3-0.1-0.3-0.3V45z"/>
	<path d="M118.2,41.9h11.4c0.2,0,0.3,0.1,0.3,0.3v2.6c0,0.2-0.1,0.3-0.3,0.3h-7.9v3.6h6.6c0.2,0,0.3,0.1,0.3,0.3v2.4
		c0,0.2-0.1,0.3-0.3,0.3h-6.6v4.2h7.9c0.2,0,0.3,0.1,0.3,0.3v2.5c0,0.2-0.1,0.3-0.3,0.3h-11.4c-0.2,0-0.3-0.1-0.3-0.3V42.1
		C118,42,118.1,41.9,118.2,41.9z"/>
	<path d="M89.9,50.6L88,47c-0.1-0.1-0.1-0.1-0.2-0.1h-3.2c-0.2,0-0.3,0.2-0.2,0.4l4,6.5L89.9,50.6z"/>
	<path d="M95.6,42l-5.7,9.6v6.9c0,0.2,0.1,0.3,0.3,0.3h3.2c0.2,0,0.3-0.1,0.3-0.3v-6.9l5.6-9.3c0.1-0.2,0-0.4-0.2-0.4h-3.1
		C95.7,41.9,95.7,41.9,95.6,42z"/>
</g>
</svg>
