<?xml version="1.0" encoding="utf-8"?>
<!-- Generator: Adobe Illustrator 24.0.3, SVG Export Plug-In . SVG Version: 6.00 Build 0)  -->
<svg version="1.1" id="Layer_1" xmlns="http://www.w3.org/2000/svg" xmlns:xlink="http://www.w3.org/1999/xlink" x="0px" y="0px"
	 viewBox="0 0 200 100" style="enable-background:new 0 0 200 100;" xml:space="preserve">
<style type="text/css">
	.st0{clip-path:url(#SVGID_2_);fill:#695B62;}
	.st1{fill:#FFE800;}
	.st2{fill:#AF042F;}
	.st3{fill:#B8AF00;}
	.st4{fill:#003C7E;}
	.st5{fill:#1A171B;}
	.st6{filter:url(#Adobe_OpacityMaskFilter);}
	.st7{fill-rule:evenodd;clip-rule:evenodd;fill:#FFFFFF;}
	.st8{mask:url(#b_4_);fill-rule:evenodd;clip-rule:evenodd;fill:#349DCC;}
	.st9{filter:url(#Adobe_OpacityMaskFilter_1_);}
	.st10{mask:url(#b_3_);fill-rule:evenodd;clip-rule:evenodd;fill:#424342;}
	.st11{fill:#FFFFFF;}
	.st12{fill:#191919;}
	.st13{fill:none;}
	.st14{fill:#F032B9;}
	.st15{fill:#00BEFF;}
	.st16{fill:#FFC80A;}
	.st17{fill:#00960A;}
	.st18{fill:#FF3607;}
	.st19{fill:#0032C8;}
	.st20{fill:#1D1D1B;}
</style>
<g>
	<g>
		<defs>
			<rect id="SVGID_1_" x="11.9" y="10.2" width="176.8" height="79.8"/>
		</defs>
		<clipPath id="SVGID_2_">
			<use xlink:href="#SVGID_1_"  style="overflow:visible;"/>
		</clipPath>
		<path class="st0" d="M114.7,48.2h7v-1.9H117v-2.3h3.8V42H117v-3h4.6V37h-6.9V48.2z M101.4,48.2h2.3v-7l5.3,7h1.7V37h-2.3v7l-5.3-7
			h-1.7V48.2z M75.8,42.6c0-2.3,1.6-3.8,3.7-3.8c2,0,3.7,1.5,3.7,3.8c0,2.2-1.6,3.8-3.7,3.8C77.4,46.4,75.8,44.8,75.8,42.6
			 M73.5,42.6c0,3.4,2.6,5.8,6,5.8c3.4,0,6-2.4,6-5.8c0-3.4-2.6-5.8-6-5.8C76.1,36.8,73.5,39.2,73.5,42.6 M64.4,48.2h6.8v-1.9h-4.5
			V37h-2.3V48.2z M51.6,42.6c0-2.3,1.6-3.8,3.7-3.8c2,0,3.7,1.5,3.7,3.8c0,2.2-1.6,3.8-3.7,3.8C53.2,46.4,51.6,44.8,51.6,42.6
			 M49.2,42.6c0,3.4,2.6,5.8,6,5.8c3.4,0,6-2.4,6-5.8c0-3.4-2.6-5.8-6-5.8C51.9,36.8,49.2,39.2,49.2,42.6 M37.6,42.6
			c0,3.6,2.8,5.8,6,5.8c1.1,0,2.1-0.2,3-0.6l-0.7-1.8c-0.7,0.3-1.4,0.5-2.3,0.5c-1.9,0-3.7-1.3-3.7-3.8c0-2.2,1.6-3.8,3.6-3.8
			c0.9,0,1.7,0.1,2.3,0.4l0.7-1.8c-1-0.4-2-0.6-3.1-0.6C40.3,36.8,37.6,39.1,37.6,42.6"/>
		<path class="st0" d="M153.7,63.4h7v-1.9H156v-2.3h3.8v-1.9H156v-3h4.6v-1.9h-6.9V63.4z M141.2,57.8c0,3.6,2.8,5.8,6,5.8
			c1.1,0,2.1-0.2,3-0.6l-0.7-1.8c-0.7,0.3-1.4,0.5-2.3,0.5c-1.9,0-3.7-1.3-3.7-3.8c0-2.2,1.6-3.8,3.6-3.8c0.9,0,1.7,0.1,2.3,0.4
			l0.7-1.8c-1-0.4-2-0.6-3.1-0.6C143.9,52.1,141.2,54.4,141.2,57.8 M128.7,63.4h2.3v-7l5.3,7h1.7V52.3h-2.3v7l-5.3-7h-1.7V63.4z
			 M118.2,63.4h7v-1.9h-4.7v-2.3h3.8v-1.9h-3.8v-3h4.6v-1.9h-6.9V63.4z M99.1,63.4h2.3V52.3h-2.3V63.4z M89.1,63.4h6.8v-1.9h-4.5
			v-9.2h-2.3V63.4z M79.2,63.4H86v-1.9h-4.5v-9.2h-2.3V63.4z M68.7,63.4h7v-1.9H71v-2.3h3.8v-1.9H71v-3h4.6v-1.9h-6.9V63.4z
			 M60.2,63.4h2.3v-9.2h3v-1.9h-8.3v1.9h3V63.4z M44.8,63.4h2.3v-7l5.3,7h1.7V52.3h-2.3v7l-5.3-7h-1.7V63.4z M38.4,63.4h2.3V52.3
			h-2.3V63.4z"/>
		<path class="st0" d="M114.1,52.8c-1-0.5-2.1-0.7-3.4-0.7c-3.6,0-6.1,2.5-6.1,5.8c0,3.4,2.6,5.8,6.2,5.8c1.3,0,2.6-0.2,3.7-0.7
			v-5.3h-2.3l0,3.8c-0.4,0.1-0.9,0.2-1.4,0.2c-2.1,0-3.9-1.4-3.9-3.8c0-2.3,1.6-3.8,3.7-3.8c1,0,1.8,0.2,2.7,0.6L114.1,52.8z"/>
		<path class="st0" d="M97.5,37.5c-1-0.5-2.1-0.7-3.4-0.7c-3.6,0-6.1,2.5-6.1,5.8c0,3.4,2.6,5.8,6.2,5.8c1.3,0,2.6-0.2,3.7-0.7v-5.3
			h-2.3l0,3.8c-0.4,0.1-0.9,0.2-1.4,0.2c-2.1,0-3.9-1.4-3.9-3.8c0-2.3,1.6-3.8,3.7-3.8c1,0,1.8,0.2,2.7,0.6L97.5,37.5z"/>
	</g>
	<polygon class="st1" points="11.9,10.2 11.9,90 51.8,90 51.8,76.7 25.2,76.7 25.2,23.5 51.8,23.5 51.8,10.2 	"/>
	<rect x="175.3" y="10.2" class="st1" width="13.3" height="79.8"/>
</g>
</svg>
