<?xml version="1.0" encoding="utf-8"?>
<!-- Generator: Adobe Illustrator 24.0.3, SVG Export Plug-In . SVG Version: 6.00 Build 0)  -->
<svg version="1.1" id="Layer_1" xmlns="http://www.w3.org/2000/svg" xmlns:xlink="http://www.w3.org/1999/xlink" x="0px" y="0px"
	 viewBox="0 0 200 100" style="enable-background:new 0 0 200 100;" xml:space="preserve">
<style type="text/css">
	.st0{clip-path:url(#SVGID_2_);fill:#695B62;}
	.st1{fill:#FFE800;}
	.st2{fill:#AF042F;}
	.st3{fill:#B8AF00;}
	.st4{fill:#003C7E;}
	.st5{fill:#1A171B;}
	.st6{filter:url(#Adobe_OpacityMaskFilter);}
	.st7{fill-rule:evenodd;clip-rule:evenodd;fill:#FFFFFF;}
	.st8{mask:url(#b_4_);fill-rule:evenodd;clip-rule:evenodd;fill:#349DCC;}
	.st9{filter:url(#Adobe_OpacityMaskFilter_1_);}
	.st10{mask:url(#b_3_);fill-rule:evenodd;clip-rule:evenodd;fill:#424342;}
	.st11{fill:#FFFFFF;}
	.st12{fill:#191919;}
	.st13{fill:none;}
	.st14{fill:#F032B9;}
	.st15{fill:#00BEFF;}
	.st16{fill:#FFC80A;}
	.st17{fill:#00960A;}
	.st18{fill:#FF3607;}
	.st19{fill:#0032C8;}
	.st20{fill:#1D1D1B;}
</style>
<g>
	<g id="Bildmarke">
		<g>
			<path class="st4" d="M99.6,19L81.8,36.9l20.8-5L99.6,19z M100.4,57.2l17.8-17.9l-20.8,5L100.4,57.2z M119,37.7l-17.8-17.9l5,21
				L119,37.7z M81.1,38.5l17.8,17.9l-5-21L81.1,38.5z"/>
		</g>
	</g>
	<g id="Schriftzug">
		<g>
			<path d="M55.8,59.4c-0.5,0-1,0.2-1.4,0.5c-0.3,0.4-0.5,0.8-0.5,1.3c0,0.5,0.2,1,0.5,1.4c0.4,0.4,0.8,0.5,1.3,0.5
				c0.5,0,0.9-0.2,1.3-0.5c0.4-0.4,0.5-0.8,0.5-1.3c0-0.5-0.2-1-0.5-1.4C56.7,59.6,56.3,59.4,55.8,59.4z M54.3,81.8h3.1V66.1h-3.1
				V81.8z M69.6,65.8c-2,0-3.6,0.8-4.8,2.4v-2.1h-3.1v15.6h3.1V70.5c1.3-1.5,2.6-2.3,4-2.3c1,0,1.7,0.4,2.2,1.1
				c0.5,0.7,0.8,1.6,0.8,2.8v9.7h3.1v-9.6c0-2-0.5-3.5-1.4-4.6C72.5,66.4,71.2,65.8,69.6,65.8z M86.5,65.8c-2.4,0-4.3,0.8-5.9,2.4
				c-1.6,1.5-2.4,3.4-2.4,5.7c0,2.4,0.8,4.4,2.4,5.9c1.6,1.5,3.6,2.3,5.9,2.3c2.4,0,4.4-0.8,6-2.2c1.6-1.5,2.4-3.5,2.4-6
				c0-2.4-0.8-4.3-2.4-5.8C90.9,66.6,89,65.8,86.5,65.8z M90.4,77.8c-0.9,1-2.3,1.5-4,1.5c-1.5,0-2.7-0.5-3.6-1.4
				c-1-1.1-1.4-2.4-1.4-4c0-1.4,0.5-2.7,1.4-3.6c0.9-1,2.1-1.4,3.6-1.4c1.5,0,2.8,0.5,3.8,1.4c1.1,1,1.5,2.2,1.5,3.7
				C91.8,75.5,91.3,76.8,90.4,77.8z M103.7,75.7l-4.2-9.6h-3.3l7.1,16h1.1l6.7-16h-3.3L103.7,75.7z M124.9,68.1
				c-1.1-1.5-2.8-2.3-4.9-2.3c-2.1,0-3.9,0.8-5.2,2.3c-1.3,1.5-2,3.4-2,5.7c0,2.4,0.7,4.3,2.1,5.9c1.4,1.6,3.2,2.4,5.5,2.4
				c1.4,0,2.4-0.2,3.4-0.5c0.9-0.4,1.8-0.8,2.6-1.4v-3c-1.9,1.4-3.7,2.1-5.4,2.1c-2.9,0-4.6-1.6-5.2-4.9h10.9
				C126.6,71.7,126.1,69.6,124.9,68.1z M115.8,72.4c0.4-2.5,1.8-3.7,4.2-3.7c1.1,0,2,0.4,2.7,1.1c0.6,0.8,1,1.6,1,2.7H115.8z
				 M138.4,73.8l6.4-7.7h-4l-4.4,5.3l-4.6-5.3h-4l6.5,7.7l-6.5,7.9h4l4.6-5.6l4.9,5.6h3.9L138.4,73.8z"/>
		</g>
	</g>
</g>
</svg>
