<?xml version="1.0" encoding="utf-8"?>
<!-- Generator: Adobe Illustrator 24.0.3, SVG Export Plug-In . SVG Version: 6.00 Build 0)  -->
<svg version="1.1" id="Layer_1" xmlns="http://www.w3.org/2000/svg" xmlns:xlink="http://www.w3.org/1999/xlink" x="0px" y="0px"
	 viewBox="0 0 200 100" style="enable-background:new 0 0 200 100;" xml:space="preserve">
<style type="text/css">
	.st0{clip-path:url(#SVGID_2_);fill:#695B62;}
	.st1{fill:#FFE800;}
	.st2{fill:#AF042F;}
	.st3{fill:#B8AF00;}
	.st4{fill:#003C7E;}
	.st5{fill:#1A171B;}
	.st6{filter:url(#Adobe_OpacityMaskFilter);}
	.st7{fill-rule:evenodd;clip-rule:evenodd;fill:#FFFFFF;}
	.st8{mask:url(#b_4_);fill-rule:evenodd;clip-rule:evenodd;fill:#349DCC;}
	.st9{filter:url(#Adobe_OpacityMaskFilter_1_);}
	.st10{mask:url(#b_3_);fill-rule:evenodd;clip-rule:evenodd;fill:#424342;}
	.st11{fill:#FFFFFF;}
	.st12{fill:#191919;}
	.st13{fill:none;}
	.st14{fill:#F032B9;}
	.st15{fill:#00BEFF;}
	.st16{fill:#FFC80A;}
	.st17{fill:#00960A;}
	.st18{fill:#FF3607;}
	.st19{fill:#0032C8;}
	.st20{fill:#1D1D1B;}
</style>
<g>
	<path class="st2" d="M142.2,46.9c0,3.2-1.5,6.2-4.1,6.2c-2.2,0-3.2-1.8-3.2-5.4c0-4.7,2-6.4,4.7-6.4c0.8,0,1.7,0.1,2.5,0.3V46.9z
		 M147,56.7V29h-4.8v8.7c-0.8-0.1-1.6-0.2-2.4-0.2c-6.3,0-10,4.4-10,10.8c0,5.4,2.3,8.8,6.9,8.8c2.9,0,5-1.5,6-3.6h0.1
		c-0.2,1-0.2,2.2-0.2,3.2H147z M126.6,56.7V43.5c0-3.3-1.4-6-5.6-6c-3.1,0-5.3,1.6-6.4,3.8l0,0c0.2-1,0.3-2.5,0.3-3.3h-4.6v18.9h4.9
		v-9.1c0-3.3,1.9-6.1,4.4-6.1c1.8,0,2.3,1.2,2.3,3.2v12.1H126.6z M101.1,48.8c0,2.3-1.6,4.6-4,4.6c-1.4,0-2.2-0.8-2.2-2
		c0-1.5,1.1-3,6.3-3V48.8z M106.1,56.7c-0.1-1.6-0.1-3.3-0.1-4.9V44c0-4.1-1.7-6.6-7.8-6.6c-2.4,0-4.9,0.5-6.8,1.2l0.4,4.1
		c1.6-0.9,3.9-1.5,5.6-1.5c2.7,0,3.7,1,3.7,3v1c-6.4,0-10.9,2.4-10.9,6.9c0,3,2,5,5.4,5c2.8,0,5.1-1.5,6-3.6l0,0
		c-0.2,1-0.2,2.1-0.2,3.2H106.1z M87.1,29h-4.9v27.7h4.9V29z"/>
	<path class="st2" d="M154.5,40.2c-1.7,0-3.1,1.4-3.1,3.1s1.4,3.1,3.1,3.1c1.7,0,3.1-1.4,3.1-3.1S156.2,40.2,154.5,40.2"/>
	<path class="st3" d="M164.8,40.2c-1.7,0-3.1,1.4-3.1,3.1s1.4,3.1,3.1,3.1c1.7,0,3.1-1.4,3.1-3.1S166.5,40.2,164.8,40.2"/>
	<path class="st2" d="M175,40.2c-1.7,0-3.1,1.4-3.1,3.1s1.4,3.1,3.1,3.1c1.7,0,3.1-1.4,3.1-3.1S176.7,40.2,175,40.2"/>
	<path class="st3" d="M154.5,50.9c-1.7,0-3.1,1.4-3.1,3.1c0,1.7,1.4,3.1,3.1,3.1c1.7,0,3.1-1.4,3.1-3.1
		C157.6,52.4,156.2,50.9,154.5,50.9"/>
	<path class="st2" d="M164.8,50.9c-1.7,0-3.1,1.4-3.1,3.1c0,1.7,1.4,3.1,3.1,3.1c1.7,0,3.1-1.4,3.1-3.1
		C167.9,52.4,166.5,50.9,164.8,50.9"/>
	<path class="st3" d="M175,50.9c-1.7,0-3.1,1.4-3.1,3.1c0,1.7,1.4,3.1,3.1,3.1c1.7,0,3.1-1.4,3.1-3.1
		C178.1,52.4,176.7,50.9,175,50.9"/>
	<path class="st3" d="M110.6,65.3c-1.4-0.2-2.1,0.8-2.4,1.8h0c0.1-0.6,0.2-1.2,0.2-1.6h-1.2v6.9h1.2v-2.8c0-2.2,0.7-3.3,2.1-3
		L110.6,65.3z M104.8,72.3v-6.9h-1.2v3.3c0,1.5-0.8,2.7-2,2.7c-0.9,0-1.2-0.6-1.2-1.5v-4.4h-1.2v4.8c0,1.2,0.5,2.2,2.1,2.2
		c1.2,0,2-0.6,2.4-1.6l0,0c-0.1,0.4-0.1,1-0.1,1.4H104.8z M101.3,63.2c0-0.4-0.3-0.7-0.7-0.7s-0.7,0.3-0.7,0.7
		c0,0.4,0.3,0.7,0.7,0.7S101.3,63.6,101.3,63.2 M104,63.2c0-0.4-0.3-0.7-0.7-0.7c-0.4,0-0.7,0.3-0.7,0.7c0,0.4,0.3,0.7,0.7,0.7
		C103.7,63.9,104,63.6,104,63.2 M98.3,62.2c-0.4-0.1-0.7-0.1-1.1-0.1c-1.7,0-2.6,0.9-2.6,2.8v0.5h-1.4v1h1.4v5.9h1.2v-5.9h1.9v-1
		h-1.9v-0.5c0-1.2,0.4-1.8,1.4-1.8c0.3,0,0.7,0,1,0.2L98.3,62.2z M88.1,68.8c0,1.8-0.9,2.6-1.9,2.6c-1.3,0-1.9-0.9-1.9-2.6
		c0-1.7,0.9-2.5,1.9-2.5C87.4,66.3,88.1,67.2,88.1,68.8 M89.4,68.7c0-2.5-1.3-3.4-3.1-3.4c-2.1,0-3.3,1.6-3.3,3.6
		c0,2.4,1.2,3.5,3.1,3.5C88.1,72.4,89.4,70.8,89.4,68.7 M82.1,65.3c-1.4-0.2-2.1,0.8-2.4,1.8h0c0.1-0.6,0.2-1.2,0.2-1.6h-1.2v6.9
		h1.2v-2.8c0-2.2,0.7-3.3,2.1-3L82.1,65.3z M76.3,72.3v-6.9H75v3.3c0,1.5-0.8,2.7-2,2.7c-0.9,0-1.2-0.6-1.2-1.5v-4.4h-1.2v4.8
		c0,1.2,0.5,2.2,2.1,2.2c1.2,0,2-0.6,2.4-1.6l0,0c-0.1,0.4-0.1,1-0.1,1.4H76.3z M72.8,63.2c0-0.4-0.3-0.7-0.7-0.7s-0.7,0.3-0.7,0.7
		c0,0.4,0.3,0.7,0.7,0.7S72.8,63.6,72.8,63.2 M75.5,63.2c0-0.4-0.3-0.7-0.7-0.7c-0.4,0-0.7,0.3-0.7,0.7c0,0.4,0.3,0.7,0.7,0.7
		C75.1,63.9,75.5,63.6,75.5,63.2 M67.3,69.5c0,1-0.7,1.8-2.2,1.8c-0.6,0-1,0-1.2-0.1v-3.3c0.2,0,0.7,0,0.9,0
		C66.3,67.9,67.3,68.3,67.3,69.5 M67.1,65.3c0,1-0.8,1.6-2.3,1.6c-0.3,0-0.6,0-0.8,0v-3c0.4,0,0.8,0,1.3,0
		C66.7,63.9,67.1,64.5,67.1,65.3 M68.7,69.5c0-1-0.6-1.9-1.9-2.1v0c1-0.3,1.7-1.2,1.7-2.2c0-1.4-1-2.2-3-2.2c-1.1,0-2.1,0-2.7,0v9.3
		c0.9,0,1.8,0,2.4,0C68,72.3,68.7,70.6,68.7,69.5"/>
	<path class="st2" d="M38.3,56.7V43.5c0-3.3-1.4-6-5.6-6c-3.1,0-5.3,1.6-6.4,3.8l0,0c0.2-1,0.3-2.5,0.3-3.3h-4.6v18.9h4.9v-9.1
		c0-3.3,1.9-6.1,4.4-6.1c1.8,0,2.3,1.2,2.3,3.2v12.1H38.3z"/>
	<path class="st2" d="M53.5,44.8h-6.9c0.3-2.3,1.7-3.8,3.7-3.8C52.3,41,53.5,42.4,53.5,44.8 M58.3,45.9c0-4.7-2.4-8.4-7.9-8.4
		c-5.7,0-8.8,4.3-8.8,10c0,6.6,3.3,9.6,9.3,9.6c2.4,0,4.7-0.4,6.8-1.2l-0.5-3.8c-1.6,0.8-3.6,1.2-5.5,1.2c-3.5,0-5.2-1.7-5.2-5.2
		h11.7C58.3,47.3,58.3,46.5,58.3,45.9"/>
	<path class="st2" d="M78,56.7V37.8h-4.9V47c0,3.3-1.9,6.1-4.4,6.1c-1.8,0-2.4-1.2-2.4-3.2V37.8h-4.8v13.3c0,3.3,1.4,6,5.6,6
		c3.1,0,5.3-1.6,6.4-3.8l0,0c-0.2,1-0.2,2.5-0.2,3.3H78z"/>
	<path class="st3" d="M178.1,72.3l-2.8-3.7l2.6-3.1h-1.5l-2.4,3v-6.2h-1.2v10.1h1.2v-3.5l2.5,3.5H178.1z M170.4,65.4h-1.2v6.9h1.2
		V65.4z M170.6,63.4c0-0.5-0.4-0.8-0.8-0.8S169,63,169,63.4c0,0.5,0.4,0.8,0.8,0.8S170.6,63.9,170.6,63.4 M167.5,72.2v-1.1
		c-0.3,0.1-0.6,0.1-0.9,0.1c-0.8,0-1-0.3-1-1.4v-3.5h1.9v-1h-1.9v-2.6l-1.2,0.3v2.2h-1.4v1h1.4v4c0,1.5,0.4,2.1,1.8,2.1
		C166.6,72.4,167.1,72.3,167.5,72.2 M160.3,69.2c0,1.1-0.7,2.2-1.9,2.2c-0.6,0-1.1-0.4-1.1-1c0-0.6,0.5-1.4,2.9-1.4V69.2z
		 M161.6,72.3c0-0.6,0-1.3,0-2v-2.7c0-1.4-0.6-2.3-2.5-2.3c-0.9,0-1.7,0.2-2.4,0.5l0.1,1.1c0.6-0.4,1.4-0.6,2.1-0.6
		c1.1,0,1.5,0.5,1.5,1.5v0.5c-2.6,0-4.1,1-4.1,2.5c0,1.1,0.8,1.7,1.9,1.7c1.1,0,2-0.7,2.3-1.5h0c-0.1,0.4-0.1,0.9-0.1,1.4H161.6z
		 M154.4,72.3v-4.8c0-1.6-0.7-2.3-2-2.3c-1.3,0-2.1,0.9-2.3,1.6c-0.1-0.6-0.4-1.6-1.9-1.6c-1.1,0-2,0.6-2.4,1.6l0,0
		c0.1-0.4,0.1-1,0.1-1.4h-1.2v6.9h1.2V69c0-1.6,0.9-2.7,1.9-2.7c0.9,0,1.1,0.7,1.1,1.6v4.4h1.2V69c0-1.7,0.9-2.7,1.9-2.7
		c0.9,0,1.1,0.6,1.1,1.6v4.4H154.4z M143,65.3c-1.4-0.2-2.1,0.8-2.4,1.8h0c0.1-0.6,0.2-1.2,0.2-1.6h-1.2v6.9h1.2v-2.8
		c0-2.2,0.7-3.3,2.1-3L143,65.3z M136.4,68.8c0,1.8-0.9,2.6-1.9,2.6c-1.3,0-1.9-0.9-1.9-2.6c0-1.7,0.9-2.5,1.9-2.5
		C135.7,66.3,136.4,67.2,136.4,68.8 M137.7,68.7c0-2.5-1.3-3.4-3.1-3.4c-2.1,0-3.3,1.6-3.3,3.6c0,2.4,1.2,3.5,3.1,3.5
		C136.3,72.4,137.7,70.8,137.7,68.7 M131,62.2c-0.4-0.1-0.7-0.1-1.1-0.1c-1.7,0-2.6,0.9-2.6,2.8v0.5h-1.4v1h1.4v5.9h1.2v-5.9h1.9v-1
		h-1.9v-0.5c0-1.2,0.4-1.8,1.4-1.8c0.3,0,0.7,0,1,0.2L131,62.2z M124.4,72.3v-4.8c0-1.2-0.5-2.2-2.1-2.2c-1.2,0-2,0.6-2.4,1.6l0,0
		c0.1-0.4,0.1-1,0.1-1.4h-1.2v6.9h1.2V69c0-1.5,0.8-2.7,1.9-2.7c0.9,0,1.2,0.6,1.2,1.5v4.4H124.4z M116.4,62.9h-1.3v9.3h1.3V62.9z"
		/>
</g>
</svg>
