<?xml version="1.0" encoding="utf-8"?>
<!-- Generator: Adobe Illustrator 24.0.3, SVG Export Plug-In . SVG Version: 6.00 Build 0)  -->
<svg version="1.1" id="Layer_1" xmlns="http://www.w3.org/2000/svg" xmlns:xlink="http://www.w3.org/1999/xlink" x="0px" y="0px"
	 viewBox="0 0 200 100" style="enable-background:new 0 0 200 100;" xml:space="preserve">
<style type="text/css">
	.st0{clip-path:url(#SVGID_2_);fill:#695B62;}
	.st1{fill:#FFE800;}
	.st2{fill:#AF042F;}
	.st3{fill:#B8AF00;}
	.st4{fill:#003C7E;}
	.st5{fill:#1A171B;}
	.st6{filter:url(#Adobe_OpacityMaskFilter);}
	.st7{fill-rule:evenodd;clip-rule:evenodd;fill:#FFFFFF;}
	.st8{mask:url(#b_4_);fill-rule:evenodd;clip-rule:evenodd;fill:#349DCC;}
	.st9{filter:url(#Adobe_OpacityMaskFilter_1_);}
	.st10{mask:url(#b_3_);fill-rule:evenodd;clip-rule:evenodd;fill:#424342;}
	.st11{fill:#FFFFFF;}
	.st12{fill:#191919;}
	.st13{fill:none;}
	.st14{fill:#F032B9;}
	.st15{fill:#00BEFF;}
	.st16{fill:#FFC80A;}
	.st17{fill:#00960A;}
	.st18{fill:#FF3607;}
	.st19{fill:#0032C8;}
	.st20{fill:#1D1D1B;}
</style>
<g>
	<g>
		<path class="st5" d="M30.7,54.8c-3.1,0-4.7-1.7-4.8-5.1c0-0.2,0.1-0.3,0.2-0.3l2.4-0.4c0.2,0,0.3,0.1,0.3,0.3c0.1,2,0.7,2.8,2,2.8
			c1.2,0,1.8-0.7,1.8-2.8c0-2.1-0.4-2.8-1.9-3.4l-1.2-0.5c-2.7-1.1-3.5-2.4-3.5-5.5c0-3.3,1.5-5.1,4.7-5.1c3.2,0,4.6,1.7,4.7,4.7
			c0,0.2-0.1,0.3-0.3,0.3L33,40.4c-0.2,0-0.3-0.1-0.3-0.2c-0.1-1.6-0.6-2.5-1.8-2.5c-1.2,0-1.8,0.7-1.8,2.3c0,1.8,0.3,2.3,1.9,2.9
			l1.2,0.5c2.5,1,3.5,2.4,3.5,5.7C35.6,52.8,34.4,54.8,30.7,54.8z"/>
		<path class="st5" d="M36.6,35.5c0-0.2,0.1-0.3,0.3-0.3h2.5c0.2,0,0.3,0.1,0.3,0.3v18.7c0,0.2-0.1,0.3-0.3,0.3h-2.5
			c-0.2,0-0.3-0.1-0.3-0.3V35.5z"/>
		<path class="st5" d="M41.2,35.5c0-0.2,0.1-0.3,0.3-0.3h3c0.2,0,0.3,0.1,0.4,0.3l3.6,13.3h0.1V35.5c0-0.2,0.1-0.3,0.3-0.3H51
			c0.2,0,0.3,0.1,0.3,0.3v18.7c0,0.2-0.1,0.3-0.3,0.3h-2.8c-0.2,0-0.3-0.1-0.4-0.3L44,40.9h-0.2v13.3c0,0.2-0.1,0.3-0.3,0.3h-2.1
			c-0.2,0-0.3-0.1-0.3-0.3L41.2,35.5z"/>
		<path class="st5" d="M52.9,35.5c0-0.2,0.1-0.3,0.3-0.3h3c0.2,0,0.3,0.1,0.4,0.3l3.6,13.3h0.1V35.5c0-0.2,0.1-0.3,0.3-0.3h2.1
			c0.2,0,0.3,0.1,0.3,0.3v18.7c0,0.2-0.1,0.3-0.3,0.3h-2.8c-0.2,0-0.3-0.1-0.4-0.3l-3.7-13.3h-0.2v13.3c0,0.2-0.1,0.3-0.3,0.3h-2.1
			c-0.2,0-0.3-0.1-0.3-0.3L52.9,35.5L52.9,35.5z"/>
		<path class="st5" d="M64.5,35.5c0-0.2,0.1-0.3,0.3-0.3h7.9c0.2,0,0.3,0.1,0.3,0.3v2.2c0,0.2-0.1,0.3-0.3,0.3h-5
			c-0.1,0-0.2,0.1-0.2,0.2v5.1c0,0.1,0.1,0.2,0.2,0.2h4.3c0.2,0,0.3,0.1,0.3,0.3v2.2c0,0.2-0.1,0.3-0.3,0.3h-4.3
			c-0.1,0-0.2,0.1-0.2,0.2v5.3c0,0.1,0.1,0.2,0.2,0.2h5c0.2,0,0.3,0.1,0.3,0.3v2.2c0,0.2-0.1,0.3-0.3,0.3h-7.9
			c-0.2,0-0.3-0.1-0.3-0.3V35.5L64.5,35.5z"/>
		<path class="st5" d="M81.8,54.6c-0.2,0-0.3-0.1-0.3-0.2l-2.4-7.7h-0.5h-1c-0.1,0-0.2,0.1-0.2,0.2v7.4c0,0.2-0.1,0.3-0.3,0.3h-2.5
			c-0.2,0-0.3-0.1-0.3-0.3V35.5c0-0.2,0.1-0.3,0.3-0.3h3.9c3.4,0,5.5,1.5,5.5,5.7c0,2.5-0.9,4.1-2.3,4.9l2.7,8.4
			c0.1,0.1,0,0.3-0.1,0.3L81.8,54.6L81.8,54.6z M81.1,41c0-2.3-0.7-3-2.4-3h-1c-0.1,0-0.2,0.1-0.2,0.2v5.6c0,0.1,0.1,0.2,0.2,0.2h1
			C80.4,44,81.1,43.3,81.1,41z"/>
		<path class="st5" d="M90.2,54.8c-3.1,0-4.7-1.7-4.8-5.1c0-0.2,0.1-0.3,0.2-0.3l2.4-0.4c0.2,0,0.3,0.1,0.3,0.3c0.1,2,0.7,2.8,2,2.8
			c1.2,0,1.8-0.7,1.8-2.8c0-2.1-0.4-2.8-1.9-3.4l-1.2-0.5c-2.7-1.1-3.5-2.4-3.5-5.5c0-3.3,1.5-5.1,4.7-5.1c3.2,0,4.6,1.7,4.7,4.7
			c0,0.2-0.1,0.3-0.3,0.3l-2.3,0.3c-0.2,0-0.3-0.1-0.3-0.2c-0.1-1.6-0.6-2.5-1.8-2.5c-1.2,0-1.8,0.7-1.8,2.3c0,1.8,0.3,2.3,1.9,2.9
			l1.2,0.5c2.5,1,3.5,2.4,3.5,5.7C95.2,52.8,93.9,54.8,90.2,54.8z"/>
		<path class="st5" d="M96.3,44.9c0-5.4,0.1-6.2,0.4-7c0.6-1.8,2-3,4.4-3c2.8,0,4.5,1.4,4.7,4.6c0,0.2,0,0.3-0.2,0.3l-2.3,0.4
			c-0.2,0-0.3-0.1-0.3-0.3c-0.1-1.6-0.7-2.4-1.8-2.4c-0.9,0-1.3,0.4-1.5,1.1c-0.1,0.5-0.2,0.9-0.2,6.1s0.1,5.6,0.2,6.1
			c0.2,0.7,0.7,1.1,1.5,1.1c1.1,0,1.7-0.7,1.8-2.4c0-0.2,0.1-0.3,0.3-0.3l2.3,0.4c0.2,0,0.2,0.2,0.2,0.3c-0.2,3.2-1.9,4.6-4.7,4.6
			c-2.4,0-3.8-1.1-4.4-3C96.4,51.1,96.3,50.3,96.3,44.9z"/>
		<path class="st5" d="M107.4,35.5c0-0.2,0.1-0.3,0.3-0.3h2.5c0.2,0,0.3,0.1,0.3,0.3v7.6c0,0.1,0.1,0.2,0.2,0.2h3.3
			c0.1,0,0.2-0.1,0.2-0.2v-7.6c0-0.2,0.1-0.3,0.3-0.3h2.5c0.2,0,0.3,0.1,0.3,0.3v18.7c0,0.2-0.1,0.3-0.3,0.3h-2.5
			c-0.2,0-0.3-0.1-0.3-0.3v-8c0-0.1-0.1-0.2-0.2-0.2h-3.3c-0.1,0-0.2,0.1-0.2,0.2v8c0,0.2-0.1,0.3-0.3,0.3h-2.5
			c-0.2,0-0.3-0.1-0.3-0.3V35.5z"/>
		<path class="st5" d="M126,54.6c-0.2,0-0.3-0.1-0.3-0.2l-2.4-7.7h-0.5h-1c-0.1,0-0.2,0.1-0.2,0.2v7.4c0,0.2-0.1,0.3-0.3,0.3h-2.5
			c-0.2,0-0.3-0.1-0.3-0.3V35.5c0-0.2,0.1-0.3,0.3-0.3h3.9c3.4,0,5.5,1.5,5.5,5.7c0,2.5-0.9,4.1-2.3,4.9l2.7,8.4
			c0.1,0.1,0,0.3-0.1,0.3L126,54.6L126,54.6z M125.3,41c0-2.3-0.7-3-2.4-3h-1c-0.1,0-0.2,0.1-0.2,0.2v5.6c0,0.1,0.1,0.2,0.2,0.2h1
			C124.5,44,125.3,43.3,125.3,41z"/>
		<path class="st5" d="M133.7,35.5c0.1-0.2,0.1-0.3,0.3-0.3h2.4c0.2,0,0.3,0.1,0.3,0.3l4.1,18.7c0,0.2-0.1,0.3-0.2,0.3h-2.4
			c-0.2,0-0.3-0.1-0.3-0.3l-0.8-3.9h-3.8l-0.8,3.9c0,0.2-0.1,0.3-0.3,0.3h-2.4c-0.2,0-0.3-0.1-0.2-0.3L133.7,35.5z M136.6,47.8
			l-1.4-7.2h-0.1l-1.4,7.2H136.6z"/>
		<path class="st5" d="M141.8,35.5c0-0.2,0.1-0.3,0.3-0.3h4.5c2.5,0,4,1,4.7,3.1c0.3,1.1,0.5,2.4,0.5,6.6s-0.1,5.5-0.5,6.6
			c-0.7,2.1-2.2,3.1-4.7,3.1h-4.5c-0.2,0-0.3-0.1-0.3-0.3V35.5z M145,51.8h1.2c1.1,0,1.7-0.4,2-1.4c0.2-0.7,0.3-1.6,0.3-5.5
			s-0.1-4.8-0.3-5.5c-0.3-1-1-1.4-2-1.4H145c-0.1,0-0.2,0.1-0.2,0.2v13.5C144.9,51.8,144.9,51.8,145,51.8z"/>
		<path class="st5" d="M153,35.5c0-0.2,0.1-0.3,0.3-0.3h7.9c0.2,0,0.3,0.1,0.3,0.3v2.2c0,0.2-0.1,0.3-0.3,0.3h-5
			c-0.1,0-0.2,0.1-0.2,0.2v5.1c0,0.1,0.1,0.2,0.2,0.2h4.3c0.2,0,0.3,0.1,0.3,0.3v2.2c0,0.2-0.1,0.3-0.3,0.3h-4.3
			c-0.1,0-0.2,0.1-0.2,0.2v5.3c0,0.1,0.1,0.2,0.2,0.2h5c0.2,0,0.3,0.1,0.3,0.3v2.2c0,0.2-0.1,0.3-0.3,0.3h-7.9
			c-0.2,0-0.3-0.1-0.3-0.3V35.5z"/>
		<path class="st5" d="M170.3,54.6c-0.2,0-0.3-0.1-0.3-0.2l-2.4-7.7h-0.5h-1c-0.1,0-0.2,0.1-0.2,0.2v7.4c0,0.2-0.1,0.3-0.3,0.3h-2.5
			c-0.2,0-0.3-0.1-0.3-0.3V35.5c0-0.2,0.1-0.3,0.3-0.3h3.9c3.4,0,5.5,1.5,5.5,5.7c0,2.5-0.9,4.1-2.3,4.9l2.7,8.4
			c0.1,0.1,0,0.3-0.1,0.3L170.3,54.6L170.3,54.6z M169.6,41c0-2.3-0.7-3-2.4-3h-1c-0.1,0-0.2,0.1-0.2,0.2v5.6c0,0.1,0.1,0.2,0.2,0.2
			h1C168.9,44,169.6,43.3,169.6,41z"/>
	</g>
	<g>
		<path class="st5" d="M25.9,60.3h2.3c1.5,0,2.8,0.7,2.8,2.4v0c0,1.7-1.3,2.4-2.8,2.4h-1.3v3.3h-1V60.3z M28.2,64.3
			c1.1,0,1.8-0.6,1.8-1.6v0c0-1.1-0.7-1.6-1.8-1.6h-1.4v3.2H28.2z"/>
		<path class="st5" d="M31.7,66.7c0-1.4,1.4-1.8,2.9-1.8h0.8v-0.4c0-0.9-0.4-1.3-1.3-1.3c-0.8,0-1.3,0.3-1.4,1.1H32
			c0.1-1.3,1.2-1.8,2.3-1.8c1.1,0,2.1,0.5,2.1,2.1v3.9h-0.9v-0.7c-0.4,0.6-1,0.8-1.8,0.8C32.6,68.5,31.7,67.9,31.7,66.7z M35.5,66.3
			v-0.7h-0.8c-1.2,0-2,0.3-2,1.2c0,0.6,0.3,1,1.1,1C34.8,67.7,35.5,67.2,35.5,66.3z"/>
		<path class="st5" d="M38.2,62.5h0.9v1.1c0.4-0.7,0.9-1.1,1.9-1.2v0.9c-1.2,0.1-1.9,0.4-1.9,1.9v3.2h-0.9V62.5z"/>
		<path class="st5" d="M42.6,66.9v-3.6h-0.8v-0.8h0.8v-1.3h0.9v1.3h1.4v0.8h-1.4v3.5c0,0.6,0.3,0.9,0.7,0.9c0.3,0,0.5,0,0.7-0.1v0.8
			c-0.2,0.1-0.4,0.1-0.8,0.1C43.1,68.4,42.6,67.8,42.6,66.9z"/>
		<path class="st5" d="M48.8,65.5L48.8,65.5c0-1.9,1.2-3.1,2.9-3.1s2.9,1.2,2.9,3v0.1c0,1.8-1.2,3-2.9,3
			C50,68.5,48.8,67.2,48.8,65.5z M53.6,65.5L53.6,65.5c0-1.4-0.8-2.3-1.9-2.3c-1.2,0-1.9,0.9-1.9,2.2v0.1c0,1.3,0.7,2.2,1.9,2.2
			C52.9,67.7,53.6,66.8,53.6,65.5z"/>
		<path class="st5" d="M56.1,63.3h-0.8v-0.8h0.8v-1c0-1.2,0.6-1.9,1.8-1.9c0.3,0,0.5,0,0.7,0.1v0.8c-0.2-0.1-0.4-0.1-0.7-0.1
			c-0.6,0-0.9,0.4-0.9,1v1.1h1.4v0.8h-1.4v5.1h-0.9V63.3z"/>
		<path class="st5" d="M64.9,60.3h1.3l2.7,8h-1L67.1,66h-3.3L63,68.4h-0.9L64.9,60.3z M64.1,65.3h2.8l-1.4-4.1L64.1,65.3z"/>
		<path class="st5" d="M69.5,65.5L69.5,65.5c0-1.9,1.3-3.1,2.9-3.1c1.2,0,2.4,0.6,2.6,2.1H74c-0.1-0.9-0.8-1.3-1.6-1.3
			c-1.1,0-1.9,0.9-1.9,2.2v0.1c0,1.4,0.8,2.2,1.9,2.2c0.8,0,1.6-0.5,1.7-1.4H75c-0.1,1.3-1.1,2.2-2.6,2.2
			C70.8,68.5,69.5,67.3,69.5,65.5z"/>
		<path class="st5" d="M75.9,65.5L75.9,65.5c0-1.9,1.3-3.1,2.9-3.1c1.2,0,2.4,0.6,2.6,2.1h-0.9c-0.1-0.9-0.8-1.3-1.6-1.3
			c-1.1,0-1.9,0.9-1.9,2.2v0.1c0,1.4,0.8,2.2,1.9,2.2c0.8,0,1.6-0.5,1.7-1.4h0.9c-0.1,1.3-1.1,2.2-2.6,2.2
			C77.1,68.5,75.9,67.3,75.9,65.5z"/>
		<path class="st5" d="M82.2,65.5L82.2,65.5c0-1.9,1.1-3.1,2.8-3.1c1.4,0,2.6,0.8,2.6,2.9v0.3h-4.4c0,1.3,0.7,2.1,1.9,2.1
			c0.9,0,1.4-0.3,1.6-1h0.9c-0.2,1.2-1.2,1.8-2.5,1.8C83.4,68.5,82.2,67.3,82.2,65.5z M86.7,64.8c-0.1-1.2-0.7-1.7-1.7-1.7
			c-1,0-1.6,0.7-1.8,1.7H86.7z"/>
		<path class="st5" d="M89,62.5h0.9v0.9c0.3-0.6,0.9-1,1.9-1c1.2,0,2.1,0.7,2.1,2.4v3.6h-0.9v-3.7c0-1-0.4-1.5-1.4-1.5
			c-0.9,0-1.6,0.6-1.6,1.6v3.6H89V62.5z"/>
		<path class="st5" d="M95.8,66.9v-3.6H95v-0.8h0.8v-1.3h0.9v1.3h1.4v0.8h-1.4v3.5c0,0.6,0.3,0.9,0.7,0.9c0.3,0,0.5,0,0.7-0.1v0.8
			c-0.2,0.1-0.4,0.1-0.8,0.1C96.3,68.4,95.8,67.8,95.8,66.9z"/>
		<path class="st5" d="M99.5,66.2v-3.7h0.9v3.7c0,1,0.4,1.5,1.4,1.5c0.8,0,1.6-0.6,1.6-1.6v-3.6h0.9v5.9h-0.9v-0.9
			c-0.3,0.6-0.9,1-1.9,1C100.4,68.5,99.5,67.8,99.5,66.2z"/>
		<path class="st5" d="M106.1,62.5h0.9v1.1c0.4-0.7,0.9-1.1,1.9-1.2v0.9c-1.2,0.1-1.9,0.4-1.9,1.9v3.2h-0.9V62.5z"/>
		<path class="st5" d="M109.7,65.5L109.7,65.5c0-1.9,1.1-3.1,2.8-3.1c1.4,0,2.6,0.8,2.6,2.9v0.3h-4.4c0,1.3,0.7,2.1,1.9,2.1
			c0.9,0,1.4-0.3,1.6-1h0.9c-0.2,1.2-1.2,1.8-2.5,1.8C110.9,68.5,109.7,67.3,109.7,65.5z M114.1,64.8c-0.1-1.2-0.7-1.7-1.7-1.7
			c-1,0-1.6,0.7-1.8,1.7H114.1z"/>
		<path class="st5" d="M119.5,60.3h1v8h-1V60.3z"/>
		<path class="st5" d="M122.4,62.5h0.9v0.9c0.3-0.6,0.9-1,1.9-1c1.2,0,2.1,0.7,2.1,2.4v3.6h-0.9v-3.7c0-1-0.4-1.5-1.4-1.5
			c-0.9,0-1.6,0.6-1.6,1.6v3.6h-0.9V62.5z"/>
		<path class="st5" d="M129.2,66.9v-3.6h-0.8v-0.8h0.8v-1.3h0.9v1.3h1.4v0.8h-1.4v3.5c0,0.6,0.3,0.9,0.7,0.9c0.3,0,0.5,0,0.7-0.1
			v0.8c-0.2,0.1-0.4,0.1-0.8,0.1C129.7,68.4,129.2,67.8,129.2,66.9z"/>
		<path class="st5" d="M132.5,65.5L132.5,65.5c0-1.9,1.1-3.1,2.8-3.1c1.4,0,2.6,0.8,2.6,2.9v0.3h-4.4c0,1.3,0.7,2.1,1.9,2.1
			c0.9,0,1.4-0.3,1.6-1h0.9c-0.2,1.2-1.2,1.8-2.5,1.8C133.7,68.5,132.5,67.3,132.5,65.5z M136.9,64.8c-0.1-1.2-0.7-1.7-1.7-1.7
			c-1,0-1.6,0.7-1.8,1.7H136.9z"/>
		<path class="st5" d="M139.2,62.5h0.9v1.1c0.4-0.7,0.9-1.1,1.9-1.2v0.9c-1.2,0.1-1.9,0.4-1.9,1.9v3.2h-0.9V62.5z"/>
		<path class="st5" d="M142.9,66.7c0-1.4,1.4-1.8,2.9-1.8h0.8v-0.4c0-0.9-0.4-1.3-1.3-1.3c-0.8,0-1.3,0.3-1.4,1.1h-0.9
			c0.1-1.3,1.2-1.8,2.3-1.8c1.1,0,2.1,0.5,2.1,2.1v3.9h-0.9v-0.7c-0.4,0.6-1,0.8-1.8,0.8C143.7,68.5,142.9,67.9,142.9,66.7z
			 M146.6,66.3v-0.7h-0.8c-1.2,0-2,0.3-2,1.2c0,0.6,0.3,1,1.1,1C145.9,67.7,146.6,67.2,146.6,66.3z"/>
		<path class="st5" d="M148.9,65.5L148.9,65.5c0-1.9,1.3-3.1,2.9-3.1c1.2,0,2.4,0.6,2.6,2.1h-0.9c-0.1-0.9-0.8-1.3-1.6-1.3
			c-1.1,0-1.9,0.9-1.9,2.2v0.1c0,1.4,0.8,2.2,1.9,2.2c0.8,0,1.6-0.5,1.7-1.4h0.9c-0.1,1.3-1.1,2.2-2.6,2.2
			C150.1,68.5,148.9,67.3,148.9,65.5z"/>
		<path class="st5" d="M155.9,66.9v-3.6H155v-0.8h0.8v-1.3h0.9v1.3h1.4v0.8h-1.4v3.5c0,0.6,0.3,0.9,0.7,0.9c0.3,0,0.5,0,0.7-0.1v0.8
			c-0.2,0.1-0.4,0.1-0.8,0.1C156.4,68.4,155.9,67.8,155.9,66.9z"/>
		<path class="st5" d="M159.4,60.6c0-0.3,0.3-0.6,0.6-0.6c0.3,0,0.6,0.3,0.6,0.6c0,0.3-0.3,0.6-0.6,0.6
			C159.7,61.2,159.4,61,159.4,60.6z M159.6,62.5h0.9v5.9h-0.9V62.5z"/>
		<path class="st5" d="M161.7,62.5h1l1.7,4.9l1.7-4.9h1l-2.1,5.9h-1.2L161.7,62.5z"/>
		<path class="st5" d="M167.7,65.5L167.7,65.5c0-1.9,1.1-3.1,2.8-3.1c1.4,0,2.6,0.8,2.6,2.9v0.3h-4.4c0,1.3,0.7,2.1,1.9,2.1
			c0.9,0,1.4-0.3,1.6-1h0.9c-0.2,1.2-1.2,1.8-2.5,1.8C168.9,68.5,167.7,67.3,167.7,65.5z M172.1,64.8c-0.1-1.2-0.7-1.7-1.7-1.7
			c-1,0-1.6,0.7-1.8,1.7H172.1z"/>
	</g>
</g>
</svg>
