<?xml version="1.0" encoding="utf-8"?>
<!-- Generator: Adobe Illustrator 24.0.3, SVG Export Plug-In . SVG Version: 6.00 Build 0)  -->
<svg version="1.1" id="Layer_1" xmlns="http://www.w3.org/2000/svg" xmlns:xlink="http://www.w3.org/1999/xlink" x="0px" y="0px"
	 viewBox="0 0 200 100" style="enable-background:new 0 0 200 100;" xml:space="preserve">
<style type="text/css">
	.st0{clip-path:url(#SVGID_2_);fill:#695B62;}
	.st1{fill:#FFE800;}
	.st2{fill:#AF042F;}
	.st3{fill:#B8AF00;}
	.st4{fill:#003C7E;}
	.st5{fill:#1A171B;}
	.st6{filter:url(#Adobe_OpacityMaskFilter);}
	.st7{fill-rule:evenodd;clip-rule:evenodd;fill:#FFFFFF;}
	.st8{mask:url(#b_4_);fill-rule:evenodd;clip-rule:evenodd;fill:#349DCC;}
	.st9{filter:url(#Adobe_OpacityMaskFilter_1_);}
	.st10{mask:url(#b_3_);fill-rule:evenodd;clip-rule:evenodd;fill:#424342;}
	.st11{fill:#FFFFFF;}
	.st12{fill:#191919;}
	.st13{fill:none;}
	.st14{fill:#F032B9;}
	.st15{fill:#00BEFF;}
	.st16{fill:#FFC80A;}
	.st17{fill:#00960A;}
	.st18{fill:#FF3607;}
	.st19{fill:#0032C8;}
	.st20{fill:#1D1D1B;}
</style>
<g>
	<path class="st20" d="M166.4,46.1c0-1.1,0.9-2,2-2c1.1,0,2,0.9,2,2c0,1.1-0.9,2-2,2C167.3,48.1,166.4,47.2,166.4,46.1z M169.9,46.1
		c0-0.9-0.6-1.5-1.5-1.5c-0.9,0-1.5,0.6-1.5,1.5c0,0.9,0.6,1.5,1.5,1.5C169.3,47.6,169.9,47,169.9,46.1z M169.4,47.2h-0.5l-0.5-0.9
		H168v0.9h-0.5V45h1c0.6,0,0.8,0.2,0.8,0.7c0,0.4-0.2,0.6-0.6,0.6L169.4,47.2z M168.6,46c0.2,0,0.4-0.1,0.4-0.3
		c0-0.3-0.3-0.3-0.5-0.3H168V46H168.6z"/>
	<g>
		<path class="st20" d="M41.5,42.2h-4.6v14.7h-3.5V42.2h-4.6v-3h12.7V42.2z"/>
		<path class="st20" d="M46.2,45.4c1.1-0.9,2.4-1.6,3.8-1.6c1.4,0,3.3,0.8,3.3,4v9H50v-7.7c0-1,0.1-2.6-1.4-2.6
			c-1,0-1.7,0.7-2.4,1.4v8.9h-3.4V39.2h3.4V45.4z"/>
		<path class="st20" d="M54.7,50.5c0-3.4,1.9-6.6,5.6-6.6c3.7,0,5.6,3.2,5.6,6.6c0,3.4-1.9,6.6-5.6,6.6
			C56.6,57.1,54.7,53.8,54.7,50.5z M62.5,50.5c0-1.6-0.3-4.2-2.1-4.2c-1.8,0-2.1,2.6-2.1,4.2c0,1.6,0.3,4.2,2.1,4.2
			C62.1,54.6,62.5,52.1,62.5,50.5z"/>
		<path class="st20" d="M74.5,55.5c-1.1,0.9-2.4,1.6-3.8,1.6c-1.4,0-3.3-0.8-3.3-4v-9h3.4v7.7c0,1-0.1,2.6,1.4,2.6
			c1,0,1.7-0.7,2.4-1.4v-8.9h3.4v12.7h-3.4V55.5z"/>
		<path class="st20" d="M83.4,52.6c-0.4,0-1,0.2-1,0.8c0,1.7,8.8-1.2,8.8,3.7c0,1.9-1.3,3.9-6.3,3.9c-4.4,0-5.9-1.5-5.9-3.2
			c0-1,0.6-1.5,1.4-1.9c-0.5-0.4-1-0.9-1-1.6c0-1.2,0.7-1.9,1.7-2.5c-0.9-0.9-1.6-2-1.6-3.5c0-2.8,2.4-4.5,5.1-4.5
			c1.1,0,2.2,0.3,3.1,0.9c0.7-0.6,1.3-1,2.3-1c0.3,0,0.7,0,1,0.1v2.4c-0.3-0.1-0.7-0.3-1.1-0.3c-0.4,0-0.6,0.1-0.9,0.3
			c0.4,0.7,0.7,1.4,0.7,2.2c0,2.8-2.4,4.5-5.1,4.5L83.4,52.6z M82.3,56.8c-0.3,0.2-0.5,0.4-0.5,0.8c0,1.2,2.4,1.2,3.2,1.2
			c0.6,0,3.5-0.1,3.5-1.1c0-0.7-0.5-0.6-2.5-0.7L82.3,56.8z M84.6,50.5c1.4,0,1.8-1.2,1.8-2.4c0-1.2-0.5-2.1-1.8-2.1
			c-1.4,0-1.8,1.2-1.8,2.4C82.8,49.6,83.3,50.5,84.6,50.5z"/>
		<path class="st20" d="M95.8,45.4c1.1-0.9,2.4-1.6,3.8-1.6c1.4,0,3.3,0.8,3.3,4v9h-3.4v-7.7c0-1,0.1-2.6-1.4-2.6
			c-1,0-1.7,0.7-2.4,1.4v8.9h-3.4V39.2h3.4V45.4z"/>
		<path class="st20" d="M109.1,44.1h2.6v2.8h-2.6v6.5c0,0.6,0.2,1.2,1.3,1.2c0.6,0,0.9-0.2,1.3-0.5v2.6c-0.7,0.2-1.4,0.4-2.2,0.4
			c-2.1,0-3.8-1.2-3.8-4v-6.2h-1.6v-2.8h1.6v-3.2h3.4V44.1z"/>
		<path class="st20" d="M125.7,56.8h-1.8l-3-14.4h0l-3.2,14.4h-1.8l-3.7-17.7h1.8l2.9,14.3h0l3.2-14.3h1.7l3,14.3h0l3.1-14.3h1.7
			L125.7,56.8z"/>
		<path class="st20" d="M128.9,50.6c0-4.7,2.2-6.6,5-6.6c2.8,0,5,1.9,5,6.6c0,4.7-2.2,6.6-5,6.6C131.2,57.2,128.9,55.3,128.9,50.6z
			 M137.2,50.6c0-2.1-0.5-5.1-3.2-5.1c-2.7,0-3.2,3-3.2,5.1c0,2.1,0.5,5.1,3.2,5.1C136.7,55.7,137.2,52.7,137.2,50.6z"/>
		<path class="st20" d="M142.1,47L142.1,47c0.8-1.5,1.7-2.9,3.5-2.9h0.7v1.6c-2.3-0.3-3.5,2.2-4.2,4v7.1h-1.8V44.3h1.8V47z"/>
		<path class="st20" d="M149.5,50.1l4.7-5.8h2l-3.5,4.3l4,8.2h-1.9l-3.2-6.8l-2,2.5v4.3h-1.8V39.2h1.8V50.1z"/>
		<path class="st20" d="M164.4,47.1c-0.7-1-1.5-1.7-2.9-1.7c-1.2,0-2.2,0.6-2.2,1.9c0,3.1,6.6,1.7,6.6,5.9c0,2.5-1.7,4-4.1,4
			c-2,0-3.7-0.9-4.7-2.6l1.4-0.9c0.7,1.3,1.8,2,3.3,2c1.3,0,2.5-0.7,2.5-2.1c0-3.2-6.6-1.7-6.6-6.2c0-2.2,1.8-3.5,3.8-3.5
			c1.7,0,3.2,0.7,4.2,2.2L164.4,47.1z"/>
	</g>
</g>
</svg>
