<?xml version="1.0" encoding="utf-8"?>
<!-- Generator: Adobe Illustrator 23.0.1, SVG Export Plug-In . SVG Version: 6.00 Build 0)  -->
<svg version="1.0" xmlns="http://www.w3.org/2000/svg" xmlns:xlink="http://www.w3.org/1999/xlink" x="0px" y="0px"
	 viewBox="0 0 400 250" enable-background="new 0 0 400 250" xml:space="preserve">
<g id="Background">
</g>
<g id="Fog">
</g>
<g id="Sky">
	<g id="Layer_12">
	</g>
</g>
<g id="Mountains">
</g>
<g id="Trees">
</g>
<g id="Floor">
</g>
<g id="Dekoration">
</g>
<g id="Mask">
</g>
<g id="Character">
	<g>
		<path fill="#9700B8" d="M13.2,119c0-33.4,27.1-60.6,60.6-60.6s60.6,27.1,60.6,60.6"/>
		<rect x="13.2" y="119" fill="#9700B8" width="121.1" height="119.4"/>
		<ellipse fill="#A4AAFF" cx="73.8" cy="120.1" rx="51.3" ry="56.8"/>
		<g>
			<circle fill="#6B3CFF" cx="94.9" cy="146.4" r="1.4"/>
			<circle fill="#6B3CFF" cx="98.4" cy="143.3" r="1.4"/>
			<circle fill="#6B3CFF" cx="99.8" cy="148.2" r="1.4"/>
			<circle fill="#6B3CFF" cx="95.7" cy="151.3" r="1.4"/>
			<circle fill="#6B3CFF" cx="100.4" cy="153.5" r="1.4"/>
			<circle fill="#6B3CFF" cx="103.4" cy="145" r="1.4"/>
			<circle fill="#6B3CFF" cx="104.8" cy="149.9" r="1.4"/>
			<circle fill="#6B3CFF" cx="91.1" cy="150.2" r="1.4"/>
			<circle fill="#6B3CFF" cx="93.8" cy="155.5" r="1.4"/>
		</g>
		<g>
			<circle fill="#6B3CFF" cx="94.9" cy="146.4" r="1.4"/>
			<circle fill="#6B3CFF" cx="98.4" cy="143.3" r="1.4"/>
			<circle fill="#6B3CFF" cx="99.8" cy="148.2" r="1.4"/>
			<circle fill="#6B3CFF" cx="95.7" cy="151.3" r="1.4"/>
			<circle fill="#6B3CFF" cx="100.4" cy="153.5" r="1.4"/>
			<circle fill="#6B3CFF" cx="103.4" cy="145" r="1.4"/>
			<circle fill="#6B3CFF" cx="104.8" cy="149.9" r="1.4"/>
			<circle fill="#6B3CFF" cx="91.1" cy="150.2" r="1.4"/>
			<circle fill="#6B3CFF" cx="93.8" cy="155.5" r="1.4"/>
		</g>
		<path fill="#1E0080" d="M24,207.9c0-12.2,22.3-22.1,49.8-22.1s49.8,9.9,49.8,22.1"/>
		<path fill="#1E0080" d="M82.4,155.4c0,4.8-3.9,8.6-8.6,8.6s-8.6-3.9-8.6-8.6"/>
		<path fill="#9700B8" d="M129.2,123.8l-13.2-46.1L97.5,65l-17.2-2.5h-6.2h-0.8h-6.2L50.1,65L31.5,77.7l-13.2,46.1
			c9.9-10.1,51.1-34.9,55.5-38.9C78.1,88.9,119.4,113.7,129.2,123.8z"/>
		<path fill="#A4AAFF" d="M62.8,170.2v15.4c0,6,4.9,10.9,10.9,10.9c6,0,10.9-4.9,10.9-10.9v-15.4H62.8z"/>
		<g>
			<g>
				<circle fill="#1E0080" cx="94.6" cy="126.4" r="5.2"/>
			</g>
			<g>
				<circle fill="#1E0080" cx="52.9" cy="126.4" r="5.2"/>
			</g>
		</g>
		<rect x="24" y="207.3" fill="#1E0080" width="99.6" height="31.1"/>
		<g>
			<path fill="none" stroke="#FFFFFF" stroke-width="3.0362" stroke-linecap="round" stroke-miterlimit="10" d="M26.9,101.9
				c0,0,6.7-23.9,32.7-31.1"/>
			
				<line fill="none" stroke="#FFFFFF" stroke-width="3.0362" stroke-linecap="round" stroke-miterlimit="10" x1="65.6" y1="69.3" x2="66.5" y2="69.1"/>
		</g>
		<g>
			<g>
				<circle fill="#6B3CFF" cx="94.9" cy="146.4" r="1.4"/>
				<circle fill="#6B3CFF" cx="98.4" cy="143.3" r="1.4"/>
				<circle fill="#6B3CFF" cx="99.8" cy="148.2" r="1.4"/>
				<circle fill="#6B3CFF" cx="95.7" cy="151.3" r="1.4"/>
				<circle fill="#6B3CFF" cx="100.4" cy="153.5" r="1.4"/>
				<circle fill="#6B3CFF" cx="103.4" cy="145" r="1.4"/>
				<circle fill="#6B3CFF" cx="104.8" cy="149.9" r="1.4"/>
				<circle fill="#6B3CFF" cx="91.1" cy="150.2" r="1.4"/>
				<circle fill="#6B3CFF" cx="93.8" cy="155.5" r="1.4"/>
			</g>
			<g>
				<circle fill="#6B3CFF" cx="50.8" cy="146.4" r="1.4"/>
				<circle fill="#6B3CFF" cx="47.3" cy="143.3" r="1.4"/>
				<circle fill="#6B3CFF" cx="45.9" cy="148.2" r="1.4"/>
				<circle fill="#6B3CFF" cx="50" cy="151.3" r="1.4"/>
				<circle fill="#6B3CFF" cx="45.2" cy="153.5" r="1.4"/>
				<circle fill="#6B3CFF" cx="42.3" cy="145" r="1.4"/>
				<circle fill="#6B3CFF" cx="40.9" cy="149.9" r="1.4"/>
				<circle fill="#6B3CFF" cx="54.6" cy="150.2" r="1.4"/>
				<circle fill="#6B3CFF" cx="51.9" cy="155.5" r="1.4"/>
			</g>
		</g>
		<g>
			
				<line fill="#A4AAFF" stroke="#0084BF" stroke-width="3.0633" stroke-linecap="round" stroke-linejoin="round" stroke-miterlimit="10" x1="65.2" y1="125.3" x2="82.1" y2="125.3"/>
			
				<circle fill="none" stroke="#0084BF" stroke-width="3.0633" stroke-linecap="round" stroke-linejoin="round" stroke-miterlimit="10" cx="94.6" cy="126.4" r="12.3"/>
			
				<circle fill="none" stroke="#0084BF" stroke-width="3.0633" stroke-linecap="round" stroke-linejoin="round" stroke-miterlimit="10" cx="52.9" cy="126.4" r="12.3"/>
			<g>
				
					<line fill="#A4AAFF" stroke="#0084BF" stroke-width="3.0633" stroke-linecap="round" stroke-linejoin="round" stroke-miterlimit="10" x1="22.5" y1="125.3" x2="40.6" y2="125.3"/>
				
					<line fill="#A4AAFF" stroke="#0084BF" stroke-width="3.0633" stroke-linecap="round" stroke-linejoin="round" stroke-miterlimit="10" x1="107" y1="125.3" x2="125.1" y2="125.3"/>
			</g>
		</g>
		<g>
			<path fill="#6B3CFF" d="M71.2,223.4c-1-0.6-1.9-1.3-2.4-2.3c-0.6-1-0.9-2.1-0.9-3.4c0-1.2,0.3-2.4,0.9-3.4c0.6-1,1.4-1.8,2.5-2.3
				c1-0.6,2.2-0.8,3.5-0.8c1,0,2,0.2,2.9,0.5c0.9,0.4,1.6,0.9,2.2,1.6l-1.5,1.4c-0.9-1-2.1-1.5-3.4-1.5c-0.9,0-1.7,0.2-2.3,0.6
				c-0.7,0.4-1.2,0.9-1.6,1.6c-0.4,0.7-0.6,1.5-0.6,2.3c0,0.9,0.2,1.6,0.6,2.3c0.4,0.7,0.9,1.2,1.6,1.6c0.7,0.4,1.5,0.6,2.3,0.6
				c1.3,0,2.5-0.5,3.4-1.5l1.5,1.5c-0.6,0.7-1.3,1.2-2.2,1.6c-0.9,0.4-1.8,0.5-2.9,0.5C73.4,224.3,72.2,224,71.2,223.4z"/>
		</g>
		<g>
			
				<line fill="none" stroke="#6B3CFF" stroke-width="1.6512" stroke-linecap="round" stroke-miterlimit="10" x1="65.7" y1="206.7" x2="81.8" y2="206.7"/>
			
				<line fill="none" stroke="#6B3CFF" stroke-width="1.6512" stroke-linecap="round" stroke-miterlimit="10" x1="65.7" y1="228.7" x2="81.8" y2="228.7"/>
		</g>
	</g>
	<g>
		<g>
			<path fill="#6B3CFF" d="M233.1,55.4c3.8-3.2,11-5.2,19.4-1.1c11.1,5.5,8.1,13.2,8.1,13.2s34.1,16.8,5.8,51.6
				c-1.9,2.3-4.4,4-6.9,5.7c-6.5,4.4-13.1,8.8-20.3,11.7c-7.3,3-15.3,4.6-23,3.2c-9-1.6-17.2-6.9-26.3-7.4c-2.5-0.1-5,0.1-7.4,0
				c-8.6-0.6-15.9-6.1-22.7-11.5l-5.1-7.2c-3-5.5-3.6-12.1-4.2-18.4c-0.4-4.3-0.5-9.2,2.6-12.2c1.3-1.3,3.2-2.2,4-3.9
				c0.5-1.2,0.4-2.5,0.6-3.7c0.9-4.8,6.6-7.1,11.5-7.2c1.7-4.5-1-10.3,2.1-13.9c2.1-2.5,5.8-2.6,9-2.2c3.2,0.4,6.6,1.1,9.5-0.3
				c2.9-1.4,4.6-4.5,6.4-7.3c1.8-2.7,4.4-5.5,7.7-5.3c2.3,0.1,4.2,1.7,5.9,3.2c3.9,3.4,7.9,6.9,11.8,10.3
				C221.4,52.8,228.4,59.5,233.1,55.4z"/>
		</g>
		<path fill="#A4AAFF" d="M262.6,120.1c0,31.3-23,60.5-51.3,60.5S160,151.5,160,120.1s23-56.8,51.3-56.8S262.6,88.8,262.6,120.1z"/>
		<path fill="#9700B8" d="M161.5,207.9c0-12.2,22.3-22.1,49.8-22.1s49.8,9.9,49.8,22.1"/>
		<path fill="#A4AAFF" d="M200.4,170.2v15.4c0,6,4.9,10.9,10.9,10.9s10.9-4.9,10.9-10.9v-15.4H200.4z"/>
		<g>
			<g>
				<circle fill="#1E0080" cx="232.2" cy="126.4" r="5.2"/>
			</g>
			<g>
				<circle fill="#1E0080" cx="190.5" cy="126.4" r="5.2"/>
			</g>
			<g>
				<path fill="#0084BF" d="M201.6,115.6h-22.3c-1.6,0-2.8-1.3-2.8-2.8v0c0-1.6,1.3-2.8,2.8-2.8h22.3c1.6,0,2.8,1.3,2.8,2.8v0
					C204.4,114.4,203.2,115.6,201.6,115.6z"/>
				<path fill="#0084BF" d="M243.3,115.6H221c-1.6,0-2.8-1.3-2.8-2.8v0c0-1.6,1.3-2.8,2.8-2.8h22.3c1.6,0,2.8,1.3,2.8,2.8v0
					C246.2,114.4,244.9,115.6,243.3,115.6z"/>
			</g>
		</g>
		<path fill="#A4AAFF" d="M220.1,169.8h-17.5c-1.3,0-2.4-1.1-2.4-2.4v-8.1c0-1.3,1.1-2.4,2.4-2.4h17.5c1.3,0,2.4,1.1,2.4,2.4v8.1
			C222.5,168.7,221.4,169.8,220.1,169.8z"/>
		<path fill="#1E0080" d="M220,155.4c0,4.8-3.9,8.6-8.6,8.6c-4.8,0-8.6-3.9-8.6-8.6"/>
		<path fill="#6B3CFF" d="M172.7,74.8c0,0,37.1,31.9,90.8,26C263.6,100.9,219.5,16.7,172.7,74.8z"/>
		<path fill="#0084BF" d="M211.3,180.7c20.6,0,38.4-15.5,46.5-35.9c0-0.1,0-0.2,0-0.4c0,0-10.9,23.8-46.6,23.8
			c-35.7,0-46.6-23.8-46.6-23.8c0,0.1,0,0.3,0,0.4C173,165.2,190.7,180.7,211.3,180.7z"/>
		
			<path fill="none" stroke="#0084BF" stroke-width="4.595" stroke-linecap="round" stroke-linejoin="round" stroke-miterlimit="10" d="
			M228.9,171.8v-9.8c0-8.6-7.9-15.5-17.5-15.5s-17.5,6.9-17.5,15.5v9.8"/>
		<rect x="161.5" y="207.3" fill="#9700B8" width="99.6" height="31.1"/>
		<path fill="none" stroke="#FFFFFF" stroke-width="3.0362" stroke-linecap="round" stroke-miterlimit="10" d="M176.5,58.6
			c0,0,14.5,4.1,21.6-5.4"/>
		
			<line fill="none" stroke="#FFFFFF" stroke-width="3.0362" stroke-linecap="round" stroke-miterlimit="10" x1="201.5" y1="48.2" x2="202.2" y2="47.2"/>
		<g>
			<path fill="#EB18FF" d="M214.9,221.1h-6.4l-1.3,3h-2.4l5.7-12.8h2.3l5.8,12.8h-2.5L214.9,221.1z M214.1,219.3l-2.4-5.6l-2.4,5.6
				H214.1z"/>
		</g>
		<g>
			
				<line fill="none" stroke="#EB18FF" stroke-width="1.6512" stroke-linecap="round" stroke-miterlimit="10" x1="203.3" y1="206.7" x2="219.4" y2="206.7"/>
			
				<line fill="none" stroke="#EB18FF" stroke-width="1.6512" stroke-linecap="round" stroke-miterlimit="10" x1="203.3" y1="228.7" x2="219.4" y2="228.7"/>
		</g>
	</g>
	<g>
		<ellipse fill="#A4AAFF" cx="336.8" cy="120.1" rx="51.3" ry="56.8"/>
		<path fill="#0084BF" d="M287,207.9c0-12.2,22.3-22.1,49.8-22.1s49.8,9.9,49.8,22.1"/>
		<path fill="#1E0080" d="M345.5,155.4c0,4.8-3.9,8.6-8.6,8.6c-4.8,0-8.6-3.9-8.6-8.6"/>
		<path fill="#A4AAFF" d="M325.9,170.2v15.4c0,6,4.9,10.9,10.9,10.9c6,0,10.9-4.9,10.9-10.9v-15.4H325.9z"/>
		<g>
			<g>
				<circle fill="#1E0080" cx="357.7" cy="126.4" r="5.2"/>
			</g>
			<g>
				<circle fill="#1E0080" cx="316" cy="126.4" r="5.2"/>
			</g>
		</g>
		<g>
			<path fill="#9700B8" d="M327.1,108h-22.3c-1.6,0-2.8-1.3-2.8-2.8l0,0c0-1.6,1.3-2.8,2.8-2.8h22.3c1.6,0,2.8,1.3,2.8,2.8l0,0
				C329.9,106.7,328.7,108,327.1,108z"/>
			<path fill="#9700B8" d="M368.8,108h-22.3c-1.6,0-2.8-1.3-2.8-2.8l0,0c0-1.6,1.3-2.8,2.8-2.8h22.3c1.6,0,2.8,1.3,2.8,2.8l0,0
				C371.6,106.7,370.4,108,368.8,108z"/>
		</g>
		<path fill="none" stroke="#9700B8" stroke-width="4.3985" stroke-linecap="round" stroke-miterlimit="10" d="M350.7,153.5
			c0,0-1.8-5.6-13.9-5.6h0.1c-12.1,0-13.9,5.6-13.9,5.6"/>
		
			<line fill="none" stroke="#9700B8" stroke-width="4.3985" stroke-linecap="round" stroke-miterlimit="10" x1="334.2" y1="168" x2="339.4" y2="168"/>
		<rect x="287" y="207.3" fill="#0084BF" width="99.6" height="31.1"/>
		<path fill="none" stroke="#FFFFFF" stroke-width="3.0362" stroke-linecap="round" stroke-miterlimit="10" d="M302,88.9
			c0,0,9-15.7,30.2-18.2"/>
		
			<line fill="none" stroke="#FFFFFF" stroke-width="3.0362" stroke-linecap="round" stroke-miterlimit="10" x1="336.6" y1="70.2" x2="337.5" y2="70.2"/>
		<g>
			
				<line fill="#A4AAFF" stroke="#6B3CFF" stroke-width="3.0633" stroke-linecap="round" stroke-linejoin="round" stroke-miterlimit="10" x1="285.5" y1="125.3" x2="301.5" y2="125.3"/>
			
				<line fill="#A4AAFF" stroke="#6B3CFF" stroke-width="3.0633" stroke-linecap="round" stroke-linejoin="round" stroke-miterlimit="10" x1="372.1" y1="125.3" x2="388.1" y2="125.3"/>
			
				<line fill="#A4AAFF" stroke="#6B3CFF" stroke-width="3.0633" stroke-linecap="round" stroke-linejoin="round" stroke-miterlimit="10" x1="330.9" y1="125.3" x2="343.2" y2="125.3"/>
			<g>
				
					<path fill="none" stroke="#6B3CFF" stroke-width="3.0633" stroke-linecap="round" stroke-linejoin="round" stroke-miterlimit="10" d="
					M325.3,136.7h-18.7c-2.8,0-5.1-2.3-5.1-5.1v-10.5c0-2.8,2.3-5.1,5.1-5.1h18.7c2.8,0,5.1,2.3,5.1,5.1v10.5
					C330.4,134.4,328.1,136.7,325.3,136.7z"/>
				
					<path fill="none" stroke="#6B3CFF" stroke-width="3.0633" stroke-linecap="round" stroke-linejoin="round" stroke-miterlimit="10" d="
					M367,136.7h-18.7c-2.8,0-5.1-2.3-5.1-5.1v-10.5c0-2.8,2.3-5.1,5.1-5.1H367c2.8,0,5.1,2.3,5.1,5.1v10.5
					C372.1,134.4,369.8,136.7,367,136.7z"/>
			</g>
		</g>
		<g>
			<path fill="#5D0081" d="M334.4,223.8c-0.7-0.3-1.2-0.8-1.7-1.4l1.3-1.6c0.7,1,1.5,1.5,2.5,1.5c1.3,0,2-0.8,2-2.3v-6.6H334v-2h6.9
				v8.5c0,1.5-0.4,2.6-1.1,3.4c-0.7,0.7-1.8,1.1-3.2,1.1C335.8,224.3,335.1,224.1,334.4,223.8z"/>
		</g>
		<g>
			
				<line fill="none" stroke="#5D0081" stroke-width="1.6512" stroke-linecap="round" stroke-miterlimit="10" x1="328.6" y1="206.7" x2="344.7" y2="206.7"/>
			
				<line fill="none" stroke="#5D0081" stroke-width="1.6512" stroke-linecap="round" stroke-miterlimit="10" x1="328.6" y1="228.7" x2="344.7" y2="228.7"/>
		</g>
	</g>
</g>
<g id="Lines">
</g>
<g id="Text" display="none">
</g>
<g id="Fog_Overlay">
</g>
</svg>
