<?xml version="1.0" encoding="utf-8"?>
<!-- Generator: Adobe Illustrator 22.1.0, SVG Export Plug-In . SVG Version: 6.00 Build 0)  -->
<svg version="1.0" xmlns="http://www.w3.org/2000/svg" xmlns:xlink="http://www.w3.org/1999/xlink" x="0px" y="0px"
	 viewBox="0 0 400 250" enable-background="new 0 0 400 250" xml:space="preserve">
<g id="Background">
</g>
<g id="Fog">
</g>
<g id="Sky">
	<g id="Layer_12">
	</g>
</g>
<g id="Mountains">
</g>
<g id="Trees">
</g>
<g id="Floor">
</g>
<g id="Dekoration">
</g>
<g id="Mask">
</g>
<g id="Character">
	<g>
		<ellipse opacity="0.35" fill="#1E0080" cx="306" cy="206.5" rx="55.6" ry="9.4"/>
		<g>
			<g>
				<g>
					<g>
						<path fill="#6B3CFF" d="M312.1,204.1c2.1,0,3.7-1.9,3.7-4.2v-55.5h-7.5V200C308.3,202.3,310,204.1,312.1,204.1z"/>
					</g>
					<rect x="308.3" y="144.5" opacity="0.54" fill="#1E0080" width="7.5" height="47.5"/>
				</g>
				<path fill="#6B3CFF" d="M320.8,204.9h-9.2c-1.8,0-3.3-1.5-3.3-3.3V200c0-1.8,1.5-3.3,3.3-3.3h9.2c1.8,0,3.3,1.5,3.3,3.3v1.6
					C324,203.4,322.5,204.9,320.8,204.9z"/>
			</g>
			<rect x="308.3" y="144.5" opacity="0.54" fill="#1E0080" width="7.5" height="47.5"/>
		</g>
		<g>
			<g>
				<path fill="#6B3CFF" d="M299.9,204.1c-2.1,0-3.7-1.9-3.7-4.2v-55.5h7.5V200C303.7,202.3,302,204.1,299.9,204.1z"/>
			</g>
			
				<rect x="296.2" y="144.5" transform="matrix(-1 -5.082968e-11 5.082968e-11 -1 599.8625 336.475)" fill="#4A00D0" width="7.5" height="47.5"/>
			
				<rect x="296.2" y="144.5" transform="matrix(-1 -5.082968e-11 5.082968e-11 -1 599.8625 336.475)" opacity="0.54" fill="#1E0080" width="7.5" height="47.5"/>
			<path fill="#6B3CFF" d="M291.2,204.9h9.2c1.8,0,3.3-1.5,3.3-3.3V200c0-1.8-1.5-3.3-3.3-3.3h-9.2c-1.8,0-3.3,1.5-3.3,3.3v1.6
				C288,203.4,289.4,204.9,291.2,204.9z"/>
		</g>
		<g>
			<g>
				<g>
					<path fill="#6B3CFF" d="M224.2,87.5c0-43.3,36.6-83.5,81.8-83.5s81.8,40.2,81.8,83.5S351.2,186,306,186S224.2,130.8,224.2,87.5
						z"/>
				</g>
				<g>
					<path fill="none" stroke="#FFFFFF" stroke-width="4.2878" stroke-linecap="round" stroke-miterlimit="10" d="M269.3,27.6
						c8.1-5.2,18.1-9.1,30.3-10"/>
					<g>
						<g>
							<path fill="#FFFFFF" d="M308.2,19.2c2.9,0,2.9-4.5,0-4.5C305.3,14.7,305.3,19.2,308.2,19.2L308.2,19.2z"/>
						</g>
					</g>
				</g>
			</g>
			<path opacity="0.54" fill="#1E0080" d="M272.1,175.4L272.1,175.4C282.4,182,293.9,186,306,186c45.2,0,81.8-55.2,81.8-98.5
				C387.8,87.5,362.7,178.9,272.1,175.4z"/>
		</g>
		<g>
			<g>
				<g>
					<circle fill="#4A00D0" cx="246.9" cy="108.2" r="4.1"/>
					<circle fill="#4A00D0" cx="238.9" cy="113.6" r="1.7"/>
				</g>
				<circle fill="#4A00D0" cx="245.7" cy="118.1" r="3.1"/>
			</g>
			<g>
				<g>
					<circle fill="#4A00D0" cx="370.7" cy="67.6" r="4.1"/>
					<circle fill="#4A00D0" cx="362.7" cy="73.1" r="1.7"/>
				</g>
				<circle fill="#4A00D0" cx="369.4" cy="77.5" r="3.1"/>
			</g>
		</g>
		<path opacity="0.54" fill="#1E0080" d="M257.3,88.5c0-27.9,21.8-50.5,48.6-50.5s48.6,22.6,48.6,50.5s-21.8,63.4-48.6,63.4
			S257.3,116.3,257.3,88.5z"/>
		<path fill="#A4AAFF" d="M257.3,82.7c0-27.9,21.8-50.5,48.6-50.5s48.6,22.6,48.6,50.5s-21.8,63.4-48.6,63.4S257.3,110.6,257.3,82.7
			z"/>
		<ellipse fill="#6B3CFF" cx="305" cy="82" rx="34.3" ry="24.9"/>
		<g>
			<g>
				<circle fill="#6B3CFF" cx="334.4" cy="108.5" r="1.3"/>
				<circle fill="#6B3CFF" cx="337.7" cy="105.7" r="1.3"/>
				<circle fill="#6B3CFF" cx="339" cy="110.2" r="1.3"/>
				<circle fill="#6B3CFF" cx="335.2" cy="113" r="1.3"/>
				<circle fill="#6B3CFF" cx="339.5" cy="115.1" r="1.3"/>
				<circle fill="#6B3CFF" cx="342.3" cy="107.2" r="1.3"/>
				<circle fill="#6B3CFF" cx="343.5" cy="111.8" r="1.3"/>
				<circle fill="#6B3CFF" cx="330.9" cy="112" r="1.3"/>
				<circle fill="#6B3CFF" cx="333.4" cy="116.9" r="1.3"/>
			</g>
			<g>
				<circle fill="#6B3CFF" cx="277.4" cy="108.5" r="1.3"/>
				<circle fill="#6B3CFF" cx="274.1" cy="105.7" r="1.3"/>
				<circle fill="#6B3CFF" cx="272.8" cy="110.2" r="1.3"/>
				<circle fill="#6B3CFF" cx="276.6" cy="113" r="1.3"/>
				<circle fill="#6B3CFF" cx="272.2" cy="115.1" r="1.3"/>
				<circle fill="#6B3CFF" cx="269.5" cy="107.2" r="1.3"/>
				<circle fill="#6B3CFF" cx="268.2" cy="111.8" r="1.3"/>
				<circle fill="#6B3CFF" cx="280.9" cy="112" r="1.3"/>
				<circle fill="#6B3CFF" cx="278.4" cy="116.9" r="1.3"/>
			</g>
		</g>
		<g>
			<g>
				<path fill="#4A00D0" d="M306.1,121.8L306.1,121.8c4.9,0,8.9-1.6,8.9,2.1v0c0,3.8-4,6.8-8.9,6.8h0c-4.9,0-8.9-3.1-8.9-6.8v0
					C297.2,120.2,301.2,121.8,306.1,121.8z"/>
			</g>
			<path fill="#FFFFFF" d="M306,120.1c-2.3,0-4.5,0.5-6.3,1.4c0.1,2.5,2.9,2.4,6.3,2.4c3.4,0,6.2,0.1,6.3-2.4
				C310.5,120.6,308.3,120.1,306,120.1L306,120.1z"/>
		</g>
		<path opacity="0.36" fill="#D0E7FF" d="M306,106.3c0,0-0.1-0.1-0.1-0.1C305.9,106.2,305.9,106.3,306,106.3z"/>
		<path opacity="0.36" fill="#D0E7FF" d="M306.1,107.5c-0.1-0.1-0.3-0.3-0.4-0.4C305.8,107.2,306,107.3,306.1,107.5z"/>
		<path opacity="0.36" fill="#D0E7FF" d="M305.9,105.4C305.9,105.4,305.9,105.4,305.9,105.4C305.9,105.4,305.9,105.4,305.9,105.4z"
			/>
		<path opacity="0.36" fill="#D0E7FF" d="M306,106.8c-0.1-0.1-0.1-0.1-0.2-0.2C305.9,106.7,305.9,106.8,306,106.8z"/>
		<path opacity="0.36" fill="#D0E7FF" d="M305.9,104.9C305.9,104.9,305.9,104.9,305.9,104.9C305.9,104.9,305.9,104.9,305.9,104.9z"
			/>
		<path opacity="0.36" fill="#D0E7FF" d="M305.9,105.9C305.9,105.8,305.9,105.8,305.9,105.9C305.9,105.8,305.9,105.8,305.9,105.9z"
			/>
		<path opacity="0.36" fill="#FFFFFF" d="M306.1,105.8c-0.1-0.1-0.2-0.3-0.3-0.4C305.8,105.5,305.9,105.6,306.1,105.8z"/>
		<path opacity="0.36" fill="#FFFFFF" d="M306.1,105.3c-0.1-0.1-0.2-0.3-0.3-0.4C305.8,105.1,305.9,105.2,306.1,105.3z"/>
		<path opacity="0.36" fill="#FFFFFF" d="M306,107c-0.1-0.1-0.1-0.1-0.2-0.2C305.9,106.9,305.9,107,306,107z"/>
		<path opacity="0.36" fill="#FFFFFF" d="M306,106.6c-0.1-0.1-0.2-0.2-0.3-0.3C305.9,106.4,305.9,106.5,306,106.6z"/>
		<path opacity="0.36" fill="#FFFFFF" d="M306,106.2c-0.1-0.1-0.2-0.2-0.3-0.3C305.8,106,305.9,106.1,306,106.2z"/>
		<g>
			<g>
				<circle fill="#FFFFFF" cx="305.9" cy="82" r="17.1"/>
				<g>
					<circle fill="#6B3CFF" cx="305.9" cy="82" r="9.1"/>
					<circle fill="#1E0080" cx="305.9" cy="82" r="6.8"/>
				</g>
			</g>
		</g>
		<ellipse opacity="0.32" fill="#C2D8FF" cx="305" cy="83.2" rx="34.3" ry="24.9"/>
		<path opacity="0.45" fill="#FFFFFF" d="M282.2,100.5c-7.1-4.6-11.5-11.2-11.5-18.6c0-13.7,15.4-24.9,34.3-24.9
			c7.1,0,13.7,1.6,19.2,4.2"/>
		<ellipse fill="none" stroke="#FFFFFF" stroke-width="3.3428" stroke-miterlimit="10" cx="305" cy="81.9" rx="34.3" ry="24.9"/>
		<g>
			<circle fill="#6B3CFF" cx="282.9" cy="48.7" r="1.3"/>
			<circle fill="#6B3CFF" cx="286.8" cy="51" r="1.3"/>
			<circle fill="#6B3CFF" cx="282.1" cy="53.6" r="1.3"/>
			<circle fill="#6B3CFF" cx="292.1" cy="50.3" r="1.3"/>
			<circle fill="#6B3CFF" cx="287.6" cy="47" r="1.3"/>
		</g>
		<circle fill="#6B3CFF" cx="327.3" cy="47" r="3.1"/>
		<circle fill="#6B3CFF" cx="332.2" cy="52.3" r="2"/>
		<g>
			<ellipse transform="matrix(0.866 -0.5 0.5 0.866 15.3273 180.4368)" fill="#6B3CFF" cx="344.4" cy="61.6" rx="3.2" ry="4.1"/>
			<path fill="#4A00D0" d="M357.1,34.5c-0.9,0.6-1.2,1.8-0.6,2.7l6.4,9.7l-6.9,4.6l-3.8-5.7c-0.6-0.9-1.8-1.2-2.7-0.6
				c-0.9,0.6-1.2,1.8-0.6,2.7l3.8,5.7l-8.6,5.7c-0.9,0.6-1.2,1.8-0.6,2.7s1.8,1.2,2.7,0.6l20.4-13.5c0.9-0.6,1.2-1.8,0.6-2.7
				L359.9,35C359.3,34.1,358.1,33.9,357.1,34.5z"/>
			<ellipse transform="matrix(0.5 -0.866 0.866 0.5 80.4472 262.5734)" fill="#6B3CFF" cx="267.6" cy="61.6" rx="4.1" ry="3.2"/>
			<path fill="#4A00D0" d="M254.8,34.5c0.9,0.6,1.2,1.8,0.6,2.7l-6.4,9.7l6.9,4.6l3.8-5.7c0.6-0.9,1.8-1.2,2.7-0.6
				c0.9,0.6,1.2,1.8,0.6,2.7l-3.8,5.7l8.6,5.7c0.9,0.6,1.2,1.8,0.6,2.7c-0.6,0.9-1.8,1.2-2.7,0.6l-20.4-13.5
				c-0.9-0.6-1.2-1.8-0.6-2.7l7.5-11.3C252.7,34.1,253.9,33.9,254.8,34.5z"/>
		</g>
		<g>
			<path fill="#4A00D0" d="M250.1,143.2c0,0,5.1-11.4-0.4-12.8c-5.5-1.4-8.6,10.6-8.6,10.6L250.1,143.2z"/>
		</g>
		<g>
			<path fill="#6B3CFF" d="M371.4,133.5c0,0,12.7,22-4.7,47c0,0,2.8,8-2.4,9.5c0,0-2.7,0.3-1-3.2c0,0-1.8,2-2.7,1.9
				c0,0-2.4-0.4-1-3.6c0,0-2.3,3.4-3.3,1.1c-0.3-0.9-0.3-7,5.1-7.9c0,0,13.4-15.8,8.4-37.1C369.6,141.2,365.4,130.3,371.4,133.5z"/>
			<path fill="#1E0080" d="M367.6,143.2c0,0-5.1-11.4,0.4-12.8c5.5-1.4,8.6,10.6,8.6,10.6L367.6,143.2z"/>
		</g>
		<circle fill="#FFFFFF" cx="299.9" cy="75.3" r="4.3"/>
	</g>
	<g>
		<g>
			<g>
				<path fill="#5D0081" d="M139.7,26.1l15.7-3.1c3.1-0.6,5.7,2.4,4.7,5.4L155,43.5"/>
				<polygon fill="#EB18FF" points="141.7,28.8 156.3,25.4 147,32.5 				"/>
			</g>
			<g>
				<path fill="#5D0081" d="M70.6,26.1L54.9,23c-3.1-0.6-5.7,2.4-4.7,5.4l5.1,15.1"/>
				<polygon fill="#EB18FF" points="59.2,40.6 53.4,26.8 62,34.7 				"/>
			</g>
		</g>
		<g>
			<g>
				<g>
					<path fill="#9700B8" d="M115.1,193.3c3.2,0,5.7-2.6,5.7-5.7v-21.8h-11.5v21.8C109.4,190.7,112,193.3,115.1,193.3z"/>
				</g>
				<rect x="109.4" y="165.7" fill="#5D0081" width="11.5" height="13.8"/>
			</g>
			<g>
				<g>
					<path fill="#9700B8" d="M135,193.3c3.2,0,5.7-2.6,5.7-5.7v-21.8h-11.5v21.8C129.3,190.7,131.9,193.3,135,193.3z"/>
				</g>
				<rect x="129.3" y="165.7" fill="#5D0081" width="11.5" height="13.8"/>
			</g>
			<g>
				<g>
					<path fill="#9700B8" d="M75.3,193.3c3.2,0,5.7-2.6,5.7-5.7v-21.8H69.6v21.8C69.6,190.7,72.2,193.3,75.3,193.3z"/>
				</g>
				<rect x="69.6" y="165.7" fill="#5D0081" width="11.5" height="13.8"/>
			</g>
			<g>
				<g>
					<path fill="#9700B8" d="M95.2,193.3c3.2,0,5.7-2.6,5.7-5.7v-21.8H89.5v21.8C89.5,190.7,92.1,193.3,95.2,193.3z"/>
				</g>
				<rect x="89.5" y="165.7" fill="#5D0081" width="11.5" height="13.8"/>
			</g>
		</g>
		<g>
			<g>
				<path fill="#9700B8" d="M23.2,102.6c5.1-0.4,6.9,4.8,7.5,9c0.6,4-0.6,7.1-2,10.8c-1.9,5.5-2.3,11.4,0,16.9
					c5.3,13,20.2,13,31.9,11.2c4.4-0.7,2.5-7.4-1.8-6.7c-7.3,1.1-17.4,2.3-22.4-4.6c-4.4-6.1-1.5-12.4,0.4-18.7
					c2.9-9.5-1.2-25.7-13.7-24.7C18.8,96,18.7,103,23.2,102.6L23.2,102.6z"/>
			</g>
		</g>
		<path fill="#EB18FF" d="M26.4,91.9c2.7,2.7,2.7,7.1,0,9.8s-7.1,2.7-9.8,0S8,88.7,10.7,86S23.7,89.1,26.4,91.9z"/>
		<path fill="#9700B8" d="M105.2,167.8L105.2,167.8c-32.4,0-58.7,1.8-58.7-30.7V73.5c0-32.4,26.3-58.7,58.7-58.7h0
			c32.4,0,58.7,26.3,58.7,58.7v63.7C163.9,169.6,137.6,167.8,105.2,167.8z"/>
		<g>
			<path fill="#EB18FF" d="M46.4,132.1v5c0,32.4,26.3,30.7,58.7,30.7h0c32.4,0,58.7,1.8,58.7-30.7v-5c-12.8,8.1-34.3,13.4-58.7,13.4
				S59.3,140.2,46.4,132.1z"/>
		</g>
		<circle fill="#FFFFFF" cx="105.2" cy="77.4" r="17.1"/>
		<g>
			<circle fill="#F9A6FF" cx="105.2" cy="77.4" r="9.1"/>
			<circle fill="#5D0081" cx="105.2" cy="77.4" r="6.7"/>
		</g>
		<g>
			<path fill="#5D0081" d="M117.1,110.1c0,6.6-5.3,11.9-11.9,11.9c-6.6,0-11.9-5.3-11.9-11.9"/>
			<path fill="#FFFFFF" d="M115.5,110.1c0,2.6-2.1,4.7-4.7,4.7s-4.7-2.1-4.7-4.7"/>
		</g>
		<g>
			<circle opacity="0.36" fill="#F9A6FF" cx="105.2" cy="77.4" r="24.7"/>
			<path opacity="0.36" fill="#FFFFFF" d="M87.7,94.9c-9.6-9.6-9.6-25.3,0-34.9s25.3-9.6,34.9,0"/>
		</g>
		<circle fill="none" stroke="#EB18FF" stroke-width="4.0099" stroke-miterlimit="10" cx="105.2" cy="77.4" r="24.7"/>
		<g>
			<path opacity="0.54" fill="#5D0081" d="M85,167.7c6.3,0.2,13.1,0.1,20.2,0.1h0c32.4,0,58.7,1.8,58.7-30.7V91.3
				C163.9,91.3,155.3,151.7,85,167.7z"/>
		</g>
		<g>
			<path fill="#9700B8" d="M65.4,151.9h-10c-0.3,0-0.6-0.3-0.6-0.6v-0.8c0-0.3,0.3-0.6,0.6-0.6h10c0.3,0,0.6,0.3,0.6,0.6v0.8
				C66,151.6,65.8,151.9,65.4,151.9z"/>
			<path fill="#9700B8" d="M65.4,148.6h-10c-0.3,0-0.6-0.3-0.6-0.6v-0.8c0-0.3,0.3-0.6,0.6-0.6h10c0.3,0,0.6,0.3,0.6,0.6v0.8
				C66,148.3,65.8,148.6,65.4,148.6z"/>
			<path fill="#9700B8" d="M65.4,155.2h-10c-0.3,0-0.6-0.3-0.6-0.6v-0.8c0-0.3,0.3-0.6,0.6-0.6h10c0.3,0,0.6,0.3,0.6,0.6v0.8
				C66,154.9,65.8,155.2,65.4,155.2z"/>
		</g>
		<ellipse opacity="0.43" fill="#5D0081" cx="106.2" cy="220.4" rx="52.8" ry="8.7"/>
		<g>
			<path fill="#5D0081" d="M139.5,115.9h-9.3c-0.7,0-1.2-0.6-1.2-1.2v-2c0-0.7,0.6-1.2,1.2-1.2h9.3c0.7,0,1.2,0.6,1.2,1.2v2
				C140.8,115.3,140.2,115.9,139.5,115.9z"/>
			<path fill="#5D0081" d="M143.6,122h-9.3c-0.7,0-1.2-0.6-1.2-1.2v-2c0-0.7,0.6-1.2,1.2-1.2h9.3c0.7,0,1.2,0.6,1.2,1.2v2
				C144.8,121.4,144.3,122,143.6,122z"/>
		</g>
		<g>
			<rect x="62.8" y="108.3" fill="#EB18FF" width="1.4" height="18.1"/>
			<rect x="65.3" y="108.3" fill="#EB18FF" width="1.4" height="18.1"/>
			<path fill="none" stroke="#EB18FF" stroke-width="1.604" stroke-miterlimit="10" d="M79.1,118.7h-8.6c-0.9,0-1.6-0.7-1.6-1.6
				v-8.7"/>
			<path opacity="0.36" fill="#FFFFFF" d="M77.1,126.4H59.4c-1.1,0-2-0.9-2-2v-14c0-1.1,0.9-2,2-2h18.4c0.7,0,1.3,0.6,1.3,1.3v14.7
				C79.1,125.5,78.2,126.4,77.1,126.4z"/>
			<path opacity="0.36" fill="#FFFFFF" d="M57.4,119.5V112c0-2,1.6-3.7,3.7-3.7h6"/>
		</g>
		<g>
			<path fill="none" stroke="#FFFFFF" stroke-width="5.0792" stroke-linecap="round" stroke-miterlimit="10" d="M64.2,45.7
				c6.4-11.4,14.1-17.9,28.2-21"/>
			<g>
				<g>
					<path fill="#FFFFFF" d="M100.5,25.6c3.4,0,3.4-5.3,0-5.3C97,20.3,97,25.6,100.5,25.6L100.5,25.6z"/>
				</g>
			</g>
		</g>
		<g>
			<path fill="#5D0081" d="M119.1,36h9.3c0.7,0,1.2-0.6,1.2-1.2v-2c0-0.7-0.6-1.2-1.2-1.2h-9.3c-0.7,0-1.2,0.6-1.2,1.2v2
				C117.8,35.4,118.4,36,119.1,36z"/>
			<path fill="#5D0081" d="M118.9,30h2.5c1.2,0,2.2-1,2.2-2.2v0c0-1.2-1-2.2-2.2-2.2h-2.5c-1.2,0-2.2,1-2.2,2.2v0
				C116.7,29,117.7,30,118.9,30z"/>
			<path fill="#5D0081" d="M113.2,41.9h9.3c0.7,0,1.2-0.6,1.2-1.2v-2c0-0.7-0.6-1.2-1.2-1.2h-9.3c-0.7,0-1.2,0.6-1.2,1.2v2
				C111.9,41.4,112.5,41.9,113.2,41.9z"/>
		</g>
		<circle fill="#FFFFFF" cx="101" cy="69.7" r="4.1"/>
	</g>
	<g>
		<ellipse opacity="0.51" fill="#003875" cx="200" cy="237.5" rx="51.8" ry="7.8"/>
		<g>
			<g>
				<g>
					<path fill="#76CBFF" d="M152.5,208.7c0,3.3-2.2,6-4.8,6c-2.6,0-4.7-2.8-4.7-6.1"/>
					<path fill="#003875" d="M158.2,187.3l-4.3-2.3c-1.4-0.7-3.2-0.3-4,1.1c-2.2,3.7-6.2,11.4-7.9,21.4c-0.3,1.9,1.1,2.1,3,2.1
						l5.8,0.1c1.6,0,2.9,0.3,3.1-1.2c0.4-3.3,1.6-9.3,5.7-17C160.3,190,159.7,188.1,158.2,187.3z"/>
				</g>
				<g>
					<path fill="#76CBFF" d="M244.7,209.6c0,3.3,2,6.1,4.7,6.1s4.7-2.7,4.8-6"/>
					<path fill="#003875" d="M239.5,188.2l4.4-2.2c1.5-0.7,3.2-0.2,4,1.2c2.1,3.7,6,11.5,7.5,21.5c0.3,1.9-1.2,2-3.1,2l-5.8-0.1
						c-1.6,0-2.9,0.3-3-1.3c-0.3-3.3-1.4-9.3-5.4-17.1C237.3,190.8,237.9,189,239.5,188.2z"/>
				</g>
			</g>
			<g>
				<g>
					
						<ellipse transform="matrix(1.048771e-02 -0.9999 0.9999 1.048771e-02 -55.6108 396.7414)" fill="#76CBFF" cx="172.7" cy="226.5" rx="7.7" ry="7.7"/>
				</g>
				<g>
					
						<ellipse transform="matrix(1.048803e-02 -0.9999 0.9999 1.048803e-02 -5.1847 448.7797)" fill="#76CBFF" cx="224.2" cy="227" rx="7.7" ry="7.7"/>
				</g>
				<g>
					
						<ellipse transform="matrix(1.048778e-02 -0.9999 0.9999 1.048778e-02 -25.0851 434.4296)" fill="#76CBFF" cx="207" cy="229.9" rx="7.7" ry="7.7"/>
				</g>
				<g>
					
						<ellipse transform="matrix(1.048800e-02 -0.9999 0.9999 1.048800e-02 -41.8938 417.0834)" fill="#76CBFF" cx="189.8" cy="229.7" rx="7.7" ry="7.7"/>
				</g>
			</g>
			<g>
				<g>
					<path fill="#0084BF" d="M243.3,208.3c-0.2,21.1-20.3,23.2-44.9,23s-44.7-2.8-44.5-23.9c0.2-21.1,20.7-68.6,45.4-68.4
						C224,139.3,243.5,187.2,243.3,208.3z"/>
				</g>
				<g>
					<path fill="#0084BF" d="M151.7,177.6c-3.7-1.7-7,3.1-4,5.9c13.4,12.5,31.3,20.1,51,20.4c19.7,0.2,37.8-7.1,51.4-19.3
						c3.1-2.7-0.1-7.7-3.9-6c-12.9,5.7-29.4,11-47.4,10.8C180.8,189.2,164.4,183.5,151.7,177.6z"/>
				</g>
				<path opacity="0.54" fill="#003875" d="M247.5,178.3c-2.4,4.2-24.4,32.3-79.9,49.3c0.1,0,0.2,0.1,0.2,0.1c0.1,0,0.2,0.1,0.3,0.1
					c0.2,0.1,0.4,0.2,0.6,0.2c0.1,0,0.2,0.1,0.3,0.1c0.6,0.2,1.2,0.4,1.9,0.6c0.1,0,0.2,0,0.3,0.1c0.2,0.1,0.5,0.1,0.7,0.2
					c0.1,0,0.2,0.1,0.3,0.1c0.2,0.1,0.5,0.1,0.7,0.2c0.1,0,0.2,0.1,0.3,0.1c0.3,0.1,0.5,0.1,0.8,0.2c0.1,0,0.2,0,0.2,0.1
					c0.3,0.1,0.7,0.1,1,0.2c0.1,0,0.1,0,0.2,0c0.3,0.1,0.6,0.1,0.9,0.2c0.1,0,0.2,0,0.3,0.1c0.2,0,0.5,0.1,0.7,0.1
					c0.1,0,0.2,0,0.4,0.1c0.2,0,0.5,0.1,0.8,0.1c0.1,0,0.2,0,0.3,0c0.3,0,0.6,0.1,1,0.1c0,0,0.1,0,0.1,0c0.4,0,0.7,0.1,1.1,0.1
					c0.1,0,0.2,0,0.3,0c0.3,0,0.6,0.1,0.8,0.1c0.1,0,0.3,0,0.4,0c0.3,0,0.5,0,0.8,0.1c0.1,0,0.3,0,0.4,0c0.3,0,0.6,0,0.8,0.1
					c0.1,0,0.2,0,0.3,0c0.4,0,0.8,0.1,1.2,0.1c0,0,0.1,0,0.1,0c0.4,0,0.7,0,1.1,0.1c0.1,0,0.3,0,0.4,0c0.3,0,0.5,0,0.8,0
					c0.1,0,0.3,0,0.5,0c0.3,0,0.5,0,0.8,0c0.1,0,0.3,0,0.4,0c0.3,0,0.6,0,1,0c0.1,0,0.2,0,0.3,0c0.4,0,0.8,0,1.2,0
					c0.1,0,0.2,0,0.4,0c0.3,0,0.6,0,0.9,0c0.2,0,0.3,0,0.5,0c0.3,0,0.5,0,0.8,0c0.2,0,0.3,0,0.5,0c0.3,0,0.6,0,0.8,0
					c0.2,0,0.3,0,0.5,0c0.4,0,0.8,0,1.2,0c0,0,0.1,0,0.1,0c14.7,0.2,27.7-0.5,35.9-5.5c0.6-0.4,1.3-0.8,1.9-1.3
					c1-0.8,1.9-1.6,2.7-2.5c0.6-0.7,1.2-1.5,1.7-2.4c0.3-0.4,0.5-0.9,0.7-1.3c0.1-0.2,0.2-0.5,0.3-0.7c0.2-0.5,0.4-1,0.6-1.5
					c0.8-2.3,1.2-4.9,1.2-7.8c0-4.6-0.8-10.4-2.5-16.7c3.3-2.1,6.3-4.5,9.2-7C252.8,182.2,250.6,178,247.5,178.3"/>
			</g>
			<g>
				<g>
					<path fill="none" stroke="#0084BF" stroke-width="3.3243" stroke-linecap="round" stroke-miterlimit="10" d="M194.6,90.3
						c0,0-12.2-15.4-12-29.4"/>
					<circle fill="#76CBFF" cx="182" cy="58.8" r="6.4"/>
				</g>
				<g>
					<path fill="none" stroke="#0084BF" stroke-width="3.3243" stroke-linecap="round" stroke-miterlimit="10" d="M205,96.8
						c0,0,12.5-15.1,12.6-29.1"/>
					<circle fill="#76CBFF" cx="218.3" cy="65.6" r="6.4"/>
				</g>
			</g>
			<g>
				<g>
					<path fill="#0084BF" d="M135,75.2c0.4-35.9,28.9,21.8,64.7,22.2s65.6-56.7,65.2-20.8s-29.7,55.3-65.5,54.9
						S134.7,111.1,135,75.2z"/>
					<path opacity="0.54" fill="#003875" d="M265,76.6c0.1-8-1.3-11.4-4-11.8c0,0-0.5,31.4-21.3,44.5l2.5,10.7
						C255.9,110.8,264.8,96.2,265,76.6z"/>
					<path opacity="0.54" fill="#003875" d="M135,75.2c0.1-8,1.6-11.3,4.2-11.7c0,0-0.2,31.4,20.4,45l-2.7,10.6
						C143.3,109.6,134.8,94.8,135,75.2z"/>
				</g>
				<g>
					<g>
						<path fill="none" stroke="#76CBFF" stroke-width="2.2162" stroke-linecap="round" stroke-miterlimit="10" d="M148.2,74.2
							c0,0,7.8,8.4,14.5,12.9"/>
						<path fill="none" stroke="#76CBFF" stroke-width="2.2162" stroke-linecap="round" stroke-miterlimit="10" d="M166.9,90
							C166.9,90,164.6,88.5,166.9,90"/>
					</g>
					<g>
						<path fill="none" stroke="#76CBFF" stroke-width="2.2162" stroke-linecap="round" stroke-miterlimit="10" d="M251.8,75.3
							c0,0-8,8.2-14.8,12.6"/>
						<path fill="none" stroke="#76CBFF" stroke-width="2.2162" stroke-linecap="round" stroke-miterlimit="10" d="M232.8,90.7
							C232.8,90.7,235.2,89.2,232.8,90.7"/>
					</g>
				</g>
			</g>
			<g>
				<g>
					<path fill="#76CBFF" d="M257.5,146.3c-0.3,32.1-26.6,50.1-58.7,49.7s-58-18.8-57.7-51c0.3-32.1,26.7-57.9,58.8-57.6
						C232,87.8,257.8,114.1,257.5,146.3z"/>
					<g>
						<path fill="#0084BF" d="M143.3,161.9c6-0.5,10.7-5.5,10.8-11.6c0.1-6.5-5.1-11.8-11.6-11.9c-0.3,0-0.7,0-1,0
							c-0.3,2.2-0.4,4.3-0.4,6.6C141,150.9,141.8,156.5,143.3,161.9z"/>
						<path fill="#0084BF" d="M251.1,119.1c-3.1,0.8-5.3,3.6-5.4,6.9c0,4,3.2,7.2,7.1,7.3c1.1,0,2.2-0.2,3.2-0.7
							C254.9,127.8,253.2,123.3,251.1,119.1z"/>
						<circle fill="#0084BF" cx="159.6" cy="164" r="5.3"/>
						<circle fill="#0084BF" cx="238.7" cy="121" r="3.2"/>
						<circle fill="#0084BF" cx="230.5" cy="165.3" r="6.1"/>
						<circle fill="#0084BF" cx="236.9" cy="154" r="3"/>
						<circle fill="#0084BF" cx="160.2" cy="150.2" r="2.3"/>
					</g>
				</g>
				<g>
					<path fill="none" stroke="#FFFFFF" stroke-width="3.0472" stroke-linecap="round" stroke-miterlimit="10" d="M161.1,117
						c0,0,5.2-16,27.9-20.4"/>
					<path fill="none" stroke="#FFFFFF" stroke-width="3.0472" stroke-linecap="round" stroke-miterlimit="10" d="M194.1,95.6
						C194.9,95.5,193.2,95.7,194.1,95.6"/>
				</g>
			</g>
			<g>
				<path fill="#0084BF" d="M213.9,167.6c-0.1,8.2-6.8,14.8-15,14.7s-14.8-6.8-14.7-15"/>
				<path fill="#FFFFFF" d="M192.4,167.3l0,3.4c0,1.1,0.9,2,2,2l1.3,0c1.1,0,2-0.9,2-2l0-3.4L192.4,167.3z"/>
				<path fill="#FFFFFF" d="M200.4,167.4l0,3.4c0,1.1,0.9,2,2,2l1.3,0c1.1,0,2-0.9,2-2l0-3.4L200.4,167.4z"/>
			</g>
			<g>
				<g>
					<circle fill="#00A0DF" cx="199.4" cy="131.5" r="27.6"/>
				</g>
				<g>
					<circle fill="#FFFFFF" cx="199.4" cy="131.5" r="19.1"/>
					<g>
						<circle fill="#00A0DF" cx="199.4" cy="131.5" r="10.2"/>
						<circle fill="#1E0080" cx="199.4" cy="131.5" r="7.6"/>
					</g>
				</g>
				<g>
					<circle opacity="0.38" fill="#D0E7FF" cx="199.4" cy="131.5" r="27.6"/>
					<path opacity="0.45" fill="#FFFFFF" d="M179.7,150.8c-10.7-10.9-10.5-28.4,0.4-39.1s28.4-10.5,39.1,0.4"/>
					<circle fill="none" stroke="#00A0DF" stroke-width="3.3321" stroke-miterlimit="10" cx="199.4" cy="131.5" r="27.6"/>
				</g>
			</g>
			<circle fill="#FFFFFF" cx="193.7" cy="124.8" r="5.3"/>
		</g>
	</g>
</g>
<g id="Lines">
</g>
<g id="Text" display="none">
</g>
<g id="Fog_Overlay">
</g>
</svg>
