<?xml version="1.0" encoding="utf-8"?>
<!-- Generator: Adobe Illustrator 23.0.1, SVG Export Plug-In . SVG Version: 6.00 Build 0)  -->
<svg version="1.0" xmlns="http://www.w3.org/2000/svg" xmlns:xlink="http://www.w3.org/1999/xlink" x="0px" y="0px"
	 viewBox="0 0 360 295" enable-background="new 0 0 360 295" xml:space="preserve">
<g id="Background">
	<rect x="-22.4" y="0" opacity="0.35" fill="#76CBFF" width="399.9" height="296.9"/>
</g>
<g id="Fog">
</g>
<g id="Sky">
	<g id="Layer_12">
	</g>
</g>
<g id="Mountains">
</g>
<g id="Trees">
</g>
<g id="Floor">
</g>
<g id="Dekoration">
</g>
<g id="Mask">
	<path fill="#FFFFFF" d="M-36-2.5v331.3h426V-2.5H-36z M4.1,121.4c11-61.4,38-60.2,91-71c33.1-6.7,38.9-15.4,73.7-10.6
		c20.2,2.8,36.6,17,57.7,17.8c49.9,1.8,101.1-11.9,126.7,47.9c16.9,39.5-12.8,68.7-31,97.6c-51.7,82-115.2,105.9-212.6,80.8
		C22.7,261.5-11.6,209.1,4.1,121.4z"/>
</g>
<g id="Character">
	<g>
		<g>
			<g>
				<g>
					<path fill="#00A0DF" d="M129.8,173.7c-0.6,3.8-3.5,6.5-6.4,6c-3-0.5-4.9-3.9-4.3-7.7"/>
					<path fill="#003875" d="M139.9,150.4l-4.6-3.3c-1.5-1.1-3.6-0.8-4.8,0.6c-3.1,3.8-8.9,11.9-12.5,23c-0.7,2.1,0.9,2.5,3.1,2.9
						l6.5,1c1.8,0.3,3.2,0.8,3.7-0.9c1-3.7,3.4-10.3,9.3-18.3C141.8,153.8,141.5,151.6,139.9,150.4z"/>
				</g>
				<g>
					<path fill="#00A0DF" d="M234.7,190.1c-0.6,3.8,1.3,7.2,4.3,7.7s5.8-2.2,6.4-6"/>
					<path fill="#003875" d="M232.2,164.9l5.4-1.7c1.8-0.6,3.7,0.3,4.4,2.1c1.8,4.6,4.9,14.1,4.9,25.7c0,2.2-1.7,2.1-3.8,1.8l-6.5-1
						c-1.8-0.3-3.3-0.2-3.2-2c0.2-3.8-0.1-10.8-3.3-20.3C229.3,167.5,230.3,165.5,232.2,164.9z"/>
				</g>
			</g>
			<g>
				<g>
					
						<ellipse transform="matrix(0.1546 -0.988 0.988 0.1546 -68.2797 314.8637)" fill="#00A0DF" cx="149.8" cy="197.3" rx="8.9" ry="8.9"/>
				</g>
				<g>
					
						<ellipse transform="matrix(0.1546 -0.988 0.988 0.1546 -27.8453 380.4296)" fill="#00A0DF" cx="208.4" cy="206.5" rx="8.9" ry="8.9"/>
				</g>
				<g>
					
						<ellipse transform="matrix(0.1546 -0.988 0.988 0.1546 -45.2189 360.9767)" fill="#00A0DF" cx="188.3" cy="206.9" rx="8.9" ry="8.9"/>
				</g>
				<g>
					
						<ellipse transform="matrix(0.1546 -0.988 0.988 0.1546 -58.697 339.1213)" fill="#00A0DF" cx="168.8" cy="203.9" rx="8.9" ry="8.9"/>
				</g>
			</g>
			<g>
				<g>
					<path fill="#0084BF" d="M233.2,188.4c-3.8,24-26.9,23.1-55,18.7c-28.1-4.4-50.4-10.6-46.6-34.6c3.8-24,35-74.7,63-70.3
						S237,164.4,233.2,188.4z"/>
				</g>
				<g>
					<path fill="#0084BF" d="M134,138.2c-4-2.6-8.5,2.4-5.5,6.1c13.2,16.4,32.3,28.1,54.7,31.6c22.4,3.5,44.2-1.8,61.7-13.4
						c4-2.6,1.2-8.7-3.4-7.5c-15.6,4.3-35.3,7.6-55.7,4.4C165.3,156.2,147.6,147.1,134,138.2z"/>
				</g>
				<path opacity="0.54" fill="#003875" d="M243,154.9c-3.4,4.4-33.1,32.7-99.1,42.8c0.1,0,0.2,0.1,0.3,0.1c0.1,0.1,0.2,0.1,0.3,0.2
					c0.2,0.1,0.5,0.2,0.7,0.4c0.1,0,0.2,0.1,0.3,0.1c0.7,0.3,1.3,0.7,2,1c0.1,0,0.2,0.1,0.3,0.1c0.3,0.1,0.5,0.2,0.8,0.3
					c0.1,0,0.2,0.1,0.4,0.1c0.2,0.1,0.5,0.2,0.8,0.3c0.1,0,0.2,0.1,0.4,0.1c0.3,0.1,0.6,0.2,0.9,0.3c0.1,0,0.2,0.1,0.3,0.1
					c0.4,0.1,0.8,0.3,1.1,0.4c0.1,0,0.1,0,0.2,0.1c0.3,0.1,0.7,0.2,1,0.3c0.1,0,0.3,0.1,0.4,0.1c0.3,0.1,0.5,0.2,0.8,0.3
					c0.1,0,0.3,0.1,0.4,0.1c0.3,0.1,0.6,0.2,0.8,0.3c0.1,0,0.3,0.1,0.4,0.1c0.4,0.1,0.7,0.2,1.1,0.3c0.1,0,0.1,0,0.2,0
					c0.4,0.1,0.8,0.2,1.3,0.3c0.1,0,0.2,0.1,0.3,0.1c0.3,0.1,0.6,0.2,0.9,0.2c0.1,0,0.3,0.1,0.4,0.1c0.3,0.1,0.6,0.1,0.9,0.2
					c0.2,0,0.3,0.1,0.5,0.1c0.3,0.1,0.6,0.1,0.9,0.2c0.1,0,0.3,0.1,0.4,0.1c0.4,0.1,0.9,0.2,1.3,0.3c0.1,0,0.1,0,0.2,0
					c0.4,0.1,0.8,0.2,1.2,0.3c0.2,0,0.3,0.1,0.5,0.1c0.3,0.1,0.6,0.1,0.9,0.2c0.2,0,0.3,0.1,0.5,0.1c0.3,0.1,0.6,0.1,0.9,0.2
					c0.2,0,0.3,0.1,0.5,0.1c0.4,0.1,0.7,0.1,1.1,0.2c0.1,0,0.2,0,0.3,0.1c0.5,0.1,0.9,0.2,1.4,0.3c0.1,0,0.3,0,0.4,0.1
					c0.3,0.1,0.7,0.1,1,0.2c0.2,0,0.4,0.1,0.5,0.1c0.3,0.1,0.6,0.1,0.9,0.2c0.2,0,0.4,0.1,0.6,0.1c0.3,0.1,0.6,0.1,1,0.2
					c0.2,0,0.3,0.1,0.5,0.1c0.4,0.1,0.9,0.1,1.3,0.2c0,0,0.1,0,0.1,0c16.7,2.6,31.6,4,41.8-0.3c0.8-0.3,1.6-0.7,2.3-1.1
					c1.2-0.7,2.4-1.5,3.4-2.4c0.8-0.7,1.6-1.5,2.4-2.4c0.4-0.4,0.7-0.9,1-1.4c0.2-0.2,0.3-0.5,0.5-0.7c0.3-0.5,0.6-1,0.9-1.6
					c1.3-2.4,2.2-5.3,2.7-8.7c0.8-5.2,0.8-12-0.1-19.4c4.1-1.9,8-4,11.7-6.5C248.4,160.2,246.6,155.1,243,154.9"/>
			</g>
			<g>
				<g>
					<path fill="none" stroke="#0084BF" stroke-width="3.8232" stroke-linecap="round" stroke-miterlimit="10" d="M197.4,46
						c0,0-11.3-19.5-8.8-35.5"/>
					<circle fill="#76CBFF" cx="188.2" cy="8.1" r="7.3"/>
				</g>
				<g>
					<path fill="none" stroke="#0084BF" stroke-width="3.8232" stroke-linecap="round" stroke-miterlimit="10" d="M208.1,55.1
						c0,0,16.7-15.1,19.2-31.1"/>
					<circle fill="#76CBFF" cx="228.5" cy="21.8" r="7.3"/>
				</g>
			</g>
			<g>
				<g>
					<path fill="#0084BF" d="M132.1,19c6.4-40.8,29.2,29.6,70,36s84-53.6,77.6-12.9s-42.9,58-83.7,51.6
						C155.3,87.3,125.7,59.7,132.1,19z"/>
					<path opacity="0.54" fill="#003875" d="M279.7,42.1c1.4-9.1,0.4-13.1-2.5-14.1c0,0-5.7,35.7-31.7,47.2l1.1,12.6
						C263.8,79.5,276.3,64.3,279.7,42.1z"/>
					<path opacity="0.54" fill="#003875" d="M132.1,19c1.4-9.1,3.7-12.6,6.7-12.6c0,0-5.4,35.7,15.7,54.6l-4.9,11.7
						C135.8,59.5,128.6,41.2,132.1,19z"/>
				</g>
				<g>
					<g>
						<path fill="none" stroke="#76CBFF" stroke-width="2.5488" stroke-linecap="round" stroke-miterlimit="10" d="M147.2,20
							c0,0,7.5,10.8,14.4,17.1"/>
						<path fill="none" stroke="#76CBFF" stroke-width="2.5488" stroke-linecap="round" stroke-miterlimit="10" d="M165.9,41.1
							C165.9,41.1,163.5,38.9,165.9,41.1"/>
					</g>
					<g>
						<path fill="none" stroke="#76CBFF" stroke-width="2.5488" stroke-linecap="round" stroke-miterlimit="10" d="M265,38.4
							c0,0-10.4,8-18.9,11.9"/>
						<path fill="none" stroke="#76CBFF" stroke-width="2.5488" stroke-linecap="round" stroke-miterlimit="10" d="M240.8,52.8
							C240.8,52.8,243.7,51.5,240.8,52.8"/>
					</g>
				</g>
			</g>
			<g>
				<g>
					<path fill="#76CBFF" d="M259.7,120.1c-5.7,36.5-38.6,52.6-75.1,46.9c-36.5-5.7-62.9-31-57.2-67.6c5.7-36.5,40-61.5,76.5-55.8
						S265.4,83.6,259.7,120.1z"/>
					<g>
						<path fill="#0084BF" d="M127.2,118.9c6.9,0.4,13.1-4.4,14.2-11.4c1.2-7.4-3.9-14.3-11.2-15.4c-0.4-0.1-0.8-0.1-1.2-0.1
							c-0.7,2.4-1.2,4.9-1.6,7.4C126.3,106.1,126.3,112.6,127.2,118.9z"/>
						<path fill="#0084BF" d="M256.9,88.1c-3.6,0.4-6.7,3.2-7.3,7c-0.7,4.5,2.4,8.8,6.9,9.5c1.3,0.2,2.6,0.1,3.7-0.3
							C259.8,98.7,258.6,93.3,256.9,88.1z"/>
						<circle fill="#0084BF" cx="145.4" cy="124" r="6.1"/>
						<circle fill="#0084BF" cx="242.5" cy="88.2" r="3.7"/>
						<circle fill="#0084BF" cx="225.8" cy="137.3" r="7"/>
						<circle fill="#0084BF" cx="235" cy="125.5" r="3.4"/>
						<circle fill="#0084BF" cx="148.3" cy="108.5" r="2.7"/>
					</g>
				</g>
				<g>
					<path fill="none" stroke="#FFFFFF" stroke-width="3.5046" stroke-linecap="round" stroke-miterlimit="10" d="M154.8,70.8
						c0,0,8.6-17.4,35.2-18.6"/>
					<path fill="none" stroke="#FFFFFF" stroke-width="3.5046" stroke-linecap="round" stroke-miterlimit="10" d="M195.9,51.9
						C196.8,51.9,194.9,51.9,195.9,51.9"/>
				</g>
			</g>
			<g>
				<path fill="#0084BF" d="M206.5,137.1c-1.5,9.3-10.2,15.7-19.5,14.2c-9.3-1.5-15.7-10.2-14.2-19.5"/>
				<path fill="#FFFFFF" d="M182.1,133.3l-0.6,3.9c-0.2,1.3,0.7,2.4,1.9,2.6l1.5,0.2c1.3,0.2,2.4-0.7,2.6-1.9l0.6-3.9L182.1,133.3z"
					/>
				<path fill="#FFFFFF" d="M191.2,134.7l-0.6,3.9c-0.2,1.3,0.7,2.4,1.9,2.6l1.5,0.2c1.3,0.2,2.4-0.7,2.6-1.9l0.6-3.9L191.2,134.7z"
					/>
			</g>
			<g>
				<g>
					<circle fill="#00A0DF" cx="196" cy="93.7" r="31.8"/>
				</g>
				<g>
					<circle fill="#FFFFFF" cx="196" cy="93.7" r="22"/>
					<g>
						<circle fill="#00A0DF" cx="196" cy="93.7" r="11.7"/>
						<circle fill="#1E0080" cx="196" cy="93.7" r="8.7"/>
					</g>
				</g>
				<g>
					<circle opacity="0.38" fill="#D0E7FF" cx="196" cy="93.7" r="31.8"/>
					<path opacity="0.45" fill="#FFFFFF" d="M170.4,112.4c-10.3-14.2-7.2-34.1,6.9-44.4c14.2-10.3,34.1-7.2,44.4,6.9"/>
					<circle fill="none" stroke="#00A0DF" stroke-width="3.8322" stroke-miterlimit="10" cx="196" cy="93.7" r="31.8"/>
				</g>
			</g>
			<circle fill="#FFFFFF" cx="190.7" cy="85.2" r="6.1"/>
		</g>
		<ellipse opacity="0.54" fill="#00A0DF" cx="178.1" cy="248.7" rx="54.6" ry="8.2"/>
	</g>
</g>
<g id="Lines">
</g>
<g id="Text" display="none">
</g>
<g id="Fog_Overlay">
</g>
</svg>
