<?xml version="1.0" encoding="utf-8"?>
<!-- Generator: Adobe Illustrator 23.0.1, SVG Export Plug-In . SVG Version: 6.00 Build 0)  -->
<svg version="1.0" xmlns="http://www.w3.org/2000/svg" xmlns:xlink="http://www.w3.org/1999/xlink" x="0px" y="0px"
	 viewBox="0 0 549.7 247.6" enable-background="new 0 0 549.7 247.6" xml:space="preserve">
<g id="Background">
</g>
<g id="Fog">
</g>
<g id="Sky">
	<g id="Layer_12">
	</g>
</g>
<g id="Mountains">
</g>
<g id="Trees">
</g>
<g id="Floor">
</g>
<g id="Dekoration">
</g>
<g id="Mask">
</g>
<g id="Character">
	<g>
		<g>
			<g>
				<path fill="#5D0081" d="M218.2,25.6l15.7-3.1c3.1-0.6,5.7,2.4,4.7,5.4L233.5,43"/>
				<polygon fill="#EB18FF" points="220.2,28.3 234.8,24.9 225.5,32 				"/>
			</g>
			<g>
				<path fill="#5D0081" d="M149.1,25.6l-15.7-3.1c-3.1-0.6-5.7,2.4-4.7,5.4l5.1,15.1"/>
				<polygon fill="#EB18FF" points="137.7,40.1 131.9,26.3 140.5,34.1 				"/>
			</g>
		</g>
		<g>
			<g>
				<g>
					<path fill="#9700B8" d="M193.6,192.8c3.2,0,5.7-2.6,5.7-5.7v-21.8h-11.5V187C187.9,190.2,190.4,192.8,193.6,192.8z"/>
				</g>
				<rect x="187.8" y="165.2" fill="#5D0081" width="11.5" height="13.8"/>
			</g>
			<g>
				<g>
					<path fill="#9700B8" d="M213.5,192.8c3.2,0,5.7-2.6,5.7-5.7v-21.8h-11.5V187C207.8,190.2,210.3,192.8,213.5,192.8z"/>
				</g>
				<rect x="207.7" y="165.2" fill="#5D0081" width="11.5" height="13.8"/>
			</g>
			<g>
				<g>
					<path fill="#9700B8" d="M153.8,192.8c3.2,0,5.7-2.6,5.7-5.7v-21.8h-11.5V187C148.1,190.2,150.6,192.8,153.8,192.8z"/>
				</g>
				<rect x="148" y="165.2" fill="#5D0081" width="11.5" height="13.8"/>
			</g>
			<g>
				<g>
					<path fill="#9700B8" d="M173.7,192.8c3.2,0,5.7-2.6,5.7-5.7v-21.8H168V187C168,190.2,170.5,192.8,173.7,192.8z"/>
				</g>
				<rect x="167.9" y="165.2" fill="#5D0081" width="11.5" height="13.8"/>
			</g>
		</g>
		<g>
			<g>
				<path fill="#9700B8" d="M101.7,102.1c5.1-0.4,6.9,4.8,7.5,9c0.6,4-0.6,7.1-2,10.8c-1.9,5.5-2.3,11.4,0,16.9
					c5.3,13,20.2,13,31.9,11.2c4.4-0.7,2.5-7.4-1.8-6.7c-7.3,1.1-17.4,2.3-22.4-4.6c-4.4-6.1-1.5-12.4,0.4-18.7
					c2.9-9.5-1.2-25.7-13.7-24.7C97.2,95.5,97.2,102.5,101.7,102.1L101.7,102.1z"/>
			</g>
		</g>
		<path fill="#9700B8" d="M183.7,167.3L183.7,167.3c-32.4,0-58.7,1.8-58.7-30.7V72.9c0-32.4,26.3-58.7,58.7-58.7h0
			c32.4,0,58.7,26.3,58.7,58.7v63.7C242.4,169.1,216.1,167.3,183.7,167.3z"/>
		<g>
			<path fill="#EB18FF" d="M124.9,131.6v5c0,32.4,26.3,30.7,58.7,30.7h0c32.4,0,58.7,1.8,58.7-30.7v-5
				c-12.8,8.1-34.3,13.4-58.7,13.4S137.7,139.7,124.9,131.6z"/>
		</g>
		<circle fill="#FFFFFF" cx="183.7" cy="76.9" r="17.1"/>
		<g>
			<circle fill="#F9A6FF" cx="183.7" cy="76.9" r="9.1"/>
			<circle fill="#5D0081" cx="183.7" cy="76.9" r="6.7"/>
		</g>
		<g>
			<path fill="#5D0081" d="M195.5,109.6c0,6.6-5.3,11.9-11.9,11.9s-11.9-5.3-11.9-11.9"/>
			<path fill="#FFFFFF" d="M194,109.6c0,2.6-2.1,4.7-4.7,4.7c-2.6,0-4.7-2.1-4.7-4.7"/>
		</g>
		<g>
			<circle opacity="0.36" fill="#F9A6FF" cx="183.7" cy="76.9" r="24.7"/>
			<path opacity="0.36" fill="#FFFFFF" d="M166.2,94.4c-9.6-9.6-9.6-25.3,0-34.9s25.3-9.6,34.9,0"/>
		</g>
		<circle fill="none" stroke="#EB18FF" stroke-width="4.0099" stroke-miterlimit="10" cx="183.7" cy="76.9" r="24.7"/>
		<g>
			<path opacity="0.54" fill="#5D0081" d="M163.5,167.2c6.3,0.2,13.1,0.1,20.2,0.1h0c32.4,0,58.7,1.8,58.7-30.7V90.8
				C242.4,90.8,233.8,151.2,163.5,167.2z"/>
		</g>
		<g>
			<path fill="#9700B8" d="M143.9,151.3h-10c-0.3,0-0.6-0.3-0.6-0.6V150c0-0.3,0.3-0.6,0.6-0.6h10c0.3,0,0.6,0.3,0.6,0.6v0.8
				C144.5,151.1,144.2,151.3,143.9,151.3z"/>
			<path fill="#9700B8" d="M143.9,148h-10c-0.3,0-0.6-0.3-0.6-0.6v-0.8c0-0.3,0.3-0.6,0.6-0.6h10c0.3,0,0.6,0.3,0.6,0.6v0.8
				C144.5,147.8,144.2,148,143.9,148z"/>
			<path fill="#9700B8" d="M143.9,154.6h-10c-0.3,0-0.6-0.3-0.6-0.6v-0.8c0-0.3,0.3-0.6,0.6-0.6h10c0.3,0,0.6,0.3,0.6,0.6v0.8
				C144.5,154.4,144.2,154.6,143.9,154.6z"/>
		</g>
		<ellipse opacity="0.43" fill="#19002F" cx="184.6" cy="219.9" rx="52.8" ry="8.7"/>
		<g>
			<path fill="#5D0081" d="M218,115.4h-9.3c-0.7,0-1.2-0.6-1.2-1.2v-2c0-0.7,0.6-1.2,1.2-1.2h9.3c0.7,0,1.2,0.6,1.2,1.2v2
				C219.3,114.8,218.7,115.4,218,115.4z"/>
			<path fill="#5D0081" d="M222,121.5h-9.3c-0.7,0-1.2-0.6-1.2-1.2v-2c0-0.7,0.6-1.2,1.2-1.2h9.3c0.7,0,1.2,0.6,1.2,1.2v2
				C223.3,120.9,222.7,121.5,222,121.5z"/>
		</g>
		<g>
			<rect x="141.3" y="107.8" fill="#EB18FF" width="1.4" height="18.1"/>
			<rect x="143.8" y="107.8" fill="#EB18FF" width="1.4" height="18.1"/>
			<path fill="none" stroke="#EB18FF" stroke-width="1.604" stroke-miterlimit="10" d="M157.6,118.2H149c-0.9,0-1.6-0.7-1.6-1.6
				v-8.7"/>
			<path opacity="0.36" fill="#FFFFFF" d="M155.5,125.9h-17.6c-1.1,0-2-0.9-2-2v-14c0-1.1,0.9-2,2-2h18.4c0.7,0,1.3,0.6,1.3,1.3
				v14.7C157.6,125,156.7,125.9,155.5,125.9z"/>
			<path opacity="0.36" fill="#FFFFFF" d="M135.9,119v-7.6c0-2,1.6-3.7,3.7-3.7h6"/>
		</g>
		<g>
			<path fill="none" stroke="#FFFFFF" stroke-width="5.0792" stroke-linecap="round" stroke-miterlimit="10" d="M142.7,45.2
				c6.4-11.4,14.1-17.9,28.2-21"/>
			<g>
				<g>
					<path fill="#FFFFFF" d="M178.9,25.1c3.4,0,3.4-5.3,0-5.3C175.5,19.8,175.5,25.1,178.9,25.1L178.9,25.1z"/>
				</g>
			</g>
		</g>
		<g>
			<path fill="#5D0081" d="M197.5,35.5h9.3c0.7,0,1.2-0.6,1.2-1.2v-2c0-0.7-0.6-1.2-1.2-1.2h-9.3c-0.7,0-1.2,0.6-1.2,1.2v2
				C196.3,34.9,196.9,35.5,197.5,35.5z"/>
			<path fill="#5D0081" d="M197.4,29.5h2.5c1.2,0,2.2-1,2.2-2.2v0c0-1.2-1-2.2-2.2-2.2h-2.5c-1.2,0-2.2,1-2.2,2.2v0
				C195.2,28.5,196.2,29.5,197.4,29.5z"/>
			<path fill="#5D0081" d="M191.7,41.4h9.3c0.7,0,1.2-0.6,1.2-1.2v-2c0-0.7-0.6-1.2-1.2-1.2h-9.3c-0.7,0-1.2,0.6-1.2,1.2v2
				C190.4,40.9,191,41.4,191.7,41.4z"/>
		</g>
		<circle fill="#FFFFFF" cx="179.5" cy="69.2" r="4.1"/>
		<path fill="#EB18FF" d="M104.1,91.5c2.9,2.9,2.9,7.6,0,10.5c-2.9,2.9-7.6,2.9-10.5,0c-2.9-2.9-9.1-13.8-6.2-16.7
			C90.3,82.4,101.2,88.7,104.1,91.5z"/>
	</g>
	<g>
		<ellipse opacity="0.35" fill="#19002F" cx="394.7" cy="206" rx="55.6" ry="9.4"/>
		<g>
			<g>
				<g>
					<g>
						<path fill="#6B3CFF" d="M400.8,203.6c2.1,0,3.7-1.9,3.7-4.2V144H397v55.5C397,201.8,398.7,203.6,400.8,203.6z"/>
					</g>
					<rect x="397" y="144" opacity="0.54" fill="#1E0080" width="7.5" height="47.5"/>
				</g>
				<path fill="#6B3CFF" d="M409.5,204.3h-9.2c-1.8,0-3.3-1.5-3.3-3.3v-1.6c0-1.8,1.5-3.3,3.3-3.3h9.2c1.8,0,3.3,1.5,3.3,3.3v1.6
					C412.7,202.9,411.3,204.3,409.5,204.3z"/>
			</g>
			<rect x="397" y="144" fill="#1E0080" width="7.5" height="47.5"/>
		</g>
		<g>
			<g>
				<path fill="#6B3CFF" d="M388.7,203.6c-2.1,0-3.7-1.9-3.7-4.2V144h7.5v55.5C392.4,201.8,390.7,203.6,388.7,203.6z"/>
			</g>
			
				<rect x="384.9" y="144" transform="matrix(-1 -5.082968e-11 5.082968e-11 -1 777.3261 335.4522)" fill="#6B3CFF" width="7.5" height="47.5"/>
			
				<rect x="384.9" y="144" transform="matrix(-1 -5.082968e-11 5.082968e-11 -1 777.3261 335.4522)" fill="#1E0080" width="7.5" height="47.5"/>
			<path fill="#6B3CFF" d="M380,204.3h9.2c1.8,0,3.3-1.5,3.3-3.3v-1.6c0-1.8-1.5-3.3-3.3-3.3H380c-1.8,0-3.3,1.5-3.3,3.3v1.6
				C376.7,202.9,378.2,204.3,380,204.3z"/>
		</g>
		<g>
			<g>
				<g>
					<path fill="#6B3CFF" d="M312.9,86.9c0-43.3,36.6-83.5,81.8-83.5s81.8,40.2,81.8,83.5s-36.6,98.5-81.8,98.5
						S312.9,130.2,312.9,86.9z"/>
				</g>
				<g>
					<path fill="none" stroke="#FFFFFF" stroke-width="4.2878" stroke-linecap="round" stroke-miterlimit="10" d="M358,27
						c8.1-5.2,18.1-9.1,30.3-10"/>
					<g>
						<g>
							<path fill="#FFFFFF" d="M396.9,18.7c2.9,0,2.9-4.5,0-4.5C394,14.2,394,18.7,396.9,18.7L396.9,18.7z"/>
						</g>
					</g>
				</g>
			</g>
			<path opacity="0.54" fill="#1E0080" d="M360.8,174.9L360.8,174.9c10.3,6.6,21.8,10.6,33.9,10.6c45.2,0,81.8-55.2,81.8-98.5
				C476.6,86.9,451.4,178.4,360.8,174.9z"/>
		</g>
		<g>
			<g>
				<g>
					<circle fill="#6B3CFF" cx="335.7" cy="107.7" r="4.1"/>
					<circle fill="#6B3CFF" cx="327.6" cy="113.1" r="1.7"/>
				</g>
				<circle fill="#6B3CFF" cx="334.4" cy="117.6" r="3.1"/>
			</g>
			<g>
				<g>
					<circle fill="#1E0080" cx="459.4" cy="67.1" r="4.1"/>
					<circle fill="#1E0080" cx="451.4" cy="72.6" r="1.7"/>
				</g>
				<circle fill="#1E0080" cx="458.2" cy="77" r="3.1"/>
			</g>
		</g>
		<path opacity="0.54" fill="#1E0080" d="M346,88c0-27.9,21.8-50.5,48.6-50.5s48.6,22.6,48.6,50.5s-21.8,63.4-48.6,63.4
			S346,115.8,346,88z"/>
		<path fill="#A4AAFF" d="M346,82.2c0-27.9,21.8-50.5,48.6-50.5s48.6,22.6,48.6,50.5s-21.8,63.4-48.6,63.4S346,110.1,346,82.2z"/>
		<ellipse fill="#6B3CFF" cx="393.8" cy="81.5" rx="34.3" ry="24.9"/>
		<g>
			<g>
				<circle fill="#6B3CFF" cx="423.1" cy="108" r="1.3"/>
				<circle fill="#6B3CFF" cx="426.4" cy="105.2" r="1.3"/>
				<circle fill="#6B3CFF" cx="427.7" cy="109.7" r="1.3"/>
				<circle fill="#6B3CFF" cx="423.9" cy="112.5" r="1.3"/>
				<circle fill="#6B3CFF" cx="428.3" cy="114.5" r="1.3"/>
				<circle fill="#6B3CFF" cx="431" cy="106.7" r="1.3"/>
				<circle fill="#6B3CFF" cx="432.3" cy="111.2" r="1.3"/>
				<circle fill="#6B3CFF" cx="419.7" cy="111.5" r="1.3"/>
				<circle fill="#6B3CFF" cx="422.2" cy="116.4" r="1.3"/>
			</g>
			<g>
				<circle fill="#6B3CFF" cx="366.1" cy="108" r="1.3"/>
				<circle fill="#6B3CFF" cx="362.8" cy="105.2" r="1.3"/>
				<circle fill="#6B3CFF" cx="361.6" cy="109.7" r="1.3"/>
				<circle fill="#6B3CFF" cx="365.3" cy="112.5" r="1.3"/>
				<circle fill="#6B3CFF" cx="361" cy="114.5" r="1.3"/>
				<circle fill="#6B3CFF" cx="358.2" cy="106.7" r="1.3"/>
				<circle fill="#6B3CFF" cx="357" cy="111.2" r="1.3"/>
				<circle fill="#6B3CFF" cx="369.6" cy="111.5" r="1.3"/>
				<circle fill="#6B3CFF" cx="367.1" cy="116.4" r="1.3"/>
			</g>
		</g>
		<g>
			<g>
				<path fill="#6B3CFF" d="M394.8,121.3L394.8,121.3c4.9,0,8.9-1.6,8.9,2.1v0c0,3.8-4,6.8-8.9,6.8h0c-4.9,0-8.9-3.1-8.9-6.8v0
					C385.9,119.7,389.9,121.3,394.8,121.3z"/>
			</g>
			<path fill="#FFFFFF" d="M394.7,119.6c-2.3,0-4.5,0.5-6.3,1.4c0.1,2.5,2.9,2.4,6.3,2.4c3.4,0,6.2,0.1,6.3-2.4
				C399.2,120.1,397.1,119.6,394.7,119.6L394.7,119.6z"/>
		</g>
		<path opacity="0.36" fill="#D0E7FF" d="M394.7,105.8c0,0-0.1-0.1-0.1-0.1C394.6,105.7,394.6,105.8,394.7,105.8z"/>
		<path opacity="0.36" fill="#D0E7FF" d="M394.8,106.9c-0.1-0.1-0.3-0.3-0.4-0.4C394.6,106.7,394.7,106.8,394.8,106.9z"/>
		<path opacity="0.36" fill="#D0E7FF" d="M394.6,104.9C394.6,104.9,394.6,104.9,394.6,104.9C394.6,104.9,394.6,104.9,394.6,104.9z"
			/>
		<path opacity="0.36" fill="#D0E7FF" d="M394.7,106.3c-0.1-0.1-0.1-0.1-0.2-0.2C394.6,106.2,394.7,106.3,394.7,106.3z"/>
		<path opacity="0.36" fill="#D0E7FF" d="M394.6,104.4C394.6,104.4,394.6,104.4,394.6,104.4C394.6,104.4,394.6,104.4,394.6,104.4z"
			/>
		<path opacity="0.36" fill="#D0E7FF" d="M394.7,105.4C394.6,105.3,394.6,105.3,394.7,105.4C394.6,105.3,394.6,105.3,394.7,105.4z"
			/>
		<path opacity="0.36" fill="#FFFFFF" d="M394.8,105.3c-0.1-0.1-0.2-0.3-0.3-0.4C394.6,105,394.7,105.1,394.8,105.3z"/>
		<path opacity="0.36" fill="#FFFFFF" d="M394.8,104.8c-0.1-0.1-0.2-0.3-0.3-0.4C394.6,104.6,394.7,104.7,394.8,104.8z"/>
		<path opacity="0.36" fill="#FFFFFF" d="M394.7,106.5c-0.1-0.1-0.1-0.1-0.2-0.2C394.6,106.4,394.7,106.5,394.7,106.5z"/>
		<path opacity="0.36" fill="#FFFFFF" d="M394.8,106.1c-0.1-0.1-0.2-0.2-0.3-0.3C394.6,105.9,394.7,106,394.8,106.1z"/>
		<path opacity="0.36" fill="#FFFFFF" d="M394.8,105.7c-0.1-0.1-0.2-0.2-0.3-0.3C394.6,105.5,394.7,105.6,394.8,105.7z"/>
		<g>
			<g>
				<circle fill="#FFFFFF" cx="394.6" cy="81.5" r="17.1"/>
				<g>
					<circle fill="#6B3CFF" cx="394.6" cy="81.5" r="9.1"/>
					<circle fill="#1E0080" cx="394.6" cy="81.5" r="6.8"/>
				</g>
			</g>
		</g>
		<ellipse opacity="0.32" fill="#C2D8FF" cx="393.8" cy="82.7" rx="34.3" ry="24.9"/>
		<path opacity="0.45" fill="#FFFFFF" d="M371,100c-7.1-4.6-11.5-11.2-11.5-18.6c0-13.7,15.4-24.9,34.3-24.9
			c7.1,0,13.7,1.6,19.2,4.2"/>
		<ellipse fill="none" stroke="#FFFFFF" stroke-width="3.3428" stroke-miterlimit="10" cx="393.8" cy="81.4" rx="34.3" ry="24.9"/>
		<g>
			<circle fill="#6B3CFF" cx="371.6" cy="48.2" r="1.3"/>
			<circle fill="#6B3CFF" cx="375.5" cy="50.5" r="1.3"/>
			<circle fill="#6B3CFF" cx="370.9" cy="53.1" r="1.3"/>
			<circle fill="#6B3CFF" cx="380.9" cy="49.8" r="1.3"/>
			<circle fill="#6B3CFF" cx="376.4" cy="46.4" r="1.3"/>
		</g>
		<circle fill="#6B3CFF" cx="416" cy="46.4" r="3.1"/>
		<circle fill="#6B3CFF" cx="420.9" cy="51.8" r="2"/>
		<g>
			<ellipse transform="matrix(0.866 -0.5 0.5 0.866 27.4708 224.7342)" fill="#6B3CFF" cx="433.1" cy="61.1" rx="3.2" ry="4.1"/>
			<path fill="#1E0080" d="M445.9,34c-0.9,0.6-1.2,1.8-0.6,2.7l6.4,9.7l-6.9,4.6l-3.8-5.7c-0.6-0.9-1.8-1.2-2.7-0.6
				c-0.9,0.6-1.2,1.8-0.6,2.7l3.8,5.7l-8.6,5.7c-0.9,0.6-1.2,1.8-0.6,2.7c0.6,0.9,1.8,1.2,2.7,0.6l20.4-13.5
				c0.9-0.6,1.2-1.8,0.6-2.7l-7.5-11.3C448,33.6,446.8,33.4,445.9,34z"/>
			<ellipse transform="matrix(0.5 -0.866 0.866 0.5 125.256 339.1617)" fill="#6B3CFF" cx="356.4" cy="61.1" rx="4.1" ry="3.2"/>
			<path fill="#1E0080" d="M343.6,34c0.9,0.6,1.2,1.8,0.6,2.7l-6.4,9.7l6.9,4.6l3.8-5.7c0.6-0.9,1.8-1.2,2.7-0.6
				c0.9,0.6,1.2,1.8,0.6,2.7l-3.8,5.7l8.6,5.7c0.9,0.6,1.2,1.8,0.6,2.7s-1.8,1.2-2.7,0.6l-20.4-13.5c-0.9-0.6-1.2-1.8-0.6-2.7
				l7.5-11.3C341.4,33.6,342.7,33.4,343.6,34z"/>
		</g>
		<g>
			<path fill="#6B3CFF" d="M338.8,142.6c0,0,5.1-11.4-0.4-12.8c-5.5-1.4-8.6,10.6-8.6,10.6L338.8,142.6z"/>
		</g>
		<g>
			<path fill="#6B3CFF" d="M460.2,133c0,0,12.7,22-4.7,47c0,0,2.8,8-2.4,9.5c0,0-2.7,0.3-1-3.2c0,0-1.8,2-2.7,1.9c0,0-2.4-0.4-1-3.6
				c0,0-2.3,3.4-3.3,1.1c-0.3-0.9-0.3-7,5.1-7.9c0,0,13.4-15.8,8.4-37.1C458.3,140.7,454.1,129.8,460.2,133z"/>
			<path fill="#1E0080" d="M456.3,142.6c0,0-5.1-11.4,0.4-12.8s8.6,10.6,8.6,10.6L456.3,142.6z"/>
		</g>
		<circle fill="#FFFFFF" cx="388.7" cy="74.8" r="4.3"/>
	</g>
	<g>
		<ellipse opacity="0.51" fill="#19002F" cx="288.7" cy="236.9" rx="51.8" ry="7.8"/>
		<g>
			<g>
				<g>
					<path fill="#76CBFF" d="M241.2,208.2c0,3.3-2.2,6-4.8,6c-2.6,0-4.7-2.8-4.7-6.1"/>
					<path fill="#003875" d="M246.9,186.8l-4.3-2.3c-1.4-0.7-3.2-0.3-4,1.1c-2.2,3.7-6.2,11.4-7.9,21.4c-0.3,1.9,1.1,2.1,3,2.1
						l5.8,0.1c1.6,0,2.9,0.3,3.1-1.2c0.4-3.3,1.6-9.3,5.7-17C249,189.5,248.4,187.6,246.9,186.8z"/>
				</g>
				<g>
					<path fill="#76CBFF" d="M333.5,209.1c0,3.3,2,6.1,4.7,6.1c2.6,0,4.7-2.7,4.8-6"/>
					<path fill="#003875" d="M328.2,187.7l4.4-2.2c1.5-0.7,3.2-0.2,4,1.2c2.1,3.7,6,11.5,7.5,21.5c0.3,1.9-1.2,2-3.1,2l-5.8-0.1
						c-1.6,0-2.9,0.3-3-1.3c-0.3-3.3-1.4-9.3-5.4-17.1C326,190.3,326.6,188.5,328.2,187.7z"/>
				</g>
			</g>
			<g>
				<g>
					
						<ellipse transform="matrix(1.048771e-02 -0.9999 0.9999 1.048771e-02 32.7018 484.9623)" fill="#76CBFF" cx="261.4" cy="226" rx="7.7" ry="7.7"/>
				</g>
				<g>
					
						<ellipse transform="matrix(1.048803e-02 -0.9999 0.9999 1.048803e-02 83.1279 537.0005)" fill="#76CBFF" cx="312.9" cy="226.5" rx="7.7" ry="7.7"/>
				</g>
				<g>
					
						<ellipse transform="matrix(1.048779e-02 -0.9999 0.9999 1.048779e-02 63.2275 522.6505)" fill="#76CBFF" cx="295.7" cy="229.4" rx="7.7" ry="7.7"/>
				</g>
				<g>
					
						<ellipse transform="matrix(1.048800e-02 -0.9999 0.9999 1.048800e-02 46.4187 505.3043)" fill="#76CBFF" cx="278.5" cy="229.2" rx="7.7" ry="7.7"/>
				</g>
			</g>
			<g>
				<g>
					<path fill="#0084BF" d="M332,207.8c-0.2,21.1-20.3,23.2-44.9,23c-24.7-0.3-44.7-2.8-44.5-23.9c0.2-21.1,20.7-68.6,45.4-68.4
						S332.3,186.7,332,207.8z"/>
				</g>
				<g>
					<path fill="#0084BF" d="M240.4,177.1c-3.7-1.7-7,3.1-4,5.9c13.4,12.5,31.3,20.1,51,20.4c19.7,0.2,37.8-7.1,51.4-19.3
						c3.1-2.7-0.1-7.7-3.9-6c-12.9,5.7-29.4,11-47.4,10.8C269.6,188.7,253.1,183,240.4,177.1z"/>
				</g>
				<path opacity="0.54" fill="#003875" d="M336.2,177.7c-2.4,4.2-24.4,32.3-79.9,49.3c0.1,0,0.2,0.1,0.2,0.1c0.1,0,0.2,0.1,0.3,0.1
					c0.2,0.1,0.4,0.2,0.6,0.2c0.1,0,0.2,0.1,0.3,0.1c0.6,0.2,1.2,0.4,1.9,0.6c0.1,0,0.2,0,0.3,0.1c0.2,0.1,0.5,0.1,0.7,0.2
					c0.1,0,0.2,0.1,0.3,0.1c0.2,0.1,0.5,0.1,0.7,0.2c0.1,0,0.2,0.1,0.3,0.1c0.3,0.1,0.5,0.1,0.8,0.2c0.1,0,0.2,0,0.2,0.1
					c0.3,0.1,0.7,0.1,1,0.2c0.1,0,0.1,0,0.2,0c0.3,0.1,0.6,0.1,0.9,0.2c0.1,0,0.2,0,0.3,0.1c0.2,0,0.5,0.1,0.7,0.1
					c0.1,0,0.2,0,0.4,0.1c0.2,0,0.5,0.1,0.8,0.1c0.1,0,0.2,0,0.3,0c0.3,0,0.6,0.1,1,0.1c0,0,0.1,0,0.1,0c0.4,0,0.7,0.1,1.1,0.1
					c0.1,0,0.2,0,0.3,0c0.3,0,0.6,0.1,0.8,0.1c0.1,0,0.3,0,0.4,0c0.3,0,0.5,0,0.8,0.1c0.1,0,0.3,0,0.4,0c0.3,0,0.6,0,0.8,0.1
					c0.1,0,0.2,0,0.3,0c0.4,0,0.8,0.1,1.2,0.1c0,0,0.1,0,0.1,0c0.4,0,0.7,0,1.1,0.1c0.1,0,0.3,0,0.4,0c0.3,0,0.5,0,0.8,0
					c0.1,0,0.3,0,0.5,0c0.3,0,0.5,0,0.8,0c0.1,0,0.3,0,0.4,0c0.3,0,0.6,0,1,0c0.1,0,0.2,0,0.3,0c0.4,0,0.8,0,1.2,0
					c0.1,0,0.2,0,0.4,0c0.3,0,0.6,0,0.9,0c0.2,0,0.3,0,0.5,0c0.3,0,0.5,0,0.8,0c0.2,0,0.3,0,0.5,0c0.3,0,0.6,0,0.8,0
					c0.2,0,0.3,0,0.5,0c0.4,0,0.8,0,1.2,0c0,0,0.1,0,0.1,0c14.7,0.2,27.7-0.5,35.9-5.5c0.6-0.4,1.3-0.8,1.9-1.3
					c1-0.8,1.9-1.6,2.7-2.5c0.6-0.7,1.2-1.5,1.7-2.4c0.3-0.4,0.5-0.9,0.7-1.3c0.1-0.2,0.2-0.5,0.3-0.7c0.2-0.5,0.4-1,0.6-1.5
					c0.8-2.3,1.2-4.9,1.2-7.8c0-4.6-0.8-10.4-2.5-16.7c3.3-2.1,6.3-4.5,9.2-7C341.5,181.6,339.4,177.5,336.2,177.7"/>
			</g>
			<g>
				<g>
					<path fill="none" stroke="#0084BF" stroke-width="3.3243" stroke-linecap="round" stroke-miterlimit="10" d="M283.3,89.8
						c0,0-12.2-15.4-12-29.4"/>
					<circle fill="#76CBFF" cx="270.7" cy="58.3" r="6.4"/>
				</g>
				<g>
					<path fill="none" stroke="#0084BF" stroke-width="3.3243" stroke-linecap="round" stroke-miterlimit="10" d="M293.7,96.3
						c0,0,12.5-15.1,12.6-29.1"/>
					<circle fill="#76CBFF" cx="307" cy="65.1" r="6.4"/>
				</g>
			</g>
			<g>
				<g>
					<path fill="#0084BF" d="M223.8,74.7c0.4-35.9,28.9,21.8,64.7,22.2c35.9,0.4,65.6-56.7,65.2-20.8S324,131.4,288.1,131
						C252.3,130.6,223.4,110.6,223.8,74.7z"/>
					<path opacity="0.54" fill="#003875" d="M353.7,76.1c0.1-8-1.3-11.4-4-11.8c0,0-0.5,31.4-21.3,44.5l2.5,10.7
						C344.7,110.3,353.5,95.7,353.7,76.1z"/>
					<path opacity="0.54" fill="#003875" d="M223.8,74.7c0.1-8,1.6-11.3,4.2-11.7c0,0-0.2,31.4,20.4,45l-2.7,10.6
						C232,109.1,223.6,94.3,223.8,74.7z"/>
				</g>
				<g>
					<g>
						<path fill="none" stroke="#76CBFF" stroke-width="2.2162" stroke-linecap="round" stroke-miterlimit="10" d="M236.9,73.7
							c0,0,7.8,8.4,14.5,12.9"/>
						<path fill="none" stroke="#76CBFF" stroke-width="2.2162" stroke-linecap="round" stroke-miterlimit="10" d="M255.6,89.5
							C255.6,89.5,253.3,88,255.6,89.5"/>
					</g>
					<g>
						<path fill="none" stroke="#76CBFF" stroke-width="2.2162" stroke-linecap="round" stroke-miterlimit="10" d="M340.6,74.8
							c0,0-8,8.2-14.8,12.6"/>
						<path fill="none" stroke="#76CBFF" stroke-width="2.2162" stroke-linecap="round" stroke-miterlimit="10" d="M321.5,90.2
							C321.5,90.2,323.9,88.7,321.5,90.2"/>
					</g>
				</g>
			</g>
			<g>
				<g>
					<path fill="#76CBFF" d="M346.2,145.8c-0.3,32.1-26.6,50.1-58.7,49.7s-58-18.8-57.7-51c0.3-32.1,26.7-57.9,58.8-57.6
						C320.7,87.3,346.5,113.6,346.2,145.8z"/>
					<g>
						<path fill="#0084BF" d="M232.1,161.4c6-0.5,10.7-5.5,10.8-11.6c0.1-6.5-5.1-11.8-11.6-11.9c-0.3,0-0.7,0-1,0
							c-0.3,2.2-0.4,4.3-0.4,6.6C229.7,150.4,230.5,156,232.1,161.4z"/>
						<path fill="#0084BF" d="M339.8,118.6c-3.1,0.8-5.3,3.6-5.4,6.9c0,4,3.2,7.2,7.1,7.3c1.1,0,2.2-0.2,3.2-0.7
							C343.6,127.3,342,122.8,339.8,118.6z"/>
						<circle fill="#0084BF" cx="248.4" cy="163.4" r="5.3"/>
						<circle fill="#0084BF" cx="327.4" cy="120.5" r="3.2"/>
						<circle fill="#0084BF" cx="319.2" cy="164.8" r="6.1"/>
						<circle fill="#0084BF" cx="325.6" cy="153.5" r="3"/>
						<circle fill="#0084BF" cx="248.9" cy="149.7" r="2.3"/>
					</g>
				</g>
				<g>
					<path fill="none" stroke="#FFFFFF" stroke-width="3.0472" stroke-linecap="round" stroke-miterlimit="10" d="M249.8,116.5
						c0,0,5.2-16,27.9-20.4"/>
					<path fill="none" stroke="#FFFFFF" stroke-width="3.0472" stroke-linecap="round" stroke-miterlimit="10" d="M282.8,95.1
						C283.6,94.9,281.9,95.2,282.8,95.1"/>
				</g>
			</g>
			<g>
				<path fill="#0084BF" d="M302.6,167.1c-0.1,8.2-6.8,14.8-15,14.7c-8.2-0.1-14.8-6.8-14.7-15"/>
				<path fill="#FFFFFF" d="M281.1,166.8l0,3.4c0,1.1,0.9,2,2,2l1.3,0c1.1,0,2-0.9,2-2l0-3.4L281.1,166.8z"/>
				<path fill="#FFFFFF" d="M289.1,166.9l0,3.4c0,1.1,0.9,2,2,2l1.3,0c1.1,0,2-0.9,2-2l0-3.4L289.1,166.9z"/>
			</g>
			<g>
				<g>
					<circle fill="#00A0DF" cx="288.1" cy="131" r="27.6"/>
				</g>
				<g>
					<circle fill="#FFFFFF" cx="288.1" cy="131" r="19.1"/>
					<g>
						<circle fill="#00A0DF" cx="288.1" cy="131" r="10.2"/>
						<circle fill="#1E0080" cx="288.1" cy="131" r="7.6"/>
					</g>
				</g>
				<g>
					<circle opacity="0.38" fill="#D0E7FF" cx="288.1" cy="131" r="27.6"/>
					<path opacity="0.45" fill="#FFFFFF" d="M268.4,150.3c-10.7-10.9-10.5-28.4,0.4-39.1s28.4-10.5,39.1,0.4"/>
					<circle fill="none" stroke="#00A0DF" stroke-width="3.3321" stroke-miterlimit="10" cx="288.1" cy="131" r="27.6"/>
				</g>
			</g>
			<circle fill="#FFFFFF" cx="282.5" cy="124.3" r="5.3"/>
		</g>
	</g>
	<g>
		<ellipse opacity="0.51" fill="#19002F" cx="491.5" cy="230.3" rx="48.2" ry="7.3"/>
		<g>
			<g>
				<path fill="#9700B8" d="M531.4,207.5c0,4,2.6,7.2,5.7,7.2s5.6-3.3,5.6-7.3"/>
				<path fill="#5D0081" d="M524.5,182l5.2-2.7c1.7-0.9,3.8-0.3,4.9,1.4c2.7,4.4,7.4,13.6,9.5,25.6c0.4,2.2-1.4,2.5-3.6,2.5
					l-6.9,0.1c-1.9,0-3.5,0.4-3.7-1.5c-0.4-3.9-1.9-11.1-6.9-20.3C522,185.2,522.7,182.9,524.5,182z"/>
			</g>
			<g>
				<path fill="#9700B8" d="M451,207.5c0,4-2.6,7.2-5.7,7.2s-5.6-3.3-5.6-7.3"/>
				<path fill="#5D0081" d="M457.8,182l-5.2-2.7c-1.7-0.9-3.8-0.3-4.9,1.4c-2.7,4.4-7.4,13.6-9.5,25.6c-0.4,2.2,1.4,2.5,3.6,2.5
					l6.9,0.1c1.9,0,3.5,0.4,3.7-1.5c0.4-3.9,1.9-11.1,6.9-20.3C460.4,185.2,459.7,182.9,457.8,182z"/>
			</g>
		</g>
		<g>
			<g>
				
					<ellipse transform="matrix(1.048774e-02 -0.9999 0.9999 1.048774e-02 241.0158 683.7834)" fill="#5D0081" cx="466" cy="220.1" rx="7.2" ry="7.2"/>
			</g>
			<g>
				
					<ellipse transform="matrix(1.048789e-02 -0.9999 0.9999 1.048789e-02 287.9576 732.226)" fill="#5D0081" cx="514" cy="220.6" rx="7.2" ry="7.2"/>
			</g>
			<g>
				
					<ellipse transform="matrix(1.048795e-02 -0.9999 0.9999 1.048795e-02 269.4322 718.8674)" fill="#5D0081" cx="497.9" cy="223.3" rx="7.2" ry="7.2"/>
			</g>
			<g>
				
					<ellipse transform="matrix(1.048802e-02 -0.9999 0.9999 1.048802e-02 253.7849 702.7198)" fill="#5D0081" cx="482" cy="223.1" rx="7.2" ry="7.2"/>
			</g>
		</g>
		<g>
			<path fill="#EB18FF" d="M531.8,203.2c-0.2,19.7-18.9,21.6-41.8,21.4c-23-0.2-41.6-2.6-41.4-22.3s19.3-63.9,42.3-63.6
				S532,183.6,531.8,203.2z"/>
		</g>
		<path opacity="0.72" fill="#5D0081" d="M529.5,187.7c1.5,5.9,2.4,11.3,2.3,15.6c0,2.8-0.4,5.2-1.1,7.3c-0.2,0.5-0.3,0.9-0.5,1.4
			c-0.1,0.2-0.2,0.4-0.3,0.6c-0.2,0.4-0.4,0.8-0.7,1.2c-0.5,0.8-1,1.5-1.6,2.2c-0.7,0.9-1.6,1.6-2.5,2.3c-0.5,0.4-1.1,0.8-1.7,1.2
			c-7.6,4.7-19.8,5.3-33.4,5.2c0,0-0.1,0-0.1,0c-0.4,0-0.7,0-1.1,0c-0.1,0-0.3,0-0.4,0c-0.3,0-0.5,0-0.8,0c-0.2,0-0.3,0-0.5,0
			c-0.3,0-0.5,0-0.8,0c-0.1,0-0.3,0-0.4,0c-0.3,0-0.6,0-0.8,0c-0.1,0-0.2,0-0.3,0c-0.4,0-0.8,0-1.2,0c-0.1,0-0.2,0-0.3,0
			c-0.3,0-0.6,0-0.9,0c-0.1,0-0.3,0-0.4,0c-0.3,0-0.5,0-0.8,0c-0.1,0-0.3,0-0.4,0c-0.3,0-0.5,0-0.8,0c-0.1,0-0.3,0-0.4,0
			c-0.3,0-0.7,0-1-0.1c0,0-0.1,0-0.1,0c-0.4,0-0.7-0.1-1.1-0.1c-0.1,0-0.2,0-0.3,0c-0.3,0-0.5,0-0.8-0.1c-0.1,0-0.3,0-0.4,0
			c-0.2,0-0.5,0-0.7-0.1c-0.1,0-0.2,0-0.4,0c-0.3,0-0.5-0.1-0.8-0.1c-0.1,0-0.2,0-0.3,0c-0.4,0-0.7-0.1-1-0.1c0,0-0.1,0-0.1,0
			c-0.3,0-0.6-0.1-0.9-0.1c-0.1,0-0.2,0-0.3,0c-0.2,0-0.5-0.1-0.7-0.1c-0.1,0-0.2,0-0.3-0.1c-0.2,0-0.5-0.1-0.7-0.1
			c-0.1,0-0.2,0-0.3-0.1c-0.3,0-0.6-0.1-0.8-0.1c0,0-0.1,0-0.1,0c-0.3-0.1-0.6-0.1-1-0.2c-0.1,0-0.1,0-0.2,0
			c-0.2-0.1-0.5-0.1-0.7-0.2c-0.1,0-0.2,0-0.3-0.1c-0.2-0.1-0.4-0.1-0.6-0.2c-0.1,0-0.2-0.1-0.3-0.1c-0.2-0.1-0.4-0.1-0.7-0.2
			c-0.1,0-0.2,0-0.2-0.1c-0.6-0.2-1.2-0.3-1.7-0.5c-0.1,0-0.2-0.1-0.2-0.1c-0.2-0.1-0.4-0.1-0.6-0.2c-0.1,0-0.2-0.1-0.3-0.1
			c-0.1,0-0.2-0.1-0.2-0.1c41.5-12.7,59.2-32.6,65.7-42L529.5,187.7z"/>
		<g>
			<g>
				<path fill="#5D0081" d="M508.6,84l25.7-5.1c5.1-1,9.4,3.9,7.7,8.8l-8.4,24.8"/>
				<polygon fill="#EB18FF" points="511.8,88.5 535.7,82.9 520.5,94.6 				"/>
			</g>
			<g>
				<path fill="#5D0081" d="M470.5,84l-25.7-5.1c-5.1-1-9.4,3.9-7.7,8.8l8.4,24.8"/>
				<polygon fill="#EB18FF" points="467.3,88.5 443.3,82.9 458.5,94.6 				"/>
			</g>
		</g>
		<path fill="#9700B8" d="M545,145.4c-0.3,29.9-24.7,46.6-54.7,46.3s-54-17.5-53.7-47.4c0.3-29.9,24.8-74.9,54.8-74.6
			C521.3,70.1,545.3,115.5,545,145.4z"/>
		<g>
			<path fill="none" stroke="#FFFFFF" stroke-width="2.8367" stroke-linecap="round" stroke-miterlimit="10" d="M461.3,98.7
				c0,0,4.8-14.9,26-19"/>
			<path fill="none" stroke="#FFFFFF" stroke-width="2.8367" stroke-linecap="round" stroke-miterlimit="10" d="M492,78.8
				C492.7,78.7,491.2,78.9,492,78.8"/>
		</g>
		<g>
			<g>
				<circle fill="#5D0081" cx="524.6" cy="145.5" r="1.5"/>
				<circle fill="#5D0081" cx="528.5" cy="142.2" r="1.5"/>
				<circle fill="#5D0081" cx="529.9" cy="147.5" r="1.5"/>
				<circle fill="#5D0081" cx="525.5" cy="150.8" r="1.5"/>
				<circle fill="#5D0081" cx="530.6" cy="153.1" r="1.5"/>
				<circle fill="#5D0081" cx="533.8" cy="144" r="1.5"/>
				<circle fill="#5D0081" cx="535.3" cy="149.3" r="1.5"/>
				<circle fill="#5D0081" cx="520.6" cy="149.6" r="1.5"/>
				<circle fill="#5D0081" cx="523.5" cy="155.3" r="1.5"/>
			</g>
			<g>
				<circle fill="#5D0081" cx="458.2" cy="145.5" r="1.5"/>
				<circle fill="#5D0081" cx="454.4" cy="142.2" r="1.5"/>
				<circle fill="#5D0081" cx="452.9" cy="147.5" r="1.5"/>
				<circle fill="#5D0081" cx="457.3" cy="150.8" r="1.5"/>
				<circle fill="#5D0081" cx="452.2" cy="153.1" r="1.5"/>
				<circle fill="#5D0081" cx="449" cy="144" r="1.5"/>
				<circle fill="#5D0081" cx="447.6" cy="149.3" r="1.5"/>
				<circle fill="#5D0081" cx="462.3" cy="149.6" r="1.5"/>
				<circle fill="#5D0081" cx="459.3" cy="155.3" r="1.5"/>
			</g>
		</g>
		<g>
			<circle fill="#FFFFFF" cx="491.5" cy="130.9" r="14.5"/>
			<g>
				<circle fill="#F9A6FF" cx="491.5" cy="130.9" r="7.7"/>
				<circle fill="#5D0081" cx="491.5" cy="130.9" r="5.7"/>
			</g>
			<g>
				<circle opacity="0.36" fill="#F9A6FF" cx="491.5" cy="130.9" r="21"/>
				<path opacity="0.36" fill="#FFFFFF" d="M476.6,145.7c-8.2-8.2-8.2-21.5,0-29.7s21.5-8.2,29.7,0"/>
			</g>
			<circle fill="none" stroke="#EB18FF" stroke-width="3.414" stroke-miterlimit="10" cx="491.5" cy="130.9" r="21"/>
			<circle fill="#FFFFFF" cx="487.9" cy="124.3" r="3.5"/>
		</g>
		<g>
			<path fill="#5D0081" d="M509.4,167.1c0,6.5-8,11.7-17.9,11.7s-17.9-5.3-17.9-11.7s8-1.8,17.9-1.8S509.4,160.6,509.4,167.1z"/>
			<path fill="#FFFFFF" d="M491.4,165.3c-6.6,0-12.4-2.1-15.5-1.6c3.1,3.5,8.9,5.8,15.5,5.8s12.4-2.4,15.5-5.8
				C503.8,163.2,498,165.3,491.4,165.3z"/>
			<path fill="#DA6CFF" d="M481.3,176.8c2.9,1.3,6.4,2.1,10.1,2.1c3.7,0,7.2-0.7,10-2c-1.8-1.5-5.7-2.6-10.1-2.6
				C486.9,174.3,483.1,175.3,481.3,176.8z"/>
		</g>
	</g>
	<g>
		<g>
			<path fill="#6B3CFF" d="M140.9,198c-0.2,4.2,2.3,7.7,5.6,7.9c3.3,0.2,6.1-3.1,6.3-7.3"/>
			<path fill="#1E0080" d="M135.3,170.7l5.6-2.5c1.9-0.8,4.1-0.1,5,1.7c2.5,4.8,6.9,14.7,8.3,27.4c0.3,2.4-1.6,2.5-3.9,2.4l-7.2-0.4
				c-2-0.1-3.7,0.2-3.8-1.8c-0.2-4.1-1.3-11.8-5.9-21.7C132.4,173.9,133.3,171.6,135.3,170.7z"/>
		</g>
		<g>
			<path fill="#6B3CFF" d="M17.5,198c0.2,4.2-2.3,7.7-5.6,7.9s-6.1-3.1-6.3-7.3"/>
			<path fill="#1E0080" d="M23.1,170.7l-5.6-2.5c-1.9-0.8-4.1-0.1-5,1.7c-2.5,4.8-6.9,14.7-8.3,27.4c-0.3,2.4,1.6,2.5,3.9,2.4
				l7.2-0.4c2-0.1,3.7,0.2,3.8-1.8c0.2-4.1,1.3-11.8,5.9-21.7C25.9,173.9,25,171.6,23.1,170.7z"/>
		</g>
	</g>
	<ellipse opacity="0.43" fill="#19002F" cx="78.8" cy="230.6" rx="58.4" ry="8.2"/>
	<rect x="62.4" y="216.8" fill="#76CBFF" width="10.7" height="6.9"/>
	
		<rect x="82.8" y="216.8" transform="matrix(-1 -4.472301e-11 4.472301e-11 -1 176.1993 440.3777)" fill="#76CBFF" width="10.7" height="6.9"/>
	<g>
		<path fill="#6B3CFF" d="M67.7,229.5c2.9,0,5.3-2.4,5.3-5.3V204H62.4v20.2C62.4,227.1,64.8,229.5,67.7,229.5z"/>
		<path fill="#1E0080" d="M62.4,222.8c3.2,0.4,6.8,0.6,10.6,0.8v-9H62.4V222.8z"/>
		<path fill="#6B3CFF" d="M88.1,229.5c-2.9,0-5.3-2.4-5.3-5.3V204h10.6v20.2C93.4,227.1,91,229.5,88.1,229.5z"/>
		<path fill="#1E0080" d="M93.4,222.8c-3.2,0.4-6.8,0.6-10.6,0.8v-9h10.6V222.8z"/>
	</g>
	<path fill="#A4AAFF" d="M145.3,156.6c0,43.2-29.6,63.8-66.2,63.8S13,199.9,13,156.6s29.6-78.3,66.2-78.3S145.3,113.4,145.3,156.6z"
		/>
	<path fill="#6B3CFF" d="M79.2,193.6c-26.4,0-49.8-17.1-64.5-19.9c6.8,31.6,33.1,46.8,64.5,46.8c31.4,0,57.6-15.1,64.5-46.8
		C129,176.5,105.6,193.6,79.2,193.6z"/>
	<g>
		<circle fill="#6B3CFF" cx="79.1" cy="139.5" r="27.2"/>
	</g>
	<g>
		<circle fill="#FFFFFF" cx="79.1" cy="139.5" r="18.8"/>
		<g>
			<circle fill="#6B3CFF" cx="79.1" cy="139.5" r="10"/>
			<circle fill="#1E0080" cx="79.1" cy="139.5" r="7.4"/>
		</g>
	</g>
	<g>
		<circle opacity="0.38" fill="#D0E7FF" cx="78.6" cy="139.5" r="27.2"/>
		<path opacity="0.45" fill="#FFFFFF" d="M59.2,158.5c-10.5-10.7-10.3-28,0.4-38.5s28-10.3,38.5,0.4"/>
		<circle fill="none" stroke="#FFFFFF" stroke-width="3.28" stroke-miterlimit="10" cx="78.6" cy="139.5" r="27.2"/>
	</g>
	<path fill="#4720BA" d="M88.3,178.2c0,5.2-4.3,9.5-9.5,9.5c-5.2,0-9.5-4.3-9.5-9.5"/>
	<path fill="#FFFFFF" d="M75.3,178.5c0,1.9,1.5,3.4,3.4,3.4c1.9,0,3.4-1.5,3.4-3.4c0-0.1,0-0.2,0-0.3h-6.8
		C75.4,178.3,75.3,178.4,75.3,178.5z"/>
	<path opacity="0.54" fill="#1E0080" d="M66.7,219.6c4.1,0.6,8.2,0.9,12.5,0.9c36.5,0,66.2-20.5,66.2-63.8c0-8.6-1.2-17-3.4-24.7
		C141.7,133.5,132,189.9,66.7,219.6z"/>
	<g>
		<path fill="none" stroke="#FFFFFF" stroke-width="3.5149" stroke-linecap="round" stroke-miterlimit="10" d="M36.3,116.8
			c0,0,6.5-19.3,31.8-24.6"/>
		
			<line fill="none" stroke="#FFFFFF" stroke-width="3.5149" stroke-linecap="round" stroke-miterlimit="10" x1="74.6" y1="91.5" x2="75.3" y2="91.5"/>
	</g>
	<g>
		<g>
			<circle fill="#6B3CFF" cx="37.3" cy="162.4" r="1.2"/>
			<circle fill="#6B3CFF" cx="40.8" cy="165.9" r="1.2"/>
			<circle fill="#6B3CFF" cx="32.9" cy="161.2" r="1.2"/>
			<circle fill="#6B3CFF" cx="34.1" cy="166.4" r="1.2"/>
			<circle fill="#6B3CFF" cx="37.5" cy="169.3" r="1.2"/>
			<circle fill="#6B3CFF" cx="42.2" cy="170.2" r="1.2"/>
			<circle fill="#6B3CFF" cx="42" cy="161.6" r="1.2"/>
		</g>
		<g>
			<circle fill="#6B3CFF" cx="119.3" cy="162.4" r="1.2"/>
			<circle fill="#6B3CFF" cx="115.8" cy="165.9" r="1.2"/>
			<circle fill="#6B3CFF" cx="123.7" cy="161.2" r="1.2"/>
			<circle fill="#6B3CFF" cx="122.5" cy="166.4" r="1.2"/>
			<circle fill="#6B3CFF" cx="119.1" cy="169.3" r="1.2"/>
			<circle fill="#6B3CFF" cx="114.4" cy="170.2" r="1.2"/>
			<circle fill="#6B3CFF" cx="114.6" cy="161.6" r="1.2"/>
		</g>
	</g>
	<circle fill="#FFFFFF" cx="72.2" cy="138.6" r="4.9"/>
	<g>
		<circle fill="#6B3CFF" cx="114.1" cy="106.5" r="4.9"/>
		<circle fill="#6B3CFF" cx="112.1" cy="117.9" r="3.6"/>
		<circle fill="#6B3CFF" cx="120.8" cy="115.6" r="2.2"/>
	</g>
	<g>
		<circle fill="#6B3CFF" cx="36.2" cy="149.4" r="4.9"/>
		<circle fill="#6B3CFF" cx="34.2" cy="138" r="3.6"/>
		<circle fill="#6B3CFF" cx="26.8" cy="143.1" r="2.2"/>
	</g>
	<ellipse opacity="0.75" fill="#1E0080" cx="79.2" cy="83.5" rx="4.5" ry="2.4"/>
	<path fill="#6B3CFF" d="M76.5,61.2v21.1h0c0.2,1.3,1.3,2.3,2.6,2.3s2.4-1,2.6-2.3h0V61.2H76.5z"/>
	<g>
		<g>
			<circle fill="#1E0080" cx="79.2" cy="55" r="8.7"/>
			<path opacity="0.54" fill="#0E003B" d="M74.7,62.5c1.3,0.8,2.8,1.2,4.4,1.2c4.8,0,8.7-3.9,8.7-8.7c0-2.2-0.8-4.2-2.2-5.7
				C84.7,52.1,81.8,58.9,74.7,62.5z"/>
		</g>
		<path fill="none" stroke="#FFFFFF" stroke-width="0.7015" stroke-linecap="round" stroke-miterlimit="10" d="M72.8,52.9
			c0,0,1-4.3,5.9-4.9"/>
		
			<line fill="none" stroke="#FFFFFF" stroke-width="0.7015" stroke-linecap="round" stroke-miterlimit="10" x1="79.8" y1="48" x2="80.1" y2="48"/>
	</g>
</g>
<g id="Fog_Overlay">
</g>
<g id="Text">
</g>
<g id="Layer_13">
</g>
</svg>
