<?xml version="1.0" encoding="utf-8"?>
<!-- Generator: Adobe Illustrator 23.0.3, SVG Export Plug-In . SVG Version: 6.00 Build 0)  -->
<svg version="1.0" xmlns="http://www.w3.org/2000/svg" xmlns:xlink="http://www.w3.org/1999/xlink" x="0px" y="0px"
	 viewBox="0 0 400 250" enable-background="new 0 0 400 250" xml:space="preserve">
<g id="Background">
</g>
<g id="Fog">
	<g opacity="0.69">
		
			<linearGradient id="SVGID_1_" gradientUnits="userSpaceOnUse" x1="331.1129" y1="3292.8076" x2="2657.1274" y2="3292.8076" gradientTransform="matrix(-1.6692 6.710710e-02 -5.716539e-02 -1.4219 1823.6328 5674.2612)">
			<stop  offset="0" style="stop-color:#EB18FF;stop-opacity:0.5"/>
			<stop  offset="9.930713e-02" style="stop-color:#DD20FD;stop-opacity:0.5497"/>
			<stop  offset="0.2884" style="stop-color:#B736F8;stop-opacity:0.6442"/>
			<stop  offset="0.5476" style="stop-color:#7A5AF0;stop-opacity:0.7738"/>
			<stop  offset="0.8637" style="stop-color:#268AE4;stop-opacity:0.9318"/>
			<stop  offset="1" style="stop-color:#00A0DF"/>
		</linearGradient>
		<path fill="url(#SVGID_1_)" d="M1047.8,798.4c-8.2,55.6-22.2,89.5-79.1,118c-96.6,48.4-203.9-16.2-313.9-29.7
			c-149.4-18.4-271.8,114.8-422.4,128.3c-126.2,11.3-247.5-63.7-372.6-45.2c-135.9,20.2-245.7,146.8-380,122.6
			c-59.7-10.8-114-51.5-173.9-40.4c-29,5.4-53,22.2-75.8,38.5c-110.9,79.4-256.7,163.6-387.2,113.5
			c-82.9-31.8-150.2-115.4-239.1-96.4c-34.6,7.4-61.9,29.7-87.4,51.1c-98.4,82.5-197.9,166.4-267.7,267.7
			c-14.8,21.4-30.2,45.2-57.2,54.5c-37.2,12.8-79.7-7.5-118.8,0.3c-40.9,8.2-65.9,45.3-71.6,80.7c-5.7,35.4,2.7,71.2,2.8,106.9
			c0.1,68.6-32.4,137.2-88.6,187c-57.7,51.2-144.3,91.3-153.5,161.5c-6.2,47.5,23.3,105.5-18.8,137.4
			c-32.3,24.4-82.9,11.8-120.1-6.1c-145.1-69.7-242.1-196.9-295-331.8c-52.9-134.9-66.5-278.7-79.7-420.9
			c-21.3-229.6-42.6-459.2-63.9-688.8c-9.8-105.6-17.8-218.6,44-311.4c47.1-70.6,129-119.7,213.9-156.7
			c246.8-107.7,532.5-131.2,807.5-117s545.2,63.9,818.1,94.8c380.6,43,773.4,50.6,1131.3,166.7c256.5,83.2,487.5,221.4,666,398.5
			c23.8,23.6,50.4,49.6,86.8,52.8c24.7,2.1,49-6.9,73.9-7.5s54.1,14,50.3,35"/>
	</g>
</g>
<g id="Sky">
	<g id="Layer_12">
	</g>
</g>
<g id="Mountains">
</g>
<g id="Trees">
</g>
<g id="Floor">
</g>
<g id="Dekoration">
</g>
<g id="Mask">
</g>
<g id="Character">
	<ellipse opacity="0.43" fill="#19002F" cx="98.1" cy="222.8" rx="56.2" ry="8.5"/>
	<g>
		<path fill="#76CBFF" d="M46.5,191.5c0,3.6-2.4,6.5-5.2,6.5c-2.8,0-5.1-3-5.1-6.6"/>
		<path fill="#003875" d="M52.7,168.3l-4.7-2.4c-1.6-0.8-3.5-0.3-4.4,1.2c-2.4,4-6.7,12.3-8.6,23.2c-0.3,2,1.2,2.3,3.3,2.3l6.2,0.1
			c1.7,0,3.1,0.3,3.3-1.4c0.4-3.6,1.8-10.1,6.2-18.4C55,171.2,54.4,169.2,52.7,168.3z"/>
	</g>
	<g>
		<path fill="#76CBFF" d="M164.8,170.1c3.2-1.7,6.9-1,8.2,1.6c1.3,2.5-0.3,5.9-3.5,7.6"/>
		<path fill="#003875" d="M141.4,175.4l0,5.3c0,1.8,1.4,3.2,3.1,3.3c4.7,0.3,14.1,0.2,24.5-3.2c1.9-0.6,1.4-2.1,0.5-4l-2.9-5.6
			c-0.8-1.5-1.2-2.9-2.8-2.3c-3.3,1.3-9.7,3.1-19.2,3.1C142.9,172,141.4,173.5,141.4,175.4z"/>
	</g>
	<g>
		<g>
			
				<ellipse transform="matrix(1.048771e-02 -0.9999 0.9999 1.048771e-02 -143.115 277.0392)" fill="#76CBFF" cx="68.4" cy="210.8" rx="8.4" ry="8.4"/>
		</g>
		<g>
			
				<ellipse transform="matrix(1.048804e-02 -0.9999 0.9999 1.048804e-02 -88.3376 333.5678)" fill="#76CBFF" cx="124.4" cy="211.4" rx="8.4" ry="8.4"/>
		</g>
		<g>
			
				<ellipse transform="matrix(1.048780e-02 -0.9999 0.9999 1.048780e-02 -109.9552 317.9795)" fill="#76CBFF" cx="105.7" cy="214.5" rx="8.4" ry="8.4"/>
		</g>
		<g>
			
				<ellipse transform="matrix(1.048801e-02 -0.9999 0.9999 1.048801e-02 -128.2144 299.1364)" fill="#76CBFF" cx="87" cy="214.4" rx="8.4" ry="8.4"/>
		</g>
	</g>
	<g>
		<g>
			<path fill="#0084BF" d="M145.2,191.1c-0.2,22.9-22,25.2-48.8,25s-48.5-3-48.3-26s22.5-74.6,49.3-74.3S145.4,168.2,145.2,191.1z"
				/>
		</g>
		<g>
			<path fill="#0084BF" d="M45.6,157.7c-4.1-1.9-7.6,3.4-4.3,6.4c14.5,13.5,34,21.9,55.4,22.1c21.4,0.2,41-7.7,55.8-20.9
				c3.3-3-0.1-8.3-4.2-6.5c-14,6.2-31.9,11.9-51.5,11.7C77.3,170.3,59.4,164.2,45.6,157.7z"/>
		</g>
		<path opacity="0.54" fill="#003875" d="M149.7,158.5c-2.6,4.6-26.5,35.1-86.8,53.5c0.1,0,0.2,0.1,0.3,0.1c0.1,0,0.2,0.1,0.3,0.1
			c0.2,0.1,0.5,0.2,0.7,0.2c0.1,0,0.2,0.1,0.3,0.1c0.7,0.2,1.3,0.4,2,0.6c0.1,0,0.2,0.1,0.3,0.1c0.3,0.1,0.5,0.1,0.8,0.2
			c0.1,0,0.2,0.1,0.4,0.1c0.2,0.1,0.5,0.1,0.7,0.2c0.1,0,0.2,0.1,0.4,0.1c0.3,0.1,0.6,0.1,0.8,0.2c0.1,0,0.2,0,0.3,0.1
			c0.4,0.1,0.7,0.2,1.1,0.2c0.1,0,0.1,0,0.2,0c0.3,0.1,0.6,0.1,1,0.2c0.1,0,0.2,0,0.4,0.1c0.3,0,0.5,0.1,0.8,0.1
			c0.1,0,0.3,0,0.4,0.1c0.3,0,0.5,0.1,0.8,0.1c0.1,0,0.2,0,0.4,0.1c0.3,0,0.7,0.1,1,0.1c0.1,0,0.1,0,0.2,0c0.4,0.1,0.8,0.1,1.2,0.1
			c0.1,0,0.2,0,0.3,0c0.3,0,0.6,0.1,0.9,0.1c0.1,0,0.3,0,0.4,0c0.3,0,0.6,0.1,0.8,0.1c0.1,0,0.3,0,0.4,0c0.3,0,0.6,0.1,0.9,0.1
			c0.1,0,0.2,0,0.4,0c0.4,0,0.9,0.1,1.3,0.1c0.1,0,0.1,0,0.2,0c0.4,0,0.8,0,1.1,0.1c0.1,0,0.3,0,0.4,0c0.3,0,0.6,0,0.9,0
			c0.2,0,0.3,0,0.5,0c0.3,0,0.6,0,0.9,0c0.2,0,0.3,0,0.5,0c0.3,0,0.7,0,1,0c0.1,0,0.2,0,0.3,0c0.4,0,0.9,0,1.4,0c0.1,0,0.3,0,0.4,0
			c0.3,0,0.7,0,1,0c0.2,0,0.3,0,0.5,0c0.3,0,0.6,0,0.9,0c0.2,0,0.4,0,0.5,0c0.3,0,0.6,0,0.9,0c0.2,0,0.3,0,0.5,0c0.4,0,0.8,0,1.3,0
			c0,0,0.1,0,0.1,0c15.9,0.2,30.1-0.6,39-6c0.7-0.4,1.4-0.9,2-1.4c1.1-0.8,2-1.7,2.9-2.7c0.7-0.8,1.3-1.7,1.9-2.6
			c0.3-0.5,0.5-0.9,0.8-1.4c0.1-0.2,0.2-0.5,0.3-0.8c0.2-0.5,0.4-1,0.6-1.6c0.8-2.5,1.3-5.3,1.3-8.5c0.1-5-0.9-11.3-2.7-18.2
			c3.5-2.3,6.9-4.9,10-7.7C155.5,162.7,153.1,158.2,149.7,158.5"/>
	</g>
	<g>
		<g>
			<path fill="none" stroke="#0084BF" stroke-width="3.6111" stroke-linecap="round" stroke-miterlimit="10" d="M92.3,62.9
				c0,0-13.2-16.7-13-31.9"/>
			<circle fill="#76CBFF" cx="78.5" cy="28.7" r="6.9"/>
		</g>
		<g>
			<path fill="none" stroke="#0084BF" stroke-width="3.6111" stroke-linecap="round" stroke-miterlimit="10" d="M103.6,70
				c0,0,13.5-16.4,13.7-31.7"/>
			<circle fill="#76CBFF" cx="118" cy="36.1" r="6.9"/>
		</g>
	</g>
	<g>
		<g>
			<path fill="#0084BF" d="M27.5,46.5c0.4-39,31.4,23.7,70.3,24.1c39,0.4,71.2-61.6,70.8-22.6c-0.4,39-32.2,60-71.2,59.6
				S27.1,85.5,27.5,46.5z"/>
			<path opacity="0.54" fill="#003875" d="M168.7,48c0.1-8.7-1.4-12.3-4.3-12.8c0,0-0.5,34.1-23.2,48.4l2.7,11.6
				C158.9,85.2,168.5,69.3,168.7,48z"/>
			<path opacity="0.54" fill="#003875" d="M27.5,46.5c0.1-8.7,1.7-12.3,4.6-12.7c0,0-0.2,34.1,22.2,48.9l-2.9,11.6
				C36.6,83.9,27.3,67.8,27.5,46.5z"/>
		</g>
		<g>
			<g>
				<path fill="none" stroke="#76CBFF" stroke-width="2.4074" stroke-linecap="round" stroke-miterlimit="10" d="M41.8,45.4
					c0,0,8.5,9.1,15.8,14"/>
				<path fill="none" stroke="#76CBFF" stroke-width="2.4074" stroke-linecap="round" stroke-miterlimit="10" d="M62.1,62.6
					C62.1,62.6,59.6,60.9,62.1,62.6"/>
			</g>
			<g>
				<path fill="none" stroke="#76CBFF" stroke-width="2.4074" stroke-linecap="round" stroke-miterlimit="10" d="M154.4,46.6
					c0,0-8.7,8.9-16.1,13.7"/>
				<path fill="none" stroke="#76CBFF" stroke-width="2.4074" stroke-linecap="round" stroke-miterlimit="10" d="M133.8,63.4
					C133.8,63.4,136.3,61.7,133.8,63.4"/>
			</g>
		</g>
	</g>
	<g>
		<g>
			<path fill="#76CBFF" d="M160.5,123.7c-0.4,34.9-28.9,54.4-63.8,54s-63-20.4-62.7-55.4c0.4-34.9,29-62.9,63.9-62.6
				S160.9,88.8,160.5,123.7z"/>
			<g>
				<path fill="#0084BF" d="M36.6,140.7c6.5-0.5,11.6-5.9,11.7-12.6c0.1-7-5.6-12.8-12.6-12.9c-0.4,0-0.7,0-1.1,0
					c-0.3,2.3-0.5,4.7-0.5,7.1C34,128.7,34.9,134.9,36.6,140.7z"/>
				<path fill="#0084BF" d="M153.6,94.2c-3.3,0.9-5.8,3.9-5.8,7.5c0,4.3,3.4,7.9,7.8,7.9c1.2,0,2.4-0.3,3.5-0.8
					C157.8,103.7,155.9,98.8,153.6,94.2z"/>
				<circle fill="#0084BF" cx="54.3" cy="142.9" r="5.7"/>
				<circle fill="#0084BF" cx="140.2" cy="96.3" r="3.5"/>
				<circle fill="#0084BF" cx="131.2" cy="144.4" r="6.6"/>
				<circle fill="#0084BF" cx="138.2" cy="132.1" r="3.2"/>
				<circle fill="#0084BF" cx="54.9" cy="128" r="2.5"/>
			</g>
		</g>
		<g>
			<path fill="none" stroke="#FFFFFF" stroke-width="3.3102" stroke-linecap="round" stroke-miterlimit="10" d="M55.8,91.9
				c0,0,5.6-17.4,30.3-22.2"/>
			<path fill="none" stroke="#FFFFFF" stroke-width="3.3102" stroke-linecap="round" stroke-miterlimit="10" d="M91.7,68.7
				C92.5,68.5,90.7,68.8,91.7,68.7"/>
		</g>
	</g>
	<g>
		<path fill="#0084BF" d="M113.2,146.8c-0.1,8.9-7.4,16-16.3,15.9s-16-7.4-15.9-16.3"/>
		<path fill="#FFFFFF" d="M89.8,146.6l0,3.7c0,1.2,1,2.2,2.2,2.2l1.4,0c1.2,0,2.2-1,2.2-2.2l0-3.7L89.8,146.6z"/>
		<path fill="#FFFFFF" d="M98.6,146.7l0,3.7c0,1.2,1,2.2,2.2,2.2l1.4,0c1.2,0,2.2-1,2.2-2.2l0-3.7L98.6,146.7z"/>
	</g>
	<g>
		<g>
			<circle fill="#00A0DF" cx="97.5" cy="107.7" r="30"/>
		</g>
		<g>
			<circle fill="#FFFFFF" cx="97.5" cy="107.7" r="20.8"/>
			<g>
				<circle fill="#00A0DF" cx="97.5" cy="107.7" r="11.1"/>
				<circle fill="#1E0080" cx="97.5" cy="107.7" r="8.2"/>
			</g>
		</g>
		<g>
			<circle opacity="0.38" fill="#D0E7FF" cx="97.5" cy="107.7" r="30"/>
			<path opacity="0.45" fill="#FFFFFF" d="M76,128.7c-11.6-11.8-11.4-30.8,0.4-42.4s30.8-11.4,42.4,0.4"/>
			<circle fill="none" stroke="#00A0DF" stroke-width="3.6197" stroke-miterlimit="10" cx="97.5" cy="107.7" r="30"/>
		</g>
	</g>
	<circle fill="#FFFFFF" cx="91.3" cy="100.4" r="5.8"/>
	<g>
		<path fill="#6B3CFF" d="M223.8,174.9c-4.2-0.2-7.7,2.3-7.9,5.6c-0.2,3.3,3.1,6.1,7.3,6.3"/>
		<path fill="#1E0080" d="M251,169.3l2.5,5.6c0.8,1.9,0.1,4.1-1.7,5c-4.8,2.5-14.7,6.9-27.4,8.3c-2.4,0.3-2.5-1.6-2.4-3.9l0.4-7.2
			c0.1-2-0.2-3.7,1.8-3.8c4.1-0.2,11.8-1.3,21.7-5.9C247.8,166.5,250.2,167.3,251,169.3z"/>
	</g>
	<g>
		<g>
			<path fill="#6B3CFF" d="M365.2,191.5c-0.2,4.2,2.3,7.7,5.6,7.9s6.1-3.1,6.3-7.3"/>
			<path fill="#1E0080" d="M359.6,164.3l5.6-2.5c1.9-0.8,4.1-0.1,5,1.7c2.5,4.8,6.9,14.7,8.3,27.4c0.3,2.4-1.6,2.5-3.9,2.4l-7.2-0.4
				c-2-0.1-3.7,0.2-3.8-1.8c-0.2-4.1-1.3-11.8-5.9-21.7C356.8,167.5,357.6,165.2,359.6,164.3z"/>
		</g>
		<ellipse opacity="0.43" fill="#19002F" cx="303.1" cy="224.1" rx="58.4" ry="8.2"/>
		<rect x="286.7" y="210.3" fill="#76CBFF" width="10.7" height="6.9"/>
		
			<rect x="307.1" y="210.3" transform="matrix(-1 -4.472301e-11 4.472301e-11 -1 624.8273 427.5313)" fill="#76CBFF" width="10.7" height="6.9"/>
		<g>
			<path fill="#6B3CFF" d="M292,223.1c2.9,0,5.3-2.4,5.3-5.3v-20.2h-10.6v20.2C286.7,220.7,289.1,223.1,292,223.1z"/>
			<path fill="#1E0080" d="M286.7,216.3c3.2,0.4,6.8,0.6,10.6,0.8v-9h-10.6V216.3z"/>
			<path fill="#6B3CFF" d="M312.4,223.1c-2.9,0-5.3-2.4-5.3-5.3v-20.2h10.6v20.2C317.7,220.7,315.3,223.1,312.4,223.1z"/>
			<path fill="#1E0080" d="M317.7,216.3c-3.2,0.4-6.8,0.6-10.6,0.8v-9h10.6V216.3z"/>
		</g>
		<path fill="#A4AAFF" d="M369.6,150.2c0,43.2-29.6,63.8-66.2,63.8s-66.2-20.5-66.2-63.8S266.9,72,303.5,72S369.6,107,369.6,150.2z"
			/>
		<path fill="#6B3CFF" d="M303.5,187.1c-26.4,0-49.8-17.1-64.5-19.9c6.8,31.6,33.1,46.8,64.5,46.8c31.4,0,57.6-15.1,64.5-46.8
			C353.3,170,329.9,187.1,303.5,187.1z"/>
		<g>
			<circle fill="#6B3CFF" cx="303.4" cy="133.1" r="27.2"/>
		</g>
		<g>
			<circle fill="#FFFFFF" cx="303.4" cy="133.1" r="18.8"/>
			<g>
				<circle fill="#6B3CFF" cx="303.4" cy="133.1" r="10"/>
				<circle fill="#1E0080" cx="303.4" cy="133.1" r="7.4"/>
			</g>
		</g>
		<g>
			<circle opacity="0.38" fill="#D0E7FF" cx="302.9" cy="133.1" r="27.2"/>
			<path opacity="0.45" fill="#FFFFFF" d="M283.5,152.1c-10.5-10.7-10.3-28,0.4-38.5c10.7-10.5,28-10.3,38.5,0.4"/>
			<circle fill="none" stroke="#FFFFFF" stroke-width="3.28" stroke-miterlimit="10" cx="302.9" cy="133.1" r="27.2"/>
		</g>
		<path fill="#4720BA" d="M312.6,171.8c0,5.2-4.3,9.5-9.5,9.5c-5.2,0-9.5-4.3-9.5-9.5"/>
		<path fill="#FFFFFF" d="M299.7,172c0,1.9,1.5,3.4,3.4,3.4c1.9,0,3.4-1.5,3.4-3.4c0-0.1,0-0.2,0-0.3h-6.8
			C299.7,171.9,299.7,171.9,299.7,172z"/>
		<path opacity="0.54" fill="#1E0080" d="M291,213.1c4.1,0.6,8.2,0.9,12.5,0.9c36.5,0,66.2-20.5,66.2-63.8c0-8.6-1.2-17-3.4-24.7
			C366,127,356.3,183.5,291,213.1z"/>
		<g>
			<path fill="none" stroke="#FFFFFF" stroke-width="3.5149" stroke-linecap="round" stroke-miterlimit="10" d="M260.6,110.4
				c0,0,6.5-19.3,31.8-24.6"/>
			
				<line fill="none" stroke="#FFFFFF" stroke-width="3.5149" stroke-linecap="round" stroke-miterlimit="10" x1="298.9" y1="85.1" x2="299.6" y2="85.1"/>
		</g>
		<g>
			<g>
				<circle fill="#6B3CFF" cx="261.6" cy="155.9" r="1.2"/>
				<circle fill="#6B3CFF" cx="265.1" cy="159.5" r="1.2"/>
				<circle fill="#6B3CFF" cx="257.2" cy="154.8" r="1.2"/>
				<circle fill="#6B3CFF" cx="258.5" cy="160" r="1.2"/>
				<circle fill="#6B3CFF" cx="261.8" cy="162.9" r="1.2"/>
				<circle fill="#6B3CFF" cx="266.5" cy="163.8" r="1.2"/>
				<circle fill="#6B3CFF" cx="266.3" cy="155.1" r="1.2"/>
			</g>
			<g>
				<circle fill="#6B3CFF" cx="343.6" cy="155.9" r="1.2"/>
				<circle fill="#6B3CFF" cx="340.1" cy="159.5" r="1.2"/>
				<circle fill="#6B3CFF" cx="348" cy="154.8" r="1.2"/>
				<circle fill="#6B3CFF" cx="346.8" cy="160" r="1.2"/>
				<circle fill="#6B3CFF" cx="343.4" cy="162.9" r="1.2"/>
				<circle fill="#6B3CFF" cx="338.7" cy="163.8" r="1.2"/>
				<circle fill="#6B3CFF" cx="338.9" cy="155.1" r="1.2"/>
			</g>
		</g>
		<circle fill="#FFFFFF" cx="296.5" cy="132.2" r="4.9"/>
		<g>
			<circle fill="#6B3CFF" cx="338.4" cy="100.1" r="4.9"/>
			<circle fill="#6B3CFF" cx="336.4" cy="111.5" r="3.6"/>
			<circle fill="#6B3CFF" cx="345.2" cy="109.2" r="2.2"/>
		</g>
		<g>
			<circle fill="#6B3CFF" cx="260.5" cy="142.9" r="4.9"/>
			<circle fill="#6B3CFF" cx="258.5" cy="131.5" r="3.6"/>
			<circle fill="#6B3CFF" cx="251.1" cy="136.7" r="2.2"/>
		</g>
		<ellipse opacity="0.75" fill="#1E0080" cx="303.5" cy="77" rx="4.5" ry="2.4"/>
		<path fill="#6B3CFF" d="M300.8,54.8v21.1h0c0.2,1.3,1.3,2.3,2.6,2.3s2.4-1,2.6-2.3h0V54.8H300.8z"/>
		<g>
			<g>
				<circle fill="#1E0080" cx="303.4" cy="50.6" r="8.7"/>
				<path opacity="0.54" fill="#0E003B" d="M299,58c1.3,0.8,2.8,1.2,4.4,1.2c4.8,0,8.7-3.9,8.7-8.7c0-2.2-0.8-4.2-2.2-5.7
					C309,47.7,306.1,54.5,299,58z"/>
			</g>
			<path fill="none" stroke="#FFFFFF" stroke-width="0.7015" stroke-linecap="round" stroke-miterlimit="10" d="M297,48.4
				c0,0,1-4.3,5.9-4.9"/>
			
				<line fill="none" stroke="#FFFFFF" stroke-width="0.7015" stroke-linecap="round" stroke-miterlimit="10" x1="304.1" y1="43.6" x2="304.4" y2="43.6"/>
		</g>
	</g>
	<line fill="#A4AAFF" x1="177.3" y1="170.3" x2="180.3" y2="170.4"/>
	<g>
		<path fill="#EB18FF" d="M219.1,194.1l0.1-90.5c0,0.9-0.7,1.7-1.7,1.7c-0.9,0-1.7-0.7-1.7-1.7l-3.1,0c0,0.9-0.7,1.7-1.7,1.7
			c-0.9,0-1.7-0.7-1.7-1.7l-3.1,0c0,0.9-0.7,1.7-1.7,1.7c-0.9,0-1.7-0.7-1.7-1.7l-3.1,0c0,0.9-0.7,1.7-1.7,1.7
			c-0.9,0-1.7-0.7-1.7-1.7l-3.1,0c0,0.9-0.7,1.7-1.7,1.7c-0.9,0-1.7-0.7-1.7-1.7l-3.1,0c0,0.9-0.7,1.7-1.7,1.7
			c-0.9,0-1.7-0.7-1.7-1.7l-3.1,0c0,0.9-0.7,1.7-1.7,1.7c-0.9,0-1.7-0.7-1.7-1.7l-3.1,0c0,0.9-0.7,1.7-1.7,1.7
			c-0.9,0-1.7-0.7-1.7-1.7l-0.1,90.5"/>
		<line fill="#A4AAFF" x1="180.7" y1="194.1" x2="183.8" y2="194.1"/>
		<path fill="#5D0081" fill-opacity="0.28" d="M207.3,171.4c0-5-4.1-9.1-9.1-9.1l0,0l0,0c5,0,9.1-4,9.1-9.1c0-5-4.1-9.1-9.1-9.1
			c-7.3-0.5-21.2,18.1-21.2,18.1l0,0l0,0c0,0,13.9,18.6,21.2,18.1C203.2,180.5,207.3,176.4,207.3,171.4z"/>
		<path fill="#9700B8" d="M209.3,170.3c0-5-4.1-9.1-9.1-9.1l0,0l0,0c5,0,9.1-4,9.1-9.1c0-5-4.1-9.1-9.1-9.1
			c-7.3-0.5-21.2,18.1-21.2,18.1l0,0l0,0c0,0,13.9,18.6,21.2,18.1C205.2,179.4,209.3,175.3,209.3,170.3z"/>
		<path fill="none" stroke="#FFFFFF" stroke-linecap="round" stroke-miterlimit="10" d="M200.6,145.5c0.2,0.1,4.5,0.6,6,4.8"/>
		<line fill="none" stroke="#FFFFFF" stroke-linecap="round" stroke-miterlimit="10" x1="207.2" y1="152.1" x2="207.2" y2="152.6"/>
		<g>
			<circle fill="#9700B8" cx="175.4" cy="122.2" r="1.3"/>
			<circle fill="#9700B8" cx="181.1" cy="122.3" r="1.3"/>
			<circle fill="#9700B8" cx="186.9" cy="122.3" r="1.3"/>
			<circle fill="#9700B8" cx="192.1" cy="122.3" r="1.3"/>
			<circle fill="#9700B8" cx="197.8" cy="122.4" r="1.3"/>
			<circle fill="#9700B8" cx="203.6" cy="122.4" r="1.3"/>
			<circle fill="#9700B8" cx="209.3" cy="122.4" r="1.3"/>
			<circle fill="#9700B8" cx="214.5" cy="122.5" r="1.3"/>
		</g>
		
			<line fill="none" stroke="#FFFFFF" stroke-width="2" stroke-linecap="round" stroke-miterlimit="10" x1="211.9" y1="113.6" x2="213.2" y2="113.7"/>
		
			<line fill="none" stroke="#FFFFFF" stroke-width="2" stroke-linecap="round" stroke-miterlimit="10" x1="208.8" y1="113.8" x2="195.7" y2="114"/>
		<g>
			<circle fill="#9700B8" fill-opacity="0.28" cx="215.9" cy="167.8" r="1.8"/>
			<circle fill="#9700B8" fill-opacity="0.28" cx="213.2" cy="171.3" r="1.3"/>
			<circle fill="#9700B8" fill-opacity="0.28" cx="211.5" cy="167.2" r="0.6"/>
		</g>
	</g>
</g>
<g id="Fog_Overlay">
</g>
<g id="Text">
</g>
<g id="Layer_13">
</g>
</svg>
