<?xml version="1.0" encoding="utf-8"?>
<!-- Generator: Adobe Illustrator 22.1.0, SVG Export Plug-In . SVG Version: 6.00 Build 0)  -->
<svg version="1.0" xmlns="http://www.w3.org/2000/svg" xmlns:xlink="http://www.w3.org/1999/xlink" x="0px" y="0px"
	 viewBox="0 0 360 295" enable-background="new 0 0 360 295" xml:space="preserve">
<g id="Background">
	<rect x="-19.9" y="-2.5" opacity="0.35" fill="#A4AAFF" width="399.9" height="296.9"/>
</g>
<g id="Fog">
</g>
<g id="Sky">
	<g id="Layer_12">
	</g>
</g>
<g id="Mountains">
</g>
<g id="Trees">
</g>
<g id="Floor">
	<linearGradient id="SVGID_1_" gradientUnits="userSpaceOnUse" x1="178.752" y1="128.2089" x2="178.752" y2="275.013">
		<stop  offset="0" style="stop-color:#A4AAFF"/>
		<stop  offset="0.998" style="stop-color:#A4AAFF;stop-opacity:0.1"/>
	</linearGradient>
	<rect x="-4.9" y="125.7" fill="url(#SVGID_1_)" width="367.3" height="158.8"/>
</g>
<g id="Dekoration">
	<g>
		<ellipse opacity="0.19" fill="#4A00D0" cx="268.5" cy="150.5" rx="11.9" ry="2.8"/>
		<g>
			<g>
				<g>
					<linearGradient id="SVGID_2_" gradientUnits="userSpaceOnUse" x1="267.2976" y1="78.9717" x2="268.7844" y2="130.8231">
						<stop  offset="0" style="stop-color:#6B3CFF"/>
						<stop  offset="1" style="stop-color:#6B3CFF;stop-opacity:0.2"/>
					</linearGradient>
					<path fill="url(#SVGID_2_)" d="M282.5,115.8c-0.9-0.8-1.9-1.5-2.7-2.5c-1.9-2.1-2.5-5.3-1.5-8c0.5-1.4,1.4-2.6,1.7-4.1
						c0.6-3-1.5-5.7-3.3-8.2c-0.6-0.8-1.2-1.7-1.6-2.6c-0.7-1.4-0.8-2.9-0.4-4.4c0.4-1.3,0.3-2.7-0.2-3.9c-0.8-1.8-2.6-3-4.5-3.1
						h-2.6c-1.9,0.1-3.7,1.4-4.5,3.1c-0.6,1.2-0.6,2.6-0.2,3.9c0.5,1.5,0.3,3-0.4,4.4c-0.5,0.9-1,1.8-1.6,2.6
						c-1.8,2.4-3.9,5.2-3.3,8.2c0.3,1.5,1.2,2.7,1.7,4.1c1,2.7,0.4,5.9-1.5,8c-0.8,0.9-1.8,1.6-2.7,2.5c-2.9,2.7-4.3,7.3-2.3,10.6
						c1.7,2.7,4.8,4.2,8.1,4.2h8h0.2h8c3.3,0,6.4-1.6,8.1-4.2C286.9,123,285.4,118.4,282.5,115.8z"/>
				</g>
				<linearGradient id="SVGID_3_" gradientUnits="userSpaceOnUse" x1="268.0681" y1="116.9327" x2="269.0424" y2="150.9142">
					<stop  offset="0" style="stop-color:#4A00D0"/>
					<stop  offset="1" style="stop-color:#6B3CFF;stop-opacity:0.2"/>
				</linearGradient>
				
					<line fill="#5451B7" stroke="url(#SVGID_3_)" stroke-width="2.4075" stroke-linecap="round" stroke-miterlimit="10" x1="268.6" y1="118.1" x2="268.6" y2="149.7"/>
				<path fill="none" stroke="#FFFFFF" stroke-width="0.6486" stroke-linecap="round" stroke-miterlimit="10" d="M264.3,86
					c0,0-2.2-4.8,2.9-5.9"/>
				
					<line fill="none" stroke="#FFFFFF" stroke-width="0.6486" stroke-linecap="round" stroke-miterlimit="10" x1="268.2" y1="80.1" x2="268.7" y2="80.1"/>
			</g>
		</g>
	</g>
	<g>
		<ellipse opacity="0.19" fill="#4A00D0" cx="233.3" cy="135.2" rx="8.4" ry="2"/>
		<g>
			<g>
				<g>
					<linearGradient id="SVGID_4_" gradientUnits="userSpaceOnUse" x1="232.5013" y1="84.5773" x2="233.5526" y2="121.2402">
						<stop  offset="0" style="stop-color:#6B3CFF"/>
						<stop  offset="1" style="stop-color:#6B3CFF;stop-opacity:0.2"/>
					</linearGradient>
					<path fill="url(#SVGID_4_)" d="M243.3,110.6c-0.6-0.6-1.4-1.1-1.9-1.7c-1.4-1.5-1.8-3.8-1.1-5.7c0.4-1,1-1.9,1.2-2.9
						c0.4-2.1-1.1-4-2.3-5.8c-0.4-0.6-0.8-1.2-1.2-1.8c-0.5-1-0.6-2.1-0.3-3.1c0.3-0.9,0.2-1.9-0.2-2.8c-0.6-1.2-1.9-2.1-3.2-2.2
						h-1.9c-1.4,0.1-2.6,1-3.2,2.2c-0.4,0.9-0.4,1.9-0.2,2.8c0.3,1,0.2,2.2-0.3,3.1c-0.3,0.6-0.7,1.3-1.2,1.8
						c-1.3,1.7-2.7,3.7-2.3,5.8c0.2,1,0.8,1.9,1.2,2.9c0.7,1.9,0.3,4.2-1.1,5.7c-0.6,0.6-1.3,1.1-1.9,1.7c-2,1.9-3.1,5.2-1.6,7.5
						c1.2,1.9,3.4,3,5.7,3h5.7h0.2h5.7c2.3,0,4.5-1.1,5.7-3C246.3,115.7,245.3,112.5,243.3,110.6z"/>
				</g>
				<linearGradient id="SVGID_5_" gradientUnits="userSpaceOnUse" x1="233.0461" y1="111.4187" x2="233.735" y2="135.4462">
					<stop  offset="0" style="stop-color:#4A00D0"/>
					<stop  offset="1" style="stop-color:#6B3CFF;stop-opacity:0.2"/>
				</linearGradient>
				
					<line fill="#5451B7" stroke="url(#SVGID_5_)" stroke-width="1.7023" stroke-linecap="round" stroke-miterlimit="10" x1="233.4" y1="112.3" x2="233.4" y2="134.6"/>
				<path fill="none" stroke="#FFFFFF" stroke-width="0.4586" stroke-linecap="round" stroke-miterlimit="10" d="M230.4,89.6
					c0,0-1.5-3.4,2.1-4.2"/>
				
					<line fill="none" stroke="#FFFFFF" stroke-width="0.4586" stroke-linecap="round" stroke-miterlimit="10" x1="233.1" y1="85.4" x2="233.5" y2="85.4"/>
			</g>
		</g>
	</g>
</g>
<g id="Mask">
	<path fill="#FFFFFF" d="M392.4,319.9V-11.4h-426v331.3H392.4z M89.8,69C187.2,43.9,267.3,39,328,114.3
		c21.4,26.6,41.3,83.1,24.4,122.6c-25.6,59.8-73.5,34.9-123.5,36.6c-21.1,0.7-37.5,15-57.7,17.8c-34.7,4.8-40.5-3.9-73.7-10.6
		c-53-10.8-80-23.2-91-84.6C-9.2,108.3,2.9,91.4,89.8,69z"/>
</g>
<g id="Character">
	<ellipse opacity="0.19" fill="#4A00D0" cx="115.8" cy="223.9" rx="61" ry="10.3"/>
	<g>
		<g>
			<g>
				<g>
					<path fill="#6B3CFF" d="M122.4,221.2c2.3,0,4.1-2.1,4.1-4.6v-60.9h-8.2v60.9C118.3,219.2,120.2,221.2,122.4,221.2z"/>
				</g>
				<rect x="118.3" y="155.8" opacity="0.54" fill="#1E0080" width="8.2" height="52.1"/>
			</g>
			<path fill="#6B3CFF" d="M132,222h-10.1c-2,0-3.6-1.6-3.6-3.6v-1.8c0-2,1.6-3.6,3.6-3.6H132c2,0,3.6,1.6,3.6,3.6v1.8
				C135.6,220.4,134,222,132,222z"/>
		</g>
		<rect x="118.3" y="155.8" opacity="0.54" fill="#1E0080" width="8.2" height="52.1"/>
	</g>
	<g>
		<g>
			<path fill="#6B3CFF" d="M109.1,221.2c-2.3,0-4.1-2.1-4.1-4.6v-60.9h8.2v60.9C113.3,219.2,111.4,221.2,109.1,221.2z"/>
		</g>
		
			<rect x="105" y="155.8" transform="matrix(-1 -5.073509e-11 5.073509e-11 -1 218.2815 363.667)" fill="#4A00D0" width="8.2" height="52.1"/>
		
			<rect x="105" y="155.8" transform="matrix(-1 -5.073509e-11 5.073509e-11 -1 218.2815 363.667)" opacity="0.54" fill="#1E0080" width="8.2" height="52.1"/>
		<path fill="#6B3CFF" d="M99.6,222h10.1c2,0,3.6-1.6,3.6-3.6v-1.8c0-2-1.6-3.6-3.6-3.6H99.6c-2,0-3.6,1.6-3.6,3.6v1.8
			C96,220.4,97.6,222,99.6,222z"/>
	</g>
	<g>
		<g>
			<g>
				<path fill="#6B3CFF" d="M26,93.2c0-47.5,40.2-91.7,89.8-91.7s89.8,44.2,89.8,91.7s-40.2,108.1-89.8,108.1S26,140.7,26,93.2z"/>
			</g>
			<g>
				<path fill="none" stroke="#FFFFFF" stroke-width="4.7049" stroke-linecap="round" stroke-miterlimit="10" d="M75.5,27.5
					c8.9-5.7,19.8-10,33.3-11"/>
				<g>
					<g>
						<path fill="#FFFFFF" d="M118.2,18.3c3.2,0,3.2-5,0-5C115,13.4,115,18.3,118.2,18.3L118.2,18.3z"/>
					</g>
				</g>
			</g>
		</g>
		<path opacity="0.54" fill="#1E0080" d="M78.6,189.7L78.6,189.7c11.3,7.3,23.9,11.6,37.2,11.6c49.6,0,89.8-60.6,89.8-108.1
			C205.6,93.2,178,193.6,78.6,189.7z"/>
	</g>
	<g>
		<g>
			<g>
				<circle fill="#4A00D0" cx="51" cy="115.9" r="4.5"/>
				<circle fill="#4A00D0" cx="42.2" cy="121.9" r="1.8"/>
			</g>
			<circle fill="#4A00D0" cx="49.6" cy="126.8" r="3.4"/>
		</g>
		<g>
			<g>
				<circle fill="#4A00D0" cx="186.8" cy="71.4" r="4.5"/>
				<circle fill="#4A00D0" cx="178" cy="77.4" r="1.8"/>
			</g>
			<circle fill="#4A00D0" cx="185.4" cy="82.3" r="3.4"/>
		</g>
	</g>
	<path opacity="0.54" fill="#1E0080" d="M62.4,94.3c0-30.6,23.9-55.4,53.3-55.4S169,63.7,169,94.3s-23.9,69.6-53.3,69.6
		S62.4,124.9,62.4,94.3z"/>
	<path fill="#A4AAFF" d="M62.4,88c0-30.6,23.9-55.4,53.3-55.4S169,57.4,169,88s-23.9,69.6-53.3,69.6S62.4,118.6,62.4,88z"/>
	<ellipse fill="#6B3CFF" cx="114.7" cy="87.3" rx="37.7" ry="27.3"/>
	<g>
		<g>
			<circle fill="#6B3CFF" cx="147" cy="116.3" r="1.4"/>
			<circle fill="#6B3CFF" cx="150.6" cy="113.2" r="1.4"/>
			<circle fill="#6B3CFF" cx="152" cy="118.2" r="1.4"/>
			<circle fill="#6B3CFF" cx="147.8" cy="121.2" r="1.4"/>
			<circle fill="#6B3CFF" cx="152.6" cy="123.5" r="1.4"/>
			<circle fill="#6B3CFF" cx="155.6" cy="114.9" r="1.4"/>
			<circle fill="#6B3CFF" cx="157" cy="119.9" r="1.4"/>
			<circle fill="#6B3CFF" cx="143.1" cy="120.2" r="1.4"/>
			<circle fill="#6B3CFF" cx="145.9" cy="125.5" r="1.4"/>
		</g>
		<g>
			<circle fill="#6B3CFF" cx="84.4" cy="116.3" r="1.4"/>
			<circle fill="#6B3CFF" cx="80.8" cy="113.2" r="1.4"/>
			<circle fill="#6B3CFF" cx="79.4" cy="118.2" r="1.4"/>
			<circle fill="#6B3CFF" cx="83.6" cy="121.2" r="1.4"/>
			<circle fill="#6B3CFF" cx="78.8" cy="123.5" r="1.4"/>
			<circle fill="#6B3CFF" cx="75.8" cy="114.9" r="1.4"/>
			<circle fill="#6B3CFF" cx="74.4" cy="119.9" r="1.4"/>
			<circle fill="#6B3CFF" cx="88.2" cy="120.2" r="1.4"/>
			<circle fill="#6B3CFF" cx="85.5" cy="125.5" r="1.4"/>
		</g>
	</g>
	<g>
		<g>
			<path fill="#4A00D0" d="M115.9,130.9L115.9,130.9c5.4,0,9.8-1.8,9.8,2.3v0c0,4.1-4.4,7.5-9.8,7.5h0c-5.4,0-9.8-3.4-9.8-7.5v0
				C106.1,129.1,110.5,130.9,115.9,130.9z"/>
		</g>
		<path fill="#FFFFFF" d="M115.8,129c-2.6,0-4.9,0.6-6.9,1.5c0.2,2.7,3.2,2.7,6.9,2.7c3.7,0,6.8,0.1,6.9-2.7
			C120.7,129.5,118.4,129,115.8,129L115.8,129z"/>
	</g>
	<path opacity="0.36" fill="#D0E7FF" d="M115.8,113.9c0,0-0.1-0.1-0.1-0.1C115.7,113.8,115.7,113.9,115.8,113.9z"/>
	<path opacity="0.36" fill="#D0E7FF" d="M115.9,115.1c-0.1-0.1-0.3-0.3-0.4-0.5C115.6,114.8,115.8,115,115.9,115.1z"/>
	<path opacity="0.36" fill="#D0E7FF" d="M115.7,112.9C115.7,112.9,115.7,112.8,115.7,112.9C115.7,112.8,115.7,112.9,115.7,112.9z"/>
	<path opacity="0.36" fill="#D0E7FF" d="M115.8,114.5c-0.1-0.1-0.1-0.2-0.2-0.2C115.6,114.3,115.7,114.4,115.8,114.5z"/>
	<path opacity="0.36" fill="#D0E7FF" d="M115.7,112.4C115.7,112.4,115.7,112.4,115.7,112.4C115.7,112.4,115.7,112.4,115.7,112.4z"/>
	<path opacity="0.36" fill="#D0E7FF" d="M115.7,113.4C115.7,113.4,115.7,113.3,115.7,113.4C115.7,113.3,115.7,113.4,115.7,113.4z"/>
	<path opacity="0.36" fill="#FFFFFF" d="M115.9,113.3c-0.1-0.1-0.2-0.3-0.3-0.4C115.6,113,115.7,113.2,115.9,113.3z"/>
	<path opacity="0.36" fill="#FFFFFF" d="M115.9,112.8c-0.1-0.2-0.2-0.3-0.4-0.5C115.6,112.5,115.7,112.7,115.9,112.8z"/>
	<path opacity="0.36" fill="#FFFFFF" d="M115.8,114.7c-0.1-0.1-0.1-0.1-0.2-0.2C115.7,114.5,115.7,114.6,115.8,114.7z"/>
	<path opacity="0.36" fill="#FFFFFF" d="M115.8,114.2c-0.1-0.1-0.2-0.2-0.3-0.3C115.6,114,115.7,114.1,115.8,114.2z"/>
	<path opacity="0.36" fill="#FFFFFF" d="M115.8,113.8c-0.1-0.1-0.2-0.2-0.3-0.4C115.6,113.5,115.7,113.6,115.8,113.8z"/>
	<g>
		<g>
			<circle fill="#FFFFFF" cx="115.7" cy="87.3" r="18.8"/>
			<g>
				<circle fill="#6B3CFF" cx="115.7" cy="87.3" r="10"/>
				<circle fill="#1E0080" cx="115.7" cy="87.3" r="7.4"/>
			</g>
		</g>
	</g>
	<ellipse opacity="0.32" fill="#C2D8FF" cx="114.7" cy="88.5" rx="37.7" ry="27.3"/>
	<path opacity="0.45" fill="#FFFFFF" d="M89.7,107.5c-7.8-5-12.7-12.3-12.7-20.4c0-15.1,16.9-27.3,37.7-27.3
		c7.8,0,15.1,1.7,21.1,4.7"/>
	<ellipse fill="none" stroke="#FFFFFF" stroke-width="3.668" stroke-miterlimit="10" cx="114.7" cy="87.1" rx="37.7" ry="27.3"/>
	<g>
		<circle fill="#6B3CFF" cx="90.5" cy="50.7" r="1.4"/>
		<circle fill="#6B3CFF" cx="94.7" cy="53.2" r="1.4"/>
		<circle fill="#6B3CFF" cx="89.6" cy="56" r="1.4"/>
		<circle fill="#6B3CFF" cx="100.6" cy="52.4" r="1.4"/>
		<circle fill="#6B3CFF" cx="95.7" cy="48.8" r="1.4"/>
	</g>
	<circle fill="#6B3CFF" cx="139.2" cy="48.8" r="3.4"/>
	<circle fill="#6B3CFF" cx="144.5" cy="54.6" r="2.2"/>
	<g>
		<ellipse transform="matrix(0.866 -0.5 0.5 0.866 -11.2667 87.6347)" fill="#6B3CFF" cx="157.9" cy="64.8" rx="3.5" ry="4.5"/>
		<path fill="#4A00D0" d="M171.9,35.1c-1,0.7-1.3,2-0.6,3l7,10.6l-7.6,5l-4.2-6.3c-0.7-1-2-1.3-3-0.6c-1,0.7-1.3,2-0.6,3l4.2,6.3
			l-9.4,6.2c-1,0.7-1.3,2-0.6,3c0.7,1,2,1.3,3,0.6l22.4-14.8c1-0.7,1.3-2,0.6-3l-8.2-12.4C174.3,34.7,172.9,34.4,171.9,35.1z"/>
		<ellipse transform="matrix(0.5 -0.866 0.866 0.5 -19.3117 96.2336)" fill="#6B3CFF" cx="73.7" cy="64.8" rx="4.5" ry="3.5"/>
		<path fill="#4A00D0" d="M59.7,35.1c1,0.7,1.3,2,0.6,3l-7,10.6l7.6,5l4.2-6.3c0.7-1,2-1.3,3-0.6c1,0.7,1.3,2,0.6,3l-4.2,6.3
			l9.4,6.2c1,0.7,1.3,2,0.6,3c-0.7,1-2,1.3-3,0.6L49.1,51.1c-1-0.7-1.3-2-0.6-3l8.2-12.4C57.3,34.7,58.7,34.4,59.7,35.1z"/>
	</g>
	<g>
		<path fill="#8A76FF" d="M50.3,143.7c0,0-13.9,24.1,5.2,51.6c0,0-3,8.7,2.7,10.4c0,0,2.9,0.4,1.1-3.5c0,0,2,2.2,3,2.1
			c0,0,2.6-0.4,1.1-4c0,0,2.5,3.8,3.6,1.2c0.4-1,0.4-7.7-5.6-8.7c0,0-14.7-17.3-9.2-40.7C52.3,152.1,56.9,140.2,50.3,143.7z"/>
		<path fill="#4A00D0" d="M54.5,154.3c0,0,5.6-12.5-0.5-14s-9.4,11.6-9.4,11.6L54.5,154.3z"/>
	</g>
	<g>
		<path fill="#8A76FF" d="M187.6,143.7c0,0,13.9,24.1-5.2,51.6c0,0,3,8.7-2.7,10.4c0,0-2.9,0.4-1.1-3.5c0,0-2,2.2-3,2.1
			c0,0-2.6-0.4-1.1-4c0,0-2.5,3.8-3.6,1.2c-0.4-1-0.4-7.7,5.6-8.7c0,0,14.7-17.3,9.2-40.7C185.6,152.1,180.9,140.2,187.6,143.7z"/>
		<path fill="#1E0080" d="M183.4,154.3c0,0-5.6-12.5,0.5-14s9.4,11.6,9.4,11.6L183.4,154.3z"/>
	</g>
	<circle fill="#FFFFFF" cx="109.1" cy="79.8" r="4.7"/>
</g>
<g id="Lines">
</g>
<g id="Text">
</g>
<g id="Fog_Overlay">
</g>
</svg>
