<?xml version="1.0" encoding="utf-8"?>
<!-- Generator: Adobe Illustrator 23.0.1, SVG Export Plug-In . SVG Version: 6.00 Build 0)  -->
<svg version="1.0" xmlns="http://www.w3.org/2000/svg" xmlns:xlink="http://www.w3.org/1999/xlink" x="0px" y="0px"
	 viewBox="0 0 400 250" enable-background="new 0 0 400 250" xml:space="preserve">
<g id="Background">
</g>
<g id="Fog">
	<g opacity="0.69">
		
			<linearGradient id="SVGID_1_" gradientUnits="userSpaceOnUse" x1="-107.806" y1="3292.8076" x2="2218.2085" y2="3292.8076" gradientTransform="matrix(-1.6692 6.710710e-02 -5.716539e-02 -1.4219 652.0696 5703.7158)">
			<stop  offset="0" style="stop-color:#EB18FF;stop-opacity:0.5"/>
			<stop  offset="9.930713e-02" style="stop-color:#DD20FD;stop-opacity:0.5497"/>
			<stop  offset="0.2884" style="stop-color:#B736F8;stop-opacity:0.6442"/>
			<stop  offset="0.5476" style="stop-color:#7A5AF0;stop-opacity:0.7738"/>
			<stop  offset="0.8637" style="stop-color:#268AE4;stop-opacity:0.9318"/>
			<stop  offset="1" style="stop-color:#00A0DF"/>
		</linearGradient>
		<path fill="url(#SVGID_1_)" d="M608.9,798.4c-8.2,55.6-22.2,89.5-79.1,118c-96.6,48.4-203.9-16.2-313.9-29.7
			C66.4,868.3-56,1001.4-206.5,1015c-126.2,11.3-247.5-63.7-372.6-45.2c-135.9,20.2-245.7,146.8-380,122.6
			c-59.7-10.8-114-51.5-173.9-40.4c-29,5.4-53,22.2-75.8,38.5c-110.9,79.4-256.7,163.6-387.2,113.5
			c-82.9-31.8-150.2-115.4-239.1-96.4c-34.6,7.4-61.9,29.7-87.4,51.1c-98.4,82.5-197.9,166.4-267.7,267.7
			c-14.8,21.4-30.2,45.2-57.2,54.5c-37.2,12.8-79.7-7.5-118.8,0.3c-40.9,8.2-65.9,45.3-71.6,80.7c-5.7,35.4,2.7,71.2,2.8,106.9
			c0.1,68.6-32.4,137.2-88.6,187c-57.7,51.2-144.3,91.3-153.5,161.5c-6.2,47.5,23.3,105.5-18.8,137.4
			c-32.3,24.4-82.9,11.8-120.1-6.1c-145.1-69.7-242.1-196.9-295-331.8c-52.9-134.9-66.5-278.7-79.7-420.9
			c-21.3-229.6-42.6-459.2-63.9-688.8c-9.8-105.6-17.8-218.6,44-311.4c47.1-70.6,129-119.7,213.9-156.7
			c246.8-107.7,532.5-131.2,807.5-117s545.2,63.9,818.1,94.8c380.6,43,773.4,50.6,1131.3,166.7c256.5,83.2,487.5,221.4,666,398.5
			c23.8,23.6,50.4,49.6,86.8,52.8c24.7,2.1,49-6.9,73.9-7.5c24.8-0.6,54.1,14,50.3,35"/>
	</g>
</g>
<g id="Sky">
	<g id="Layer_12">
	</g>
</g>
<g id="Mountains">
</g>
<g id="Trees">
</g>
<g id="Floor">
</g>
<g id="Dekoration">
</g>
<g id="Mask">
</g>
<g id="Character">
	<g>
		<path fill="#6B3CFF" d="M140.6,162.9c0,0-25.4,0.5-38.9-26.8c0,0-8.3-1.4-7.1-6.7c0,0,1-2.5,3.3,0.7c0,0-0.9-2.5-0.3-3.3
			c0,0,1.5-1.9,3.7,0.9c0,0-1.9-3.6,0.6-3.4c0.9,0.1,6.3,3.1,4.5,8.3c0,0,7.3,19.3,28.5,25.2C134.8,157.6,146.4,159.2,140.6,162.9z"
			/>
		<ellipse opacity="0.35" fill="#19002F" cx="200.1" cy="221.7" rx="55.6" ry="9.4"/>
		<g>
			<g>
				<g>
					<g>
						<path fill="#6B3CFF" d="M206.2,219.3c2.1,0,3.7-1.9,3.7-4.2v-55.5h-7.5v55.5C202.5,217.4,204.1,219.3,206.2,219.3z"/>
					</g>
					<rect x="202.5" y="159.6" opacity="0.54" fill="#1E0080" width="7.5" height="47.5"/>
				</g>
				<path fill="#6B3CFF" d="M214.9,220h-9.2c-1.8,0-3.3-1.5-3.3-3.3v-1.6c0-1.8,1.5-3.3,3.3-3.3h9.2c1.8,0,3.3,1.5,3.3,3.3v1.6
					C218.2,218.5,216.7,220,214.9,220z"/>
			</g>
			<rect x="202.5" y="159.6" opacity="0.54" fill="#1E0080" width="7.5" height="47.5"/>
		</g>
		<g>
			<g>
				<path fill="#6B3CFF" d="M194.1,219.3c-2.1,0-3.7-1.9-3.7-4.2v-55.5h7.5v55.5C197.8,217.4,196.2,219.3,194.1,219.3z"/>
			</g>
			
				<rect x="190.3" y="159.6" transform="matrix(-1 -5.082968e-11 5.082968e-11 -1 388.1759 366.7271)" fill="#4A00D0" width="7.5" height="47.5"/>
			
				<rect x="190.3" y="159.6" transform="matrix(-1 -5.082968e-11 5.082968e-11 -1 388.1759 366.7271)" opacity="0.54" fill="#1E0080" width="7.5" height="47.5"/>
			<path fill="#6B3CFF" d="M185.4,220h9.2c1.8,0,3.3-1.5,3.3-3.3v-1.6c0-1.8-1.5-3.3-3.3-3.3h-9.2c-1.8,0-3.3,1.5-3.3,3.3v1.6
				C182.1,218.5,183.6,220,185.4,220z"/>
		</g>
		<g>
			<g>
				<g>
					<path fill="#6B3CFF" d="M118.3,102.6c0-43.3,36.6-83.5,81.8-83.5S282,59.3,282,102.6s-36.6,98.5-81.8,98.5
						S118.3,145.9,118.3,102.6z"/>
				</g>
				<g>
					<path fill="none" stroke="#FFFFFF" stroke-width="4.2878" stroke-linecap="round" stroke-miterlimit="10" d="M163.4,42.7
						c8.1-5.2,18.1-9.1,30.3-10"/>
					<g>
						<g>
							<path fill="#FFFFFF" d="M202.4,34.3c2.9,0,2.9-4.5,0-4.5C199.5,29.8,199.5,34.3,202.4,34.3L202.4,34.3z"/>
						</g>
					</g>
				</g>
			</g>
			<path opacity="0.54" fill="#1E0080" d="M166.2,190.5L166.2,190.5c10.3,6.6,21.8,10.6,33.9,10.6c45.2,0,81.8-55.2,81.8-98.5
				C282,102.6,256.8,194.1,166.2,190.5z"/>
		</g>
		<g>
			<g>
				<g>
					<circle fill="#4A00D0" cx="141.1" cy="123.3" r="4.1"/>
					<circle fill="#4A00D0" cx="133.1" cy="128.8" r="1.7"/>
				</g>
				<circle fill="#4A00D0" cx="139.8" cy="133.2" r="3.1"/>
			</g>
			<g>
				<g>
					<circle fill="#4A00D0" cx="264.8" cy="82.7" r="4.1"/>
					<circle fill="#4A00D0" cx="256.8" cy="88.2" r="1.7"/>
				</g>
				<circle fill="#4A00D0" cx="263.6" cy="92.7" r="3.1"/>
			</g>
		</g>
		<path opacity="0.54" fill="#1E0080" d="M151.5,103.6c0-27.9,21.8-50.5,48.6-50.5s48.6,22.6,48.6,50.5S226.9,167,200.1,167
			S151.5,131.5,151.5,103.6z"/>
		<path fill="#A4AAFF" d="M151.5,97.8c0-27.9,21.8-50.5,48.6-50.5s48.6,22.6,48.6,50.5s-21.8,63.4-48.6,63.4S151.5,125.7,151.5,97.8
			z"/>
		<ellipse fill="#6B3CFF" cx="199.2" cy="97.2" rx="34.3" ry="24.9"/>
		<g>
			<g>
				<circle fill="#6B3CFF" cx="228.6" cy="123.6" r="1.3"/>
				<circle fill="#6B3CFF" cx="231.9" cy="120.8" r="1.3"/>
				<circle fill="#6B3CFF" cx="233.1" cy="125.3" r="1.3"/>
				<circle fill="#6B3CFF" cx="229.3" cy="128.1" r="1.3"/>
				<circle fill="#6B3CFF" cx="233.7" cy="130.2" r="1.3"/>
				<circle fill="#6B3CFF" cx="236.4" cy="122.3" r="1.3"/>
				<circle fill="#6B3CFF" cx="237.7" cy="126.9" r="1.3"/>
				<circle fill="#6B3CFF" cx="225.1" cy="127.2" r="1.3"/>
				<circle fill="#6B3CFF" cx="227.6" cy="132" r="1.3"/>
			</g>
			<g>
				<circle fill="#6B3CFF" cx="171.5" cy="123.6" r="1.3"/>
				<circle fill="#6B3CFF" cx="168.3" cy="120.8" r="1.3"/>
				<circle fill="#6B3CFF" cx="167" cy="125.3" r="1.3"/>
				<circle fill="#6B3CFF" cx="170.8" cy="128.1" r="1.3"/>
				<circle fill="#6B3CFF" cx="166.4" cy="130.2" r="1.3"/>
				<circle fill="#6B3CFF" cx="163.7" cy="122.3" r="1.3"/>
				<circle fill="#6B3CFF" cx="162.4" cy="126.9" r="1.3"/>
				<circle fill="#6B3CFF" cx="175" cy="127.2" r="1.3"/>
				<circle fill="#6B3CFF" cx="172.5" cy="132" r="1.3"/>
			</g>
		</g>
		<g>
			<g>
				<path fill="#4A00D0" d="M200.3,137L200.3,137c4.9,0,8.9-1.6,8.9,2.1v0c0,3.8-4,6.8-8.9,6.8h0c-4.9,0-8.9-3.1-8.9-6.8v0
					C191.3,135.3,195.3,137,200.3,137z"/>
			</g>
			<path fill="#FFFFFF" d="M200.2,135.2c-2.3,0-4.5,0.5-6.3,1.4c0.1,2.5,2.9,2.4,6.3,2.4c3.4,0,6.2,0.1,6.3-2.4
				C204.7,135.7,202.5,135.2,200.2,135.2L200.2,135.2z"/>
		</g>
		<path opacity="0.36" fill="#D0E7FF" d="M200.1,121.5c0,0-0.1-0.1-0.1-0.1C200,121.4,200.1,121.4,200.1,121.5z"/>
		<path opacity="0.36" fill="#D0E7FF" d="M200.3,122.6c-0.1-0.1-0.3-0.3-0.4-0.4C200,122.3,200.1,122.4,200.3,122.6z"/>
		<path opacity="0.36" fill="#D0E7FF" d="M200.1,120.5C200.1,120.5,200,120.5,200.1,120.5C200,120.5,200.1,120.5,200.1,120.5z"/>
		<path opacity="0.36" fill="#D0E7FF" d="M200.2,122c-0.1-0.1-0.1-0.1-0.2-0.2C200,121.8,200.1,121.9,200.2,122z"/>
		<path opacity="0.36" fill="#D0E7FF" d="M200.1,120.1C200.1,120,200.1,120,200.1,120.1C200.1,120,200.1,120,200.1,120.1z"/>
		<path opacity="0.36" fill="#D0E7FF" d="M200.1,121C200.1,121,200,120.9,200.1,121C200,120.9,200.1,121,200.1,121z"/>
		<path opacity="0.36" fill="#FFFFFF" d="M200.2,120.9c-0.1-0.1-0.2-0.3-0.3-0.4C200,120.6,200.1,120.8,200.2,120.9z"/>
		<path opacity="0.36" fill="#FFFFFF" d="M200.2,120.5c-0.1-0.1-0.2-0.3-0.3-0.4C200,120.2,200.1,120.3,200.2,120.5z"/>
		<path opacity="0.36" fill="#FFFFFF" d="M200.1,122.2c-0.1-0.1-0.1-0.1-0.2-0.2C200,122,200.1,122.1,200.1,122.2z"/>
		<path opacity="0.36" fill="#FFFFFF" d="M200.2,121.7c-0.1-0.1-0.2-0.2-0.3-0.3C200,121.6,200.1,121.7,200.2,121.7z"/>
		<path opacity="0.36" fill="#FFFFFF" d="M200.2,121.3c-0.1-0.1-0.2-0.2-0.3-0.3C200,121.1,200.1,121.2,200.2,121.3z"/>
		<g>
			<g>
				<circle fill="#FFFFFF" cx="200.1" cy="97.2" r="17.1"/>
				<g>
					<circle fill="#6B3CFF" cx="200.1" cy="97.2" r="9.1"/>
					<circle fill="#1E0080" cx="200.1" cy="97.2" r="6.8"/>
				</g>
			</g>
		</g>
		<ellipse opacity="0.32" fill="#C2D8FF" cx="199.2" cy="98.3" rx="34.3" ry="24.9"/>
		<path opacity="0.45" fill="#FFFFFF" d="M176.4,115.7c-7.1-4.6-11.5-11.2-11.5-18.6c0-13.7,15.4-24.9,34.3-24.9
			c7.1,0,13.7,1.6,19.2,4.2"/>
		<ellipse fill="none" stroke="#FFFFFF" stroke-width="3.3428" stroke-miterlimit="10" cx="199.2" cy="97.1" rx="34.3" ry="24.9"/>
		<g>
			<circle fill="#6B3CFF" cx="177.1" cy="63.8" r="1.3"/>
			<circle fill="#6B3CFF" cx="181" cy="66.1" r="1.3"/>
			<circle fill="#6B3CFF" cx="176.3" cy="68.7" r="1.3"/>
			<circle fill="#6B3CFF" cx="186.3" cy="65.4" r="1.3"/>
			<circle fill="#6B3CFF" cx="181.8" cy="62.1" r="1.3"/>
		</g>
		<circle fill="#6B3CFF" cx="221.4" cy="62.1" r="3.1"/>
		<circle fill="#6B3CFF" cx="226.3" cy="67.4" r="2"/>
		<g>
			<ellipse transform="matrix(0.866 -0.5 0.5 0.866 -6.4161 129.5417)" fill="#6B3CFF" cx="238.5" cy="76.7" rx="3.2" ry="4.1"/>
			<path fill="#4A00D0" d="M251.3,49.6c-0.9,0.6-1.2,1.8-0.6,2.7l6.4,9.7l-6.9,4.6l-3.8-5.7c-0.6-0.9-1.8-1.2-2.7-0.6
				c-0.9,0.6-1.2,1.8-0.6,2.7l3.8,5.7l-8.6,5.7c-0.9,0.6-1.2,1.8-0.6,2.7c0.6,0.9,1.8,1.2,2.7,0.6L261,64.2c0.9-0.6,1.2-1.8,0.6-2.7
				L254,50.1C253.4,49.2,252.2,49,251.3,49.6z"/>
			<ellipse transform="matrix(0.5 -0.866 0.866 0.5 14.426 178.4734)" fill="#6B3CFF" cx="161.8" cy="76.7" rx="4.1" ry="3.2"/>
			<path fill="#4A00D0" d="M149,49.6c0.9,0.6,1.2,1.8,0.6,2.7l-6.4,9.7l6.9,4.6l3.8-5.7c0.6-0.9,1.8-1.2,2.7-0.6
				c0.9,0.6,1.2,1.8,0.6,2.7l-3.8,5.7l8.6,5.7c0.9,0.6,1.2,1.8,0.6,2.7c-0.6,0.9-1.8,1.2-2.7,0.6l-20.4-13.5
				c-0.9-0.6-1.2-1.8-0.6-2.7l7.5-11.3C146.9,49.2,148.1,49,149,49.6z"/>
		</g>
		<g>
			<path fill="#6B3CFF" d="M265.6,148.6c0,0,12.7,22-4.7,47c0,0,2.8,8-2.4,9.5c0,0-2.7,0.3-1-3.2c0,0-1.8,2-2.7,1.9
				c0,0-2.4-0.4-1-3.6c0,0-2.3,3.4-3.3,1.1c-0.3-0.9-0.3-7,5.1-7.9c0,0,13.4-15.8,8.4-37.1C263.8,156.3,259.5,145.4,265.6,148.6z"/>
			<path fill="#1E0080" d="M261.7,158.3c0,0-5.1-11.4,0.4-12.8c5.5-1.4,8.6,10.6,8.6,10.6L261.7,158.3z"/>
		</g>
		<circle fill="#FFFFFF" cx="194.1" cy="90.4" r="4.3"/>
		<path fill="#1E0080" d="M134,154.9c0,0,12.5,1.1,11,6.6s-13.4,2.4-13.4,2.4L134,154.9z"/>
		<g>
			<path fill="#A4AAFF" d="M119,119.4L72.3,41.9c0.5,0.8,0.2,1.8-0.6,2.3c-0.8,0.5-1.8,0.2-2.3-0.6l-2.6,1.6
				c0.5,0.8,0.2,1.8-0.6,2.3c-0.8,0.5-1.8,0.2-2.3-0.6l-2.6,1.6c0.5,0.8,0.2,1.8-0.6,2.3c-0.8,0.5-1.8,0.2-2.3-0.6l-2.6,1.6
				c0.5,0.8,0.2,1.8-0.6,2.3c-0.8,0.5-1.8,0.2-2.3-0.6l-2.6,1.6c0.5,0.8,0.2,1.8-0.6,2.3c-0.8,0.5-1.8,0.2-2.3-0.6l-2.6,1.6
				c0.5,0.8,0.2,1.8-0.6,2.3c-0.8,0.5-1.8,0.2-2.3-0.6l-2.6,1.6c0.5,0.8,0.2,1.8-0.6,2.3c-0.8,0.5-1.8,0.2-2.3-0.6l-2.6,1.6
				c0.5,0.8,0.2,1.8-0.6,2.3c-0.8,0.5-1.8,0.2-2.3-0.6l46.8,77.5"/>
			<path fill="#A4AAFF" d="M113.5,122.7l2.6-1.6"/>
			<path fill="#A4AAFF" d="M108,126l2.6-1.6"/>
			<path fill="#A4AAFF" d="M97.1,132.6l2.6-1.6c-0.5-0.8-0.2-1.8,0.6-2.3c0.8-0.5,1.8-0.2,2.3,0.6l2.6-1.6"/>
			<path fill="#A4AAFF" d="M91.6,136l2.6-1.6"/>
			<path fill="#A4AAFF" d="M86.1,139.3l2.6-1.6"/>
			<path fill="#A4AAFF" d="M80.6,142.6l2.6-1.6"/>
			<path fill="#4A00D0" fill-opacity="0.28" d="M97.1,106.1c-2.6-4.3-8.2-5.7-12.4-3.1l0,0l0,0c4.3-2.6,5.7-8.2,3.1-12.4
				c-2.6-4.3-8.2-5.7-12.4-3.1c-6.5,3.4-8.8,26.5-8.8,26.5l0,0l0,0c0,0,21.5,8.7,27.5,4.5C98.3,115.9,99.7,110.4,97.1,106.1z"/>
			<path fill="#6B3CFF" d="M98.2,104.1c-2.6-4.3-8.2-5.7-12.4-3.1l0,0l0,0c4.3-2.6,5.7-8.2,3.1-12.4c-2.6-4.3-8.2-5.7-12.4-3.1
				c-6.5,3.4-8.8,26.5-8.8,26.5l0,0l0,0c0,0,21.5,8.7,27.5,4.5C99.5,114,100.8,108.4,98.2,104.1z"/>
			<path fill="none" stroke="#FFFFFF" stroke-linecap="round" stroke-miterlimit="10" d="M78,87.3c0.2,0,4.2-1.9,7.6,1"/>
			<line fill="none" stroke="#FFFFFF" stroke-linecap="round" stroke-miterlimit="10" x1="87" y1="89.7" x2="87.3" y2="90.1"/>
			<g>
				<circle fill="#6B3CFF" cx="44.4" cy="80.5" r="1.3"/>
				<circle fill="#6B3CFF" cx="49.3" cy="77.6" r="1.3"/>
				<circle fill="#6B3CFF" cx="54.3" cy="74.6" r="1.3"/>
				<circle fill="#6B3CFF" cx="58.7" cy="72" r="1.3"/>
				<circle fill="#6B3CFF" cx="63.7" cy="69" r="1.3"/>
				<circle fill="#6B3CFF" cx="68.6" cy="66.1" r="1.3"/>
				<circle fill="#6B3CFF" cx="73.5" cy="63.1" r="1.3"/>
				<circle fill="#6B3CFF" cx="78" cy="60.5" r="1.3"/>
			</g>
		</g>
		<path fill="#6B3CFF" d="M106,127.7c0,0-2.6-7.1-5.9-4.2c0,0-1.3,1.3,0.5,4.1c1.8,2.8-1.9,5.5-1.9,5.5l1,1.4L106,127.7z"/>
		
			<line fill="none" stroke="#FFFFFF" stroke-width="2" stroke-linecap="round" stroke-miterlimit="10" x1="71.1" y1="54.2" x2="72.3" y2="53.6"/>
		
			<line fill="none" stroke="#FFFFFF" stroke-width="2" stroke-linecap="round" stroke-miterlimit="10" x1="68.6" y1="56" x2="57.5" y2="62.9"/>
	</g>
	<g>
		<circle fill="#4A00D0" fill-opacity="0.28" cx="102.6" cy="98.5" r="1.8"/>
		<circle fill="#4A00D0" fill-opacity="0.28" cx="102.1" cy="103" r="1.3"/>
		<circle fill="#4A00D0" fill-opacity="0.28" cx="98.5" cy="100.3" r="0.6"/>
	</g>
	<g>
		<circle fill="#4A00D0" fill-opacity="0.28" cx="141.6" cy="115.8" r="1.8"/>
		<circle fill="#4A00D0" fill-opacity="0.28" cx="142.4" cy="111.4" r="1.3"/>
		<circle fill="#4A00D0" fill-opacity="0.28" cx="145.8" cy="114.3" r="0.6"/>
	</g>
</g>
<g id="Lines">
</g>
<g id="Text" display="none">
</g>
<g id="Fog_Overlay">
</g>
</svg>
