<?xml version="1.0" encoding="utf-8"?>
<!-- Generator: Adobe Illustrator 23.0.1, SVG Export Plug-In . SVG Version: 6.00 Build 0)  -->
<svg version="1.0" xmlns="http://www.w3.org/2000/svg" xmlns:xlink="http://www.w3.org/1999/xlink" x="0px" y="0px"
	 viewBox="0 0 360 295" enable-background="new 0 0 360 295" xml:space="preserve">
<g id="Background">
	<rect x="-19.9" y="-2.5" opacity="0.35" fill="#F9A6FF" width="399.9" height="296.9"/>
</g>
<g id="Fog">
</g>
<g id="Sky">
	<g id="Layer_12">
	</g>
</g>
<g id="Mountains">
</g>
<g id="Trees">
</g>
<g id="Floor">
</g>
<g id="Dekoration">
</g>
<g id="Mask">
	<path fill="#FFFFFF" d="M-33.6-11.4v331.3h426V-11.4H-33.6z M246.8,284.5c-97.4,25.1-160.9-8.2-212.6-90.3
		c-18.2-28.9-44.9-84-28-123.5c25.6-59.8,73.8-20.3,123.7-22c21.1-0.7,37.5-15,57.7-17.8c34.7-4.8,40.5,3.9,73.7,10.6
		c53,10.8,83.7,10.4,94.7,71.8C371.7,201.1,333.7,262.1,246.8,284.5z"/>
</g>
<g id="Character">
	<g>
		<g>
			<g>
				<path fill="#5D0081" d="M220.6,14.4l17.7-3.5c3.5-0.7,6.5,2.7,5.3,6.1l-5.8,17.1"/>
				<polygon fill="#EB18FF" points="222.8,17.5 239.3,13.6 228.9,21.7 				"/>
			</g>
			<g>
				<path fill="#5D0081" d="M142.5,14.4l-17.7-3.5c-3.5-0.7-6.5,2.7-5.3,6.1l5.8,17.1"/>
				<polygon fill="#EB18FF" points="129.6,30.8 123,15.2 132.7,24.1 				"/>
			</g>
		</g>
		<g>
			<g>
				<g>
					<path fill="#9700B8" d="M192.8,203.5c3.6,0,6.5-2.9,6.5-6.5v-24.7h-13V197C186.3,200.6,189.2,203.5,192.8,203.5z"/>
				</g>
				<rect x="186.3" y="172.3" fill="#5D0081" width="13" height="15.6"/>
			</g>
			<g>
				<g>
					<path fill="#9700B8" d="M215.3,203.5c3.6,0,6.5-2.9,6.5-6.5v-24.7h-13V197C208.8,200.6,211.7,203.5,215.3,203.5z"/>
				</g>
				<rect x="208.8" y="172.3" fill="#5D0081" width="13" height="15.6"/>
			</g>
			<g>
				<g>
					<path fill="#9700B8" d="M147.8,203.5c3.6,0,6.5-2.9,6.5-6.5v-24.7h-13V197C141.3,200.6,144.2,203.5,147.8,203.5z"/>
				</g>
				<rect x="141.3" y="172.3" fill="#5D0081" width="13" height="15.6"/>
			</g>
			<g>
				<g>
					<path fill="#9700B8" d="M170.3,203.5c3.6,0,6.5-2.9,6.5-6.5v-24.7h-13V197C163.8,200.6,166.7,203.5,170.3,203.5z"/>
				</g>
				<rect x="163.8" y="172.3" fill="#5D0081" width="13" height="15.6"/>
			</g>
		</g>
		<g>
			<g>
				<path fill="#9700B8" d="M88.8,100.9c10.2-0.8,9.1,14.6,7,20.5c-2.4,6.6-3.6,13-1.2,19.8c5.5,15.6,22.8,15.9,36.6,13.8
					c5-0.8,2.9-8.4-2.1-7.6c-8,1.3-18.9,2.6-24.8-4.6c-5-6.1-3-13.5-0.6-20.1c3.9-10.9,0.3-30.9-14.8-29.7
					C83.8,93.5,83.8,101.3,88.8,100.9L88.8,100.9z"/>
			</g>
		</g>
		<path fill="#EB18FF" d="M92.5,88.8c3.1,3.1,3.1,8,0,11.1s-8,3.1-11.1,0s-9.7-14.7-6.6-17.8S89.4,85.7,92.5,88.8z"/>
		<path fill="#9700B8" d="M181.5,174.6L181.5,174.6c-36.7,0-66.4,2-66.4-34.7V68c0-36.7,29.7-66.4,66.4-66.4h0
			c36.7,0,66.4,29.7,66.4,66.4v72C247.9,176.7,218.2,174.6,181.5,174.6z"/>
		<g>
			<path fill="#EB18FF" d="M115.1,134.3v5.7c0,36.7,29.7,34.7,66.4,34.7h0c36.7,0,66.4,2,66.4-34.7v-5.7
				c-14.5,9.2-38.8,15.2-66.4,15.2S129.6,143.5,115.1,134.3z"/>
		</g>
		<circle fill="#FFFFFF" cx="181.5" cy="72.5" r="19.3"/>
		<g>
			<circle fill="#F9A6FF" cx="181.5" cy="72.5" r="10.3"/>
			<circle fill="#5D0081" cx="181.5" cy="72.5" r="7.6"/>
		</g>
		<g>
			<path fill="#5D0081" d="M195,109.4c0,7.4-6,13.4-13.4,13.4c-7.4,0-13.4-6-13.4-13.4"/>
			<path fill="#FFFFFF" d="M193.2,109.4c0,2.9-2.4,5.3-5.3,5.3s-5.3-2.4-5.3-5.3"/>
		</g>
		<g>
			<circle opacity="0.36" fill="#F9A6FF" cx="181.5" cy="72.5" r="27.9"/>
			<path opacity="0.36" fill="#FFFFFF" d="M161.8,92.2c-10.9-10.9-10.9-28.6,0-39.5c10.9-10.9,28.6-10.9,39.5,0"/>
		</g>
		<circle fill="none" stroke="#EB18FF" stroke-width="4.5345" stroke-miterlimit="10" cx="181.5" cy="72.5" r="27.9"/>
		<g>
			<path opacity="0.54" fill="#5D0081" d="M158.7,174.5c7.1,0.2,14.8,0.1,22.8,0.1h0c36.7,0,66.4,2,66.4-34.7V88.1
				C247.9,88.1,238.2,156.5,158.7,174.5z"/>
		</g>
		<g>
			<path fill="#9700B8" d="M136.6,156.6h-11.3c-0.4,0-0.6-0.3-0.6-0.6v-0.9c0-0.4,0.3-0.6,0.6-0.6h11.3c0.4,0,0.6,0.3,0.6,0.6v0.9
				C137.2,156.3,136.9,156.6,136.6,156.6z"/>
			<path fill="#9700B8" d="M136.6,152.9h-11.3c-0.4,0-0.6-0.3-0.6-0.6v-0.9c0-0.4,0.3-0.6,0.6-0.6h11.3c0.4,0,0.6,0.3,0.6,0.6v0.9
				C137.2,152.6,136.9,152.9,136.6,152.9z"/>
			<path fill="#9700B8" d="M136.6,160.4h-11.3c-0.4,0-0.6-0.3-0.6-0.6v-0.9c0-0.4,0.3-0.6,0.6-0.6h11.3c0.4,0,0.6,0.3,0.6,0.6v0.9
				C137.2,160.1,136.9,160.4,136.6,160.4z"/>
		</g>
		<ellipse opacity="0.28" fill="#9700B8" cx="182.6" cy="234.1" rx="59.7" ry="9.9"/>
		<g>
			<path fill="#5D0081" d="M220.4,115.9h-10.5c-0.8,0-1.4-0.6-1.4-1.4v-2.3c0-0.8,0.6-1.4,1.4-1.4h10.5c0.8,0,1.4,0.6,1.4,1.4v2.3
				C221.8,115.3,221.2,115.9,220.4,115.9z"/>
			<path fill="#5D0081" d="M224.9,122.9h-10.5c-0.8,0-1.4-0.6-1.4-1.4v-2.3c0-0.8,0.6-1.4,1.4-1.4h10.5c0.8,0,1.4,0.6,1.4,1.4v2.3
				C226.3,122.2,225.7,122.9,224.9,122.9z"/>
		</g>
		<g>
			<rect x="133.6" y="107.4" fill="#EB18FF" width="1.6" height="20.5"/>
			<rect x="136.4" y="107.4" fill="#EB18FF" width="1.6" height="20.5"/>
			<path fill="none" stroke="#EB18FF" stroke-width="1.8138" stroke-miterlimit="10" d="M152,119.1h-9.7c-1,0-1.9-0.8-1.9-1.9v-9.8"
				/>
			<path opacity="0.36" fill="#FFFFFF" d="M149.7,127.8h-19.9c-1.3,0-2.3-1-2.3-2.3v-15.9c0-1.3,1-2.3,2.3-2.3h20.8
				c0.8,0,1.5,0.7,1.5,1.5v16.7C152,126.8,151,127.8,149.7,127.8z"/>
			<path opacity="0.36" fill="#FFFFFF" d="M127.5,120.1v-8.6c0-2.3,1.9-4.1,4.1-4.1h6.8"/>
		</g>
		<g>
			<path fill="none" stroke="#FFFFFF" stroke-width="5.7437" stroke-linecap="round" stroke-miterlimit="10" d="M135.2,36.6
				c7.2-12.8,16-20.2,31.9-23.8"/>
			<g>
				<g>
					<path fill="#FFFFFF" d="M176.2,13.9c3.9,0,3.9-6,0-6C172.3,7.8,172.3,13.9,176.2,13.9L176.2,13.9z"/>
				</g>
			</g>
		</g>
		<g>
			<path fill="#5D0081" d="M197.2,25.6h10.5c0.8,0,1.4-0.6,1.4-1.4v-2.3c0-0.8-0.6-1.4-1.4-1.4h-10.5c-0.8,0-1.4,0.6-1.4,1.4v2.3
				C195.8,24.9,196.5,25.6,197.2,25.6z"/>
			<path fill="#5D0081" d="M197.1,18.8h2.9c1.4,0,2.5-1.1,2.5-2.5v0c0-1.4-1.1-2.5-2.5-2.5h-2.9c-1.4,0-2.5,1.1-2.5,2.5v0
				C194.6,17.7,195.7,18.8,197.1,18.8z"/>
			<path fill="#5D0081" d="M190.6,32.3h10.5c0.8,0,1.4-0.6,1.4-1.4v-2.3c0-0.8-0.6-1.4-1.4-1.4h-10.5c-0.8,0-1.4,0.6-1.4,1.4v2.3
				C189.2,31.7,189.8,32.3,190.6,32.3z"/>
		</g>
		<circle fill="#FFFFFF" cx="176.8" cy="63.7" r="4.7"/>
	</g>
</g>
<g id="Lines">
</g>
<g id="Text" display="none">
</g>
<g id="Fog_Overlay">
</g>
</svg>
