<?xml version="1.0" encoding="utf-8"?>
<!-- Generator: Adobe Illustrator 22.1.0, SVG Export Plug-In . SVG Version: 6.00 Build 0)  -->
<svg version="1.0" xmlns="http://www.w3.org/2000/svg" xmlns:xlink="http://www.w3.org/1999/xlink" x="0px" y="0px"
	 viewBox="0 0 4096 750" enable-background="new 0 0 4096 750" xml:space="preserve">
<g id="Background">
	<rect y="-11" fill="#19002F" width="4096" height="772.1"/>
	<linearGradient id="SVGID_1_" gradientUnits="userSpaceOnUse" x1="-26.3666" y1="378.2839" x2="4096" y2="378.2839">
		<stop  offset="0" style="stop-color:#6B3CFF"/>
		<stop  offset="1" style="stop-color:#EB18FF;stop-opacity:0.2"/>
	</linearGradient>
	<rect x="-26.4" y="-7.8" opacity="0.69" fill="url(#SVGID_1_)" width="4122.4" height="772.1"/>
</g>
<g id="Fog">
	<g opacity="0.25">
		<linearGradient id="SVGID_2_" gradientUnits="userSpaceOnUse" x1="1122.3521" y1="273.5048" x2="2620.032" y2="273.5048">
			<stop  offset="0" style="stop-color:#00A0DF"/>
			<stop  offset="1" style="stop-color:#EB18FF;stop-opacity:0.2"/>
		</linearGradient>
		<path fill="url(#SVGID_2_)" d="M1226.6,218.4c7.3,4.4,14.7,9.3,23.1,10.9c9.5,1.8,19.3-1.2,28.5-4.1c30.1-9.6,60.3-19.2,90.4-28.9
			c17.1-5.5,34.6-11,52.6-10.7c26.8,0.4,51.4,13.5,75.9,24.1c48.4,21,102.6,33.7,154,22c43.6-9.9,84.2-36.8,128.8-33.9
			c44,2.9,81.1,34.5,124.2,43.7c18.8,4,38.3,3.7,57.5,3.3c62.1-1.2,125.5-2.6,184-23.7c23.1-8.3,45-19.6,66.9-30.9
			c40.6-20.9,81.2-41.9,121.8-62.8c53.7-27.7,111.6-59.7,134.6-115.6c9.6-23.3,12.2-49.2,23-72c10.8-22.8,34.2-43.1,58.9-38.1
			c19.4,3.9,32.5,21.7,42.2,39c29.8,53.6,41.7,126.7,0.5,172.2c-14.3,15.8-33.3,26.3-52,36.5c-32.7,17.9-65.3,35.8-98,53.7
			c-52.1,28.6-105.4,57.5-163.8,68.3c-76.4,14-157.6-4-231.2,21c-42.4,14.4-79.9,42.9-105,80c-20.1,29.7-32.2,64.3-53.3,93.3
			c-42.2,58.2-120.9,87.4-190.9,70.8c-19.3-4.6-37.8-12.3-57.3-16c-48.1-9.1-97.3,6.8-142,26.7c-57.3,25.4-111.7,57.7-170.8,78.6
			c-59.1,20.9-125.6,29.6-184,6.8c-23.9-9.3-19.7-13.2-18.1-38.8c1.7-26.7,2.1-58.5,28.5-61.9c26.5-3.4,54.3,0.7,79.3-8.8
			c44.6-16.8,64.5-69.8,104.9-95.1c33.3-20.8,75.2-19.9,113-30.4s76.9-43.6,67.9-81.8c-6.3-26.8-35-43.4-62.5-45.5
			c-27.5-2-54.4,7-80.9,14.7c-48.3,14-97.9,23.8-148,29.1c-19.7,2.1-40.3,3.4-58.7-4.1c-39-15.8-64.8-67.4-36-98.1
			C1134.7,211.9,1156.2,175.9,1226.6,218.4z"/>
	</g>
	<g opacity="0.25">
		<linearGradient id="SVGID_3_" gradientUnits="userSpaceOnUse" x1="1914.5625" y1="595.001" x2="2986.2021" y2="595.001">
			<stop  offset="0" style="stop-color:#00A0DF"/>
			<stop  offset="1" style="stop-color:#EB18FF;stop-opacity:0.2"/>
		</linearGradient>
		<path fill="url(#SVGID_3_)" d="M1960.2,850.7c20.6-41.9,63.2-67.6,103.6-90.9c17.9-10.3,35.7-20.6,53.6-31
			c36.7-21.2,75.2-44.2,95.5-81.5c34.4-63.2,10.8-156.7,68.5-199.8c44.9-33.5,112.6-13,160.8-41.4c42.6-25.2,58.2-81.8,100-108.4
			c54.4-34.7,126.8-4.9,190.1-17.5c38-7.6,71-30.2,106-46.8s77-27.3,111.8-10.4c34.9,16.9,50.3,71.6,19.5,95.1
			c-13.5,10.3-31.6,12-48.6,12.1c-58.3,0.3-115.9-14.1-174.1-13.6c-58.3,0.5-121.7,20.4-151.5,70.5c-20.5,34.5-23.9,80.9-56,104.8
			c-11.4,8.5-25.1,13-38.5,17.7c-44.1,15.5-87.7,34.8-123.4,65c-35.7,30.2-63.1,72.4-67.3,119c-1.6,17.4,0.1,35.1-3.6,52.2
			c-9.8,45.7-55.2,75.5-100.4,87.7c-45.2,12.2-93,11.9-138.1,24.2c-64,17.4-120.5,60.8-153.7,118.2"/>
	</g>
	<g opacity="0.25">
		<linearGradient id="SVGID_4_" gradientUnits="userSpaceOnUse" x1="2620.7556" y1="477.0324" x2="2953.9651" y2="477.0324">
			<stop  offset="0" style="stop-color:#00A0DF"/>
			<stop  offset="1" style="stop-color:#EB18FF;stop-opacity:0.2"/>
		</linearGradient>
		<path fill="url(#SVGID_4_)" d="M2620.8,555.7c22.6-8.3,42.1-24.8,54-45.6c14.8-25.8,19.6-59.3,44.2-76c27.8-19,67.6-6.6,97.5-22.2
			c21.5-11.2,34.1-35,55.3-47c26.4-14.9,64.5-5,78.3,21.9c5.2,10.1,6.2,24.1-2.7,31.2c-12.7,10.1-31-2.9-47.2-1.6
			c-12.8,1-23.9,12.4-24.5,25.2c-0.6,12.8,9.3,25.2,21.9,27.4c6.2,1.1,12.8,0,18.8,1.9c9,2.9,14.6,11.7,19.4,19.9
			c4.6,7.8,9.3,17,6.4,25.6c-3.2,9.4-14.7,13.7-24.6,12.7c-20.7-2.1-35.4-20.3-51-34c-15.6-13.8-41-23.5-56-9
			c-5.1,4.9-7.8,11.8-10.7,18.3c-11.7,26.5-28.6,50.7-49.3,71c-11.1,10.8-24.8,21.1-40.3,20.9c-11.3-0.1-21.8-5.8-31.7-11.2
			c-19-10.5-37.9-21-56.9-31.5"/>
	</g>
	<g opacity="0.25">
		<linearGradient id="SVGID_5_" gradientUnits="userSpaceOnUse" x1="1761.1619" y1="468.9299" x2="2510.0454" y2="468.9299">
			<stop  offset="0" style="stop-color:#00A0DF"/>
			<stop  offset="1" style="stop-color:#EB18FF;stop-opacity:0.2"/>
		</linearGradient>
		<path fill="url(#SVGID_5_)" d="M1772.1,556.3c34.8-0.1,69.4-13.7,95-37.4c27.9-25.9,44-61.6,64.3-93.7s48.9-63.1,86.5-68.9
			c23.7-3.6,49.1,3.2,71.3-5.9c13-5.3,23.5-15.7,36.7-20.7c19.7-7.6,42-2,61.4,6.1c19.5,8.1,38.3,18.8,59.1,22
			c20.1,3,40.6-1.2,60.8,1.4c41.2,5.4,74.5,38.2,115.5,44.8c10.1,1.6,20.4,1.6,30.2,4.4c24.1,6.7,40.6,28.3,54,49.4
			c1.8,2.8,3.6,5.9,2.9,9.2c-1.2,5.7-8.6,7.2-14.4,6.8c-41.1-2.8-73.8-35.1-112.8-48.5c-20.1-6.9-41.4-8.7-62.3-12.4
			c-46.4-8.3-93.9-26.6-139.3-14c-23,6.4-43.4,20.3-66.5,26.1c-24.3,6.1-50.5,3-74.3,11.1c-27.7,9.4-48.1,32.8-65,56.6
			c-18,25.4-33.7,52.7-54.8,75.6s-49.1,41.5-80.2,43.4c-26.3,1.6-53.1-9.8-70.3-29.7c-6.9-8-12.3-20-6.3-28.7"/>
	</g>
	<g opacity="0.74">
		<g opacity="0.25">
			<linearGradient id="SVGID_6_" gradientUnits="userSpaceOnUse" x1="1232.5258" y1="99.3201" x2="1239.6888" y2="99.3201">
				<stop  offset="0" style="stop-color:#00A0DF"/>
				<stop  offset="1" style="stop-color:#EB18FF;stop-opacity:0.2"/>
			</linearGradient>
			<path fill="url(#SVGID_6_)" d="M1239.7,104.2l-7.2-9.8C1234.4,98.2,1236.8,101.4,1239.7,104.2z"/>
		</g>
		<g opacity="0.25">
			<linearGradient id="SVGID_7_" gradientUnits="userSpaceOnUse" x1="1239.6888" y1="106.2118" x2="1242.6493" y2="106.2118">
				<stop  offset="0" style="stop-color:#00A0DF"/>
				<stop  offset="1" style="stop-color:#EB18FF;stop-opacity:0.2"/>
			</linearGradient>
			<path fill="url(#SVGID_7_)" d="M1239.7,104.2l3,4c-0.5-0.9-1-1.8-1.5-2.7C1240.6,105.1,1240.2,104.6,1239.7,104.2z"/>
		</g>
		<g opacity="0.25">
			<linearGradient id="SVGID_8_" gradientUnits="userSpaceOnUse" x1="1140.4777" y1="51.4902" x2="1949.6608" y2="51.4902">
				<stop  offset="0" style="stop-color:#00A0DF"/>
				<stop  offset="1" style="stop-color:#EB18FF;stop-opacity:0.2"/>
			</linearGradient>
			<path fill="url(#SVGID_8_)" d="M1936.3-47.4c-4.9-1.1-10,0.2-14.7,2.1c-35.1,13.8-53.9,52.4-85.8,72.5
				c-39.1,24.7-89.7,17.4-134.5,28.8c-22.2,5.7-43,16-65,22.5c-22,6.5-46.5,9.1-67.3-0.7c-7.7-3.6-14.5-8.7-22.4-12
				c-23.9-9.9-50.7-0.5-76.3,2.9s-58.2-4.2-64.1-29.3c13.1-8.6,30.2,1.7,45.9,2c15.8,0.4,31.1-11,35.3-26.3s-3.1-32.9-16.9-40.7
				c-24.7-14-56.1,4.7-83.9-1.2c-11.8-2.5-22.1-9.3-33.5-13.3c-11.3-4.1-25.3-4.8-34.1,3.3c-11.3,10.4-8.1,29.1-1.7,43
				c6.6,14.5,15.3,32.4,5.3,44.7c-7.8,9.5-22.5,9-34.5,6.2c-46.6-10.9-85.4-42.8-118.2-77.6c-5-5.3-11.7-11.2-18.6-8.9
				c-4.6,1.5-7.3,6.2-8.8,10.7c-8.9,27.2,12.5,54.9,35.7,71.6c22.4,16.1,48.9,29,62.9,52.5c10.4,9.2,25.9,13,40.2,12.7
				c19.1-0.4,37.7-6.5,56.7-8.1c35.6-2.9,70.6,10.1,102.2,26.7c9.6,5,19.1,10.4,29.6,12.7c42.6,9.3,82.2-33.7,125.5-28.9
				c20.7,2.3,39.5,15.4,60.3,14.7c38-1.3,61.1-46.4,98.3-54.1c12.4-2.6,25.2-0.7,37.8-0.9c53.2-1.1,97.6-39,137-74.8
				c8.2-7.4,16.7-15.4,19.9-26C1951.9-31.2,1947.1-44.9,1936.3-47.4z"/>
		</g>
	</g>
</g>
<g id="Sky">
	<g opacity="0.69">
		<linearGradient id="SVGID_9_" gradientUnits="userSpaceOnUse" x1="925.0345" y1="233.2691" x2="2460.6167" y2="233.2691">
			<stop  offset="0" style="stop-color:#00A0DF"/>
			<stop  offset="1" style="stop-color:#EB18FF;stop-opacity:0.2"/>
		</linearGradient>
		<path fill="url(#SVGID_9_)" d="M2425.5-53.8c-43.5,27.8,68.4,6.6,24.9,34.4c-17,10.9-189.7,71-209.2,76.3
			c-38.3,10.5-78.6-2.2-118.3-5.3c-164.2-12.9-309.3,138.4-473.1,121c-22.2-2.4-45.2-7.8-66.4-0.8c-11.9,3.9-22.3,11.4-32.9,18.1
			c-33.5,21.1-71.3,34.3-108.6,47.3c-29.7,10.4-59.5,20.8-89.2,31.2c-14.9,5.2-30.2,10.6-42.6,20.4c-14.9,11.8-24.3,28.9-37,43.1
			c-26.2,29.5-65.8,45.9-87.9,78.7c-9.4,13.9-15,30-20.4,45.9c-8.7,25.1-17.3,50.1-26,75.2c-11.9,34.4-27,72.5-60.4,87
			c-38.3,16.7-84.6-7.5-106.7-42.9c-22.1-35.5-26.2-78.9-29.7-120.6c-10.7-127.9-21.4-256.3-15.2-384.5c1.5-31,4.9-64.2,25.2-87.7
			c23-26.6,61-33.3,95.8-38.3c109.1-15.7,218.3-31.3,327.4-47c132.1-19,264.3-37.9,397.4-47.2c150.4-10.5,301.4-8.5,452.2-6.6
			c23.9,0.3,48.1,0.7,71,7.6c39,11.9,69.8,41.4,98.9,70L2425.5-53.8z"/>
	</g>
	<g opacity="0.69">
		
			<linearGradient id="SVGID_10_" gradientUnits="userSpaceOnUse" x1="-1885.9272" y1="-1588.9983" x2="-684.0436" y2="-1588.9983" gradientTransform="matrix(1.795 -0.3528 0.2744 1.3963 4789.3496 2284.9138)">
			<stop  offset="0" style="stop-color:#6B3CFF"/>
			<stop  offset="1" style="stop-color:#EB18FF;stop-opacity:0.2"/>
		</linearGradient>
		<path fill="url(#SVGID_10_)" d="M1004.2,838.7c0.3-29.1,3.2-62.9,32.8-82.5c50.2-33.3,117.5,5.4,180,2.6
			c84.9-3.9,143-82.7,226.1-103c69.6-17,143.2,10.6,211.7-10c74.4-22.3,126-96.8,202.9-96.3c34.2,0.2,67.7,16.2,100.3,5.2
			c15.8-5.3,27.9-16.1,39.4-26.4c55.8-50.4,130.8-106.4,207.6-92.3c48.8,8.9,92.8,45.7,141,28.1c18.8-6.8,32.3-20.6,44.9-33.8
			c48.6-50.9,97.7-102.6,128.9-160.5c6.6-12.3,13.4-25.8,27.7-32.9c19.8-9.9,45.1-3.2,66.3-10.7c22.2-7.8,33.3-29,33.8-47.6
			s-7-36.1-9.8-54.4c-5.3-35.1,7.5-73,35.1-103.4c28.3-31.3,73.6-59.4,73.3-96.1c-0.2-24.8-21.2-51.9-0.1-71.9
			c16.2-15.3,45.4-13.4,67.6-7.5c86.5,22.8,150.5,79.2,190.5,143.4s58.7,136.5,77,208c29.7,115.4,59.3,230.9,89,346.3
			c13.6,53.1,26.8,110.1-0.5,163c-20.9,40.3-62.9,72.6-107.4,99c-129.6,76.9-287.4,114.3-442.2,131.4
			c-154.8,17.1-309.6,15.7-464.5,24.1c-216,11.8-436.1,42.7-645,15.1c-149.8-19.8-289.5-69.9-402.9-144.6
			c-15.1-9.9-32-20.9-52.6-19.3c-14,1.1-26.9,7.9-40.7,10.4s-31.3-2.4-30.8-13.4"/>
	</g>
	<g>
		<radialGradient id="SVGID_11_" cx="1595.948" cy="187.6061" r="124.8337" gradientUnits="userSpaceOnUse">
			<stop  offset="0" style="stop-color:#A4AAFF"/>
			<stop  offset="1" style="stop-color:#76CBFF;stop-opacity:0"/>
		</radialGradient>
		<circle opacity="0.67" fill="url(#SVGID_11_)" cx="1595.9" cy="187.6" r="124.8"/>
		<g>
			<circle fill="#9700B8" cx="1595.9" cy="188.9" r="60.5"/>
			<g>
				<circle fill="#5D0081" cx="1585" cy="233.3" r="7.9"/>
			</g>
			<circle fill="#5D0081" cx="1622.6" cy="192.1" r="7.3"/>
			<path opacity="0.54" fill="#19002F" d="M1554.8,233.3c10.8,10,25.3,16.2,41.2,16.2c33.4,0,60.5-27.1,60.5-60.5
				c0-10.7-2.8-20.8-7.7-29.6C1648.5,159.7,1615.1,216.3,1554.8,233.3z"/>
			<g>
				<path fill="none" stroke="#FFFFFF" stroke-width="4.0889" stroke-linecap="round" stroke-miterlimit="10" d="M1558.2,156.5
					c5.2-9.1,11.4-14.4,22.7-16.9"/>
				<g>
					<g>
						<path fill="#FFFFFF" d="M1587.4,140.4c2.8,0,2.8-4.3,0-4.3C1584.6,136.1,1584.6,140.4,1587.4,140.4L1587.4,140.4z"/>
					</g>
				</g>
			</g>
			<g>
				<circle fill="#5D0081" cx="1565.9" cy="192.7" r="7.9"/>
			</g>
			<g>
				<circle fill="#5D0081" cx="1585" cy="192.7" r="5.1"/>
			</g>
			<g>
				<circle fill="#5D0081" cx="1606.6" cy="146.2" r="5.1"/>
			</g>
			<path fill="none" stroke="#EB18FF" stroke-width="6.8551" stroke-miterlimit="10" d="M1637.7,148.9c19.3-8.1,33.9-10,38.4-3.7
				c8.1,11.3-19.3,44.7-61.2,74.6c-41.9,29.9-82.3,45-90.4,33.7c-4.8-6.7,3-21.3,18.9-38.3"/>
			<path fill="#9700B8" d="M1629.3,138.5c8,5.3,14.7,12.5,19.4,20.9l-13.9,2L1629.3,138.5z"/>
			<path fill="#9700B8" d="M1535.5,188.9c0,10.4,3.2,22,9.1,32l10.1-12.9L1535.5,188.9z"/>
			<path fill="#5D0081" d="M1640,147.5c-5.4-5.7-11.8-10.3-19-13.6c-0.9,1.7-1.5,3.7-1.5,5.7c0,6.5,5.3,11.8,11.8,11.8
				C1634.7,151.4,1637.8,149.9,1640,147.5z"/>
		</g>
	</g>
	<g>
		<radialGradient id="SVGID_12_" cx="1816.5829" cy="0.9192" r="107.4925" gradientUnits="userSpaceOnUse">
			<stop  offset="0" style="stop-color:#D3FFF3"/>
			<stop  offset="0.404" style="stop-color:#AAB3F8;stop-opacity:0.596"/>
			<stop  offset="1" style="stop-color:#6B3CFF;stop-opacity:0"/>
		</radialGradient>
		<circle opacity="0.69" fill="url(#SVGID_12_)" cx="1816.6" cy="0.9" r="107.5"/>
		<g>
			<circle fill="#76CBFF" cx="1816.6" cy="2.1" r="54.1"/>
			<g>
				<circle fill="#00A0DF" cx="1806.8" cy="41.7" r="7.1"/>
			</g>
			<circle fill="#00A0DF" cx="1840.4" cy="4.9" r="6.5"/>
			<g>
				<circle fill="#00A0DF" cx="1789.7" cy="5.5" r="7.1"/>
			</g>
			<g>
				<circle fill="#00A0DF" cx="1806.8" cy="5.5" r="4.6"/>
			</g>
			<path opacity="0.54" fill="#0084BF" d="M1779.8,41.7c9.7,9,22.6,14.5,36.8,14.5c29.9,0,54.1-24.2,54.1-54.1
				c0-9.6-2.5-18.6-6.9-26.4"/>
		</g>
	</g>
	<g id="Layer_12">
	</g>
	<g>
		<radialGradient id="SVGID_13_" cx="2814.7998" cy="32.7906" r="154.8155" gradientUnits="userSpaceOnUse">
			<stop  offset="0" style="stop-color:#5D0081"/>
			<stop  offset="0.5422" style="stop-color:#A80DC4;stop-opacity:0.4578"/>
			<stop  offset="1" style="stop-color:#EB18FF;stop-opacity:0"/>
		</radialGradient>
		<circle fill="url(#SVGID_13_)" cx="2814.8" cy="32.8" r="154.8"/>
		<g>
			<circle fill="#6B3CFF" cx="2814.8" cy="34.5" r="75"/>
			<g>
				<circle fill="#4A00D0" cx="2801.2" cy="89.4" r="9.8"/>
			</g>
			<circle fill="#4A00D0" cx="2847.8" cy="38.4" r="9"/>
			<path opacity="0.54" fill="#1E0080" d="M2763.8,89.4c13.4,12.4,31.3,20,51,20c41.4,0,75-33.6,75-75c0-13.3-3.5-25.8-9.6-36.7
				C2880-1.8,2838.5,68.4,2763.8,89.4z"/>
			<g>
				<circle fill="#4A00D0" cx="2777.6" cy="39.2" r="9.8"/>
			</g>
			<g>
				<circle fill="#4A00D0" cx="2801.2" cy="39.2" r="6.4"/>
			</g>
			<path fill="none" stroke="#EB18FF" stroke-width="8.5015" stroke-miterlimit="10" d="M2866.6-15.2c23.9-10.1,42-12.5,47.6-4.6
				c10,14-24,55.4-75.9,92.5s-102.1,55.8-112.1,41.8c-6-8.3,3.7-26.4,23.4-47.5"/>
			<path fill="#6B3CFF" d="M2856.2-28.1c9.9,6.6,18.2,15.5,24,25.9l-17.2,2.4L2856.2-28.1z"/>
			<path fill="#6B3CFF" d="M2739.8,34.5c0,12.9,3.9,27.3,11.3,39.7l12.5-16L2739.8,34.5z"/>
		</g>
	</g>
	<g>
		<g>
			<g opacity="0.18">
				<g>
					<path fill="#FFFFFF" d="M2218.2,498.9c-15.9-0.1-28.8,12.8-28.9,28.7l57.5,0.2C2246.9,511.8,2234.1,498.9,2218.2,498.9"/>
				</g>
			</g>
			<g opacity="0.36">
				<g>
					<path opacity="0.22" fill="#FFFFFF" d="M2218.1,498.9c-15.9-0.1-28.8,12.8-28.9,28.7"/>
				</g>
			</g>
			
				<rect x="2210.6" y="557.2" transform="matrix(3.270150e-03 -1 1 3.270150e-03 1652.3275 2774.4727)" fill="#EB18FF" width="14.7" height="2.3"/>
			
				<rect x="2186.8" y="558.4" transform="matrix(0.7094 -0.7048 0.7048 0.7094 244.01 1710.9135)" fill="#EB18FF" width="20.1" height="2.2"/>
			<g>
				<path fill="#9700B8" d="M2193.2,569.8c0-3.5-2.8-6.3-6.2-6.3c-3.5,0-6.3,2.8-6.3,6.2L2193.2,569.8z"/>
			</g>
			
				<rect x="2237.9" y="549.6" transform="matrix(0.7094 -0.7048 0.7048 0.7094 256.1562 1740.6482)" fill="#EB18FF" width="2.2" height="20.1"/>
			<g>
				<path fill="#9700B8" d="M2242.6,570c0-3.5,2.8-6.3,6.3-6.2c3.5,0,6.3,2.8,6.2,6.3L2242.6,570z"/>
				<path fill="#9700B8" d="M2224.2,569.9c0-3.5-2.8-6.3-6.2-6.3c-3.5,0-6.3,2.8-6.3,6.2L2224.2,569.9z"/>
				<path fill="#EB18FF" d="M2198.9,540.3c0,10.5,8.5,19.1,19,19.1c10.5,0,19.1-8.5,19.1-19L2198.9,540.3z"/>
				<path fill="#9700B8" d="M2257.6,535.9l-79.2-0.3c-2.1,0-3.8,1.7-3.8,3.8l0,4.7l86.7,0.3l0-4.7
					C2261.3,537.6,2259.7,535.9,2257.6,535.9"/>
			</g>
			
				<rect x="2213.9" y="502.9" transform="matrix(3.270150e-03 -1 1 3.270150e-03 1679.0719 2747.9377)" fill="#EB18FF" width="8.1" height="57.5"/>
			<g>
				<path fill="#5D0081" d="M2245.3,540.1c0,0.9-0.7,1.6-1.6,1.6c-0.9,0-1.6-0.7-1.6-1.6s0.7-1.6,1.6-1.6
					C2244.6,538.5,2245.3,539.2,2245.3,540.1"/>
				<path fill="#5D0081" d="M2251.3,540.1c0,0.9-0.7,1.6-1.6,1.6c-0.9,0-1.6-0.7-1.6-1.6s0.7-1.6,1.6-1.6S2251.3,539.2,2251.3,540.1
					"/>
				<path fill="#5D0081" d="M2257.3,540.1c0,0.9-0.7,1.6-1.6,1.6c-0.9,0-1.6-0.7-1.6-1.6s0.7-1.6,1.6-1.6
					C2256.6,538.5,2257.3,539.2,2257.3,540.1"/>
				<path fill="#5D0081" d="M2181.9,539.9c0,0.9-0.7,1.6-1.6,1.6c-0.9,0-1.6-0.7-1.6-1.6s0.7-1.6,1.6-1.6
					C2181.2,538.3,2181.9,539,2181.9,539.9"/>
				<path fill="#5D0081" d="M2187.8,539.9c0,0.9-0.7,1.6-1.6,1.6c-0.9,0-1.6-0.7-1.6-1.6c0-0.9,0.7-1.6,1.6-1.6
					C2187.1,538.3,2187.8,539,2187.8,539.9"/>
				<path fill="#5D0081" d="M2193.8,539.9c0,0.9-0.7,1.6-1.6,1.6c-0.9,0-1.6-0.7-1.6-1.6s0.7-1.6,1.6-1.6
					C2193.1,538.3,2193.8,539,2193.8,539.9"/>
			</g>
			
				<rect x="2217.4" y="518.7" transform="matrix(3.270150e-03 -1 1 3.270150e-03 1671.7869 2755.1516)" fill="#F9A6FF" width="1.1" height="40.5"/>
			
				<rect x="2217.4" y="521.3" transform="matrix(3.270150e-03 -1 1 3.270150e-03 1669.1466 2757.7661)" fill="#F9A6FF" width="1.1" height="40.5"/>
			<path opacity="0.54" fill="#5D0081" d="M2236.6,544.2l-10.4,0c0,0-1.1,7.6-21.4,9.9l0,0c3.4,3.3,8,5.3,13.1,5.3
				C2227.1,559.4,2234.8,552.9,2236.6,544.2z"/>
		</g>
		<g>
			<path fill="none" stroke="#FFFFFF" stroke-width="0.9076" stroke-linecap="round" stroke-miterlimit="10" d="M2200.1,508
				c0,0,1.7-3.2,7.6-5.4"/>
			
				<line fill="none" stroke="#FFFFFF" stroke-width="0.9076" stroke-linecap="round" stroke-miterlimit="10" x1="2209.1" y1="502" x2="2209.6" y2="501.8"/>
		</g>
		<path fill="none" stroke="#FFFFFF" stroke-width="0.9076" stroke-linecap="round" stroke-miterlimit="10" d="M2182.3,567.6
			c0,0,2.4-3.5,5.3-2.7"/>
		<path fill="none" stroke="#FFFFFF" stroke-width="0.9076" stroke-linecap="round" stroke-miterlimit="10" d="M2213.6,568
			c0,0,1.4-3.4,4.4-3.2"/>
		<path fill="none" stroke="#FFFFFF" stroke-width="0.9076" stroke-linecap="round" stroke-miterlimit="10" d="M2244.6,568.1
			c0,0,1.4-3.4,4.4-3.2"/>
		<path fill="none" stroke="#FFFFFF" stroke-width="0.9076" stroke-linecap="round" stroke-miterlimit="10" d="M2176,540.2
			c0.1-0.4-0.5-3.2,3.4-3.5"/>
	</g>
	<g>
		<radialGradient id="SVGID_14_" cx="2382.9724" cy="266.3633" r="82.4734" gradientUnits="userSpaceOnUse">
			<stop  offset="0" style="stop-color:#76CBFF"/>
			<stop  offset="0.4385" style="stop-color:#A87FFF;stop-opacity:0.5615"/>
			<stop  offset="1" style="stop-color:#EB18FF;stop-opacity:0"/>
		</radialGradient>
		<circle opacity="0.69" fill="url(#SVGID_14_)" cx="2383" cy="266.4" r="82.5"/>
		<g>
			<circle fill="#EB18FF" cx="2383" cy="267.3" r="41.5"/>
			<g>
				<circle fill="#9700B8" cx="2375.5" cy="297.7" r="5.4"/>
			</g>
			<circle fill="#9700B8" cx="2401.2" cy="269.5" r="5"/>
			<g>
				<path fill="none" stroke="#FFFFFF" stroke-width="2.8048" stroke-linecap="round" stroke-miterlimit="10" d="M2357.1,245
					c3.5-6.3,7.8-9.9,15.6-11.6"/>
				<g>
					<g>
						<path fill="#FFFFFF" d="M2377.1,234c1.9,0,1.9-3,0-3C2375.2,231,2375.2,234,2377.1,234L2377.1,234z"/>
					</g>
				</g>
			</g>
			<g>
				<circle fill="#9700B8" cx="2362.4" cy="269.9" r="5.4"/>
			</g>
			<g>
				<circle fill="#9700B8" cx="2375.5" cy="269.9" r="3.5"/>
			</g>
			<g>
				<circle fill="#9700B8" cx="2390.3" cy="238" r="3.5"/>
			</g>
			<path fill="#9700B8" d="M2413.2,238.8c-3.7-3.9-8.1-7.1-13-9.3c-0.7,1.2-1,2.5-1,3.9c0,4.5,3.6,8.1,8.1,8.1
				C2409.6,241.5,2411.7,240.5,2413.2,238.8z"/>
			<path opacity="0.54" fill="#5D0081" d="M2354.7,297.7c7.4,6.9,17.3,11.1,28.2,11.1c22.9,0,41.5-18.6,41.5-41.5
				c0-7.4-1.9-14.3-5.3-20.3C2419,247.3,2396.1,286.1,2354.7,297.7z"/>
		</g>
	</g>
</g>
<g id="Mountains">
	<g>
		<path fill="#2C0051" d="M3003.2,607.5c-3.9-16.1-8.7-31.9-14.5-47.5c-3.7-10.1-9.3-21.4-20.4-24c-4.3-1-8.9-0.5-13-2.1
			c-5.5-2.1-8.7-7.4-10.7-12.6c-7.7-21.1-1.8-49.8-22-61.3c-15-8.5-35.8,0.2-45.2,14.2s-10.7,31.4-11.6,47.9
			c-20.2-5.1-27-28.4-30-47.9c-3-19.5-8.8-42.8-28.6-49c-11.3-3.5-24,0.1-33.4,7.1c-9.4,6.9-15.8,16.7-21.2,26.7
			c-2.7,5-7,10.9-12.7,9.8c-2.8-0.5-4.9-2.7-6.6-4.8c-18.6-23.1-17.4-56.9-37.3-79.1c-2.9-3.2-6.8-6.3-11.2-5.6
			c-5,0.7-7.7,5.8-9.5,10.2c-3,6.9-5.9,13.9-8.9,20.8c-2.6,6.1-5.5,12.6-11.3,16.3c-11.8,7.6-28.6-1-35.1-12.9
			c-6.4-11.9-6.2-25.9-9-39.1c-2.7-13.1-10.4-27.2-24.3-30.2c-19.8-4.3-35.2,15.8-44.5,32.9c-9,16.6-17.9,33.2-26.9,49.7
			c-3.1,5.7-6.4,11.6-11.8,15.5c-5.4,3.9-13.7,4.9-18.8,0.7c-10.4-8.8,0.5-30.5-12.4-35.7c-10.6-4.3-18.5,10.1-18.9,21
			c-0.3,10.8-2.1,25.4-13.5,26.9c-25.8-22.3-16.1-62.1-25.2-93.9c-0.8-2.9-2-5.9-4.5-7.7c-6.9-4.8-15.7,3.1-19.9,10.2
			c-11.5,19.6-20.1,40.6-25.5,62.3c-9,0.4-15.9-7.5-19.8-15.2s-6.7-16.5-14-21.4c-12.6-8.6-30.9-0.7-41.3,10.3
			c-25.9,27.5-25.5,67.9-33,103.9c-4.4,21.4-12.1,42.1-19.7,62.7c-7.7,20.9-18.3,44.5-40.7,50.8L3003.2,607.5z"/>
	</g>
	<g>
		<path fill="#2C0051" d="M1993.4,635.8c11-11.6,3.3-31.8-8.6-42.4s-27.5-16.9-36.9-29.9c-8.5-11.7-10.7-27.3-19.1-39.2
			c-8.3-11.9-28.6-17.4-35.5-4.6c-1.8,3.2-2.4,7.3-5.2,9.6c-5.3,4.4-13.1-1-17-6.8c-9.6-14.7-11.7-33.1-14.4-50.6
			c-2.7-17.5-6.8-36-19-48.4s-35.3-15-45.5-0.8c-3.8,5.3-5.9,12.5-11.8,15c-7,3-14.7-3-18.7-9.6c-4-6.6-6.6-14.6-12.7-19.3
			c-10.8-8.4-26.2-2.3-37.4,5.5c-15.7,10.9-29.4,24.8-40.3,40.8c-8.7,12.9-20.3,29.2-35,25.1c-12.5-3.5-16.4-19.7-16.9-33
			c-0.5-13.3-0.7-28.9-11-36.9c-14.7-11.4-35.4,2.4-46.4,17.5c-4.7,6.5-10.4,14.2-18.3,13.9c-18.8-0.6-12.4-38.1-30.1-44.8
			c-11.8-4.5-22.3,9.2-27.4,21.1c-5.1,11.9-12.8,26.4-25.3,25.3c-10.2-13.5-5.6-32.8-3.7-49.8c1.9-17-3.6-39.2-20.1-41.2
			c-13.8-1.7-24.2,12.4-30.1,25.4c-7,15.4-12,31.7-15.1,48.3c-3.3,17.9-5.8,38.9-21,48.1c-7.9-5.6-6.9-17.6-7.5-27.5
			c-0.6-9.9-8.4-22-17.1-17.9c-6.2,2.9-6.8,11.4-7.9,18.3c-1.2,6.9-6.9,15-13.1,12.1c-3.9-1.9-4.9-7-5.4-11.5
			c-2.3-21.4-4.6-42.8-6.9-64.2c-0.4-4.1-1-8.5-3.7-11.6c-4.6-5.3-13.4-4-18.9,0.3c-11.9,9.5-12.6,27.4-13.2,43
			c-0.6,15.5-4.2,34-18.2,39.9c0.4-45.1-6-90.2-19-133.3c-3.4-11.5-9.4-24.7-21-26.4c-9.1-1.3-17.5,5.6-22.8,13.3
			c-15,22.1-13.9,51.5-21.1,77.4c-5.9,21-17.3,39.9-25.3,60.2c-20.6,52.1-20.6,117-62,153.7L1993.4,635.8z"/>
	</g>
</g>
<g id="Trees">
	<g>
		<g>
			
				<linearGradient id="SVGID_15_" gradientUnits="userSpaceOnUse" x1="5224.6323" y1="2858.6074" x2="5225.873" y2="2901.8872" gradientTransform="matrix(-1 0 0 -1 6844.3315 3411.6443)">
				<stop  offset="0" style="stop-color:#00A0DF"/>
				<stop  offset="1" style="stop-color:#EB18FF;stop-opacity:0.2"/>
			</linearGradient>
			<path opacity="0.66" fill="url(#SVGID_15_)" d="M1607.6,539.5c0-14.6,5.3-30,11.7-30c6.5,0,11.7,15.4,11.7,30
				s-5.3,15.4-11.7,15.4C1612.8,555,1607.6,554.2,1607.6,539.5z"/>
			<g>
				<path fill="none" stroke="#FFFFFF" stroke-width="0.629" stroke-linecap="round" stroke-miterlimit="10" d="M1612.3,519.5
					c0,0,1.3-5.5,5.5-8.2"/>
				
					<line fill="none" stroke="#FFFFFF" stroke-width="0.629" stroke-linecap="round" stroke-miterlimit="10" x1="1618.7" y1="510.9" x2="1619" y2="510.8"/>
			</g>
			
				<linearGradient id="SVGID_16_" gradientUnits="userSpaceOnUse" x1="4747.02" y1="2866.9226" x2="4747.02" y2="2838.9482" gradientTransform="matrix(-1 0 0 -1 6366.3315 3411.2336)">
				<stop  offset="0" style="stop-color:#00A0DF"/>
				<stop  offset="9.745157e-02" style="stop-color:#2D86E5;stop-opacity:0.922"/>
				<stop  offset="0.221" style="stop-color:#5F69EC;stop-opacity:0.8232"/>
				<stop  offset="0.3475" style="stop-color:#8A50F2;stop-opacity:0.722"/>
				<stop  offset="0.4746" style="stop-color:#AD3CF7;stop-opacity:0.6203"/>
				<stop  offset="0.6026" style="stop-color:#C82CFA;stop-opacity:0.5179"/>
				<stop  offset="0.7319" style="stop-color:#DC21FD;stop-opacity:0.4144"/>
				<stop  offset="0.8633" style="stop-color:#E71AFE;stop-opacity:0.3093"/>
				<stop  offset="1" style="stop-color:#EB18FF;stop-opacity:0.2"/>
			</linearGradient>
			
				<line fill="none" stroke="url(#SVGID_16_)" stroke-width="2.6207" stroke-linecap="round" stroke-miterlimit="10" x1="1619.3" y1="571" x2="1619.3" y2="545.6"/>
		</g>
	</g>
	<g>
		<g>
			
				<linearGradient id="SVGID_17_" gradientUnits="userSpaceOnUse" x1="5367.2988" y1="2858.6074" x2="5368.54" y2="2901.8872" gradientTransform="matrix(-1 0 0 -1 6844.3315 3411.6443)">
				<stop  offset="0" style="stop-color:#00A0DF"/>
				<stop  offset="1" style="stop-color:#EB18FF;stop-opacity:0.2"/>
			</linearGradient>
			<path opacity="0.66" fill="url(#SVGID_17_)" d="M1464.9,539.5c0-14.6,5.3-30,11.7-30c6.5,0,11.7,15.4,11.7,30
				s-5.3,15.4-11.7,15.4C1470.2,555,1464.9,554.2,1464.9,539.5z"/>
			<g>
				<path fill="none" stroke="#FFFFFF" stroke-width="0.629" stroke-linecap="round" stroke-miterlimit="10" d="M1469.7,519.5
					c0,0,1.3-5.5,5.5-8.2"/>
				
					<line fill="none" stroke="#FFFFFF" stroke-width="0.629" stroke-linecap="round" stroke-miterlimit="10" x1="1476" y1="510.9" x2="1476.4" y2="510.8"/>
			</g>
			
				<linearGradient id="SVGID_18_" gradientUnits="userSpaceOnUse" x1="4889.6865" y1="2866.9226" x2="4889.6865" y2="2838.9482" gradientTransform="matrix(-1 0 0 -1 6366.3315 3411.2336)">
				<stop  offset="0" style="stop-color:#00A0DF"/>
				<stop  offset="9.745157e-02" style="stop-color:#2D86E5;stop-opacity:0.922"/>
				<stop  offset="0.221" style="stop-color:#5F69EC;stop-opacity:0.8232"/>
				<stop  offset="0.3475" style="stop-color:#8A50F2;stop-opacity:0.722"/>
				<stop  offset="0.4746" style="stop-color:#AD3CF7;stop-opacity:0.6203"/>
				<stop  offset="0.6026" style="stop-color:#C82CFA;stop-opacity:0.5179"/>
				<stop  offset="0.7319" style="stop-color:#DC21FD;stop-opacity:0.4144"/>
				<stop  offset="0.8633" style="stop-color:#E71AFE;stop-opacity:0.3093"/>
				<stop  offset="1" style="stop-color:#EB18FF;stop-opacity:0.2"/>
			</linearGradient>
			
				<line fill="none" stroke="url(#SVGID_18_)" stroke-width="2.6207" stroke-linecap="round" stroke-miterlimit="10" x1="1476.6" y1="571" x2="1476.6" y2="545.6"/>
		</g>
	</g>
	<g>
		<g>
			
				<linearGradient id="SVGID_19_" gradientUnits="userSpaceOnUse" x1="4029.1438" y1="2858.6074" x2="4030.3848" y2="2901.8872" gradientTransform="matrix(-1 0 0 -1 6844.3315 3411.6443)">
				<stop  offset="0" style="stop-color:#00A0DF"/>
				<stop  offset="1" style="stop-color:#EB18FF;stop-opacity:0.2"/>
			</linearGradient>
			<path opacity="0.66" fill="url(#SVGID_19_)" d="M2803.1,539.5c0-14.6,5.3-30,11.7-30c6.5,0,11.7,15.4,11.7,30
				s-5.3,15.4-11.7,15.4C2808.3,555,2803.1,554.2,2803.1,539.5z"/>
			<g>
				<path fill="none" stroke="#FFFFFF" stroke-width="0.629" stroke-linecap="round" stroke-miterlimit="10" d="M2807.8,519.5
					c0,0,1.3-5.5,5.5-8.2"/>
				
					<line fill="none" stroke="#FFFFFF" stroke-width="0.629" stroke-linecap="round" stroke-miterlimit="10" x1="2814.2" y1="510.9" x2="2814.5" y2="510.8"/>
			</g>
			
				<linearGradient id="SVGID_20_" gradientUnits="userSpaceOnUse" x1="3551.5315" y1="2866.9226" x2="3551.5315" y2="2838.9482" gradientTransform="matrix(-1 0 0 -1 6366.3315 3411.2336)">
				<stop  offset="0" style="stop-color:#00A0DF"/>
				<stop  offset="9.745157e-02" style="stop-color:#2D86E5;stop-opacity:0.922"/>
				<stop  offset="0.221" style="stop-color:#5F69EC;stop-opacity:0.8232"/>
				<stop  offset="0.3475" style="stop-color:#8A50F2;stop-opacity:0.722"/>
				<stop  offset="0.4746" style="stop-color:#AD3CF7;stop-opacity:0.6203"/>
				<stop  offset="0.6026" style="stop-color:#C82CFA;stop-opacity:0.5179"/>
				<stop  offset="0.7319" style="stop-color:#DC21FD;stop-opacity:0.4144"/>
				<stop  offset="0.8633" style="stop-color:#E71AFE;stop-opacity:0.3093"/>
				<stop  offset="1" style="stop-color:#EB18FF;stop-opacity:0.2"/>
			</linearGradient>
			
				<line fill="none" stroke="url(#SVGID_20_)" stroke-width="2.6207" stroke-linecap="round" stroke-miterlimit="10" x1="2814.8" y1="571" x2="2814.8" y2="545.6"/>
		</g>
	</g>
	<g>
		<g>
			
				<linearGradient id="SVGID_21_" gradientUnits="userSpaceOnUse" x1="4271.4897" y1="2858.6074" x2="4272.731" y2="2901.8872" gradientTransform="matrix(-1 0 0 -1 6844.3315 3411.6443)">
				<stop  offset="0" style="stop-color:#00A0DF"/>
				<stop  offset="1" style="stop-color:#EB18FF;stop-opacity:0.2"/>
			</linearGradient>
			<path opacity="0.66" fill="url(#SVGID_21_)" d="M2560.7,539.5c0-14.6,5.3-30,11.7-30c6.5,0,11.7,15.4,11.7,30
				s-5.3,15.4-11.7,15.4C2566,555,2560.7,554.2,2560.7,539.5z"/>
			<g>
				<path fill="none" stroke="#FFFFFF" stroke-width="0.629" stroke-linecap="round" stroke-miterlimit="10" d="M2565.5,519.5
					c0,0,1.3-5.5,5.5-8.2"/>
				
					<line fill="none" stroke="#FFFFFF" stroke-width="0.629" stroke-linecap="round" stroke-miterlimit="10" x1="2571.8" y1="510.9" x2="2572.2" y2="510.8"/>
			</g>
			
				<linearGradient id="SVGID_22_" gradientUnits="userSpaceOnUse" x1="3793.8777" y1="2866.9226" x2="3793.8777" y2="2838.9482" gradientTransform="matrix(-1 0 0 -1 6366.3315 3411.2336)">
				<stop  offset="0" style="stop-color:#00A0DF"/>
				<stop  offset="9.745157e-02" style="stop-color:#2D86E5;stop-opacity:0.922"/>
				<stop  offset="0.221" style="stop-color:#5F69EC;stop-opacity:0.8232"/>
				<stop  offset="0.3475" style="stop-color:#8A50F2;stop-opacity:0.722"/>
				<stop  offset="0.4746" style="stop-color:#AD3CF7;stop-opacity:0.6203"/>
				<stop  offset="0.6026" style="stop-color:#C82CFA;stop-opacity:0.5179"/>
				<stop  offset="0.7319" style="stop-color:#DC21FD;stop-opacity:0.4144"/>
				<stop  offset="0.8633" style="stop-color:#E71AFE;stop-opacity:0.3093"/>
				<stop  offset="1" style="stop-color:#EB18FF;stop-opacity:0.2"/>
			</linearGradient>
			
				<line fill="none" stroke="url(#SVGID_22_)" stroke-width="2.6207" stroke-linecap="round" stroke-miterlimit="10" x1="2572.5" y1="571" x2="2572.5" y2="545.6"/>
		</g>
	</g>
	<g>
		<g>
			<g>
				<linearGradient id="SVGID_23_" gradientUnits="userSpaceOnUse" x1="1584.23" y1="500.1957" x2="1585.7795" y2="554.2355">
					<stop  offset="0" style="stop-color:#6B3CFF"/>
					<stop  offset="1" style="stop-color:#EB18FF;stop-opacity:0.2"/>
				</linearGradient>
				<path fill="url(#SVGID_23_)" d="M1600.1,538.5c-0.9-0.9-2-1.6-2.9-2.6c-2-2.2-2.6-5.6-1.6-8.4c0.5-1.4,1.5-2.8,1.8-4.3
					c0.6-3.1-1.6-6-3.4-8.5c-0.6-0.8-1.2-1.7-1.7-2.7c-0.7-1.4-0.9-3.1-0.4-4.6c0.4-1.3,0.4-2.8-0.2-4.1c-0.8-1.8-2.7-3.1-4.7-3.3
					h-2.7c-2,0.1-3.9,1.4-4.7,3.3c-0.6,1.3-0.6,2.8-0.2,4.1c0.5,1.5,0.3,3.2-0.4,4.6c-0.5,1-1.1,1.9-1.7,2.7c-1.9,2.5-4,5.4-3.4,8.5
					c0.3,1.5,1.2,2.8,1.8,4.3c1,2.8,0.4,6.1-1.6,8.4c-0.9,1-1.9,1.7-2.9,2.6c-3,2.8-4.5,7.6-2.4,11.1c1.7,2.8,5,4.4,8.4,4.4h8.4h0.2
					h8.4c3.4,0,6.7-1.6,8.4-4.4C1604.6,546.1,1603.1,541.3,1600.1,538.5z"/>
			</g>
			<linearGradient id="SVGID_24_" gradientUnits="userSpaceOnUse" x1="1585.033" y1="539.7589" x2="1586.0485" y2="575.1747">
				<stop  offset="0" style="stop-color:#00A0DF"/>
				<stop  offset="1" style="stop-color:#EB18FF;stop-opacity:0.2"/>
			</linearGradient>
			
				<line fill="#5451B7" stroke="url(#SVGID_24_)" stroke-width="2.5092" stroke-linecap="round" stroke-miterlimit="10" x1="1585.5" y1="541" x2="1585.5" y2="573.9"/>
			<path fill="none" stroke="#FFFFFF" stroke-width="0.6759" stroke-linecap="round" stroke-miterlimit="10" d="M1581.1,507.6
				c0,0-2.3-5,3-6.1"/>
			
				<line fill="none" stroke="#FFFFFF" stroke-width="0.6759" stroke-linecap="round" stroke-miterlimit="10" x1="1585.1" y1="501.3" x2="1585.7" y2="501.3"/>
		</g>
	</g>
	<g>
		<g>
			<g>
				<linearGradient id="SVGID_25_" gradientUnits="userSpaceOnUse" x1="2505.7686" y1="506.7803" x2="2507.1978" y2="556.6282">
					<stop  offset="0" style="stop-color:#6B3CFF"/>
					<stop  offset="1" style="stop-color:#EB18FF;stop-opacity:0.2"/>
				</linearGradient>
				<path fill="url(#SVGID_25_)" d="M2520.4,542.1c-0.9-0.8-1.8-1.5-2.6-2.4c-1.8-2-2.4-5.1-1.5-7.7c0.5-1.3,1.4-2.5,1.6-3.9
					c0.6-2.9-1.4-5.5-3.2-7.8c-0.6-0.8-1.1-1.6-1.6-2.5c-0.7-1.3-0.8-2.8-0.4-4.2c0.4-1.2,0.3-2.6-0.2-3.8c-0.8-1.7-2.5-2.9-4.4-3
					h-2.5c-1.9,0.1-3.6,1.3-4.4,3c-0.5,1.2-0.6,2.5-0.2,3.8c0.4,1.4,0.3,2.9-0.4,4.2c-0.4,0.9-1,1.7-1.6,2.5c-1.7,2.3-3.7,5-3.2,7.8
					c0.3,1.4,1.1,2.6,1.6,3.9c1,2.6,0.4,5.7-1.5,7.7c-0.8,0.9-1.8,1.6-2.6,2.4c-2.8,2.6-4.2,7-2.2,10.2c1.6,2.6,4.7,4.1,7.8,4.1h7.7
					h0.2h7.7c3.1,0,6.2-1.5,7.8-4.1C2524.6,549.1,2523.2,544.7,2520.4,542.1z"/>
			</g>
			<linearGradient id="SVGID_26_" gradientUnits="userSpaceOnUse" x1="2506.509" y1="543.2746" x2="2507.4458" y2="575.9431">
				<stop  offset="0" style="stop-color:#00A0DF"/>
				<stop  offset="1" style="stop-color:#EB18FF;stop-opacity:0.2"/>
			</linearGradient>
			
				<line fill="#5451B7" stroke="url(#SVGID_26_)" stroke-width="2.3145" stroke-linecap="round" stroke-miterlimit="10" x1="2507" y1="544.4" x2="2507" y2="574.8"/>
			<path fill="none" stroke="#FFFFFF" stroke-width="0.6235" stroke-linecap="round" stroke-miterlimit="10" d="M2502.9,513.6
				c0,0-2.1-4.6,2.8-5.7"/>
			
				<line fill="none" stroke="#FFFFFF" stroke-width="0.6235" stroke-linecap="round" stroke-miterlimit="10" x1="2506.6" y1="507.8" x2="2507.1" y2="507.8"/>
		</g>
	</g>
	<g>
		<g>
			
				<linearGradient id="SVGID_27_" gradientUnits="userSpaceOnUse" x1="5635.9683" y1="2856.7729" x2="5637.209" y2="2900.0527" gradientTransform="matrix(-1 0 0 -1 6844.3315 3411.6443)">
				<stop  offset="0" style="stop-color:#00A0DF"/>
				<stop  offset="1" style="stop-color:#EB18FF;stop-opacity:0.2"/>
			</linearGradient>
			<path opacity="0.66" fill="url(#SVGID_27_)" d="M1196.2,541.4c0-14.6,5.3-30,11.7-30c6.5,0,11.7,15.4,11.7,30
				s-5.3,15.4-11.7,15.4C1201.5,556.8,1196.2,556,1196.2,541.4z"/>
			<g>
				<path fill="none" stroke="#FFFFFF" stroke-width="0.629" stroke-linecap="round" stroke-miterlimit="10" d="M1201,521.4
					c0,0,1.3-5.5,5.5-8.2"/>
				
					<line fill="none" stroke="#FFFFFF" stroke-width="0.629" stroke-linecap="round" stroke-miterlimit="10" x1="1207.4" y1="512.7" x2="1207.7" y2="512.6"/>
			</g>
			
				<linearGradient id="SVGID_28_" gradientUnits="userSpaceOnUse" x1="5158.356" y1="2865.0881" x2="5158.356" y2="2837.1138" gradientTransform="matrix(-1 0 0 -1 6366.3315 3411.2336)">
				<stop  offset="0" style="stop-color:#00A0DF"/>
				<stop  offset="9.745157e-02" style="stop-color:#2D86E5;stop-opacity:0.922"/>
				<stop  offset="0.221" style="stop-color:#5F69EC;stop-opacity:0.8232"/>
				<stop  offset="0.3475" style="stop-color:#8A50F2;stop-opacity:0.722"/>
				<stop  offset="0.4746" style="stop-color:#AD3CF7;stop-opacity:0.6203"/>
				<stop  offset="0.6026" style="stop-color:#C82CFA;stop-opacity:0.5179"/>
				<stop  offset="0.7319" style="stop-color:#DC21FD;stop-opacity:0.4144"/>
				<stop  offset="0.8633" style="stop-color:#E71AFE;stop-opacity:0.3093"/>
				<stop  offset="1" style="stop-color:#EB18FF;stop-opacity:0.2"/>
			</linearGradient>
			
				<line fill="none" stroke="url(#SVGID_28_)" stroke-width="2.6207" stroke-linecap="round" stroke-miterlimit="10" x1="1208" y1="572.8" x2="1208" y2="547.5"/>
		</g>
	</g>
	<g>
		<g>
			<g>
				<linearGradient id="SVGID_29_" gradientUnits="userSpaceOnUse" x1="1170.8942" y1="500.1957" x2="1172.4437" y2="554.2355">
					<stop  offset="0" style="stop-color:#6B3CFF"/>
					<stop  offset="1" style="stop-color:#EB18FF;stop-opacity:0.2"/>
				</linearGradient>
				<path fill="url(#SVGID_29_)" d="M1186.8,538.5c-0.9-0.9-2-1.6-2.9-2.6c-2-2.2-2.6-5.6-1.6-8.4c0.5-1.4,1.5-2.8,1.8-4.3
					c0.6-3.1-1.6-6-3.4-8.5c-0.6-0.8-1.2-1.7-1.7-2.7c-0.7-1.4-0.9-3.1-0.4-4.6c0.4-1.3,0.4-2.8-0.2-4.1c-0.8-1.8-2.7-3.1-4.7-3.3
					h-2.7c-2,0.1-3.9,1.4-4.7,3.3c-0.6,1.3-0.6,2.8-0.2,4.1c0.5,1.5,0.3,3.2-0.4,4.6c-0.5,1-1.1,1.9-1.7,2.7c-1.9,2.5-4,5.4-3.4,8.5
					c0.3,1.5,1.2,2.8,1.8,4.3c1,2.8,0.4,6.1-1.6,8.4c-0.9,1-1.9,1.7-2.9,2.6c-3,2.8-4.5,7.6-2.4,11.1c1.7,2.8,5,4.4,8.4,4.4h8.4h0.2
					h8.4c3.4,0,6.7-1.6,8.4-4.4C1191.3,546.1,1189.7,541.3,1186.8,538.5z"/>
			</g>
			<linearGradient id="SVGID_30_" gradientUnits="userSpaceOnUse" x1="1171.6971" y1="539.7589" x2="1172.7126" y2="575.1747">
				<stop  offset="0" style="stop-color:#00A0DF"/>
				<stop  offset="1" style="stop-color:#EB18FF;stop-opacity:0.2"/>
			</linearGradient>
			
				<line fill="#5451B7" stroke="url(#SVGID_30_)" stroke-width="2.5092" stroke-linecap="round" stroke-miterlimit="10" x1="1172.2" y1="541" x2="1172.2" y2="573.9"/>
			<path fill="none" stroke="#FFFFFF" stroke-width="0.6759" stroke-linecap="round" stroke-miterlimit="10" d="M1167.8,507.6
				c0,0-2.3-5,3-6.1"/>
			
				<line fill="none" stroke="#FFFFFF" stroke-width="0.6759" stroke-linecap="round" stroke-miterlimit="10" x1="1171.8" y1="501.3" x2="1172.3" y2="501.3"/>
		</g>
	</g>
	<g>
		<g>
			<g>
				<linearGradient id="SVGID_31_" gradientUnits="userSpaceOnUse" x1="1394.8942" y1="500.1957" x2="1396.4437" y2="554.2355">
					<stop  offset="0" style="stop-color:#6B3CFF"/>
					<stop  offset="1" style="stop-color:#EB18FF;stop-opacity:0.2"/>
				</linearGradient>
				<path fill="url(#SVGID_31_)" d="M1410.8,538.5c-0.9-0.9-2-1.6-2.9-2.6c-2-2.2-2.6-5.6-1.6-8.4c0.5-1.4,1.5-2.8,1.8-4.3
					c0.6-3.1-1.6-6-3.4-8.5c-0.6-0.8-1.2-1.7-1.7-2.7c-0.7-1.4-0.9-3.1-0.4-4.6c0.4-1.3,0.4-2.8-0.2-4.1c-0.8-1.8-2.7-3.1-4.7-3.3
					h-2.7c-2,0.1-3.9,1.4-4.7,3.3c-0.6,1.3-0.6,2.8-0.2,4.1c0.5,1.5,0.3,3.2-0.4,4.6c-0.5,1-1.1,1.9-1.7,2.7c-1.9,2.5-4,5.4-3.4,8.5
					c0.3,1.5,1.2,2.8,1.8,4.3c1,2.8,0.4,6.1-1.6,8.4c-0.9,1-1.9,1.7-2.9,2.6c-3,2.8-4.5,7.6-2.4,11.1c1.7,2.8,5,4.4,8.4,4.4h8.4h0.2
					h8.4c3.4,0,6.7-1.6,8.4-4.4C1415.3,546.1,1413.7,541.3,1410.8,538.5z"/>
			</g>
			<linearGradient id="SVGID_32_" gradientUnits="userSpaceOnUse" x1="1395.6971" y1="539.7589" x2="1396.7126" y2="575.1747">
				<stop  offset="0" style="stop-color:#00A0DF"/>
				<stop  offset="1" style="stop-color:#EB18FF;stop-opacity:0.2"/>
			</linearGradient>
			
				<line fill="#5451B7" stroke="url(#SVGID_32_)" stroke-width="2.5092" stroke-linecap="round" stroke-miterlimit="10" x1="1396.2" y1="541" x2="1396.2" y2="573.9"/>
			<path fill="none" stroke="#FFFFFF" stroke-width="0.6759" stroke-linecap="round" stroke-miterlimit="10" d="M1391.8,507.6
				c0,0-2.3-5,3-6.1"/>
			
				<line fill="none" stroke="#FFFFFF" stroke-width="0.6759" stroke-linecap="round" stroke-miterlimit="10" x1="1395.8" y1="501.3" x2="1396.3" y2="501.3"/>
		</g>
	</g>
	<g>
		<g>
			<g>
				<linearGradient id="SVGID_33_" gradientUnits="userSpaceOnUse" x1="1435.1061" y1="515.6588" x2="1436.3514" y2="559.09">
					<stop  offset="0" style="stop-color:#6B3CFF"/>
					<stop  offset="1" style="stop-color:#EB18FF;stop-opacity:0.2"/>
				</linearGradient>
				<path fill="url(#SVGID_33_)" d="M1447.9,546.5c-0.8-0.7-1.6-1.3-2.3-2.1c-1.6-1.8-2.1-4.5-1.3-6.7c0.4-1.2,1.2-2.2,1.4-3.4
					c0.5-2.5-1.3-4.8-2.8-6.8c-0.5-0.7-1-1.4-1.4-2.2c-0.6-1.1-0.7-2.5-0.3-3.7c0.3-1.1,0.3-2.3-0.2-3.3c-0.7-1.5-2.2-2.5-3.8-2.6
					h-2.2c-1.6,0.1-3.1,1.2-3.8,2.6c-0.5,1-0.5,2.2-0.2,3.3c0.4,1.2,0.3,2.5-0.3,3.7c-0.4,0.8-0.9,1.5-1.4,2.2
					c-1.5,2-3.3,4.3-2.8,6.8c0.2,1.2,1,2.3,1.4,3.4c0.8,2.3,0.3,4.9-1.3,6.7c-0.7,0.8-1.5,1.4-2.3,2.1c-2.4,2.2-3.6,6.1-1.9,8.9
					c1.4,2.2,4.1,3.5,6.8,3.5h6.7h0.2h6.7c2.7,0,5.4-1.3,6.8-3.5C1451.5,552.6,1450.3,548.7,1447.9,546.5z"/>
			</g>
			<linearGradient id="SVGID_34_" gradientUnits="userSpaceOnUse" x1="1435.7513" y1="547.4553" x2="1436.5675" y2="575.9186">
				<stop  offset="0" style="stop-color:#00A0DF"/>
				<stop  offset="1" style="stop-color:#EB18FF;stop-opacity:0.2"/>
			</linearGradient>
			
				<line fill="#5451B7" stroke="url(#SVGID_34_)" stroke-width="2.0166" stroke-linecap="round" stroke-miterlimit="10" x1="1436.2" y1="548.5" x2="1436.2" y2="574.9"/>
			<path fill="none" stroke="#FFFFFF" stroke-width="0.5432" stroke-linecap="round" stroke-miterlimit="10" d="M1432.6,521.6
				c0,0-1.8-4,2.4-4.9"/>
			
				<line fill="none" stroke="#FFFFFF" stroke-width="0.5432" stroke-linecap="round" stroke-miterlimit="10" x1="1435.8" y1="516.6" x2="1436.2" y2="516.6"/>
		</g>
	</g>
	<g>
		<g>
			<g>
				<linearGradient id="SVGID_35_" gradientUnits="userSpaceOnUse" x1="1334.6061" y1="515.6588" x2="1335.8514" y2="559.09">
					<stop  offset="0" style="stop-color:#6B3CFF"/>
					<stop  offset="1" style="stop-color:#EB18FF;stop-opacity:0.2"/>
				</linearGradient>
				<path fill="url(#SVGID_35_)" d="M1347.4,546.5c-0.8-0.7-1.6-1.3-2.3-2.1c-1.6-1.8-2.1-4.5-1.3-6.7c0.4-1.2,1.2-2.2,1.4-3.4
					c0.5-2.5-1.3-4.8-2.8-6.8c-0.5-0.7-1-1.4-1.4-2.2c-0.6-1.1-0.7-2.5-0.3-3.7c0.3-1.1,0.3-2.3-0.2-3.3c-0.7-1.5-2.2-2.5-3.8-2.6
					h-2.2c-1.6,0.1-3.1,1.2-3.8,2.6c-0.5,1-0.5,2.2-0.2,3.3c0.4,1.2,0.3,2.5-0.3,3.7c-0.4,0.8-0.9,1.5-1.4,2.2
					c-1.5,2-3.3,4.3-2.8,6.8c0.2,1.2,1,2.3,1.4,3.4c0.8,2.3,0.3,4.9-1.3,6.7c-0.7,0.8-1.5,1.4-2.3,2.1c-2.4,2.2-3.6,6.1-1.9,8.9
					c1.4,2.2,4.1,3.5,6.8,3.5h6.7h0.2h6.7c2.7,0,5.4-1.3,6.8-3.5C1351,552.6,1349.8,548.7,1347.4,546.5z"/>
			</g>
			<linearGradient id="SVGID_36_" gradientUnits="userSpaceOnUse" x1="1335.2513" y1="547.4553" x2="1336.0675" y2="575.9186">
				<stop  offset="0" style="stop-color:#00A0DF"/>
				<stop  offset="1" style="stop-color:#EB18FF;stop-opacity:0.2"/>
			</linearGradient>
			
				<line fill="#5451B7" stroke="url(#SVGID_36_)" stroke-width="2.0166" stroke-linecap="round" stroke-miterlimit="10" x1="1335.7" y1="548.5" x2="1335.7" y2="574.9"/>
			<path fill="none" stroke="#FFFFFF" stroke-width="0.5432" stroke-linecap="round" stroke-miterlimit="10" d="M1332.1,521.6
				c0,0-1.8-4,2.4-4.9"/>
			
				<line fill="none" stroke="#FFFFFF" stroke-width="0.5432" stroke-linecap="round" stroke-miterlimit="10" x1="1335.3" y1="516.6" x2="1335.8" y2="516.6"/>
		</g>
	</g>
	<g>
		<g>
			<g>
				<linearGradient id="SVGID_37_" gradientUnits="userSpaceOnUse" x1="2695.3171" y1="499.9281" x2="2696.8667" y2="553.968">
					<stop  offset="0" style="stop-color:#6B3CFF"/>
					<stop  offset="1" style="stop-color:#EB18FF;stop-opacity:0.2"/>
				</linearGradient>
				<path fill="url(#SVGID_37_)" d="M2711.2,538.3c-0.9-0.9-2-1.6-2.9-2.6c-2-2.2-2.6-5.6-1.6-8.4c0.5-1.4,1.5-2.8,1.8-4.3
					c0.6-3.1-1.6-6-3.4-8.5c-0.6-0.8-1.2-1.7-1.7-2.7c-0.7-1.4-0.9-3.1-0.4-4.6c0.4-1.3,0.4-2.8-0.2-4.1c-0.8-1.8-2.7-3.1-4.7-3.3
					h-2.7c-2,0.1-3.9,1.4-4.7,3.3c-0.6,1.3-0.6,2.8-0.2,4.1c0.5,1.5,0.3,3.2-0.4,4.6c-0.5,1-1.1,1.9-1.7,2.7c-1.9,2.5-4,5.4-3.4,8.5
					c0.3,1.5,1.2,2.8,1.8,4.3c1,2.8,0.4,6.1-1.6,8.4c-0.9,1-1.9,1.7-2.9,2.6c-3,2.8-4.5,7.6-2.4,11.1c1.7,2.8,5,4.4,8.4,4.4h8.4h0.2
					h8.4c3.4,0,6.7-1.6,8.4-4.4C2715.7,545.9,2714.2,541.1,2711.2,538.3z"/>
			</g>
			<linearGradient id="SVGID_38_" gradientUnits="userSpaceOnUse" x1="2696.1201" y1="539.4914" x2="2697.1355" y2="574.9072">
				<stop  offset="0" style="stop-color:#00A0DF"/>
				<stop  offset="1" style="stop-color:#EB18FF;stop-opacity:0.2"/>
			</linearGradient>
			
				<line fill="#5451B7" stroke="url(#SVGID_38_)" stroke-width="2.5092" stroke-linecap="round" stroke-miterlimit="10" x1="2696.6" y1="540.7" x2="2696.6" y2="573.7"/>
			<path fill="none" stroke="#FFFFFF" stroke-width="0.6759" stroke-linecap="round" stroke-miterlimit="10" d="M2692.2,507.3
				c0,0-2.3-5,3-6.1"/>
			
				<line fill="none" stroke="#FFFFFF" stroke-width="0.6759" stroke-linecap="round" stroke-miterlimit="10" x1="2696.2" y1="501.1" x2="2696.7" y2="501.1"/>
		</g>
	</g>
	<g>
		<g>
			<g>
				<linearGradient id="SVGID_39_" gradientUnits="userSpaceOnUse" x1="2735.5291" y1="515.3912" x2="2736.7744" y2="558.8224">
					<stop  offset="0" style="stop-color:#6B3CFF"/>
					<stop  offset="1" style="stop-color:#EB18FF;stop-opacity:0.2"/>
				</linearGradient>
				<path fill="url(#SVGID_39_)" d="M2748.3,546.2c-0.8-0.7-1.6-1.3-2.3-2.1c-1.6-1.8-2.1-4.5-1.3-6.7c0.4-1.2,1.2-2.2,1.4-3.4
					c0.5-2.5-1.3-4.8-2.8-6.8c-0.5-0.7-1-1.4-1.4-2.2c-0.6-1.1-0.7-2.5-0.3-3.7c0.3-1.1,0.3-2.3-0.2-3.3c-0.7-1.5-2.2-2.5-3.8-2.6
					h-2.2c-1.6,0.1-3.1,1.2-3.8,2.6c-0.5,1-0.5,2.2-0.2,3.3c0.4,1.2,0.3,2.5-0.3,3.7c-0.4,0.8-0.9,1.5-1.4,2.2
					c-1.5,2-3.3,4.3-2.8,6.8c0.2,1.2,1,2.3,1.4,3.4c0.8,2.3,0.3,4.9-1.3,6.7c-0.7,0.8-1.5,1.4-2.3,2.1c-2.4,2.2-3.6,6.1-1.9,8.9
					c1.4,2.2,4.1,3.5,6.8,3.5h6.7h0.2h6.7c2.7,0,5.4-1.3,6.8-3.5C2751.9,552.3,2750.7,548.4,2748.3,546.2z"/>
			</g>
			<linearGradient id="SVGID_40_" gradientUnits="userSpaceOnUse" x1="2736.1743" y1="547.1877" x2="2736.9905" y2="575.6511">
				<stop  offset="0" style="stop-color:#00A0DF"/>
				<stop  offset="1" style="stop-color:#EB18FF;stop-opacity:0.2"/>
			</linearGradient>
			
				<line fill="#5451B7" stroke="url(#SVGID_40_)" stroke-width="2.0166" stroke-linecap="round" stroke-miterlimit="10" x1="2736.6" y1="548.2" x2="2736.6" y2="574.7"/>
			<path fill="none" stroke="#FFFFFF" stroke-width="0.5432" stroke-linecap="round" stroke-miterlimit="10" d="M2733,521.3
				c0,0-1.8-4,2.4-4.9"/>
			
				<line fill="none" stroke="#FFFFFF" stroke-width="0.5432" stroke-linecap="round" stroke-miterlimit="10" x1="2736.3" y1="516.3" x2="2736.7" y2="516.3"/>
		</g>
	</g>
	<g>
		<g>
			<g>
				<linearGradient id="SVGID_41_" gradientUnits="userSpaceOnUse" x1="2635.0291" y1="515.3912" x2="2636.2744" y2="558.8224">
					<stop  offset="0" style="stop-color:#6B3CFF"/>
					<stop  offset="1" style="stop-color:#EB18FF;stop-opacity:0.2"/>
				</linearGradient>
				<path fill="url(#SVGID_41_)" d="M2647.8,546.2c-0.8-0.7-1.6-1.3-2.3-2.1c-1.6-1.8-2.1-4.5-1.3-6.7c0.4-1.2,1.2-2.2,1.4-3.4
					c0.5-2.5-1.3-4.8-2.8-6.8c-0.5-0.7-1-1.4-1.4-2.2c-0.6-1.1-0.7-2.5-0.3-3.7c0.3-1.1,0.3-2.3-0.2-3.3c-0.7-1.5-2.2-2.5-3.8-2.6
					h-2.2c-1.6,0.1-3.1,1.2-3.8,2.6c-0.5,1-0.5,2.2-0.2,3.3c0.4,1.2,0.3,2.5-0.3,3.7c-0.4,0.8-0.9,1.5-1.4,2.2
					c-1.5,2-3.3,4.3-2.8,6.8c0.2,1.2,1,2.3,1.4,3.4c0.8,2.3,0.3,4.9-1.3,6.7c-0.7,0.8-1.5,1.4-2.3,2.1c-2.4,2.2-3.6,6.1-1.9,8.9
					c1.4,2.2,4.1,3.5,6.8,3.5h6.7h0.2h6.7c2.7,0,5.4-1.3,6.8-3.5C2651.4,552.3,2650.2,548.4,2647.8,546.2z"/>
			</g>
			<linearGradient id="SVGID_42_" gradientUnits="userSpaceOnUse" x1="2635.6743" y1="547.1877" x2="2636.4905" y2="575.6511">
				<stop  offset="0" style="stop-color:#00A0DF"/>
				<stop  offset="1" style="stop-color:#EB18FF;stop-opacity:0.2"/>
			</linearGradient>
			
				<line fill="#5451B7" stroke="url(#SVGID_42_)" stroke-width="2.0166" stroke-linecap="round" stroke-miterlimit="10" x1="2636.1" y1="548.2" x2="2636.1" y2="574.7"/>
			<path fill="none" stroke="#FFFFFF" stroke-width="0.5432" stroke-linecap="round" stroke-miterlimit="10" d="M2632.5,521.3
				c0,0-1.8-4,2.4-4.9"/>
			
				<line fill="none" stroke="#FFFFFF" stroke-width="0.5432" stroke-linecap="round" stroke-miterlimit="10" x1="2635.8" y1="516.3" x2="2636.2" y2="516.3"/>
		</g>
	</g>
</g>
<g id="Floor">
	<rect y="570" fill="#470076" width="4096" height="180"/>
</g>
<g id="Character">
	<g>
		<g>
			<g>
				<path fill="#5D0081" d="M1787.1,500.7l15.2-3c3-0.6,5.5,2.3,4.6,5.2l-5,14.7"/>
				<polygon fill="#EB18FF" points="1788.9,503.3 1803.1,500 1794.1,506.9 				"/>
			</g>
			<g>
				<path fill="#5D0081" d="M1720.2,500.7l-15.2-3c-3-0.6-5.5,2.3-4.6,5.2l5,14.7"/>
				<polygon fill="#EB18FF" points="1709.2,514.7 1703.5,501.3 1711.8,509 				"/>
			</g>
		</g>
		<g>
			<g>
				<g>
					<path fill="#9700B8" d="M1763.3,662.5c3.1,0,5.6-2.5,5.6-5.6v-21.1h-11.1v21.1C1757.7,660,1760.2,662.5,1763.3,662.5z"/>
				</g>
				<rect x="1757.7" y="635.8" fill="#5D0081" width="11.1" height="13.3"/>
			</g>
			<g>
				<g>
					<path fill="#9700B8" d="M1782.5,662.5c3.1,0,5.6-2.5,5.6-5.6v-21.1H1777v21.1C1777,660,1779.4,662.5,1782.5,662.5z"/>
				</g>
				<rect x="1776.9" y="635.8" fill="#5D0081" width="11.1" height="13.3"/>
			</g>
			<g>
				<g>
					<path fill="#9700B8" d="M1724.7,662.5c3.1,0,5.6-2.5,5.6-5.6v-21.1h-11.1v21.1C1719.2,660,1721.7,662.5,1724.7,662.5z"/>
				</g>
				<rect x="1719.2" y="635.8" fill="#5D0081" width="11.1" height="13.3"/>
			</g>
			<g>
				<g>
					<path fill="#9700B8" d="M1744,662.5c3.1,0,5.6-2.5,5.6-5.6v-21.1h-11.1v21.1C1738.4,660,1740.9,662.5,1744,662.5z"/>
				</g>
				<rect x="1738.4" y="635.8" fill="#5D0081" width="11.1" height="13.3"/>
			</g>
		</g>
		<g>
			<g>
				<path fill="#9700B8" d="M1674.3,574.7c4.9-0.4,6.7,4.6,7.2,8.7c0.6,3.9-0.6,6.9-1.9,10.5c-1.9,5.3-2.2,11,0,16.3
					c5.2,12.6,19.5,12.6,30.9,10.8c4.3-0.7,2.5-7.2-1.8-6.5c-7.1,1.1-16.8,2.2-21.6-4.5c-4.2-5.9-1.5-12,0.4-18.1
					c2.8-9.2-1.2-24.9-13.2-23.9C1670,568.3,1670,575.1,1674.3,574.7L1674.3,574.7z"/>
			</g>
		</g>
		<path fill="#EB18FF" d="M1677.4,564.3c2.6,2.6,2.6,6.9,0,9.5c-2.6,2.6-6.9,2.6-9.5,0s-8.3-12.6-5.7-15.2
			S1674.8,561.7,1677.4,564.3z"/>
		<path fill="#9700B8" d="M1753.6,637.8L1753.6,637.8c-31.4,0-56.8,1.7-56.8-29.7v-61.6c0-31.4,25.4-56.8,56.8-56.8h0
			c31.4,0,56.8,25.4,56.8,56.8v61.6C1810.5,639.5,1785,637.8,1753.6,637.8z"/>
		<g>
			<path fill="#EB18FF" d="M1696.8,603.3v4.8c0,31.4,25.4,29.7,56.8,29.7h0c31.4,0,56.8,1.7,56.8-29.7v-4.8
				c-12.4,7.8-33.2,13-56.8,13C1730,616.3,1709.2,611.1,1696.8,603.3z"/>
		</g>
		<circle fill="#FFFFFF" cx="1753.6" cy="550.4" r="16.5"/>
		<g>
			<circle fill="#F9A6FF" cx="1753.6" cy="550.4" r="8.8"/>
			<circle fill="#5D0081" cx="1753.6" cy="550.4" r="6.5"/>
		</g>
		<g>
			<path fill="#5D0081" d="M1765.1,582c0,6.3-5.1,11.5-11.5,11.5c-6.3,0-11.5-5.1-11.5-11.5"/>
			<path fill="#FFFFFF" d="M1763.6,582c0,2.5-2,4.5-4.5,4.5s-4.5-2-4.5-4.5"/>
		</g>
		<g>
			<circle opacity="0.36" fill="#F9A6FF" cx="1753.6" cy="550.4" r="23.9"/>
			<path opacity="0.36" fill="#FFFFFF" d="M1736.7,567.2c-9.3-9.3-9.3-24.4,0-33.8c9.3-9.3,24.4-9.3,33.8,0"/>
		</g>
		<circle fill="none" stroke="#EB18FF" stroke-width="3.8804" stroke-miterlimit="10" cx="1753.6" cy="550.4" r="23.9"/>
		<g>
			<path opacity="0.54" fill="#5D0081" d="M1734.1,637.7c6.1,0.2,12.7,0.1,19.5,0.1h0c31.4,0,56.8,1.7,56.8-29.7v-44.4
				C1810.5,563.8,1802.2,622.2,1734.1,637.7z"/>
		</g>
		<g>
			<path fill="#9700B8" d="M1715.2,622.4h-9.7c-0.3,0-0.6-0.2-0.6-0.6v-0.8c0-0.3,0.2-0.6,0.6-0.6h9.7c0.3,0,0.6,0.2,0.6,0.6v0.8
				C1715.7,622.1,1715.5,622.4,1715.2,622.4z"/>
			<path fill="#9700B8" d="M1715.2,619.2h-9.7c-0.3,0-0.6-0.2-0.6-0.6v-0.8c0-0.3,0.2-0.6,0.6-0.6h9.7c0.3,0,0.6,0.2,0.6,0.6v0.8
				C1715.7,618.9,1715.5,619.2,1715.2,619.2z"/>
			<path fill="#9700B8" d="M1715.2,625.6h-9.7c-0.3,0-0.6-0.2-0.6-0.6v-0.8c0-0.3,0.2-0.6,0.6-0.6h9.7c0.3,0,0.6,0.2,0.6,0.6v0.8
				C1715.7,625.3,1715.5,625.6,1715.2,625.6z"/>
		</g>
		<ellipse fill="#2C0051" cx="1754.6" cy="686.5" rx="51.1" ry="10.7"/>
		<g>
			<path fill="#5D0081" d="M1786.9,587.6h-9c-0.7,0-1.2-0.5-1.2-1.2v-1.9c0-0.7,0.5-1.2,1.2-1.2h9c0.7,0,1.2,0.5,1.2,1.2v1.9
				C1788.1,587,1787.5,587.6,1786.9,587.6z"/>
			<path fill="#5D0081" d="M1790.8,593.5h-9c-0.7,0-1.2-0.5-1.2-1.2v-1.9c0-0.7,0.5-1.2,1.2-1.2h9c0.7,0,1.2,0.5,1.2,1.2v1.9
				C1792,593,1791.4,593.5,1790.8,593.5z"/>
		</g>
		<g>
			<rect x="1712.6" y="580.2" fill="#EB18FF" width="1.4" height="17.5"/>
			<rect x="1715" y="580.2" fill="#EB18FF" width="1.4" height="17.5"/>
			<path fill="none" stroke="#EB18FF" stroke-width="1.5522" stroke-miterlimit="10" d="M1728.4,590.3h-8.3c-0.9,0-1.6-0.7-1.6-1.6
				v-8.4"/>
			<path opacity="0.36" fill="#FFFFFF" d="M1726.4,597.7h-17.1c-1.1,0-2-0.9-2-2v-13.6c0-1.1,0.9-2,2-2h17.8c0.7,0,1.3,0.6,1.3,1.3
				v14.3C1728.4,596.9,1727.5,597.7,1726.4,597.7z"/>
			<path opacity="0.36" fill="#FFFFFF" d="M1707.4,591.1v-7.3c0-2,1.6-3.5,3.5-3.5h5.8"/>
		</g>
		<g>
			<path fill="none" stroke="#FFFFFF" stroke-width="4.9152" stroke-linecap="round" stroke-miterlimit="10" d="M1714,519.6
				c6.2-11,13.7-17.3,27.3-20.3"/>
			<g>
				<g>
					<path fill="#FFFFFF" d="M1749.1,500.2c3.3,0,3.3-5.2,0-5.2C1745.7,495.1,1745.7,500.2,1749.1,500.2L1749.1,500.2z"/>
				</g>
			</g>
		</g>
		<g>
			<path fill="#5D0081" d="M1767.1,510.2h9c0.7,0,1.2-0.5,1.2-1.2v-1.9c0-0.7-0.5-1.2-1.2-1.2h-9c-0.7,0-1.2,0.5-1.2,1.2v1.9
				C1765.9,509.7,1766.4,510.2,1767.1,510.2z"/>
			<path fill="#5D0081" d="M1766.9,504.5h2.5c1.2,0,2.2-1,2.2-2.2l0,0c0-1.2-1-2.2-2.2-2.2h-2.5c-1.2,0-2.2,1-2.2,2.2l0,0
				C1764.8,503.5,1765.7,504.5,1766.9,504.5z"/>
			<path fill="#5D0081" d="M1761.4,516h9c0.7,0,1.2-0.5,1.2-1.2v-1.9c0-0.7-0.5-1.2-1.2-1.2h-9c-0.7,0-1.2,0.5-1.2,1.2v1.9
				C1760.2,515.5,1760.7,516,1761.4,516z"/>
		</g>
		<circle fill="#FFFFFF" cx="1749.6" cy="542.8" r="4"/>
	</g>
	<g>
		<ellipse fill="#2C0051" cx="2380.6" cy="667.1" rx="56.4" ry="9.5"/>
		<g>
			<g>
				<g>
					<g>
						<path fill="#6B3CFF" d="M2386.8,664.7c2.1,0,3.8-1.9,3.8-4.3v-56.3h-7.6v56.3C2383,662.8,2384.7,664.7,2386.8,664.7z"/>
					</g>
					<rect x="2383" y="604.2" opacity="0.54" fill="#1E0080" width="7.6" height="48.2"/>
				</g>
				<path fill="#6B3CFF" d="M2395.6,665.4h-9.3c-1.8,0-3.3-1.5-3.3-3.3v-1.6c0-1.8,1.5-3.3,3.3-3.3h9.3c1.8,0,3.3,1.5,3.3,3.3v1.6
					C2398.9,664,2397.4,665.4,2395.6,665.4z"/>
			</g>
			<rect x="2383" y="604.2" opacity="0.54" fill="#1E0080" width="7.6" height="48.2"/>
		</g>
		<g>
			<g>
				<path fill="#6B3CFF" d="M2374.5,664.7c-2.1,0-3.8-1.9-3.8-4.3v-56.3h7.6v56.3C2378.3,662.8,2376.6,664.7,2374.5,664.7z"/>
			</g>
			
				<rect x="2370.7" y="604.2" transform="matrix(-1 -5.057877e-11 5.057877e-11 -1 4748.9556 1256.5774)" fill="#4A00D0" width="7.6" height="48.2"/>
			
				<rect x="2370.7" y="604.2" transform="matrix(-1 -5.057877e-11 5.057877e-11 -1 4748.9556 1256.5774)" opacity="0.54" fill="#1E0080" width="7.6" height="48.2"/>
			<path fill="#6B3CFF" d="M2365.6,665.4h9.3c1.8,0,3.3-1.5,3.3-3.3v-1.6c0-1.8-1.5-3.3-3.3-3.3h-9.3c-1.8,0-3.3,1.5-3.3,3.3v1.6
				C2362.3,664,2363.8,665.4,2365.6,665.4z"/>
		</g>
		<g>
			<g>
				<g>
					<path fill="#6B3CFF" d="M2297.6,546.3c0-43.9,37.2-84.8,83-84.8s83,40.8,83,84.8c0,43.9-37.2,99.9-83,99.9
						S2297.6,590.3,2297.6,546.3z"/>
				</g>
				<g>
					<path fill="none" stroke="#FFFFFF" stroke-width="4.35" stroke-linecap="round" stroke-miterlimit="10" d="M2343.4,485.6
						c8.2-5.3,18.3-9.3,30.7-10.2"/>
					<g>
						<g>
							<path fill="#FFFFFF" d="M2382.9,477.1c2.9,0,3-4.6,0-4.6C2379.9,472.5,2379.9,477.1,2382.9,477.1L2382.9,477.1z"/>
						</g>
					</g>
				</g>
			</g>
			<path opacity="0.54" fill="#1E0080" d="M2346.2,635.5L2346.2,635.5c10.5,6.7,22.1,10.7,34.4,10.7c45.8,0,83-56,83-99.9
				C2463.6,546.3,2438.1,639.2,2346.2,635.5z"/>
		</g>
		<g>
			<g>
				<g>
					<circle fill="#4A00D0" cx="2320.7" cy="567.3" r="4.1"/>
					<circle fill="#4A00D0" cx="2312.6" cy="572.9" r="1.7"/>
				</g>
				<circle fill="#4A00D0" cx="2319.4" cy="577.4" r="3.1"/>
			</g>
			<g>
				<g>
					<circle fill="#4A00D0" cx="2446.3" cy="526.2" r="4.1"/>
					<circle fill="#4A00D0" cx="2438.1" cy="531.8" r="1.7"/>
				</g>
				<circle fill="#4A00D0" cx="2445" cy="536.3" r="3.1"/>
			</g>
		</g>
		<path opacity="0.54" fill="#1E0080" d="M2331.2,547.4c0-28.3,22.1-51.2,49.3-51.2c27.2,0,49.3,22.9,49.3,51.2
			c0,28.3-22.1,64.3-49.3,64.3C2353.3,611.7,2331.2,575.6,2331.2,547.4z"/>
		<path fill="#A4AAFF" d="M2331.2,541.5c0-28.3,22.1-51.2,49.3-51.2c27.2,0,49.3,22.9,49.3,51.2c0,28.3-22.1,64.3-49.3,64.3
			C2353.3,605.9,2331.2,569.8,2331.2,541.5z"/>
		<ellipse fill="#6B3CFF" cx="2379.7" cy="540.8" rx="34.8" ry="25.2"/>
		<g>
			<g>
				<circle fill="#6B3CFF" cx="2409.5" cy="567.7" r="1.3"/>
				<circle fill="#6B3CFF" cx="2412.8" cy="564.8" r="1.3"/>
				<circle fill="#6B3CFF" cx="2414.1" cy="569.4" r="1.3"/>
				<circle fill="#6B3CFF" cx="2410.2" cy="572.3" r="1.3"/>
				<circle fill="#6B3CFF" cx="2414.7" cy="574.3" r="1.3"/>
				<circle fill="#6B3CFF" cx="2417.4" cy="566.4" r="1.3"/>
				<circle fill="#6B3CFF" cx="2418.7" cy="571" r="1.3"/>
				<circle fill="#6B3CFF" cx="2405.9" cy="571.3" r="1.3"/>
				<circle fill="#6B3CFF" cx="2408.5" cy="576.2" r="1.3"/>
			</g>
			<g>
				<circle fill="#6B3CFF" cx="2351.6" cy="567.7" r="1.3"/>
				<circle fill="#6B3CFF" cx="2348.3" cy="564.8" r="1.3"/>
				<circle fill="#6B3CFF" cx="2347" cy="569.4" r="1.3"/>
				<circle fill="#6B3CFF" cx="2350.8" cy="572.3" r="1.3"/>
				<circle fill="#6B3CFF" cx="2346.4" cy="574.3" r="1.3"/>
				<circle fill="#6B3CFF" cx="2343.6" cy="566.4" r="1.3"/>
				<circle fill="#6B3CFF" cx="2342.3" cy="571" r="1.3"/>
				<circle fill="#6B3CFF" cx="2355.1" cy="571.3" r="1.3"/>
				<circle fill="#6B3CFF" cx="2352.6" cy="576.2" r="1.3"/>
			</g>
		</g>
		<g>
			<g>
				<path fill="#4A00D0" d="M2380.7,581.2L2380.7,581.2c5,0,9.1-1.7,9.1,2.2l0,0c0,3.8-4.1,6.9-9.1,6.9l0,0c-5,0-9.1-3.1-9.1-6.9
					l0,0C2371.7,579.5,2375.7,581.2,2380.7,581.2z"/>
			</g>
			<path fill="#FFFFFF" d="M2380.7,579.4c-2.4,0-4.6,0.5-6.4,1.4c0.2,2.5,3,2.5,6.4,2.5c3.4,0,6.2,0.1,6.4-2.5
				C2385.2,579.9,2383,579.4,2380.7,579.4L2380.7,579.4z"/>
		</g>
		<path opacity="0.36" fill="#D0E7FF" d="M2380.6,565.5c0,0-0.1-0.1-0.1-0.1C2380.5,565.4,2380.5,565.4,2380.6,565.5z"/>
		<path opacity="0.36" fill="#D0E7FF" d="M2380.7,566.6c-0.1-0.1-0.3-0.3-0.4-0.4C2380.5,566.3,2380.6,566.5,2380.7,566.6z"/>
		<path opacity="0.36" fill="#D0E7FF" d="M2380.5,564.5C2380.5,564.5,2380.5,564.5,2380.5,564.5
			C2380.5,564.5,2380.5,564.5,2380.5,564.5z"/>
		<path opacity="0.36" fill="#D0E7FF" d="M2380.6,566c-0.1-0.1-0.1-0.1-0.2-0.2C2380.5,565.8,2380.6,565.9,2380.6,566z"/>
		<path opacity="0.36" fill="#D0E7FF" d="M2380.5,564.1C2380.5,564.1,2380.5,564,2380.5,564.1C2380.5,564,2380.5,564.1,2380.5,564.1
			z"/>
		<path opacity="0.36" fill="#D0E7FF" d="M2380.6,565C2380.5,565,2380.5,565,2380.6,565C2380.5,565,2380.5,565,2380.6,565z"/>
		<path opacity="0.36" fill="#FFFFFF" d="M2380.7,564.9c-0.1-0.1-0.2-0.3-0.3-0.4C2380.5,564.7,2380.6,564.8,2380.7,564.9z"/>
		<path opacity="0.36" fill="#FFFFFF" d="M2380.7,564.5c-0.1-0.1-0.2-0.3-0.3-0.4C2380.5,564.2,2380.6,564.3,2380.7,564.5z"/>
		<path opacity="0.36" fill="#FFFFFF" d="M2380.6,566.2c-0.1-0.1-0.1-0.1-0.2-0.2C2380.5,566.1,2380.6,566.1,2380.6,566.2z"/>
		<path opacity="0.36" fill="#FFFFFF" d="M2380.7,565.8c-0.1-0.1-0.2-0.2-0.3-0.3C2380.5,565.6,2380.6,565.7,2380.7,565.8z"/>
		<path opacity="0.36" fill="#FFFFFF" d="M2380.7,565.4c-0.1-0.1-0.2-0.2-0.3-0.3C2380.5,565.1,2380.6,565.2,2380.7,565.4z"/>
		<g>
			<g>
				<circle fill="#FFFFFF" cx="2380.5" cy="540.8" r="17.4"/>
				<g>
					<circle fill="#6B3CFF" cx="2380.5" cy="540.8" r="9.2"/>
					<circle fill="#1E0080" cx="2380.5" cy="540.8" r="6.9"/>
				</g>
			</g>
		</g>
		<ellipse opacity="0.32" fill="#C2D8FF" cx="2379.7" cy="542" rx="34.8" ry="25.2"/>
		<path opacity="0.45" fill="#FFFFFF" d="M2356.5,559.6c-7.2-4.6-11.7-11.4-11.7-18.9c0-13.9,15.6-25.2,34.8-25.2
			c7.2,0,13.9,1.6,19.5,4.3"/>
		
			<ellipse fill="none" stroke="#FFFFFF" stroke-width="3.3914" stroke-miterlimit="10" cx="2379.7" cy="540.7" rx="34.8" ry="25.2"/>
		<g>
			<circle fill="#6B3CFF" cx="2357.2" cy="507" r="1.3"/>
			<circle fill="#6B3CFF" cx="2361.1" cy="509.4" r="1.3"/>
			<circle fill="#6B3CFF" cx="2356.4" cy="512" r="1.3"/>
			<circle fill="#6B3CFF" cx="2366.6" cy="508.6" r="1.3"/>
			<circle fill="#6B3CFF" cx="2362" cy="505.2" r="1.3"/>
		</g>
		<circle fill="#6B3CFF" cx="2402.2" cy="505.2" r="3.1"/>
		<circle fill="#6B3CFF" cx="2407.2" cy="510.7" r="2"/>
		<g>
			<ellipse transform="matrix(0.866 -0.5 0.5 0.866 64.0992 1279.4606)" fill="#6B3CFF" cx="2419.6" cy="520.1" rx="3.2" ry="4.1"/>
			<path fill="#4A00D0" d="M2432.5,492.6c-0.9,0.6-1.2,1.8-0.6,2.8l6.5,9.8l-7,4.7l-3.8-5.8c-0.6-0.9-1.8-1.2-2.8-0.6
				c-0.9,0.6-1.2,1.8-0.6,2.8l3.8,5.8l-8.7,5.7c-0.9,0.6-1.2,1.8-0.6,2.8s1.8,1.2,2.8,0.6l20.7-13.7c0.9-0.6,1.2-1.8,0.6-2.8
				l-7.6-11.5C2434.7,492.2,2433.4,492,2432.5,492.6z"/>
			
				<ellipse transform="matrix(0.5 -0.866 0.866 0.5 720.4113 2288.0281)" fill="#6B3CFF" cx="2341.7" cy="520.1" rx="4.1" ry="3.2"/>
			<path fill="#4A00D0" d="M2328.7,492.6c0.9,0.6,1.2,1.8,0.6,2.8l-6.5,9.8l7,4.7l3.8-5.8c0.6-0.9,1.8-1.2,2.8-0.6
				c0.9,0.6,1.2,1.8,0.6,2.8l-3.8,5.8l8.7,5.7c0.9,0.6,1.2,1.8,0.6,2.8s-1.8,1.2-2.8,0.6l-20.7-13.7c-0.9-0.6-1.2-1.8-0.6-2.8
				l7.6-11.5C2326.6,492.2,2327.8,492,2328.7,492.6z"/>
		</g>
		<g>
			<path fill="#A4AAFF" d="M2320,593.1c0,0-12.8,22.3,4.8,47.7c0,0-2.8,8.1,2.5,9.6c0,0,2.7,0.3,1-3.2c0,0,1.8,2,2.8,1.9
				c0,0,2.4-0.4,1-3.7c0,0,2.3,3.5,3.3,1.1c0.3-0.9,0.3-7.1-5.1-8c0,0-13.6-16-8.5-37.6C2321.9,600.8,2326.2,589.8,2320,593.1z"/>
			<path fill="#4A00D0" d="M2323.9,602.8c0,0,5.2-11.6-0.4-13s-8.7,10.8-8.7,10.8L2323.9,602.8z"/>
		</g>
		<g>
			<path fill="#A4AAFF" d="M2447,593.1c0,0,12.8,22.3-4.8,47.7c0,0,2.8,8.1-2.5,9.6c0,0-2.7,0.3-1-3.2c0,0-1.8,2-2.8,1.9
				c0,0-2.4-0.4-1-3.7c0,0-2.3,3.5-3.3,1.1c-0.3-0.9-0.3-7.1,5.1-8c0,0,13.6-16,8.5-37.6C2445.2,600.8,2440.8,589.8,2447,593.1z"/>
			<path fill="#1E0080" d="M2443.1,602.8c0,0-5.2-11.6,0.4-13s8.7,10.8,8.7,10.8L2443.1,602.8z"/>
		</g>
		<circle fill="#FFFFFF" cx="2374.5" cy="534" r="4.4"/>
	</g>
	<g>
		<g>
			<g>
				<g>
					<path fill="#76CBFF" d="M1924.4,484.4c-0.4,2.6-2.4,4.5-4.5,4.2c-2.1-0.3-3.4-2.7-3-5.4"/>
					<path fill="#003875" d="M1931.4,468.1l-3.2-2.3c-1.1-0.8-2.5-0.6-3.3,0.4c-2.2,2.7-6.3,8.3-8.8,16.1c-0.5,1.4,0.7,1.8,2.2,2
						l4.6,0.7c1.3,0.2,2.3,0.6,2.6-0.6c0.7-2.6,2.4-7.2,6.5-12.8C1932.8,470.5,1932.5,468.9,1931.4,468.1z"/>
				</g>
				<g>
					<path fill="#76CBFF" d="M1997.6,495.9c-0.4,2.6,0.9,5.1,3,5.4c2.1,0.3,4.1-1.6,4.5-4.2"/>
					<path fill="#003875" d="M1995.9,478.2l3.7-1.2c1.2-0.4,2.6,0.2,3.1,1.4c1.3,3.2,3.4,9.8,3.4,18c0,1.5-1.2,1.5-2.7,1.3l-4.6-0.7
						c-1.3-0.2-2.3-0.1-2.3-1.4c0.1-2.6-0.1-7.6-2.3-14.2C1993.9,480.1,1994.6,478.7,1995.9,478.2z"/>
				</g>
			</g>
			<g>
				<g>
					
						<ellipse transform="matrix(0.1546 -0.988 0.988 0.1546 1143.8588 2338.5562)" fill="#76CBFF" cx="1938.4" cy="500.9" rx="6.2" ry="6.2"/>
				</g>
				<g>
					
						<ellipse transform="matrix(0.1546 -0.988 0.988 0.1546 1172.1069 2384.3621)" fill="#76CBFF" cx="1979.3" cy="507.3" rx="6.2" ry="6.2"/>
				</g>
				<g>
					
						<ellipse transform="matrix(0.1546 -0.988 0.988 0.1546 1159.9695 2370.7717)" fill="#76CBFF" cx="1965.2" cy="507.6" rx="6.2" ry="6.2"/>
				</g>
				<g>
					
						<ellipse transform="matrix(0.1546 -0.988 0.988 0.1546 1150.5533 2355.5032)" fill="#76CBFF" cx="1951.6" cy="505.5" rx="6.2" ry="6.2"/>
				</g>
			</g>
			<g>
				<g>
					<path fill="#0084BF" d="M1996.6,494.7c-2.6,16.8-18.8,16.1-38.4,13.1s-35.2-7.4-32.6-24.2c2.6-16.8,24.4-52.2,44-49.1
						S1999.3,477.9,1996.6,494.7z"/>
				</g>
				<g>
					<path fill="#0084BF" d="M1927.3,459.6c-2.8-1.8-5.9,1.7-3.9,4.2c9.2,11.5,22.5,19.6,38.2,22.1c15.7,2.4,30.9-1.3,43.1-9.4
						c2.8-1.8,0.8-6.1-2.4-5.2c-10.9,3-24.6,5.3-38.9,3.1C1949.2,472.2,1936.8,465.8,1927.3,459.6z"/>
				</g>
				<path opacity="0.54" fill="#003875" d="M2003.4,471.2c-2.4,3.1-23.1,22.9-69.2,29.9c0.1,0,0.1,0.1,0.2,0.1
					c0.1,0,0.1,0.1,0.2,0.1c0.2,0.1,0.3,0.2,0.5,0.3c0.1,0,0.1,0.1,0.2,0.1c0.5,0.2,0.9,0.5,1.4,0.7c0.1,0,0.1,0.1,0.2,0.1
					c0.2,0.1,0.4,0.2,0.5,0.2c0.1,0,0.2,0.1,0.2,0.1c0.2,0.1,0.3,0.1,0.5,0.2c0.1,0,0.2,0.1,0.2,0.1c0.2,0.1,0.4,0.2,0.6,0.2
					c0.1,0,0.1,0,0.2,0.1c0.3,0.1,0.5,0.2,0.8,0.3c0,0,0.1,0,0.1,0c0.2,0.1,0.5,0.2,0.7,0.2c0.1,0,0.2,0.1,0.3,0.1
					c0.2,0.1,0.4,0.1,0.6,0.2c0.1,0,0.2,0.1,0.3,0.1c0.2,0.1,0.4,0.1,0.6,0.2c0.1,0,0.2,0.1,0.3,0.1c0.2,0.1,0.5,0.1,0.7,0.2
					c0,0,0.1,0,0.1,0c0.3,0.1,0.6,0.2,0.9,0.2c0.1,0,0.2,0,0.2,0.1c0.2,0.1,0.4,0.1,0.6,0.2c0.1,0,0.2,0.1,0.3,0.1
					c0.2,0,0.4,0.1,0.6,0.1c0.1,0,0.2,0.1,0.3,0.1c0.2,0.1,0.4,0.1,0.7,0.2c0.1,0,0.2,0,0.3,0.1c0.3,0.1,0.6,0.1,0.9,0.2
					c0,0,0.1,0,0.1,0c0.3,0.1,0.6,0.1,0.8,0.2c0.1,0,0.2,0,0.3,0.1c0.2,0,0.4,0.1,0.6,0.1c0.1,0,0.2,0,0.4,0.1
					c0.2,0,0.4,0.1,0.6,0.1c0.1,0,0.2,0,0.3,0.1c0.3,0,0.5,0.1,0.8,0.1c0.1,0,0.1,0,0.2,0c0.3,0.1,0.7,0.1,1,0.2c0.1,0,0.2,0,0.3,0
					c0.2,0,0.5,0.1,0.7,0.1c0.1,0,0.3,0,0.4,0.1c0.2,0,0.4,0.1,0.6,0.1c0.1,0,0.3,0,0.4,0.1c0.2,0,0.4,0.1,0.7,0.1
					c0.1,0,0.2,0,0.4,0.1c0.3,0,0.6,0.1,0.9,0.1c0,0,0.1,0,0.1,0c11.6,1.8,22.1,2.8,29.2-0.2c0.6-0.2,1.1-0.5,1.6-0.8
					c0.9-0.5,1.7-1,2.4-1.7c0.6-0.5,1.1-1.1,1.6-1.7c0.3-0.3,0.5-0.6,0.7-1c0.1-0.2,0.2-0.3,0.3-0.5c0.2-0.4,0.4-0.7,0.6-1.1
					c0.9-1.7,1.5-3.7,1.9-6.1c0.6-3.6,0.5-8.4,0-13.6c2.8-1.3,5.6-2.8,8.2-4.5C2007.2,475,2006,471.4,2003.4,471.2"/>
			</g>
			<g>
				<g>
					<path fill="none" stroke="#0084BF" stroke-width="2.6709" stroke-linecap="round" stroke-miterlimit="10" d="M1971.6,395.2
						c0,0-7.9-13.6-6.1-24.8"/>
					<circle fill="#76CBFF" cx="1965.2" cy="368.7" r="5.1"/>
				</g>
				<g>
					<path fill="none" stroke="#0084BF" stroke-width="2.6709" stroke-linecap="round" stroke-miterlimit="10" d="M1979.1,401.6
						c0,0,11.7-10.6,13.4-21.7"/>
					<circle fill="#76CBFF" cx="1993.3" cy="378.3" r="5.1"/>
				</g>
			</g>
			<g>
				<g>
					<path fill="#0084BF" d="M1926,376.3c4.5-28.5,20.4,20.7,48.9,25.1s58.7-37.5,54.2-9c-4.5,28.5-30,40.5-58.5,36
						S1921.5,404.8,1926,376.3z"/>
					<path opacity="0.54" fill="#003875" d="M2029.1,392.4c1-6.3,0.3-9.2-1.8-9.8c0,0-4,24.9-22.1,32.9l0.7,8.8
						C2018,418.6,2026.7,408,2029.1,392.4z"/>
					<path opacity="0.54" fill="#003875" d="M1926,376.3c1-6.3,2.6-8.8,4.7-8.8c0,0-3.8,24.9,11,38.1l-3.4,8.2
						C1928.6,404.6,1923.5,391.8,1926,376.3z"/>
				</g>
				<g>
					<g>
						<path fill="none" stroke="#76CBFF" stroke-width="1.7806" stroke-linecap="round" stroke-miterlimit="10" d="M1936.6,377
							c0,0,5.2,7.6,10.1,11.9"/>
						<path fill="none" stroke="#76CBFF" stroke-width="1.7806" stroke-linecap="round" stroke-miterlimit="10" d="M1949.6,391.8
							C1949.6,391.8,1947.9,390.2,1949.6,391.8"/>
					</g>
					<g>
						<path fill="none" stroke="#76CBFF" stroke-width="1.7806" stroke-linecap="round" stroke-miterlimit="10" d="M2018.8,389.9
							c0,0-7.3,5.6-13.2,8.3"/>
						<path fill="none" stroke="#76CBFF" stroke-width="1.7806" stroke-linecap="round" stroke-miterlimit="10" d="M2001.9,399.9
							C2001.9,399.9,2004,399,2001.9,399.9"/>
					</g>
				</g>
			</g>
			<g>
				<g>
					<path fill="#76CBFF" d="M2015.1,447c-4,25.5-26.9,36.7-52.5,32.7c-25.5-4-43.9-21.7-40-47.2c4-25.5,27.9-43,53.4-39
						C2001.6,397.5,2019.1,421.5,2015.1,447z"/>
					<g>
						<path fill="#0084BF" d="M1922.5,446.2c4.8,0.3,9.1-3.1,9.9-8c0.8-5.1-2.7-10-7.9-10.8c-0.3,0-0.5-0.1-0.8-0.1
							c-0.5,1.7-0.8,3.4-1.1,5.2C1922,437.1,1921.9,441.7,1922.5,446.2z"/>
						<path fill="#0084BF" d="M2013.1,424.6c-2.5,0.3-4.7,2.2-5.1,4.9c-0.5,3.2,1.7,6.1,4.8,6.6c0.9,0.1,1.8,0.1,2.6-0.2
							C2015.2,432,2014.4,428.2,2013.1,424.6z"/>
						<circle fill="#0084BF" cx="1935.2" cy="449.7" r="4.2"/>
						<circle fill="#0084BF" cx="2003.1" cy="424.7" r="2.6"/>
						<circle fill="#0084BF" cx="1991.4" cy="459" r="4.9"/>
						<circle fill="#0084BF" cx="1997.8" cy="450.7" r="2.4"/>
						<circle fill="#0084BF" cx="1937.3" cy="438.8" r="1.9"/>
					</g>
				</g>
				<g>
					<path fill="none" stroke="#FFFFFF" stroke-width="2.4484" stroke-linecap="round" stroke-miterlimit="10" d="M1941.8,412.5
						c0,0,6-12.1,24.6-13"/>
					<path fill="none" stroke="#FFFFFF" stroke-width="2.4484" stroke-linecap="round" stroke-miterlimit="10" d="M1970.5,399.3
						C1971.2,399.3,1969.8,399.3,1970.5,399.3"/>
				</g>
			</g>
			<g>
				<path fill="#0084BF" d="M1977.9,458.9c-1,6.5-7.1,10.9-13.6,9.9c-6.5-1-10.9-7.1-9.9-13.6"/>
				<path fill="#FFFFFF" d="M1960.9,456.2l-0.4,2.7c-0.1,0.9,0.5,1.7,1.3,1.8l1,0.2c0.9,0.1,1.7-0.5,1.8-1.3l0.4-2.7L1960.9,456.2z"
					/>
				<path fill="#FFFFFF" d="M1967.3,457.2l-0.4,2.7c-0.1,0.9,0.5,1.7,1.3,1.8l1,0.2c0.9,0.1,1.7-0.5,1.8-1.3l0.4-2.7L1967.3,457.2z"
					/>
			</g>
			<g>
				<g>
					<circle fill="#00A0DF" cx="1970.6" cy="428.5" r="22.2"/>
				</g>
				<g>
					<circle fill="#FFFFFF" cx="1970.6" cy="428.5" r="15.4"/>
					<g>
						<circle fill="#00A0DF" cx="1970.6" cy="428.5" r="8.2"/>
						<circle fill="#1E0080" cx="1970.6" cy="428.5" r="6.1"/>
					</g>
				</g>
				<g>
					<circle opacity="0.38" fill="#D0E7FF" cx="1970.6" cy="428.5" r="22.2"/>
					<path opacity="0.45" fill="#FFFFFF" d="M1952.7,441.6c-7.2-9.9-5.1-23.8,4.9-31c9.9-7.2,23.8-5.1,31,4.9"/>
					<circle fill="none" stroke="#00A0DF" stroke-width="2.6773" stroke-miterlimit="10" cx="1970.6" cy="428.5" r="22.2"/>
				</g>
			</g>
			<circle fill="#FFFFFF" cx="1966.9" cy="422.6" r="4.3"/>
			<g>
				<circle opacity="0.18" fill="#FFFFFF" cx="1971.8" cy="418.4" r="67.2"/>
				<path opacity="0.22" fill="#FFFFFF" d="M1912.8,450.7c-17.8-32.6-5.8-73.4,26.8-91.2s73.4-5.8,91.2,26.8"/>
				<g>
					<path fill="none" stroke="#FFFFFF" stroke-width="2.4484" stroke-linecap="round" stroke-miterlimit="10" d="M1921.3,388
						c0,0,21.1-34.9,63-28.8"/>
					
						<line fill="none" stroke="#FFFFFF" stroke-width="2.4484" stroke-linecap="round" stroke-miterlimit="10" x1="1988.2" y1="360" x2="1988.9" y2="360.2"/>
				</g>
			</g>
		</g>
		<ellipse fill="#2C0051" cx="1956.1" cy="623" rx="38.3" ry="5.8"/>
	</g>
</g>
<g id="Dekoration">
</g>
<g id="Lines">
</g>
<g id="Text" display="none">
	<rect x="1744.4" y="115.3" display="inline" fill="none" width="587.8" height="107.1"/>
	<text transform="matrix(1 0 0 1 1812.964 133.6168)" display="inline"><tspan x="0" y="0" fill="#FFFFFF" font-family="'Roboto-Regular'" font-size="24px"> Think About! is a 2-Day Community Event </tspan><tspan x="-68.4" y="28.8" fill="#FFFFFF" font-family="'Roboto-Regular'" font-size="24px">about Technology, Design and their impact on Society.</tspan><tspan x="55" y="86.4" fill="#FFFFFF" font-family="'Roboto-Bold'" font-size="24px">23rd &amp; 24th May 2019, Cologne</tspan></text>
	<g display="inline">
		<path fill="#EB18FF" d="M2098.3,304.7h-119.9c-11,0-20-9-20-20v0c0-11,9-20,20-20h119.9c11,0,20,9,20,20v0
			C2118.3,295.7,2109.3,304.7,2098.3,304.7z"/>
		<rect x="1978.3" y="277.2" fill="none" width="120" height="15.1"/>
		<text transform="matrix(1 0 0 1 1982.443 289.1834)" fill="#FFFFFF" font-family="'Roboto-Bold'" font-size="16px">Get Your Ticket</text>
	</g>
</g>
</svg>
