<?xml version="1.0" encoding="utf-8"?>
<!-- Generator: Adobe Illustrator 24.0.0, SVG Export Plug-In . SVG Version: 6.00 Build 0)  -->
<svg version="1.1" id="Layer_1" xmlns="http://www.w3.org/2000/svg" xmlns:xlink="http://www.w3.org/1999/xlink" x="0px" y="0px"
	 viewBox="0 0 400 250" style="enable-background:new 0 0 400 250;" xml:space="preserve">
<style type="text/css">
	.st0{opacity:0.09;}
	.st1{fill:#36009F;}
	.st2{fill:#90A9FF;}
	.st3{opacity:0.69;}
	.st4{fill:url(#SVGID_1_);}
	.st5{fill:#EB18FF;}
	.st6{fill:none;}
	.st7{fill:#9700B8;}
	.st8{fill:none;stroke:#FFFFFF;stroke-width:1.0773;stroke-linecap:round;stroke-miterlimit:10;}
	.st9{fill:#5D0081;}
	.st10{display:none;}
	.st11{fill:#92DDFF;}
	.st12{fill:#214978;}
	.st13{fill:#349FDB;}
	.st14{fill:none;stroke:#349FDB;stroke-width:2.9122;stroke-linecap:round;stroke-miterlimit:10;}
	.st15{fill:none;stroke:#FFFFFF;stroke-width:3.0122;stroke-linecap:round;stroke-miterlimit:10;}
	.st16{opacity:0.47;fill:#214978;}
	.st17{fill:#FFFFFF;}
	.st18{fill:#0084BF;}
	.st19{opacity:0.12;fill:#FFFFFF;}
	.st20{fill:none;stroke:#FFFFFF;stroke-width:1.5061;stroke-miterlimit:10;}
	.st21{fill:none;stroke:#0084BF;stroke-width:1.8073;stroke-linecap:round;stroke-miterlimit:10;}
	.st22{opacity:0.45;fill:#FFFFFF;}
	.st23{opacity:0.72;fill:#5D0081;enable-background:new    ;}
	.st24{opacity:0.54;fill:#5D0081;enable-background:new    ;}
	.st25{fill:none;stroke:#FFFFFF;stroke-width:1.74;stroke-linecap:round;stroke-miterlimit:10;}
	.st26{fill:#F9A6FF;}
	.st27{opacity:0.36;fill:#F9A6FF;enable-background:new    ;}
	.st28{opacity:0.36;fill:#FFFFFF;enable-background:new    ;}
	.st29{fill:none;stroke:#EB18FF;stroke-miterlimit:10;}
	.st30{fill:#5C5EFF;}
	.st31{fill:#4C25D0;}
	.st32{fill:none;stroke:#36009F;stroke-width:2.0822;stroke-linecap:round;stroke-miterlimit:10;}
	.st33{fill:none;stroke:#FFFFFF;stroke-width:2.8997;stroke-linecap:round;stroke-miterlimit:10;}
	.st34{opacity:0.19;fill:#506EFF;}
	.st35{opacity:0.83;}
	.st36{opacity:0.56;fill:#FFFFFF;}
	.st37{fill:none;stroke:#FFFFFF;stroke-width:1.4499;stroke-miterlimit:10;}
	.st38{opacity:0.3;fill:#4C25D0;}
</style>
<ellipse class="st0" cx="93.91" cy="237.33" rx="51.47" ry="9.58"/>
<ellipse class="st0" cx="176.12" cy="235.78" rx="29.91" ry="5.57"/>
<path class="st1" d="M274.02,143.44c0,0-50.43,32.98-66.35-30.27l14.63-1.86c0,0,9.89,37.46,44.63,20.69
	C266.93,132.01,279.61,135.93,274.02,143.44z"/>
<path class="st2" d="M219.15,106.33c0,0,3.42-10.02,1.01-11.44c-2.88-1.7-4.71,1.38-4.41,3.29c0,0,0.76-6.8-2.5-7.02
	c-3.31-0.23-4-0.32-2.61,3.53c0,0-0.91-1.61-3.47-0.79c-2.62,0.84-2.66,8.95,2.66,16.88S219.15,106.33,219.15,106.33z"/>
<g id="Background">
</g>
<g id="Fog">
	<g class="st3">
		
			<linearGradient id="SVGID_1_" gradientUnits="userSpaceOnUse" x1="-521.6211" y1="-2601.6211" x2="1804.3534" y2="-2601.6211" gradientTransform="matrix(-1.6692 0.0671 0.0572 1.4219 -498.1494 4748.7319)">
			<stop  offset="0" style="stop-color:#EB18FF;stop-opacity:0.5"/>
			<stop  offset="0.0993" style="stop-color:#DD20FD;stop-opacity:0.5497"/>
			<stop  offset="0.2884" style="stop-color:#B736F8;stop-opacity:0.6442"/>
			<stop  offset="0.5476" style="stop-color:#7A5AF0;stop-opacity:0.7738"/>
			<stop  offset="0.8637" style="stop-color:#268AE4;stop-opacity:0.9318"/>
			<stop  offset="1" style="stop-color:#00A0DF"/>
		</linearGradient>
		<path class="st4" d="M188.9,798.4c-8.2,55.6-22.2,89.5-79.1,118c-96.6,48.4-203.9-16.2-313.9-29.7
			C-353.6,868.3-476,1001.4-626.5,1015c-126.2,11.3-247.5-63.7-372.6-45.2c-135.9,20.2-245.7,146.8-380,122.6
			c-59.7-10.8-114-51.5-173.9-40.4c-29,5.4-53,22.2-75.8,38.5c-110.9,79.4-256.7,163.6-387.2,113.5
			c-82.9-31.8-150.2-115.4-239.1-96.4c-34.6,7.4-61.9,29.7-87.4,51.1c-98.4,82.5-197.9,166.4-267.7,267.7
			c-14.8,21.4-30.2,45.2-57.2,54.5c-37.2,12.8-79.7-7.5-118.8,0.3c-40.9,8.2-65.9,45.3-71.6,80.7c-5.7,35.4,2.7,71.2,2.8,106.9
			c0.1,68.6-32.4,137.2-88.6,187c-57.7,51.2-144.3,91.3-153.5,161.5c-6.2,47.5,23.3,105.5-18.8,137.4
			c-32.3,24.4-82.9,11.8-120.1-6.1c-145.1-69.7-242.1-196.9-295-331.8s-66.5-278.7-79.7-420.9c-21.3-229.6-42.6-459.2-63.9-688.8
			c-9.8-105.6-17.8-218.6,44-311.4c47.1-70.6,129-119.7,213.9-156.7c246.8-107.7,532.5-131.2,807.5-117s545.2,63.9,818.1,94.8
			c380.6,43,773.4,50.6,1131.3,166.7c256.5,83.2,487.5,221.4,666,398.5C30,805.6,56.6,831.6,93,834.8c24.7,2.1,49-6.9,73.9-7.5
			s54.1,14,50.3,35"/>
	</g>
</g>
<g id="Sky">
	<g id="Layer_12">
	</g>
</g>
<g id="Mountains">
</g>
<g id="Trees">
</g>
<g id="Floor">
</g>
<g id="Dekoration">
</g>
<g id="Mask">
</g>
<g>
	<path class="st5" d="M254.92,53.42l-94.68-23.41c0.92,0.21,1.48,1.2,1.34,2.19c-0.21,0.92-1.2,1.48-2.19,1.34l-0.78,3.18
		c0.92,0.21,1.48,1.2,1.34,2.19c-0.21,0.92-1.2,1.48-2.19,1.34l-0.78,3.18c0.92,0.21,1.48,1.2,1.34,2.19
		c-0.21,0.92-1.2,1.48-2.19,1.34l-0.78,3.18c0.92,0.21,1.48,1.2,1.34,2.19c-0.21,0.92-1.2,1.48-2.19,1.34l-0.78,3.18
		c0.92,0.21,1.48,1.2,1.34,2.19c-0.21,0.92-1.2,1.48-2.19,1.34l-0.78,3.18c0.92,0.21,1.48,1.2,1.34,2.19
		c-0.21,0.92-1.2,1.48-2.19,1.34l-0.78,3.18c0.92,0.21,1.48,1.2,1.34,2.19c-0.21,0.92-1.2,1.48-2.19,1.34l-0.78,3.18
		c0.92,0.21,1.48,1.2,1.34,2.19c-0.21,0.92-1.2,1.48-2.19,1.34l94.68,23.41"/>
	<line class="st6" x1="253.23" y1="60.06" x2="254" y2="56.88"/>
	<line class="st6" x1="251.6" y1="66.78" x2="252.38" y2="63.6"/>
	<line class="st6" x1="246.58" y1="86.93" x2="247.43" y2="83.68"/>
	<line class="st6" x1="244.95" y1="93.65" x2="245.73" y2="90.33"/>
	<line class="st6" x1="243.26" y1="100.3" x2="244.1" y2="97.05"/>
	<path class="st7" d="M227.42,57.59c-5.23-1.27-10.54,1.91-11.81,7.14l0,0l0,0c1.27-5.23-1.91-10.54-7.14-11.81
		s-10.54,1.91-11.81,7.14c-2.4,7.5,13.44,26.87,13.44,26.87l0,0l0,0c0,0,23.05-9.76,24.47-17.54
		C235.83,64.17,232.65,58.86,227.42,57.59z"/>
	<path class="st8" d="M199.2,60.21c0.14-0.14,1.77-4.6,6.58-5.02"/>
	<line class="st8" x1="207.83" y1="55.11" x2="208.4" y2="55.26"/>
	<g>
		<circle class="st9" cx="168.37" cy="80.57" r="1.4"/>
		
			<ellipse transform="matrix(0.7071 -0.7071 0.7071 0.7071 -3.0008 142.0169)" class="st9" cx="169.93" cy="74.63" rx="1.4" ry="1.4"/>
		<circle class="st9" cx="171.41" cy="68.62" r="1.4"/>
		<circle class="st9" cx="172.76" cy="63.18" r="1.4"/>
		
			<ellipse transform="matrix(0.7071 -0.7071 0.7071 0.7071 10.5833 140.0221)" class="st9" cx="174.31" cy="57.24" rx="1.4" ry="1.4"/>
		<circle class="st9" cx="175.8" cy="51.23" r="1.4"/>
		
			<ellipse transform="matrix(0.7071 -0.7071 0.7071 0.7071 20.0238 138.6306)" class="st9" cx="177.35" cy="45.14" rx="1.4" ry="1.4"/>
		<circle class="st9" cx="178.77" cy="39.77" r="1.4"/>
	</g>
</g>
<g id="Lines">
</g>
<g id="Text" class="st10">
</g>
<g id="Fog_Overlay">
</g>
<g>
	<path class="st11" d="M78.73,226c0,0-9.69,2.12-12.92,5.54c-0.46,0.48-0.08,1.15,0.58,1.26c1.91,0.34,5.29-0.54,7.2-1.98
		c0,0-3.18,1.79-4.33,4.17c-0.33,0.69,0.1,1.92,2.55,1.23c3.02-0.85,9.52-2.3,12.73-4.23c0,0,2.55,0.93,5.07,1.92
		c1.15,0.46,1.76-0.04,1.59-0.56c-0.45-1.38-1.64-3.63-4.8-5.07v-6.7h-7.85L78.73,226z"/>
	<path class="st12" d="M79.01,223.35h7.05c1.06,0,1.91-0.86,1.91-1.91v-64.88c0-1.06-0.86-1.91-1.91-1.91h-7.05
		c-1.06,0-1.91,0.86-1.91,1.91v64.88C77.1,222.49,77.95,223.35,79.01,223.35z"/>
	<path class="st13" d="M87.52,224.24h-9.97c-0.84,0-1.51-0.68-1.51-1.51v-0.97c0-0.84,0.68-1.51,1.51-1.51h9.97
		c0.84,0,1.51,0.68,1.51,1.51v0.97C89.03,223.56,88.35,224.24,87.52,224.24z"/>
</g>
<g>
	<path class="st11" d="M109.09,226c0,0,9.69,2.12,12.92,5.54c0.46,0.48,0.08,1.15-0.58,1.26c-1.91,0.34-5.29-0.54-7.2-1.98
		c0,0,3.18,1.79,4.33,4.17c0.33,0.69-0.1,1.92-2.55,1.23c-3.02-0.85-9.52-2.3-12.73-4.23c0,0-2.55,0.93-5.07,1.92
		c-1.15,0.46-1.76-0.04-1.59-0.56c0.45-1.38,1.64-3.63,4.8-5.07v-6.7h7.85L109.09,226z"/>
	<path class="st12" d="M108.82,223.35h-7.05c-1.06,0-1.91-0.86-1.91-1.91v-64.88c0-1.06,0.86-1.91,1.91-1.91h7.05
		c1.06,0,1.91,0.86,1.91,1.91v64.88C110.73,222.49,109.87,223.35,108.82,223.35z"/>
	<path class="st13" d="M110.28,224.24h-9.97c-0.84,0-1.51-0.68-1.51-1.51v-0.97c0-0.84,0.68-1.51,1.51-1.51h9.97
		c0.84,0,1.51,0.68,1.51,1.51v0.97C111.79,223.56,111.11,224.24,110.28,224.24z"/>
</g>
<g>
	<path class="st14" d="M86.43,66.99c0,0-5.81,8.59,3.48,17.19"/>
	<circle class="st11" cx="85.97" cy="66.53" r="4.53"/>
</g>
<g>
	<path class="st14" d="M103.39,69.55c0,0,5.81,8.59-3.48,17.19"/>
	<circle class="st11" cx="103.85" cy="68.62" r="4.06"/>
</g>
<g>
	<path class="st13" d="M155.38,75.86c0,0-20.69-6.1-37.48,10.69l13.39,13.39l13.39,13.39C161.48,96.54,155.38,75.86,155.38,75.86z"
		/>
	<path class="st12" d="M124.23,101.83l-2.27-11.23c0,0,12.37-11.93,26.07-9.72C148.03,80.88,119.11,91.43,124.23,101.83z"/>
</g>
<g>
	<path class="st13" d="M33.97,75.86c0,0,20.69-6.1,37.48,10.69L58.05,99.94l-13.39,13.39C27.87,96.54,33.97,75.86,33.97,75.86z"/>
	<path class="st12" d="M65.13,101.83l2.27-11.23c0,0-12.37-11.93-26.07-9.72C41.32,80.88,70.24,91.43,65.13,101.83z"/>
</g>
<g>
	<circle class="st11" cx="94.68" cy="147.01" r="65.3"/>
	<path class="st15" d="M56.12,106.7c3.42-4.81,11.55-15.27,27.51-16.6"/>
	<line class="st15" x1="90.28" y1="90.11" x2="90.23" y2="90.11"/>
</g>
<path class="st13" d="M94.68,194.42c-27.46,0-47.09-8.92-56.91-15.38c11.2,19.86,32.49,33.27,56.91,33.27
	c24.42,0,45.71-13.41,56.91-33.27C141.76,185.5,122.14,194.42,94.68,194.42z"/>
<path class="st16" d="M159.98,147.01c0-0.6-0.01-1.19-0.02-1.78c-6.1,17.86-29.38,66.72-99.45,57.44
	c9.94,6.12,21.65,9.65,34.17,9.65C130.74,212.31,159.98,183.07,159.98,147.01z"/>
<g>
	<circle class="st13" cx="143.84" cy="117.91" r="3.59"/>
	<circle class="st13" cx="137.39" cy="123.55" r="1.47"/>
</g>
<circle class="st13" cx="143.78" cy="126.74" r="2.73"/>
<g>
	<circle class="st13" cx="45.67" cy="128.87" r="3.59"/>
	<circle class="st13" cx="51.38" cy="122.49" r="1.47"/>
</g>
<circle class="st13" cx="44.65" cy="120.1" r="2.73"/>
<g>
	<circle class="st13" cx="121.81" cy="152.15" r="1.15"/>
	<circle class="st13" cx="124.81" cy="149.6" r="1.15"/>
	<circle class="st13" cx="125.96" cy="153.74" r="1.15"/>
	<circle class="st13" cx="122.51" cy="156.29" r="1.15"/>
	<circle class="st13" cx="126.5" cy="158.15" r="1.15"/>
	<circle class="st13" cx="129" cy="151" r="1.15"/>
	<circle class="st13" cx="130.15" cy="155.14" r="1.15"/>
	<circle class="st13" cx="118.62" cy="155.4" r="1.15"/>
	<circle class="st13" cx="120.92" cy="159.86" r="1.15"/>
</g>
<g>
	<circle class="st13" cx="67.54" cy="152.15" r="1.15"/>
	<circle class="st13" cx="64.54" cy="149.6" r="1.15"/>
	<circle class="st13" cx="63.39" cy="153.74" r="1.15"/>
	<circle class="st13" cx="66.84" cy="156.29" r="1.15"/>
	<circle class="st13" cx="62.85" cy="158.15" r="1.15"/>
	<circle class="st13" cx="60.35" cy="151" r="1.15"/>
	<circle class="st13" cx="59.2" cy="155.14" r="1.15"/>
	<circle class="st13" cx="70.73" cy="155.4" r="1.15"/>
	<circle class="st13" cx="68.43" cy="159.86" r="1.15"/>
</g>
<path class="st12" d="M94.68,163.98L94.68,163.98c13.18,0,23.86-2.91,23.86,3.81v0c0,6.72-10.68,12.16-23.86,12.16h0
	c-13.18,0-23.86-5.44-23.86-12.16v0C70.81,161.07,81.5,163.98,94.68,163.98z"/>
<path class="st17" d="M78.5,163.35c-0.01,0.11-0.01,0.22-0.01,0.34c0,2.25,1.3,4.07,2.9,4.07c1.6,0,2.9-1.82,2.9-4.07
	c0-0.04,0-0.08,0-0.13C82.16,163.44,80.22,163.34,78.5,163.35z"/>
<path class="st17" d="M105.06,163.56c0,0.04,0,0.08,0,0.13c0,2.25,1.3,4.07,2.9,4.07c1.6,0,2.9-1.82,2.9-4.07
	c0-0.11-0.01-0.23-0.01-0.34C109.14,163.34,107.19,163.44,105.06,163.56z"/>
<path class="st17" d="M97.58,164.27c0-0.11-0.01-0.22-0.01-0.33c-0.95,0.03-1.91,0.04-2.89,0.04h0c-0.98,0-1.94-0.02-2.89-0.04
	c-0.01,0.11-0.01,0.22-0.01,0.33c0,2.25,1.3,4.07,2.9,4.07C96.28,168.34,97.58,166.52,97.58,164.27z"/>
<path class="st18" d="M94.25,175.39c-4.06,0-7.45,0.4-8.25,3.72c2.69,0.54,5.62,0.83,8.68,0.83h0c2.75,0,5.4-0.24,7.86-0.68
	C101.8,175.87,98.37,175.39,94.25,175.39z"/>
<ellipse class="st12" cx="94.68" cy="127.87" rx="33.39" ry="24.18"/>
<ellipse class="st19" cx="94.68" cy="127.87" rx="33.39" ry="24.18"/>
<ellipse class="st20" cx="94.68" cy="127.87" rx="33.39" ry="24.18"/>
<circle class="st17" cx="95.51" cy="127.87" r="20.11"/>
<g>
	<circle class="st13" cx="95.51" cy="127.87" r="10.71"/>
	<circle class="st12" cx="95.51" cy="127.87" r="7.95"/>
</g>
<circle class="st17" cx="89.71" cy="121.3" r="4.2"/>
<g>
	<path class="st11" d="M34.52,170.92c0,0-13.17,23.38,5.45,49.67c0,0-2.85,8.44,2.66,10.01c0,0,2.82,0.33,1.04-3.38
		c0,0,1.92,2.11,2.93,1.99c0,0,2.53-0.43,1.06-3.86c0,0,2.41,3.63,3.5,1.15c0.35-0.93,0.29-7.44-5.43-8.34
		c0,0-14.32-16.54-9.19-39.16C36.54,178.99,40.93,167.45,34.52,170.92z"/>
	<path class="st12" d="M38.68,181.08c0,0,5.28-12.14-0.59-13.53c-5.87-1.39-8.96,11.31-8.96,11.31L38.68,181.08z"/>
</g>
<g>
	<path class="st11" d="M146.99,179.99c0,0,3.13,26.66,33.66,36.93c0,0,2.67,8.5,8.05,6.52c0,0,2.47-1.4-1.15-3.34
		c0,0,2.79,0.58,3.53-0.12c0,0,1.79-1.83-1.42-3.75c0,0,4.09,1.51,3.51-1.13c-0.27-0.96-4.14-6.18-9.3-3.55
		c0,0-21.31-4.94-30.49-26.24C153.37,185.32,150.13,173.41,146.99,179.99z"/>
	<path class="st12" d="M156.34,185.74c0,0-2.89-12.92-8.44-10.59c-5.56,2.33-0.58,14.41-0.58,14.41L156.34,185.74z"/>
</g>
<g>
	<g>
		<path class="st21" d="M53.8,149.55c0,0-22-13.36-46.4-3.03"/>
	</g>
	<path class="st21" d="M10.3,157.89c0,0,13.34-10.23,42.96-4.06"/>
	<path class="st21" d="M18.02,164.83c0,0,18.86-8.49,35.68-6.76"/>
</g>
<g>
	<g>
		<path class="st21" d="M135.55,149.55c0,0,22-13.36,46.4-3.03"/>
	</g>
	<path class="st21" d="M179.05,157.89c0,0-13.34-10.23-42.96-4.06"/>
	<path class="st21" d="M171.33,164.83c0,0-18.86-8.49-35.68-6.76"/>
</g>
<path class="st13" d="M114.58,94.64L114.58,94.64c0,0.01,0,0.01,0,0.02c0,0.43,0.23,0.77,0.52,0.78l9.23,0.05
	c0.29,0,0.53-0.35,0.53-0.78c0,0,0-0.01,0-0.01l0,0c0-0.01,0-0.01,0-0.02c0-0.43-0.23-0.77-0.52-0.78l-9.23-0.05
	c-0.29,0-0.53,0.35-0.53,0.78C114.58,94.63,114.58,94.63,114.58,94.64z"/>
<path class="st13" d="M112.69,97.7L112.69,97.7c0,0.01,0,0.01,0,0.02c0,0.43,0.23,0.77,0.52,0.78l9.23,0.05
	c0.29,0,0.53-0.35,0.53-0.78c0,0,0-0.01,0-0.01l0,0c0-0.01,0-0.01,0-0.02c0-0.43-0.23-0.77-0.52-0.78l-9.23-0.05
	c-0.29,0-0.53,0.35-0.53,0.78C112.69,97.69,112.69,97.7,112.69,97.7z"/>
<path class="st13" d="M115.28,100.97L115.28,100.97c0,0.01,0,0.01,0,0.02c0,0.43,0.23,0.77,0.52,0.78l9.23,0.05
	c0.29,0,0.53-0.35,0.53-0.78c0,0,0-0.01,0-0.01l0,0c0-0.01,0-0.01,0-0.02c0-0.43-0.23-0.77-0.52-0.78l-9.23-0.05
	c-0.29,0-0.53,0.35-0.53,0.78C115.28,100.96,115.28,100.96,115.28,100.97z"/>
<path class="st13" d="M53.51,173.21L53.51,173.21c0,0.01,0,0.01,0,0.02c0,0.43,0.23,0.77,0.52,0.78l9.23,0.05
	c0.29,0,0.53-0.35,0.53-0.78c0,0,0-0.01,0-0.01l0,0c0-0.01,0-0.01,0-0.02c0-0.43-0.23-0.77-0.52-0.78l-9.23-0.05
	c-0.29,0-0.53,0.35-0.53,0.78C53.51,173.21,53.51,173.21,53.51,173.21z"/>
<path class="st13" d="M51.61,176.28L51.61,176.28c0,0.01,0,0.01,0,0.02c0,0.43,0.23,0.77,0.52,0.78l9.23,0.05
	c0.29,0,0.53-0.35,0.53-0.78c0,0,0-0.01,0-0.01v0c0-0.01,0-0.01,0-0.02c0-0.43-0.23-0.77-0.52-0.78l-9.23-0.05
	c-0.29,0-0.53,0.35-0.53,0.78C51.61,176.27,51.61,176.28,51.61,176.28z"/>
<path class="st13" d="M54.21,179.54L54.21,179.54c0,0.01,0,0.01,0,0.02c0,0.43,0.23,0.77,0.52,0.78l9.23,0.05
	c0.29,0,0.53-0.35,0.53-0.78c0,0,0-0.01,0-0.01l0,0c0-0.01,0-0.01,0-0.02c0-0.43-0.23-0.77-0.52-0.78l-9.23-0.05
	c-0.29,0-0.53,0.35-0.53,0.78C54.21,179.54,54.21,179.54,54.21,179.54z"/>
<path class="st22" d="M94.68,103.69c-18.44,0-33.39,10.83-33.39,24.18c0,8.21,5.65,15.46,14.28,19.83l39.17-39.17
	C109.15,105.49,102.2,103.69,94.68,103.69z"/>
<g>
	<g>
		<path class="st7" d="M145.03,220.66c-0.35,2.47,0.99,4.67,2.9,4.88c1.84,0.28,3.68-1.56,3.96-3.96"/>
		<path class="st9" d="M158.4,209.56c-3.61,5.3-5.02,9.55-5.59,11.95c-0.28,1.13-1.2,0.78-2.33,0.64l-4.17-0.49
			c-1.41-0.14-2.4-0.42-2.05-1.77c2.05-7.14,5.66-12.45,7.57-14.92c0.71-0.99,2.05-1.2,3.04-0.49l2.97,1.98
			C158.89,207.23,159.18,208.64,158.4,209.56z"/>
	</g>
	<g>
		<path class="st7" d="M201.92,221.43c0,2.5,1.6,4.4,3.5,4.4s3.4-2,3.4-4.5"/>
		<path class="st9" d="M197.72,205.73l3.2-1.7c1.1-0.5,2.4-0.2,3,0.8c1.6,2.7,4.6,8.4,5.8,15.7c0.2,1.4-0.8,1.5-2.2,1.5h-4.2
			c-1.2,0-2.1,0.2-2.3-0.9c-0.3-2.4-1.2-6.8-4.2-12.5C196.12,207.73,196.52,206.33,197.72,205.73z"/>
	</g>
	<g>
		<g>
			<ellipse class="st9" cx="161.32" cy="231.06" rx="4.4" ry="4.4"/>
		</g>
		<g>
			<ellipse class="st9" cx="190.72" cy="231.38" rx="4.4" ry="4.4"/>
		</g>
		<g>
			<ellipse class="st9" cx="180.85" cy="233.1" rx="4.4" ry="4.4"/>
		</g>
		<g>
			<ellipse class="st9" cx="171.05" cy="232.99" rx="4.4" ry="4.4"/>
		</g>
	</g>
	<g>
		<path class="st5" d="M201.67,220.7c-0.1,12.1-11.6,13.3-25.7,13.1c-14.1-0.1-25.5-1.6-25.4-13.7s11.8-39.2,25.9-39
			C190.67,181.3,201.77,208.7,201.67,220.7z"/>
	</g>
	<path class="st23" d="M200.27,211.2c0.9,3.6,1.4,6.9,1.4,9.5c0,1.7-0.3,3.2-0.7,4.5c-0.1,0.3-0.2,0.6-0.3,0.8
		c-0.1,0.1-0.1,0.3-0.2,0.4c-0.1,0.3-0.3,0.5-0.4,0.8c-0.3,0.5-0.6,0.9-1,1.4c-0.5,0.5-1,1-1.5,1.4c-0.3,0.3-0.7,0.5-1.1,0.7
		c-4.7,2.9-12.1,3.2-20.5,3.2c0,0,0,0-0.1,0c-0.2,0-0.4,0-0.7,0c-0.1,0-0.2,0-0.3,0c-0.2,0-0.3,0-0.5,0c-0.1,0-0.2,0-0.3,0
		c-0.2,0-0.3,0-0.5,0c-0.1,0-0.2,0-0.3,0c-0.2,0-0.3,0-0.5,0c-0.1,0-0.1,0-0.2,0c-0.2,0-0.5,0-0.7,0c-0.1,0-0.1,0-0.2,0
		c-0.2,0-0.4,0-0.5,0s-0.2,0-0.2,0c-0.2,0-0.3,0-0.5,0c-0.1,0-0.2,0-0.3,0c-0.2,0-0.3,0-0.5,0c-0.1,0-0.2,0-0.2,0
		c-0.2,0-0.4,0-0.6,0h-0.1c-0.2,0-0.5,0-0.7,0c-0.1,0-0.1,0-0.2,0c-0.2,0-0.3,0-0.5,0c-0.1,0-0.2,0-0.2,0c-0.1,0-0.3,0-0.4,0
		c-0.1,0-0.2,0-0.2,0c-0.2,0-0.3,0-0.5,0c-0.1,0-0.1,0-0.2,0c-0.2,0-0.4,0-0.6-0.1h-0.1c-0.2,0-0.4,0-0.5-0.1c-0.1,0-0.1,0-0.2,0
		c-0.1,0-0.3,0-0.4-0.1c-0.1,0-0.1,0-0.2,0c-0.1,0-0.3,0-0.4-0.1c-0.1,0-0.1,0-0.2,0c-0.2,0-0.3-0.1-0.5-0.1h-0.1
		c-0.2,0-0.4-0.1-0.6-0.1h-0.1c-0.1,0-0.3-0.1-0.4-0.1c-0.1,0-0.1,0-0.2,0c-0.1,0-0.3-0.1-0.4-0.1c-0.1,0-0.1,0-0.2,0
		c-0.1,0-0.3-0.1-0.4-0.1h-0.1c-0.4-0.1-0.7-0.2-1.1-0.3h-0.1c-0.1,0-0.2-0.1-0.4-0.1c-0.1,0-0.1,0-0.2-0.1c0,0-0.1,0-0.1-0.1
		c25.4-7.8,36.3-20,40.3-25.7L200.27,211.2z"/>
	<g>
		<g>
			<path class="st9" d="M187.47,147.6l15.8-3.1c3.1-0.6,5.8,2.4,4.7,5.4l-5.2,15.2"/>
			<polygon class="st5" points="189.37,150.3 204.07,146.9 194.77,154.1 			"/>
		</g>
		<g>
			<path class="st9" d="M164.07,147.6l-15.8-3.1c-3.1-0.6-5.8,2.4-4.7,5.4l5.2,15.2"/>
			<polygon class="st5" points="162.07,150.3 147.37,146.9 156.77,154.1 			"/>
		</g>
	</g>
	<path class="st7" d="M209.77,185.3c-0.2,18.4-15.2,28.6-33.5,28.4c-18.4-0.2-33.1-10.7-32.9-29.1s15.2-45.9,33.6-45.7
		C195.27,139.1,209.97,166.9,209.77,185.3z"/>
	<path class="st24" d="M186.47,198.7c0,4.2-4,7.6-8.9,7.6s-8.9-3.4-8.9-7.6c0-4.2,4-1,8.9-1C182.47,197.8,186.47,194.6,186.47,198.7
		z"/>
	<g>
		<path class="st25" d="M158.47,156.7c0,0,3-9.1,15.9-11.6"/>
		<path class="st25" d="M177.27,144.4C177.77,144.3,176.77,144.5,177.27,144.4"/>
	</g>
	<g>
		<g>
			<circle class="st9" cx="197.27" cy="185.3" r="0.9"/>
			<circle class="st9" cx="199.67" cy="183.3" r="0.9"/>
			<circle class="st9" cx="200.57" cy="186.6" r="0.9"/>
			<circle class="st9" cx="197.87" cy="188.6" r="0.9"/>
			<circle class="st9" cx="200.97" cy="190" r="0.9"/>
			<circle class="st9" cx="202.87" cy="184.4" r="0.9"/>
			<circle class="st9" cx="203.77" cy="187.7" r="0.9"/>
			<circle class="st9" cx="194.77" cy="187.9" r="0.9"/>
			<circle class="st9" cx="196.57" cy="191.3" r="0.9"/>
		</g>
		<g>
			<circle class="st9" cx="156.57" cy="185.3" r="0.9"/>
			<circle class="st9" cx="154.17" cy="183.3" r="0.9"/>
			<circle class="st9" cx="153.27" cy="186.6" r="0.9"/>
			<circle class="st9" cx="155.97" cy="188.6" r="0.9"/>
			<circle class="st9" cx="152.87" cy="190" r="0.9"/>
			<circle class="st9" cx="150.97" cy="184.4" r="0.9"/>
			<circle class="st9" cx="150.07" cy="187.7" r="0.9"/>
			<circle class="st9" cx="159.07" cy="187.9" r="0.9"/>
			<circle class="st9" cx="157.27" cy="191.3" r="0.9"/>
		</g>
	</g>
	<g>
		<circle class="st17" cx="176.97" cy="176.4" r="8.9"/>
		<g>
			<circle class="st26" cx="176.97" cy="176.4" r="4.7"/>
			<circle class="st9" cx="176.97" cy="176.4" r="3.5"/>
		</g>
		<g>
			<circle class="st27" cx="176.97" cy="176.4" r="12.9"/>
			<path class="st28" d="M167.87,185.5c-5-5-5-13.2,0-18.2s13.2-5,18.2,0"/>
		</g>
		<circle class="st29" cx="176.97" cy="176.4" r="12.9"/>
		<circle class="st17" cx="174.77" cy="172.3" r="2.2"/>
	</g>
	<path class="st5" d="M185.87,198.2c0,4.2-4,7.6-8.9,7.6s-8.9-3.4-8.9-7.6c0-4.2,4-1,8.9-1S185.87,194,185.87,198.2z"/>
	<g>
		<circle class="st7" cx="170.07" cy="198" r="0.9"/>
		<circle class="st7" cx="183.97" cy="198" r="0.9"/>
	</g>
	<g>
		<circle class="st9" cx="176.97" cy="201.4" r="2.2"/>
		<path class="st9" d="M176.97,200.9c-2.7,0-4.8,2.2-4.8,4.8s2.2,4.8,4.8,4.8s4.8-2.2,4.8-4.8S179.67,200.9,176.97,200.9z
			 M176.97,208.3c-1.9,0-3.4-1.5-3.4-3.4s1.5-3.4,3.4-3.4s3.4,1.5,3.4,3.4C180.37,206.8,178.87,208.3,176.97,208.3z"/>
	</g>
</g>
<ellipse class="st0" cx="311.49" cy="237.33" rx="56.98" ry="9.58"/>
<g>
	<g>
		<g>
			<g>
				<g>
					<g>
						<rect x="294.29" y="200.11" class="st1" width="12.83" height="33.71"/>
					</g>
				</g>
				<g>
					<g>
						<rect x="294.29" y="188.2" class="st1" width="12.83" height="33.71"/>
					</g>
				</g>
			</g>
		</g>
		<path class="st2" d="M296.01,226.29c0,0-17.5-1.38-17.56,2.25c-0.07,3.72,4.98,2.54,4.98,2.54s-7.13,0.98-4.18,4.3
			c3.98,4.46,27.86-1.55,27.86-1.55v-9.49L296.01,226.29z"/>
		<rect x="294.29" y="221.92" class="st2" width="12.83" height="9.94"/>
		<path class="st30" d="M306.79,223.59h-12.17c-0.8,0-1.44-0.65-1.44-1.44v-0.46c0-0.8,0.65-1.44,1.44-1.44h12.17
			c0.8,0,1.44,0.65,1.44,1.44v0.46C308.23,222.94,307.58,223.59,306.79,223.59z"/>
		<path class="st30" d="M294.04,236.36c3.26-0.45,6.44-1.07,8.84-1.58c-0.87-1.33-2.38-2.22-4.09-2.22
			C296.48,232.57,294.54,234.19,294.04,236.36z"/>
		<circle class="st30" cx="302.73" cy="231.12" r="1.74"/>
		<circle class="st30" cx="299.63" cy="229.19" r="0.97"/>
	</g>
	<g>
		<g>
			<g>
				<g>
					<g>
						
							<rect x="318.9" y="200.11" transform="matrix(-1 -4.522128e-11 4.522128e-11 -1 650.6371 433.9367)" class="st1" width="12.83" height="33.71"/>
					</g>
				</g>
				<g>
					<g>
						
							<rect x="318.9" y="188.2" transform="matrix(-1 -4.479629e-11 4.479629e-11 -1 650.6371 410.1191)" class="st1" width="12.83" height="33.71"/>
					</g>
				</g>
			</g>
		</g>
		<path class="st2" d="M330.01,226.29c0,0,17.5-1.38,17.56,2.25c0.07,3.72-4.98,2.54-4.98,2.54s7.13,0.98,4.18,4.3
			c-3.98,4.46-27.86-1.55-27.86-1.55v-9.49L330.01,226.29z"/>
		<rect x="318.9" y="221.92" class="st2" width="12.83" height="9.94"/>
		<path class="st30" d="M331.39,223.59h-12.17c-0.8,0-1.44-0.65-1.44-1.44v-0.46c0-0.8,0.65-1.44,1.44-1.44h12.17
			c0.8,0,1.44,0.65,1.44,1.44v0.46C332.83,222.94,332.18,223.59,331.39,223.59z"/>
		<path class="st30" d="M340.54,226.12c-1.86-0.11-3.84-0.11-5.56-0.07c-0.01,0.11-0.02,0.22-0.02,0.33c0,1.55,1.25,2.8,2.8,2.8
			s2.8-1.25,2.8-2.8C340.56,226.3,340.55,226.21,340.54,226.12z"/>
		<circle class="st30" cx="333.98" cy="229.71" r="0.97"/>
		<circle class="st30" cx="337" cy="231.42" r="1.43"/>
	</g>
</g>
<path class="st31" d="M254.31,159.73c0-37.67,26.28-29.38,58.7-29.38s58.7-8.29,58.7,29.38s-26.28,49.33-58.7,49.33
	S254.31,197.4,254.31,159.73z"/>
<g>
	<g>
		<circle class="st30" cx="319.59" cy="159.14" r="2.9"/>
		<g>
			<circle class="st31" cx="320.94" cy="157.93" r="0.46"/>
			<circle class="st31" cx="318.23" cy="160.35" r="0.46"/>
		</g>
	</g>
	<g>
		<circle class="st30" cx="319.59" cy="172.6" r="2.9"/>
		<g>
			<circle class="st31" cx="320.94" cy="171.39" r="0.46"/>
			<circle class="st31" cx="318.23" cy="173.81" r="0.46"/>
		</g>
	</g>
	<g>
		<circle class="st30" cx="319.59" cy="186.06" r="2.9"/>
		<g>
			<circle class="st31" cx="320.94" cy="184.85" r="0.46"/>
			<circle class="st31" cx="318.23" cy="187.27" r="0.46"/>
		</g>
	</g>
	<g>
		<circle class="st30" cx="319.59" cy="199.53" r="2.9"/>
		<g>
			<circle class="st31" cx="320.94" cy="198.31" r="0.46"/>
			<circle class="st31" cx="318.23" cy="200.74" r="0.46"/>
		</g>
	</g>
</g>
<line class="st32" x1="313.01" y1="141.83" x2="313.01" y2="205.06"/>
<g>
	<path class="st1" d="M365.09,128.27c0,0,38.58,48.86-24.66,64.77l-1.86-14.63c0,0,37.46-9.89,20.69-44.63
		C359.26,133.77,357.58,122.67,365.09,128.27z"/>
	<path class="st2" d="M333.58,181.56c0,0-10.02-3.42-11.44-1.01c-1.7,2.88,1.38,4.71,3.29,4.41c0,0-6.8-0.76-7.02,2.5
		c-0.23,3.31,4.18,3.82,8.03,2.43c0,0-6.11,1.09-5.29,3.65c0.84,2.62,8.95,2.66,16.88-2.66S333.58,181.56,333.58,181.56z"/>
	<path class="st30" d="M335.51,195.13l4.76-0.93c1.59-0.31,2.63-1.85,2.32-3.44l-2.36-12.02c-0.31-1.59-1.85-2.63-3.44-2.32
		l-4.76,0.93c-1.59,0.31-2.63,1.85-2.32,3.44l2.36,12.02C332.38,194.4,333.92,195.44,335.51,195.13z"/>
</g>
<g>
	<g>
		<path class="st30" d="M289.61,68.41c-5.49,5.07-16.18,2.42-23.88-5.92c-7.7-8.34-12.58-25.25-7.09-30.32
			c5.49-5.07,19.26,3.63,26.96,11.97C293.3,52.48,295.1,63.34,289.61,68.41z"/>
		<path class="st31" d="M263.63,33.11c0,0,12.3,2.79,21.93,16.01l-2.39,1.85C283.16,50.96,279.16,42.63,263.63,33.11z"/>
	</g>
	<g>
		<path class="st30" d="M336.41,68.41c5.49,5.07,16.18,2.42,23.88-5.92c7.7-8.34,12.58-25.25,7.09-30.32s-19.26,3.63-26.96,11.97
			C332.72,52.48,330.92,63.34,336.41,68.41z"/>
		<path class="st31" d="M362.39,33.11c0,0-12.3,2.79-21.93,16.01l2.39,1.85C342.86,50.96,346.86,42.63,362.39,33.11z"/>
	</g>
</g>
<path class="st2" d="M370.16,96.58c0,31.57-25.6,46.86-57.17,46.86s-57.14-15.29-57.14-46.86s25.59-65.92,57.15-65.92
	S370.16,65.02,370.16,96.58z"/>
<circle class="st30" cx="313.13" cy="78" r="26.99"/>
<path class="st30" d="M353.55,85.34c0,9.22,7.2,16.76,16.28,17.31c0.22-1.95,0.34-3.98,0.34-6.07c0-9.15-2.15-18.52-5.97-27.24
	C357.94,71.97,353.55,78.14,353.55,85.34z"/>
<path class="st30" d="M255.97,100.16c5.75-1.08,10.11-6.13,10.11-12.19c0-4.93-2.88-9.19-7.05-11.19
	c-2.05,6.5-3.18,13.21-3.18,19.81C255.86,97.8,255.9,98.99,255.97,100.16z"/>
<circle class="st30" cx="268.68" cy="99.9" r="3.21"/>
<circle class="st30" cx="347.66" cy="93.91" r="2.54"/>
<path class="st33" d="M270.08,70.16c0,0,2.94-8.44,11.06-14.38"/>
<line class="st33" x1="284.89" y1="52.83" x2="285.18" y2="52.57"/>
<g>
	<g>
		<circle class="st31" cx="335.54" cy="107.49" r="1.03"/>
		<circle class="st31" cx="333.49" cy="109.76" r="1.03"/>
		<circle class="st31" cx="333.49" cy="109.76" r="1.03"/>
		<circle class="st31" cx="337.6" cy="110.79" r="1.03"/>
		<circle class="st31" cx="334.3" cy="113.16" r="1.03"/>
		<circle class="st31" cx="339.4" cy="107.93" r="1.03"/>
		<circle class="st31" cx="338.37" cy="114.62" r="1.03"/>
		<circle class="st31" cx="341.45" cy="111.32" r="1.03"/>
	</g>
	<g>
		<circle class="st31" cx="290.72" cy="106.73" r="1.03"/>
		<circle class="st31" cx="292.77" cy="109" r="1.03"/>
		<circle class="st31" cx="292.77" cy="109" r="1.03"/>
		<circle class="st31" cx="288.66" cy="110.03" r="1.03"/>
		<circle class="st31" cx="291.96" cy="112.4" r="1.03"/>
		<circle class="st31" cx="286.87" cy="107.18" r="1.03"/>
		<circle class="st31" cx="287.89" cy="113.86" r="1.03"/>
		<circle class="st31" cx="284.81" cy="110.56" r="1.03"/>
	</g>
</g>
<g>
	<g>
		<path class="st30" d="M338.21,45.32c-0.48,0.84-2.81,1.06-4.56,0.06c-1.74-1.01-2.24-2.86-1.76-3.7c0.48-0.84,2.29-0.7,4.04,0.3
			C337.68,42.98,338.7,44.48,338.21,45.32z"/>
		<path class="st31" d="M336.99,12.55c-0.65,0.92-0.44,2.19,0.48,2.85l9.84,7.01l-5.02,7.05l-5.82-4.15
			c-0.92-0.65-2.19-0.44-2.85,0.48s-0.44,2.19,0.48,2.85l5.82,4.15l-6.2,8.71c-0.65,0.92-0.44,2.19,0.48,2.85
			c0.92,0.65,2.19,0.44,2.85-0.48l14.77-20.74c0.65-0.92,0.44-2.19-0.48-2.85l-11.51-8.19C338.92,11.42,337.64,11.63,336.99,12.55z"
			/>
	</g>
	<g>
		<path class="st30" d="M287.81,45.32c0.48,0.84,2.81,1.06,4.56,0.06c1.74-1.01,2.24-2.86,1.76-3.7c-0.48-0.84-2.29-0.7-4.04,0.3
			C288.35,42.98,287.32,44.48,287.81,45.32z"/>
		<path class="st31" d="M289.03,12.55c0.65,0.92,0.44,2.19-0.48,2.85l-9.84,7.01l5.02,7.05l5.82-4.15c0.92-0.65,2.19-0.44,2.85,0.48
			c0.65,0.92,0.44,2.19-0.48,2.85l-5.82,4.15l6.2,8.71c0.65,0.92,0.44,2.19-0.48,2.85c-0.92,0.65-2.19,0.44-2.85-0.48L274.2,23.12
			c-0.65-0.92-0.44-2.19,0.48-2.85l11.51-8.19C287.1,11.42,288.38,11.63,289.03,12.55z"/>
	</g>
</g>
<g>
	<path class="st1" d="M326.2,113.72c0,7.28-5.91,13.19-13.19,13.19s-13.19-5.91-13.19-13.19"/>
</g>
<path class="st30" d="M320.34,124.69c-1.6-1.47-4.28-2.7-7.33-2.7c-3.05,0-5.74,1.21-7.34,2.68c2.1,1.41,4.63,2.23,7.35,2.23
	C315.73,126.91,318.25,126.09,320.34,124.69z"/>
<g>
	<path class="st17" d="M321.26,113.72v4.44c0,0.66-0.53,1.19-1.19,1.19h-2.88c-0.66,0-1.19-0.53-1.19-1.19v-4.44"/>
</g>
<circle class="st17" cx="313.01" cy="77.39" r="20.29"/>
<g>
	<circle class="st2" cx="313.01" cy="77.39" r="10.8"/>
	<circle class="st1" cx="313.01" cy="77.39" r="8.02"/>
</g>
<circle class="st17" cx="304.99" cy="69.54" r="5.62"/>
<circle class="st30" cx="353.28" cy="101.29" r="3.71"/>
<path class="st30" d="M319.8,40.28c4.21,0,7.75-2.89,8.73-6.8c-4.93-1.81-10.14-2.81-15.52-2.81c-0.73,0-1.46,0.02-2.18,0.06
	c-0.01,0.18-0.02,0.37-0.02,0.56C310.81,36.25,314.84,40.28,319.8,40.28z"/>
<circle class="st30" cx="307.03" cy="39.38" r="3"/>
<circle class="st30" cx="313.83" cy="42.55" r="1.71"/>
<circle class="st34" cx="313.13" cy="78" r="26.99"/>
<g class="st35">
	<path class="st36" d="M294.26,97.22c-10.65-10.43-10.82-27.52-0.39-38.17s27.52-10.82,38.17-0.39"/>
</g>
<circle class="st37" cx="313.13" cy="78" r="26.99"/>
<path class="st38" d="M303.5,142.96c3.09,0.32,6.26,0.49,9.49,0.49c31.57,0,57.17-15.29,57.17-46.86c0-7.51-1.45-15.18-4.08-22.5
	C365.05,93.56,356.34,133.34,303.5,142.96z"/>
<path class="st30" d="M313.01,151.78c0,0,50.58-0.37,50.58-29.79v-1.11c0,0-7.7,15.76-50.7,15.79c-43-0.02-50.5-15.79-50.5-15.79
	v1.11c0,29.42,50.58,29.79,50.58,29.79"/>
<path class="st2" d="M220.72,89.81c0,0,4.82,11.41-3.41,19.39c-8.23,7.98-1.5-11.34-1.5-11.34S212.68,84.91,220.72,89.81z"/>
<path class="st30" d="M205.58,108.25l0.93,4.76c0.31,1.59,1.85,2.63,3.44,2.32l12.02-2.36c1.59-0.31,2.63-1.85,2.32-3.44l-0.93-4.76
	c-0.31-1.59-1.85-2.63-3.44-2.32l-12.02,2.36C206.31,105.12,205.27,106.66,205.58,108.25z"/>
</svg>
