<?xml version="1.0" encoding="utf-8"?>
<!-- Generator: Adobe Illustrator 23.0.1, SVG Export Plug-In . SVG Version: 6.00 Build 0)  -->
<svg version="1.0" xmlns="http://www.w3.org/2000/svg" xmlns:xlink="http://www.w3.org/1999/xlink" x="0px" y="0px"
	 viewBox="0 0 400 250" enable-background="new 0 0 400 250" xml:space="preserve">
<g id="Background">
</g>
<g id="Fog">
	<g opacity="0.69">
		
			<linearGradient id="SVGID_1_" gradientUnits="userSpaceOnUse" x1="-527.806" y1="3292.8076" x2="1798.2085" y2="3292.8076" gradientTransform="matrix(-1.6692 6.710710e-02 -5.716539e-02 -1.4219 -468.995 5731.9009)">
			<stop  offset="0" style="stop-color:#EB18FF;stop-opacity:0.5"/>
			<stop  offset="9.930713e-02" style="stop-color:#DD20FD;stop-opacity:0.5497"/>
			<stop  offset="0.2884" style="stop-color:#B736F8;stop-opacity:0.6442"/>
			<stop  offset="0.5476" style="stop-color:#7A5AF0;stop-opacity:0.7738"/>
			<stop  offset="0.8637" style="stop-color:#268AE4;stop-opacity:0.9318"/>
			<stop  offset="1" style="stop-color:#00A0DF"/>
		</linearGradient>
		<path fill="url(#SVGID_1_)" d="M188.9,798.4c-8.2,55.6-22.2,89.5-79.1,118c-96.6,48.4-203.9-16.2-313.9-29.7
			C-353.6,868.3-476,1001.4-626.5,1015c-126.2,11.3-247.5-63.7-372.6-45.2c-135.9,20.2-245.7,146.8-380,122.6
			c-59.7-10.8-114-51.5-173.9-40.4c-29,5.4-53,22.2-75.8,38.5c-110.9,79.4-256.7,163.6-387.2,113.5
			c-82.9-31.8-150.2-115.4-239.1-96.4c-34.6,7.4-61.9,29.7-87.4,51.1c-98.4,82.5-197.9,166.4-267.7,267.7
			c-14.8,21.4-30.2,45.2-57.2,54.5c-37.2,12.8-79.7-7.5-118.8,0.3c-40.9,8.2-65.9,45.3-71.6,80.7c-5.7,35.4,2.7,71.2,2.8,106.9
			c0.1,68.6-32.4,137.2-88.6,187c-57.7,51.2-144.3,91.3-153.5,161.5c-6.2,47.5,23.3,105.5-18.8,137.4
			c-32.3,24.4-82.9,11.8-120.1-6.1c-145.1-69.7-242.1-196.9-295-331.8c-52.9-134.9-66.5-278.7-79.7-420.9
			c-21.3-229.6-42.6-459.2-63.9-688.8c-9.8-105.6-17.8-218.6,44-311.4c47.1-70.6,129-119.7,213.9-156.7
			c246.8-107.7,532.5-131.2,807.5-117s545.2,63.9,818.1,94.8c380.6,43,773.4,50.6,1131.3,166.7c256.5,83.2,487.5,221.4,666,398.5
			c23.8,23.6,50.4,49.6,86.8,52.8c24.7,2.1,49-6.9,73.9-7.5s54.1,14,50.3,35"/>
	</g>
</g>
<g id="Sky">
	<g id="Layer_12">
	</g>
</g>
<g id="Mountains">
</g>
<g id="Trees">
</g>
<g id="Floor">
</g>
<g id="Dekoration">
</g>
<g id="Mask">
</g>
<g id="Character">
	<g>
		<path fill="#6B3CFF" d="M244.6,170.2c0,0-27.3,0.5-41.9-28.9c0,0-8.9-1.5-7.7-7.2c0,0,1.1-2.7,3.5,0.7c0,0-1-2.7-0.4-3.6
			c0,0,1.6-2.1,4,0.9c0,0-2.1-3.9,0.7-3.7c1,0.1,6.8,3.3,4.9,8.9c0,0,7.9,20.8,30.6,27.2C238.4,164.4,250.8,166.1,244.6,170.2z"/>
		<ellipse opacity="0.35" fill="#19002F" cx="308.8" cy="233.4" rx="59.9" ry="10.1"/>
		<g>
			<g>
				<g>
					<g>
						<path fill="#6B3CFF" d="M315.3,230.8c2.2,0,4-2,4-4.5v-59.7h-8.1v59.7C311.3,228.8,313.1,230.8,315.3,230.8z"/>
					</g>
					<rect x="311.3" y="166.6" opacity="0.54" fill="#1E0080" width="8.1" height="51.2"/>
				</g>
				<path fill="#6B3CFF" d="M324.7,231.6h-9.9c-1.9,0-3.5-1.6-3.5-3.5v-1.7c0-1.9,1.6-3.5,3.5-3.5h9.9c1.9,0,3.5,1.6,3.5,3.5v1.7
					C328.2,230,326.6,231.6,324.7,231.6z"/>
			</g>
			<rect x="311.3" y="166.6" opacity="0.54" fill="#1E0080" width="8.1" height="51.2"/>
		</g>
		<g>
			<g>
				<path fill="#6B3CFF" d="M302.2,230.8c-2.2,0-4-2-4-4.5v-59.7h8.1v59.7C306.3,228.8,304.5,230.8,302.2,230.8z"/>
			</g>
			
				<rect x="298.2" y="166.6" transform="matrix(-1 -5.077861e-11 5.077861e-11 -1 604.488 384.3185)" fill="#4A00D0" width="8.1" height="51.2"/>
			
				<rect x="298.2" y="166.6" transform="matrix(-1 -5.077861e-11 5.077861e-11 -1 604.488 384.3185)" opacity="0.54" fill="#1E0080" width="8.1" height="51.2"/>
			<path fill="#6B3CFF" d="M292.9,231.6h9.9c1.9,0,3.5-1.6,3.5-3.5v-1.7c0-1.9-1.6-3.5-3.5-3.5h-9.9c-1.9,0-3.5,1.6-3.5,3.5v1.7
				C289.4,230,290.9,231.6,292.9,231.6z"/>
		</g>
		<g>
			<g>
				<g>
					<path fill="#6B3CFF" d="M220.6,105.1c0-46.6,39.5-90,88.2-90s88.2,43.4,88.2,90s-39.5,106.1-88.2,106.1
						S220.6,151.8,220.6,105.1z"/>
				</g>
				<g>
					<path fill="none" stroke="#FFFFFF" stroke-width="4.6191" stroke-linecap="round" stroke-miterlimit="10" d="M269.2,40.6
						c8.7-5.6,19.5-9.8,32.7-10.8"/>
					<g>
						<g>
							<path fill="#FFFFFF" d="M311.2,31.6c3.1,0,3.1-4.9,0-4.9C308,26.8,308,31.6,311.2,31.6L311.2,31.6z"/>
						</g>
					</g>
				</g>
			</g>
			<path opacity="0.54" fill="#1E0080" d="M272.3,199.9L272.3,199.9c11.1,7.1,23.5,11.4,36.5,11.4c48.7,0,88.2-59.5,88.2-106.1
				C396.9,105.1,369.8,203.7,272.3,199.9z"/>
		</g>
		<g>
			<g>
				<g>
					<circle fill="#4A00D0" cx="245.1" cy="127.4" r="4.4"/>
					<circle fill="#4A00D0" cx="236.5" cy="133.3" r="1.8"/>
				</g>
				<circle fill="#4A00D0" cx="243.8" cy="138.1" r="3.3"/>
			</g>
			<g>
				<g>
					<circle fill="#4A00D0" cx="378.5" cy="83.8" r="4.4"/>
					<circle fill="#4A00D0" cx="369.8" cy="89.7" r="1.8"/>
				</g>
				<circle fill="#4A00D0" cx="377.1" cy="94.5" r="3.3"/>
			</g>
		</g>
		<path opacity="0.54" fill="#1E0080" d="M256.3,106.2c0-30,23.4-54.4,52.3-54.4c28.9,0,52.3,24.3,52.3,54.4s-23.4,68.3-52.3,68.3
			C279.8,174.5,256.3,136.3,256.3,106.2z"/>
		<path fill="#A4AAFF" d="M256.3,100c0-30,23.4-54.4,52.3-54.4C337.6,45.6,361,70,361,100s-23.4,68.3-52.3,68.3
			C279.8,168.3,256.3,130.1,256.3,100z"/>
		<ellipse fill="#6B3CFF" cx="307.7" cy="99.3" rx="37" ry="26.8"/>
		<g>
			<g>
				<path fill="#4A00D0" d="M308.9,142.2L308.9,142.2c5.3,0,9.6-1.8,9.6,2.3v0c0,4.1-4.3,7.4-9.6,7.4l0,0c-5.3,0-9.6-3.3-9.6-7.4v0
					C299.3,140.4,303.6,142.2,308.9,142.2z"/>
			</g>
			<path fill="#FFFFFF" d="M308.8,140.3c-2.5,0-4.8,0.6-6.8,1.5c0.2,2.7,3.1,2.6,6.8,2.6c3.7,0,6.6,0.1,6.8-2.6
				C313.6,140.8,311.3,140.3,308.8,140.3L308.8,140.3z"/>
		</g>
		<path opacity="0.36" fill="#D0E7FF" d="M308.7,125.5c0,0-0.1-0.1-0.1-0.1C308.6,125.4,308.7,125.4,308.7,125.5z"/>
		<path opacity="0.36" fill="#D0E7FF" d="M308.9,126.7c-0.1-0.1-0.3-0.3-0.4-0.4C308.6,126.4,308.7,126.5,308.9,126.7z"/>
		<path opacity="0.36" fill="#D0E7FF" d="M308.7,124.5C308.7,124.4,308.7,124.4,308.7,124.5C308.7,124.4,308.7,124.4,308.7,124.5z"
			/>
		<path opacity="0.36" fill="#D0E7FF" d="M308.8,126c-0.1-0.1-0.1-0.2-0.2-0.2C308.6,125.9,308.7,125.9,308.8,126z"/>
		<path opacity="0.36" fill="#D0E7FF" d="M308.7,124C308.7,123.9,308.7,123.9,308.7,124C308.7,123.9,308.7,123.9,308.7,124z"/>
		<path opacity="0.36" fill="#D0E7FF" d="M308.7,125C308.7,124.9,308.7,124.9,308.7,125C308.7,124.9,308.7,124.9,308.7,125z"/>
		<path opacity="0.36" fill="#FFFFFF" d="M308.8,124.9c-0.1-0.1-0.2-0.3-0.3-0.4C308.6,124.6,308.7,124.7,308.8,124.9z"/>
		<path opacity="0.36" fill="#FFFFFF" d="M308.8,124.4c-0.1-0.2-0.2-0.3-0.4-0.5C308.6,124.1,308.7,124.3,308.8,124.4z"/>
		<path opacity="0.36" fill="#FFFFFF" d="M308.8,126.2c-0.1-0.1-0.1-0.1-0.2-0.2C308.6,126.1,308.7,126.2,308.8,126.2z"/>
		<path opacity="0.36" fill="#FFFFFF" d="M308.8,125.8c-0.1-0.1-0.2-0.2-0.3-0.3C308.6,125.6,308.7,125.7,308.8,125.8z"/>
		<path opacity="0.36" fill="#FFFFFF" d="M308.8,125.3c-0.1-0.1-0.2-0.2-0.3-0.4C308.6,125.1,308.7,125.2,308.8,125.3z"/>
		<g>
			<g>
				<circle fill="#FFFFFF" cx="308.7" cy="99.3" r="18.4"/>
				<g>
					<circle fill="#6B3CFF" cx="308.7" cy="99.3" r="9.8"/>
					<circle fill="#1E0080" cx="308.7" cy="99.3" r="7.3"/>
				</g>
			</g>
		</g>
		<ellipse opacity="0.32" fill="#C2D8FF" cx="307.7" cy="100.6" rx="37" ry="26.8"/>
		<path opacity="0.45" fill="#FFFFFF" d="M283.2,119.2c-7.6-4.9-12.4-12.1-12.4-20c0-14.8,16.6-26.8,37-26.8
			c7.7,0,14.8,1.7,20.7,4.6"/>
		<ellipse fill="none" stroke="#FFFFFF" stroke-width="3.6011" stroke-miterlimit="10" cx="307.7" cy="99.2" rx="37" ry="26.8"/>
		<g>
			<circle fill="#6B3CFF" cx="283.9" cy="63.4" r="1.4"/>
			<circle fill="#6B3CFF" cx="288.1" cy="65.9" r="1.4"/>
			<circle fill="#6B3CFF" cx="283.1" cy="68.6" r="1.4"/>
			<circle fill="#6B3CFF" cx="293.8" cy="65.1" r="1.4"/>
			<circle fill="#6B3CFF" cx="289" cy="61.5" r="1.4"/>
		</g>
		<circle fill="#6B3CFF" cx="331.7" cy="61.5" r="3.3"/>
		<circle fill="#6B3CFF" cx="337" cy="67.3" r="2.2"/>
		<g>
			<ellipse transform="matrix(0.866 -0.5 0.5 0.866 8.2553 185.4109)" fill="#6B3CFF" cx="350.1" cy="77.3" rx="3.4" ry="4.4"/>
			<path fill="#4A00D0" d="M363.9,48.1c-1,0.6-1.2,2-0.6,2.9l6.9,10.4l-7.5,4.9l-4.1-6.2c-0.6-1-2-1.2-2.9-0.6s-1.2,2-0.6,2.9
				l4.1,6.2l-9.2,6.1c-1,0.6-1.2,2-0.6,2.9c0.6,1,2,1.2,2.9,0.6l22-14.5c1-0.6,1.2-2,0.6-2.9l-8.1-12.2
				C366.2,47.7,364.9,47.4,363.9,48.1z"/>
			<ellipse transform="matrix(0.5 -0.866 0.866 0.5 66.773 270.2558)" fill="#6B3CFF" cx="267.4" cy="77.3" rx="4.4" ry="3.4"/>
			<path fill="#4A00D0" d="M253.7,48.1c1,0.6,1.2,2,0.6,2.9l-6.9,10.4l7.5,4.9l4.1-6.2c0.6-1,2-1.2,2.9-0.6s1.2,2,0.6,2.9l-4.1,6.2
				l9.2,6.1c1,0.6,1.2,2,0.6,2.9c-0.6,1-2,1.2-2.9,0.6l-22-14.5c-1-0.6-1.2-2-0.6-2.9l8.1-12.2C251.4,47.7,252.7,47.4,253.7,48.1z"
				/>
		</g>
		<g>
			<path fill="#6B3CFF" d="M379.3,154.8c0,0,13.6,23.7-5.1,50.6c0,0,3,8.6-2.6,10.2c0,0-2.9,0.4-1.1-3.4c0,0-1.9,2.2-3,2
				c0,0-2.6-0.4-1.1-3.9c0,0-2.4,3.7-3.6,1.2c-0.4-0.9-0.4-7.6,5.4-8.5c0,0,14.4-17,9-40C377.3,163,372.7,151.3,379.3,154.8z"/>
			<path fill="#1E0080" d="M375.1,165.1c0,0-5.5-12.3,0.5-13.8c6-1.5,9.2,11.4,9.2,11.4L375.1,165.1z"/>
		</g>
		<circle fill="#FFFFFF" cx="302.2" cy="92" r="4.7"/>
		<path fill="#1E0080" d="M237.5,161.5c0,0,13.4,1.1,11.8,7.1c-1.6,5.9-14.5,2.6-14.5,2.6L237.5,161.5z"/>
		<g>
			<path fill="#A4AAFF" d="M221.4,123.3L171,39.8c0.5,0.8,0.2,1.9-0.6,2.5c-0.8,0.5-1.9,0.2-2.5-0.6l-2.8,1.7
				c0.5,0.8,0.2,1.9-0.6,2.5c-0.8,0.5-1.9,0.2-2.5-0.6l-2.8,1.7c0.5,0.8,0.2,1.9-0.6,2.5c-0.8,0.5-1.9,0.2-2.5-0.6l-2.8,1.7
				c0.5,0.8,0.2,1.9-0.6,2.5c-0.8,0.5-1.9,0.2-2.5-0.6l-2.8,1.7c0.5,0.8,0.2,1.9-0.6,2.5c-0.8,0.5-1.9,0.2-2.5-0.6l-2.8,1.7
				c0.5,0.8,0.2,1.9-0.6,2.5c-0.8,0.5-1.9,0.2-2.5-0.6l-2.8,1.7c0.5,0.8,0.2,1.9-0.6,2.5c-0.8,0.5-1.9,0.2-2.5-0.6l-2.8,1.7
				c0.5,0.8,0.2,1.9-0.6,2.5c-0.8,0.5-1.9,0.2-2.5-0.6l50.4,83.5"/>
			<line fill="#A4AAFF" x1="215.5" y1="126.8" x2="218.3" y2="125.1"/>
			<line fill="#A4AAFF" x1="209.6" y1="130.4" x2="212.4" y2="128.7"/>
			<path fill="#A4AAFF" d="M197.7,137.5l2.8-1.7c-0.5-0.8-0.2-1.9,0.6-2.5c0.8-0.5,1.9-0.2,2.5,0.6l2.8-1.7"/>
			<line fill="#A4AAFF" x1="191.8" y1="141.1" x2="194.7" y2="139.4"/>
			<line fill="#A4AAFF" x1="185.9" y1="144.7" x2="188.8" y2="142.9"/>
			<line fill="#A4AAFF" x1="180" y1="148.2" x2="182.9" y2="146.5"/>
			<path fill="#4A00D0" fill-opacity="0.28" d="M197.8,108.9c-2.8-4.6-8.8-6.1-13.4-3.3l0,0l0,0c4.6-2.8,6.1-8.8,3.3-13.4
				c-2.8-4.6-8.8-6.1-13.4-3.3c-7,3.6-9.5,28.5-9.5,28.5l0,0l0,0c0,0,23.2,9.4,29.7,4.9C199.1,119.5,200.6,113.5,197.8,108.9z"/>
			<path fill="#6B3CFF" d="M199,106.8c-2.8-4.6-8.8-6.1-13.4-3.3l0,0l0,0c4.6-2.8,6.1-8.8,3.3-13.4c-2.8-4.6-8.8-6.1-13.4-3.3
				c-7,3.6-9.5,28.5-9.5,28.5l0,0l0,0c0,0,23.2,9.4,29.7,4.9C200.3,117.4,201.8,111.4,199,106.8z"/>
			<path fill="none" stroke="#FFFFFF" stroke-width="1.0773" stroke-linecap="round" stroke-miterlimit="10" d="M177.2,88.7
				c0.2,0,4.5-2,8.2,1.1"/>
			
				<line fill="none" stroke="#FFFFFF" stroke-width="1.0773" stroke-linecap="round" stroke-miterlimit="10" x1="186.9" y1="91.2" x2="187.2" y2="91.7"/>
			<g>
				<circle fill="#6B3CFF" cx="141" cy="81.3" r="1.4"/>
				<circle fill="#6B3CFF" cx="146.3" cy="78.2" r="1.4"/>
				<circle fill="#6B3CFF" cx="151.6" cy="75" r="1.4"/>
				<circle fill="#6B3CFF" cx="156.4" cy="72.1" r="1.4"/>
				<circle fill="#6B3CFF" cx="161.7" cy="69" r="1.4"/>
				<circle fill="#6B3CFF" cx="167" cy="65.8" r="1.4"/>
				<circle fill="#6B3CFF" cx="172.4" cy="62.6" r="1.4"/>
				<circle fill="#6B3CFF" cx="177.2" cy="59.8" r="1.4"/>
			</g>
		</g>
		<path fill="#6B3CFF" d="M207.3,132.2c0,0-2.8-7.6-6.3-4.5c0,0-1.4,1.4,0.6,4.4c2,3-2,5.9-2,5.9l1.1,1.6L207.3,132.2z"/>
		
			<line fill="none" stroke="#FFFFFF" stroke-width="2.1545" stroke-linecap="round" stroke-miterlimit="10" x1="169.8" y1="53.1" x2="171.1" y2="52.4"/>
		
			<line fill="none" stroke="#FFFFFF" stroke-width="2.1545" stroke-linecap="round" stroke-miterlimit="10" x1="167" y1="55" x2="155.1" y2="62.4"/>
	</g>
	<g>
		<g>
			<path fill="#9700B8" d="M146.5,202.6c-1.9-1.5-4.5-1.5-5.6,0c-1.2,1.5-0.6,4,1.4,5.5"/>
			<path fill="#5D0081" d="M161.4,209.1l-0.7,3.5c-0.2,1.2-1.3,2-2.5,1.8c-3.1-0.4-9.4-1.6-15.9-5.2c-1.2-0.7-0.7-1.6,0.2-2.7
				l2.6-3.3c0.7-0.9,1.1-1.8,2.1-1.2c2.1,1.3,6.1,3.3,12.4,4.5C160.8,206.6,161.6,207.8,161.4,209.1z"/>
		</g>
		<ellipse opacity="0.51" fill="#19002F" cx="182.9" cy="237.4" rx="29.6" ry="4.5"/>
		<g>
			<path fill="#9700B8" d="M207.4,223.4c0,2.5,1.6,4.4,3.5,4.4c1.9,0,3.4-2,3.4-4.5"/>
			<path fill="#5D0081" d="M203.2,207.7l3.2-1.7c1.1-0.5,2.4-0.2,3,0.8c1.6,2.7,4.6,8.4,5.8,15.7c0.2,1.4-0.8,1.5-2.2,1.5l-4.2,0
				c-1.2,0-2.1,0.2-2.3-0.9c-0.3-2.4-1.2-6.8-4.2-12.5C201.6,209.7,202,208.3,203.2,207.7z"/>
		</g>
		<g>
			<g>
				
					<ellipse transform="matrix(1.048770e-02 -0.9999 0.9999 1.048770e-02 -65.5799 395.9164)" fill="#5D0081" cx="167.3" cy="231.1" rx="4.4" ry="4.4"/>
			</g>
			<g>
				
					<ellipse transform="matrix(1.048793e-02 -0.9999 0.9999 1.048793e-02 -36.7862 425.6307)" fill="#5D0081" cx="196.7" cy="231.4" rx="4.4" ry="4.4"/>
			</g>
			<g>
				
					<ellipse transform="matrix(1.048796e-02 -0.9999 0.9999 1.048796e-02 -48.1495 417.4366)" fill="#5D0081" cx="186.8" cy="233" rx="4.4" ry="4.4"/>
			</g>
			<g>
				
					<ellipse transform="matrix(1.048806e-02 -0.9999 0.9999 1.048806e-02 -57.7475 407.5318)" fill="#5D0081" cx="177" cy="232.9" rx="4.4" ry="4.4"/>
			</g>
		</g>
		<g>
			<path fill="#EB18FF" d="M207.6,220.7c-0.1,12.1-11.6,13.3-25.7,13.1c-14.1-0.1-25.5-1.6-25.4-13.7s11.8-39.2,25.9-39
				C196.6,181.3,207.7,208.7,207.6,220.7z"/>
		</g>
		<path opacity="0.72" fill="#5D0081" d="M206.2,211.2c0.9,3.6,1.4,6.9,1.4,9.5c0,1.7-0.3,3.2-0.7,4.5c-0.1,0.3-0.2,0.6-0.3,0.8
			c-0.1,0.1-0.1,0.3-0.2,0.4c-0.1,0.3-0.3,0.5-0.4,0.8c-0.3,0.5-0.6,0.9-1,1.4c-0.5,0.5-1,1-1.5,1.4c-0.3,0.3-0.7,0.5-1.1,0.7
			c-4.7,2.9-12.1,3.2-20.5,3.2c0,0,0,0-0.1,0c-0.2,0-0.4,0-0.7,0c-0.1,0-0.2,0-0.3,0c-0.2,0-0.3,0-0.5,0c-0.1,0-0.2,0-0.3,0
			c-0.2,0-0.3,0-0.5,0c-0.1,0-0.2,0-0.3,0c-0.2,0-0.3,0-0.5,0c-0.1,0-0.1,0-0.2,0c-0.2,0-0.5,0-0.7,0c-0.1,0-0.1,0-0.2,0
			c-0.2,0-0.4,0-0.5,0c-0.1,0-0.2,0-0.2,0c-0.2,0-0.3,0-0.5,0c-0.1,0-0.2,0-0.3,0c-0.2,0-0.3,0-0.5,0c-0.1,0-0.2,0-0.2,0
			c-0.2,0-0.4,0-0.6,0c0,0-0.1,0-0.1,0c-0.2,0-0.5,0-0.7,0c-0.1,0-0.1,0-0.2,0c-0.2,0-0.3,0-0.5,0c-0.1,0-0.2,0-0.2,0
			c-0.1,0-0.3,0-0.4,0c-0.1,0-0.2,0-0.2,0c-0.2,0-0.3,0-0.5,0c-0.1,0-0.1,0-0.2,0c-0.2,0-0.4,0-0.6-0.1c0,0-0.1,0-0.1,0
			c-0.2,0-0.4,0-0.5-0.1c-0.1,0-0.1,0-0.2,0c-0.1,0-0.3,0-0.4-0.1c-0.1,0-0.1,0-0.2,0c-0.1,0-0.3,0-0.4-0.1c-0.1,0-0.1,0-0.2,0
			c-0.2,0-0.3-0.1-0.5-0.1c0,0-0.1,0-0.1,0c-0.2,0-0.4-0.1-0.6-0.1c0,0-0.1,0-0.1,0c-0.1,0-0.3-0.1-0.4-0.1c-0.1,0-0.1,0-0.2,0
			c-0.1,0-0.3-0.1-0.4-0.1c-0.1,0-0.1,0-0.2,0c-0.1,0-0.3-0.1-0.4-0.1c0,0-0.1,0-0.1,0c-0.4-0.1-0.7-0.2-1.1-0.3c0,0-0.1,0-0.1,0
			c-0.1,0-0.2-0.1-0.4-0.1c-0.1,0-0.1,0-0.2-0.1c0,0-0.1,0-0.1-0.1c25.4-7.8,36.3-20,40.3-25.7L206.2,211.2z"/>
		<g>
			<g>
				<path fill="#5D0081" d="M193.4,147.6l15.8-3.1c3.1-0.6,5.8,2.4,4.7,5.4l-5.2,15.2"/>
				<polygon fill="#EB18FF" points="195.3,150.3 210,146.9 200.7,154.1 				"/>
			</g>
			<g>
				<path fill="#5D0081" d="M170,147.6l-15.8-3.1c-3.1-0.6-5.8,2.4-4.7,5.4l5.2,15.2"/>
				<polygon fill="#EB18FF" points="168,150.3 153.3,146.9 162.7,154.1 				"/>
			</g>
		</g>
		<path fill="#9700B8" d="M215.7,185.3c-0.2,18.4-15.2,28.6-33.5,28.4c-18.4-0.2-33.1-10.7-32.9-29.1s15.2-45.9,33.6-45.7
			C201.2,139.1,215.9,166.9,215.7,185.3z"/>
		<path opacity="0.54" fill="#5D0081" d="M192.4,198.7c0,4.2-4,7.6-8.9,7.6c-4.9,0-8.9-3.4-8.9-7.6c0-4.2,4-1,8.9-1
			C188.4,197.8,192.4,194.6,192.4,198.7z"/>
		<g>
			<path fill="none" stroke="#FFFFFF" stroke-width="1.74" stroke-linecap="round" stroke-miterlimit="10" d="M164.4,156.7
				c0,0,3-9.1,15.9-11.6"/>
			<path fill="none" stroke="#FFFFFF" stroke-width="1.74" stroke-linecap="round" stroke-miterlimit="10" d="M183.2,144.4
				C183.7,144.3,182.7,144.5,183.2,144.4"/>
		</g>
		<g>
			<g>
				<circle fill="#5D0081" cx="203.2" cy="185.3" r="0.9"/>
				<circle fill="#5D0081" cx="205.6" cy="183.3" r="0.9"/>
				<circle fill="#5D0081" cx="206.5" cy="186.6" r="0.9"/>
				<circle fill="#5D0081" cx="203.8" cy="188.6" r="0.9"/>
				<circle fill="#5D0081" cx="206.9" cy="190" r="0.9"/>
				<circle fill="#5D0081" cx="208.8" cy="184.4" r="0.9"/>
				<circle fill="#5D0081" cx="209.7" cy="187.7" r="0.9"/>
				<circle fill="#5D0081" cx="200.7" cy="187.9" r="0.9"/>
				<circle fill="#5D0081" cx="202.5" cy="191.3" r="0.9"/>
			</g>
			<g>
				<circle fill="#5D0081" cx="162.5" cy="185.3" r="0.9"/>
				<circle fill="#5D0081" cx="160.1" cy="183.3" r="0.9"/>
				<circle fill="#5D0081" cx="159.2" cy="186.6" r="0.9"/>
				<circle fill="#5D0081" cx="161.9" cy="188.6" r="0.9"/>
				<circle fill="#5D0081" cx="158.8" cy="190" r="0.9"/>
				<circle fill="#5D0081" cx="156.9" cy="184.4" r="0.9"/>
				<circle fill="#5D0081" cx="156" cy="187.7" r="0.9"/>
				<circle fill="#5D0081" cx="165" cy="187.9" r="0.9"/>
				<circle fill="#5D0081" cx="163.2" cy="191.3" r="0.9"/>
			</g>
		</g>
		<g>
			<circle fill="#FFFFFF" cx="182.9" cy="176.4" r="8.9"/>
			<g>
				<circle fill="#F9A6FF" cx="182.9" cy="176.4" r="4.7"/>
				<circle fill="#5D0081" cx="182.9" cy="176.4" r="3.5"/>
			</g>
			<g>
				<circle opacity="0.36" fill="#F9A6FF" cx="182.9" cy="176.4" r="12.9"/>
				<path opacity="0.36" fill="#FFFFFF" d="M173.8,185.5c-5-5-5-13.2,0-18.2c5-5,13.2-5,18.2,0"/>
			</g>
			<circle fill="none" stroke="#EB18FF" stroke-width="2.0942" stroke-miterlimit="10" cx="182.9" cy="176.4" r="12.9"/>
			<circle fill="#FFFFFF" cx="180.7" cy="172.3" r="2.2"/>
		</g>
		<path fill="#EB18FF" d="M191.8,198.2c0,4.2-4,7.6-8.9,7.6c-4.9,0-8.9-3.4-8.9-7.6c0-4.2,4-1,8.9-1
			C187.8,197.2,191.8,194,191.8,198.2z"/>
		<g>
			<circle fill="#9700B8" cx="176" cy="198" r="0.9"/>
			<circle fill="#9700B8" cx="189.9" cy="198" r="0.9"/>
		</g>
		<g>
			<circle fill="#5D0081" cx="182.9" cy="201.4" r="2.2"/>
			<path fill="#5D0081" d="M182.9,200.9c-2.7,0-4.8,2.2-4.8,4.8s2.2,4.8,4.8,4.8s4.8-2.2,4.8-4.8S185.6,200.9,182.9,200.9z
				 M182.9,208.3c-1.9,0-3.4-1.5-3.4-3.4c0-1.9,1.5-3.4,3.4-3.4s3.4,1.5,3.4,3.4C186.3,206.8,184.8,208.3,182.9,208.3z"/>
		</g>
	</g>
	<g>
		<ellipse opacity="0.51" fill="#19002F" cx="77.3" cy="233.6" rx="57" ry="8.6"/>
		<g>
			<path fill="#76CBFF" d="M25,201.9c0,3.7-2.4,6.6-5.3,6.6s-5.2-3-5.1-6.7"/>
			<path fill="#003875" d="M31.3,178.4l-4.8-2.5c-1.6-0.8-3.5-0.3-4.5,1.3c-2.5,4.1-6.8,12.5-8.7,23.5c-0.3,2,1.2,2.3,3.3,2.3
				l6.3,0.1c1.7,0,3.2,0.4,3.4-1.4c0.4-3.6,1.8-10.2,6.3-18.7C33.6,181.4,33,179.3,31.3,178.4z"/>
		</g>
		<g>
			<path fill="#76CBFF" d="M131.5,203.4c1.2,3.5,4.3,5.5,7.1,4.6c2.7-0.9,4-4.5,2.8-8"/>
			<path fill="#003875" d="M118.2,183.1l3.8-3.9c1.2-1.3,3.3-1.4,4.6-0.2c3.6,3.1,10.4,9.7,15.6,19.6c1,1.8-0.5,2.6-2.4,3.2l-6,2
				c-1.6,0.6-2.9,1.3-3.6-0.2c-1.5-3.3-4.9-9.1-11.9-15.8C116.9,186.6,116.9,184.4,118.2,183.1z"/>
		</g>
		<g>
			<g>
				
					<ellipse transform="matrix(1.048767e-02 -0.9999 0.9999 1.048767e-02 -174.7799 266.4061)" fill="#76CBFF" cx="47.2" cy="221.5" rx="8.5" ry="8.5"/>
			</g>
			<g>
				
					<ellipse transform="matrix(1.048805e-02 -0.9999 0.9999 1.048805e-02 -119.2171 323.7453)" fill="#76CBFF" cx="104" cy="222.1" rx="8.5" ry="8.5"/>
			</g>
			<g>
				
					<ellipse transform="matrix(1.048773e-02 -0.9999 0.9999 1.048773e-02 -141.1447 307.9334)" fill="#76CBFF" cx="85" cy="225.3" rx="8.5" ry="8.5"/>
			</g>
			<g>
				
					<ellipse transform="matrix(1.048795e-02 -0.9999 0.9999 1.048795e-02 -159.6656 288.8203)" fill="#76CBFF" cx="66.1" cy="225.1" rx="8.5" ry="8.5"/>
			</g>
		</g>
		<g>
			<path fill="#0084BF" d="M125.1,201.5c-0.2,23.3-22.3,25.6-49.5,25.3c-27.2-0.3-49.2-3.1-49-26.4c0.2-23.3,22.8-75.6,50.1-75.3
				S125.3,178.3,125.1,201.5z"/>
		</g>
		<g>
			<path fill="#0084BF" d="M24.1,167.7c-4.1-1.9-7.7,3.4-4.4,6.5c14.7,13.7,34.5,22.2,56.2,22.4c21.7,0.2,41.6-7.8,56.6-21.2
				c3.4-3-0.1-8.5-4.3-6.6c-14.2,6.3-32.4,12.1-52.2,11.9C56.2,180.4,38.1,174.2,24.1,167.7z"/>
		</g>
		<g>
			<g>
				<path fill="none" stroke="#0084BF" stroke-width="3.6629" stroke-linecap="round" stroke-miterlimit="10" d="M71.4,71.5
					c0,0-13.4-16.9-13.2-32.4"/>
				<circle fill="#76CBFF" cx="57.5" cy="36.8" r="7"/>
			</g>
			<g>
				<path fill="none" stroke="#0084BF" stroke-width="3.6629" stroke-linecap="round" stroke-miterlimit="10" d="M82.9,78.6
					c0,0,13.7-16.6,13.9-32.1"/>
				<circle fill="#76CBFF" cx="97.5" cy="44.2" r="7"/>
			</g>
		</g>
		<g>
			<g>
				<path fill="#0084BF" d="M5.8,54.9c0.4-39.5,31.8,24,71.3,24.4s72.2-62.5,71.8-22.9c-0.4,39.5-32.7,60.9-72.2,60.5
					S5.3,94.4,5.8,54.9z"/>
				<path opacity="0.54" fill="#003875" d="M148.9,56.4c0.1-8.8-1.5-12.5-4.4-13c0,0-0.5,34.6-23.5,49.1l2.7,11.8
					C139,94.1,148.7,77.9,148.9,56.4z"/>
				<path opacity="0.54" fill="#003875" d="M5.8,54.9c0.1-8.8,1.7-12.5,4.6-12.9c0,0-0.2,34.6,22.5,49.6l-3,11.7
					C14.9,92.8,5.5,76.4,5.8,54.9z"/>
			</g>
			<g>
				<g>
					<path fill="none" stroke="#76CBFF" stroke-width="2.4419" stroke-linecap="round" stroke-miterlimit="10" d="M20.3,53.7
						c0,0,8.6,9.2,16,14.2"/>
					<path fill="none" stroke="#76CBFF" stroke-width="2.4419" stroke-linecap="round" stroke-miterlimit="10" d="M40.8,71.2
						C40.8,71.2,38.3,69.4,40.8,71.2"/>
				</g>
				<g>
					<path fill="none" stroke="#76CBFF" stroke-width="2.4419" stroke-linecap="round" stroke-miterlimit="10" d="M134.4,54.9
						c0,0-8.8,9-16.3,13.9"/>
					<path fill="none" stroke="#76CBFF" stroke-width="2.4419" stroke-linecap="round" stroke-miterlimit="10" d="M113.5,71.9
						C113.5,71.9,116.1,70.3,113.5,71.9"/>
				</g>
			</g>
		</g>
		<g>
			<g>
				<path fill="#76CBFF" d="M140.7,133.1c-0.4,35.4-29.3,55.2-64.7,54.8c-35.4-0.4-63.9-20.7-63.6-56.2S41.8,68,77.2,68.3
					S141,97.7,140.7,133.1z"/>
				<g>
					<path fill="#0084BF" d="M14.9,150.3c6.6-0.5,11.8-6,11.9-12.7c0.1-7.1-5.7-13-12.8-13.1c-0.4,0-0.7,0-1.1,0
						c-0.3,2.4-0.5,4.8-0.5,7.2C12.3,138.2,13.2,144.5,14.9,150.3z"/>
					<path fill="#0084BF" d="M133.6,103.2c-3.4,0.9-5.9,3.9-5.9,7.6c0,4.4,3.5,8,7.9,8c1.3,0,2.4-0.3,3.5-0.8
						C137.8,112.8,136,107.8,133.6,103.2z"/>
					<circle fill="#0084BF" cx="32.9" cy="152.6" r="5.8"/>
					<circle fill="#0084BF" cx="120" cy="105.3" r="3.5"/>
					<circle fill="#0084BF" cx="110.9" cy="154.1" r="6.7"/>
					<circle fill="#0084BF" cx="118" cy="141.6" r="3.3"/>
					<circle fill="#0084BF" cx="33.5" cy="137.5" r="2.5"/>
				</g>
			</g>
			<g>
				<path fill="none" stroke="#FFFFFF" stroke-width="3.3576" stroke-linecap="round" stroke-miterlimit="10" d="M34.5,100.9
					c0,0,5.7-17.6,30.8-22.5"/>
				<path fill="none" stroke="#FFFFFF" stroke-width="3.3576" stroke-linecap="round" stroke-miterlimit="10" d="M70.8,77.3
					C71.7,77.2,69.9,77.5,70.8,77.3"/>
			</g>
		</g>
		<g>
			<path fill="#0084BF" d="M92.6,156.6c-0.1,9-7.5,16.3-16.5,16.2c-9-0.1-16.3-7.5-16.2-16.5"/>
			<path fill="#FFFFFF" d="M68.9,156.4l0,3.7c0,1.2,1,2.2,2.2,2.2l1.4,0c1.2,0,2.2-1,2.2-2.2l0-3.7L68.9,156.4z"/>
			<path fill="#FFFFFF" d="M77.8,156.5l0,3.7c0,1.2,1,2.2,2.2,2.2l1.4,0c1.2,0,2.2-1,2.2-2.2l0-3.7L77.8,156.5z"/>
		</g>
		<g>
			<g>
				<circle fill="#00A0DF" cx="76.7" cy="116.9" r="30.4"/>
			</g>
			<g>
				<circle fill="#FFFFFF" cx="76.7" cy="116.9" r="21.1"/>
				<g>
					<circle fill="#00A0DF" cx="76.7" cy="116.9" r="11.2"/>
					<circle fill="#1E0080" cx="76.7" cy="116.9" r="8.3"/>
				</g>
			</g>
			<g>
				<circle opacity="0.38" fill="#D0E7FF" cx="76.7" cy="116.9" r="30.4"/>
				<path opacity="0.45" fill="#FFFFFF" d="M54.9,138.2c-11.8-12-11.6-31.3,0.5-43.1s31.3-11.6,43.1,0.5"/>
				<circle fill="none" stroke="#00A0DF" stroke-width="3.6716" stroke-miterlimit="10" cx="76.7" cy="116.9" r="30.4"/>
			</g>
		</g>
		<circle fill="#FFFFFF" cx="70.4" cy="109.5" r="5.8"/>
		<path opacity="0.54" fill="#003875" d="M129.7,168.4c-2.6,4.6-26.9,35.6-88,54.3c0.1,0,0.2,0.1,0.3,0.1c0.1,0,0.2,0.1,0.3,0.1
			c0.2,0.1,0.5,0.2,0.7,0.2c0.1,0,0.2,0.1,0.3,0.1c0.7,0.2,1.4,0.4,2.1,0.6c0.1,0,0.2,0.1,0.3,0.1c0.3,0.1,0.5,0.1,0.8,0.2
			c0.1,0,0.2,0.1,0.4,0.1c0.2,0.1,0.5,0.1,0.8,0.2c0.1,0,0.2,0.1,0.4,0.1c0.3,0.1,0.6,0.1,0.9,0.2c0.1,0,0.2,0,0.3,0.1
			c0.4,0.1,0.8,0.2,1.1,0.2c0.1,0,0.1,0,0.2,0c0.3,0.1,0.7,0.1,1,0.2c0.1,0,0.2,0,0.4,0.1c0.3,0,0.5,0.1,0.8,0.1
			c0.1,0,0.3,0,0.4,0.1c0.3,0,0.6,0.1,0.8,0.1c0.1,0,0.3,0,0.4,0.1c0.4,0,0.7,0.1,1.1,0.1c0.1,0,0.1,0,0.2,0
			c0.4,0.1,0.8,0.1,1.2,0.1c0.1,0,0.2,0,0.3,0c0.3,0,0.6,0.1,0.9,0.1c0.1,0,0.3,0,0.4,0c0.3,0,0.6,0.1,0.9,0.1c0.1,0,0.3,0,0.4,0
			c0.3,0,0.6,0.1,0.9,0.1c0.1,0,0.2,0,0.4,0c0.4,0,0.9,0.1,1.3,0.1c0.1,0,0.1,0,0.2,0c0.4,0,0.8,0,1.2,0.1c0.1,0,0.3,0,0.4,0
			c0.3,0,0.6,0,0.9,0c0.2,0,0.3,0,0.5,0c0.3,0,0.6,0,0.9,0c0.2,0,0.3,0,0.5,0c0.4,0,0.7,0,1.1,0c0.1,0,0.2,0,0.3,0
			c0.5,0,0.9,0,1.4,0c0.1,0,0.3,0,0.4,0c0.3,0,0.7,0,1,0c0.2,0,0.3,0,0.5,0c0.3,0,0.6,0,0.9,0c0.2,0,0.4,0,0.5,0c0.3,0,0.6,0,0.9,0
			c0.2,0,0.3,0,0.5,0c0.4,0,0.9,0,1.3,0c0,0,0.1,0,0.1,0c16.2,0.2,30.5-0.6,39.5-6.1c0.7-0.4,1.4-0.9,2-1.4c1.1-0.8,2.1-1.7,2.9-2.8
			c0.7-0.8,1.3-1.7,1.9-2.6c0.3-0.5,0.5-1,0.8-1.5c0.1-0.3,0.2-0.5,0.4-0.8c0.2-0.5,0.4-1.1,0.6-1.6c0.9-2.5,1.3-5.4,1.4-8.6
			c0.1-5-0.9-11.5-2.7-18.4c3.6-2.3,7-4.9,10.2-7.8C135.5,172.7,133.1,168.2,129.7,168.4"/>
	</g>
</g>
<g id="Lines">
</g>
<g id="Text" display="none">
</g>
<g id="Fog_Overlay">
</g>
</svg>
