<?xml version="1.0" encoding="utf-8"?>
<!-- Generator: Adobe Illustrator 24.0.0, SVG Export Plug-In . SVG Version: 6.00 Build 0)  -->
<svg version="1.1" id="Layer_1" xmlns="http://www.w3.org/2000/svg" xmlns:xlink="http://www.w3.org/1999/xlink" x="0px" y="0px"
	 viewBox="0 0 400 250" style="enable-background:new 0 0 400 250;" xml:space="preserve">
<style type="text/css">
	.st0{opacity:0.09;}
	.st1{fill:#9700B8;}
	.st2{fill:#5D0081;}
	.st3{fill:#EB18FF;}
	.st4{opacity:0.64;fill:#3E005A;}
	.st5{fill:none;stroke:#FFFFFF;stroke-width:2.5502;stroke-linecap:round;stroke-miterlimit:10;}
	.st6{opacity:0.3;fill:#3E005A;}
	.st7{fill:#FFFFFF;}
	.st8{fill:#F9A6FF;}
	.st9{opacity:0.45;}
	.st10{fill:none;stroke:#FFFFFF;stroke-width:1.2751;stroke-miterlimit:10;}
	.st11{opacity:0.45;fill:#FFFFFF;}
	.st12{fill:#36009F;}
	.st13{fill:#90A9FF;}
	.st14{fill:#5C5EFF;}
	.st15{fill:#4C25D0;}
	.st16{fill:none;stroke:#36009F;stroke-width:2.1304;stroke-linecap:round;stroke-miterlimit:10;}
	.st17{fill:none;stroke:#FFFFFF;stroke-width:2.9669;stroke-linecap:round;stroke-miterlimit:10;}
	.st18{opacity:0.19;fill:#506EFF;}
	.st19{opacity:0.83;}
	.st20{opacity:0.56;fill:#FFFFFF;}
	.st21{fill:none;stroke:#FFFFFF;stroke-width:1.4835;stroke-miterlimit:10;}
	.st22{opacity:0.3;fill:#4C25D0;}
	.st23{display:none;}
	.st24{fill:#92DDFF;}
	.st25{fill:#214978;}
	.st26{fill:#349FDB;}
	.st27{fill:none;stroke:#349FDB;stroke-width:2.7821;stroke-linecap:round;stroke-miterlimit:10;}
	.st28{fill:none;stroke:#FFFFFF;stroke-width:2.8776;stroke-linecap:round;stroke-miterlimit:10;}
	.st29{opacity:0.47;fill:#214978;}
	.st30{fill:#0084BF;}
	.st31{opacity:0.12;fill:#FFFFFF;}
	.st32{fill:none;stroke:#FFFFFF;stroke-width:1.4388;stroke-miterlimit:10;}
	.st33{fill:none;stroke:#0084BF;stroke-width:1.7266;stroke-linecap:round;stroke-miterlimit:10;}
</style>
<g>
	<ellipse class="st0" cx="88.91" cy="236.23" rx="50.63" ry="8.51"/>
	<g>
		<g>
			<g>
				<path class="st1" d="M80.58,187.81c0,0,5.32,5.41-2.41,21.36c-0.34,0.7-0.75,1.44-1.22,2.06c-1.29,1.72-4.69,3.03-4.81-2.95
					c0,0-0.88,5.04-3.85,3c-2.32-1.6-4.23-14.21,5.6-23.78"/>
				<path class="st2" d="M67.94,126.08c-7.05,39.11,5.27,61.35,5.27,61.35l8.11,0.39c-6.64-11.42-1.53-49.65-0.26-58.29
					c0.16-1.12,0.26-1.75,0.26-1.75"/>
				<g>
					<path class="st3" d="M70.91,210.39c-0.67,1.72-2.48,3.57-1.5,5.94c0,0-2.63-1.35-1.79-6.33c0.1-0.59,0.3-1.17,0.81-1.48
						c0.62-0.39,1.49-0.68,2.16,0.02C71.06,209.03,71.16,209.76,70.91,210.39z"/>
				</g>
				<g>
					<path class="st3" d="M76.27,211.29c-0.44,1.79-2,3.86-0.73,6.09c0,0-2.79-1.01-2.58-6.05c0.02-0.6,0.14-1.2,0.61-1.57
						c0.57-0.46,1.39-0.87,2.14-0.26C76.24,209.91,76.43,210.63,76.27,211.29z"/>
				</g>
			</g>
			<path class="st3" d="M80.69,188.82h-8.03c-0.92,0-1.67-0.75-1.67-1.67v-0.1c0-0.92,0.75-1.67,1.67-1.67h8.03
				c0.92,0,1.67,0.75,1.67,1.67v0.1C82.36,188.07,81.62,188.82,80.69,188.82z"/>
		</g>
		<path class="st1" d="M97.45,187.81c0,0-5.32,5.41,2.41,21.36c0.34,0.7,0.75,1.44,1.22,2.06c1.29,1.72,4.69,3.03,4.81-2.95
			c0,0,0.88,5.04,3.85,3c2.32-1.6,4.23-14.21-5.6-23.78"/>
		<path class="st2" d="M110.09,126.08c7.05,39.11-5.27,61.35-5.27,61.35l-8.11,0.39c6.64-11.42,1.53-49.65,0.26-58.29
			c-0.16-1.12-0.26-1.75-0.26-1.75"/>
		<g>
			<path class="st3" d="M107.12,210.39c0.67,1.72,2.48,3.57,1.5,5.94c0,0,2.63-1.35,1.79-6.33c-0.1-0.59-0.3-1.17-0.81-1.48
				c-0.62-0.39-1.49-0.68-2.16,0.02C106.97,209.03,106.87,209.76,107.12,210.39z"/>
		</g>
		<g>
			<path class="st3" d="M101.76,211.29c0.44,1.79,2,3.86,0.73,6.09c0,0,2.79-1.01,2.58-6.05c-0.02-0.6-0.14-1.2-0.61-1.57
				c-0.57-0.46-1.39-0.87-2.14-0.26C101.79,209.91,101.59,210.63,101.76,211.29z"/>
		</g>
		<path class="st3" d="M97.33,188.82h8.03c0.92,0,1.67-0.75,1.67-1.67v-0.1c0-0.92-0.75-1.67-1.67-1.67h-8.03
			c-0.92,0-1.67,0.75-1.67,1.67v0.1C95.66,188.07,96.41,188.82,97.33,188.82z"/>
		<path class="st3" d="M83.88,31.29c0,0,4.31-13.16-5.53-20.97c0,0,6.58,0.66,9.84,7.81c0,0-2.53-8.08,2.51-16.25
			c0,0-1,9.94,2.28,15.91c0,0,1.29-7.82,6.25-9.33c0,0-2.57,6.02-2.05,12.46s2.51,10.9,2.51,10.9L83.88,31.29z"/>
		<g>
			<g>
				<g>
					<path class="st3" d="M38.68,29.7c0.29-27.8,22.36,16.88,50.16,17.17c27.8,0.29,50.8-43.92,50.51-16.12
						c-0.29,27.8-22.99,42.82-50.79,42.53C60.76,72.99,38.39,57.5,38.68,29.7z"/>
					<path class="st4" d="M139.35,30.75c0.06-6.18-1.02-8.8-3.06-9.14c0,0-0.36,24.33-16.53,34.52l1.93,8.29
						C132.37,57.27,139.19,45.91,139.35,30.75z"/>
					<path class="st4" d="M38.68,29.7c0.06-6.18,1.21-8.78,3.25-9.08c0,0-0.15,24.33,15.8,34.86l-2.1,8.25
						C45.1,56.36,38.52,44.86,38.68,29.7z"/>
				</g>
			</g>
		</g>
		<path class="st1" d="M146.29,115.65c0,36.82-25.64,53.33-57.26,53.33s-57.26-16.51-57.26-53.33S57.4,27.01,89.03,27.01
			S146.29,78.83,146.29,115.65z"/>
		<path class="st3" d="M145.12,128.53c-12.83,7.05-32.05,15.23-56.09,15.26c-24.04-0.02-43.26-8.2-56.09-15.26
			c5.34,27.82,28.43,40.46,56.09,40.46S139.77,156.35,145.12,128.53z"/>
		<path class="st2" d="M143.23,101.9c0.67,0,1.32-0.06,1.96-0.18c-1.07-7.11-2.89-14.44-5.35-21.61c-4.5,1.44-7.77,5.65-7.77,10.63
			C132.07,96.9,137.07,101.9,143.23,101.9z"/>
		<circle class="st2" cx="44.95" cy="102.7" r="3.25"/>
		<circle class="st2" cx="54.8" cy="95.25" r="5.23"/>
		<circle class="st2" cx="125.98" cy="92.96" r="4.29"/>
		<circle class="st2" cx="127.12" cy="83" r="2.2"/>
		<path class="st2" d="M115.03,48.26h-4.52c-0.67,0-1.21-0.54-1.21-1.21v0c0-0.67,0.54-1.21,1.21-1.21h4.52
			c0.67,0,1.21,0.54,1.21,1.21v0C116.24,47.72,115.7,48.26,115.03,48.26z"/>
		<path class="st2" d="M118.19,51.76h-4.52c-0.67,0-1.21-0.54-1.21-1.21v0c0-0.67,0.54-1.21,1.21-1.21h4.52
			c0.67,0,1.21,0.54,1.21,1.21v0C119.41,51.22,118.86,51.76,118.19,51.76z"/>
		<path class="st2" d="M113.63,55.06h-4.52c-0.67,0-1.21-0.54-1.21-1.21l0,0c0-0.67,0.54-1.21,1.21-1.21h4.52
			c0.67,0,1.21,0.54,1.21,1.21l0,0C114.84,54.52,114.3,55.06,113.63,55.06z"/>
		<path class="st2" d="M48.2,126.11h4.52c0.67,0,1.21,0.54,1.21,1.21v0c0,0.67-0.54,1.21-1.21,1.21H48.2
			c-0.67,0-1.21-0.54-1.21-1.21v0C46.99,126.65,47.53,126.11,48.2,126.11z"/>
		<path class="st2" d="M45.03,122.6h4.52c0.67,0,1.21,0.54,1.21,1.21l0,0c0,0.67-0.54,1.21-1.21,1.21h-4.52
			c-0.67,0-1.21-0.54-1.21-1.21l0,0C43.82,123.15,44.36,122.6,45.03,122.6z"/>
		<path class="st2" d="M49.6,119.31h4.52c0.67,0,1.21,0.54,1.21,1.21l0,0c0,0.67-0.54,1.21-1.21,1.21H49.6
			c-0.67,0-1.21-0.54-1.21-1.21l0,0C48.39,119.85,48.93,119.31,49.6,119.31z"/>
		<path class="st5" d="M63.26,48.88c0,0,8.22-10.7,18.38-11.53"/>
		<line class="st5" x1="85.84" y1="37.13" x2="86.63" y2="37.13"/>
		<path class="st6" d="M144.99,100.43c-14.36,30.94-39.65,51.94-74.93,66.33c5.94,1.5,12.32,2.23,18.97,2.23
			c31.62,0,57.26-16.51,57.26-53.33C146.29,110.79,145.84,105.66,144.99,100.43z"/>
		<path class="st2" d="M89.35,72.54c-3.39,8.18-5.96,16.77-7.54,25.15c0.32,0.02,0.65,0.04,0.97,0.04c7.43,0,13.45-6.02,13.45-13.45
			C96.24,79.23,93.46,74.84,89.35,72.54z"/>
		<g>
			<circle class="st3" cx="112.61" cy="105.56" r="1.23"/>
			<circle class="st3" cx="110" cy="108.3" r="1.23"/>
			<circle class="st3" cx="111.53" cy="112.3" r="1.23"/>
			<circle class="st3" cx="113.99" cy="109.14" r="1.23"/>
			<circle class="st3" cx="116.95" cy="105.56" r="1.23"/>
			<circle class="st3" cx="115.72" cy="113.26" r="1.23"/>
			<circle class="st3" cx="117.99" cy="109.41" r="1.23"/>
		</g>
		<g>
			<circle class="st3" cx="62.67" cy="105.56" r="1.23"/>
			<circle class="st3" cx="60.06" cy="108.3" r="1.23"/>
			<circle class="st3" cx="61.6" cy="112.3" r="1.23"/>
			<circle class="st3" cx="64.05" cy="109.14" r="1.23"/>
			<circle class="st3" cx="67.02" cy="105.56" r="1.23"/>
			<circle class="st3" cx="65.79" cy="113.26" r="1.23"/>
			<circle class="st3" cx="68.06" cy="109.41" r="1.23"/>
		</g>
		<g>
			<path class="st2" d="M101.48,116.11c0,6.88-5.57,12.45-12.45,12.45s-12.45-5.57-12.45-12.45"/>
		</g>
		<path class="st3" d="M95.94,126.47c-1.51-1.39-4.04-2.55-6.92-2.55c-2.88,0-5.42,1.14-6.93,2.53c1.98,1.33,4.37,2.11,6.94,2.11
			C91.58,128.56,93.96,127.79,95.94,126.47z"/>
		<g>
			<path class="st7" d="M94.58,116.11v4.45c0,0.59-0.48,1.07-1.07,1.07h-2.59c-0.59,0-1.07-0.48-1.07-1.07v-4.45"/>
		</g>
		<g>
			<path class="st7" d="M88.5,116.11v4.45c0,0.59-0.48,1.07-1.07,1.07h-2.59c-0.59,0-1.07-0.48-1.07-1.07v-4.45"/>
		</g>
		<g>
			<g>
				<circle class="st3" cx="89.03" cy="81.6" r="24.98"/>
			</g>
			<g>
				<circle class="st7" cx="89.03" cy="81.6" r="17.3"/>
				<g>
					<circle class="st8" cx="89.03" cy="81.6" r="9.21"/>
					<circle class="st2" cx="89.03" cy="81.6" r="6.83"/>
				</g>
			</g>
			<g>
				<circle class="st7" cx="82.19" cy="74.92" r="4.79"/>
			</g>
			<g class="st9">
				<circle class="st7" cx="89.03" cy="81.6" r="24.98"/>
			</g>
			<g>
				<circle class="st10" cx="89.03" cy="81.6" r="24.98"/>
			</g>
		</g>
		<g>
			<path class="st2" d="M63.98,146.85H51.47c-0.4,0-0.73-0.32-0.73-0.73l0,0c0-0.4,0.32-0.73,0.73-0.73h12.51
				c0.4,0,0.73,0.32,0.73,0.73l0,0C64.7,146.52,64.38,146.85,63.98,146.85z"/>
			<path class="st2" d="M63.98,149.48H51.47c-0.4,0-0.73-0.32-0.73-0.73l0,0c0-0.4,0.32-0.73,0.73-0.73h12.51
				c0.4,0,0.73,0.32,0.73,0.73l0,0C64.7,149.16,64.38,149.48,63.98,149.48z"/>
			<path class="st2" d="M63.98,152.12H51.47c-0.4,0-0.73-0.32-0.73-0.73l0,0c0-0.4,0.32-0.73,0.73-0.73h12.51
				c0.4,0,0.73,0.32,0.73,0.73l0,0C64.7,151.79,64.38,152.12,63.98,152.12z"/>
		</g>
		<path class="st11" d="M92.89,56.92c-13.63-2.13-26.41,7.19-28.54,20.82c-1.28,8.21,1.59,16.11,7.06,21.57l35.33-35.33
			C103.11,60.33,98.35,57.77,92.89,56.92z"/>
		<path class="st2" d="M101.97,198.52c0-2.91-2.36-5.26-5.26-5.26c-0.35,0-0.69,0.04-1.02,0.1c-0.13,2.46,0.26,5.85,1.86,10.35
			C100.06,203.31,101.97,201.14,101.97,198.52z"/>
		<circle class="st2" cx="104.01" cy="202.47" r="1.83"/>
		<circle class="st2" cx="104.4" cy="198.77" r="0.77"/>
		<circle class="st2" cx="78.61" cy="194.9" r="2.18"/>
		<circle class="st2" cx="80" cy="191.1" r="0.98"/>
		<g>
			<g>
				<path class="st1" d="M42.64,191.39c-0.31-0.18-9.68-36.1-9.01-50.7c0.56-12.38,0.67-16.62-1.57-17.13
					c-2.24-0.51-2.99,5.45-2.99,5.45s-2.17,29.25,9.82,63.05c0,0-5.44,12.46,0.6,13.81c0,0,1.77,0.46,1.79-5.2
					c0,0-0.58,7.17,3.07,6.71c3.28-0.41-0.41-7.46-0.41-7.46s1.89,4.91,4.52,4.47C52.07,203.76,48.57,194.76,42.64,191.39z"/>
				<path class="st3" d="M49.44,202.79l1.28,4.17c0.11,0.37-0.35,0.64-0.62,0.35c-1.12-1.22-2.72-3.09-2.87-3.93
					c-0.18-1.04,1.32-0.93,1.91-0.85C49.29,202.55,49.4,202.65,49.44,202.79z"/>
				<path class="st3" d="M45.26,205.88l0.79,4.29c0.07,0.38-0.43,0.59-0.65,0.28c-0.97-1.34-2.34-3.39-2.39-4.23
					c-0.06-1.06,1.42-0.77,1.99-0.62C45.13,205.63,45.23,205.74,45.26,205.88z"/>
				<path class="st3" d="M40.32,204.3l0.29,4.35c0.03,0.39-0.49,0.54-0.68,0.2c-0.81-1.44-1.94-3.63-1.89-4.48
					c0.06-1.06,1.5-0.6,2.05-0.39C40.23,204.04,40.31,204.16,40.32,204.3z"/>
			</g>
			<path class="st2" d="M31.55,121c-2.7,0-4.89,2.19-4.89,4.89v3.53h9.78v-3.53C36.44,123.19,34.25,121,31.55,121z"/>
		</g>
		<g>
			<path class="st2" d="M144.87,121c2.7,0,4.89,2.19,4.89,4.89v3.53h-9.78v-3.53C139.98,123.19,142.17,121,144.87,121z"/>
		</g>
	</g>
</g>
<g>
	<ellipse class="st0" cx="306.48" cy="236.23" rx="58.3" ry="9.8"/>
	<g>
		<g>
			<g>
				<g>
					<g>
						<g>
							<g>
								<rect x="288.88" y="198.15" class="st12" width="13.13" height="34.49"/>
							</g>
						</g>
						<g>
							<g>
								<rect x="288.88" y="185.97" class="st12" width="13.13" height="34.49"/>
							</g>
						</g>
					</g>
				</g>
				<path class="st13" d="M290.64,224.93c0,0-17.9-1.41-17.97,2.3c-0.07,3.8,5.1,2.6,5.1,2.6s-7.3,1-4.27,4.4
					c4.07,4.57,28.51-1.58,28.51-1.58v-9.71L290.64,224.93z"/>
				<rect x="288.88" y="220.46" class="st13" width="13.13" height="10.17"/>
				<path class="st14" d="M301.66,222.17h-12.45c-0.82,0-1.48-0.66-1.48-1.48v-0.47c0-0.82,0.66-1.48,1.48-1.48h12.45
					c0.82,0,1.48,0.66,1.48,1.48v0.47C303.14,221.51,302.48,222.17,301.66,222.17z"/>
				<path class="st14" d="M288.63,235.24c3.33-0.47,6.59-1.09,9.05-1.61c-0.89-1.36-2.43-2.27-4.18-2.27
					C291.12,231.36,289.14,233.02,288.63,235.24z"/>
				<circle class="st14" cx="297.52" cy="229.88" r="1.78"/>
				<circle class="st14" cx="294.35" cy="227.9" r="1"/>
			</g>
			<g>
				<g>
					<g>
						<g>
							<g>
								
									<rect x="314.06" y="198.15" transform="matrix(-1 -4.516755e-11 4.516755e-11 -1 641.2521 430.7987)" class="st12" width="13.13" height="34.49"/>
							</g>
						</g>
						<g>
							<g>
								
									<rect x="314.06" y="185.97" transform="matrix(-1 -4.475188e-11 4.475188e-11 -1 641.2521 406.4295)" class="st12" width="13.13" height="34.49"/>
							</g>
						</g>
					</g>
				</g>
				<path class="st13" d="M325.43,224.93c0,0,17.9-1.41,17.97,2.3c0.07,3.8-5.1,2.6-5.1,2.6s7.3,1,4.27,4.4
					c-4.07,4.57-28.51-1.58-28.51-1.58v-9.71L325.43,224.93z"/>
				<rect x="314.06" y="220.46" class="st13" width="13.13" height="10.17"/>
				<path class="st14" d="M326.83,222.17h-12.45c-0.82,0-1.48-0.66-1.48-1.48v-0.47c0-0.82,0.66-1.48,1.48-1.48h12.45
					c0.82,0,1.48,0.66,1.48,1.48v0.47C328.31,221.51,327.65,222.17,326.83,222.17z"/>
				<path class="st14" d="M336.2,224.77c-1.91-0.11-3.92-0.11-5.69-0.07c-0.01,0.11-0.02,0.23-0.02,0.34c0,1.58,1.28,2.86,2.86,2.86
					c1.58,0,2.86-1.28,2.86-2.86C336.22,224.95,336.21,224.86,336.2,224.77z"/>
				<circle class="st14" cx="329.49" cy="228.43" r="1"/>
				<circle class="st14" cx="332.58" cy="230.19" r="1.47"/>
			</g>
		</g>
		<path class="st15" d="M247.97,156.84c0-38.54,26.89-30.06,60.06-30.06s60.06-8.48,60.06,30.06s-26.89,50.48-60.06,50.48
			S247.97,195.38,247.97,156.84z"/>
		<g>
			<g>
				<circle class="st14" cx="314.76" cy="156.23" r="2.96"/>
				<g>
					<circle class="st15" cx="316.15" cy="154.99" r="0.48"/>
					<circle class="st15" cx="313.37" cy="157.47" r="0.48"/>
				</g>
			</g>
			<g>
				<circle class="st14" cx="314.76" cy="170" r="2.96"/>
				<g>
					<circle class="st15" cx="316.15" cy="168.77" r="0.48"/>
					<circle class="st15" cx="313.37" cy="171.24" r="0.48"/>
				</g>
			</g>
			<g>
				<circle class="st14" cx="314.76" cy="183.78" r="2.96"/>
				<g>
					<circle class="st15" cx="316.15" cy="182.54" r="0.48"/>
					<circle class="st15" cx="313.37" cy="185.02" r="0.48"/>
				</g>
			</g>
			<g>
				<circle class="st14" cx="314.76" cy="197.55" r="2.96"/>
				<g>
					<circle class="st15" cx="316.15" cy="196.31" r="0.48"/>
					<circle class="st15" cx="313.37" cy="198.79" r="0.48"/>
				</g>
			</g>
		</g>
		<line class="st16" x1="308.03" y1="138.52" x2="308.03" y2="203.21"/>
		<g>
			<g>
				<path class="st12" d="M254.75,124.64c0,0-39.47,49.99,25.23,66.27l1.9-14.97c0,0-38.33-10.11-21.17-45.67
					C260.71,130.28,262.43,118.92,254.75,124.64z"/>
				<path class="st13" d="M286.98,179.17c0,0,10.25-3.5,11.71-1.04c1.74,2.95-1.42,4.82-3.37,4.51c0,0,6.95-0.77,7.19,2.56
					c0.24,3.39-4.28,3.9-8.22,2.48c0,0,6.26,1.12,5.42,3.74c-0.86,2.68-9.16,2.72-17.27-2.72S286.98,179.17,286.98,179.17z"/>
				<path class="st14" d="M285.01,193.05l-4.87-0.96c-1.63-0.32-2.69-1.9-2.37-3.52l2.41-12.3c0.32-1.63,1.9-2.69,3.52-2.37
					l4.87,0.96c1.63,0.32,2.69,1.9,2.37,3.52l-2.41,12.3C288.22,192.31,286.64,193.37,285.01,193.05z"/>
			</g>
			<g>
				<path class="st12" d="M361.32,124.64c0,0,39.47,49.99-25.23,66.27l-1.9-14.97c0,0,38.33-10.11,21.17-45.67
					C355.36,130.28,353.63,118.92,361.32,124.64z"/>
				<path class="st13" d="M329.08,179.17c0,0-10.25-3.5-11.71-1.04c-1.74,2.95,1.42,4.82,3.37,4.51c0,0-6.95-0.77-7.19,2.56
					c-0.24,3.39,4.28,3.9,8.22,2.48c0,0-6.26,1.12-5.42,3.74c0.86,2.68,9.16,2.72,17.27-2.72S329.08,179.17,329.08,179.17z"/>
				<path class="st14" d="M331.05,193.05l4.87-0.96c1.63-0.32,2.69-1.9,2.37-3.52l-2.41-12.3c-0.32-1.63-1.9-2.69-3.52-2.37
					l-4.87,0.96c-1.63,0.32-2.69,1.9-2.37,3.52l2.41,12.3C327.85,192.31,329.43,193.37,331.05,193.05z"/>
			</g>
		</g>
		<g>
			<g>
				<path class="st14" d="M284.09,63.4c-5.61,5.18-16.55,2.47-24.43-6.06c-7.88-8.53-12.87-25.84-7.26-31.02s19.7,3.72,27.58,12.25
					C287.87,47.1,289.71,58.21,284.09,63.4z"/>
				<path class="st15" d="M257.51,27.28c0,0,12.58,2.86,22.43,16.38l-2.45,1.89C277.49,45.55,273.4,37.02,257.51,27.28z"/>
			</g>
			<g>
				<path class="st14" d="M331.97,63.4c5.61,5.18,16.55,2.47,24.43-6.06c7.88-8.53,12.87-25.84,7.26-31.02s-19.7,3.72-27.58,12.25
					C328.2,47.1,326.36,58.21,331.97,63.4z"/>
				<path class="st15" d="M358.56,27.28c0,0-12.58,2.86-22.43,16.38l2.45,1.89C338.58,45.55,342.67,37.02,358.56,27.28z"/>
			</g>
		</g>
		<path class="st13" d="M366.51,92.23c0,32.3-26.19,47.94-58.49,47.94s-58.46-15.65-58.46-47.94s26.18-67.44,58.48-67.44
			S366.51,59.93,366.51,92.23z"/>
		<circle class="st14" cx="308.16" cy="73.21" r="27.62"/>
		<path class="st14" d="M349.51,80.73c0,9.43,7.36,17.15,16.65,17.71c0.23-2,0.34-4.07,0.34-6.21c0-9.36-2.2-18.95-6.11-27.87
			C354.01,67.04,349.51,73.36,349.51,80.73z"/>
		<path class="st14" d="M249.68,95.88c5.89-1.11,10.34-6.27,10.34-12.47c0-5.05-2.95-9.4-7.21-11.45
			c-2.1,6.65-3.25,13.52-3.25,20.27C249.56,93.47,249.6,94.69,249.68,95.88z"/>
		<circle class="st14" cx="262.68" cy="95.62" r="3.28"/>
		<circle class="st14" cx="343.49" cy="89.49" r="2.6"/>
		<path class="st17" d="M264.11,65.19c0,0,3.01-8.63,11.32-14.71"/>
		<line class="st17" x1="279.26" y1="47.46" x2="279.56" y2="47.19"/>
		<g>
			<g>
				<circle class="st15" cx="331.09" cy="103.39" r="1.05"/>
				<circle class="st15" cx="328.99" cy="105.71" r="1.05"/>
				<circle class="st15" cx="328.99" cy="105.71" r="1.05"/>
				<circle class="st15" cx="333.19" cy="106.76" r="1.05"/>
				<circle class="st15" cx="329.82" cy="109.19" r="1.05"/>
				<circle class="st15" cx="335.03" cy="103.84" r="1.05"/>
				<circle class="st15" cx="333.98" cy="110.68" r="1.05"/>
				<circle class="st15" cx="337.13" cy="107.31" r="1.05"/>
			</g>
			<g>
				<circle class="st15" cx="285.22" cy="102.61" r="1.05"/>
				<circle class="st15" cx="287.33" cy="104.93" r="1.05"/>
				<circle class="st15" cx="287.33" cy="104.93" r="1.05"/>
				<circle class="st15" cx="283.12" cy="105.98" r="1.05"/>
				<circle class="st15" cx="286.49" cy="108.41" r="1.05"/>
				<circle class="st15" cx="281.28" cy="103.06" r="1.05"/>
				<circle class="st15" cx="282.33" cy="109.9" r="1.05"/>
				<circle class="st15" cx="279.18" cy="106.53" r="1.05"/>
			</g>
		</g>
		<g>
			<g>
				<path class="st14" d="M333.82,39.77c-0.5,0.86-2.88,1.09-4.66,0.06c-1.78-1.03-2.3-2.93-1.8-3.79c0.5-0.86,2.34-0.72,4.13,0.31
					C333.27,37.38,334.31,38.91,333.82,39.77z"/>
				<path class="st15" d="M332.57,6.25c-0.67,0.94-0.45,2.24,0.49,2.91l10.07,7.17L338,23.55l-5.96-4.24
					c-0.94-0.67-2.24-0.45-2.91,0.49c-0.67,0.94-0.45,2.24,0.49,2.91l5.96,4.24l-6.35,8.91c-0.67,0.94-0.45,2.24,0.49,2.91
					c0.94,0.67,2.24,0.45,2.91-0.49l15.12-21.22c0.67-0.94,0.45-2.24-0.49-2.91l-11.77-8.38C334.54,5.09,333.24,5.31,332.57,6.25z"
					/>
			</g>
			<g>
				<path class="st14" d="M282.25,39.77c0.5,0.86,2.88,1.09,4.66,0.06c1.78-1.03,2.3-2.93,1.8-3.79c-0.5-0.86-2.34-0.72-4.13,0.31
					C282.8,37.38,281.75,38.91,282.25,39.77z"/>
				<path class="st15" d="M283.5,6.25c0.67,0.94,0.45,2.24-0.49,2.91l-10.07,7.17l5.13,7.21l5.96-4.24
					c0.94-0.67,2.24-0.45,2.91,0.49c0.67,0.94,0.45,2.24-0.49,2.91l-5.96,4.24l6.35,8.91c0.67,0.94,0.45,2.24-0.49,2.91
					c-0.94,0.67-2.24,0.45-2.91-0.49l-15.12-21.22c-0.67-0.94-0.45-2.24,0.49-2.91l11.77-8.38C281.53,5.09,282.83,5.31,283.5,6.25z"
					/>
			</g>
		</g>
		<g>
			<path class="st12" d="M321.53,109.76c0,7.45-6.04,13.5-13.5,13.5s-13.5-6.04-13.5-13.5"/>
		</g>
		<path class="st14" d="M315.54,120.99c-1.64-1.5-4.38-2.76-7.49-2.76c-3.12,0-5.87,1.24-7.51,2.75c2.15,1.44,4.73,2.29,7.52,2.29
			C310.82,123.26,313.39,122.42,315.54,120.99z"/>
		<g>
			<path class="st7" d="M316.48,109.76v4.54c0,0.67-0.54,1.22-1.22,1.22h-2.95c-0.67,0-1.22-0.54-1.22-1.22v-4.54"/>
		</g>
		<circle class="st7" cx="308.03" cy="72.58" r="20.76"/>
		<g>
			<circle class="st13" cx="308.03" cy="72.58" r="11.05"/>
			<circle class="st12" cx="308.03" cy="72.58" r="8.2"/>
		</g>
		<circle class="st7" cx="299.83" cy="64.56" r="5.75"/>
		<circle class="st14" cx="349.23" cy="97.04" r="3.79"/>
		<path class="st14" d="M314.98,34.62c4.31,0,7.93-2.96,8.93-6.96c-5.05-1.85-10.37-2.88-15.88-2.88c-0.75,0-1.49,0.03-2.24,0.06
			c-0.01,0.19-0.02,0.38-0.02,0.57C305.78,30.5,309.9,34.62,314.98,34.62z"/>
		<circle class="st14" cx="301.92" cy="33.7" r="3.07"/>
		<circle class="st14" cx="308.87" cy="36.94" r="1.75"/>
		<circle class="st18" cx="308.16" cy="73.21" r="27.62"/>
		<g class="st19">
			<path class="st20" d="M288.85,92.88c-10.9-10.68-11.08-28.16-0.4-39.06s28.16-11.08,39.06-0.4"/>
		</g>
		<circle class="st21" cx="308.16" cy="73.21" r="27.62"/>
		<path class="st22" d="M298.31,139.67c3.16,0.33,6.4,0.5,9.71,0.5c32.3,0,58.49-15.65,58.49-47.94c0-7.68-1.48-15.53-4.18-23.02
			C361.28,89.14,352.37,129.83,298.31,139.67z"/>
		<path class="st14" d="M308.03,148.7c0,0,51.76-0.38,51.76-30.48v-1.13c0,0-7.88,16.13-51.88,16.15
			c-43.99-0.02-51.67-16.15-51.67-16.15v1.13c0,30.1,51.76,30.48,51.76,30.48"/>
	</g>
</g>
<g id="Background">
</g>
<g id="Fog">
</g>
<g id="Sky">
	<g id="Layer_12">
	</g>
</g>
<g id="Mountains">
</g>
<g id="Trees">
</g>
<g id="Floor">
</g>
<g id="Dekoration">
</g>
<g id="Mask">
</g>
<g id="Lines">
</g>
<g id="Text" class="st23">
</g>
<g id="Fog_Overlay">
</g>
<g>
	<ellipse class="st0" cx="196.23" cy="236.23" rx="50.13" ry="9.56"/>
	<g>
		<g>
			<path class="st24" d="M181,229.26c0,0-9.26,2.03-12.34,5.3c-0.44,0.46-0.07,1.09,0.55,1.2c1.83,0.32,5.06-0.52,6.88-1.89
				c0,0-3.03,1.71-4.14,3.98c-0.32,0.66,0.09,1.83,2.44,1.18c2.89-0.81,9.09-2.19,12.16-4.04c0,0,2.43,0.88,4.84,1.84
				c1.1,0.44,1.68-0.04,1.52-0.53c-0.43-1.32-1.57-3.46-4.59-4.84v-6.4h-7.5L181,229.26z"/>
			<path class="st25" d="M181.27,226.73H188c1.01,0,1.83-0.82,1.83-1.83v-61.98c0-1.01-0.82-1.83-1.83-1.83h-6.73
				c-1.01,0-1.83,0.82-1.83,1.83v61.98C179.44,225.92,180.26,226.73,181.27,226.73z"/>
			<path class="st26" d="M189.39,227.58h-9.52c-0.8,0-1.45-0.65-1.45-1.45v-0.93c0-0.8,0.65-1.45,1.45-1.45h9.52
				c0.8,0,1.45,0.65,1.45,1.45v0.93C190.84,226.94,190.19,227.58,189.39,227.58z"/>
		</g>
		<g>
			<path class="st24" d="M210.01,229.26c0,0,9.26,2.03,12.34,5.3c0.44,0.46,0.07,1.09-0.55,1.2c-1.83,0.32-5.06-0.52-6.88-1.89
				c0,0,3.03,1.71,4.14,3.98c0.32,0.66-0.09,1.83-2.44,1.18c-2.89-0.81-9.09-2.19-12.16-4.04c0,0-2.43,0.88-4.84,1.84
				c-1.1,0.44-1.68-0.04-1.52-0.53c0.43-1.32,1.57-3.46,4.59-4.84v-6.4h7.5L210.01,229.26z"/>
			<path class="st25" d="M209.74,226.73h-6.73c-1.01,0-1.83-0.82-1.83-1.83v-61.98c0-1.01,0.82-1.83,1.83-1.83h6.73
				c1.01,0,1.83,0.82,1.83,1.83v61.98C211.57,225.92,210.75,226.73,209.74,226.73z"/>
			<path class="st26" d="M211.14,227.58h-9.52c-0.8,0-1.45-0.65-1.45-1.45v-0.93c0-0.8,0.65-1.45,1.45-1.45h9.52
				c0.8,0,1.45,0.65,1.45,1.45v0.93C212.58,226.94,211.94,227.58,211.14,227.58z"/>
		</g>
		<g>
			<path class="st27" d="M188.36,77.36c0,0-5.55,8.21,3.33,16.42"/>
			<circle class="st24" cx="187.91" cy="76.92" r="4.33"/>
		</g>
		<g>
			<path class="st27" d="M204.56,79.8c0,0,5.55,8.21-3.33,16.42"/>
			<circle class="st24" cx="205" cy="78.92" r="3.88"/>
		</g>
		<g>
			<path class="st26" d="M254.23,85.83c0,0-19.76-5.83-35.8,10.21l12.8,12.8l12.8,12.8C260.06,105.59,254.23,85.83,254.23,85.83z"/>
			<path class="st25" d="M224.46,110.64l-2.17-10.72c0,0,11.82-11.4,24.91-9.29C247.2,90.63,219.58,100.71,224.46,110.64z"/>
		</g>
		<g>
			<path class="st26" d="M138.24,85.83c0,0,19.76-5.83,35.8,10.21l-12.8,12.8l-12.8,12.8C132.41,105.59,138.24,85.83,138.24,85.83z"
				/>
			<path class="st25" d="M168.01,110.64l2.17-10.72c0,0-11.82-11.4-24.91-9.29C145.27,90.63,172.89,100.71,168.01,110.64z"/>
		</g>
		<g>
			<circle class="st24" cx="196.23" cy="153.8" r="62.38"/>
			<path class="st28" d="M159.4,115.3c3.27-4.6,11.04-14.59,26.28-15.86"/>
			<line class="st28" x1="192.03" y1="99.44" x2="191.98" y2="99.44"/>
		</g>
		<path class="st26" d="M196.23,199.1c-26.23,0-44.98-8.53-54.37-14.69c10.7,18.97,31.04,31.78,54.37,31.78
			c23.33,0,43.67-12.81,54.37-31.78C241.22,190.57,222.47,199.1,196.23,199.1z"/>
		<path class="st29" d="M258.62,153.8c0-0.57-0.01-1.14-0.02-1.7c-5.83,17.06-28.07,63.74-95.01,54.87
			c9.5,5.84,20.68,9.22,32.65,9.22C230.69,216.18,258.62,188.25,258.62,153.8z"/>
		<g>
			<circle class="st26" cx="243.2" cy="126.01" r="3.43"/>
			<circle class="st26" cx="237.04" cy="131.39" r="1.41"/>
		</g>
		<circle class="st26" cx="243.14" cy="134.44" r="2.61"/>
		<g>
			<circle class="st26" cx="149.42" cy="136.47" r="3.43"/>
			<circle class="st26" cx="154.87" cy="130.38" r="1.41"/>
		</g>
		<circle class="st26" cx="148.45" cy="128.1" r="2.61"/>
		<g>
			<circle class="st26" cx="222.16" cy="158.72" r="1.1"/>
			<circle class="st26" cx="225.02" cy="156.28" r="1.1"/>
			<circle class="st26" cx="226.12" cy="160.24" r="1.1"/>
			<circle class="st26" cx="222.82" cy="162.67" r="1.1"/>
			<circle class="st26" cx="226.64" cy="164.45" r="1.1"/>
			<circle class="st26" cx="229.03" cy="157.62" r="1.1"/>
			<circle class="st26" cx="230.13" cy="161.57" r="1.1"/>
			<circle class="st26" cx="219.11" cy="161.82" r="1.1"/>
			<circle class="st26" cx="221.31" cy="166.08" r="1.1"/>
		</g>
		<g>
			<circle class="st26" cx="170.31" cy="158.72" r="1.1"/>
			<circle class="st26" cx="167.45" cy="156.28" r="1.1"/>
			<circle class="st26" cx="166.35" cy="160.24" r="1.1"/>
			<circle class="st26" cx="169.65" cy="162.67" r="1.1"/>
			<circle class="st26" cx="165.83" cy="164.45" r="1.1"/>
			<circle class="st26" cx="163.44" cy="157.62" r="1.1"/>
			<circle class="st26" cx="162.34" cy="161.57" r="1.1"/>
			<circle class="st26" cx="173.36" cy="161.82" r="1.1"/>
			<circle class="st26" cx="171.16" cy="166.08" r="1.1"/>
		</g>
		<path class="st25" d="M196.23,170.01L196.23,170.01c12.59,0,22.8-2.78,22.8,3.64v0c0,6.42-10.21,11.62-22.8,11.62h0
			c-12.59,0-22.8-5.2-22.8-11.62v0C173.44,167.24,183.64,170.01,196.23,170.01z"/>
		<path class="st7" d="M180.78,169.42c-0.01,0.11-0.01,0.21-0.01,0.32c0,2.15,1.24,3.89,2.77,3.89c1.53,0,2.77-1.74,2.77-3.89
			c0-0.04,0-0.08,0-0.12C184.28,169.5,182.42,169.41,180.78,169.42z"/>
		<path class="st7" d="M206.16,169.62c0,0.04,0,0.08,0,0.12c0,2.15,1.24,3.89,2.77,3.89s2.77-1.74,2.77-3.89
			c0-0.11-0.01-0.22-0.01-0.32C210.05,169.41,208.19,169.5,206.16,169.62z"/>
		<path class="st7" d="M199.01,170.29c0-0.11-0.01-0.21-0.01-0.32c-0.91,0.03-1.83,0.04-2.76,0.04h0c-0.94,0-1.86-0.02-2.76-0.04
			c-0.01,0.11-0.01,0.21-0.01,0.32c0,2.15,1.24,3.89,2.77,3.89C197.77,174.18,199.01,172.44,199.01,170.29z"/>
		<path class="st30" d="M195.82,180.92c-3.88,0-7.12,0.38-7.88,3.56c2.57,0.51,5.36,0.8,8.29,0.8h0c2.63,0,5.15-0.23,7.5-0.65
			C203.04,181.37,199.77,180.92,195.82,180.92z"/>
		<ellipse class="st25" cx="196.23" cy="135.52" rx="31.9" ry="23.1"/>
		<ellipse class="st31" cx="196.23" cy="135.52" rx="31.9" ry="23.1"/>
		<ellipse class="st32" cx="196.23" cy="135.52" rx="31.9" ry="23.1"/>
		<circle class="st7" cx="197.03" cy="135.52" r="19.21"/>
		<g>
			<circle class="st26" cx="197.03" cy="135.52" r="10.23"/>
			<circle class="st25" cx="197.03" cy="135.52" r="7.59"/>
		</g>
		<circle class="st7" cx="191.49" cy="129.24" r="4.01"/>
		<g>
			<path class="st24" d="M138.77,176.65c0,0-12.58,22.34,5.2,47.45c0,0-2.72,8.07,2.54,9.57c0,0,2.7,0.31,0.99-3.23
				c0,0,1.83,2.02,2.8,1.9c0,0,2.41-0.41,1.01-3.69c0,0,2.31,3.46,3.34,1.1c0.33-0.89,0.28-7.11-5.18-7.97
				c0,0-13.68-15.8-8.78-37.41C140.7,184.35,144.89,173.33,138.77,176.65z"/>
			<path class="st25" d="M142.74,186.35c0,0,5.04-11.6-0.56-12.93c-5.6-1.33-8.56,10.8-8.56,10.8L142.74,186.35z"/>
		</g>
		<g>
			<path class="st24" d="M253.7,176.65c0,0,12.58,22.34-5.2,47.45c0,0,2.72,8.07-2.54,9.57c0,0-2.7,0.31-0.99-3.23
				c0,0-1.83,2.02-2.8,1.9c0,0-2.41-0.41-1.01-3.69c0,0-2.31,3.46-3.34,1.1c-0.33-0.89-0.28-7.11,5.18-7.97
				c0,0,13.68-15.8,8.78-37.41C251.77,184.35,247.58,173.33,253.7,176.65z"/>
			<path class="st25" d="M249.72,186.35c0,0-5.04-11.6,0.56-12.93s8.56,10.8,8.56,10.8L249.72,186.35z"/>
		</g>
		<g>
			<g>
				<path class="st33" d="M157.19,156.23c0,0-21.02-12.76-44.33-2.9"/>
			</g>
			<path class="st33" d="M115.63,164.19c0,0,12.75-9.77,41.04-3.88"/>
			<path class="st33" d="M123.01,170.83c0,0,18.01-8.11,34.09-6.46"/>
		</g>
		<g>
			<g>
				<path class="st33" d="M235.28,156.23c0,0,21.02-12.76,44.33-2.9"/>
			</g>
			<path class="st33" d="M276.84,164.19c0,0-12.75-9.77-41.04-3.88"/>
			<path class="st33" d="M269.46,170.83c0,0-18.01-8.11-34.09-6.46"/>
		</g>
		<path class="st26" d="M215.25,103.77L215.25,103.77c0,0.01,0,0.01,0,0.02c0,0.41,0.22,0.74,0.5,0.74l8.82,0.05
			c0.28,0,0.5-0.33,0.5-0.74c0,0,0-0.01,0-0.01l0,0c0-0.01,0-0.01,0-0.02c0-0.41-0.22-0.74-0.5-0.74l-8.82-0.05
			c-0.28,0-0.5,0.33-0.5,0.74C215.25,103.76,215.25,103.77,215.25,103.77z"/>
		<path class="st26" d="M213.44,106.7L213.44,106.7c0,0.01,0,0.01,0,0.02c0,0.41,0.22,0.74,0.5,0.74l8.82,0.05
			c0.28,0,0.5-0.33,0.5-0.74c0,0,0-0.01,0-0.01l0,0c0-0.01,0-0.01,0-0.02c0-0.41-0.22-0.74-0.5-0.74l-8.82-0.05
			c-0.28,0-0.5,0.33-0.5,0.74C213.44,106.69,213.44,106.7,213.44,106.7z"/>
		<path class="st26" d="M215.92,109.82L215.92,109.82c0,0.01,0,0.01,0,0.02c0,0.41,0.22,0.74,0.5,0.74l8.82,0.05
			c0.28,0,0.5-0.33,0.5-0.74c0,0,0-0.01,0-0.01l0,0c0-0.01,0-0.01,0-0.02c0-0.41-0.22-0.74-0.5-0.74l-8.82-0.05
			c-0.28,0-0.5,0.33-0.5,0.74C215.92,109.81,215.92,109.81,215.92,109.82z"/>
		<path class="st26" d="M156.91,178.84L156.91,178.84c0,0.01,0,0.01,0,0.02c0,0.41,0.22,0.74,0.5,0.74l8.82,0.05
			c0.28,0,0.5-0.33,0.5-0.74c0,0,0-0.01,0-0.01l0,0c0-0.01,0-0.01,0-0.02c0-0.41-0.22-0.74-0.5-0.74l-8.82-0.05
			c-0.28,0-0.5,0.33-0.5,0.74C156.91,178.83,156.91,178.83,156.91,178.84z"/>
		<path class="st26" d="M155.1,181.77L155.1,181.77c0,0.01,0,0.01,0,0.02c0,0.41,0.22,0.74,0.5,0.74l8.82,0.05
			c0.28,0,0.5-0.33,0.5-0.74c0,0,0-0.01,0-0.01l0,0c0-0.01,0-0.01,0-0.02c0-0.41-0.22-0.74-0.5-0.74l-8.82-0.05
			c-0.28,0-0.5,0.33-0.5,0.74C155.1,181.76,155.1,181.76,155.1,181.77z"/>
		<path class="st26" d="M157.57,184.88L157.57,184.88c0,0.01,0,0.01,0,0.02c0,0.41,0.22,0.74,0.5,0.74l8.82,0.05
			c0.28,0,0.5-0.33,0.5-0.74c0,0,0-0.01,0-0.01l0,0c0-0.01,0-0.01,0-0.02c0-0.41-0.22-0.74-0.5-0.74l-8.82-0.05
			c-0.28,0-0.5,0.33-0.5,0.74C157.57,184.88,157.57,184.88,157.57,184.88z"/>
		<path class="st11" d="M196.23,112.42c-17.62,0-31.9,10.34-31.9,23.1c0,7.84,5.39,14.77,13.64,18.94l37.42-37.42
			C210.06,114.14,203.42,112.42,196.23,112.42z"/>
	</g>
</g>
</svg>
