<?xml version="1.0" encoding="utf-8"?>
<!-- Generator: Adobe Illustrator 23.0.1, SVG Export Plug-In . SVG Version: 6.00 Build 0)  -->
<svg version="1.0" xmlns="http://www.w3.org/2000/svg" xmlns:xlink="http://www.w3.org/1999/xlink" x="0px" y="0px"
	 viewBox="0 0 400 250" enable-background="new 0 0 400 250" xml:space="preserve">
<g id="Background">
</g>
<g id="Fog">
</g>
<g id="Sky">
	<g id="Layer_12">
	</g>
</g>
<g id="Mountains">
</g>
<g id="Trees">
</g>
<g id="Floor">
</g>
<g id="Dekoration">
</g>
<g id="Mask">
</g>
<g id="Character">
	<ellipse opacity="0.35" fill="#19002F" cx="81.5" cy="182.1" rx="48.8" ry="8.2"/>
	<g>
		<g>
			<g>
				<g>
					<path fill="#6B3CFF" d="M86.8,180c1.8,0,3.3-1.6,3.3-3.7v-48.7h-6.6v48.7C83.5,178.3,85,180,86.8,180z"/>
				</g>
				<rect x="83.5" y="127.6" opacity="0.54" fill="#1E0080" width="6.6" height="41.7"/>
			</g>
			<path fill="#6B3CFF" d="M94.5,180.6h-8.1c-1.6,0-2.9-1.3-2.9-2.9v-1.4c0-1.6,1.3-2.9,2.9-2.9h8.1c1.6,0,2.9,1.3,2.9,2.9v1.4
				C97.3,179.3,96,180.6,94.5,180.6z"/>
		</g>
		<rect x="83.5" y="127.6" opacity="0.54" fill="#1E0080" width="6.6" height="41.7"/>
	</g>
	<g>
		<g>
			<path fill="#6B3CFF" d="M76.2,180c-1.8,0-3.3-1.6-3.3-3.7v-48.7h6.6v48.7C79.5,178.3,78,180,76.2,180z"/>
		</g>
		
			<rect x="72.9" y="127.6" transform="matrix(-1 -5.102420e-11 5.102420e-11 -1 152.3932 296.9214)" fill="#4A00D0" width="6.6" height="41.7"/>
		
			<rect x="72.9" y="127.6" transform="matrix(-1 -5.102420e-11 5.102420e-11 -1 152.3932 296.9214)" opacity="0.54" fill="#1E0080" width="6.6" height="41.7"/>
		<path fill="#6B3CFF" d="M68.6,180.6h8.1c1.6,0,2.9-1.3,2.9-2.9v-1.4c0-1.6-1.3-2.9-2.9-2.9h-8.1c-1.6,0-2.9,1.3-2.9,2.9v1.4
			C65.7,179.3,67,180.6,68.6,180.6z"/>
	</g>
	<g>
		<g>
			<g>
				<path fill="#6B3CFF" d="M9.7,77.6c0-38,32.2-73.3,71.8-73.3s71.8,35.3,71.8,73.3S121.2,164,81.5,164S9.7,115.6,9.7,77.6z"/>
			</g>
			<g>
				<path fill="none" stroke="#FFFFFF" stroke-width="3.7629" stroke-linecap="round" stroke-miterlimit="10" d="M49.3,25
					c7.1-4.6,15.9-8,26.6-8.8"/>
				<g>
					<g>
						<path fill="#FFFFFF" d="M83.5,17.7c2.5,0,2.6-4,0-4C80.9,13.7,80.9,17.7,83.5,17.7L83.5,17.7z"/>
					</g>
				</g>
			</g>
		</g>
		<path opacity="0.54" fill="#1E0080" d="M51.8,154.7L51.8,154.7c9.1,5.8,19.1,9.3,29.8,9.3c39.7,0,71.8-48.4,71.8-86.4
			C153.3,77.6,131.2,157.9,51.8,154.7z"/>
	</g>
	<g>
		<g>
			<g>
				<circle fill="#4A00D0" cx="29.7" cy="95.7" r="3.6"/>
				<circle fill="#4A00D0" cx="22.6" cy="100.5" r="1.5"/>
			</g>
			<circle fill="#4A00D0" cx="28.6" cy="104.5" r="2.7"/>
		</g>
		<g>
			<g>
				<circle fill="#4A00D0" cx="138.3" cy="60.2" r="3.6"/>
				<circle fill="#4A00D0" cx="131.2" cy="65" r="1.5"/>
			</g>
			<circle fill="#4A00D0" cx="137.2" cy="68.9" r="2.7"/>
		</g>
	</g>
	<path opacity="0.54" fill="#1E0080" d="M38.8,78.5c0-24.5,19.1-44.3,42.6-44.3s42.6,19.8,42.6,44.3s-19.1,55.7-42.6,55.7
		S38.8,102.9,38.8,78.5z"/>
	<path fill="#A4AAFF" d="M38.8,73.4c0-24.5,19.1-44.3,42.6-44.3s42.6,19.8,42.6,44.3s-19.1,55.7-42.6,55.7S38.8,97.9,38.8,73.4z"/>
	<ellipse fill="#6B3CFF" cx="80.7" cy="72.8" rx="30.1" ry="21.8"/>
	<g>
		<g>
			<circle fill="#6B3CFF" cx="106.5" cy="96" r="1.1"/>
			<circle fill="#6B3CFF" cx="109.3" cy="93.6" r="1.1"/>
			<circle fill="#6B3CFF" cx="110.4" cy="97.5" r="1.1"/>
			<circle fill="#6B3CFF" cx="107.1" cy="100" r="1.1"/>
			<circle fill="#6B3CFF" cx="111" cy="101.8" r="1.1"/>
			<circle fill="#6B3CFF" cx="113.4" cy="94.9" r="1.1"/>
			<circle fill="#6B3CFF" cx="114.5" cy="98.9" r="1.1"/>
			<circle fill="#6B3CFF" cx="103.4" cy="99.1" r="1.1"/>
			<circle fill="#6B3CFF" cx="105.6" cy="103.4" r="1.1"/>
		</g>
		<g>
			<circle fill="#6B3CFF" cx="56.4" cy="96" r="1.1"/>
			<circle fill="#6B3CFF" cx="53.5" cy="93.6" r="1.1"/>
			<circle fill="#6B3CFF" cx="52.4" cy="97.5" r="1.1"/>
			<circle fill="#6B3CFF" cx="55.7" cy="100" r="1.1"/>
			<circle fill="#6B3CFF" cx="51.9" cy="101.8" r="1.1"/>
			<circle fill="#6B3CFF" cx="49.5" cy="94.9" r="1.1"/>
			<circle fill="#6B3CFF" cx="48.4" cy="98.9" r="1.1"/>
			<circle fill="#6B3CFF" cx="59.5" cy="99.1" r="1.1"/>
			<circle fill="#6B3CFF" cx="57.3" cy="103.4" r="1.1"/>
		</g>
	</g>
	<g>
		<g>
			<path fill="#4A00D0" d="M81.6,107.7L81.6,107.7c4.3,0,7.8-1.4,7.8,1.9v0c0,3.3-3.5,6-7.8,6h0c-4.3,0-7.8-2.7-7.8-6v0
				C73.8,106.3,77.3,107.7,81.6,107.7z"/>
		</g>
		<path fill="#FFFFFF" d="M81.5,106.2c-2,0-3.9,0.4-5.5,1.2c0.1,2.2,2.6,2.1,5.5,2.1c3,0,5.4,0.1,5.5-2.1
			C85.5,106.6,83.6,106.2,81.5,106.2L81.5,106.2z"/>
	</g>
	<path opacity="0.36" fill="#D0E7FF" d="M81.5,94.1c0,0-0.1-0.1-0.1-0.1C81.4,94.1,81.4,94.1,81.5,94.1z"/>
	<path opacity="0.36" fill="#D0E7FF" d="M81.6,95.1c-0.1-0.1-0.2-0.2-0.4-0.4C81.4,94.9,81.5,95,81.6,95.1z"/>
	<path opacity="0.36" fill="#D0E7FF" d="M81.4,93.3C81.4,93.3,81.4,93.3,81.4,93.3C81.4,93.3,81.4,93.3,81.4,93.3z"/>
	<path opacity="0.36" fill="#D0E7FF" d="M81.5,94.6c-0.1-0.1-0.1-0.1-0.2-0.2C81.4,94.4,81.5,94.5,81.5,94.6z"/>
	<path opacity="0.36" fill="#D0E7FF" d="M81.4,92.9C81.4,92.9,81.4,92.9,81.4,92.9C81.4,92.9,81.4,92.9,81.4,92.9z"/>
	<path opacity="0.36" fill="#D0E7FF" d="M81.5,93.7C81.4,93.7,81.4,93.7,81.5,93.7C81.4,93.7,81.4,93.7,81.5,93.7z"/>
	<path opacity="0.36" fill="#FFFFFF" d="M81.6,93.6c-0.1-0.1-0.2-0.2-0.3-0.3C81.4,93.4,81.5,93.5,81.6,93.6z"/>
	<path opacity="0.36" fill="#FFFFFF" d="M81.6,93.3c-0.1-0.1-0.2-0.2-0.3-0.4C81.4,93,81.5,93.1,81.6,93.3z"/>
	<path opacity="0.36" fill="#FFFFFF" d="M81.5,94.8c-0.1-0.1-0.1-0.1-0.2-0.2C81.4,94.6,81.5,94.7,81.5,94.8z"/>
	<path opacity="0.36" fill="#FFFFFF" d="M81.5,94.4c-0.1-0.1-0.1-0.2-0.2-0.2C81.4,94.2,81.5,94.3,81.5,94.4z"/>
	<path opacity="0.36" fill="#FFFFFF" d="M81.6,94c-0.1-0.1-0.2-0.2-0.3-0.3C81.4,93.8,81.5,93.9,81.6,94z"/>
	<g>
		<g>
			<circle fill="#FFFFFF" cx="81.4" cy="72.8" r="15"/>
			<g>
				<circle fill="#6B3CFF" cx="81.4" cy="72.8" r="8"/>
				<circle fill="#1E0080" cx="81.4" cy="72.8" r="5.9"/>
			</g>
		</g>
	</g>
	<ellipse opacity="0.32" fill="#C2D8FF" cx="80.7" cy="73.8" rx="30.1" ry="21.8"/>
	<path opacity="0.45" fill="#FFFFFF" d="M60.7,89c-6.2-4-10.1-9.8-10.1-16.3c0-12.1,13.5-21.8,30.1-21.8c6.2,0,12,1.4,16.9,3.7"/>
	<ellipse fill="none" stroke="#FFFFFF" stroke-width="2.9337" stroke-miterlimit="10" cx="80.7" cy="72.7" rx="30.1" ry="21.8"/>
	<g>
		<circle fill="#6B3CFF" cx="61.3" cy="43.6" r="1.1"/>
		<circle fill="#6B3CFF" cx="64.7" cy="45.6" r="1.1"/>
		<circle fill="#6B3CFF" cx="60.6" cy="47.8" r="1.1"/>
		<circle fill="#6B3CFF" cx="69.4" cy="45" r="1.1"/>
		<circle fill="#6B3CFF" cx="65.4" cy="42" r="1.1"/>
	</g>
	<circle fill="#6B3CFF" cx="100.2" cy="42" r="2.7"/>
	<circle fill="#6B3CFF" cx="104.5" cy="46.7" r="1.8"/>
	<g>
		<ellipse transform="matrix(0.866 -0.5 0.5 0.866 -12.0132 64.949)" fill="#6B3CFF" cx="115.2" cy="54.9" rx="2.8" ry="3.6"/>
		<path fill="#4A00D0" d="M126.4,31.1c-0.8,0.5-1,1.6-0.5,2.4l5.6,8.5l-6.1,4l-3.3-5c-0.5-0.8-1.6-1-2.4-0.5c-0.8,0.5-1,1.6-0.5,2.4
			l3.3,5l-7.5,5c-0.8,0.5-1,1.6-0.5,2.4c0.5,0.8,1.6,1,2.4,0.5l17.9-11.8c0.8-0.5,1-1.6,0.5-2.4l-6.6-9.9
			C128.3,30.8,127.2,30.5,126.4,31.1z"/>
		<ellipse transform="matrix(0.5 -0.866 0.866 0.5 -23.6176 68.8758)" fill="#6B3CFF" cx="47.8" cy="54.9" rx="3.6" ry="2.8"/>
		<path fill="#4A00D0" d="M36.6,31.1c0.8,0.5,1,1.6,0.5,2.4L31.5,42l6.1,4l3.3-5c0.5-0.8,1.6-1,2.4-0.5c0.8,0.5,1,1.6,0.5,2.4
			l-3.3,5l7.5,5c0.8,0.5,1,1.6,0.5,2.4c-0.5,0.8-1.6,1-2.4,0.5L28.2,43.9c-0.8-0.5-1-1.6-0.5-2.4l6.6-9.9
			C34.8,30.8,35.8,30.5,36.6,31.1z"/>
	</g>
	<path fill="#A4AAFF" d="M135.7,121.7c0,0-2.4,22.1,20.4,36.1c0,0,0.6,7.4,5.3,6.8c0,0,2.3-0.7-0.3-2.9c0,0,2.9,0.4,3.7,0
		c0,0,1-0.6-1.2-2.7c0,0,3,2,3-0.3c0-0.8-2.2-5.8-6.9-4.6c0,0-16.3-7.9-19.8-26.8C139.9,127.2,139.5,117,135.7,121.7z"/>
	<path fill="#1E0080" d="M134.5,125.6c0,0-2.1-10.8,2.9-10.9c5-0.1,5.2,10.8,5.2,10.8L134.5,125.6z"/>
	<g>
		<path fill="#A4AAFF" d="M22.9,118c0,0-11.1,19.3,4.1,41.3c0,0-2.4,7,2.1,8.3c0,0,2.3,0.3,0.9-2.8c0,0,1.6,1.8,2.4,1.7
			c0,0,2.1-0.3,0.9-3.2c0,0,2,3,2.9,1c0.3-0.8,0.3-6.2-4.4-7c0,0-11.8-13.8-7.3-32.6C24.5,124.7,28.2,115.2,22.9,118z"/>
		<path fill="#1E0080" d="M26.3,126.5c0,0,4.5-10-0.4-11.2c-4.9-1.2-7.5,9.3-7.5,9.3L26.3,126.5z"/>
	</g>
	<circle fill="#FFFFFF" cx="76.2" cy="66.9" r="3.8"/>
	<ellipse opacity="0.43" fill="#19002F" cx="339.6" cy="183.5" rx="46.3" ry="7.7"/>
	<g>
		<g>
			<path fill="#5D0081" d="M369,21.9l13.8-2.7c2.7-0.5,5,2.1,4.1,4.7l-4.5,13.3"/>
			<polygon fill="#EB18FF" points="370.7,24.3 383.6,21.3 375.4,27.6 			"/>
		</g>
		<g>
			<path fill="#5D0081" d="M308.4,21.9l-13.8-2.7c-2.7-0.5-5,2.1-4.1,4.7l4.5,13.3"/>
			<polygon fill="#EB18FF" points="298.4,34.7 293.2,22.5 300.8,29.5 			"/>
		</g>
	</g>
	<g>
		<g>
			<g>
				<path fill="#9700B8" d="M347.4,168.7c2.8,0,5-2.3,5-5v-19.1h-10.1v19.1C342.4,166.4,344.7,168.7,347.4,168.7z"/>
			</g>
			<rect x="342.4" y="144.5" fill="#5D0081" width="10.1" height="12.1"/>
		</g>
		<g>
			<g>
				<path fill="#9700B8" d="M364.9,168.7c2.8,0,5-2.3,5-5v-19.1h-10.1v19.1C359.9,166.4,362.1,168.7,364.9,168.7z"/>
			</g>
			<rect x="359.8" y="144.5" fill="#5D0081" width="10.1" height="12.1"/>
		</g>
		<g>
			<g>
				<path fill="#9700B8" d="M312.5,168.7c2.8,0,5-2.3,5-5v-19.1h-10.1v19.1C307.5,166.4,309.7,168.7,312.5,168.7z"/>
			</g>
			<rect x="307.5" y="144.5" fill="#5D0081" width="10.1" height="12.1"/>
		</g>
		<g>
			<g>
				<path fill="#9700B8" d="M330,168.7c2.8,0,5-2.3,5-5v-19.1h-10.1v19.1C324.9,166.4,327.2,168.7,330,168.7z"/>
			</g>
			<rect x="324.9" y="144.5" fill="#5D0081" width="10.1" height="12.1"/>
		</g>
	</g>
	<g>
		<g>
			<path fill="#9700B8" d="M266.8,161.3c9.8,3.3,17.1-8,17.2-16.7c0.1-6.1-1.7-12.4,3.7-17c5.8-4.9,14.1-1.6,20.2,1
				c3.6,1.6,6.7-3.7,3.1-5.3c-9.5-4.2-21.8-7.5-29.4,1.9c-2.8,3.5-4.2,8-4.2,12.4c0,3.7,1,7.2-0.2,10.8c-1.2,3.7-4.3,8.5-8.8,6.9
				C264.7,154.2,263.1,160.1,266.8,161.3L266.8,161.3z"/>
		</g>
	</g>
	<path fill="#EB18FF" d="M265.9,156.2c1.9-1.5,4.6-1.2,6.1,0.7c1.5,1.9,1.1,4.6-0.7,6.1s-8.7,4.4-10.1,2.6
		C259.7,163.7,264.1,157.7,265.9,156.2z"/>
	<path fill="#9700B8" d="M338.7,146.3L338.7,146.3c-28.5,0-51.5,1.6-51.5-26.9V63.5c0-28.5,23.1-51.5,51.5-51.5h0
		c28.5,0,51.5,23.1,51.5,51.5v55.9C390.2,147.9,367.2,146.3,338.7,146.3z"/>
	<g>
		<path fill="#EB18FF" d="M287.2,115v4.4c0,28.5,23.1,26.9,51.5,26.9h0c28.5,0,51.5,1.6,51.5-26.9V115
			c-11.2,7.1-30.1,11.8-51.5,11.8S298.4,122.1,287.2,115z"/>
	</g>
	<circle fill="#FFFFFF" cx="338.7" cy="67" r="15"/>
	<g>
		<circle fill="#F9A6FF" cx="338.7" cy="67" r="8"/>
		<circle fill="#5D0081" cx="338.7" cy="67" r="5.9"/>
	</g>
	<g>
		<path fill="#5D0081" d="M349.1,95.7c0,5.8-4.7,10.4-10.4,10.4s-10.4-4.7-10.4-10.4"/>
		<path fill="#FFFFFF" d="M347.8,95.7c0,2.3-1.8,4.1-4.1,4.1s-4.1-1.8-4.1-4.1"/>
	</g>
	<g>
		<circle opacity="0.36" fill="#F9A6FF" cx="338.7" cy="67" r="21.7"/>
		<path opacity="0.36" fill="#FFFFFF" d="M323.4,82.3c-8.5-8.5-8.5-22.2,0-30.6s22.2-8.5,30.6,0"/>
	</g>
	<circle fill="none" stroke="#EB18FF" stroke-width="3.5191" stroke-miterlimit="10" cx="338.7" cy="67" r="21.7"/>
	<g>
		<path opacity="0.54" fill="#5D0081" d="M321,146.2c5.5,0.2,11.5,0.1,17.7,0.1h0c28.5,0,51.5,1.6,51.5-26.9V79.1
			C390.2,79.1,382.7,132.2,321,146.2z"/>
	</g>
	<g>
		<path fill="#9700B8" d="M303.8,132.3h-8.8c-0.3,0-0.5-0.2-0.5-0.5v-0.7c0-0.3,0.2-0.5,0.5-0.5h8.8c0.3,0,0.5,0.2,0.5,0.5v0.7
			C304.3,132.1,304.1,132.3,303.8,132.3z"/>
		<path fill="#9700B8" d="M303.8,129.4h-8.8c-0.3,0-0.5-0.2-0.5-0.5v-0.7c0-0.3,0.2-0.5,0.5-0.5h8.8c0.3,0,0.5,0.2,0.5,0.5v0.7
			C304.3,129.2,304.1,129.4,303.8,129.4z"/>
		<path fill="#9700B8" d="M303.8,135.2h-8.8c-0.3,0-0.5-0.2-0.5-0.5V134c0-0.3,0.2-0.5,0.5-0.5h8.8c0.3,0,0.5,0.2,0.5,0.5v0.7
			C304.3,135,304.1,135.2,303.8,135.2z"/>
	</g>
	<g>
		<path fill="#5D0081" d="M368.9,100.7h-8.2c-0.6,0-1.1-0.5-1.1-1.1v-1.7c0-0.6,0.5-1.1,1.1-1.1h8.2c0.6,0,1.1,0.5,1.1,1.1v1.7
			C370,100.2,369.5,100.7,368.9,100.7z"/>
		<path fill="#5D0081" d="M372.4,106.1h-8.2c-0.6,0-1.1-0.5-1.1-1.1v-1.7c0-0.6,0.5-1.1,1.1-1.1h8.2c0.6,0,1.1,0.5,1.1,1.1v1.7
			C373.5,105.6,373,106.1,372.4,106.1z"/>
	</g>
	<g>
		<rect x="301.5" y="94.1" fill="#EB18FF" width="1.3" height="15.9"/>
		<rect x="303.7" y="94.1" fill="#EB18FF" width="1.3" height="15.9"/>
		<path fill="none" stroke="#EB18FF" stroke-width="1.4076" stroke-miterlimit="10" d="M315.8,103.2h-7.5c-0.8,0-1.4-0.6-1.4-1.4
			v-7.6"/>
		<path opacity="0.36" fill="#FFFFFF" d="M314,110h-15.5c-1,0-1.8-0.8-1.8-1.8V95.9c0-1,0.8-1.8,1.8-1.8h16.1c0.6,0,1.2,0.5,1.2,1.2
			v12.9C315.8,109.2,315,110,314,110z"/>
		<path opacity="0.36" fill="#FFFFFF" d="M296.8,104v-6.7c0-1.8,1.4-3.2,3.2-3.2h5.3"/>
	</g>
	<g>
		<path fill="none" stroke="#FFFFFF" stroke-width="4.4575" stroke-linecap="round" stroke-miterlimit="10" d="M302.8,39.1
			c5.6-10,12.4-15.7,24.8-18.5"/>
		<g>
			<g>
				<path fill="#FFFFFF" d="M334.6,21.5c3,0,3-4.7,0-4.7C331.5,16.9,331.5,21.5,334.6,21.5L334.6,21.5z"/>
			</g>
		</g>
	</g>
	<g>
		<path fill="#5D0081" d="M350.9,30.6h8.2c0.6,0,1.1-0.5,1.1-1.1v-1.7c0-0.6-0.5-1.1-1.1-1.1h-8.2c-0.6,0-1.1,0.5-1.1,1.1v1.7
			C349.8,30.1,350.3,30.6,350.9,30.6z"/>
		<path fill="#5D0081" d="M350.8,25.4h2.2c1.1,0,2-0.9,2-2v0c0-1.1-0.9-2-2-2h-2.2c-1.1,0-2,0.9-2,2v0
			C348.8,24.5,349.7,25.4,350.8,25.4z"/>
		<path fill="#5D0081" d="M345.7,35.9h8.2c0.6,0,1.1-0.5,1.1-1.1V33c0-0.6-0.5-1.1-1.1-1.1h-8.2c-0.6,0-1.1,0.5-1.1,1.1v1.7
			C344.6,35.4,345.1,35.9,345.7,35.9z"/>
	</g>
	<circle fill="#FFFFFF" cx="335" cy="60.2" r="3.6"/>
	<ellipse opacity="0.51" fill="#19002F" cx="216.1" cy="183.3" rx="45.4" ry="6.9"/>
	<g>
		<path fill="#76CBFF" d="M168,158.1c-0.9,2.8-3.4,4.5-5.6,3.8c-2.2-0.7-3.2-3.5-2.3-6.3"/>
		<path fill="#003875" d="M178.4,141.8l-3-3c-1-1-2.6-1.1-3.7-0.1c-2.8,2.5-8.2,7.9-12.2,15.8c-0.8,1.5,0.4,2,2,2.5l4.8,1.6
			c1.3,0.4,2.3,1,2.9-0.2c1.2-2.6,3.8-7.3,9.2-12.7C179.4,144.6,179.4,142.8,178.4,141.8z"/>
	</g>
	<g>
		<path fill="#76CBFF" d="M260.2,158.4c1.7,2.4,5.4,5.6,7.9,4.5c3.3-1.5,0.6-6.8-1-9.2"/>
		<path fill="#003875" d="M245.6,145.7l2-3.8c0.7-1.2,2.2-1.8,3.5-1.2c3.4,1.6,10.1,5.2,16.3,11.6c1.1,1.2,0.2,2.1-1.2,3l-4.1,2.9
			c-1.1,0.8-1.9,1.7-2.8,0.6c-1.9-2.2-5.7-5.9-12.5-9.5C245.4,148.7,244.8,147,245.6,145.7z"/>
	</g>
	<g>
		<g>
			
				<ellipse transform="matrix(1.048769e-02 -0.9999 0.9999 1.048769e-02 16.456 363.9969)" fill="#76CBFF" cx="192.1" cy="173.7" rx="6.8" ry="6.8"/>
		</g>
		<g>
			
				<ellipse transform="matrix(1.048798e-02 -0.9999 0.9999 1.048798e-02 60.7097 409.6654)" fill="#76CBFF" cx="237.3" cy="174.2" rx="6.8" ry="6.8"/>
		</g>
		<g>
			
				<ellipse transform="matrix(1.048778e-02 -0.9999 0.9999 1.048778e-02 43.2452 397.0718)" fill="#76CBFF" cx="222.3" cy="176.7" rx="6.8" ry="6.8"/>
		</g>
		<g>
			
				<ellipse transform="matrix(1.048797e-02 -0.9999 0.9999 1.048797e-02 28.4939 381.8489)" fill="#76CBFF" cx="207.2" cy="176.5" rx="6.8" ry="6.8"/>
		</g>
	</g>
	<g>
		<path fill="#0084BF" d="M254.1,157.8c-0.2,18.5-17.8,20.4-39.4,20.2s-39.2-2.5-39-21c0.2-18.5,18.2-60.2,39.9-60
			C237.2,97.2,254.3,139.2,254.1,157.8z"/>
	</g>
	<g>
		<path fill="#0084BF" d="M173.7,130.8c-3.3-1.5-6.2,2.7-3.5,5.2c11.7,10.9,27.4,17.7,44.8,17.9c17.3,0.2,33.1-6.2,45.1-16.9
			c2.7-2.4-0.1-6.7-3.4-5.3c-11.3,5-25.8,9.6-41.6,9.5C199.3,141,184.9,136,173.7,130.8z"/>
	</g>
	<g>
		<g>
			<path fill="none" stroke="#0084BF" stroke-width="2.9173" stroke-linecap="round" stroke-miterlimit="10" d="M211.4,54.2
				c0,0-10.7-13.5-10.5-25.8"/>
			<circle fill="#76CBFF" cx="200.3" cy="26.6" r="5.6"/>
		</g>
		<g>
			<path fill="none" stroke="#0084BF" stroke-width="2.9173" stroke-linecap="round" stroke-miterlimit="10" d="M220.5,59.9
				c0,0,10.9-13.2,11.1-25.6"/>
			<circle fill="#76CBFF" cx="232.2" cy="32.5" r="5.6"/>
		</g>
	</g>
	<g>
		<g>
			<path fill="#0084BF" d="M159.1,41c0.3-31.5,25.3,19.1,56.8,19.4s57.5-49.7,57.2-18.3c-0.3,31.5-26,48.5-57.5,48.2
				S158.8,72.4,159.1,41z"/>
			<path opacity="0.54" fill="#003875" d="M273.1,42.2c0.1-7-1.2-10-3.5-10.4c0,0-0.4,27.6-18.7,39.1l2.2,9.4
				C265.2,72.2,273,59.3,273.1,42.2z"/>
			<path opacity="0.54" fill="#003875" d="M159.1,41c0.1-7,1.4-9.9,3.7-10.3c0,0-0.2,27.6,17.9,39.5l-2.4,9.3
				C166.4,71.2,158.9,58.1,159.1,41z"/>
		</g>
		<g>
			<g>
				<path fill="none" stroke="#76CBFF" stroke-width="1.9449" stroke-linecap="round" stroke-miterlimit="10" d="M170.7,40
					c0,0,6.9,7.3,12.8,11.3"/>
				<path fill="none" stroke="#76CBFF" stroke-width="1.9449" stroke-linecap="round" stroke-miterlimit="10" d="M187.1,53.9
					C187.1,53.9,185,52.6,187.1,53.9"/>
			</g>
			<g>
				<path fill="none" stroke="#76CBFF" stroke-width="1.9449" stroke-linecap="round" stroke-miterlimit="10" d="M261.6,41
					c0,0-7,7.2-13,11"/>
				<path fill="none" stroke="#76CBFF" stroke-width="1.9449" stroke-linecap="round" stroke-miterlimit="10" d="M244.9,54.5
					C244.9,54.5,247,53.2,244.9,54.5"/>
			</g>
		</g>
	</g>
	<g>
		<g>
			<path fill="#76CBFF" d="M266.6,103.3c-0.3,28.2-23.3,44-51.5,43.7s-50.9-16.5-50.6-44.7s23.4-50.8,51.6-50.5
				C244.2,52,266.9,75.1,266.6,103.3z"/>
			<g>
				<path fill="#0084BF" d="M166.4,117c5.2-0.4,9.4-4.8,9.5-10.2c0.1-5.7-4.5-10.3-10.2-10.4c-0.3,0-0.6,0-0.9,0
					c-0.2,1.9-0.4,3.8-0.4,5.8C164.4,107.4,165.1,112.3,166.4,117z"/>
				<path fill="#0084BF" d="M260.9,79.4c-2.7,0.7-4.7,3.1-4.7,6.1c0,3.5,2.8,6.4,6.3,6.4c1,0,1.9-0.2,2.8-0.6
					C264.3,87.1,262.9,83.1,260.9,79.4z"/>
				<circle fill="#0084BF" cx="180.7" cy="118.8" r="4.6"/>
				<circle fill="#0084BF" cx="250.1" cy="81.1" r="2.8"/>
				<circle fill="#0084BF" cx="242.9" cy="120" r="5.4"/>
				<circle fill="#0084BF" cx="248.5" cy="110.1" r="2.6"/>
				<circle fill="#0084BF" cx="181.2" cy="106.8" r="2"/>
			</g>
		</g>
		<g>
			<path fill="none" stroke="#FFFFFF" stroke-width="2.6742" stroke-linecap="round" stroke-miterlimit="10" d="M182,77.6
				c0,0,4.5-14.1,24.5-17.9"/>
			<path fill="none" stroke="#FFFFFF" stroke-width="2.6742" stroke-linecap="round" stroke-miterlimit="10" d="M210.9,58.8
				C211.6,58.7,210.2,58.9,210.9,58.8"/>
		</g>
	</g>
	<g>
		<path fill="#0084BF" d="M228.3,122c-0.1,7.2-6,12.9-13.1,12.9c-7.2-0.1-12.9-6-12.9-13.1"/>
		<path fill="#FFFFFF" d="M209.4,121.8l0,3c0,1,0.8,1.8,1.7,1.8l1.1,0c1,0,1.8-0.8,1.8-1.7l0-3L209.4,121.8z"/>
		<path fill="#FFFFFF" d="M216.5,121.9l0,3c0,1,0.8,1.8,1.7,1.8l1.1,0c1,0,1.8-0.8,1.8-1.7l0-3L216.5,121.9z"/>
	</g>
	<g>
		<g>
			<circle fill="#00A0DF" cx="215.6" cy="90.3" r="24.2"/>
		</g>
		<g>
			<circle fill="#FFFFFF" cx="215.6" cy="90.3" r="16.8"/>
			<g>
				<circle fill="#00A0DF" cx="215.6" cy="90.3" r="8.9"/>
				<circle fill="#1E0080" cx="215.6" cy="90.3" r="6.6"/>
			</g>
		</g>
		<g>
			<circle opacity="0.38" fill="#D0E7FF" cx="215.6" cy="90.3" r="24.2"/>
			<path opacity="0.45" fill="#FFFFFF" d="M198.3,107.3c-9.4-9.6-9.2-24.9,0.4-34.3s24.9-9.2,34.3,0.4"/>
			<circle fill="none" stroke="#00A0DF" stroke-width="2.9243" stroke-miterlimit="10" cx="215.6" cy="90.3" r="24.2"/>
		</g>
	</g>
	<circle fill="#FFFFFF" cx="210.6" cy="84.5" r="4.7"/>
	<g>
		<g>
			<path fill="#FF0200" d="M227.5,154.7c-8-3.2-16,3.2-24,0c0-0.9,0-1.8,0-2.6c8,3.2,16-3.2,24,0
				C227.5,152.9,227.5,153.8,227.5,154.7z"/>
			<path fill="#FFA500" d="M227.5,157.3c-8-3.2-16,3.2-24,0c0-0.9,0-1.8,0-2.6c8,3.2,16-3.2,24,0
				C227.5,155.6,227.5,156.4,227.5,157.3z"/>
			<path fill="#FEFF00" d="M227.5,159.9c-8-3.2-16,3.2-24,0c0-0.9,0-1.8,0-2.6c8,3.2,16-3.2,24,0
				C227.5,158.2,227.5,159.1,227.5,159.9z"/>
			<path fill="#008002" d="M227.5,162.6c-8-3.2-16,3.2-24,0c0-0.9,0-1.8,0-2.6c8,3.2,16-3.2,24,0
				C227.5,160.8,227.5,161.7,227.5,162.6z"/>
			<path fill="#1B00FF" d="M227.5,165.2c-8-3.2-16,3.2-24,0c0-0.9,0-1.8,0-2.6c8,3.2,16-3.2,24,0
				C227.5,163.4,227.5,164.3,227.5,165.2z"/>
			<path fill="#800080" d="M227.5,167.8c-8-3.2-16,3.2-24,0c0-0.9,0-1.8,0-2.6c8,3.2,16-3.2,24,0
				C227.5,166.1,227.5,166.9,227.5,167.8z"/>
		</g>
	</g>
	<path opacity="0.54" fill="#003875" d="M257.8,131.4c-2.1,3.7-21.4,28.4-70.1,43.2c0.1,0,0.1,0.1,0.2,0.1c0.1,0,0.2,0.1,0.3,0.1
		c0.2,0.1,0.4,0.1,0.6,0.2c0.1,0,0.1,0.1,0.2,0.1c0.5,0.2,1.1,0.3,1.6,0.5c0.1,0,0.2,0,0.2,0.1c0.2,0.1,0.4,0.1,0.6,0.2
		c0.1,0,0.2,0,0.3,0.1c0.2,0,0.4,0.1,0.6,0.1c0.1,0,0.2,0,0.3,0.1c0.2,0.1,0.5,0.1,0.7,0.1c0.1,0,0.1,0,0.2,0
		c0.3,0.1,0.6,0.1,0.9,0.2c0,0,0.1,0,0.1,0c0.3,0,0.5,0.1,0.8,0.1c0.1,0,0.2,0,0.3,0.1c0.2,0,0.4,0.1,0.6,0.1c0.1,0,0.2,0,0.3,0.1
		c0.2,0,0.4,0.1,0.7,0.1c0.1,0,0.2,0,0.3,0c0.3,0,0.6,0.1,0.8,0.1c0,0,0.1,0,0.1,0c0.3,0,0.7,0.1,1,0.1c0.1,0,0.2,0,0.3,0
		c0.2,0,0.5,0.1,0.7,0.1c0.1,0,0.2,0,0.4,0c0.2,0,0.5,0,0.7,0.1c0.1,0,0.2,0,0.4,0c0.2,0,0.5,0,0.7,0.1c0.1,0,0.2,0,0.3,0
		c0.3,0,0.7,0.1,1,0.1c0,0,0.1,0,0.1,0c0.3,0,0.6,0,0.9,0.1c0.1,0,0.2,0,0.4,0c0.2,0,0.5,0,0.7,0c0.1,0,0.3,0,0.4,0
		c0.2,0,0.5,0,0.7,0c0.1,0,0.2,0,0.4,0c0.3,0,0.6,0,0.8,0c0.1,0,0.2,0,0.2,0c0.4,0,0.7,0,1.1,0c0.1,0,0.2,0,0.3,0c0.3,0,0.5,0,0.8,0
		c0.1,0,0.3,0,0.4,0c0.2,0,0.5,0,0.7,0c0.1,0,0.3,0,0.4,0c0.2,0,0.5,0,0.7,0c0.1,0,0.3,0,0.4,0c0.3,0,0.7,0,1,0c0,0,0.1,0,0.1,0
		c12.9,0.1,24.3-0.5,31.5-4.9c0.6-0.3,1.1-0.7,1.6-1.1c0.9-0.7,1.6-1.4,2.3-2.2c0.6-0.6,1.1-1.3,1.5-2.1c0.2-0.4,0.4-0.8,0.6-1.2
		c0.1-0.2,0.2-0.4,0.3-0.6c0.2-0.4,0.3-0.8,0.5-1.3c0.7-2,1-4.3,1.1-6.9c0-4-0.7-9.1-2.2-14.7c2.9-1.9,5.6-3.9,8.1-6.2
		C262.5,134.8,260.6,131.2,257.8,131.4"/>
	<g>
		<path fill="#EB18FF" d="M56.4,127.9c-3,0.1-5.3,2.6-5.2,5.5l0,0l0,0c-0.1-3-2.6-5.3-5.5-5.2c-3,0.1-5.3,2.6-5.2,5.5
			c-0.2,4.3,11.1,12.2,11.1,12.2l0,0l0,0c0,0,10.8-8.6,10.3-12.9C61.9,130.2,59.4,127.8,56.4,127.9z"/>
		<path fill="none" stroke="#FFFFFF" stroke-width="0.5924" stroke-linecap="round" stroke-miterlimit="10" d="M41.9,133.5
			c0.1-0.1,0.3-2.7,2.7-3.6"/>
		
			<line fill="none" stroke="#FFFFFF" stroke-width="0.5924" stroke-linecap="round" stroke-miterlimit="10" x1="45.7" y1="129.5" x2="46" y2="129.5"/>
		<path opacity="0.54" fill="#9700B8" d="M62,133.1c0-0.7-0.2-1.4-0.5-2c-1.5,2.7-5.9,9.4-13.6,12.1c2,1.7,3.7,2.8,3.7,2.8l0,0l0,0
			C51.6,146,62.4,137.5,62,133.1z"/>
	</g>
</g>
<g id="Lines">
</g>
<g id="Text" display="none">
</g>
<g id="Fog_Overlay">
</g>
</svg>
