<?xml version="1.0" encoding="utf-8"?>
<!-- Generator: Adobe Illustrator 24.0.0, SVG Export Plug-In . SVG Version: 6.00 Build 0)  -->
<svg version="1.1" id="Layer_1" xmlns="http://www.w3.org/2000/svg" xmlns:xlink="http://www.w3.org/1999/xlink" x="0px" y="0px"
	 viewBox="0 0 400 250" style="enable-background:new 0 0 400 250;" xml:space="preserve">
<style type="text/css">
	.st0{opacity:9.000000e-02;enable-background:new    ;}
	.st1{fill:#36009F;}
	.st2{fill:#90A9FF;}
	.st3{fill:#5C5EFF;}
	.st4{fill:#4C25D0;}
	.st5{fill:none;stroke:#36009F;stroke-width:2.0432;stroke-linecap:round;stroke-miterlimit:10;}
	.st6{fill:none;stroke:#FFFFFF;stroke-width:2.8455;stroke-linecap:round;stroke-miterlimit:10;}
	.st7{fill:#FFFFFF;}
	.st8{opacity:0.19;fill:#506EFF;enable-background:new    ;}
	.st9{opacity:0.83;}
	.st10{opacity:0.56;fill:#FFFFFF;enable-background:new    ;}
	.st11{fill:none;stroke:#FFFFFF;stroke-width:1.4228;stroke-miterlimit:10;}
	.st12{opacity:0.3;fill:#4C25D0;enable-background:new    ;}
	.st13{fill:#FF0200;}
	.st14{fill:#FFA500;}
	.st15{fill:#FEFF00;}
	.st16{fill:#008002;}
	.st17{fill:#1B00FF;}
	.st18{fill:#800080;}
	.st19{display:none;}
	.st20{fill:#92DDFF;}
	.st21{fill:#214978;}
	.st22{fill:#349FDB;}
	.st23{fill:none;stroke:#349FDB;stroke-width:2.6682;stroke-linecap:round;stroke-miterlimit:10;}
	.st24{fill:none;stroke:#FFFFFF;stroke-width:2.7598;stroke-linecap:round;stroke-miterlimit:10;}
	.st25{opacity:0.47;fill:#214978;enable-background:new    ;}
	.st26{fill:#0084BF;}
	.st27{opacity:0.12;fill:#FFFFFF;enable-background:new    ;}
	.st28{fill:none;stroke:#FFFFFF;stroke-width:1.3799;stroke-miterlimit:10;}
	.st29{fill:none;stroke:#0084BF;stroke-width:1.6559;stroke-linecap:round;stroke-miterlimit:10;}
	.st30{opacity:0.45;fill:#FFFFFF;enable-background:new    ;}
	.st31{fill:#9700B8;}
	.st32{fill:#5D0081;}
	.st33{fill:#EB18FF;}
	.st34{opacity:0.64;fill:#3E005A;enable-background:new    ;}
	.st35{fill:none;stroke:#FFFFFF;stroke-width:2.4458;stroke-linecap:round;stroke-miterlimit:10;}
	.st36{opacity:0.3;fill:#3E005A;enable-background:new    ;}
	.st37{fill:#F9A6FF;}
	.st38{opacity:0.45;}
	.st39{fill:none;stroke:#FFFFFF;stroke-width:1.2229;stroke-miterlimit:10;}
	.st40{fill:none;stroke:#FFFFFF;stroke-width:0.4675;stroke-linecap:round;stroke-miterlimit:10;}
	.st41{opacity:0.54;fill:#9700B8;enable-background:new    ;}
</style>
<g>
	<ellipse class="st0" cx="65.8" cy="228.8" rx="55.9" ry="9.4"/>
	<g>
		<g>
			<g>
				<g>
					<g>
						<g>
							<rect x="48.9" y="192.3" class="st1" width="12.6" height="33.1"/>
						</g>
					</g>
					<g>
						<g>
							<rect x="48.9" y="180.6" class="st1" width="12.6" height="33.1"/>
						</g>
					</g>
				</g>
			</g>
			<path class="st2" d="M50.6,218c0,0-17.2-1.4-17.2,2.2c-0.1,3.6,4.9,2.5,4.9,2.5s-7,1-4.1,4.2c3.9,4.4,27.3-1.5,27.3-1.5v-9.3
				L50.6,218z"/>
			<rect x="48.9" y="213.7" class="st2" width="12.6" height="9.8"/>
			<path class="st3" d="M61.2,215.4H49.2c-0.8,0-1.4-0.6-1.4-1.4v-0.5c0-0.8,0.6-1.4,1.4-1.4h11.9c0.8,0,1.4,0.6,1.4,1.4v0.5
				C62.6,214.7,62,215.4,61.2,215.4z"/>
			<path class="st3" d="M48.7,227.9c3.2-0.5,6.3-1,8.7-1.5c-0.9-1.3-2.3-2.2-4-2.2C51.1,224.2,49.2,225.8,48.7,227.9z"/>
			<circle class="st3" cx="57.2" cy="222.8" r="1.7"/>
			<circle class="st3" cx="54.2" cy="220.9" r="1"/>
		</g>
		<g>
			<g>
				<g>
					<g>
						<g>
							<rect x="73.1" y="192.3" class="st1" width="12.6" height="33.1"/>
						</g>
					</g>
					<g>
						<g>
							<rect x="73.1" y="180.6" class="st1" width="12.6" height="33.1"/>
						</g>
					</g>
				</g>
			</g>
			<path class="st2" d="M84,218c0,0,17.2-1.4,17.2,2.2c0.1,3.6-4.9,2.5-4.9,2.5s7,1,4.1,4.2c-3.9,4.4-27.3-1.5-27.3-1.5v-9.3L84,218
				z"/>
			<rect x="73.1" y="213.7" class="st2" width="12.6" height="9.8"/>
			<path class="st3" d="M85.3,215.4H73.4c-0.8,0-1.4-0.6-1.4-1.4v-0.5c0-0.8,0.6-1.4,1.4-1.4h11.9c0.8,0,1.4,0.6,1.4,1.4v0.5
				C86.7,214.7,86.1,215.4,85.3,215.4z"/>
			<path class="st3" d="M94.3,217.9c-1.8-0.1-3.8-0.1-5.5-0.1c0,0.1,0,0.2,0,0.3c0,1.5,1.2,2.7,2.7,2.7c1.5,0,2.7-1.2,2.7-2.7
				C94.3,218,94.3,217.9,94.3,217.9z"/>
			<circle class="st3" cx="87.9" cy="221.4" r="1"/>
			<circle class="st3" cx="90.8" cy="223" r="1.4"/>
		</g>
	</g>
	<path class="st4" d="M9.7,152.7c0-37,25.8-28.8,57.6-28.8s57.6-8.1,57.6,28.8s-25.8,48.4-57.6,48.4S9.7,189.7,9.7,152.7z"/>
	<g>
		<g>
			<circle class="st3" cx="73.7" cy="152.1" r="2.8"/>
			<g>
				<circle class="st4" cx="75.1" cy="150.9" r="0.5"/>
				<circle class="st4" cx="72.4" cy="153.3" r="0.5"/>
			</g>
		</g>
		<g>
			<circle class="st3" cx="73.7" cy="165.3" r="2.8"/>
			<g>
				<circle class="st4" cx="75.1" cy="164.1" r="0.5"/>
				<circle class="st4" cx="72.4" cy="166.5" r="0.5"/>
			</g>
		</g>
		<g>
			<circle class="st3" cx="73.7" cy="178.5" r="2.8"/>
			<g>
				<circle class="st4" cx="75.1" cy="177.4" r="0.5"/>
				<circle class="st4" cx="72.4" cy="179.7" r="0.5"/>
			</g>
		</g>
		<g>
			<circle class="st3" cx="73.7" cy="191.7" r="2.8"/>
			<g>
				<circle class="st4" cx="75.1" cy="190.6" r="0.5"/>
				<circle class="st4" cx="72.4" cy="192.9" r="0.5"/>
			</g>
		</g>
	</g>
	<line class="st5" x1="67.3" y1="135.1" x2="67.3" y2="197.2"/>
	<g>
		<path class="st1" d="M16.2,121.8c0,0-37.9,47.9,24.2,63.6l1.8-14.4c0,0-36.8-9.7-20.3-43.8C21.9,127.2,23.5,116.3,16.2,121.8z"/>
		<path class="st2" d="M47.1,174.1c0,0,9.8-3.4,11.2-1c1.7,2.8-1.4,4.6-3.2,4.3c0,0,6.7-0.7,6.9,2.5c0.2,3.3-4.1,3.7-7.9,2.4
			c0,0,6,1.1,5.2,3.6c-0.8,2.6-8.8,2.6-16.6-2.6C35,178,47.1,174.1,47.1,174.1z"/>
		<path class="st3" d="M45.2,187.4l-4.7-0.9c-1.6-0.3-2.6-1.8-2.3-3.4l2.3-11.8c0.3-1.6,1.8-2.6,3.4-2.3l4.7,0.9
			c1.6,0.3,2.6,1.8,2.3,3.4l-2.3,11.8C48.3,186.7,46.8,187.7,45.2,187.4z"/>
	</g>
	<path class="st1" d="M123,126.6c9.4,32.6,43.3,22.7,43.3,22.7l7.3,12.1c-57,25.8-62.3-31.8-62.3-31.8c1.3-4.7,4.4-6.1,7-6.3
		C120.4,123.1,122.4,124.5,123,126.6z"/>
	<path class="st2" d="M174.1,158.3c9.1-0.7,15.2-5.6,14.3-8.1c-0.9-2.4-2.7-2.1-2.7-2.1c3.7-1.3,3.2-1.7,1.1-4.1
		c-2.1-2.3-6.8,2.3-6.8,2.3c1.6-0.9,2.8-4.1-0.2-5.3c-2.5-1-8,7.6-8,7.6S165,159.1,174.1,158.3z"/>
	<path class="st2" d="M180.3,146.1c0,0-10.5,16.6-9.4,5.6c1.1-10.9,12.5-14.1,12.5-14.1C191.9,140.7,180.3,146.1,180.3,146.1z"/>
	<path class="st3" d="M179.8,156.2l-5.4-10.4c-0.7-1.4-2.4-1.9-3.8-1.2l-4.1,2.1c-1.4,0.7-1.9,2.4-1.2,3.8l5.4,10.4
		c0.7,1.4,2.4,1.9,3.8,1.2l4.1-2.1C179.9,159.3,180.5,157.6,179.8,156.2z"/>
	<g>
		<g>
			<path class="st3" d="M44.3,63.1c-5.4,5-15.9,2.4-23.4-5.8s-12.3-24.8-7-29.8s18.9,3.6,26.5,11.7C47.9,47.5,49.7,58.1,44.3,63.1z"
				/>
			<path class="st4" d="M18.8,28.4c0,0,12.1,2.7,21.5,15.7L38,46C38,46,34.1,37.8,18.8,28.4z"/>
		</g>
		<g>
			<path class="st3" d="M90.2,63.1c5.4,5,15.9,2.4,23.4-5.8s12.3-24.8,7-29.8c-5.4-5-18.9,3.6-26.5,11.7
				C86.6,47.5,84.9,58.1,90.2,63.1z"/>
			<path class="st4" d="M115.7,28.4c0,0-12.1,2.7-21.5,15.7l2.3,1.8C96.6,46,100.5,37.8,115.7,28.4z"/>
		</g>
	</g>
	<path class="st2" d="M123.4,90.7c0,31-25.1,46-56.1,46s-56.1-15-56.1-46s25.1-64.7,56.1-64.7S123.4,59.8,123.4,90.7z"/>
	<circle class="st3" cx="67.4" cy="72.5" r="26.5"/>
	<path class="st3" d="M107.1,79.7c0,9,7.1,16.4,16,17c0.2-1.9,0.3-3.9,0.3-6c0-9-2.1-18.2-5.9-26.7
		C111.4,66.6,107.1,72.6,107.1,79.7z"/>
	<path class="st3" d="M11.3,94.2c5.6-1.1,9.9-6,9.9-12c0-4.8-2.8-9-6.9-11c-2,6.4-3.1,13-3.1,19.4C11.2,91.9,11.2,93.1,11.3,94.2z"
		/>
	<circle class="st3" cx="23.8" cy="94" r="3.1"/>
	<circle class="st3" cx="101.3" cy="88.1" r="2.5"/>
	<path class="st6" d="M25.2,64.8c0,0,2.9-8.3,10.9-14.1"/>
	<line class="st6" x1="39.7" y1="47.8" x2="40" y2="47.5"/>
	<g>
		<g>
			<circle class="st4" cx="89.4" cy="101.4" r="1"/>
			<circle class="st4" cx="87.4" cy="103.7" r="1"/>
			<circle class="st4" cx="87.4" cy="103.7" r="1"/>
			<circle class="st4" cx="91.4" cy="104.7" r="1"/>
			<circle class="st4" cx="88.2" cy="107" r="1"/>
			<circle class="st4" cx="93.2" cy="101.9" r="1"/>
			<circle class="st4" cx="92.2" cy="108.4" r="1"/>
			<circle class="st4" cx="95.2" cy="105.2" r="1"/>
		</g>
		<g>
			<circle class="st4" cx="45.4" cy="100.7" r="1"/>
			<circle class="st4" cx="47.4" cy="102.9" r="1"/>
			<circle class="st4" cx="47.4" cy="102.9" r="1"/>
			<circle class="st4" cx="43.4" cy="103.9" r="1"/>
			<circle class="st4" cx="46.6" cy="106.3" r="1"/>
			<circle class="st4" cx="41.6" cy="101.1" r="1"/>
			<circle class="st4" cx="42.6" cy="107.7" r="1"/>
			<circle class="st4" cx="39.6" cy="104.5" r="1"/>
		</g>
	</g>
	<g>
		<g>
			<path class="st3" d="M92,40.4c-0.5,0.8-2.8,1-4.5,0.1c-1.7-1-2.2-2.8-1.7-3.6c0.5-0.8,2.2-0.7,4,0.3C91.5,38.1,92.5,39.6,92,40.4
				z"/>
			<path class="st4" d="M90.8,8.3c-0.6,0.9-0.4,2.1,0.5,2.8l9.7,6.9L96,24.9l-5.7-4.1c-0.9-0.6-2.1-0.4-2.8,0.5
				c-0.6,0.9-0.4,2.1,0.5,2.8l5.7,4.1l-6.1,8.5c-0.6,0.9-0.4,2.1,0.5,2.8c0.9,0.6,2.1,0.4,2.8-0.5l14.5-20.4
				c0.6-0.9,0.4-2.1-0.5-2.8l-11.3-8C92.7,7.2,91.5,7.4,90.8,8.3z"/>
		</g>
		<g>
			<path class="st3" d="M42.6,40.4c0.5,0.8,2.8,1,4.5,0.1c1.7-1,2.2-2.8,1.7-3.6s-2.2-0.7-4,0.3C43.1,38.1,42.1,39.6,42.6,40.4z"/>
			<path class="st4" d="M43.7,8.3c0.6,0.9,0.4,2.1-0.5,2.8l-9.7,6.9l4.9,6.9l5.7-4.1c0.9-0.6,2.1-0.4,2.8,0.5
				c0.6,0.9,0.4,2.1-0.5,2.8l-5.7,4.1l6.1,8.5c0.6,0.9,0.4,2.1-0.5,2.8c-0.9,0.6-2.1,0.4-2.8-0.5L29.2,18.6
				c-0.6-0.9-0.4-2.1,0.5-2.8l11.3-8C41.9,7.2,43.1,7.4,43.7,8.3z"/>
		</g>
	</g>
	<g>
		<path class="st1" d="M80.2,107.5c0,7.1-5.8,12.9-12.9,12.9c-7.2,0-12.9-5.8-12.9-12.9"/>
	</g>
	<path class="st3" d="M74.5,118.3c-1.6-1.4-4.2-2.6-7.2-2.6c-3,0-5.6,1.2-7.2,2.6c2.1,1.4,4.5,2.2,7.2,2.2
		C70,120.5,72.4,119.7,74.5,118.3z"/>
	<g>
		<path class="st7" d="M75.4,107.5v4.4c0,0.6-0.5,1.2-1.2,1.2h-2.8c-0.6,0-1.2-0.5-1.2-1.2v-4.4"/>
	</g>
	<circle class="st7" cx="67.3" cy="71.9" r="19.9"/>
	<g>
		<circle class="st2" cx="67.3" cy="71.9" r="10.6"/>
		<circle class="st1" cx="67.3" cy="71.9" r="7.9"/>
	</g>
	<circle class="st7" cx="59.4" cy="64.2" r="5.5"/>
	<circle class="st3" cx="106.8" cy="95.3" r="3.6"/>
	<path class="st3" d="M73.9,35.5c4.1,0,7.6-2.8,8.6-6.7C77.7,27,72.6,26,67.3,26c-0.7,0-1.4,0-2.1,0.1c0,0.2,0,0.4,0,0.5
		C65.1,31.5,69.1,35.5,73.9,35.5z"/>
	<circle class="st3" cx="61.4" cy="34.6" r="2.9"/>
	<circle class="st3" cx="68.1" cy="37.7" r="1.7"/>
	<circle class="st8" cx="67.4" cy="72.5" r="26.5"/>
	<g class="st9">
		<path class="st10" d="M48.9,91.4c-10.5-10.2-10.6-27-0.4-37.5s27-10.6,37.5-0.4"/>
	</g>
	<circle class="st11" cx="67.4" cy="72.5" r="26.5"/>
	<path class="st12" d="M58,136.2c3,0.3,6.1,0.5,9.3,0.5c31,0,56.1-15,56.1-46c0-7.4-1.4-14.9-4-22.1
		C118.3,87.8,109.8,126.8,58,136.2z"/>
	<path class="st3" d="M67.3,144.9c0,0,49.6-0.4,49.6-29.2v-1.1c0,0-7.6,15.5-49.8,15.5c-42.2,0-49.6-15.5-49.6-15.5v1.1
		C17.6,144.5,67.2,144.9,67.3,144.9"/>
	<g>
		<g>
			<path class="st13" d="M109.9,148.9c-7.4-3-14.8,3-22.2,0c0-0.8,0-1.7,0-2.4c7.4,3,14.8-3,22.2,0
				C109.9,147.2,109.9,148.1,109.9,148.9z"/>
			<path class="st14" d="M109.9,151.3c-7.4-3-14.8,3-22.2,0c0-0.8,0-1.7,0-2.4c7.4,3,14.8-3,22.2,0
				C109.9,149.7,109.9,150.5,109.9,151.3z"/>
			<path class="st15" d="M109.9,153.7c-7.4-3-14.8,3-22.2,0c0-0.8,0-1.7,0-2.4c7.4,3,14.8-3,22.2,0
				C109.9,152.1,109.9,153,109.9,153.7z"/>
			<path class="st16" d="M109.9,156.2c-7.4-3-14.8,3-22.2,0c0-0.8,0-1.7,0-2.4c7.4,3,14.8-3,22.2,0
				C109.9,154.6,109.9,155.4,109.9,156.2z"/>
			<path class="st17" d="M109.9,158.6c-7.4-3-14.8,3-22.2,0c0-0.8,0-1.7,0-2.4c7.4,3,14.8-3,22.2,0
				C109.9,157,109.9,157.8,109.9,158.6z"/>
			<path class="st18" d="M109.9,161c-7.4-3-14.8,3-22.2,0c0-0.8,0-1.7,0-2.4c7.4,3,14.8-3,22.2,0C109.9,159.5,109.9,160.2,109.9,161
				z"/>
		</g>
	</g>
</g>
<g id="Background">
</g>
<g id="Fog">
</g>
<g id="Sky">
	<g id="Layer_12">
	</g>
</g>
<g id="Mountains">
</g>
<g id="Trees">
</g>
<g id="Floor">
</g>
<g id="Dekoration">
</g>
<g id="Mask">
</g>
<g id="Lines">
</g>
<g id="Text" class="st19">
</g>
<g id="Fog_Overlay">
</g>
<ellipse class="st0" cx="193.7" cy="228.8" rx="48.1" ry="9.2"/>
<g>
	<path class="st20" d="M179.1,222.2c0,0-8.9,1.9-11.8,5.1c-0.4,0.4-0.1,1,0.5,1.2c1.8,0.3,4.9-0.5,6.6-1.8c0,0-2.9,1.6-4,3.8
		c-0.3,0.6,0.1,1.8,2.3,1.1c2.8-0.8,8.7-2.1,11.7-3.9c0,0,2.3,0.8,4.6,1.8c1.1,0.4,1.6,0,1.5-0.5c-0.4-1.3-1.5-3.3-4.4-4.6v-6.1
		h-7.2L179.1,222.2z"/>
	<path class="st21" d="M179.4,219.7h6.5c1,0,1.8-0.8,1.8-1.8v-59.4c0-1-0.8-1.8-1.8-1.8h-6.5c-1,0-1.8,0.8-1.8,1.8V218
		C177.6,219,178.4,219.7,179.4,219.7z"/>
	<path class="st22" d="M187.1,220.5H178c-0.8,0-1.4-0.6-1.4-1.4v-0.9c0-0.8,0.6-1.4,1.4-1.4h9.1c0.8,0,1.4,0.6,1.4,1.4v0.9
		C188.5,219.9,187.9,220.5,187.1,220.5z"/>
</g>
<g>
	<path class="st20" d="M206.9,222.2c0,0,8.9,1.9,11.8,5.1c0.4,0.4,0.1,1-0.5,1.2c-1.8,0.3-4.9-0.5-6.6-1.8c0,0,2.9,1.6,4,3.8
		c0.3,0.6-0.1,1.8-2.3,1.1c-2.8-0.8-8.7-2.1-11.7-3.9c0,0-2.3,0.8-4.6,1.8c-1.1,0.4-1.6,0-1.5-0.5c0.4-1.3,1.5-3.3,4.4-4.6v-6.1h7.2
		L206.9,222.2z"/>
	<path class="st21" d="M206.7,219.7h-6.5c-1,0-1.8-0.8-1.8-1.8v-59.4c0-1,0.8-1.8,1.8-1.8h6.5c1,0,1.8,0.8,1.8,1.8V218
		C208.4,219,207.6,219.7,206.7,219.7z"/>
	<path class="st22" d="M208,220.5h-9.1c-0.8,0-1.4-0.6-1.4-1.4v-0.9c0-0.8,0.6-1.4,1.4-1.4h9.1c0.8,0,1.4,0.6,1.4,1.4v0.9
		C209.4,219.9,208.8,220.5,208,220.5z"/>
</g>
<g>
	<path class="st23" d="M186.2,76.5c0,0-5.3,7.9,3.2,15.7"/>
	<circle class="st20" cx="185.7" cy="76.1" r="4.2"/>
</g>
<g>
	<path class="st23" d="M201.7,78.8c0,0,5.3,7.9-3.2,15.7"/>
	<circle class="st20" cx="202.1" cy="78" r="3.7"/>
</g>
<g>
	<path class="st22" d="M249.3,84.6c0,0-19-5.6-34.3,9.8l12.3,12.3l12.3,12.3C254.9,103.5,249.3,84.6,249.3,84.6z"/>
	<path class="st21" d="M220.8,108.4l-2.1-10.3c0,0,11.3-10.9,23.9-8.9C242.6,89.2,216.1,98.9,220.8,108.4z"/>
</g>
<g>
	<path class="st22" d="M138.1,84.6c0,0,19-5.6,34.3,9.8l-12.3,12.3l-12.3,12.3C132.5,103.5,138.1,84.6,138.1,84.6z"/>
	<path class="st21" d="M166.6,108.4l2.1-10.3c0,0-11.3-10.9-23.9-8.9C144.8,89.2,171.3,98.9,166.6,108.4z"/>
</g>
<g>
	<circle class="st20" cx="193.7" cy="149.8" r="59.8"/>
	<path class="st24" d="M158.4,112.9c3.1-4.4,10.6-14,25.2-15.2"/>
	<line class="st24" x1="189.7" y1="97.7" x2="189.6" y2="97.7"/>
</g>
<path class="st22" d="M193.7,193.2c-25.2,0-43.1-8.2-52.1-14.1c10.3,18.2,29.8,30.5,52.1,30.5s41.9-12.3,52.1-30.5
	C236.9,185.1,218.9,193.2,193.7,193.2z"/>
<path class="st25" d="M253.5,149.8c0-0.5,0-1.1,0-1.6c-5.6,16.4-26.9,61.1-91.1,52.6c9.1,5.6,19.8,8.8,31.3,8.8
	C226.8,209.6,253.5,182.8,253.5,149.8z"/>
<g>
	<circle class="st22" cx="238.8" cy="123.1" r="3.3"/>
	<circle class="st22" cx="232.8" cy="128.3" r="1.4"/>
</g>
<circle class="st22" cx="238.7" cy="131.2" r="2.5"/>
<g>
	<circle class="st22" cx="148.8" cy="133.2" r="3.3"/>
	<circle class="st22" cx="154" cy="127.3" r="1.4"/>
</g>
<circle class="st22" cx="147.9" cy="125.1" r="2.5"/>
<g>
	<circle class="st22" cx="218.6" cy="154.5" r="1.1"/>
	<circle class="st22" cx="221.3" cy="152.2" r="1.1"/>
	<circle class="st22" cx="222.4" cy="156" r="1.1"/>
	<circle class="st22" cx="219.2" cy="158.3" r="1.1"/>
	<circle class="st22" cx="222.9" cy="160" r="1.1"/>
	<circle class="st22" cx="225.2" cy="153.4" r="1.1"/>
	<circle class="st22" cx="226.2" cy="157.2" r="1.1"/>
	<circle class="st22" cx="215.6" cy="157.5" r="1.1"/>
	<circle class="st22" cx="217.8" cy="161.6" r="1.1"/>
</g>
<g>
	<circle class="st22" cx="168.8" cy="154.5" r="1.1"/>
	<circle class="st22" cx="166.1" cy="152.2" r="1.1"/>
	<circle class="st22" cx="165" cy="156" r="1.1"/>
	<circle class="st22" cx="168.2" cy="158.3" r="1.1"/>
	<circle class="st22" cx="164.5" cy="160" r="1.1"/>
	<circle class="st22" cx="162.3" cy="153.4" r="1.1"/>
	<circle class="st22" cx="161.2" cy="157.2" r="1.1"/>
	<circle class="st22" cx="171.8" cy="157.5" r="1.1"/>
	<circle class="st22" cx="169.7" cy="161.6" r="1.1"/>
</g>
<path class="st21" d="M193.7,165.3L193.7,165.3c12.1,0,21.9-2.7,21.9,3.5l0,0c0,6.2-9.8,11.1-21.9,11.1l0,0
	c-12.1,0-21.9-5-21.9-11.1l0,0C171.8,162.7,181.6,165.3,193.7,165.3z"/>
<path class="st7" d="M178.9,164.8c0,0.1,0,0.2,0,0.3c0,2.1,1.2,3.7,2.7,3.7s2.7-1.7,2.7-3.7c0,0,0-0.1,0-0.1
	C182.2,164.8,180.5,164.8,178.9,164.8z"/>
<path class="st7" d="M203.2,165c0,0,0,0.1,0,0.1c0,2.1,1.2,3.7,2.7,3.7s2.7-1.7,2.7-3.7c0-0.1,0-0.2,0-0.3
	C207,164.8,205.2,164.8,203.2,165z"/>
<path class="st7" d="M196.4,165.6c0-0.1,0-0.2,0-0.3c-0.9,0-1.8,0-2.6,0l0,0c-0.9,0-1.8,0-2.6,0c0,0.1,0,0.2,0,0.3
	c0,2.1,1.2,3.7,2.7,3.7C195.2,169.3,196.4,167.7,196.4,165.6z"/>
<path class="st26" d="M193.3,175.8c-3.7,0-6.8,0.4-7.6,3.4c2.5,0.5,5.1,0.8,8,0.8l0,0c2.5,0,4.9-0.2,7.2-0.6
	C200.2,176.2,197.1,175.8,193.3,175.8z"/>
<ellipse class="st21" cx="193.7" cy="132.3" rx="30.6" ry="22.2"/>
<ellipse class="st27" cx="193.7" cy="132.3" rx="30.6" ry="22.2"/>
<ellipse class="st28" cx="193.7" cy="132.3" rx="30.6" ry="22.2"/>
<circle class="st7" cx="194.5" cy="132.3" r="18.4"/>
<g>
	<circle class="st22" cx="194.5" cy="132.3" r="9.8"/>
	<circle class="st21" cx="194.5" cy="132.3" r="7.3"/>
</g>
<circle class="st7" cx="189.2" cy="126.2" r="3.8"/>
<g>
	<path class="st20" d="M138.6,171.7c0,0-12.1,21.4,5,45.5c0,0-2.6,7.7,2.4,9.2c0,0,2.6,0.3,0.9-3.1c0,0,1.8,1.9,2.7,1.8
		c0,0,2.3-0.4,1-3.5c0,0,2.2,3.3,3.2,1.1c0.3-0.9,0.3-6.8-5-7.6c0,0-13.1-15.2-8.4-35.9C140.4,179.1,144.5,168.5,138.6,171.7z"/>
	<path class="st21" d="M142.4,181c0,0,4.8-11.1-0.5-12.4c-5.4-1.3-8.2,10.4-8.2,10.4L142.4,181z"/>
</g>
<g>
	<g>
		<path class="st29" d="M156.3,152.1c0,0-20.2-12.2-42.5-2.8"/>
	</g>
	<path class="st29" d="M116.4,159.8c0,0,12.2-9.4,39.4-3.7"/>
	<path class="st29" d="M123.5,166.1c0,0,17.3-7.8,32.7-6.2"/>
</g>
<g>
	<g>
		<path class="st29" d="M231.2,152.1c0,0,20.2-12.2,42.5-2.8"/>
	</g>
	<path class="st29" d="M271,159.8c0,0-12.2-9.4-39.4-3.7"/>
	<path class="st29" d="M263.9,166.1c0,0-17.3-7.8-32.7-6.2"/>
</g>
<path class="st22" d="M211.9,101.8L211.9,101.8C211.9,101.8,211.9,101.8,211.9,101.8c0,0.4,0.2,0.7,0.5,0.7l8.5,0
	c0.3,0,0.5-0.3,0.5-0.7v0l0,0c0,0,0,0,0,0c0-0.4-0.2-0.7-0.5-0.7l-8.5,0C212.2,101.1,211.9,101.4,211.9,101.8
	C211.9,101.8,211.9,101.8,211.9,101.8z"/>
<path class="st22" d="M210.2,104.6L210.2,104.6C210.2,104.6,210.2,104.6,210.2,104.6c0,0.4,0.2,0.7,0.5,0.7l8.5,0
	c0.3,0,0.5-0.3,0.5-0.7v0l0,0c0,0,0,0,0,0c0-0.4-0.2-0.7-0.5-0.7l-8.5,0C210.4,103.9,210.2,104.2,210.2,104.6
	C210.2,104.6,210.2,104.6,210.2,104.6z"/>
<path class="st22" d="M212.6,107.6L212.6,107.6C212.6,107.6,212.6,107.6,212.6,107.6c0,0.4,0.2,0.7,0.5,0.7l8.5,0
	c0.3,0,0.5-0.3,0.5-0.7v0l0,0c0,0,0,0,0,0c0-0.4-0.2-0.7-0.5-0.7l-8.5,0C212.8,106.9,212.6,107.2,212.6,107.6
	C212.6,107.6,212.6,107.6,212.6,107.6z"/>
<path class="st22" d="M156,173.8L156,173.8C156,173.8,156,173.8,156,173.8c0,0.4,0.2,0.7,0.5,0.7l8.5,0c0.3,0,0.5-0.3,0.5-0.7v0l0,0
	c0,0,0,0,0,0c0-0.4-0.2-0.7-0.5-0.7l-8.5,0C156.2,173.1,156,173.4,156,173.8C156,173.8,156,173.8,156,173.8z"/>
<path class="st22" d="M154.3,176.6L154.3,176.6C154.3,176.6,154.3,176.6,154.3,176.6c0,0.4,0.2,0.7,0.5,0.7l8.5,0
	c0.3,0,0.5-0.3,0.5-0.7v0l0,0c0,0,0,0,0,0c0-0.4-0.2-0.7-0.5-0.7l-8.5,0C154.5,175.9,154.3,176.2,154.3,176.6
	C154.3,176.6,154.3,176.6,154.3,176.6z"/>
<path class="st22" d="M156.6,179.6L156.6,179.6C156.6,179.6,156.6,179.6,156.6,179.6c0,0.4,0.2,0.7,0.5,0.7l8.5,0
	c0.3,0,0.5-0.3,0.5-0.7v0l0,0c0,0,0,0,0,0c0-0.4-0.2-0.7-0.5-0.7l-8.5,0C156.8,178.9,156.6,179.2,156.6,179.6
	C156.6,179.6,156.6,179.6,156.6,179.6z"/>
<path class="st30" d="M193.7,110.1c-16.9,0-30.6,9.9-30.6,22.2c0,7.5,5.2,14.2,13.1,18.2l35.9-35.9
	C207,111.7,200.6,110.1,193.7,110.1z"/>
<g>
	<path class="st20" d="M280,204.5c3.5,1.5,2.7,1.3,2.7,1.3c-4.7,2.3-7.4,0.7-7.4,0.7c-28.7-6.8-33.9-30.8-33.9-30.8
		c2.3-6.3,6.3,4.3,6.3,4.3c10.2,18.6,30.1,21.3,30.1,21.3"/>
	<path class="st20" d="M283.5,205.1"/>
	<path class="st21" d="M242.6,184.4c0,0-5.6-10.6-0.7-13.2c4.9-2.6,8.6,8.9,8.6,8.9L242.6,184.4z"/>
</g>
<ellipse class="st0" cx="339.1" cy="228.8" rx="48.6" ry="8.2"/>
<g>
	<g>
		<path class="st31" d="M330.2,189.6c0,0,5.1,5.2-2.3,20.5c-0.3,0.7-0.7,1.4-1.2,2c-1.2,1.6-4.5,2.9-4.6-2.8c0,0-0.8,4.8-3.7,2.9
			c-2.2-1.5-4.1-13.6,5.4-22.8"/>
		<path class="st32" d="M318,130.4c-6.8,37.5,5.1,58.8,5.1,58.8l7.8,0.4c-6.4-11-1.5-47.6-0.2-55.9c0.2-1.1,0.2-1.7,0.2-1.7"/>
		<g>
			<path class="st33" d="M320.9,211.2c-0.6,1.6-2.4,3.4-1.4,5.7c0,0-2.5-1.3-1.7-6.1c0.1-0.6,0.3-1.1,0.8-1.4c0.6-0.4,1.4-0.7,2.1,0
				C321,209.9,321.1,210.6,320.9,211.2z"/>
		</g>
		<g>
			<path class="st33" d="M326,212.1c-0.4,1.7-1.9,3.7-0.7,5.8c0,0-2.7-1-2.5-5.8c0-0.6,0.1-1.2,0.6-1.5c0.5-0.4,1.3-0.8,2.1-0.2
				C326,210.8,326.2,211.4,326,212.1z"/>
		</g>
	</g>
	<path class="st33" d="M330.3,190.5h-7.7c-0.9,0-1.6-0.7-1.6-1.6v-0.1c0-0.9,0.7-1.6,1.6-1.6h7.7c0.9,0,1.6,0.7,1.6,1.6v0.1
		C331.9,189.8,331.2,190.5,330.3,190.5z"/>
</g>
<path class="st31" d="M346.3,189.6c0,0-5.1,5.2,2.3,20.5c0.3,0.7,0.7,1.4,1.2,2c1.2,1.6,4.5,2.9,4.6-2.8c0,0,0.8,4.8,3.7,2.9
	c2.2-1.5,4.1-13.6-5.4-22.8"/>
<path class="st32" d="M358.5,130.4c6.8,37.5-5.1,58.8-5.1,58.8l-7.8,0.4c6.4-11,1.5-47.6,0.2-55.9c-0.2-1.1-0.2-1.7-0.2-1.7"/>
<g>
	<path class="st33" d="M355.6,211.2c0.6,1.6,2.4,3.4,1.4,5.7c0,0,2.5-1.3,1.7-6.1c-0.1-0.6-0.3-1.1-0.8-1.4c-0.6-0.4-1.4-0.7-2.1,0
		C355.5,209.9,355.4,210.6,355.6,211.2z"/>
</g>
<g>
	<path class="st33" d="M350.5,212.1c0.4,1.7,1.9,3.7,0.7,5.8c0,0,2.7-1,2.5-5.8c0-0.6-0.1-1.2-0.6-1.5c-0.5-0.4-1.3-0.8-2.1-0.2
		C350.5,210.8,350.3,211.4,350.5,212.1z"/>
</g>
<path class="st33" d="M346.2,190.5h7.7c0.9,0,1.6-0.7,1.6-1.6v-0.1c0-0.9-0.7-1.6-1.6-1.6h-7.7c-0.9,0-1.6,0.7-1.6,1.6v0.1
	C344.6,189.8,345.3,190.5,346.2,190.5z"/>
<path class="st33" d="M333.3,39.4c0,0,4.1-12.6-5.3-20.1c0,0,6.3,0.6,9.4,7.5c0,0-2.4-7.7,2.4-15.6c0,0-1,9.5,2.2,15.3
	c0,0,1.2-7.5,6-8.9c0,0-2.5,5.8-2,12c0.5,6.2,2.4,10.5,2.4,10.5L333.3,39.4z"/>
<g>
	<g>
		<g>
			<path class="st33" d="M290,37.9c0.3-26.7,21.4,16.2,48.1,16.5c26.7,0.3,48.7-42.1,48.4-15.5s-22,41.1-48.7,40.8
				C311.2,79.4,289.7,64.6,290,37.9z"/>
			<path class="st34" d="M386.5,38.9c0.1-5.9-1-8.4-2.9-8.8c0,0-0.3,23.3-15.9,33.1l1.9,8C379.8,64.4,386.4,53.5,386.5,38.9z"/>
			<path class="st34" d="M290,37.9c0.1-5.9,1.2-8.4,3.1-8.7c0,0-0.1,23.3,15.2,33.4l-2,7.9C296.1,63.5,289.8,52.5,290,37.9z"/>
		</g>
	</g>
</g>
<path class="st31" d="M393.2,120.4c0,35.3-24.6,51.1-54.9,51.1s-54.9-15.8-54.9-51.1s24.6-85,54.9-85
	C368.6,35.3,393.2,85,393.2,120.4z"/>
<path class="st33" d="M392.1,132.7c-12.3,6.8-30.7,14.6-53.8,14.6c-23.1,0-41.5-7.9-53.8-14.6c5.1,26.7,27.3,38.8,53.8,38.8
	C364.8,171.5,386.9,159.4,392.1,132.7z"/>
<path class="st32" d="M390.3,107.2c0.6,0,1.3-0.1,1.9-0.2c-1-6.8-2.8-13.8-5.1-20.7c-4.3,1.4-7.5,5.4-7.5,10.2
	C379.5,102.4,384.3,107.2,390.3,107.2z"/>
<circle class="st32" cx="296" cy="107.9" r="3.1"/>
<circle class="st32" cx="305.4" cy="100.8" r="5"/>
<circle class="st32" cx="373.7" cy="98.6" r="4.1"/>
<circle class="st32" cx="374.8" cy="89" r="2.1"/>
<path class="st32" d="M363.2,55.7h-4.3c-0.6,0-1.2-0.5-1.2-1.2l0,0c0-0.6,0.5-1.2,1.2-1.2h4.3c0.6,0,1.2,0.5,1.2,1.2l0,0
	C364.4,55.2,363.8,55.7,363.2,55.7z"/>
<path class="st32" d="M366.2,59.1h-4.3c-0.6,0-1.2-0.5-1.2-1.2l0,0c0-0.6,0.5-1.2,1.2-1.2h4.3c0.6,0,1.2,0.5,1.2,1.2l0,0
	C367.4,58.6,366.9,59.1,366.2,59.1z"/>
<path class="st32" d="M361.9,62.2h-4.3c-0.6,0-1.2-0.5-1.2-1.2l0,0c0-0.6,0.5-1.2,1.2-1.2h4.3c0.6,0,1.2,0.5,1.2,1.2l0,0
	C363,61.7,362.5,62.2,361.9,62.2z"/>
<path class="st32" d="M299.1,130.4h4.3c0.6,0,1.2,0.5,1.2,1.2l0,0c0,0.6-0.5,1.2-1.2,1.2h-4.3c-0.6,0-1.2-0.5-1.2-1.2l0,0
	C297.9,130.9,298.5,130.4,299.1,130.4z"/>
<path class="st32" d="M296.1,127h4.3c0.6,0,1.2,0.5,1.2,1.2l0,0c0,0.6-0.5,1.2-1.2,1.2h-4.3c-0.6,0-1.2-0.5-1.2-1.2l0,0
	C294.9,127.5,295.4,127,296.1,127z"/>
<path class="st32" d="M300.5,123.9h4.3c0.6,0,1.2,0.5,1.2,1.2l0,0c0,0.6-0.5,1.2-1.2,1.2h-4.3c-0.6,0-1.2-0.5-1.2-1.2l0,0
	C299.3,124.4,299.8,123.9,300.5,123.9z"/>
<path class="st35" d="M313.6,56.3c0,0,7.9-10.3,17.6-11.1"/>
<line class="st35" x1="335.2" y1="45" x2="336" y2="45"/>
<path class="st36" d="M391.9,105.8c-13.8,29.7-38,49.8-71.9,63.6c5.7,1.4,11.8,2.1,18.2,2.1c30.3,0,54.9-15.8,54.9-51.1
	C393.2,115.7,392.8,110.8,391.9,105.8z"/>
<path class="st32" d="M338.6,79c-3.3,7.8-5.7,16.1-7.2,24.1c0.3,0,0.6,0,0.9,0c7.1,0,12.9-5.8,12.9-12.9
	C345.2,85.4,342.5,81.2,338.6,79z"/>
<g>
	<circle class="st33" cx="360.9" cy="110.7" r="1.2"/>
	<circle class="st33" cx="358.4" cy="113.3" r="1.2"/>
	<circle class="st33" cx="359.8" cy="117.1" r="1.2"/>
	<circle class="st33" cx="362.2" cy="114.1" r="1.2"/>
	<circle class="st33" cx="365" cy="110.7" r="1.2"/>
	<circle class="st33" cx="363.9" cy="118.1" r="1.2"/>
	<circle class="st33" cx="366" cy="114.4" r="1.2"/>
</g>
<g>
	<circle class="st33" cx="313" cy="110.7" r="1.2"/>
	<circle class="st33" cx="310.5" cy="113.3" r="1.2"/>
	<circle class="st33" cx="312" cy="117.1" r="1.2"/>
	<circle class="st33" cx="314.3" cy="114.1" r="1.2"/>
	<circle class="st33" cx="317.2" cy="110.7" r="1.2"/>
	<circle class="st33" cx="316" cy="118.1" r="1.2"/>
	<circle class="st33" cx="318.2" cy="114.4" r="1.2"/>
</g>
<g>
	<path class="st32" d="M350.2,120.8c0,6.6-5.3,11.9-11.9,11.9c-6.6,0-11.9-5.3-11.9-11.9"/>
</g>
<path class="st33" d="M344.9,130.7c-1.4-1.3-3.9-2.4-6.6-2.4c-2.8,0-5.2,1.1-6.6,2.4c1.9,1.3,4.2,2,6.7,2
	C340.7,132.7,343,132,344.9,130.7z"/>
<g>
	<path class="st7" d="M343.6,120.8v4.3c0,0.6-0.5,1-1,1h-2.5c-0.6,0-1-0.5-1-1v-4.3"/>
</g>
<g>
	<path class="st7" d="M337.8,120.8v4.3c0,0.6-0.5,1-1,1h-2.5c-0.6,0-1-0.5-1-1v-4.3"/>
</g>
<g>
	<g>
		<circle class="st33" cx="338.3" cy="87.7" r="24"/>
	</g>
	<g>
		<circle class="st7" cx="338.3" cy="87.7" r="16.6"/>
		<g>
			<circle class="st37" cx="338.3" cy="87.7" r="8.8"/>
			<circle class="st32" cx="338.3" cy="87.7" r="6.6"/>
		</g>
	</g>
	<g>
		<circle class="st7" cx="331.7" cy="81.3" r="4.6"/>
	</g>
	<g class="st38">
		<circle class="st7" cx="338.3" cy="87.7" r="24"/>
	</g>
	<g>
		<circle class="st39" cx="338.3" cy="87.7" r="24"/>
	</g>
</g>
<g>
	<path class="st32" d="M314.2,150.3h-12c-0.4,0-0.7-0.3-0.7-0.7l0,0c0-0.4,0.3-0.7,0.7-0.7h12c0.4,0,0.7,0.3,0.7,0.7l0,0
		C314.9,150,314.6,150.3,314.2,150.3z"/>
	<path class="st32" d="M314.2,152.8h-12c-0.4,0-0.7-0.3-0.7-0.7l0,0c0-0.4,0.3-0.7,0.7-0.7h12c0.4,0,0.7,0.3,0.7,0.7l0,0
		C314.9,152.5,314.6,152.8,314.2,152.8z"/>
	<path class="st32" d="M314.2,155.3h-12c-0.4,0-0.7-0.3-0.7-0.7l0,0c0-0.4,0.3-0.7,0.7-0.7h12c0.4,0,0.7,0.3,0.7,0.7l0,0
		C314.9,155,314.6,155.3,314.2,155.3z"/>
</g>
<path class="st30" d="M342,64c-13.1-2-25.3,6.9-27.4,20c-1.2,7.9,1.5,15.5,6.8,20.7l33.9-33.9C351.8,67.3,347.2,64.8,342,64z"/>
<path class="st32" d="M350.7,199.8c0-2.8-2.3-5-5-5c-0.3,0-0.7,0-1,0.1c-0.1,2.4,0.2,5.6,1.8,9.9
	C348.8,204.4,350.7,202.3,350.7,199.8z"/>
<circle class="st32" cx="352.6" cy="203.6" r="1.8"/>
<circle class="st32" cx="353" cy="200.1" r="0.7"/>
<circle class="st32" cx="328.3" cy="196.4" r="2.1"/>
<circle class="st32" cx="329.6" cy="192.7" r="0.9"/>
<g>
	<g>
		<path class="st31" d="M278.4,194.9c-0.2-0.2-0.3-35.8,3.8-49.2c3.5-11.4,4.6-15.3,2.6-16.3c-2-1-4.1,4.3-4.1,4.3s-9,26.6-6,60.9
			c0,0-8,10.3-2.8,13c0,0,1.5,0.9,2.9-4.4c0,0-2.3,6.5,1.2,7c3.1,0.4,1.4-7,1.4-7s0.6,5,3.1,5.2
			C284.2,208.6,283.1,199.4,278.4,194.9z"/>
		<path class="st33" d="M282,207.1l0.2,4.2c0,0.4-0.5,0.5-0.7,0.2c-0.7-1.4-1.8-3.5-1.7-4.3c0.1-1,1.4-0.5,2-0.3
			C281.9,206.8,282,206.9,282,207.1z"/>
		<path class="st33" d="M277.3,209l-0.3,4.2c0,0.4-0.5,0.4-0.7,0.1c-0.6-1.5-1.4-3.7-1.2-4.5c0.2-1,1.5-0.4,2-0.1
			C277.3,208.7,277.3,208.8,277.3,209z"/>
		<path class="st33" d="M273.1,206.3l-0.8,4.1c-0.1,0.4-0.6,0.4-0.7,0c-0.4-1.5-0.9-3.8-0.7-4.6c0.3-1,1.5-0.2,2,0.1
			C273.1,206,273.2,206.2,273.1,206.3z"/>
	</g>
	<path class="st32" d="M285,126.8c-2.5-0.6-5.1,0.9-5.7,3.4l-0.8,3.3l9.1,2.3l0.8-3.3C289,130,287.5,127.5,285,126.8z"/>
</g>
<g>
	<g>
		<path class="st31" d="M374.9,205.5c2.5,0.4,4.3-4.3,4.3-4.3s-3.5,6.8-0.4,7.2c3.5,0.4,2.9-6.4,2.9-6.4c0,5.4,1.7,5,1.7,5
			c5.8-1.3,0.6-13.2,0.6-13.2c11.5-32.4,9.4-60.5,9.4-60.5s-0.7-5.7-2.9-5.2c-2.1,0.5-2,4.6-1.5,16.4c0.6,14-8.3,48.5-8.6,48.6
			C374.8,196.2,371.4,204.9,374.9,205.5z"/>
		<path class="st33" d="M374.2,203.7c0.6-0.1,2-0.2,1.8,0.8c-0.1,0.8-1.7,2.6-2.8,3.8c-0.3,0.3-0.7,0-0.6-0.3l1.2-4
			C374,203.8,374.1,203.7,374.2,203.7z"/>
		<path class="st33" d="M378.2,206.6c0.5-0.1,2-0.4,1.9,0.6c0,0.8-1.4,2.8-2.3,4.1c-0.2,0.3-0.7,0.1-0.6-0.3l0.8-4.1
			C378,206.8,378.1,206.6,378.2,206.6z"/>
		<path class="st33" d="M382.9,205.1c0.5-0.2,1.9-0.6,2,0.4c0,0.8-1,2.9-1.8,4.3c-0.2,0.3-0.7,0.2-0.7-0.2l0.3-4.2
			C382.7,205.2,382.8,205.1,382.9,205.1z"/>
	</g>
	<path class="st32" d="M386.4,130.2v3.4h9.4v-3.4c0-2.6-2.1-4.7-4.7-4.7S386.4,127.6,386.4,130.2z"/>
</g>
<path class="st20" d="M282.4,201.9c0,0-3.8-0.3-3.4,1.3c0.4,1.6,4.1,2,4.4,1.3C283.7,203.6,284.1,201.8,282.4,201.9z"/>
<path class="st20" d="M282.2,199.2c0,0-3.7,0.7-3.1,2.1c0.6,1.4,4.4,0.9,4.5,0.1C283.7,200.6,283.8,198.7,282.2,199.2z"/>
<path class="st20" d="M282.7,204.5c0,0-3.7-0.5-3.4,1.1c0.3,1.6,4,2.3,4.3,1.5C283.9,206.3,284.4,204.5,282.7,204.5z"/>
<g>
	<path class="st33" d="M219.3,184.9c-2.4,0.1-4.2,2.1-4.1,4.3l0,0l0,0c-0.1-2.4-2.1-4.2-4.3-4.1c-2.4,0.1-4.2,2.1-4.1,4.3
		c-0.2,3.4,8.8,9.6,8.8,9.6l0,0l0,0c0,0,8.5-6.8,8.1-10.2C223.6,186.7,221.6,184.8,219.3,184.9z"/>
	<path class="st40" d="M207.8,189.3c0.1-0.1,0.2-2.1,2.1-2.8"/>
	<line class="st40" x1="210.8" y1="186.2" x2="211.1" y2="186.2"/>
	<path class="st41" d="M223.7,189c0-0.6-0.2-1.1-0.4-1.6c-1.2,2.1-4.7,7.4-10.7,9.5c1.6,1.3,2.9,2.2,2.9,2.2l0,0l0,0
		C215.5,199.2,224,192.5,223.7,189z"/>
</g>
</svg>
