<?xml version="1.0" encoding="utf-8"?>
<!-- Generator: Adobe Illustrator 24.0.0, SVG Export Plug-In . SVG Version: 6.00 Build 0)  -->
<svg version="1.1" id="Layer_1" xmlns="http://www.w3.org/2000/svg" xmlns:xlink="http://www.w3.org/1999/xlink" x="0px" y="0px"
	 viewBox="0 0 360 295" style="enable-background:new 0 0 360 295;" xml:space="preserve">
<style type="text/css">
	.st0{opacity:0.35;enable-background:new    ;}
	.st1{fill:#76CBFF;}
	.st2{display:none;}
	.st3{opacity:0.3;fill:#214978;}
	.st4{fill:#92DDFF;}
	.st5{fill:#214978;}
	.st6{fill:#349FDB;}
	.st7{fill:none;stroke:#349FDB;stroke-width:3.5719;stroke-linecap:round;stroke-miterlimit:10;}
	.st8{fill:none;stroke:#FFFFFF;stroke-width:3.6946;stroke-linecap:round;stroke-miterlimit:10;}
	.st9{opacity:0.47;fill:#214978;}
	.st10{fill:#FFFFFF;}
	.st11{fill:#0084BF;}
	.st12{opacity:0.12;fill:#FFFFFF;}
	.st13{fill:none;stroke:#FFFFFF;stroke-width:1.8473;stroke-miterlimit:10;}
	.st14{fill:none;stroke:#0084BF;stroke-width:2.2168;stroke-linecap:round;stroke-miterlimit:10;}
	.st15{opacity:0.45;fill:#FFFFFF;}
</style>
<g id="Fog">
</g>
<g id="Sky">
	<g id="Layer_12">
	</g>
</g>
<g id="Mountains">
</g>
<g id="Trees">
</g>
<g id="Floor">
</g>
<g id="Dekoration">
</g>
<g id="Mask" class="st0">
	<path class="st1" d="M4.1,121.4c11-61.4,38-60.2,91-71c33.1-6.7,38.9-15.4,73.7-10.6c20.2,2.8,36.6,17,57.7,17.8
		c49.9,1.8,101.1-11.9,126.7,47.9c16.9,39.5-12.8,68.7-31,97.6c-51.7,82-115.2,105.9-212.6,80.8C22.7,261.5-11.6,209.1,4.1,121.4z"
		/>
</g>
<g id="Lines">
</g>
<g id="Text" class="st2">
</g>
<g id="Fog_Overlay">
</g>
<g>
	<ellipse class="st3" cx="190.35" cy="225.14" rx="64.37" ry="12.27"/>
	<g>
		<g>
			<path class="st4" d="M170.8,211.23c0,0-11.89,2.6-15.84,6.8c-0.56,0.59-0.1,1.4,0.71,1.55c2.35,0.41,6.49-0.67,8.84-2.42
				c0,0-3.9,2.19-5.31,5.11c-0.41,0.84,0.12,2.35,3.13,1.51c3.71-1.04,11.68-2.82,15.62-5.19c0,0,3.13,1.14,6.21,2.36
				c1.41,0.56,2.15-0.05,1.95-0.68c-0.55-1.7-2.01-4.45-5.89-6.22v-8.22h-9.62L170.8,211.23z"/>
			<path class="st5" d="M171.14,207.99h8.64c1.3,0,2.35-1.05,2.35-2.35v-79.58c0-1.3-1.05-2.35-2.35-2.35h-8.64
				c-1.3,0-2.35,1.05-2.35,2.35v79.58C168.79,206.94,169.84,207.99,171.14,207.99z"/>
			<path class="st6" d="M181.57,209.08h-12.22c-1.03,0-1.86-0.83-1.86-1.86v-1.19c0-1.03,0.83-1.86,1.86-1.86h12.22
				c1.03,0,1.86,0.83,1.86,1.86v1.19C183.43,208.25,182.59,209.08,181.57,209.08z"/>
		</g>
		<g>
			<path class="st4" d="M208.04,211.23c0,0,11.89,2.6,15.84,6.8c0.56,0.59,0.1,1.4-0.71,1.55c-2.35,0.41-6.49-0.67-8.84-2.42
				c0,0,3.9,2.19,5.31,5.11c0.41,0.84-0.12,2.35-3.13,1.51c-3.71-1.04-11.68-2.82-15.62-5.19c0,0-3.13,1.14-6.21,2.36
				c-1.41,0.56-2.15-0.05-1.95-0.68c0.55-1.7,2.01-4.45,5.89-6.22v-8.22h9.62L208.04,211.23z"/>
			<path class="st5" d="M207.69,207.99h-8.64c-1.3,0-2.35-1.05-2.35-2.35v-79.58c0-1.3,1.05-2.35,2.35-2.35h8.64
				c1.3,0,2.35,1.05,2.35,2.35v79.58C210.04,206.94,208.99,207.99,207.69,207.99z"/>
			<path class="st6" d="M209.49,209.08h-12.22c-1.03,0-1.86-0.83-1.86-1.86v-1.19c0-1.03,0.83-1.86,1.86-1.86h12.22
				c1.03,0,1.86,0.83,1.86,1.86v1.19C211.34,208.25,210.51,209.08,209.49,209.08z"/>
		</g>
		<g>
			<path class="st7" d="M180.24,16.21c0,0-7.12,10.54,4.27,21.08"/>
			<circle class="st4" cx="179.67" cy="15.64" r="5.56"/>
		</g>
		<g>
			<path class="st7" d="M201.04,19.34c0,0,7.12,10.54-4.27,21.08"/>
			<circle class="st4" cx="201.61" cy="18.2" r="4.99"/>
		</g>
		<g>
			<path class="st6" d="M264.81,27.08c0,0-25.37-7.49-45.97,13.11l16.43,16.43l16.43,16.43C272.3,52.45,264.81,27.08,264.81,27.08z"
				/>
			<path class="st5" d="M226.6,58.93l-2.78-13.77c0,0,15.18-14.63,31.98-11.92C255.79,33.24,220.33,46.18,226.6,58.93z"/>
		</g>
		<g>
			<path class="st6" d="M115.89,27.08c0,0,25.37-7.49,45.97,13.11l-16.43,16.43L129,73.05C108.41,52.45,115.89,27.08,115.89,27.08z"
				/>
			<path class="st5" d="M154.11,58.93l2.78-13.77c0,0-15.18-14.63-31.98-11.92C124.91,33.24,160.38,46.18,154.11,58.93z"/>
		</g>
		<g>
			<circle class="st4" cx="190.35" cy="114.35" r="80.1"/>
			<path class="st8" d="M143.06,64.92c4.19-5.9,14.17-18.73,33.74-20.36"/>
			<line class="st8" x1="184.96" y1="44.56" x2="184.9" y2="44.56"/>
		</g>
		<path class="st6" d="M190.35,172.5c-33.68,0-57.75-10.95-69.81-18.86c13.74,24.36,39.85,40.8,69.81,40.8
			c29.96,0,56.07-16.45,69.81-40.8C248.11,161.56,224.04,172.5,190.35,172.5z"/>
		<path class="st9" d="M270.45,114.35c0-0.73-0.01-1.46-0.03-2.19c-7.49,21.91-36.04,81.84-121.98,70.45
			c12.19,7.5,26.55,11.84,41.92,11.84C234.59,194.44,270.45,158.58,270.45,114.35z"/>
		<g>
			<circle class="st6" cx="250.66" cy="78.66" r="4.4"/>
			<circle class="st6" cx="242.75" cy="85.57" r="1.81"/>
		</g>
		<circle class="st6" cx="250.58" cy="89.49" r="3.35"/>
		<g>
			<circle class="st6" cx="130.24" cy="92.1" r="4.4"/>
			<circle class="st6" cx="137.25" cy="84.27" r="1.81"/>
		</g>
		<circle class="st6" cx="129" cy="81.35" r="3.35"/>
		<g>
			<circle class="st6" cx="223.64" cy="120.66" r="1.41"/>
			<circle class="st6" cx="227.31" cy="117.53" r="1.41"/>
			<circle class="st6" cx="228.72" cy="122.61" r="1.41"/>
			<circle class="st6" cx="224.49" cy="125.73" r="1.41"/>
			<circle class="st6" cx="229.39" cy="128.02" r="1.41"/>
			<circle class="st6" cx="232.45" cy="119.25" r="1.41"/>
			<circle class="st6" cx="233.87" cy="124.32" r="1.41"/>
			<circle class="st6" cx="219.72" cy="124.64" r="1.41"/>
			<circle class="st6" cx="222.55" cy="130.11" r="1.41"/>
		</g>
		<g>
			<circle class="st6" cx="157.07" cy="120.66" r="1.41"/>
			<circle class="st6" cx="153.39" cy="117.53" r="1.41"/>
			<circle class="st6" cx="151.98" cy="122.61" r="1.41"/>
			<circle class="st6" cx="156.22" cy="125.73" r="1.41"/>
			<circle class="st6" cx="151.32" cy="128.02" r="1.41"/>
			<circle class="st6" cx="148.25" cy="119.25" r="1.41"/>
			<circle class="st6" cx="146.84" cy="124.32" r="1.41"/>
			<circle class="st6" cx="160.98" cy="124.64" r="1.41"/>
			<circle class="st6" cx="158.16" cy="130.11" r="1.41"/>
		</g>
		<path class="st5" d="M190.35,135.16L190.35,135.16c16.16,0,29.27-3.57,29.27,4.67v0c0,8.24-13.1,14.91-29.27,14.91h0
			c-16.16,0-29.27-6.68-29.27-14.91v0C161.08,131.6,174.19,135.16,190.35,135.16z"/>
		<path class="st10" d="M170.51,134.4c-0.01,0.14-0.01,0.28-0.01,0.42c0,2.76,1.59,5,3.56,5c1.97,0,3.56-2.24,3.56-5
			c0-0.05,0-0.1-0.01-0.16C175.01,134.51,172.62,134.38,170.51,134.4z"/>
		<path class="st10" d="M203.09,134.66c0,0.05-0.01,0.1-0.01,0.16c0,2.76,1.59,5,3.56,5s3.56-2.24,3.56-5
			c0-0.14-0.01-0.28-0.01-0.42C208.09,134.38,205.7,134.51,203.09,134.66z"/>
		<path class="st10" d="M193.91,135.52c0-0.14-0.01-0.27-0.01-0.41c-1.16,0.03-2.35,0.05-3.55,0.05h0c-1.2,0-2.38-0.02-3.55-0.05
			c-0.01,0.14-0.01,0.27-0.01,0.41c0,2.76,1.59,5,3.56,5C192.32,140.52,193.91,138.28,193.91,135.52z"/>
		<path class="st11" d="M189.83,149.16c-4.98,0-9.14,0.49-10.12,4.57c3.3,0.66,6.89,1.02,10.65,1.02h0c3.38,0,6.62-0.3,9.64-0.83
			C199.09,149.75,194.89,149.16,189.83,149.16z"/>
		<ellipse class="st5" cx="190.35" cy="90.88" rx="40.96" ry="29.66"/>
		<ellipse class="st12" cx="190.35" cy="90.88" rx="40.96" ry="29.66"/>
		<ellipse class="st13" cx="190.35" cy="90.88" rx="40.96" ry="29.66"/>
		<circle class="st10" cx="191.38" cy="90.88" r="24.67"/>
		<g>
			<circle class="st6" cx="191.38" cy="90.88" r="13.13"/>
			<circle class="st5" cx="191.38" cy="90.88" r="9.75"/>
		</g>
		<circle class="st10" cx="184.26" cy="82.81" r="5.15"/>
		<g>
			<path class="st4" d="M116.57,143.68c0,0-16.16,28.68,6.68,60.92c0,0-3.5,10.36,3.27,12.28c0,0,3.46,0.4,1.28-4.15
				c0,0,2.35,2.59,3.59,2.44c0,0,3.1-0.53,1.3-4.74c0,0,2.96,4.45,4.29,1.41c0.43-1.14,0.36-9.12-6.65-10.23
				c0,0-17.56-20.29-11.27-48.03C119.05,153.58,124.43,139.42,116.57,143.68z"/>
			<path class="st5" d="M121.68,156.14c0,0,6.47-14.89-0.72-16.6c-7.19-1.7-10.99,13.87-10.99,13.87L121.68,156.14z"/>
		</g>
		<g>
			<path class="st4" d="M264.13,143.68c0,0,16.16,28.68-6.68,60.92c0,0,3.5,10.36-3.27,12.28c0,0-3.46,0.4-1.28-4.15
				c0,0-2.35,2.59-3.59,2.44c0,0-3.1-0.53-1.3-4.74c0,0-2.96,4.45-4.29,1.41c-0.43-1.14-0.36-9.12,6.65-10.23
				c0,0,17.56-20.29,11.27-48.03C261.66,153.58,256.27,139.42,264.13,143.68z"/>
			<path class="st5" d="M259.03,156.14c0,0-6.47-14.89,0.72-16.6c7.19-1.7,10.99,13.87,10.99,13.87L259.03,156.14z"/>
		</g>
		<g>
			<g>
				<path class="st14" d="M140.22,117.47c0,0-26.99-16.38-56.91-3.72"/>
			</g>
			<path class="st14" d="M86.86,127.69c0,0,16.37-12.54,52.7-4.98"/>
			<path class="st14" d="M96.33,136.21c0,0,23.13-10.42,43.77-8.29"/>
		</g>
		<g>
			<g>
				<path class="st14" d="M240.48,117.47c0,0,26.99-16.38,56.91-3.72"/>
			</g>
			<path class="st14" d="M293.84,127.69c0,0-16.37-12.54-52.7-4.98"/>
			<path class="st14" d="M284.37,136.21c0,0-23.13-10.42-43.77-8.29"/>
		</g>
		<path class="st6" d="M214.77,50.11L214.77,50.11c0,0.01,0,0.02,0,0.02c0,0.52,0.29,0.95,0.64,0.95l11.32,0.06
			c0.36,0,0.65-0.42,0.65-0.95c0-0.01,0-0.01,0-0.02v0c0-0.01,0-0.02,0-0.02c0-0.52-0.29-0.95-0.64-0.95l-11.32-0.06
			c-0.36,0-0.65,0.42-0.65,0.95C214.77,50.1,214.77,50.11,214.77,50.11z"/>
		<path class="st6" d="M212.44,53.87L212.44,53.87c0,0.01,0,0.02,0,0.02c0,0.52,0.29,0.95,0.64,0.95l11.32,0.06
			c0.36,0,0.65-0.42,0.65-0.95c0-0.01,0-0.01,0-0.02v0c0-0.01,0-0.02,0-0.02c0-0.52-0.29-0.95-0.64-0.95l-11.32-0.06
			c-0.36,0-0.65,0.42-0.65,0.95C212.44,53.86,212.44,53.87,212.44,53.87z"/>
		<path class="st6" d="M215.62,57.88L215.62,57.88c0,0.01,0,0.02,0,0.02c0,0.52,0.29,0.95,0.64,0.95l11.32,0.06
			c0.36,0,0.65-0.42,0.65-0.95c0-0.01,0-0.01,0-0.02l0,0c0-0.01,0-0.02,0-0.02c0-0.52-0.29-0.95-0.64-0.95l-11.32-0.06
			c-0.36,0-0.65,0.42-0.65,0.95C215.62,57.87,215.62,57.87,215.62,57.88z"/>
		<path class="st6" d="M139.86,146.49L139.86,146.49c0,0.01,0,0.02,0,0.02c0,0.52,0.29,0.95,0.64,0.95l11.32,0.06
			c0.36,0,0.65-0.42,0.65-0.95c0-0.01,0-0.01,0-0.02l0,0c0-0.01,0-0.02,0-0.02c0-0.52-0.29-0.95-0.64-0.95l-11.32-0.06
			c-0.36,0-0.65,0.42-0.65,0.95C139.86,146.48,139.86,146.49,139.86,146.49z"/>
		<path class="st6" d="M137.53,150.25L137.53,150.25c0,0.01,0,0.02,0,0.02c0,0.52,0.29,0.95,0.64,0.95l11.32,0.06
			c0.36,0,0.65-0.42,0.65-0.95c0-0.01,0-0.01,0-0.02l0,0c0-0.01,0-0.02,0-0.02c0-0.52-0.29-0.95-0.64-0.95l-11.32-0.06
			c-0.36,0-0.65,0.42-0.65,0.95C137.53,150.24,137.53,150.25,137.53,150.25z"/>
		<path class="st6" d="M140.71,154.26L140.71,154.26c0,0.01,0,0.02,0,0.02c0,0.52,0.29,0.95,0.64,0.95l11.32,0.06
			c0.36,0,0.65-0.42,0.65-0.95c0-0.01,0-0.01,0-0.02l0,0c0-0.01,0-0.02,0-0.02c0-0.52-0.29-0.95-0.64-0.95l-11.32-0.06
			c-0.36,0-0.65,0.42-0.65,0.95C140.71,154.25,140.71,154.25,140.71,154.26z"/>
		<path class="st15" d="M190.35,61.21c-22.62,0-40.96,13.28-40.96,29.66c0,10.07,6.92,18.96,17.51,24.32l48.04-48.04
			C208.1,63.43,199.58,61.21,190.35,61.21z"/>
	</g>
</g>
</svg>
