<?xml version="1.0" encoding="utf-8"?>
<!-- Generator: Adobe Illustrator 24.0.0, SVG Export Plug-In . SVG Version: 6.00 Build 0)  -->
<svg version="1.1" xmlns="http://www.w3.org/2000/svg" xmlns:xlink="http://www.w3.org/1999/xlink" x="0px" y="0px"
	 viewBox="0 0 700 811" style="enable-background:new 0 0 700 811;" xml:space="preserve">
<style type="text/css">
	.st0{fill:#19002F;}
	.st1{fill:url(#SVGID_1_);}
	.st2{opacity:0.25;}
	.st3{fill:url(#SVGID_2_);}
	.st4{fill:url(#SVGID_3_);}
	.st5{opacity:0.74;}
	.st6{fill:url(#SVGID_4_);}
	.st7{fill:url(#SVGID_5_);}
	.st8{fill:url(#SVGID_6_);}
	.st9{fill:url(#SVGID_7_);}
	.st10{fill:url(#SVGID_8_);}
	.st11{fill:url(#SVGID_9_);}
	.st12{opacity:0.69;}
	.st13{fill:url(#SVGID_10_);}
	.st14{fill:url(#SVGID_11_);}
	.st15{opacity:0.32;}
	.st16{fill:url(#SVGID_12_);}
	.st17{fill:url(#SVGID_13_);}
	.st18{fill:url(#SVGID_14_);}
	.st19{fill:url(#SVGID_15_);}
	.st20{fill:url(#SVGID_16_);}
	.st21{fill:url(#SVGID_17_);}
	.st22{fill:#3B0077;}
	.st23{fill:#280059;}
	.st24{fill:url(#SVGID_18_);}
	.st25{fill:url(#SVGID_19_);}
	.st26{fill:url(#SVGID_20_);}
	.st27{fill:url(#SVGID_21_);}
	.st28{fill:url(#SVGID_22_);}
	.st29{fill:url(#SVGID_23_);}
	.st30{opacity:0.21;}
	.st31{fill:url(#SVGID_24_);}
	.st32{opacity:0.22;fill:url(#SVGID_25_);enable-background:new    ;}
	.st33{fill:#FFFFFF;}
	.st34{opacity:0.22;fill:url(#SVGID_26_);enable-background:new    ;}
	.st35{opacity:0.22;fill:url(#SVGID_27_);enable-background:new    ;}
	.st36{opacity:0.22;fill:url(#SVGID_28_);enable-background:new    ;}
	.st37{opacity:0.22;fill:url(#SVGID_29_);enable-background:new    ;}
	.st38{opacity:0.22;fill:url(#SVGID_30_);enable-background:new    ;}
	.st39{opacity:0.22;fill:url(#SVGID_31_);enable-background:new    ;}
	.st40{opacity:0.22;fill:url(#SVGID_32_);enable-background:new    ;}
	.st41{opacity:0.22;fill:url(#SVGID_33_);enable-background:new    ;}
	.st42{opacity:0.22;fill:url(#SVGID_34_);enable-background:new    ;}
	.st43{opacity:0.22;fill:url(#SVGID_35_);enable-background:new    ;}
	.st44{opacity:0.22;fill:url(#SVGID_36_);enable-background:new    ;}
	.st45{opacity:0.69;fill:#2C0051;}
	.st46{fill:#9700B8;}
	.st47{fill:#5D0081;}
	.st48{fill:#EB18FF;}
	.st49{opacity:0.64;fill:#3E005A;}
	.st50{fill:none;stroke:#FFFFFF;stroke-width:2.2405;stroke-linecap:round;stroke-miterlimit:10;}
	.st51{opacity:0.3;fill:#3E005A;}
	.st52{fill:#F9A6FF;}
	.st53{opacity:0.45;}
	.st54{fill:none;stroke:#FFFFFF;stroke-width:1.1203;stroke-miterlimit:10;}
	.st55{opacity:0.45;fill:#FFFFFF;}
	.st56{fill:#92DDFF;}
	.st57{fill:#214978;}
	.st58{fill:#349FDB;}
	.st59{fill:none;stroke:#349FDB;stroke-width:2.5265;stroke-linecap:round;stroke-miterlimit:10;}
	.st60{fill:none;stroke:#FFFFFF;stroke-width:2.6132;stroke-linecap:round;stroke-miterlimit:10;}
	.st61{opacity:0.47;fill:#214978;}
	.st62{fill:#0084BF;}
	.st63{opacity:0.12;fill:#FFFFFF;}
	.st64{fill:none;stroke:#FFFFFF;stroke-width:1.3066;stroke-miterlimit:10;}
	.st65{fill:none;stroke:#0084BF;stroke-width:1.5679;stroke-linecap:round;stroke-miterlimit:10;}
	.st66{fill:#36009F;}
	.st67{fill:#90A9FF;}
	.st68{fill:#5C5EFF;}
	.st69{fill:#4C25D0;}
	.st70{fill:none;stroke:#36009F;stroke-width:1.6695;stroke-linecap:round;stroke-miterlimit:10;}
	.st71{fill:none;stroke:#FFFFFF;stroke-width:2.3251;stroke-linecap:round;stroke-miterlimit:10;}
	.st72{opacity:0.19;fill:#506EFF;}
	.st73{opacity:0.83;}
	.st74{opacity:0.56;fill:#FFFFFF;}
	.st75{fill:none;stroke:#FFFFFF;stroke-width:1.1625;stroke-miterlimit:10;}
	.st76{opacity:0.3;fill:#4C25D0;}
	.st77{opacity:0.36;}
	.st78{opacity:0.69;fill:#1F0040;}
	.st79{fill:url(#SVGID_37_);}
	.st80{fill:none;stroke:#349FDB;stroke-width:1.3288;stroke-linecap:round;stroke-miterlimit:10;}
	.st81{fill:url(#SVGID_38_);}
	.st82{opacity:0.7;}
	.st83{fill:url(#SVGID_39_);}
	.st84{fill:none;stroke:#349FDB;stroke-width:1.1357;stroke-linecap:round;stroke-miterlimit:10;}
	.st85{fill:url(#SVGID_40_);}
	.st86{fill:none;stroke:#349FDB;stroke-width:0.7405;stroke-linecap:round;stroke-miterlimit:10;}
	.st87{fill:url(#SVGID_41_);}
	.st88{fill:url(#SVGID_42_);}
	.st89{fill:none;stroke:#349FDB;stroke-width:1.7297;stroke-linecap:round;stroke-miterlimit:10;}
	.st90{fill:#5C5EFF;stroke:#FFFFFF;stroke-width:0.8649;stroke-linecap:round;stroke-miterlimit:10;}
	.st91{fill:url(#SVGID_43_);}
	.st92{fill:url(#SVGID_44_);}
	.st93{fill:none;stroke:#349FDB;stroke-width:0.9129;stroke-linecap:round;stroke-miterlimit:10;}
	.st94{fill:url(#SVGID_45_);}
	.st95{fill:url(#SVGID_46_);}
	.st96{fill:none;stroke:#349FDB;stroke-width:1.3904;stroke-linecap:round;stroke-miterlimit:10;}
	.st97{fill:#5C5EFF;stroke:#FFFFFF;stroke-width:0.6952;stroke-linecap:round;stroke-miterlimit:10;}
	.st98{fill:url(#SVGID_47_);}
	.st99{fill:url(#SVGID_48_);}
	.st100{fill:url(#SVGID_49_);}
	.st101{fill:url(#SVGID_50_);}
	.st102{fill:url(#SVGID_51_);}
	.st103{fill:url(#SVGID_52_);}
	.st104{fill:none;stroke:#349FDB;stroke-width:0.2692;stroke-linecap:round;stroke-miterlimit:10;}
	.st105{fill:url(#SVGID_53_);}
	.st106{fill:url(#SVGID_54_);}
	.st107{fill:none;stroke:#349FDB;stroke-width:0.4099;stroke-linecap:round;stroke-miterlimit:10;}
	.st108{fill:#5C5EFF;stroke:#FFFFFF;stroke-width:0.205;stroke-linecap:round;stroke-miterlimit:10;}
	.st109{fill:url(#SVGID_55_);}
	.st110{fill:url(#SVGID_56_);}
	.st111{fill:url(#SVGID_57_);}
	.st112{fill:none;stroke:#349FDB;stroke-width:1.2694;stroke-linecap:round;stroke-miterlimit:10;}
	.st113{fill:#5C5EFF;stroke:#FFFFFF;stroke-width:0.6347;stroke-linecap:round;stroke-miterlimit:10;}
	.st114{fill:url(#SVGID_58_);}
	.st115{fill:none;stroke:#4C25D0;stroke-width:2.2284;stroke-linecap:round;stroke-miterlimit:10;}
	.st116{fill:none;stroke:#4C25D0;stroke-width:1.4443;stroke-linecap:round;stroke-miterlimit:10;}
	.st117{fill:none;stroke:#5D0081;stroke-width:0.7969;stroke-linecap:round;stroke-miterlimit:10;}
	.st118{fill:none;stroke:#FFFFFF;stroke-width:1.324;stroke-linecap:round;stroke-miterlimit:10;}
	.st119{opacity:0.54;fill:#5D0081;}
	.st120{fill:#2A0051;}
	.st121{opacity:0.54;fill:#F9A6FF;}
	.st122{opacity:0.51;fill:#FFFFFF;}
	.st123{fill:none;stroke:#5D0081;stroke-width:2.846;stroke-miterlimit:10;}
	.st124{fill:none;stroke:#EB18FF;stroke-width:0.6787;stroke-miterlimit:10;}
	.st125{opacity:0.36;fill:#FFFFFF;}
	.st126{fill:url(#SVGID_59_);}
	.st127{fill:url(#SVGID_60_);}
	.st128{fill:url(#SVGID_61_);}
	.st129{fill:url(#SVGID_62_);}
	.st130{fill:url(#SVGID_63_);}
	.st131{fill:url(#SVGID_64_);}
	.st132{fill:url(#SVGID_65_);}
	.st133{fill:url(#SVGID_66_);}
</style>
<g id="Background_1_">
	<rect x="-17.1" y="-12.1" class="st0" width="730.5" height="839.8"/>
	
		<linearGradient id="SVGID_1_" gradientUnits="userSpaceOnUse" x1="-21.8212" y1="400.758" x2="713.3456" y2="400.758" gradientTransform="matrix(1 0 0 -1 0 812)">
		<stop  offset="0" style="stop-color:#6B3CFF"/>
		<stop  offset="1" style="stop-color:#560A74"/>
	</linearGradient>
	<rect x="-21.8" y="-8.7" class="st1" width="735.2" height="839.8"/>
</g>
<g id="Fog_1_">
	<g class="st2">
		
			<linearGradient id="SVGID_2_" gradientUnits="userSpaceOnUse" x1="285.4594" y1="678.4916" x2="1195.2144" y2="678.4916" gradientTransform="matrix(1 0 0 -1 0 812)">
			<stop  offset="0" style="stop-color:#349FDB"/>
			<stop  offset="1" style="stop-color:#EB18FF;stop-opacity:0.2"/>
		</linearGradient>
		<path class="st3" d="M348.8,100c4.4,2.7,8.9,5.6,14,6.6c5.8,1.1,11.7-0.7,17.3-2.5c18.3-5.8,36.6-11.7,54.9-17.6
			c10.4-3.3,21-6.7,31.9-6.5c16.3,0.2,31.2,8.2,46.1,14.6c29.4,12.8,62.3,20.5,93.5,13.4c26.5-6,51.1-22.4,78.2-20.6
			c26.7,1.8,49.3,21,75.4,26.5c11.4,2.4,23.3,2.2,34.9,2c37.7-0.7,76.2-1.6,111.8-14.4c14-5,27.3-11.9,40.6-18.8
			c24.7-12.7,49.3-25.5,74-38.1c32.6-16.8,67.8-36.3,81.8-70.2c5.8-14.2,7.4-29.9,14-43.7c6.6-13.8,20.8-26.2,35.8-23.1
			c11.8,2.4,19.7,13.2,25.6,23.7c18.1,32.6,25.3,77,0.3,104.6c-8.7,9.6-20.2,16-31.6,22.2c-19.9,10.9-39.7,21.7-59.5,32.6
			c-31.6,17.4-64,35-99.5,41.5c-46.4,8.5-95.7-2.4-140.4,12.8c-25.8,8.7-48.5,26.1-63.8,48.6c-12.2,18-19.6,39.1-32.4,56.7
			c-25.6,35.4-73.4,53.1-116,43c-11.7-2.8-23-7.5-34.8-9.7c-29.2-5.5-59.1,4.1-86.3,16.2c-34.8,15.4-67.8,35-103.7,47.7
			c-35.9,12.7-76.3,18-111.8,4.1c-14.5-5.6-12-8-11-23.6c1-16.2,1.3-35.5,17.3-37.6c16.1-2.1,33,0.4,48.2-5.3
			c27.1-10.2,39.2-42.4,63.7-57.8c20.2-12.6,45.7-12.1,68.6-18.5c23-6.4,46.7-26.5,41.2-49.7c-3.8-16.3-21.3-26.4-38-27.6
			c-16.7-1.2-33,4.3-49.1,8.9c-29.3,8.5-59.5,14.5-89.9,17.7c-12,1.3-24.5,2.1-35.7-2.5c-23.7-9.6-39.4-40.9-21.9-59.6
			C293,96.1,306,74.3,348.8,100z"/>
	</g>
	<g class="st5">
		<g class="st2">
			
				<linearGradient id="SVGID_3_" gradientUnits="userSpaceOnUse" x1="203.0558" y1="761.8525" x2="694.5614" y2="761.8525" gradientTransform="matrix(1 0 0 -1 0 812)">
				<stop  offset="0" style="stop-color:#00A0DF"/>
				<stop  offset="1" style="stop-color:#EB18FF;stop-opacity:0.2"/>
			</linearGradient>
			<path class="st4" d="M686.5-9.9c-3-0.7-6.1,0.1-8.9,1.3c-21.3,8.4-32.7,31.8-52.1,44c-23.7,15-54.5,10.6-81.7,17.5
				c-13.5,3.5-26.1,9.7-39.5,13.7c-13.4,3.9-28.2,5.5-40.9-0.4c-4.7-2.2-8.8-5.3-13.6-7.3c-14.5-6-30.8-0.3-46.3,1.8
				c-15.5,2.1-35.4-2.6-38.9-17.8c8-5.2,18.3,1,27.9,1.2c9.6,0.2,18.9-6.7,21.4-16s-1.9-20-10.3-24.7c-15-8.5-34.1,2.9-51-0.7
				c-7.2-1.5-13.4-5.6-20.3-8.1c-6.9-2.5-15.4-2.9-20.7,2c-6.9,6.3-4.9,17.7-1,26.1c4,8.8,9.3,19.7,3.2,27.2
				c-4.7,5.8-13.7,5.5-21,3.8c-28.3-6.6-51.9-26-71.8-47.1c-3-3.2-7.1-6.8-11.3-5.4c-2.8,0.9-4.4,3.8-5.3,6.5
				c-5.4,16.5,7.6,33.3,21.7,43.5c13.6,9.8,29.7,17.6,38.2,31.9c6.3,5.6,15.7,7.9,24.4,7.7c11.6-0.2,22.9-3.9,34.4-4.9
				c21.6-1.8,42.9,6.1,62.1,16.2c5.8,3,11.6,6.3,18,7.7c25.9,5.6,49.9-20.5,76.2-17.6c12.6,1.4,24,9.4,36.6,8.9
				c23.1-0.8,37.1-28.2,59.7-32.9c7.5-1.6,15.3-0.4,23-0.5c32.3-0.7,59.3-23.7,83.2-45.4c5-4.5,10.1-9.4,12.1-15.8
				C695.9,0,693-8.4,686.5-9.9z"/>
		</g>
	</g>
	<g class="st2">
		
			<linearGradient id="SVGID_4_" gradientUnits="userSpaceOnUse" x1="-153.8439" y1="651.6563" x2="325.7779" y2="651.6563" gradientTransform="matrix(1 0 0 -1 0 812)">
			<stop  offset="0" style="stop-color:#00A0DF"/>
			<stop  offset="1" style="stop-color:#EB18FF;stop-opacity:0.2"/>
		</linearGradient>
		<path class="st6" d="M-89.7,9.2c12,18.6,30.4,33,51.3,40.2c35.4,12.1,77.5,4.6,108.1,26c14.6,10.2,25.6,26.5,42.7,31.2
			c19.9,5.5,42.6-6.6,61.2,2.2c14.3,6.8,20.8,23.3,31,35.4c13.7,16,36.7,28.1,37,49.2c-9.8,4.9-21.9-0.5-29.8-8.1
			c-7.9-7.7-13.5-17.5-22-24.5c-7.5-6.3-16.8-9.9-26.2-12.7c-7.9-2.4-16.5-4.3-24.2-1.4c-7.7,2.9-13.5,12.1-9.9,19.5
			c3.6,7.4,13.4,8.4,21.4,10.4c17.5,4.3,32.5,17.8,38.4,34.8c2.5,7.1,3.6,14.9,8.1,21c10.2,13.9,31.5,11.8,46.7,20
			c15.2,8.1,23.6,26.4,39.7,32.8c7.6,3,16,3,23.9,5c8,2,16.2,7,17.6,15.1c1.8,9.6-7.4,18.5-17.1,20c-9.7,1.5-19.3-2.3-28.2-6.2
			C222.3,293.9,166,259,132.1,205.7c-3-4.7-5.9-9.7-10.4-13c-16.8-12.5-40.9,5-61.3,0c-20.3-5-28-29-41.3-45.2
			c-18.1-22-47.7-29.7-72.8-43.2c-25.2-13.6-46.4-33.5-67.2-53.2c-16.3-15.4-33.8-33.7-33-56.1L-89.7,9.2z"/>
	</g>
	<g class="st12">
		
			<linearGradient id="SVGID_5_" gradientUnits="userSpaceOnUse" x1="3302.0432" y1="-1314.9014" x2="4714.853" y2="-1314.9014" gradientTransform="matrix(-1.6692 6.710710e-02 5.716539e-02 1.4219 7013.6699 1811.8715)">
			<stop  offset="0" style="stop-color:#EB18FF;stop-opacity:0.5"/>
			<stop  offset="9.930719e-02" style="stop-color:#DD20FD;stop-opacity:0.5497"/>
			<stop  offset="0.2884" style="stop-color:#B736F8;stop-opacity:0.6442"/>
			<stop  offset="0.5476" style="stop-color:#7A5AF0;stop-opacity:0.7738"/>
			<stop  offset="0.8637" style="stop-color:#268AE4;stop-opacity:0.9318"/>
			<stop  offset="1" style="stop-color:#00A0DF"/>
		</linearGradient>
		<path class="st7" d="M1405.6,32.6c-5,33.8-13.5,54.4-48,71.7c-58.7,29.4-123.8-9.8-190.7-18c-90.8-11.1-165.2,69.7-256.6,77.9
			C833.7,171,760,125.4,684,136.7c-82.5,12.3-149.2,89.2-230.8,74.5c-36.3-6.6-69.2-31.3-105.6-24.5c-17.6,3.3-32.2,13.5-46,23.4
			c-67.4,48.2-155.9,99.4-235.2,68.9C15.9,259.6-25,208.8-78.9,220.4c-21,4.5-37.6,18-53.1,31c-59.8,50.1-120.2,101.1-162.7,162.6
			c-9,13-18.3,27.5-34.7,33.1c-22.6,7.8-48.4-4.6-72.2,0.2c-24.8,5-40,27.5-43.5,49c-3.5,21.5,1.6,43.2,1.7,64.9
			c0.1,41.7-19.7,83.3-53.8,113.6c-35,31.1-87.6,55.5-93.2,98.1c-3.8,28.9,14.2,64.1-11.4,83.5c-19.6,14.8-50.4,7.2-72.9-3.7
			c-88.1-42.3-147.1-119.6-179.2-201.5s-40.4-169.3-48.4-255.7c-12.9-139.5-25.9-278.9-38.8-418.4c-6-64.1-10.8-132.8,26.7-189.1
			c28.6-42.9,78.4-72.7,129.9-95.2c149.9-65.4,323.4-79.7,490.5-71.1c167.1,8.6,331.2,38.8,496.9,57.6
			C434-294.6,672.6-290,890-219.5c155.8,50.5,296.1,134.5,404.5,242.1c14.5,14.3,30.6,30.1,52.7,32.1c15,1.3,29.8-4.2,44.9-4.6
			c15.1-0.4,32.9,8.5,30.6,21.3"/>
	</g>
	<g>
		
			<linearGradient id="SVGID_6_" gradientUnits="userSpaceOnUse" x1="-159.7649" y1="861.0092" x2="1272.3689" y2="861.0092" gradientTransform="matrix(1 0 0 -1 0 812)">
			<stop  offset="0" style="stop-color:#349FDB"/>
			<stop  offset="1" style="stop-color:#EB18FF;stop-opacity:0.2"/>
		</linearGradient>
		<path class="st8" d="M-149.4,4.2c13.1-30.5,50.8-50.6,86.6-46c13.7,1.8,27,6.7,40.9,6.7c19,0.1,36.4-9.1,54.9-13.4
			c62.3-14.5,129.2,27.2,190.5,9.6c41.5-11.8,73.4-49.3,116.9-49.4c21.3,0,41.4,9.4,62.6,11c29.8,2.3,58.8-10.6,88.7-10.1
			c40.6,0.7,77.1,26.2,117.7,25.8c15.5-0.1,30.8-4.1,46.2-2.9c18.4,1.4,35.1,9.8,52.7,14.8c42.1,11.8,87.5,3.5,130.5-4.9
			c15.2-3,30.5-6,44.5-12.1c21.1-9.2,37.8-24.9,55.4-38.9c85.4-67.8,204.1-99.9,316.6-85.5c3.9,0.5,8,1.1,11.2,3.2
			c8.9,5.5,6.6,18.9-1.6,25.2s-19.6,7.5-30.3,8.5c-40.2,3.6-80.4,7.2-120.6,10.7c-6.9,0.6-15.7,2.8-16.5,9.1c-0.4,3.1,1.6,6,4,8.3
			c12.5,11.6,33.4,7.9,51.1,5.4s40.9,0.2,45.5,15.9c3,10.1-4.4,20.8-14.5,26c-10,5.2-22,5.8-33.6,5.9c-37.3,0.1-76.3-5.2-110.6,8.1
			c-29.6,11.5-51.3,35.4-79.9,48.9C897.4,13.7,821-12.1,751.4-2.8c-19.6,2.6-38.9,8.1-58.7,7.3c-16.8-0.6-32.9-5.6-49-9.8
			c-59.8-15.4-126-18.3-182.7,5c-25.1,10.3-47.7,25.5-73.6,34.3C297.3,64.6,187.8,12.4,103.3,54C72.9,68.8,46.9,95.4,12.5,96.2
			c-18.9,0.5-36.7-7.1-53.8-14.5c-31.6-13.7-63.2-27.5-92.9-44.5c-9.8-5.6-19.9-12.2-24.1-22c-4.2-9.8,0.8-23.4,12.3-25.3"/>
	</g>
	<g class="st15">
		
			<linearGradient id="SVGID_7_" gradientUnits="userSpaceOnUse" x1="-397.1019" y1="419.0805" x2="649.7077" y2="419.0805" gradientTransform="matrix(1 0 0 -1 0 812)">
			<stop  offset="0" style="stop-color:#00A0DF"/>
			<stop  offset="1" style="stop-color:#EB18FF;stop-opacity:0.2"/>
		</linearGradient>
		<path class="st9" d="M-397.1,349.3c15.1-16.1,31.7-33.1,53.4-37.1c18.2-3.3,39.6,2.4,53.8-9.5c7.8-6.6,11.1-16.9,17-25.3
			c18.6-26.2,57.3-26.8,88.6-19.3c31.2,7.6,63.4,20.7,94.5,12.5c32.4-8.6,56-38.8,88.7-46.3c15.9-3.6,32.5-1.5,48.7,0.6
			c30.7,4,61.5,8.1,90.9,17.9c23.6,7.8,46.3,19.4,71.1,22c29.5,3.2,59.6-6.6,88.5,0c26.7,6.1,48.2,25.3,73,36.6
			c25.7,11.7,54.4,14.6,81.8,21.5c79.6,19.9,149.7,75,187.9,147.6c7.7,14.6,13.8,33.5,3.8,46.6c-5.8,7.7-15.6,10.9-24.8,13.5
			c-50.2,14.2-102.5,20.2-154.5,24.6c-239.3,20.2-485.7,7-709.7-79.6c-32.1-12.4-63.9-26.5-91.3-47.3c-27.4-20.8-50.3-49-59.3-82.1"
			/>
	</g>
	<g>
		<linearGradient id="SVGID_8_" gradientUnits="userSpaceOnUse" x1="-137.6888" y1="354.215" x2="1721.0453" y2="354.215">
			<stop  offset="0" style="stop-color:#6B3CFF"/>
			<stop  offset="1" style="stop-color:#EB18FF;stop-opacity:0.2"/>
		</linearGradient>
		<path class="st10" d="M-137.6,486.5c9.8-2.6,19.5-5.6,29.6-6.9c20.7-2.6,36.6,2.9,50.9,8c107.2,37.8,242.6,58.3,390.2,59.1
			c206,1.2,429.2,9.4,645.3-14.5c17.1-1.9,725.6-42.8,742.6-44.5V166.8l-693.1-7.3c-63.2,8.6-126.2,41.7-175.7,71.4
			c-12.2,7.3-25.1,14.9-41.2,19.5c-33.3,9.3-65.5,2-99.5,4.4c-76.6,5.6-133.6,55.9-209.4,75.5c-69.8,18.1-141,6.5-211.6,22.4
			c-84.3,19-148.2,72.5-233.1,81.5c-62.5,6.6-126.5-12.4-179.1,12.2c-6.4,3-11.6,6.2-16,9.7"/>
	</g>
	
		<linearGradient id="SVGID_9_" gradientUnits="userSpaceOnUse" x1="610.0496" y1="1176.5231" x2="723.1895" y2="1508.8715" gradientTransform="matrix(-0.7071 0.7071 -0.7071 -0.7071 1414.8534 469.8467)">
		<stop  offset="0" style="stop-color:#EB18FF;stop-opacity:0.5"/>
		<stop  offset="1" style="stop-color:#92DDFF;stop-opacity:0.6"/>
	</linearGradient>
	<circle class="st11" cx="25" cy="7" r="178.8"/>
</g>
<g id="Mountains_1_">
	<g>
		<path class="st22" d="M650.7,454.8c2.2-12.4,0.9-25.2,1.5-37.8c0.5-9.5,2.3-19.4,7-27.4c2.1-3.6,7.4-3.1,8.9,0.8
			c3.4,9.3,6.2,18.8,8.4,28.5c7.3-10.8,6.8-24.9,6.8-38c0-9.1,0.8-18.9,4.5-27c3.1-6.7,12.8-5.9,15,1.1c1.5,4.9,1.8,10.5,1.7,15.6
			c-0.2,20.6-0.5,41.3-0.7,61.9c8.3-4.4,5.4-17,8.7-25.8c1.1-3,5.4-3,6.5,0c1.5,4.2,0.8,9.6,0.1,14.3c-1.1,6.8,0,15.9,6.7,17.4
			c10-22.7-0.1-49.7,6-73.8c0.6-2.4,1.5-4.9,4.9-5.1c1.4-0.1,2.8,0.3,4,0.9c12.8,6.9,16.4,23.1,16,37.4c-0.4,13.8-3.4,27.8,0.2,41.1
			c5.4-6.4,9.1-14.2,10.6-22.4c0.5-2.8,4.5-2.7,4.9,0.1c0.3,2.3,0.1,4.9-0.3,7.2c-0.9,5-1,11.7,3.8,13.5l6-15.2
			c1-2.5,4.6-2.3,5.3,0.3c2.2,9,1.1,19,2.2,28.5c1,9.3,4.2,18.3,9.2,26.1c0.3,0.5,0.7,0.9,1.1,1.2c2.2,1.6,4.4-0.4,5.6-2.4
			c3.6-5.9,4.7-13.5,6.9-20.1c1.7-4.9,9-3.3,8.5,1.8c-1.3,17.1-10.2,34.3-7.7,51.5l10.7-23.2c0.4-0.9,1.1-1.7,2.1-2
			c1.9-0.7,3.1,0.8,3.7,2.2c4,9.3-6.6,22.2,0.8,29c4-5.1,9.2-10.5,15.7-10.1c3,0.2,5.9,1.6,8.3,3.5c10.5,8.3,12.3,23.7,10.2,36.9
			s-7.3,26-7.8,39.3H615.3L650.7,454.8z"/>
	</g>
	<g>
		<path class="st22" d="M-127.3,466.7c8.6-20.3,2.2-46.2,10.4-65.4c2.3-5.3,10.1-4.4,11.2,1.3c0.3,1.8,0.6,3.6,1,5.3
			c1.2,5.8,4.7,12.3,10.7,12.7c5.1-18.5,10.2-37,15.2-55.5c0,0,0-0.1,0-0.1c1.2-4.1,7.2-3,7,1.3c-0.7,12.2,1.3,24.5,5.9,35.8
			c2,5,5.8,10.5,11.1,9.8c5.3-0.7,7.6-7,8.4-12.3c2.9-17.8,2.3-36,3.5-54c1-13.9,3.3-28,8.9-40.6c1.8-4.1,7.8-3.6,9,0.8l7,27.3
			l2.8-4.5c2-3.2,7-2.2,7.6,1.5c1.2,8.2,2.8,16.3,4.8,24.4c7-1.6,5.6-11.5,7.2-19c0.9-4.1,6.6-4.7,8.4-0.9c11,23.3,4,53.1,13,78
			c7.3-2.8,8.1-12.5,8.9-20.2c0.8-7.7,2.9-15.3,6.1-22.3c1.9-4.3,8.2-3.5,9.1,1.1c2.5,13.4-0.8,29.1,9.3,37.8
			c5.9-5.3,2.7-16.9,9.3-21.4c5.8-3.9,13.9,1.8,15.6,8.6c1.7,6.8-0.7,13.8-1.6,20.7c-1.4,10,0.2,20.3,4.4,29.5
			c9.2-9.8,11.8-24,12.3-37.4c0.5-13.7-0.6-27.7,3.3-40.9c0.2-0.6,0.5-1.2,0.9-1.7c2.1-2.3,5.3-0.2,7,2.1
			c11.6,15.6,3.7,37.9,8.1,56.8c0.4,1.9,1.1,3.8,2.6,5c2.1,1.6,5,1.1,7.5,1.9c2.6,0.7,4.6,2.7,6.5,4.7c14,15.3,21,36.7,18.9,57.4
			v80.2h-281.3V466.7z"/>
	</g>
	<g>
		<path class="st23" d="M381.1,555c-3.4-8.4,2.4-17.8,9.3-23.7c6.9-5.9,15.4-10.3,20.3-18c5.2-8.2,5.7-19.6,13.4-25.5
			c4.1-3.2,9.6-4.1,13.7-7.3c7.8-6,8.2-17.5,12.8-26.2c6.5-12.2,23.1-17.9,35.7-12.2c8.8,3.9,16.8,12.6,26.1,10.5
			c13.2-3,13.2-22.6,23.2-31.6c7.8-7.1,21.9-5.1,27.5,3.8c2.4,3.8,3.8,8.8,8,10.3c2,0.7,4.2,0.4,6.3-0.2c14.4-4.1,22.6-21,37.2-24.3
			c9.9-2.2,20.9,3.3,25.1,12.5c4.1,9.1,1.9,20.2,6.9,28.8c0.7,1.2,1.5,2.3,2.8,2.9c2.2,1,4.8-0.3,6.8-1.7
			c6.4-4.5,13.9-11.1,20.8-7.3c9.6,5.3,2.5,22.9,11.2,29.6c8.6,6.5,22.2-4.8,31.2,1.1c8.2,5.5,5.1,20.9,14.1,25
			c3.2,1.5,6.9,0.8,10.4,0.3c18.4-3,40-2.8,52.4,11.2c9.3,10.6,10.4,25.9,11.1,40L381.1,555z"/>
	</g>
	<g>
		<path class="st23" d="M308.1,535.5c1.1-9.9,2.1-20.3-0.9-29.7c-3-9.4-11.4-17.2-19.7-15c-3.6,1-7,3.7-10.7,3
			c-8.3-1.6-9-18.2-17.3-20.2c-2.8-0.7-5.5,0.6-8.3,1.4c-6.7,2.1-14.8,1.1-19.3-5.1c-2.7-3.7-4.1-9.2-8-11.1
			c-3.9-2-8.5,0.8-12.7,0.2c-7.2-1.1-10.4-10.9-14.6-17.9c-8.4-14.2-26.4-19.4-39.5-11.3c-9.9,6.1-17.1,18.4-28.1,20.6
			c-4.9,0.9-9.8-0.3-14.7-1.2c-7.3-1.3-14.9-1.8-22.1,0.5s-13.9,7.5-17.1,15.3c-4.2,10.1-2.4,23.6-9.3,31.4c-2.2,2.4-4.9,4-7.5,5.9
			c-9.9,7.5-15.8,21.6-14.7,35.4L308.1,535.5"/>
	</g>
</g>
<g id="Ground">
	<g id="Floor_1_">
		<rect x="-17.1" y="527" class="st23" width="730.5" height="301.2"/>
		<rect x="-17.1" y="527" class="st23" width="730.5" height="301.2"/>
	</g>
</g>
<g id="Ground_Layer">
	<g class="st15">
		<linearGradient id="SVGID_10_" gradientUnits="userSpaceOnUse" x1="-89.063" y1="708.0505" x2="430.4431" y2="708.0505">
			<stop  offset="0" style="stop-color:#00A0DF"/>
			<stop  offset="1" style="stop-color:#EB18FF;stop-opacity:0.2"/>
		</linearGradient>
		<path class="st13" d="M404.7,682.3c-21.2-6.8-47.2-5.9-71.2-3.5L217,685.2c-21.8,2.8-43.3-6.2-65.7-5.9
			c-8.2,0.1-16.1,1.5-24.2,2.1c-36,2.7-71.1-9.9-107.4-8.5c-16.4,0.6-32.2,4.1-48.6,4.9c-10.2,0.5-20.5-0.2-30.7,0.6
			c-10.1,0.8-20.6,3.2-26,8.3c-5.1,4.8-4.5,11.1,0.1,16.1c4.6,5,12.6,8.6,21.4,11.1c8.6,2.4,18.1,3.8,27.6,3.9
			c11.5,0.2,23.2-1.2,34.4,0.3c14.3,2,25.3,8.5,38.6,12.1c32.6,9,72.8-0.2,106.9,6.7c9.6,1.9,18.6,5.1,28.6,6.1
			c7.8,0.8,15.8,0.2,23.5-0.7c34.2-4,66.3-13.6,101.1-15.5c25.1-1.4,50.2,1.4,75.4,1.9c19.4,0.3,41.4-1.6,52.5-10.8
			C438.5,706.3,425.9,689.2,404.7,682.3z"/>
	</g>
	<g class="st15">
		<linearGradient id="SVGID_11_" gradientUnits="userSpaceOnUse" x1="-3.9819" y1="618.4521" x2="1002.2993" y2="618.4521">
			<stop  offset="0" style="stop-color:#33CC99"/>
			<stop  offset="1" style="stop-color:#EB18FF;stop-opacity:0.2"/>
		</linearGradient>
		<path class="st14" d="M-32.8,657c33.4,10.2,74.3,8.8,112,5.2l183.4-9.4c34.4-4.1,68.2,9.4,103.4,8.8c12.8-0.2,25.3-2.3,38.1-3.2
			c56.7-4,111.9,14.8,169,12.7c25.9-1,50.7-6.2,76.6-7.3c16.1-0.7,32.3,0.3,48.3-0.9c16-1.1,32.5-4.9,40.9-12.4
			c8-7.2,7-16.7-0.2-24.1c-7.2-7.4-19.8-12.9-33.6-16.6c-13.5-3.6-28.5-5.6-43.5-5.9c-18.1-0.3-36.5,1.8-54.2-0.5
			c-22.5-3-39.8-12.7-60.7-18.2c-51.3-13.5-114.6,0.2-168.3-10c-15.1-2.9-29.2-7.7-45-9.1c-12.2-1.1-24.8-0.2-37,1.1
			c-53.9,5.9-104.4,20.5-159.1,23.3c-39.5,2-79.1-2.2-118.7-2.8c-30.5-0.5-65.2,2.4-82.6,16.1C-86,621-66.2,646.8-32.8,657z"/>
	</g>
	<g class="st15">
		<linearGradient id="SVGID_12_" gradientUnits="userSpaceOnUse" x1="-73.3281" y1="792.6721" x2="289.5166" y2="792.6721">
			<stop  offset="0" style="stop-color:#00A0DF"/>
			<stop  offset="1" style="stop-color:#EB18FF;stop-opacity:0.2"/>
		</linearGradient>
		<path class="st16" d="M-6.6,792.1C-22,792.3-37,799.9-43.6,811c-2,3.4-3.2,7.2-1.7,10.7c1.6,3.6,5.8,6.1,10.2,7.6
			c15.1,5,32.4,0.2,48.8,1c7.6,0.4,15.1,2,22.8,2.3c11,0.5,21.9-1.8,32.9-2.5c30.5-2.1,60.3,7.5,90.8,10c14,1.1,28.8,0.6,41.3-4.6
			c13-5.4,22-15.2,33-23c11.3-8,25-13.9,39.6-17.1c3.3-0.7,6.9-1.4,9.4-3.2c3.5-2.5,4.5-6.5,5.2-10.2c1.2-6.3,2.2-13.3-2.1-18.7
			c-3.7-4.5-10.4-6.9-17-8.2c-34.8-7.1-70.8,6.8-106.8,7c-32,0.2-62.2-10.5-93.5-15.6c-10-1.6-20.5-2.7-30.2-0.1
			c-7.1,1.9-13.2,5.5-20.1,7.9c-19.8,6.8-42.7,2.1-64.1,3.9c-8.5,0.7-17.1,2.6-23.9,6.7c-2.2,1.3-4.3,3.2-4.1,5.3
			c0.2,2.8,4.1,4.5,7.5,5.3c16.2,4,34.2,2.2,50.1,6.8c5.3,1.5,11,5,10,9.3"/>
	</g>
	<g class="st15">
		<linearGradient id="SVGID_13_" gradientUnits="userSpaceOnUse" x1="343.0691" y1="571.5881" x2="982.1595" y2="571.5881">
			<stop  offset="0" style="stop-color:#33CC99"/>
			<stop  offset="1" style="stop-color:#EB18FF;stop-opacity:0.2"/>
		</linearGradient>
		<path class="st17" d="M343.9,545.7c4.7,11.2,24.7,15.4,41.8,15.7c26.6,0.4,53.3-4.6,79.4-1.4c9.7,1.2,19,3.5,28.8,4.2
			c17.4,1.2,34.8-2.7,52.3-2.4c29.2,0.6,56.1,13,85.3,12.3c10.5-0.2,21-2.2,31.3-1c9.5,1.1,18,4.8,26.2,8.2
			c23.8,9.9,48.7,18.6,74.4,26c5.3,1.5,10.9,3,16.6,2.7c5.7-0.3,11.6-2.9,12.5-6.7c0.7-3-1.8-6-2-9c-0.6-6.9,12.5-12.3,21.2-8.7
			c3.3,1.4,5.8,3.7,9.3,4.8c7.6,2.4,16-1.4,24-3.1c15.3-3.2,31.5,1.6,46.6,5.3c15.1,3.7,33.6,6,45.9-0.9c6.6-3.7,10.2-9.6,16.7-13.4
			c3.6-2.1,8-3.5,11.8-5.4c13.4-6.6,19.5-19.4,14.2-30.1c-1.8-3.6-4.8-6.9-8.7-9.6H346.1C343.2,537,342.2,541.4,343.9,545.7z"/>
	</g>
	<g class="st15">
		<linearGradient id="SVGID_14_" gradientUnits="userSpaceOnUse" x1="-45.3931" y1="548.9222" x2="217.3272" y2="548.9222">
			<stop  offset="0" style="stop-color:#33CC99"/>
			<stop  offset="1" style="stop-color:#EB18FF;stop-opacity:0.2"/>
		</linearGradient>
		<path class="st18" d="M-45,538.3c1.9,4.6,10.2,6.3,17.2,6.4c10.9,0.1,21.9-1.9,32.7-0.6c4,0.5,7.8,1.4,11.8,1.7
			c7.2,0.5,14.3-1.1,21.5-1c12,0.2,23.1,5.3,35.1,5.1c4.3-0.1,8.6-0.9,12.9-0.4c3.9,0.5,7.4,2,10.8,3.4c9.8,4.1,20,7.7,30.6,10.7
			c2.2,0.6,4.5,1.2,6.8,1.1s4.8-1.2,5.1-2.8c0.3-1.2-0.7-2.5-0.8-3.7c-0.3-2.8,5.1-5,8.7-3.6c1.4,0.6,2.4,1.5,3.8,2
			c3.1,1,6.6-0.6,9.9-1.3c6.3-1.3,12.9,0.6,19.2,2.2c6.2,1.5,13.8,2.5,18.9-0.4c2.7-1.5,4.2-3.9,6.9-5.5c1.5-0.9,3.3-1.5,4.9-2.2
			c5.5-2.7,8-8,5.8-12.4c-0.7-1.5-2-2.8-3.6-3.9H-44.2C-45.3,534.7-45.8,536.5-45,538.3z"/>
	</g>
	<g class="st15">
		<linearGradient id="SVGID_15_" gradientUnits="userSpaceOnUse" x1="292.857" y1="792.6721" x2="919.8935" y2="792.6721">
			<stop  offset="0" style="stop-color:#33CC99"/>
			<stop  offset="1" style="stop-color:#EB18FF;stop-opacity:0.2"/>
		</linearGradient>
		<path class="st19" d="M501.3,768.1c-56.2,12-113,21.3-170.1,27.8c-9.5,1.1-19.4,2.2-27.4,7.4c-8,5.1-13.5,15.6-9.8,24.4
			c2.3,5.4,7.5,9,12.7,11.8c55.6,29.4,126.5-7.2,186,13.2c7.2,2.5,14.3,5.8,21.9,6.3c27.1,1.9,49.1-31.1,75.6-25.1
			c15.5,3.5,27.4,20,43.2,18.2c21.1-2.4,30.5-35.7,51.6-33.5c6,0.6,11.2,4.2,16.2,7.6c12.1,8.1,25.4,15.6,39.9,16.9
			s30.7-4.8,37.2-17.8c4-8.1,4.2-18.2,10.1-25.1c6-6.9,16.4-8.5,25.4-6.8c9,1.7,17.3,6,25.9,9.1c13,4.7,27.1,6.5,40.9,5.4
			c12.4-1,25.3-4.9,33.2-14.4s8.4-25.8-1.6-33.2c-6.4-4.7-15-4.8-23-4.6c-23.8,0.5-47.5,0.9-71.3,1.4c-17,0.3-34.2,0.7-50.7,5
			c-11.4,3-22.2,7.8-33.6,10.7c-26.3,6.8-54,3.1-80.9-0.5c-4.8-0.7-10-1.5-13.6-4.7c-3.6-3.3-4.5-10-0.5-12.7
			c2.3-1.6,5.4-1.4,8.2-1.2c16.2,1.5,32.4,2.9,48.6,4.4c9,0.8,18.6,1.5,26.6-2.8c7.9-4.3,12.6-15.8,6.8-22.7
			c-4.1-4.9-11.3-5.6-17.7-5.8c-45.3-1.4-91.4,0.6-134.6,14.6C549.5,750,526.7,762.6,501.3,768.1"/>
	</g>
</g>
<g id="Sky_1_">
	<g>
		<g>
			
				<radialGradient id="SVGID_16_" cx="51.1772" cy="579" r="23.2589" gradientTransform="matrix(1 0 0 -1 0 812)" gradientUnits="userSpaceOnUse">
				<stop  offset="0" style="stop-color:#FFFFFF"/>
				<stop  offset="0.9791" style="stop-color:#FFFFFF;stop-opacity:2.090192e-02"/>
				<stop  offset="1" style="stop-color:#FFFFFF;stop-opacity:0"/>
			</radialGradient>
			<circle style="opacity:0.22;fill:url(#SVGID_16_);enable-background:new    ;" cx="51.2" cy="233" r="23.2"/>
			<circle class="st33" cx="51.2" cy="233" r="6.1"/>
		</g>
	</g>
	<g>
		<g>
			
				<radialGradient id="SVGID_17_" cx="51.1772" cy="756.8" r="23.2589" gradientTransform="matrix(1 0 0 -1 0 812)" gradientUnits="userSpaceOnUse">
				<stop  offset="0" style="stop-color:#FFFFFF"/>
				<stop  offset="0.9791" style="stop-color:#FFFFFF;stop-opacity:2.090192e-02"/>
				<stop  offset="1" style="stop-color:#FFFFFF;stop-opacity:0"/>
			</radialGradient>
			<circle style="opacity:0.22;fill:url(#SVGID_17_);enable-background:new    ;" cx="51.2" cy="55.2" r="23.2"/>
			<circle class="st33" cx="51.2" cy="55.2" r="6.1"/>
		</g>
	</g>
	<g>
		<g>
			<g>
				<g>
					
						<radialGradient id="SVGID_18_" cx="195.236" cy="404.2751" r="8.3395" gradientTransform="matrix(1 0 0 -1 0 812)" gradientUnits="userSpaceOnUse">
						<stop  offset="0" style="stop-color:#FFFFFF"/>
						<stop  offset="0.9791" style="stop-color:#FFFFFF;stop-opacity:2.090192e-02"/>
						<stop  offset="1" style="stop-color:#FFFFFF;stop-opacity:0"/>
					</radialGradient>
					<circle style="opacity:0.22;fill:url(#SVGID_18_);enable-background:new    ;" cx="195.3" cy="407.8" r="8.3"/>
					<circle class="st33" cx="195.3" cy="407.8" r="2.2"/>
				</g>
			</g>
		</g>
	</g>
	<g>
		<g>
			<g>
				<g>
					
						<radialGradient id="SVGID_19_" cx="126.2716" cy="475.9417" r="8.3395" gradientTransform="matrix(1 0 0 -1 0 812)" gradientUnits="userSpaceOnUse">
						<stop  offset="0" style="stop-color:#FFFFFF"/>
						<stop  offset="0.9791" style="stop-color:#FFFFFF;stop-opacity:2.090192e-02"/>
						<stop  offset="1" style="stop-color:#FFFFFF;stop-opacity:0"/>
					</radialGradient>
					<circle style="opacity:0.22;fill:url(#SVGID_19_);enable-background:new    ;" cx="126.3" cy="336.1" r="8.3"/>
					<circle class="st33" cx="126.3" cy="336.1" r="2.2"/>
				</g>
			</g>
		</g>
	</g>
	<g>
		<g>
			<g>
				<g>
					
						<radialGradient id="SVGID_20_" cx="618.2173" cy="632.0087" r="8.3395" gradientTransform="matrix(1 0 0 -1 0 812)" gradientUnits="userSpaceOnUse">
						<stop  offset="0" style="stop-color:#FFFFFF"/>
						<stop  offset="0.9791" style="stop-color:#FFFFFF;stop-opacity:2.090192e-02"/>
						<stop  offset="1" style="stop-color:#FFFFFF;stop-opacity:0"/>
					</radialGradient>
					<circle style="opacity:0.22;fill:url(#SVGID_20_);enable-background:new    ;" cx="618.2" cy="180" r="8.3"/>
					<circle class="st33" cx="618.2" cy="180" r="2.2"/>
				</g>
			</g>
		</g>
	</g>
	<g>
		<g>
			<g>
				<g>
					
						<radialGradient id="SVGID_21_" cx="329.0295" cy="780.0716" r="8.3395" gradientTransform="matrix(1 0 0 -1 0 812)" gradientUnits="userSpaceOnUse">
						<stop  offset="0" style="stop-color:#FFFFFF"/>
						<stop  offset="0.9791" style="stop-color:#FFFFFF;stop-opacity:2.090192e-02"/>
						<stop  offset="1" style="stop-color:#FFFFFF;stop-opacity:0"/>
					</radialGradient>
					<circle style="opacity:0.22;fill:url(#SVGID_21_);enable-background:new    ;" cx="329.1" cy="32" r="8.3"/>
					<circle class="st33" cx="329.1" cy="32" r="2.2"/>
				</g>
			</g>
		</g>
	</g>
	<g>
		<g>
			<g>
				<g>
					
						<radialGradient id="SVGID_22_" cx="428.1082" cy="368.6294" r="8.3395" gradientTransform="matrix(1 0 0 -1 0 812)" gradientUnits="userSpaceOnUse">
						<stop  offset="0" style="stop-color:#FFFFFF"/>
						<stop  offset="0.9791" style="stop-color:#FFFFFF;stop-opacity:2.090192e-02"/>
						<stop  offset="1" style="stop-color:#FFFFFF;stop-opacity:0"/>
					</radialGradient>
					<circle style="opacity:0.22;fill:url(#SVGID_22_);enable-background:new    ;" cx="428.1" cy="443.4" r="8.3"/>
					<circle class="st33" cx="428.1" cy="443.4" r="2.2"/>
				</g>
			</g>
		</g>
	</g>
	<g>
		<g>
			<g>
				<g>
					
						<radialGradient id="SVGID_23_" cx="520.004" cy="426.7245" r="8.3395" gradientTransform="matrix(1 0 0 -1 0 812)" gradientUnits="userSpaceOnUse">
						<stop  offset="0" style="stop-color:#FFFFFF"/>
						<stop  offset="0.9791" style="stop-color:#FFFFFF;stop-opacity:2.090192e-02"/>
						<stop  offset="1" style="stop-color:#FFFFFF;stop-opacity:0"/>
					</radialGradient>
					<circle style="opacity:0.22;fill:url(#SVGID_23_);enable-background:new    ;" cx="520" cy="385.3" r="8.3"/>
					<circle class="st33" cx="520" cy="385.3" r="2.2"/>
				</g>
			</g>
		</g>
	</g>
	<g>
		<path class="st33" d="M621.7,358.6l0-0.8v0l0,0c0,0,0.1,13.8-11.9,13.8c10.3,0,11.7,10.1,11.9,13l0,0.8v0l0,0
			c0,0-0.1-13.8,11.9-13.8C623.3,371.6,621.9,361.4,621.7,358.6z"/>
		<radialGradient id="SVGID_24_" cx="621.7075" cy="371.5565" r="17.3414" gradientUnits="userSpaceOnUse">
			<stop  offset="0" style="stop-color:#FFFFFF"/>
			<stop  offset="0.9791" style="stop-color:#FFFFFF;stop-opacity:2.090192e-02"/>
			<stop  offset="1" style="stop-color:#FFFFFF;stop-opacity:0"/>
		</radialGradient>
		<circle style="opacity:0.22;fill:url(#SVGID_24_);enable-background:new    ;" cx="621.7" cy="371.6" r="17.3"/>
	</g>
	<g>
		<path class="st33" d="M220.4,48.3l0-0.8v0l0,0c0,0,0.1,13.8-11.9,13.8c10.3,0,11.7,10.1,11.9,13l0,0.8v0l0,0
			c0,0-0.1-13.8,11.9-13.8C222,61.3,220.6,51.2,220.4,48.3z"/>
		<radialGradient id="SVGID_25_" cx="220.3629" cy="61.3228" r="17.3414" gradientUnits="userSpaceOnUse">
			<stop  offset="0" style="stop-color:#FFFFFF"/>
			<stop  offset="0.9791" style="stop-color:#FFFFFF;stop-opacity:2.090192e-02"/>
			<stop  offset="1" style="stop-color:#FFFFFF;stop-opacity:0"/>
		</radialGradient>
		<circle class="st32" cx="220.4" cy="61.3" r="17.3"/>
	</g>
	<g>
		<path class="st33" d="M651.7,92.1l0-0.8v0l0,0c0,0,0.1,13.8-11.9,13.8c10.3,0,11.7,10.1,11.9,13l0,0.8v0l0,0
			c0,0-0.1-13.8,11.9-13.8C653.3,105.1,651.9,95,651.7,92.1z"/>
		<radialGradient id="SVGID_26_" cx="651.7053" cy="105.094" r="17.3414" gradientUnits="userSpaceOnUse">
			<stop  offset="0" style="stop-color:#FFFFFF"/>
			<stop  offset="0.9791" style="stop-color:#FFFFFF;stop-opacity:2.090192e-02"/>
			<stop  offset="1" style="stop-color:#FFFFFF;stop-opacity:0"/>
		</radialGradient>
		<circle class="st34" cx="651.7" cy="105.1" r="17.3"/>
	</g>
	<g>
		<g>
			<g>
				<g>
					
						<radialGradient id="SVGID_27_" cx="92.7206" cy="686.831" r="8.3395" gradientTransform="matrix(1 0 0 -1 0 812)" gradientUnits="userSpaceOnUse">
						<stop  offset="0" style="stop-color:#FFFFFF"/>
						<stop  offset="0.9791" style="stop-color:#FFFFFF;stop-opacity:2.090192e-02"/>
						<stop  offset="1" style="stop-color:#FFFFFF;stop-opacity:0"/>
					</radialGradient>
					<circle class="st35" cx="92.8" cy="125.2" r="8.3"/>
					<circle class="st33" cx="92.8" cy="125.2" r="2.2"/>
				</g>
			</g>
		</g>
	</g>
</g>
<g id="Character_1_">
	<ellipse class="st45" cx="231.6" cy="638.7" rx="42.2" ry="7.1"/>
	<g>
		<g>
			<g>
				<path class="st46" d="M221.7,596.1c0,0,4.7,4.8-2.1,18.8c-0.3,0.6-0.7,1.3-1.1,1.8c-1.1,1.5-4.1,2.7-4.2-2.6
					c0,0-0.8,4.4-3.4,2.6c-2-1.4-3.7-12.5,4.9-20.9"/>
				<path class="st47" d="M210.6,541.9c-6.2,34.4,4.6,53.9,4.6,53.9l7.1,0.3c-5.8-10-1.3-43.6-0.2-51.2c0.1-1,0.2-1.5,0.2-1.5"/>
				<g>
					<path class="st48" d="M213.2,616c-0.6,1.5-2.2,3.1-1.3,5.2c0,0-2.3-1.2-1.6-5.6c0.1-0.5,0.3-1,0.7-1.3c0.5-0.3,1.3-0.6,1.9,0
						C213.4,614.8,213.5,615.4,213.2,616z"/>
				</g>
				<g>
					<path class="st48" d="M217.9,616.7c-0.4,1.6-1.8,3.4-0.6,5.3c0,0-2.4-0.9-2.3-5.3c0-0.5,0.1-1,0.5-1.4c0.5-0.4,1.2-0.8,1.9-0.2
						C217.9,615.5,218.1,616.2,217.9,616.7z"/>
				</g>
			</g>
			<path class="st48" d="M221.8,597h-7.1c-0.8,0-1.5-0.7-1.5-1.5v-0.1c0-0.8,0.7-1.5,1.5-1.5h7.1c0.8,0,1.5,0.7,1.5,1.5v0.1
				C223.3,596.3,222.6,597,221.8,597z"/>
		</g>
		<path class="st46" d="M236.5,596.1c0,0-4.7,4.8,2.1,18.8c0.3,0.6,0.7,1.3,1.1,1.8c1.1,1.5,4.1,2.7,4.2-2.6c0,0,0.8,4.4,3.4,2.6
			c2-1.4,3.7-12.5-4.9-20.9"/>
		<path class="st47" d="M247.7,541.9c6.2,34.4-4.6,53.9-4.6,53.9l-7.1,0.3c5.8-10,1.3-43.6,0.2-51.2c-0.1-1-0.2-1.5-0.2-1.5"/>
		<g>
			<path class="st48" d="M245,616c0.6,1.5,2.2,3.1,1.3,5.2c0,0,2.3-1.2,1.6-5.6c-0.1-0.5-0.3-1-0.7-1.3c-0.5-0.3-1.3-0.6-1.9,0
				C244.9,614.8,244.8,615.4,245,616z"/>
		</g>
		<g>
			<path class="st48" d="M240.3,616.7c0.4,1.6,1.8,3.4,0.6,5.3c0,0,2.4-0.9,2.3-5.3c0-0.5-0.1-1-0.5-1.4c-0.5-0.4-1.2-0.8-1.9-0.2
				C240.4,615.5,240.2,616.2,240.3,616.7z"/>
		</g>
		<path class="st48" d="M236.4,597h7.1c0.8,0,1.5-0.7,1.5-1.5v-0.1c0-0.8-0.7-1.5-1.5-1.5h-7.1c-0.8,0-1.5,0.7-1.5,1.5v0.1
			C235,596.3,235.6,597,236.4,597z"/>
		<path class="st48" d="M224.6,458.6c0,0,3.8-11.6-4.9-18.4c0,0,5.8,0.6,8.6,6.9c0,0-2.2-7.1,2.2-14.3c0,0-0.9,8.7,2,14
			c0,0,1.1-6.9,5.5-8.2c0,0-2.3,5.3-1.8,11s2.2,9.6,2.2,9.6L224.6,458.6z"/>
		<g>
			<g>
				<g>
					<path class="st48" d="M184.9,457.2c0.3-24.4,19.6,14.8,44.1,15.1c24.4,0.3,44.6-38.6,44.4-14.2s-20.2,37.6-44.6,37.4
						S184.7,481.6,184.9,457.2z"/>
					<path class="st49" d="M273.4,458.1c0.1-5.4-0.9-7.7-2.7-8c0,0-0.3,21.4-14.5,30.3l1.7,7.3C267.2,481.4,273.2,471.4,273.4,458.1
						z"/>
					<path class="st49" d="M184.9,457.2c0.1-5.4,1.1-7.7,2.9-8c0,0-0.1,21.4,13.9,30.6l-1.8,7.2
						C190.6,480.6,184.8,470.5,184.9,457.2z"/>
				</g>
			</g>
		</g>
		<path class="st46" d="M279.5,532.7c0,32.3-22.5,46.9-50.3,46.9s-50.3-14.5-50.3-46.9c0-32.3,22.5-77.9,50.3-77.9
			S279.5,500.4,279.5,532.7z"/>
		<path class="st48" d="M278.4,544c-11.3,6.2-28.2,13.4-49.3,13.4c-21.1,0-38-7.2-49.3-13.4c4.7,24.4,25,35.5,49.3,35.5
			S273.7,568.5,278.4,544z"/>
		<path class="st47" d="M276.8,520.6c0.6,0,1.2-0.1,1.7-0.2c-0.9-6.2-2.5-12.7-4.7-19c-4,1.3-6.8,5-6.8,9.3
			C267,516.2,271.4,520.6,276.8,520.6z"/>
		<circle class="st47" cx="190.4" cy="521.3" r="2.9"/>
		<circle class="st47" cx="199.1" cy="514.8" r="4.6"/>
		<circle class="st47" cx="261.6" cy="512.8" r="3.8"/>
		<circle class="st47" cx="262.6" cy="504" r="1.9"/>
		<path class="st47" d="M252,473.5h-4c-0.6,0-1.1-0.5-1.1-1.1l0,0c0-0.6,0.5-1.1,1.1-1.1h4c0.6,0,1.1,0.5,1.1,1.1l0,0
			C253.1,473,252.6,473.5,252,473.5z"/>
		<path class="st47" d="M254.8,476.6h-4c-0.6,0-1.1-0.5-1.1-1.1l0,0c0-0.6,0.5-1.1,1.1-1.1h4c0.6,0,1.1,0.5,1.1,1.1l0,0
			C255.8,476.1,255.4,476.6,254.8,476.6z"/>
		<path class="st47" d="M250.8,479.5h-4c-0.6,0-1.1-0.5-1.1-1.1l0,0c0-0.6,0.5-1.1,1.1-1.1h4c0.6,0,1.1,0.5,1.1,1.1l0,0
			C251.8,479,251.4,479.5,250.8,479.5z"/>
		<path class="st47" d="M193.3,541.9h4c0.6,0,1.1,0.5,1.1,1.1l0,0c0,0.6-0.5,1.1-1.1,1.1h-4c-0.6,0-1.1-0.5-1.1-1.1l0,0
			C192.2,542.4,192.7,541.9,193.3,541.9z"/>
		<path class="st47" d="M190.5,538.8h4c0.6,0,1.1,0.5,1.1,1.1l0,0c0,0.6-0.5,1.1-1.1,1.1h-4c-0.6,0-1.1-0.5-1.1-1.1l0,0
			C189.4,539.3,189.9,538.8,190.5,538.8z"/>
		<path class="st47" d="M194.5,535.9h4c0.6,0,1.1,0.5,1.1,1.1l0,0c0,0.6-0.5,1.1-1.1,1.1h-4c-0.6,0-1.1-0.5-1.1-1.1l0,0
			C193.4,536.4,193.9,535.9,194.5,535.9z"/>
		<path class="st50" d="M206.5,474.1c0,0,7.2-9.4,16.1-10.1"/>
		<line class="st50" x1="226.4" y1="463.7" x2="227" y2="463.7"/>
		<path class="st51" d="M278.3,519.3c-12.6,27.2-34.8,45.6-65.8,58.3c5.2,1.3,10.8,2,16.7,2c27.8,0,50.3-14.5,50.3-46.9
			C279.5,528.4,279.1,523.9,278.3,519.3z"/>
		<path class="st47" d="M229.4,494.8c-3,7.2-5.2,14.7-6.6,22.1c0.3,0,0.6,0,0.9,0c6.5,0,11.8-5.3,11.8-11.8
			C235.5,500.7,233,496.9,229.4,494.8z"/>
		<g>
			<circle class="st48" cx="249.9" cy="523.9" r="1.1"/>
			<circle class="st48" cx="247.6" cy="526.3" r="1.1"/>
			<circle class="st48" cx="248.9" cy="529.8" r="1.1"/>
			<circle class="st48" cx="251.1" cy="527" r="1.1"/>
			<circle class="st48" cx="253.7" cy="523.9" r="1.1"/>
			<circle class="st48" cx="252.6" cy="530.6" r="1.1"/>
			<circle class="st48" cx="254.6" cy="527.2" r="1.1"/>
		</g>
		<g>
			<circle class="st48" cx="206" cy="523.9" r="1.1"/>
			<circle class="st48" cx="203.7" cy="526.3" r="1.1"/>
			<circle class="st48" cx="205.1" cy="529.8" r="1.1"/>
			<circle class="st48" cx="207.2" cy="527" r="1.1"/>
			<circle class="st48" cx="209.8" cy="523.9" r="1.1"/>
			<circle class="st48" cx="208.7" cy="530.6" r="1.1"/>
			<circle class="st48" cx="210.7" cy="527.2" r="1.1"/>
		</g>
		<g>
			<path class="st47" d="M240.1,533.1c0,6-4.9,10.9-10.9,10.9s-10.9-4.9-10.9-10.9"/>
		</g>
		<path class="st48" d="M235.2,542.2c-1.3-1.2-3.6-2.2-6.1-2.2c-2.5,0-4.8,1-6.1,2.2c1.7,1.2,3.8,1.9,6.1,1.9
			C231.4,544.1,233.5,543.4,235.2,542.2z"/>
		<g>
			<path class="st33" d="M234,533.1v3.9c0,0.5-0.4,0.9-0.9,0.9h-2.3c-0.5,0-0.9-0.4-0.9-0.9v-3.9"/>
		</g>
		<g>
			<path class="st33" d="M228.7,533.1v3.9c0,0.5-0.4,0.9-0.9,0.9h-2.3c-0.5,0-0.9-0.4-0.9-0.9v-3.9"/>
		</g>
		<g>
			<g>
				<circle class="st48" cx="229.2" cy="502.8" r="21.9"/>
			</g>
			<g>
				<circle class="st33" cx="229.2" cy="502.8" r="15.2"/>
				<g>
					<circle class="st52" cx="229.2" cy="502.8" r="8.1"/>
					<circle class="st47" cx="229.2" cy="502.8" r="6"/>
				</g>
			</g>
			<g>
				<circle class="st33" cx="223.1" cy="496.9" r="4.2"/>
			</g>
			<g class="st53">
				<circle class="st33" cx="229.2" cy="502.8" r="21.9"/>
			</g>
			<g>
				<circle class="st54" cx="229.2" cy="502.8" r="21.9"/>
			</g>
		</g>
		<g>
			<path class="st47" d="M207.1,560.1h-11c-0.4,0-0.6-0.3-0.6-0.6l0,0c0-0.4,0.3-0.6,0.6-0.6h11c0.4,0,0.6,0.3,0.6,0.6l0,0
				C207.8,559.8,207.5,560.1,207.1,560.1z"/>
			<path class="st47" d="M207.1,562.4h-11c-0.4,0-0.6-0.3-0.6-0.6l0,0c0-0.4,0.3-0.6,0.6-0.6h11c0.4,0,0.6,0.3,0.6,0.6l0,0
				C207.8,562.2,207.5,562.4,207.1,562.4z"/>
			<path class="st47" d="M207.1,564.8h-11c-0.4,0-0.6-0.3-0.6-0.6l0,0c0-0.4,0.3-0.6,0.6-0.6h11c0.4,0,0.6,0.3,0.6,0.6l0,0
				C207.8,564.5,207.5,564.8,207.1,564.8z"/>
		</g>
		<path class="st55" d="M232.5,481.1c-12-1.9-23.2,6.3-25.1,18.3c-1.1,7.2,1.4,14.2,6.2,18.9l31-31
			C241.5,484.1,237.3,481.9,232.5,481.1z"/>
		<path class="st47" d="M240.5,605.5c0-2.6-2.1-4.6-4.6-4.6c-0.3,0-0.6,0-0.9,0.1c-0.1,2.2,0.2,5.1,1.6,9.1
			C238.8,609.7,240.5,607.8,240.5,605.5z"/>
		<circle class="st47" cx="242.3" cy="609" r="1.6"/>
		<circle class="st47" cx="242.7" cy="605.7" r="0.7"/>
		<circle class="st47" cx="220" cy="602.3" r="1.9"/>
		<circle class="st47" cx="221.2" cy="599" r="0.9"/>
		<g>
			<g>
				<path class="st46" d="M188.4,599.3c-0.3-0.2-8.5-31.7-7.9-44.5c0.5-10.9,0.6-14.6-1.4-15.1s-2.6,4.8-2.6,4.8s-1.9,25.7,8.6,55.4
					c0,0-4.8,10.9,0.5,12.1c0,0,1.6,0.4,1.6-4.6c0,0-0.5,6.3,2.7,5.9c2.9-0.4-0.4-6.6-0.4-6.6s1.7,4.3,4,3.9
					C196.7,610.1,193.6,602.2,188.4,599.3z"/>
				<path class="st48" d="M194.4,609.3l1.1,3.7c0.1,0.3-0.3,0.6-0.5,0.3c-1-1.1-2.4-2.7-2.5-3.4c-0.2-0.9,1.2-0.8,1.7-0.7
					C194.2,609.1,194.3,609.2,194.4,609.3z"/>
				<path class="st48" d="M190.7,612l0.7,3.8c0.1,0.3-0.4,0.5-0.6,0.2c-0.8-1.2-2.1-3-2.1-3.7c-0.1-0.9,1.2-0.7,1.8-0.5
					C190.6,611.8,190.7,611.9,190.7,612z"/>
				<path class="st48" d="M186.4,610.6l0.3,3.8c0,0.3-0.4,0.5-0.6,0.2c-0.7-1.3-1.7-3.2-1.7-3.9c0.1-0.9,1.3-0.5,1.8-0.3
					C186.3,610.4,186.4,610.5,186.4,610.6z"/>
			</g>
			<path class="st47" d="M178.7,537.4c-2.4,0-4.3,1.9-4.3,4.3v3.1h8.6v-3.1C182.9,539.3,181,537.4,178.7,537.4z"/>
		</g>
		<g>
			<g>
				<path class="st46" d="M268.5,599.3c0.3-0.2,8.5-31.7,7.9-44.5c-0.5-10.9-0.6-14.6,1.4-15.1c2-0.5,2.6,4.8,2.6,4.8
					s1.9,25.7-8.6,55.4c0,0,4.8,10.9-0.5,12.1c0,0-1.6,0.4-1.6-4.6c0,0,0.5,6.3-2.7,5.9c-2.9-0.4,0.4-6.6,0.4-6.6s-1.7,4.3-4,3.9
					C260.2,610.1,263.3,602.2,268.5,599.3z"/>
				<path class="st48" d="M262.5,609.3l-1.1,3.7c-0.1,0.3,0.3,0.6,0.5,0.3c1-1.1,2.4-2.7,2.5-3.4c0.2-0.9-1.2-0.8-1.7-0.7
					C262.6,609.1,262.5,609.2,262.5,609.3z"/>
				<path class="st48" d="M266.2,612l-0.7,3.8c-0.1,0.3,0.4,0.5,0.6,0.2c0.8-1.2,2.1-3,2.1-3.7c0.1-0.9-1.2-0.7-1.8-0.5
					C266.3,611.8,266.2,611.9,266.2,612z"/>
				<path class="st48" d="M270.5,610.6l-0.3,3.8c0,0.3,0.4,0.5,0.6,0.2c0.7-1.3,1.7-3.2,1.7-3.9c-0.1-0.9-1.3-0.5-1.8-0.3
					C270.6,610.4,270.5,610.5,270.5,610.6z"/>
			</g>
			<path class="st47" d="M278.2,537.4c2.4,0,4.3,1.9,4.3,4.3v3.1h-8.6v-3.1C273.9,539.3,275.8,537.4,278.2,537.4z"/>
		</g>
	</g>
	<g>
		<ellipse class="st45" cx="359.5" cy="594.3" rx="47.4" ry="8"/>
		<g>
			<g>
				<path class="st56" d="M345.6,586.7c0,0-8.4,1.8-11.2,4.8c-0.4,0.4-0.1,1,0.5,1.1c1.7,0.3,4.6-0.5,6.3-1.7c0,0-2.8,1.5-3.8,3.6
					c-0.3,0.6,0.1,1.7,2.2,1.1c2.6-0.7,8.3-2,11-3.7c0,0,2.2,0.8,4.4,1.7c1,0.4,1.5,0,1.4-0.5c-0.4-1.2-1.4-3.1-4.2-4.4v-5.8h-6.8
					L345.6,586.7z"/>
				<path class="st57" d="M345.9,584.4h6.1c0.9,0,1.7-0.7,1.7-1.7v-56.3c0-0.9-0.7-1.7-1.7-1.7h-6.1c-0.9,0-1.7,0.7-1.7,1.7v56.3
					C344.2,583.6,344.9,584.4,345.9,584.4z"/>
				<path class="st58" d="M353.2,585.2h-8.6c-0.7,0-1.3-0.6-1.3-1.3V583c0-0.7,0.6-1.3,1.3-1.3h8.6c0.7,0,1.3,0.6,1.3,1.3v0.8
					C354.6,584.6,354,585.2,353.2,585.2z"/>
			</g>
			<g>
				<path class="st56" d="M372,586.7c0,0,8.4,1.8,11.2,4.8c0.4,0.4,0.1,1-0.5,1.1c-1.7,0.3-4.6-0.5-6.3-1.7c0,0,2.8,1.5,3.8,3.6
					c0.3,0.6-0.1,1.7-2.2,1.1c-2.6-0.7-8.3-2-11-3.7c0,0-2.2,0.8-4.4,1.7c-1,0.4-1.5,0-1.4-0.5c0.4-1.2,1.4-3.1,4.2-4.4v-5.8h6.8
					L372,586.7z"/>
				<path class="st57" d="M371.7,584.4h-6.1c-0.9,0-1.7-0.7-1.7-1.7v-56.3c0-0.9,0.7-1.7,1.7-1.7h6.1c0.9,0,1.7,0.7,1.7,1.7v56.3
					C373.4,583.6,372.6,584.4,371.7,584.4z"/>
				<path class="st58" d="M373,585.2h-8.6c-0.7,0-1.3-0.6-1.3-1.3V583c0-0.7,0.6-1.3,1.3-1.3h8.6c0.7,0,1.3,0.6,1.3,1.3v0.8
					C374.3,584.6,373.7,585.2,373,585.2z"/>
			</g>
			<g>
				<path class="st59" d="M352.3,448.7c0,0-5,7.5,3,14.9"/>
				<circle class="st56" cx="351.9" cy="448.3" r="3.9"/>
			</g>
			<g>
				<path class="st59" d="M367,450.9c0,0,5,7.5-3,14.9"/>
				<circle class="st56" cx="367.4" cy="450.1" r="3.5"/>
			</g>
			<g>
				<path class="st58" d="M412.1,456.4c0,0-17.9-5.3-32.5,9.3l11.6,11.6l11.6,11.6C417.4,474.4,412.1,456.4,412.1,456.4z"/>
				<path class="st57" d="M385.1,479l-2-9.7c0,0,10.7-10.4,22.6-8.4C405.7,460.8,380.7,469.9,385.1,479z"/>
			</g>
			<g>
				<path class="st58" d="M306.8,456.4c0,0,17.9-5.3,32.5,9.3l-11.6,11.6l-11.6,11.6C301.5,474.4,306.8,456.4,306.8,456.4z"/>
				<path class="st57" d="M333.8,479l2-9.7c0,0-10.7-10.4-22.6-8.4C313.2,460.8,338.3,469.9,333.8,479z"/>
			</g>
			<g>
				<circle class="st56" cx="359.5" cy="518.1" r="56.7"/>
				<path class="st60" d="M326,483.2c3-4.2,10-13.2,23.9-14.4"/>
				<line class="st60" x1="355.6" y1="468.8" x2="355.6" y2="468.8"/>
			</g>
			<path class="st58" d="M359.5,559.3c-23.8,0-40.8-7.7-49.4-13.3c9.7,17.2,28.2,28.9,49.4,28.9c21.2,0,39.7-11.6,49.4-28.9
				C400.3,551.5,383.3,559.3,359.5,559.3z"/>
			<path class="st61" d="M416.1,518.1c0-0.5,0-1,0-1.5c-5.3,15.5-25.5,57.9-86.3,49.8c8.6,5.3,18.8,8.4,29.6,8.4
				C390.7,574.8,416.1,549.4,416.1,518.1z"/>
			<g>
				<circle class="st58" cx="402.1" cy="492.9" r="3.1"/>
				<circle class="st58" cx="396.5" cy="497.8" r="1.3"/>
			</g>
			<circle class="st58" cx="402.1" cy="500.6" r="2.4"/>
			<g>
				<circle class="st58" cx="316.9" cy="502.4" r="3.1"/>
				<circle class="st58" cx="321.9" cy="496.9" r="1.3"/>
			</g>
			<circle class="st58" cx="316.1" cy="494.8" r="2.4"/>
			<g>
				<circle class="st58" cx="383" cy="522.6" r="1"/>
				<circle class="st58" cx="385.6" cy="520.4" r="1"/>
				<circle class="st58" cx="386.6" cy="524" r="1"/>
				<circle class="st58" cx="383.6" cy="526.2" r="1"/>
				<circle class="st58" cx="387.1" cy="527.8" r="1"/>
				<circle class="st58" cx="389.2" cy="521.6" r="1"/>
				<circle class="st58" cx="390.2" cy="525.2" r="1"/>
				<circle class="st58" cx="380.2" cy="525.4" r="1"/>
				<circle class="st58" cx="382.2" cy="529.3" r="1"/>
			</g>
			<g>
				<circle class="st58" cx="335.9" cy="522.6" r="1"/>
				<circle class="st58" cx="333.3" cy="520.4" r="1"/>
				<circle class="st58" cx="332.3" cy="524" r="1"/>
				<circle class="st58" cx="335.3" cy="526.2" r="1"/>
				<circle class="st58" cx="331.8" cy="527.8" r="1"/>
				<circle class="st58" cx="329.7" cy="521.6" r="1"/>
				<circle class="st58" cx="328.7" cy="525.2" r="1"/>
				<circle class="st58" cx="338.7" cy="525.4" r="1"/>
				<circle class="st58" cx="336.7" cy="529.3" r="1"/>
			</g>
			<path class="st57" d="M359.5,532.9L359.5,532.9c11.4,0,20.7-2.5,20.7,3.3v0c0,5.8-9.3,10.5-20.7,10.5h0
				c-11.4,0-20.7-4.7-20.7-10.5v0C338.8,530.3,348,532.9,359.5,532.9z"/>
			<path class="st33" d="M345.4,532.3c0,0.1,0,0.2,0,0.3c0,2,1.1,3.5,2.5,3.5c1.4,0,2.5-1.6,2.5-3.5c0,0,0-0.1,0-0.1
				C348.6,532.4,346.9,532.3,345.4,532.3z"/>
			<path class="st33" d="M368.5,532.5c0,0,0,0.1,0,0.1c0,2,1.1,3.5,2.5,3.5s2.5-1.6,2.5-3.5c0-0.1,0-0.2,0-0.3
				C372,532.3,370.3,532.4,368.5,532.5z"/>
			<path class="st33" d="M362,533.1c0-0.1,0-0.2,0-0.3c-0.8,0-1.7,0-2.5,0h0c-0.8,0-1.7,0-2.5,0c0,0.1,0,0.2,0,0.3
				c0,2,1.1,3.5,2.5,3.5C360.8,536.7,362,535.1,362,533.1z"/>
			<path class="st62" d="M359.1,542.8c-3.5,0-6.5,0.3-7.2,3.2c2.3,0.5,4.9,0.7,7.5,0.7h0c2.4,0,4.7-0.2,6.8-0.6
				C365.6,543.2,362.7,542.8,359.1,542.8z"/>
			<ellipse class="st57" cx="359.5" cy="501.5" rx="29" ry="21"/>
			<ellipse class="st63" cx="359.5" cy="501.5" rx="29" ry="21"/>
			<ellipse class="st64" cx="359.5" cy="501.5" rx="29" ry="21"/>
			<circle class="st33" cx="360.2" cy="501.5" r="17.4"/>
			<g>
				<circle class="st58" cx="360.2" cy="501.5" r="9.3"/>
				<circle class="st57" cx="360.2" cy="501.5" r="6.9"/>
			</g>
			<circle class="st33" cx="355.1" cy="495.8" r="3.6"/>
			<g>
				<path class="st56" d="M307.3,538.9c0,0-11.4,20.3,4.7,43.1c0,0-2.5,7.3,2.3,8.7c0,0,2.4,0.3,0.9-2.9c0,0,1.7,1.8,2.5,1.7
					c0,0,2.2-0.4,0.9-3.4c0,0,2.1,3.1,3,1c0.3-0.8,0.3-6.5-4.7-7.2c0,0-12.4-14.4-8-34C309,545.9,312.8,535.9,307.3,538.9z"/>
				<path class="st57" d="M310.9,547.7c0,0,4.6-10.5-0.5-11.7c-5.1-1.2-7.8,9.8-7.8,9.8L310.9,547.7z"/>
			</g>
			<g>
				<path class="st56" d="M411.6,538.9c0,0,11.4,20.3-4.7,43.1c0,0,2.5,7.3-2.3,8.7c0,0-2.4,0.3-0.9-2.9c0,0-1.7,1.8-2.5,1.7
					c0,0-2.2-0.4-0.9-3.4c0,0-2.1,3.1-3,1c-0.3-0.8-0.3-6.5,4.7-7.2c0,0,12.4-14.4,8-34C409.9,545.9,406.1,535.9,411.6,538.9z"/>
				<path class="st57" d="M408,547.7c0,0-4.6-10.5,0.5-11.7c5.1-1.2,7.8,9.8,7.8,9.8L408,547.7z"/>
			</g>
			<g>
				<g>
					<path class="st65" d="M324,520.4c0,0-19.1-11.6-40.3-2.6"/>
				</g>
				<path class="st65" d="M286.3,527.6c0,0,11.6-8.9,37.3-3.5"/>
				<path class="st65" d="M293,533.6c0,0,16.4-7.4,31-5.9"/>
			</g>
			<g>
				<g>
					<path class="st65" d="M394.9,520.4c0,0,19.1-11.6,40.3-2.6"/>
				</g>
				<path class="st65" d="M432.7,527.6c0,0-11.6-8.9-37.3-3.5"/>
				<path class="st65" d="M426,533.6c0,0-16.4-7.4-31-5.9"/>
			</g>
			<path class="st58" d="M376.7,472.7L376.7,472.7C376.7,472.7,376.7,472.7,376.7,472.7c0,0.4,0.2,0.7,0.5,0.7l8,0
				c0.3,0,0.5-0.3,0.5-0.7c0,0,0,0,0,0l0,0c0,0,0,0,0,0c0-0.4-0.2-0.7-0.5-0.7l-8,0C376.9,472,376.7,472.3,376.7,472.7
				C376.7,472.7,376.7,472.7,376.7,472.7z"/>
			<path class="st58" d="M375.1,475.4L375.1,475.4C375.1,475.4,375.1,475.4,375.1,475.4c0,0.4,0.2,0.7,0.5,0.7l8,0
				c0.3,0,0.5-0.3,0.5-0.7c0,0,0,0,0,0l0,0c0,0,0,0,0,0c0-0.4-0.2-0.7-0.5-0.7l-8,0C375.3,474.7,375.1,475,375.1,475.4
				C375.1,475.4,375.1,475.4,375.1,475.4z"/>
			<path class="st58" d="M377.3,478.2L377.3,478.2C377.3,478.2,377.3,478.2,377.3,478.2c0,0.4,0.2,0.7,0.5,0.7l8,0
				c0.3,0,0.5-0.3,0.5-0.7c0,0,0,0,0,0l0,0c0,0,0,0,0,0c0-0.4-0.2-0.7-0.5-0.7l-8,0C377.5,477.5,377.3,477.8,377.3,478.2
				C377.3,478.2,377.3,478.2,377.3,478.2z"/>
			<path class="st58" d="M323.7,540.9L323.7,540.9C323.7,540.9,323.7,540.9,323.7,540.9c0,0.4,0.2,0.7,0.5,0.7l8,0
				c0.3,0,0.5-0.3,0.5-0.7c0,0,0,0,0,0l0,0c0,0,0,0,0,0c0-0.4-0.2-0.7-0.5-0.7l-8,0C323.9,540.2,323.7,540.5,323.7,540.9
				C323.7,540.9,323.7,540.9,323.7,540.9z"/>
			<path class="st58" d="M322.1,543.5L322.1,543.5C322.1,543.6,322.1,543.6,322.1,543.5c0,0.4,0.2,0.7,0.5,0.7l8,0
				c0.3,0,0.5-0.3,0.5-0.7c0,0,0,0,0,0l0,0c0,0,0,0,0,0c0-0.4-0.2-0.7-0.5-0.7l-8,0C322.3,542.9,322.1,543.2,322.1,543.5
				C322.1,543.5,322.1,543.5,322.1,543.5z"/>
			<path class="st58" d="M324.3,546.4L324.3,546.4C324.3,546.4,324.3,546.4,324.3,546.4c0,0.4,0.2,0.7,0.5,0.7l8,0
				c0.3,0,0.5-0.3,0.5-0.7c0,0,0,0,0,0l0,0c0,0,0,0,0,0c0-0.4-0.2-0.7-0.5-0.7l-8,0C324.5,545.7,324.3,546,324.3,546.4
				C324.3,546.4,324.3,546.4,324.3,546.4z"/>
			<path class="st55" d="M359.5,480.6c-16,0-29,9.4-29,21c0,7.1,4.9,13.4,12.4,17.2l34-34C372,482.1,366,480.6,359.5,480.6z"/>
		</g>
	</g>
	<g>
		<ellipse class="st45" cx="486.8" cy="632.8" rx="41.9" ry="7"/>
		<g>
			<g>
				<g>
					<g>
						<g>
							<g>
								<g>
									<rect x="471.8" y="604.1" class="st66" width="10.3" height="27"/>
								</g>
							</g>
							<g>
								<g>
									<rect x="471.8" y="594.5" class="st66" width="10.3" height="27"/>
								</g>
							</g>
						</g>
					</g>
					<path class="st67" d="M473.2,625.1c0,0-14-1.1-14.1,1.8c-0.1,3,4,2,4,2s-5.7,0.8-3.3,3.4c3.2,3.6,22.3-1.2,22.3-1.2v-7.6
						L473.2,625.1z"/>
					<rect x="471.8" y="621.6" class="st67" width="10.3" height="8"/>
					<path class="st68" d="M481.8,622.9h-9.8c-0.6,0-1.2-0.5-1.2-1.2v-0.4c0-0.6,0.5-1.2,1.2-1.2h9.8c0.6,0,1.2,0.5,1.2,1.2v0.4
						C483,622.4,482.5,622.9,481.8,622.9z"/>
					<path class="st68" d="M471.6,633.1c2.6-0.4,5.2-0.9,7.1-1.3c-0.7-1.1-1.9-1.8-3.3-1.8C473.6,630.1,472,631.4,471.6,633.1z"/>
					<circle class="st68" cx="478.6" cy="628.9" r="1.4"/>
					<circle class="st68" cx="476.1" cy="627.4" r="0.8"/>
				</g>
				<g>
					<g>
						<g>
							<g>
								<g>
									
										<rect x="491.5" y="604.1" transform="matrix(-1 -4.526036e-11 4.526036e-11 -1 993.364 1235.1949)" class="st66" width="10.3" height="27"/>
								</g>
							</g>
							<g>
								<g>
									
										<rect x="491.5" y="594.5" transform="matrix(-1 -4.490642e-11 4.490642e-11 -1 993.364 1216.0975)" class="st66" width="10.3" height="27"/>
								</g>
							</g>
						</g>
					</g>
					<path class="st67" d="M500.4,625.1c0,0,14-1.1,14.1,1.8c0.1,3-4,2-4,2s5.7,0.8,3.3,3.4c-3.2,3.6-22.3-1.2-22.3-1.2v-7.6
						L500.4,625.1z"/>
					<rect x="491.5" y="621.6" class="st67" width="10.3" height="8"/>
					<path class="st68" d="M501.5,622.9h-9.8c-0.6,0-1.2-0.5-1.2-1.2v-0.4c0-0.6,0.5-1.2,1.2-1.2h9.8c0.6,0,1.2,0.5,1.2,1.2v0.4
						C502.7,622.4,502.2,622.9,501.5,622.9z"/>
					<path class="st68" d="M508.9,624.9c-1.5-0.1-3.1-0.1-4.5-0.1c0,0.1,0,0.2,0,0.3c0,1.2,1,2.2,2.2,2.2c1.2,0,2.2-1,2.2-2.2
						C508.9,625.1,508.9,625,508.9,624.9z"/>
					<circle class="st68" cx="503.6" cy="627.8" r="0.8"/>
					<circle class="st68" cx="506" cy="629.2" r="1.1"/>
				</g>
			</g>
			<path class="st69" d="M439.7,571.7c0-30.2,21.1-23.6,47.1-23.6s47.1-6.6,47.1,23.6c0,30.2-21.1,39.6-47.1,39.6
				S439.7,601.9,439.7,571.7z"/>
			<g>
				<g>
					<circle class="st68" cx="492.1" cy="571.2" r="2.3"/>
					<g>
						<circle class="st69" cx="493.2" cy="570.3" r="0.4"/>
						<circle class="st69" cx="491" cy="572.2" r="0.4"/>
					</g>
				</g>
				<g>
					<circle class="st68" cx="492.1" cy="582" r="2.3"/>
					<g>
						<circle class="st69" cx="493.2" cy="581.1" r="0.4"/>
						<circle class="st69" cx="491" cy="583" r="0.4"/>
					</g>
				</g>
				<g>
					<circle class="st68" cx="492.1" cy="592.8" r="2.3"/>
					<g>
						<circle class="st69" cx="493.2" cy="591.8" r="0.4"/>
						<circle class="st69" cx="491" cy="593.8" r="0.4"/>
					</g>
				</g>
				<g>
					<circle class="st68" cx="492.1" cy="603.6" r="2.3"/>
					<g>
						<circle class="st69" cx="493.2" cy="602.6" r="0.4"/>
						<circle class="st69" cx="491" cy="604.6" r="0.4"/>
					</g>
				</g>
			</g>
			<line class="st70" x1="486.8" y1="557.4" x2="486.8" y2="608"/>
			<g>
				<g>
					<path class="st66" d="M445.1,546.5c0,0-30.9,39.2,19.8,51.9l1.5-11.7c0,0-30-7.9-16.6-35.8C449.7,550.9,451.1,542,445.1,546.5z
						"/>
					<path class="st67" d="M470.3,589.2c0,0,8-2.7,9.2-0.8c1.4,2.3-1.1,3.8-2.6,3.5c0,0,5.4-0.6,5.6,2c0.2,2.7-3.4,3.1-6.4,1.9
						c0,0,4.9,0.9,4.2,2.9c-0.7,2.1-7.2,2.1-13.5-2.1S470.3,589.2,470.3,589.2z"/>
					<path class="st68" d="M468.8,600.1l-3.8-0.7c-1.3-0.3-2.1-1.5-1.9-2.8l1.9-9.6c0.3-1.3,1.5-2.1,2.8-1.9l3.8,0.7
						c1.3,0.3,2.1,1.5,1.9,2.8l-1.9,9.6C471.3,599.5,470,600.3,468.8,600.1z"/>
				</g>
				<g>
					<path class="st66" d="M528.6,546.5c0,0,30.9,39.2-19.8,51.9l-1.5-11.7c0,0,30-7.9,16.6-35.8C523.9,550.9,522.5,542,528.6,546.5
						z"/>
					<path class="st67" d="M503.3,589.2c0,0-8-2.7-9.2-0.8c-1.4,2.3,1.1,3.8,2.6,3.5c0,0-5.4-0.6-5.6,2c-0.2,2.7,3.4,3.1,6.4,1.9
						c0,0-4.9,0.9-4.2,2.9c0.7,2.1,7.2,2.1,13.5-2.1C513.2,592.4,503.3,589.2,503.3,589.2z"/>
					<path class="st68" d="M504.9,600.1l3.8-0.7c1.3-0.3,2.1-1.5,1.9-2.8l-1.9-9.6c-0.3-1.3-1.5-2.1-2.8-1.9l-3.8,0.7
						c-1.3,0.3-2.1,1.5-1.9,2.8l1.9,9.6C502.3,599.5,503.6,600.3,504.9,600.1z"/>
				</g>
			</g>
			<g>
				<g>
					<path class="st68" d="M468.1,498.5c-4.4,4.1-13,1.9-19.1-4.7c-6.2-6.7-10.1-20.2-5.7-24.3s15.4,2.9,21.6,9.6
						S472.5,494.4,468.1,498.5z"/>
					<path class="st69" d="M447.2,470.2c0,0,9.9,2.2,17.6,12.8l-1.9,1.5C462.9,484.5,459.7,477.8,447.2,470.2z"/>
				</g>
				<g>
					<path class="st68" d="M505.6,498.5c4.4,4.1,13,1.9,19.1-4.7s10.1-20.2,5.7-24.3s-15.4,2.9-21.6,9.6
						C502.6,485.7,501.2,494.4,505.6,498.5z"/>
					<path class="st69" d="M526.4,470.2c0,0-9.9,2.2-17.6,12.8l1.9,1.5C510.7,484.5,514,477.8,526.4,470.2z"/>
				</g>
			</g>
			<path class="st67" d="M532.6,521.1c0,25.3-20.5,37.6-45.8,37.6c-25.3,0-45.8-12.3-45.8-37.6c0-25.3,20.5-52.9,45.8-52.9
				C512.1,468.2,532.6,495.8,532.6,521.1z"/>
			<circle class="st68" cx="486.9" cy="506.2" r="21.6"/>
			<path class="st68" d="M519.3,512.1c0,7.4,5.8,13.4,13.1,13.9c0.2-1.6,0.3-3.2,0.3-4.9c0-7.3-1.7-14.9-4.8-21.8
				C522.8,501.3,519.3,506.3,519.3,512.1z"/>
			<path class="st68" d="M441.1,523.9c4.6-0.9,8.1-4.9,8.1-9.8c0-4-2.3-7.4-5.7-9c-1.6,5.2-2.5,10.6-2.5,15.9
				C441,522,441,523,441.1,523.9z"/>
			<circle class="st68" cx="451.3" cy="523.7" r="2.6"/>
			<circle class="st68" cx="514.6" cy="518.9" r="2"/>
			<path class="st71" d="M452.4,499.9c0,0,2.4-6.8,8.9-11.5"/>
			<line class="st71" x1="464.3" y1="486" x2="464.5" y2="485.8"/>
			<g>
				<g>
					<circle class="st69" cx="504.9" cy="529.8" r="0.8"/>
					<circle class="st69" cx="503.2" cy="531.6" r="0.8"/>
					<circle class="st69" cx="503.2" cy="531.6" r="0.8"/>
					<circle class="st69" cx="506.5" cy="532.5" r="0.8"/>
					<circle class="st69" cx="503.9" cy="534.4" r="0.8"/>
					<circle class="st69" cx="508" cy="530.2" r="0.8"/>
					<circle class="st69" cx="507.1" cy="535.5" r="0.8"/>
					<circle class="st69" cx="509.6" cy="532.9" r="0.8"/>
				</g>
				<g>
					<circle class="st69" cx="468.9" cy="529.2" r="0.8"/>
					<circle class="st69" cx="470.6" cy="531" r="0.8"/>
					<circle class="st69" cx="470.6" cy="531" r="0.8"/>
					<circle class="st69" cx="467.3" cy="531.9" r="0.8"/>
					<circle class="st69" cx="469.9" cy="533.8" r="0.8"/>
					<circle class="st69" cx="465.9" cy="529.6" r="0.8"/>
					<circle class="st69" cx="466.7" cy="534.9" r="0.8"/>
					<circle class="st69" cx="464.2" cy="532.3" r="0.8"/>
				</g>
			</g>
			<g>
				<g>
					<path class="st68" d="M507,480c-0.4,0.7-2.3,0.9-3.7,0c-1.4-0.8-1.8-2.3-1.4-3c0.4-0.7,1.8-0.6,3.2,0.2
						C506.6,478.1,507.4,479.3,507,480z"/>
					<path class="st69" d="M506,453.7c-0.5,0.7-0.4,1.8,0.4,2.3l7.9,5.6l-4,5.6l-4.7-3.3c-0.7-0.5-1.8-0.4-2.3,0.4
						c-0.5,0.7-0.4,1.8,0.4,2.3l4.7,3.3l-5,7c-0.5,0.7-0.4,1.8,0.4,2.3c0.7,0.5,1.8,0.4,2.3-0.4l11.8-16.6c0.5-0.7,0.4-1.8-0.4-2.3
						l-9.2-6.6C507.6,452.8,506.6,453,506,453.7z"/>
				</g>
				<g>
					<path class="st68" d="M466.6,480c0.4,0.7,2.3,0.9,3.7,0c1.4-0.8,1.8-2.3,1.4-3c-0.4-0.7-1.8-0.6-3.2,0.2
						C467,478.1,466.2,479.3,466.6,480z"/>
					<path class="st69" d="M467.6,453.7c0.5,0.7,0.4,1.8-0.4,2.3l-7.9,5.6l4,5.6l4.7-3.3c0.7-0.5,1.8-0.4,2.3,0.4
						c0.5,0.7,0.4,1.8-0.4,2.3l-4.7,3.3l5,7c0.5,0.7,0.4,1.8-0.4,2.3c-0.7,0.5-1.8,0.4-2.3-0.4l-11.8-16.6c-0.5-0.7-0.4-1.8,0.4-2.3
						l9.2-6.6C466,452.8,467.1,453,467.6,453.7z"/>
				</g>
			</g>
			<g>
				<path class="st66" d="M497.4,534.8c0,5.8-4.7,10.6-10.6,10.6c-5.8,0-10.6-4.7-10.6-10.6"/>
			</g>
			<path class="st68" d="M492.7,543.6c-1.3-1.2-3.4-2.2-5.9-2.2c-2.4,0-4.6,1-5.9,2.2c1.7,1.1,3.7,1.8,5.9,1.8
				C489,545.4,491,544.7,492.7,543.6z"/>
			<g>
				<path class="st33" d="M493.4,534.8v3.6c0,0.5-0.4,1-1,1h-2.3c-0.5,0-1-0.4-1-1v-3.6"/>
			</g>
			<circle class="st33" cx="486.8" cy="505.7" r="16.3"/>
			<g>
				<circle class="st67" cx="486.8" cy="505.7" r="8.7"/>
				<circle class="st66" cx="486.8" cy="505.7" r="6.4"/>
			</g>
			<circle class="st33" cx="480.4" cy="499.4" r="4.5"/>
			<circle class="st68" cx="519.1" cy="524.8" r="3"/>
			<path class="st68" d="M492.3,475.9c3.4,0,6.2-2.3,7-5.5c-4-1.5-8.1-2.3-12.4-2.3c-0.6,0-1.2,0-1.8,0c0,0.1,0,0.3,0,0.4
				C485,472.7,488.3,475.9,492.3,475.9z"/>
			<circle class="st68" cx="482" cy="475.2" r="2.4"/>
			<circle class="st68" cx="487.5" cy="477.7" r="1.4"/>
			<circle class="st72" cx="486.9" cy="506.2" r="21.6"/>
			<g class="st73">
				<path class="st74" d="M471.8,521.6c-8.5-8.4-8.7-22.1-0.3-30.6c8.4-8.5,22.1-8.7,30.6-0.3"/>
			</g>
			<circle class="st75" cx="486.9" cy="506.2" r="21.6"/>
			<path class="st76" d="M479.2,558.3c2.5,0.3,5,0.4,7.6,0.4c25.3,0,45.8-12.3,45.8-37.6c0-6-1.2-12.2-3.3-18
				C528.5,518.6,521.6,550.5,479.2,558.3z"/>
			<path class="st68" d="M486.8,565.3c0,0,40.6-0.3,40.6-23.9v-0.9c0,0-6.2,12.6-40.7,12.7c-34.5,0-40.5-12.7-40.5-12.7v0.9
				C446.2,565,486.8,565.3,486.8,565.3"/>
		</g>
	</g>
</g>
<g id="Decoration">
	<g class="st77">
		<ellipse class="st69" cx="507.8" cy="702.2" rx="9.1" ry="3.4"/>
		<ellipse class="st69" cx="495.9" cy="710.2" rx="5" ry="1.9"/>
		<ellipse class="st69" cx="528.2" cy="711.1" rx="4.5" ry="1.7"/>
		<ellipse class="st69" cx="516.2" cy="715.8" rx="4.7" ry="1.8"/>
		<ellipse class="st69" cx="536.5" cy="704.3" rx="8.3" ry="3.1"/>
		<ellipse class="st69" cx="514.3" cy="692" rx="6.6" ry="2.5"/>
		<ellipse class="st69" cx="479.1" cy="696.6" rx="12.1" ry="4.6"/>
		<ellipse class="st69" cx="454.5" cy="708.4" rx="2.7" ry="1"/>
		<ellipse class="st69" cx="480.3" cy="719.2" rx="9" ry="3.4"/>
		<ellipse class="st69" cx="560.3" cy="693.3" rx="15.5" ry="5.9"/>
		<ellipse class="st69" cx="571" cy="716.1" rx="10.6" ry="4"/>
		<ellipse class="st69" cx="548.7" cy="724.7" rx="8.8" ry="3.3"/>
		<ellipse class="st69" cx="525.8" cy="731.7" rx="6.1" ry="2.3"/>
	</g>
	<g>
		<ellipse class="st78" cx="577.3" cy="538.1" rx="15.4" ry="2.2"/>
		<linearGradient id="SVGID_28_" gradientUnits="userSpaceOnUse" x1="577.7733" y1="467.7541" x2="577.7733" y2="519.2515">
			<stop  offset="0" style="stop-color:#EB18FF;stop-opacity:0.5"/>
			<stop  offset="1" style="stop-color:#5C5EFF;stop-opacity:0.6"/>
		</linearGradient>
		<path style="fill:url(#SVGID_28_);" d="M595.3,494.5c0-3.4-2-6.4-5.3-8.6c3.3-2.2,5.3-5.2,5.3-8.6c0-6.6-7.8-12-17.5-12
			c-9.7,0-17.5,5.4-17.5,12c0,3.4,2,6.4,5.3,8.6c-3.3,2.2-5.3,5.2-5.3,8.6c0,2.6,1.2,4.9,3.2,6.9c-2,1.9-3.2,4.3-3.2,6.9
			c0,6.6,7.8,12,17.5,12c9.7,0,17.5-5.4,17.5-12c0-2.6-1.2-4.9-3.2-6.9C594.1,499.4,595.3,497.1,595.3,494.5z"/>
		<g>
			<line class="st80" x1="577.8" y1="537.2" x2="577.8" y2="473.8"/>
			<line class="st80" x1="577.8" y1="490.7" x2="584.8" y2="483.6"/>
			<line class="st80" x1="568.3" y1="505.8" x2="577.3" y2="514.8"/>
		</g>
	</g>
	<g>
		<ellipse class="st78" cx="624.3" cy="538.1" rx="15.4" ry="2.2"/>
		<linearGradient id="SVGID_29_" gradientUnits="userSpaceOnUse" x1="610.9555" y1="482.6152" x2="643.5565" y2="515.2162">
			<stop  offset="0" style="stop-color:#EB18FF;stop-opacity:0.5"/>
			<stop  offset="1" style="stop-color:#5C5EFF;stop-opacity:0.6"/>
		</linearGradient>
		<circle style="fill:url(#SVGID_29_);" cx="624.3" cy="496" r="22.1"/>
		<line class="st80" x1="624.3" y1="538.1" x2="624.3" y2="486"/>
		<line class="st80" x1="624.3" y1="501.9" x2="636.1" y2="490"/>
		<line class="st80" x1="612.3" y1="498.8" x2="624.2" y2="510.7"/>
		<line class="st80" x1="619.2" y1="488.7" x2="624.2" y2="493.9"/>
	</g>
	<g>
		<ellipse class="st45" cx="593.2" cy="788.1" rx="12.3" ry="3"/>
		<g>
			<g class="st82">
				
					<linearGradient id="SVGID_30_" gradientUnits="userSpaceOnUse" x1="516.2205" y1="774.2656" x2="516.2205" y2="684.3662" gradientTransform="matrix(-1 0 0 1 1109.4463 0)">
					<stop  offset="0" style="stop-color:#EB18FF;stop-opacity:0.7"/>
					<stop  offset="1" style="stop-color:#92DDFF;stop-opacity:0.7"/>
				</linearGradient>
				<path style="fill:url(#SVGID_30_);" d="M576.9,707c3.3-1,7.2,0.4,9,3.3c0.4-3.4,0.9-6.8,2.4-9.9c1.5-3.1,4.3-5.7,7.6-6.2
					c4.2-0.6,8.2,2.4,10.1,6.2c1.9,3.8,2,8.2,1.8,12.4c-0.4,10.1-2.4,20.1-5.8,29.6c2.1-1.5,4.7-2.4,7.4-2.4c1.5,0,3,0.3,4.2,1.1
					c2.1,1.5,2.6,4.6,1.9,7.1c0,0,0.3,5.7-22.3,32.6L580.8,763c-7.7-10.1-5.5-13.7-2.8-16.7c1.7-1.8,4.4-2.7,6.8-2.1
					c0.3,0.1,0.5,0.2,0.8,0.2c-0.5-1.5-1.1-2.9-1.8-4.2c-2.1-3.9-5.2-7.2-7.9-10.7c-2.7-3.5-5.1-7.5-5.3-12
					C570.3,713.1,572.7,708.3,576.9,707z"/>
			</g>
			<line class="st84" x1="593.2" y1="717.1" x2="593.2" y2="787.7"/>
			<line class="st84" x1="604.4" y1="751" x2="593.2" y2="764.9"/>
			<line class="st84" x1="600" y1="726.8" x2="593.2" y2="737.5"/>
			<line class="st84" x1="593.2" y1="727.9" x2="586.2" y2="717.7"/>
		</g>
	</g>
	<g>
		<ellipse class="st45" cx="581.6" cy="647.3" rx="8" ry="2"/>
		<g>
			<g class="st82">
				<linearGradient id="SVGID_31_" gradientUnits="userSpaceOnUse" x1="581.6033" y1="638.2303" x2="581.6033" y2="579.6152">
					<stop  offset="0" style="stop-color:#EB18FF;stop-opacity:0.7"/>
					<stop  offset="1" style="stop-color:#92DDFF;stop-opacity:0.7"/>
				</linearGradient>
				<path style="fill:url(#SVGID_31_);" d="M592.2,594.4c-2.1-0.7-4.7,0.3-5.9,2.2c-0.3-2.2-0.6-4.5-1.6-6.5c-1-2-2.8-3.7-5-4
					c-2.7-0.4-5.4,1.6-6.6,4.1c-1.2,2.5-1.3,5.3-1.2,8.1c0.3,6.6,1.6,13.1,3.8,19.3c-1.4-1-3.1-1.5-4.8-1.6c-1,0-2,0.2-2.8,0.7
					c-1.4,1-1.7,3-1.3,4.6c0,0-0.2,3.7,14.6,21.2l8.1-11.6c5-6.6,3.6-9,1.8-10.9c-1.1-1.2-2.9-1.7-4.5-1.4c-0.2,0-0.4,0.1-0.5,0.2
					c0.3-0.9,0.7-1.9,1.2-2.8c1.4-2.5,3.4-4.7,5.1-7c1.7-2.3,3.3-4.9,3.5-7.8C596.5,598.4,595,595.2,592.2,594.4z"/>
			</g>
			<line class="st86" x1="581.6" y1="600.9" x2="581.6" y2="647"/>
			<line class="st86" x1="574.3" y1="623.1" x2="581.6" y2="632.1"/>
			<line class="st86" x1="577.2" y1="607.3" x2="581.6" y2="614.2"/>
			<line class="st86" x1="581.6" y1="608" x2="586.2" y2="601.4"/>
		</g>
	</g>
	<g>
		<ellipse class="st45" cx="511.3" cy="792.4" rx="19.7" ry="4.8"/>
		
			<linearGradient id="SVGID_32_" gradientUnits="userSpaceOnUse" x1="475.5433" y1="492.8997" x2="483.9604" y2="500.1384" gradientTransform="matrix(-0.7071 -0.7071 -0.7071 0.7071 1206.3796 750.8209)">
			<stop  offset="0" style="stop-color:#33CC99;stop-opacity:0.4"/>
			<stop  offset="1" style="stop-color:#EB18FF;stop-opacity:0.2"/>
		</linearGradient>
		<path style="fill:url(#SVGID_32_);" d="M523.2,756.9c0,0-0.5,11.7-11.7,11.7C511.5,757.4,523.2,756.9,523.2,756.9z"/>
		
			<linearGradient id="SVGID_33_" gradientUnits="userSpaceOnUse" x1="872.1047" y1="869.058" x2="880.5217" y2="876.2967" gradientTransform="matrix(-0.7071 0.7071 0.7071 0.7071 507.92 -458.2956)">
			<stop  offset="0" style="stop-color:#33CC99;stop-opacity:0.4"/>
			<stop  offset="1" style="stop-color:#EB18FF;stop-opacity:0.2"/>
		</linearGradient>
		<path style="fill:url(#SVGID_33_);" d="M499.6,771.3c0,0,11.7,0.5,11.7,11.7C500,783,499.6,771.3,499.6,771.3z"/>
		<path class="st89" d="M533.1,711.8c0,0-21.6,10.4-21.6,23.2"/>
		<g>
			<circle class="st68" cx="533.2" cy="711.3" r="4.7"/>
		</g>
		<path class="st89" d="M489.8,711.8c0,0,21.6,10.4,21.6,23.2"/>
		<g>
			<circle class="st68" cx="489.8" cy="711.3" r="4.7"/>
			<path class="st90" d="M493.5,710.6c-0.3-1.1-1.1-2.3-3-2.7"/>
			<line class="st90" x1="489.3" y1="707.8" x2="489.1" y2="707.8"/>
		</g>
		<g>
			<circle class="st68" cx="489.8" cy="711.3" r="4.7"/>
		</g>
		<line class="st89" x1="511.5" y1="705.7" x2="511.5" y2="791.3"/>
		<g>
			<circle class="st68" cx="511.5" cy="704.5" r="4.7"/>
		</g>
		
			<linearGradient id="SVGID_34_" gradientUnits="userSpaceOnUse" x1="585.8789" y1="718.5148" x2="615.9698" y2="744.3929" gradientTransform="matrix(-1 0 0 1 1109.4463 0)">
			<stop  offset="0" style="stop-color:#33CC99"/>
			<stop  offset="1" style="stop-color:#EB18FF;stop-opacity:0.2"/>
		</linearGradient>
		<path style="fill:url(#SVGID_34_);" d="M489.3,723.9c0,12.2,9.9,22.1,22.1,22.1c12.2,0,22.1-9.9,22.1-22.1"/>
	</g>
	<g>
		<ellipse class="st45" cx="301.6" cy="707" rx="9.9" ry="2.4"/>
		<g>
			<g class="st82">
				<linearGradient id="SVGID_35_" gradientUnits="userSpaceOnUse" x1="301.662" y1="695.8962" x2="301.662" y2="623.6303">
					<stop  offset="0" style="stop-color:#EB18FF;stop-opacity:0.7"/>
					<stop  offset="1" style="stop-color:#92DDFF;stop-opacity:0.7"/>
				</linearGradient>
				<path style="fill:url(#SVGID_35_);" d="M314.8,641.8c-2.6-0.8-5.8,0.3-7.2,2.7c-0.4-2.7-0.7-5.5-1.9-8c-1.2-2.5-3.4-4.6-6.1-5
					c-3.4-0.5-6.6,2-8.1,5c-1.5,3-1.6,6.6-1.5,10c0.3,8.1,1.9,16.2,4.7,23.8c-1.7-1.2-3.8-1.9-5.9-1.9c-1.2,0-2.4,0.2-3.4,0.9
					c-1.7,1.2-2.1,3.7-1.6,5.7c0,0-0.2,4.6,18,26.2l10-14.3c6.2-8.1,4.4-11,2.3-13.4c-1.4-1.5-3.5-2.2-5.5-1.7
					c-0.2,0.1-0.4,0.1-0.6,0.2c0.4-1.2,0.9-2.3,1.5-3.4c1.7-3.1,4.2-5.8,6.3-8.6c2.2-2.8,4.1-6.1,4.3-9.6
					C320.1,646.8,318.2,642.9,314.8,641.8z"/>
			</g>
			<line class="st93" x1="301.7" y1="649.9" x2="301.7" y2="706.7"/>
			<line class="st93" x1="292.7" y1="677.2" x2="301.7" y2="688.4"/>
			<line class="st93" x1="296.2" y1="657.7" x2="301.6" y2="666.3"/>
			<line class="st93" x1="301.7" y1="658.6" x2="307.3" y2="650.4"/>
		</g>
	</g>
	<g>
		<ellipse class="st45" cx="360.7" cy="701.3" rx="15.8" ry="3.9"/>
		
			<linearGradient id="SVGID_36_" gradientUnits="userSpaceOnUse" x1="369.4087" y1="266.0448" x2="376.1748" y2="271.8636" gradientTransform="matrix(0.7071 -0.7071 0.7071 0.7071 -96.9333 750.8209)">
			<stop  offset="0" style="stop-color:#33CC99;stop-opacity:0.4"/>
			<stop  offset="1" style="stop-color:#EB18FF;stop-opacity:0.2"/>
		</linearGradient>
		<path style="fill:url(#SVGID_36_);" d="M351.1,672.8c0,0,0.4,9.4,9.4,9.4C360.5,673.1,351.1,672.8,351.1,672.8z"/>
		
			<linearGradient id="SVGID_37_" gradientUnits="userSpaceOnUse" x1="641.6964" y1="976.028" x2="648.4625" y2="981.8468" gradientTransform="matrix(0.7071 0.7071 -0.7071 0.7071 601.5264 -458.2956)">
			<stop  offset="0" style="stop-color:#33CC99;stop-opacity:0.4"/>
			<stop  offset="1" style="stop-color:#EB18FF;stop-opacity:0.2"/>
		</linearGradient>
		<path class="st79" d="M370.1,684.3c0,0-9.4,0.4-9.4,9.4C369.7,693.8,370.1,684.3,370.1,684.3z"/>
		<path class="st96" d="M343.1,636.5c0,0,17.4,8.4,17.4,18.6"/>
		<g>
			<circle class="st68" cx="343.1" cy="636.1" r="3.8"/>
		</g>
		<path class="st96" d="M377.9,636.5c0,0-17.4,8.4-17.4,18.6"/>
		<g>
			<circle class="st68" cx="378" cy="636.1" r="3.8"/>
			<path class="st97" d="M375,635.5c0.2-0.9,0.9-1.9,2.4-2.2"/>
			<line class="st97" x1="378.4" y1="633.3" x2="378.5" y2="633.3"/>
		</g>
		<g>
			<circle class="st68" cx="378" cy="636.1" r="3.8"/>
		</g>
		<line class="st96" x1="360.5" y1="631.6" x2="360.5" y2="700.4"/>
		<g>
			<circle class="st68" cx="360.5" cy="630.7" r="3.8"/>
		</g>
		<linearGradient id="SVGID_38_" gradientUnits="userSpaceOnUse" x1="350.8082" y1="641.8966" x2="374.9968" y2="662.6989">
			<stop  offset="0" style="stop-color:#33CC99"/>
			<stop  offset="1" style="stop-color:#EB18FF;stop-opacity:0.2"/>
		</linearGradient>
		<path class="st81" d="M378.3,646.2c0,9.8-8,17.8-17.8,17.8s-17.8-8-17.8-17.8"/>
	</g>
	<g>
		<ellipse class="st45" cx="47.4" cy="800" rx="12.3" ry="3"/>
		<g>
			<g class="st82">
				<linearGradient id="SVGID_39_" gradientUnits="userSpaceOnUse" x1="47.4643" y1="786.1516" x2="47.4643" y2="696.2523">
					<stop  offset="0" style="stop-color:#EB18FF;stop-opacity:0.7"/>
					<stop  offset="1" style="stop-color:#92DDFF;stop-opacity:0.7"/>
				</linearGradient>
				<path class="st83" d="M63.7,718.9c-3.3-1-7.2,0.4-9,3.3c-0.4-3.4-0.9-6.8-2.4-9.9c-1.5-3.1-4.3-5.7-7.6-6.2
					c-4.2-0.6-8.2,2.4-10.1,6.2c-1.9,3.8-2,8.2-1.8,12.4c0.4,10.1,2.4,20.1,5.8,29.6c-2.1-1.5-4.7-2.4-7.4-2.4c-1.5,0-3,0.3-4.2,1.1
					c-2.1,1.5-2.6,4.6-1.9,7.1c0,0-0.3,5.7,22.3,32.6l12.4-17.8c7.7-10.1,5.5-13.7,2.8-16.7c-1.7-1.8-4.4-2.7-6.8-2.1
					c-0.3,0.1-0.5,0.2-0.8,0.2c0.5-1.5,1.1-2.9,1.8-4.2c2.1-3.9,5.2-7.2,7.9-10.7c2.7-3.5,5.1-7.5,5.3-12
					C70.4,725,68,720.2,63.7,718.9z"/>
			</g>
			<line class="st84" x1="47.5" y1="729" x2="47.5" y2="799.6"/>
			<line class="st84" x1="36.3" y1="762.9" x2="47.5" y2="776.8"/>
			<line class="st84" x1="40.7" y1="738.7" x2="47.4" y2="749.3"/>
			<line class="st84" x1="47.5" y1="739.8" x2="54.5" y2="729.6"/>
		</g>
	</g>
	<g>
		<ellipse class="st45" cx="120.9" cy="792.9" rx="19.7" ry="4.8"/>
		
			<linearGradient id="SVGID_40_" gradientUnits="userSpaceOnUse" x1="137.732" y1="155.7403" x2="146.1491" y2="162.979" gradientTransform="matrix(0.7071 -0.7071 0.7071 0.7071 -96.9333 750.8209)">
			<stop  offset="0" style="stop-color:#33CC99;stop-opacity:0.4"/>
			<stop  offset="1" style="stop-color:#EB18FF;stop-opacity:0.2"/>
		</linearGradient>
		<path class="st85" d="M109,757.4c0,0,0.5,11.7,11.7,11.7C120.7,757.8,109,757.4,109,757.4z"/>
		
			<linearGradient id="SVGID_41_" gradientUnits="userSpaceOnUse" x1="534.9453" y1="1206.8693" x2="543.3623" y2="1214.1079" gradientTransform="matrix(0.7071 0.7071 -0.7071 0.7071 601.5264 -458.2956)">
			<stop  offset="0" style="stop-color:#33CC99;stop-opacity:0.4"/>
			<stop  offset="1" style="stop-color:#EB18FF;stop-opacity:0.2"/>
		</linearGradient>
		<path class="st87" d="M132.6,771.7c0,0-11.7,0.5-11.7,11.7C132.1,783.5,132.6,771.7,132.6,771.7z"/>
		<path class="st89" d="M99.1,712.2c0,0,21.6,10.4,21.6,23.2"/>
		<g>
			<circle class="st68" cx="99" cy="711.8" r="4.7"/>
		</g>
		<path class="st89" d="M142.4,712.2c0,0-21.6,10.4-21.6,23.2"/>
		<g>
			<circle class="st68" cx="142.4" cy="711.8" r="4.7"/>
			<path class="st90" d="M138.7,711.1c0.3-1.1,1.1-2.3,3-2.7"/>
			<line class="st90" x1="142.9" y1="708.2" x2="143.1" y2="708.2"/>
		</g>
		<g>
			<circle class="st68" cx="142.4" cy="711.8" r="4.7"/>
		</g>
		<line class="st89" x1="120.7" y1="706.2" x2="120.7" y2="791.8"/>
		<g>
			<circle class="st68" cx="120.7" cy="705" r="4.7"/>
		</g>
		<linearGradient id="SVGID_42_" gradientUnits="userSpaceOnUse" x1="108.6026" y1="718.9757" x2="138.6934" y2="744.8538">
			<stop  offset="0" style="stop-color:#33CC99"/>
			<stop  offset="1" style="stop-color:#EB18FF;stop-opacity:0.2"/>
		</linearGradient>
		<path class="st88" d="M142.8,724.3c0,12.2-9.9,22.1-22.1,22.1s-22.1-9.9-22.1-22.1"/>
	</g>
	<g>
		<ellipse class="st45" cx="144.1" cy="545.1" rx="2.9" ry="0.7"/>
		<g>
			<g class="st82">
				<linearGradient id="SVGID_43_" gradientUnits="userSpaceOnUse" x1="144.1424" y1="541.7797" x2="144.1424" y2="520.4738">
					<stop  offset="0" style="stop-color:#EB18FF;stop-opacity:0.7"/>
					<stop  offset="1" style="stop-color:#92DDFF;stop-opacity:0.7"/>
				</linearGradient>
				<path class="st91" d="M148,525.8c-0.8-0.2-1.7,0.1-2.1,0.8c-0.1-0.8-0.2-1.6-0.6-2.3c-0.4-0.7-1-1.4-1.8-1.5
					c-1-0.1-1.9,0.6-2.4,1.5c-0.4,0.9-0.5,1.9-0.4,2.9c0.1,2.4,0.6,4.8,1.4,7c-0.5-0.4-1.1-0.6-1.7-0.6c-0.4,0-0.7,0.1-1,0.3
					c-0.5,0.4-0.6,1.1-0.5,1.7c0,0-0.1,1.4,5.3,7.7l2.9-4.2c1.8-2.4,1.3-3.3,0.7-3.9c-0.4-0.4-1-0.6-1.6-0.5c-0.1,0-0.1,0-0.2,0.1
					c0.1-0.3,0.3-0.7,0.4-1c0.5-0.9,1.2-1.7,1.9-2.5c0.6-0.8,1.2-1.8,1.3-2.8S149,526.1,148,525.8z"/>
			</g>
			<line class="st104" x1="144.1" y1="528.2" x2="144.1" y2="545"/>
			<line class="st104" x1="141.5" y1="536.3" x2="144.1" y2="539.6"/>
			<line class="st104" x1="142.5" y1="530.5" x2="144.1" y2="533.1"/>
			<line class="st104" x1="144.1" y1="530.8" x2="145.8" y2="528.4"/>
		</g>
	</g>
	<g>
		<ellipse class="st45" cx="161.5" cy="543.4" rx="4.7" ry="1.1"/>
		
			<linearGradient id="SVGID_44_" gradientUnits="userSpaceOnUse" x1="332.6451" y1="29.4426" x2="334.64" y2="31.1582" gradientTransform="matrix(0.7071 -0.7071 0.7071 0.7071 -96.9333 750.8209)">
			<stop  offset="0" style="stop-color:#33CC99;stop-opacity:0.4"/>
			<stop  offset="1" style="stop-color:#EB18FF;stop-opacity:0.2"/>
		</linearGradient>
		<path class="st92" d="M158.7,535c0,0,0.1,2.8,2.8,2.8C161.5,535.1,158.7,535,158.7,535z"/>
		
			<linearGradient id="SVGID_45_" gradientUnits="userSpaceOnUse" x1="394.825" y1="1015.2056" x2="396.8198" y2="1016.9211" gradientTransform="matrix(0.7071 0.7071 -0.7071 0.7071 601.5264 -458.2956)">
			<stop  offset="0" style="stop-color:#33CC99;stop-opacity:0.4"/>
			<stop  offset="1" style="stop-color:#EB18FF;stop-opacity:0.2"/>
		</linearGradient>
		<path class="st94" d="M164.3,538.4c0,0-2.8,0.1-2.8,2.8C164.2,541.1,164.3,538.4,164.3,538.4z"/>
		<path class="st107" d="M156.4,524.3c0,0,5.1,2.5,5.1,5.5"/>
		<g>
			<circle class="st68" cx="156.4" cy="524.2" r="1.1"/>
		</g>
		<path class="st107" d="M166.6,524.3c0,0-5.1,2.5-5.1,5.5"/>
		<g>
			<circle class="st68" cx="166.6" cy="524.2" r="1.1"/>
			<path class="st108" d="M165.8,524c0.1-0.3,0.3-0.5,0.7-0.7"/>
			<line class="st108" x1="166.8" y1="523.3" x2="166.8" y2="523.3"/>
		</g>
		<g>
			<circle class="st68" cx="166.6" cy="524.2" r="1.1"/>
		</g>
		<line class="st107" x1="161.5" y1="522.8" x2="161.5" y2="543.1"/>
		<g>
			<circle class="st68" cx="161.5" cy="522.5" r="1.1"/>
		</g>
		<linearGradient id="SVGID_46_" gradientUnits="userSpaceOnUse" x1="158.632" y1="525.8591" x2="165.7635" y2="531.9922">
			<stop  offset="0" style="stop-color:#33CC99"/>
			<stop  offset="1" style="stop-color:#EB18FF;stop-opacity:0.2"/>
		</linearGradient>
		<path class="st95" d="M166.7,527.1c0,2.9-2.3,5.2-5.2,5.2s-5.2-2.3-5.2-5.2"/>
	</g>
	<g>
		<ellipse class="st45" cx="90.7" cy="640.3" rx="14.5" ry="3.6"/>
		
			<linearGradient id="SVGID_47_" gradientUnits="userSpaceOnUse" x1="220.685" y1="33.9664" x2="226.862" y2="39.2787" gradientTransform="matrix(0.7071 -0.7071 0.7071 0.7071 -96.9333 750.8209)">
			<stop  offset="0" style="stop-color:#33CC99;stop-opacity:0.4"/>
			<stop  offset="1" style="stop-color:#EB18FF;stop-opacity:0.2"/>
		</linearGradient>
		<path class="st98" d="M81.9,614.2c0,0,0.3,8.6,8.6,8.6C90.6,614.6,81.9,614.2,81.9,614.2z"/>
		
			<linearGradient id="SVGID_48_" gradientUnits="userSpaceOnUse" x1="408.35" y1="1125.0497" x2="414.527" y2="1130.3619" gradientTransform="matrix(0.7071 0.7071 -0.7071 0.7071 601.5264 -458.2956)">
			<stop  offset="0" style="stop-color:#33CC99;stop-opacity:0.4"/>
			<stop  offset="1" style="stop-color:#EB18FF;stop-opacity:0.2"/>
		</linearGradient>
		<path class="st99" d="M99.3,624.8c0,0-8.6,0.3-8.6,8.6C98.9,633.4,99.3,624.8,99.3,624.8z"/>
		<path class="st112" d="M74.7,581.1c0,0,15.9,7.7,15.9,17"/>
		<g>
			<circle class="st68" cx="74.6" cy="580.8" r="3.4"/>
		</g>
		<path class="st112" d="M106.4,581.1c0,0-15.9,7.7-15.9,17"/>
		<g>
			<circle class="st68" cx="106.5" cy="580.8" r="3.4"/>
			<path class="st113" d="M103.8,580.3c0.2-0.8,0.8-1.7,2.2-2"/>
			<line class="st113" x1="106.8" y1="578.2" x2="107" y2="578.2"/>
		</g>
		<g>
			<circle class="st68" cx="106.5" cy="580.8" r="3.4"/>
		</g>
		<line class="st112" x1="90.6" y1="576.7" x2="90.6" y2="639.5"/>
		<g>
			<circle class="st68" cx="90.6" cy="575.8" r="3.4"/>
		</g>
		<linearGradient id="SVGID_49_" gradientUnits="userSpaceOnUse" x1="81.6791" y1="586.076" x2="103.7617" y2="605.0671">
			<stop  offset="0" style="stop-color:#33CC99"/>
			<stop  offset="1" style="stop-color:#EB18FF;stop-opacity:0.2"/>
		</linearGradient>
		<path class="st100" d="M106.8,590c0,9-7.3,16.2-16.2,16.2S74.3,599,74.3,590"/>
	</g>
	<g>
		<line class="st115" x1="321.4" y1="753.4" x2="347.6" y2="753.4"/>
		<line class="st115" x1="323.6" y1="759.7" x2="349.7" y2="759.7"/>
		<line class="st115" x1="317.6" y1="766.1" x2="343.8" y2="766.1"/>
		<line class="st115" x1="328.3" y1="772.4" x2="354.4" y2="772.4"/>
	</g>
	<g>
		<line class="st116" x1="605.8" y1="583.2" x2="622.8" y2="583.2"/>
		<line class="st116" x1="607.2" y1="587.3" x2="624.2" y2="587.3"/>
		<line class="st116" x1="603.4" y1="591.4" x2="620.3" y2="591.4"/>
		<line class="st116" x1="610.3" y1="595.5" x2="627.2" y2="595.5"/>
	</g>
	<g>
		<path class="st52" d="M76,529.8l-6.8-15h-5.1h-0.2h-5.1l-6.8,15c0,0,4,2.1,11.9,2.2v0c0,0,0.1,0,0.1,0c0,0,0.1,0,0.1,0v0
			C71.9,531.9,76,529.8,76,529.8z"/>
		<ellipse class="st45" cx="63.9" cy="539.5" rx="27.2" ry="3.9"/>
		<g>
			<path class="st47" d="M50.3,511.4c0,0-19.6-0.1-13.7,27.3c0,0,7.3-15.5,19.2-15.8L50.3,511.4z"/>
			<path class="st47" d="M77.4,511.4c0,0,19.6-0.1,13.7,27.3c0,0-7.3-15.5-19.2-15.8L77.4,511.4z"/>
		</g>
		<path class="st46" d="M75,525.4c0,0.5-4.9,1-11,1s-11-0.4-11-1l-0.1-0.1c0,0-11-21.8-11-47.5S64,440.2,64,440.2
			s22.1,11.9,22.1,37.6S75,525.3,75,525.4"/>
		<path class="st48" d="M64,458.9c6.1,0,11.7-1.1,16.1-2.8c-6.5-10.8-16.1-16-16.1-16s-9.5,5.1-16.1,16
			C52.3,457.9,57.9,458.9,64,458.9z"/>
		<g>
			<path class="st117" d="M76.1,464.5c1.4-0.4,2.8-0.8,4-1.3"/>
			<path class="st117" d="M76.5,466c1.4-0.4,2.8-0.8,4-1.3"/>
			<path class="st117" d="M77.1,467.5c1.4-0.4,2.8-0.8,4-1.3"/>
		</g>
		<g>
			<path class="st47" d="M64,543.1c-8.2-30.7-0.7-32-0.7-32h1.3C64.7,511.1,72.2,512.4,64,543.1"/>
		</g>
		<path class="st118" d="M55.1,451.2c0,0,3.2-5.7,6.3-6.9"/>
		<path class="st119" d="M85.3,470C82.8,482.1,74,520.5,64,526.3c0,0,0,0,0,0c6.1,0,11-0.4,11-1l0-0.1c0,0,11-21.8,11-47.5
			C86.1,475,85.8,472.4,85.3,470z"/>
		<circle class="st119" cx="64.9" cy="483.5" r="14.5"/>
		<circle class="st120" cx="64" cy="482.8" r="13"/>
		<g>
			<circle class="st121" cx="63.9" cy="482.8" r="13.1"/>
			<path class="st122" d="M54.7,492c-5.1-5.1-5.1-13.4,0-18.5s13.4-5.1,18.5,0"/>
		</g>
		<circle class="st123" cx="64" cy="482.8" r="13"/>
		<g>
			<g>
				<circle class="st48" cx="64.2" cy="469.8" r="0.7"/>
				<circle class="st48" cx="64.2" cy="495.8" r="0.7"/>
			</g>
			<g>
				<circle class="st48" cx="51.2" cy="482.8" r="0.7"/>
				<circle class="st48" cx="77.2" cy="482.8" r="0.7"/>
			</g>
			<g>
				<circle class="st48" cx="55" cy="473.6" r="0.7"/>
				<circle class="st48" cx="73.4" cy="492" r="0.7"/>
			</g>
			<g>
				<circle class="st48" cx="55" cy="492" r="0.7"/>
				<circle class="st48" cx="73.4" cy="473.6" r="0.7"/>
			</g>
		</g>
		<g>
			<rect x="52" y="500.7" class="st48" width="0.6" height="7.7"/>
			<rect x="53" y="500.7" class="st48" width="0.6" height="7.7"/>
			<path class="st124" d="M58.9,505.1h-3.6c-0.4,0-0.7-0.3-0.7-0.7v-3.7"/>
			<path class="st125" d="M58,508.3h-7.5c-0.5,0-0.9-0.4-0.9-0.9v-5.9c0-0.5,0.4-0.9,0.9-0.9h7.8c0.3,0,0.6,0.2,0.6,0.6v6.2
				C58.9,508,58.5,508.3,58,508.3z"/>
			<path class="st125" d="M49.7,505.4v-3.2c0-1.3,0-1.5,1.5-1.5h2.5"/>
		</g>
		<g>
			<g>
				<circle class="st47" cx="48.8" cy="458.6" r="0.7"/>
				<circle class="st47" cx="51.7" cy="459.4" r="0.7"/>
				<circle class="st47" cx="54.6" cy="460.2" r="0.7"/>
				<circle class="st47" cx="57.8" cy="460.5" r="0.7"/>
				<circle class="st47" cx="61" cy="460.9" r="0.7"/>
			</g>
			<g>
				<circle class="st47" cx="79.5" cy="458.4" r="0.7"/>
				<circle class="st47" cx="76.6" cy="459.2" r="0.7"/>
				<circle class="st47" cx="73.6" cy="460" r="0.7"/>
				<circle class="st47" cx="70.5" cy="460.3" r="0.7"/>
				<circle class="st47" cx="67.3" cy="460.6" r="0.7"/>
			</g>
		</g>
		<circle class="st47" cx="64.1" cy="460.9" r="0.7"/>
		<line class="st118" x1="63" y1="443.5" x2="63.1" y2="443.5"/>
	</g>
	<linearGradient id="SVGID_50_" gradientUnits="userSpaceOnUse" x1="711.1056" y1="635.0804" x2="753.117" y2="758.4889">
		<stop  offset="0" style="stop-color:#EB18FF;stop-opacity:0.5"/>
		<stop  offset="1" style="stop-color:#92DDFF;stop-opacity:0.6"/>
	</linearGradient>
	<path class="st101" d="M692.8,734.5c0,0-44.4-42.3-40.9-94c0,0,44.9,28,57.6,70.4c0,0-32.7-39.2-9.5-80.8c0,0,31.2,24.1,32.1,74.8
		c0,0-4.2-36.6,23.7-48.1c0,0,12.1,27.6-3.9,48.2c0,0,10.6-26.1,40-34.3c0,0,3.9,49.2-27,70.1S692.8,734.5,692.8,734.5z"/>
	
		<linearGradient id="SVGID_51_" gradientUnits="userSpaceOnUse" x1="676.9743" y1="818.0081" x2="718.9857" y2="941.4166" gradientTransform="matrix(0.9801 -0.1987 0.1987 0.9801 -138.8244 -26.2712)">
		<stop  offset="0" style="stop-color:#EB18FF;stop-opacity:0.5"/>
		<stop  offset="1" style="stop-color:#92DDFF;stop-opacity:0.6"/>
	</linearGradient>
	<path class="st102" d="M689,741.9c0,0-51.9-32.6-58.8-84c0,0,49.6,18.5,70.4,57.6c0,0-39.9-31.9-25.3-77.3c0,0,35.4,17.4,46.4,67
		c0,0-11.3-35,13.6-51.9c0,0,17.4,24.7,5.7,48c0,0,5.2-27.7,32.3-41.6c0,0,13.6,47.5-12.6,74.1C734.6,760.3,689,741.9,689,741.9z"/>
	
		<linearGradient id="SVGID_52_" gradientUnits="userSpaceOnUse" x1="-1116.5006" y1="643.2047" x2="-1074.4893" y2="766.6132" gradientTransform="matrix(-1 0 0 1 -371.6 0)">
		<stop  offset="0" style="stop-color:#EB18FF;stop-opacity:0.5"/>
		<stop  offset="1" style="stop-color:#92DDFF;stop-opacity:0.6"/>
	</linearGradient>
	<path class="st103" d="M763.2,742.6c0,0,44.4-42.3,40.9-94c0,0-44.9,28-57.6,70.4c0,0,32.7-39.2,9.5-80.8c0,0-31.2,24.1-32.1,74.8
		c0,0,4.2-36.6-23.7-48.1c0,0-12.1,27.6,3.9,48.2c0,0-10.6-26.1-40-34.3c0,0-3.9,49.2,27,70.1C722.2,769.6,763.2,742.6,763.2,742.6z
		"/>
	<linearGradient id="SVGID_53_" gradientUnits="userSpaceOnUse" x1="-20.4501" y1="547.556" x2="2.2693" y2="614.2944">
		<stop  offset="0" style="stop-color:#EB18FF;stop-opacity:0.5"/>
		<stop  offset="1" style="stop-color:#92DDFF;stop-opacity:0.6"/>
	</linearGradient>
	<path class="st105" d="M-30.4,601.3c0,0-24-22.9-22.1-50.8c0,0,24.3,15.1,31.1,38.1c0,0-17.7-21.2-5.1-43.7c0,0,16.9,13,17.4,40.5
		c0,0-2.2-19.8,12.8-26c0,0,6.6,14.9-2.1,26.1c0,0,5.7-14.1,21.6-18.6c0,0,2.1,26.6-14.6,37.9S-30.4,601.3-30.4,601.3z"/>
	
		<linearGradient id="SVGID_54_" gradientUnits="userSpaceOnUse" x1="-11.3126" y1="586.4144" x2="11.4069" y2="653.1528" gradientTransform="matrix(0.9801 -0.1987 0.1987 0.9801 -138.8244 -26.2712)">
		<stop  offset="0" style="stop-color:#EB18FF;stop-opacity:0.5"/>
		<stop  offset="1" style="stop-color:#92DDFF;stop-opacity:0.6"/>
	</linearGradient>
	<path class="st106" d="M-32.4,605.3c0,0-28.1-17.6-31.8-45.4c0,0,26.8,10,38.1,31.1c0,0-21.6-17.2-13.7-41.8
		c0,0,19.1,9.4,25.1,36.2c0,0-6.1-18.9,7.4-28.1c0,0,9.4,13.3,3.1,26c0,0,2.8-15,17.5-22.5c0,0,7.4,25.7-6.8,40.1
		S-32.4,605.3-32.4,605.3z"/>
	
		<linearGradient id="SVGID_55_" gradientUnits="userSpaceOnUse" x1="-369.426" y1="551.9495" x2="-346.7065" y2="618.688" gradientTransform="matrix(-1 0 0 1 -371.6 0)">
		<stop  offset="0" style="stop-color:#EB18FF;stop-opacity:0.5"/>
		<stop  offset="1" style="stop-color:#92DDFF;stop-opacity:0.6"/>
	</linearGradient>
	<path class="st109" d="M7.7,605.7c0,0,24-22.9,22.1-50.8c0,0-24.3,15.1-31.1,38.1c0,0,17.7-21.2,5.1-43.7c0,0-16.9,13-17.4,40.5
		c0,0,2.2-19.8-12.8-26c0,0-6.6,14.9,2.1,26.1c0,0-5.7-14.1-21.6-18.6c0,0-2.1,26.6,14.6,37.9S7.7,605.7,7.7,605.7z"/>
</g>
<g id="Fog_Overlay_1_">
	<g class="st12">
		
			<linearGradient id="SVGID_56_" gradientUnits="userSpaceOnUse" x1="-489.3701" y1="-139.2085" x2="502.5966" y2="-139.2085" gradientTransform="matrix(1 0 0 -1 0 812)">
			<stop  offset="0" style="stop-color:#00A0DF"/>
			<stop  offset="1" style="stop-color:#EB18FF;stop-opacity:0.2"/>
		</linearGradient>
		<path class="st110" d="M491.8,927.7c-22.8-45.6-57.2-88-104.5-107.2c-60.8-24.6-134.7-8.2-190.7-42.4c-14.5-8.9-27-20.8-41.7-29.4
			c-14.7-8.6-33-13.6-48.7-7.1c-9.8,4-17.5,12-27.3,16.1c-24.4,10.1-51.4-7-77.8-7.2c-41.6-0.3-72.7,40.6-113.6,47.9
			c-36,6.5-71.3-14.1-107.8-15.2c-9.9-0.3-19.8,0.8-29.5-0.5c-19.2-2.7-36.2-14.6-55.5-16.4c-27.2-2.5-51.9,15.6-78.9,19.4
			c-15.8,2.2-31.9-0.6-47.9-0.3s-33.2,4.5-43.1,17l0,0c-21.6,21.6-15.5,55.3-1.2,82.4c14.2,27.1,39.7,46.3,65.7,62.3
			c26,16.1,53.7,30.2,76,51.1c20.3,19.1,35.4,43,54,63.8c51.1,57.2,130.2,88.1,206.6,80.8c23.3-2.2,46.5-7.8,69.9-6.7
			c29.6,1.4,57.5,13.4,86,21.1s60.8,11,86.4-3.9c32.2-18.7,43.5-58.7,56.1-93.7c12.7-35,36.1-73.4,73.3-75.6
			c20.9-1.2,40.4,9.7,59.8,17.5c18.3,7.4,37.5,12.2,57.1,14.3c18.5,2,37.8,1.5,54.8-6s31.3-23.1,33.1-41.6
			C503.9,954.2,498.2,940.4,491.8,927.7z"/>
	</g>
	<g class="st12">
		
			<linearGradient id="SVGID_57_" gradientUnits="userSpaceOnUse" x1="243.0013" y1="-61.0287" x2="1293.8212" y2="-61.0287" gradientTransform="matrix(1 0 0 -1 0 812)">
			<stop  offset="0" style="stop-color:#6B3CFF"/>
			<stop  offset="1" style="stop-color:#EB18FF;stop-opacity:0.2"/>
		</linearGradient>
		<path class="st111" d="M250.9,843.8c-1.6-14.3,10.5-27,23.9-32s28.2-4.6,42.5-5.8c13.9-1.2,27.6-4.1,40.8-8.7
			c25.5-8.8,49.6-23.7,76.6-24.4c12.6-0.3,25.2,2.6,37.7,1.8c12.4-0.8,24.3-5.2,36.2-8.9c71-22.2,148.8-22,219.7,0.5
			c15.3,4.9,30.3,10.8,46.2,13.2c38.2,6,77.3-8.4,115.7-3.5c25.7,3.3,50.2,15.1,76.1,15c57.6-0.1,106.9-57.8,163.5-46.9
			c15,2.9,28.7,10.5,42,18.1c23.6,13.3,47.3,26.7,70.9,40c14.8,8.4,30.1,17.1,40.4,30.6c10.4,13.5,14.8,33.1,6.1,47.6
			c-13.7,22.7-46.5,20-73,18.3c-50.4-3.2-101.7,8.5-145.7,33.3c-28.3,15.9-53.7,37.2-83.5,50.2c-33.3,14.5-70.3,18-106.6,18.3
			c-105.6,0.8-210.7-24-316.1-17c-62,4.1-123.2,19.2-185.3,19.8c-24.7,0.3-51.2-2.4-70.1-18.3c-17.4-14.6-24.9-37.5-36.8-56.9
			c-8.5-13.9-19.6-26.4-25.5-41.6c-5.9-15.2-5.2-34.7,7.3-45.1"/>
	</g>
</g>
</svg>
