<?xml version="1.0" encoding="utf-8"?>
<!-- Generator: Adobe Illustrator 23.0.1, SVG Export Plug-In . SVG Version: 6.00 Build 0)  -->
<svg version="1.0" id="Layer_1" xmlns="http://www.w3.org/2000/svg" xmlns:xlink="http://www.w3.org/1999/xlink" x="0px" y="0px"
	 viewBox="0 0 183 113.1" enable-background="new 0 0 183 113.1" xml:space="preserve">
<g>
	<path fill="#EB18FF" d="M171.5,77.8l8-1.3l0-30.9l-8,1.3L171.5,77.8z M175.5,80.6c-2.8,0.4-5,3-5,5.9c0,2.8,2.3,4.8,5,4.4
		c2.8-0.4,5-3.1,5-6C180.5,82,178.3,80.1,175.5,80.6 M162.7,70.2l4.8-0.8l0-6.8l-4.8,0.8l0-9.6l-7.9,1.2l0,9.6l-2.7,0.4l0,6.8
		l2.7-0.4l0,21.5l7.9-1.2L162.7,70.2z M123.6,69.6l0,16.6c0,8.2,4.1,11.9,12.3,10.6c8.2-1.3,12.4-6.3,12.4-14.5l0-16.6l-7.9,1.2
		l0,15.3c0,3.2-0.5,7.2-4.5,7.8c-4,0.6-4.5-3.1-4.5-6.4l0-15.3L123.6,69.6z M105.6,78.7c4-0.6,6.5,3,6.5,6.9c0,3.8-2.5,8.3-6.5,8.9
		c-4,0.6-6.5-3.1-6.5-6.9C99.1,83.8,101.6,79.3,105.6,78.7 M105.6,71.6c-8.6,1.4-14.5,8.6-14.5,17.4c0,8.8,5.8,14.1,14.5,12.7
		c8.7-1.4,14.5-8.6,14.5-17.3C120.1,75.5,114.2,70.2,105.6,71.6 M74.9,99.4c-4,0.6-6.5-3.1-6.5-6.9c0-3.8,2.5-8.3,6.5-8.9
		c4-0.6,6.5,3.1,6.5,6.9C81.4,94.2,78.9,98.8,74.9,99.4 M61.3,107.8l7.9-1.2l0-2.6l0.1,0c1.6,2.1,4.5,2.9,7.3,2.4
		c8.1-1.3,12.8-9.5,12.8-17.2c0-7.4-4.8-14.2-12.6-12.9c-2.9,0.5-5.8,2.2-7.6,4.7l0-51.7l-7.9,1.2L61.3,107.8z M42,104.6
		c-4,0.6-6.5-3.1-6.5-6.9c0-3.8,2.5-8.3,6.5-8.9s6.5,3.1,6.6,6.9C48.6,99.4,46.1,104,42,104.6 M55.6,80.4l-7.8,1.2l0,2.7
		c-1.9-2-4.8-2.8-7.7-2.4c-7.9,1.3-12.6,9.4-12.6,16.9c0,7.7,4.6,14.5,12.7,13.2c2.9-0.5,5.8-2.2,7.5-4.7l0.1,0l0,2.6l7.8-1.2
		L55.6,80.4z"/>
	<path fill="#EB18FF" d="M113.2,1.6l-7.9,1.2l0,48.8l7.9-1.2l0-12l0.1,0l9.1,10.6l10.3-1.6l-12.5-13.9l11.6-14.3l-10.2,1.6
		l-8.3,11.7l-0.1,0L113.2,1.6z M82.9,27l-7.9,1.2l0,28.3l7.9-1.2l0-14c0-3.4,0.1-8.8,4.8-9.5c4.4-0.7,4.3,3.7,4.2,7.1l0,15l7.9-1.2
		l0-17.3c0-6.6-2.2-11.6-9.6-10.4c-2.8,0.4-5.5,1.9-7.2,4.6l-0.1,0L82.9,27z M65.2,13.2c-2.6,0.4-4.7,2.9-4.7,5.5
		c0,2.6,2.1,4.4,4.7,4c2.6-0.4,4.7-2.9,4.7-5.5C69.9,14.6,67.8,12.8,65.2,13.2 M30.5,14.8l0,48.8l7.9-1.2l0-14
		c0-3.4,0.1-8.8,4.8-9.5c4.4-0.7,4.3,3.7,4.2,7.1l0,15l7.9-1.2l0-17.3c0-6.6-2.2-11.6-9.6-10.4c-2.8,0.4-5.5,1.9-7.2,4.4l-0.1,0
		l0-22.9L30.5,14.8z M19.1,29.3l8.5-1.4l0-7.4l-25.3,4l0,7.4l8.5-1.4l0,36l8.3-1.3L19.1,29.3z"/>
</g>
</svg>
