<?xml version="1.0" encoding="utf-8"?>
<!-- Generator: Adobe Illustrator 23.0.1, SVG Export Plug-In . SVG Version: 6.00 Build 0)  -->
<svg version="1.0" xmlns="http://www.w3.org/2000/svg" xmlns:xlink="http://www.w3.org/1999/xlink" x="0px" y="0px"
	 viewBox="0 0 20 20" enable-background="new 0 0 20 20" xml:space="preserve">
<g id="Background">
</g>
<g id="Fog">
	<g opacity="0.69">
		
			<linearGradient id="SVGID_1_" gradientUnits="userSpaceOnUse" x1="132.2716" y1="-694.0748" x2="1528.8707" y2="-694.0748" gradientTransform="matrix(-1.6692 6.710710e-02 -5.716539e-02 -1.4219 312.4207 -703.2333)">
			<stop  offset="0" style="stop-color:#EB18FF;stop-opacity:0.5"/>
			<stop  offset="9.930713e-02" style="stop-color:#DD20FD;stop-opacity:0.5497"/>
			<stop  offset="0.2884" style="stop-color:#B736F8;stop-opacity:0.6442"/>
			<stop  offset="0.5476" style="stop-color:#7A5AF0;stop-opacity:0.7738"/>
			<stop  offset="0.8637" style="stop-color:#268AE4;stop-opacity:0.9318"/>
			<stop  offset="1" style="stop-color:#00A0DF"/>
		</linearGradient>
		<path fill="url(#SVGID_1_)" d="M110.4,162.9c-4.9,33.4-13.3,53.7-47.5,70.8c-58,29-122.4-9.7-188.5-17.8
			c-89.7-11-163.2,68.9-253.6,77c-75.8,6.8-148.6-38.3-223.7-27.1c-81.6,12.1-147.5,88.1-228.2,73.6c-35.8-6.5-68.4-30.9-104.4-24.2
			c-17.4,3.2-31.8,13.3-45.5,23.1c-66.6,47.7-154.1,98.2-232.5,68.1c-49.8-19.1-90.2-69.3-143.5-57.9c-20.8,4.4-37.2,17.8-52.5,30.7
			c-59.1,49.6-118.8,99.9-160.8,160.8c-8.9,12.9-18.1,27.1-34.3,32.7c-22.4,7.7-47.9-4.5-71.3,0.2c-24.6,4.9-39.6,27.2-43,48.5
			c-3.4,21.3,1.6,42.7,1.7,64.2c0,41.2-19.5,82.4-53.2,112.3c-34.7,30.7-86.6,54.8-92.2,97c-3.8,28.5,14,63.4-11.3,82.5
			c-19.4,14.7-49.8,7.1-72.1-3.7c-87.1-41.9-145.4-118.2-177.1-199.2s-39.9-167.4-47.8-252.7c-12.8-137.9-25.6-275.7-38.4-413.6
			c-5.9-63.4-10.7-131.3,26.4-187c28.3-42.4,77.5-71.9,128.4-94.1c148.2-64.7,319.7-78.8,484.9-70.2s327.4,38.4,491.2,56.9
			C-850-160.6-614.1-156-399.2-86.3c154,50,292.7,132.9,399.9,239.2c14.3,14.1,30.2,29.8,52.1,31.7c14.8,1.3,29.4-4.2,44.4-4.5
			c14.9-0.3,32.5,8.4,30.2,21"/>
	</g>
	<g opacity="0.69">
		
			<linearGradient id="SVGID_2_" gradientUnits="userSpaceOnUse" x1="-4289.4102" y1="-2141.6223" x2="-3567.7681" y2="-2141.6223" gradientTransform="matrix(2.9925 -0.5882 0.2744 1.3963 12342.6006 1027.7098)">
			<stop  offset="0" style="stop-color:#6B3CFF"/>
			<stop  offset="1" style="stop-color:#EB18FF;stop-opacity:0.2"/>
		</linearGradient>
		<path fill="url(#SVGID_2_)" d="M-1053.5,623.4c2.5-18,7.9-38.9,38.6-53.3c52.1-24.3,115.4-5.6,177.3-12.1
			c84-8.8,147.3-61.7,230.7-80.5c69.9-15.7,140.4-4.3,209.5-22.2c75-19.4,131.5-69.1,207.3-74.6c33.7-2.5,65.5,4.8,98.5-4.4
			c16-4.5,28.7-12,40.8-19.2c58.9-35.2,137-75.4,211.7-72.5c47.4,1.8,88.1,21.1,136.9,6.6c19-5.6,33.4-15.2,46.8-24.2
			c51.8-35,104.1-70.5,139.3-108.6c7.4-8,15.1-16.9,29.8-22.3c20.3-7.6,44.7-5.4,66.2-11.6c22.5-6.5,35.1-20.4,36.9-31.8
			c1.9-11.5-4.2-21.7-5.6-32.7c-2.6-21.2,12.9-45.5,42.4-66.3c30.3-21.4,77.1-42.2,79.6-64.7c1.7-15.3-17-30.3,5.4-44.2
			c17.1-10.7,45.8-11.7,67.2-9.8c83.6,7.4,142.4,37.3,177,73.8c34.5,36.5,47.5,79.6,60.2,122.2c20.5,68.8,41,137.6,61.5,206.4
			c9.4,31.6,18.1,65.7-12.9,100.3c-23.6,26.4-67.5,49.4-113.4,69.1c-133.6,57.1-292,92.1-446,114.4
			C378.4,583.2,225.9,594.1,72.5,611c-213.9,23.6-433.2,59.3-637.2,58.2c-146.2-0.8-280.2-21.1-386.3-58.4c-14.1-5-30-10.4-50.4-7.9
			c-13.8,1.7-27.1,6.9-40.9,9.5s-30.7,0.9-29.3-5.9"/>
	</g>
</g>
<g id="Sky">
	<g id="Layer_12">
	</g>
	<g>
		<path fill="#FFFFFF" d="M18.6,4.5H1.4c-0.7,0-1.3-0.6-1.3-1.3v0c0-0.7,0.6-1.3,1.3-1.3h17.2c0.7,0,1.3,0.6,1.3,1.3v0
			C19.9,3.9,19.4,4.5,18.6,4.5z"/>
		<path fill="#FFFFFF" d="M18.6,11.2H1.4c-0.7,0-1.3-0.6-1.3-1.3v0c0-0.7,0.6-1.3,1.3-1.3h17.2c0.7,0,1.3,0.6,1.3,1.3v0
			C19.9,10.6,19.4,11.2,18.6,11.2z"/>
		<path fill="#FFFFFF" d="M18.6,17.9H1.4c-0.7,0-1.3-0.6-1.3-1.3v0c0-0.7,0.6-1.3,1.3-1.3h17.2c0.7,0,1.3,0.6,1.3,1.3v0
			C19.9,17.3,19.4,17.9,18.6,17.9z"/>
	</g>
</g>
<g id="Mountains">
</g>
<g id="Trees">
</g>
<g id="Floor">
</g>
<g id="Dekoration">
</g>
<g id="Mask">
</g>
<g id="Character">
</g>
<g id="Lines">
</g>
<g id="Text" display="none">
</g>
<g id="Fog_Overlay">
</g>
</svg>
