<?xml version="1.0" encoding="utf-8"?>
<!-- Generator: Adobe Illustrator 24.0.0, SVG Export Plug-In . SVG Version: 6.00 Build 0)  -->
<svg version="1.1" id="Layer_1" xmlns="http://www.w3.org/2000/svg" xmlns:xlink="http://www.w3.org/1999/xlink" x="0px" y="0px"
	 viewBox="0 0 360 295" style="enable-background:new 0 0 360 295;" xml:space="preserve">
<style type="text/css">
	.st0{opacity:0.35;enable-background:new    ;}
	.st1{fill:#A4AAFF;}
	.st2{display:none;}
	.st3{opacity:0.46;fill:#90A9FF;enable-background:new    ;}
	.st4{fill:#36009F;}
	.st5{fill:#90A9FF;}
	.st6{fill:#5C5EFF;}
	.st7{fill:#4C25D0;}
	.st8{fill:none;stroke:#36009F;stroke-width:2.214;stroke-linecap:round;stroke-miterlimit:10;}
	.st9{fill:none;stroke:#FFFFFF;stroke-width:3.0833;stroke-linecap:round;stroke-miterlimit:10;}
	.st10{fill:#FFFFFF;}
	.st11{opacity:0.19;fill:#506EFF;}
	.st12{opacity:0.83;}
	.st13{opacity:0.56;fill:#FFFFFF;}
	.st14{fill:none;stroke:#FFFFFF;stroke-width:1.5417;stroke-miterlimit:10;}
	.st15{opacity:0.3;fill:#4C25D0;}
</style>
<g id="Fog">
</g>
<g id="Sky">
	<g id="Layer_12">
	</g>
</g>
<g id="Mountains">
</g>
<g id="Trees">
</g>
<g id="Floor">
</g>
<g id="Dekoration">
</g>
<g id="Mask" class="st0">
	<path class="st1" d="M89.8,69c97.4-25.1,177.5-30,238.2,45.3c21.4,26.6,41.3,83.1,24.4,122.6c-25.6,59.8-73.5,34.9-123.5,36.6
		c-21.1,0.7-37.5,15-57.7,17.8c-34.7,4.8-40.5-3.9-73.7-10.6c-53-10.8-80-23.2-91-84.6C-9.2,108.3,2.9,91.4,89.8,69z"/>
</g>
<g id="Lines">
</g>
<g id="Text" class="st2">
</g>
<g id="Fog_Overlay">
</g>
<g>
	<ellipse class="st3" cx="122.26" cy="242.19" rx="60.59" ry="10.18"/>
	<g>
		<g>
			<g>
				<g>
					<g>
						<g>
							<g>
								<rect x="103.96" y="202.61" class="st4" width="13.64" height="35.85"/>
							</g>
						</g>
						<g>
							<g>
								<rect x="103.96" y="189.95" class="st4" width="13.64" height="35.85"/>
							</g>
						</g>
					</g>
				</g>
				<path class="st5" d="M105.8,230.45c0,0-18.6-1.46-18.68,2.39c-0.07,3.95,5.3,2.7,5.3,2.7s-7.58,1.04-4.44,4.57
					c4.23,4.75,29.63-1.65,29.63-1.65v-10.09L105.8,230.45z"/>
				<rect x="103.96" y="225.8" class="st5" width="13.64" height="10.57"/>
				<path class="st6" d="M117.25,227.58h-12.94c-0.85,0-1.53-0.69-1.53-1.53v-0.49c0-0.85,0.69-1.53,1.53-1.53h12.94
					c0.85,0,1.53,0.69,1.53,1.53v0.49C118.79,226.89,118.1,227.58,117.25,227.58z"/>
				<path class="st6" d="M103.7,241.16c3.46-0.48,6.84-1.13,9.4-1.68c-0.93-1.42-2.53-2.36-4.35-2.36
					C106.29,237.13,104.23,238.85,103.7,241.16z"/>
				<circle class="st6" cx="112.94" cy="235.58" r="1.85"/>
				<circle class="st6" cx="109.65" cy="233.53" r="1.03"/>
			</g>
			<g>
				<g>
					<g>
						<g>
							<g>
								
									<rect x="130.14" y="202.61" transform="matrix(-1 -4.519552e-11 4.519552e-11 -1 273.9164 441.0727)" class="st4" width="13.64" height="35.85"/>
							</g>
						</g>
						<g>
							<g>
								
									<rect x="130.14" y="189.95" transform="matrix(-1 -4.479540e-11 4.479540e-11 -1 273.9164 415.7473)" class="st4" width="13.64" height="35.85"/>
							</g>
						</g>
					</g>
				</g>
				<path class="st5" d="M141.95,230.45c0,0,18.6-1.46,18.68,2.39c0.07,3.95-5.3,2.7-5.3,2.7s7.58,1.04,4.44,4.57
					c-4.23,4.75-29.63-1.65-29.63-1.65v-10.09L141.95,230.45z"/>
				<rect x="130.14" y="225.8" class="st5" width="13.64" height="10.57"/>
				<path class="st6" d="M143.41,227.58h-12.94c-0.85,0-1.53-0.69-1.53-1.53v-0.49c0-0.85,0.69-1.53,1.53-1.53h12.94
					c0.85,0,1.53,0.69,1.53,1.53v0.49C144.94,226.89,144.26,227.58,143.41,227.58z"/>
				<path class="st6" d="M153.15,230.27c-1.98-0.11-4.08-0.12-5.92-0.07c-0.01,0.12-0.02,0.23-0.02,0.36c0,1.64,1.33,2.98,2.98,2.98
					s2.98-1.33,2.98-2.98C153.16,230.46,153.16,230.36,153.15,230.27z"/>
				<circle class="st6" cx="146.17" cy="234.08" r="1.03"/>
				<circle class="st6" cx="149.38" cy="235.9" r="1.52"/>
			</g>
		</g>
		<path class="st7" d="M61.45,159.68c0-40.05,27.95-31.23,62.42-31.23s62.42-8.82,62.42,31.23s-27.95,52.46-62.42,52.46
			S61.45,199.73,61.45,159.68z"/>
		<g>
			<g>
				<circle class="st6" cx="130.86" cy="159.05" r="3.08"/>
				<g>
					<circle class="st7" cx="132.31" cy="157.76" r="0.49"/>
					<circle class="st7" cx="129.42" cy="160.33" r="0.49"/>
				</g>
			</g>
			<g>
				<circle class="st6" cx="130.86" cy="173.36" r="3.08"/>
				<g>
					<circle class="st7" cx="132.31" cy="172.07" r="0.49"/>
					<circle class="st7" cx="129.42" cy="174.65" r="0.49"/>
				</g>
			</g>
			<g>
				<circle class="st6" cx="130.86" cy="187.67" r="3.08"/>
				<g>
					<circle class="st7" cx="132.31" cy="186.39" r="0.49"/>
					<circle class="st7" cx="129.42" cy="188.96" r="0.49"/>
				</g>
			</g>
			<g>
				<circle class="st6" cx="130.86" cy="201.99" r="3.08"/>
				<g>
					<circle class="st7" cx="132.31" cy="200.7" r="0.49"/>
					<circle class="st7" cx="129.42" cy="203.28" r="0.49"/>
				</g>
			</g>
		</g>
		<line class="st8" x1="123.87" y1="140.64" x2="123.87" y2="207.87"/>
		<g>
			<g>
				<path class="st4" d="M68.49,126.22c0,0-41.02,51.95,26.22,68.87l1.97-15.56c0,0-39.83-10.51-22-47.46
					C74.69,132.07,76.48,120.27,68.49,126.22z"/>
				<path class="st5" d="M102,182.89c0,0,10.66-3.64,12.17-1.08c1.81,3.07-1.47,5.01-3.5,4.69c0,0,7.23-0.8,7.47,2.66
					c0.25,3.52-4.45,4.06-8.54,2.58c0,0,6.5,1.16,5.63,3.88c-0.89,2.79-9.52,2.83-17.95-2.83C88.84,187.14,102,182.89,102,182.89z"
					/>
				<path class="st6" d="M99.95,197.31l-5.06-0.99c-1.69-0.33-2.79-1.97-2.46-3.66l2.51-12.78c0.33-1.69,1.97-2.79,3.66-2.46
					l5.06,0.99c1.69,0.33,2.79,1.97,2.46,3.66l-2.51,12.78C103.28,196.54,101.64,197.64,99.95,197.31z"/>
			</g>
			<g>
				<path class="st4" d="M179.25,126.22c0,0,41.02,51.95-26.22,68.87l-1.97-15.56c0,0,39.83-10.51,22-47.46
					C173.05,132.07,171.26,120.27,179.25,126.22z"/>
				<path class="st5" d="M145.75,182.89c0,0-10.66-3.64-12.17-1.08c-1.81,3.07,1.47,5.01,3.5,4.69c0,0-7.23-0.8-7.47,2.66
					c-0.25,3.52,4.45,4.06,8.54,2.58c0,0-6.5,1.16-5.63,3.88c0.89,2.79,9.52,2.83,17.95-2.83
					C158.9,187.14,145.75,182.89,145.75,182.89z"/>
				<path class="st6" d="M147.79,197.31l5.06-0.99c1.69-0.33,2.79-1.97,2.46-3.66l-2.51-12.78c-0.33-1.69-1.97-2.79-3.66-2.46
					l-5.06,0.99c-1.69,0.33-2.79,1.97-2.46,3.66l2.51,12.78C144.46,196.54,146.1,197.64,147.79,197.31z"/>
			</g>
		</g>
		<g>
			<g>
				<path class="st6" d="M98.99,62.57c-5.83,5.39-17.2,2.57-25.39-6.29s-13.37-26.85-7.54-32.24c5.83-5.39,20.48,3.86,28.66,12.73
					S104.83,57.18,98.99,62.57z"/>
				<path class="st7" d="M71.36,25.04c0,0,13.07,2.97,23.32,17.02l-2.55,1.96C92.13,44.02,87.88,35.16,71.36,25.04z"/>
			</g>
			<g>
				<path class="st6" d="M148.75,62.57c5.83,5.39,17.2,2.57,25.39-6.29s13.37-26.85,7.54-32.24c-5.83-5.39-20.48,3.86-28.66,12.73
					C144.83,45.63,142.92,57.18,148.75,62.57z"/>
				<path class="st7" d="M176.38,25.04c0,0-13.07,2.97-23.32,17.02l2.55,1.96C155.61,44.02,159.86,35.16,176.38,25.04z"/>
			</g>
		</g>
		<path class="st5" d="M184.64,92.53c0,33.56-27.22,49.82-60.79,49.82S63.1,126.09,63.1,92.53s27.21-70.09,60.77-70.09
			S184.64,58.97,184.64,92.53z"/>
		<circle class="st6" cx="124" cy="72.77" r="28.7"/>
		<path class="st6" d="M166.98,80.58c0,9.8,7.65,17.82,17.31,18.41c0.23-2.08,0.36-4.23,0.36-6.46c0-9.73-2.29-19.7-6.35-28.96
			C171.65,66.36,166.98,72.92,166.98,80.58z"/>
		<path class="st6" d="M63.22,96.33c6.12-1.15,10.75-6.51,10.75-12.96c0-5.24-3.06-9.77-7.49-11.9c-2.18,6.91-3.38,14.05-3.38,21.06
			C63.1,93.82,63.14,95.09,63.22,96.33z"/>
		<circle class="st6" cx="76.74" cy="96.05" r="3.41"/>
		<circle class="st6" cx="160.72" cy="89.69" r="2.71"/>
		<path class="st9" d="M78.23,64.44c0,0,3.13-8.97,11.76-15.29"/>
		<line class="st9" x1="93.97" y1="46.01" x2="94.28" y2="45.73"/>
		<g>
			<g>
				<circle class="st7" cx="147.83" cy="104.13" r="1.09"/>
				<circle class="st7" cx="145.65" cy="106.54" r="1.09"/>
				<circle class="st7" cx="145.65" cy="106.54" r="1.09"/>
				<circle class="st7" cx="150.02" cy="107.63" r="1.09"/>
				<circle class="st7" cx="146.51" cy="110.16" r="1.09"/>
				<circle class="st7" cx="151.93" cy="104.6" r="1.09"/>
				<circle class="st7" cx="150.84" cy="111.71" r="1.09"/>
				<circle class="st7" cx="154.11" cy="108.2" r="1.09"/>
			</g>
			<g>
				<circle class="st7" cx="100.17" cy="103.32" r="1.09"/>
				<circle class="st7" cx="102.35" cy="105.73" r="1.09"/>
				<circle class="st7" cx="102.35" cy="105.73" r="1.09"/>
				<circle class="st7" cx="97.98" cy="106.83" r="1.09"/>
				<circle class="st7" cx="101.49" cy="109.35" r="1.09"/>
				<circle class="st7" cx="96.07" cy="103.79" r="1.09"/>
				<circle class="st7" cx="97.16" cy="110.9" r="1.09"/>
				<circle class="st7" cx="93.89" cy="107.4" r="1.09"/>
			</g>
		</g>
		<g>
			<g>
				<path class="st6" d="M150.67,38.02c-0.52,0.89-2.99,1.13-4.85,0.06c-1.85-1.07-2.39-3.04-1.87-3.94
					c0.52-0.89,2.44-0.75,4.29,0.32C150.1,35.53,151.18,37.12,150.67,38.02z"/>
				<path class="st7" d="M149.37,3.18c-0.7,0.98-0.47,2.33,0.51,3.03l10.47,7.45l-5.33,7.49l-6.19-4.41
					c-0.98-0.7-2.33-0.47-3.03,0.51s-0.47,2.33,0.51,3.03l6.19,4.41l-6.59,9.26c-0.7,0.98-0.47,2.33,0.51,3.03
					c0.98,0.7,2.33,0.47,3.03-0.51l15.71-22.06c0.7-0.98,0.47-2.33-0.51-3.03L152.4,2.67C151.42,1.98,150.06,2.2,149.37,3.18z"/>
			</g>
			<g>
				<path class="st6" d="M97.07,38.02c0.52,0.89,2.99,1.13,4.85,0.06c1.85-1.07,2.39-3.04,1.87-3.94s-2.44-0.75-4.29,0.32
					C97.65,35.53,96.56,37.12,97.07,38.02z"/>
				<path class="st7" d="M98.38,3.18c0.7,0.98,0.47,2.33-0.51,3.03L87.4,13.66l5.33,7.49l6.19-4.41c0.98-0.7,2.33-0.47,3.03,0.51
					c0.7,0.98,0.47,2.33-0.51,3.03l-6.19,4.41l6.59,9.26c0.7,0.98,0.47,2.33-0.51,3.03s-2.33,0.47-3.03-0.51L82.6,14.41
					c-0.7-0.98-0.47-2.33,0.51-3.03l12.24-8.71C96.32,1.98,97.68,2.2,98.38,3.18z"/>
			</g>
		</g>
		<g>
			<path class="st4" d="M137.9,110.75c0,7.75-6.28,14.02-14.02,14.02s-14.02-6.28-14.02-14.02"/>
		</g>
		<path class="st6" d="M131.67,122.42c-1.7-1.56-4.55-2.87-7.79-2.87c-3.25,0-6.1,1.29-7.81,2.85c2.23,1.5,4.92,2.38,7.81,2.38
			C126.77,124.78,129.44,123.91,131.67,122.42z"/>
		<g>
			<path class="st10" d="M132.65,110.75v4.72c0,0.7-0.57,1.26-1.26,1.26h-3.06c-0.7,0-1.26-0.57-1.26-1.26v-4.72"/>
		</g>
		<circle class="st10" cx="123.87" cy="72.12" r="21.58"/>
		<g>
			<circle class="st5" cx="123.87" cy="72.12" r="11.49"/>
			<circle class="st4" cx="123.87" cy="72.12" r="8.52"/>
		</g>
		<circle class="st10" cx="115.35" cy="63.78" r="5.98"/>
		<circle class="st6" cx="166.69" cy="97.54" r="3.94"/>
		<path class="st6" d="M131.09,32.66c4.48,0,8.24-3.08,9.28-7.23c-5.25-1.93-10.78-2.99-16.5-2.99c-0.78,0-1.55,0.03-2.32,0.06
			c-0.01,0.2-0.02,0.39-0.02,0.59C121.53,28.38,125.81,32.66,131.09,32.66z"/>
		<circle class="st6" cx="117.51" cy="31.71" r="3.19"/>
		<circle class="st6" cx="124.74" cy="35.08" r="1.82"/>
		<circle class="st11" cx="124" cy="72.77" r="28.7"/>
		<g class="st12">
			<path class="st13" d="M103.94,93.21c-11.32-11.09-11.51-29.27-0.42-40.59s29.27-11.51,40.59-0.42"/>
		</g>
		<circle class="st14" cx="124" cy="72.77" r="28.7"/>
		<path class="st15" d="M113.76,141.84c3.28,0.34,6.65,0.52,10.09,0.52c33.56,0,60.79-16.26,60.79-49.82
			c0-7.99-1.54-16.14-4.34-23.93C179.21,89.32,169.94,131.61,113.76,141.84z"/>
		<path class="st6" d="M123.87,151.22c0,0,53.79-0.39,53.79-31.67v-1.18c0,0-8.19,16.76-53.91,16.78
			c-45.72-0.02-53.7-16.78-53.7-16.78v1.18c0,31.28,53.79,31.67,53.79,31.67"/>
	</g>
</g>
</svg>
