<?xml version="1.0" encoding="utf-8"?>
<!-- Generator: Adobe Illustrator 24.0.0, SVG Export Plug-In . SVG Version: 6.00 Build 0)  -->
<svg version="1.1" id="Layer_1" xmlns="http://www.w3.org/2000/svg" xmlns:xlink="http://www.w3.org/1999/xlink" x="0px" y="0px"
	 viewBox="0 0 400 250" style="enable-background:new 0 0 400 250;" xml:space="preserve">
<style type="text/css">
	.st0{fill:#9700B8;}
	.st1{fill:#EB18FF;}
	.st2{fill:#A4AAFF;}
	.st3{fill:#4A00D0;fill-opacity:0.28;}
	.st4{fill:#6B3CFF;}
	.st5{fill:none;stroke:#FFFFFF;stroke-width:0.7638;stroke-linecap:round;stroke-miterlimit:10;}
	.st6{fill:none;stroke:#FFFFFF;stroke-width:1.5276;stroke-linecap:round;stroke-miterlimit:10;}
	.st7{display:none;}
	.st8{opacity:0.35;fill:#214978;}
	.st9{fill:#5D0081;}
	.st10{opacity:0.64;fill:#3E005A;}
	.st11{fill:none;stroke:#FFFFFF;stroke-width:2.5937;stroke-linecap:round;stroke-miterlimit:10;}
	.st12{opacity:0.3;fill:#3E005A;}
	.st13{fill:#FFFFFF;}
	.st14{fill:#F9A6FF;}
	.st15{opacity:0.45;}
	.st16{fill:none;stroke:#FFFFFF;stroke-width:1.2969;stroke-miterlimit:10;}
	.st17{opacity:0.45;fill:#FFFFFF;}
</style>
<g>
	<path class="st0" d="M88.3,83.9c0,0-14-10-8.3-15.4c0,0,1.6-1.6,5.3,4.5c0,0-5.3-7.4-1-9.3c3.8-1.7,4.4,8.3,4.4,8.3s-1.1-6.6,2-7.8
		c4.3-1.7,6.2,10.2,1.9,17.7"/>
	<path class="st1" d="M92.8,65.4L91.5,60c-0.1-0.5-0.8-0.5-0.9,0c-0.4,2-0.9,5.1-0.6,6.1c0.5,1.2,2,0.2,2.6-0.3
		C92.8,65.7,92.9,65.5,92.8,65.4z"/>
	<path class="st1" d="M86.3,64.7l-1.9-5.2c-0.2-0.5-0.8-0.4-0.9,0.1c-0.2,2.1-0.3,5.2,0.2,6.1c0.6,1.2,2-0.1,2.6-0.6
		C86.3,65.1,86.3,64.9,86.3,64.7z"/>
	<path class="st1" d="M81.9,69.7l-2.5-4.9c-0.2-0.4-0.9-0.3-0.9,0.2c0.1,2.1,0.3,5.2,0.9,6.1c0.8,1.1,2-0.3,2.5-0.9
		C82,70,82,69.8,81.9,69.7z"/>
</g>
<g id="Background">
</g>
<g id="Sky">
	<g id="Layer_12">
	</g>
</g>
<g id="Mountains">
</g>
<g id="Trees">
</g>
<g id="Floor">
</g>
<g id="Dekoration">
</g>
<g id="Mask">
</g>
<g>
	<g>
		<path class="st2" d="M111.1,27.4L47.8,55.2c0.7-0.3,1.4,0,1.7,0.7c0.3,0.7,0,1.4-0.7,1.7l1,2.1c0.7-0.3,1.4,0,1.7,0.7
			c0.3,0.7,0,1.4-0.7,1.7l1,2.1c0.7-0.3,1.4,0,1.7,0.7c0.3,0.7,0,1.4-0.7,1.7l1,2.1c0.7-0.3,1.4,0,1.7,0.7c0.3,0.7,0,1.4-0.7,1.7
			l1,2.1c0.7-0.3,1.4,0,1.7,0.7c0.3,0.7,0,1.4-0.7,1.7l1,2.1c0.7-0.3,1.4,0,1.7,0.7c0.3,0.7,0,1.4-0.7,1.7l1,2.1
			c0.7-0.3,1.4,0,1.7,0.7c0.3,0.7,0,1.4-0.7,1.7l1,2.1c0.7-0.3,1.4,0,1.7,0.7c0.3,0.7,0,1.4-0.7,1.7l63.3-27.9"/>
		<path class="st2" d="M113.1,31.9l-1-2.1"/>
		<path class="st2" d="M115,36.4l-1-2.1"/>
		<path class="st2" d="M121,49.8l-1-2.1"/>
		<path class="st2" d="M123,54.3l-1-2.1"/>
		<path class="st2" d="M124.9,58.8l-1-2.1"/>
		<path class="st3" d="M98.9,42.7c-3.5,1.5-5.1,5.7-3.6,9.1l0,0l0,0c-1.5-3.5-5.7-5.1-9.1-3.6c-3.5,1.5-5.1,5.7-3.6,9.1
			c1.9,5.3,19.2,9.3,19.2,9.3l0,0l0,0c0,0,8.7-15.4,6.1-20.4C106.4,42.8,102.4,41.2,98.9,42.7z"/>
		<path class="st4" d="M97.5,41.7c-3.5,1.5-5.1,5.7-3.6,9.1l0,0l0,0c-1.5-3.5-5.7-5.1-9.1-3.6c-3.5,1.5-5.1,5.7-3.6,9.1
			c1.9,5.3,19.2,9.3,19.2,9.3l0,0l0,0c0,0,8.7-15.4,6.1-20.4C105.1,41.7,101,40.1,97.5,41.7z"/>
		<path class="st5" d="M82.8,55.3c0-0.2-1-3.4,1.5-5.7"/>
		<line class="st5" x1="85.5" y1="48.7" x2="85.8" y2="48.6"/>
		<g>
			<circle class="st4" cx="74.4" cy="80.1" r="1"/>
			<circle class="st4" cx="72.6" cy="76.1" r="1"/>
			<circle class="st4" cx="70.8" cy="72" r="1"/>
			<circle class="st4" cx="69.3" cy="68.5" r="1"/>
			<circle class="st4" cx="67.5" cy="64.4" r="1"/>
			<circle class="st4" cx="65.8" cy="60.4" r="1"/>
			<circle class="st4" cx="64" cy="56.4" r="1"/>
			<circle class="st4" cx="62.5" cy="52.7" r="1"/>
		</g>
	</g>
	<line class="st6" x1="57" y1="57.3" x2="56.7" y2="56.4"/>
	<line class="st6" x1="58.2" y1="59.4" x2="62.3" y2="68.5"/>
	<g>
		<circle class="st3" cx="93.7" cy="37.8" r="1.4"/>
		<circle class="st3" cx="97" cy="38.6" r="1"/>
		<circle class="st3" cx="94.6" cy="41.1" r="0.5"/>
	</g>
</g>
<g id="Lines">
</g>
<g id="Text" class="st7">
</g>
<g id="Fog_Overlay">
</g>
<ellipse class="st8" cx="199.1" cy="237.1" rx="51.5" ry="8.7"/>
<g>
	<g>
		<path class="st0" d="M191,192.3c0,0,5.4,5.5-2.4,21.7c-0.3,0.7-0.8,1.5-1.2,2.1c-1.3,1.7-4.8,3.1-4.9-3c0,0-0.9,5.1-3.9,3.1
			c-2.4-1.6-4.3-14.4,5.7-24.2"/>
		<path class="st9" d="M178.2,129.6c-7.2,39.8,5.4,62.4,5.4,62.4l8.2,0.4c-6.8-11.6-1.6-50.5-0.3-59.3c0.2-1.1,0.3-1.8,0.3-1.8"/>
		<g>
			<path class="st1" d="M181.2,215.3c-0.7,1.8-2.5,3.6-1.5,6c0,0-2.7-1.4-1.8-6.4c0.1-0.6,0.3-1.2,0.8-1.5c0.6-0.4,1.5-0.7,2.2,0
				C181.3,213.9,181.4,214.7,181.2,215.3z"/>
		</g>
		<g>
			<path class="st1" d="M186.6,216.2c-0.4,1.8-2,3.9-0.7,6.2c0,0-2.8-1-2.6-6.2c0-0.6,0.1-1.2,0.6-1.6c0.6-0.5,1.4-0.9,2.2-0.3
				C186.6,214.8,186.8,215.6,186.6,216.2z"/>
		</g>
	</g>
	<path class="st1" d="M191.1,193.4H183c-0.9,0-1.7-0.8-1.7-1.7v-0.1c0-0.9,0.8-1.7,1.7-1.7h8.2c0.9,0,1.7,0.8,1.7,1.7v0.1
		C192.8,192.6,192.1,193.4,191.1,193.4z"/>
</g>
<path class="st0" d="M208.2,192.3c0,0-5.4,5.5,2.4,21.7c0.3,0.7,0.8,1.5,1.2,2.1c1.3,1.7,4.8,3.1,4.9-3c0,0,0.9,5.1,3.9,3.1
	c2.4-1.6,4.3-14.4-5.7-24.2"/>
<path class="st9" d="M221,129.6c7.2,39.8-5.4,62.4-5.4,62.4l-8.2,0.4c6.8-11.6,1.6-50.5,0.3-59.3c-0.2-1.1-0.3-1.8-0.3-1.8"/>
<g>
	<path class="st1" d="M218,215.3c0.7,1.8,2.5,3.6,1.5,6c0,0,2.7-1.4,1.8-6.4c-0.1-0.6-0.3-1.2-0.8-1.5c-0.6-0.4-1.5-0.7-2.2,0
		C217.9,213.9,217.8,214.7,218,215.3z"/>
</g>
<g>
	<path class="st1" d="M212.6,216.2c0.4,1.8,2,3.9,0.7,6.2c0,0,2.8-1,2.6-6.2c0-0.6-0.1-1.2-0.6-1.6c-0.6-0.5-1.4-0.9-2.2-0.3
		C212.6,214.8,212.4,215.6,212.6,216.2z"/>
</g>
<path class="st1" d="M208.1,193.4h8.2c0.9,0,1.7-0.8,1.7-1.7v-0.1c0-0.9-0.8-1.7-1.7-1.7h-8.2c-0.9,0-1.7,0.8-1.7,1.7v0.1
	C206.4,192.6,207.1,193.4,208.1,193.4z"/>
<path class="st1" d="M194.4,33.2c0,0,4.4-13.4-5.6-21.3c0,0,6.7,0.7,10,7.9c0,0-2.6-8.2,2.6-16.5c0,0-1,10.1,2.3,16.2
	c0,0,1.3-8,6.4-9.5c0,0-2.6,6.1-2.1,12.7s2.5,11.1,2.5,11.1L194.4,33.2z"/>
<g>
	<g>
		<g>
			<path class="st1" d="M148.4,31.5c0.3-28.3,22.7,17.2,51,17.5c28.3,0.3,51.7-44.7,51.4-16.4c-0.3,28.3-23.4,43.6-51.7,43.3
				C170.9,75.6,148.1,59.8,148.4,31.5z"/>
			<path class="st10" d="M250.8,32.6c0.1-6.3-1-9-3.1-9.3c0,0-0.4,24.7-16.8,35.1l2,8.4C243.7,59.6,250.6,48,250.8,32.6z"/>
			<path class="st10" d="M148.4,31.5c0.1-6.3,1.2-8.9,3.3-9.2c0,0-0.2,24.7,16.1,35.5l-2.1,8.4C154.9,58.7,148.2,47,148.4,31.5z"/>
		</g>
	</g>
</g>
<path class="st0" d="M257.9,119c0,37.4-26.1,54.2-58.2,54.2s-58.2-16.8-58.2-54.2s26.1-90.1,58.2-90.1S257.9,81.5,257.9,119z"/>
<path class="st1" d="M256.7,132.1c-13.1,7.2-32.6,15.5-57,15.5c-24.5,0-44-8.3-57-15.5c5.4,28.3,28.9,41.1,57,41.1
	S251.2,160.3,256.7,132.1z"/>
<path class="st9" d="M254.7,105c0.7,0,1.3-0.1,2-0.2c-1.1-7.2-2.9-14.7-5.4-22c-4.6,1.5-7.9,5.7-7.9,10.8
	C243.4,99.9,248.5,105,254.7,105z"/>
<circle class="st9" cx="154.8" cy="105.8" r="3.3"/>
<circle class="st9" cx="164.8" cy="98.2" r="5.3"/>
<circle class="st9" cx="237.2" cy="95.9" r="4.4"/>
<circle class="st9" cx="238.4" cy="85.7" r="2.2"/>
<path class="st9" d="M226.1,50.4h-4.6c-0.7,0-1.2-0.6-1.2-1.2v0c0-0.7,0.6-1.2,1.2-1.2h4.6c0.7,0,1.2,0.6,1.2,1.2v0
	C227.3,49.9,226.7,50.4,226.1,50.4z"/>
<path class="st9" d="M229.3,54h-4.6c-0.7,0-1.2-0.6-1.2-1.2v0c0-0.7,0.6-1.2,1.2-1.2h4.6c0.7,0,1.2,0.6,1.2,1.2v0
	C230.5,53.4,230,54,229.3,54z"/>
<path class="st9" d="M224.6,57.3H220c-0.7,0-1.2-0.6-1.2-1.2v0c0-0.7,0.6-1.2,1.2-1.2h4.6c0.7,0,1.2,0.6,1.2,1.2v0
	C225.9,56.8,225.3,57.3,224.6,57.3z"/>
<path class="st9" d="M158.1,129.6h4.6c0.7,0,1.2,0.6,1.2,1.2l0,0c0,0.7-0.6,1.2-1.2,1.2h-4.6c-0.7,0-1.2-0.6-1.2-1.2l0,0
	C156.9,130.1,157.4,129.6,158.1,129.6z"/>
<path class="st9" d="M154.9,126h4.6c0.7,0,1.2,0.6,1.2,1.2v0c0,0.7-0.6,1.2-1.2,1.2h-4.6c-0.7,0-1.2-0.6-1.2-1.2v0
	C153.6,126.6,154.2,126,154.9,126z"/>
<path class="st9" d="M159.5,122.7h4.6c0.7,0,1.2,0.6,1.2,1.2l0,0c0,0.7-0.6,1.2-1.2,1.2h-4.6c-0.7,0-1.2-0.6-1.2-1.2l0,0
	C158.3,123.2,158.8,122.7,159.5,122.7z"/>
<path class="st11" d="M173.4,51.1c0,0,8.4-10.9,18.7-11.7"/>
<line class="st11" x1="196.4" y1="39.1" x2="197.2" y2="39.1"/>
<path class="st12" d="M256.5,103.5c-14.6,31.5-40.3,52.8-76.2,67.5c6,1.5,12.5,2.3,19.3,2.3c32.2,0,58.2-16.8,58.2-54.2
	C257.9,114,257.4,108.8,256.5,103.5z"/>
<path class="st9" d="M199.9,75.1c-3.4,8.3-6.1,17.1-7.7,25.6c0.3,0,0.7,0,1,0c7.6,0,13.7-6.1,13.7-13.7
	C207,81.9,204.1,77.5,199.9,75.1z"/>
<g>
	<circle class="st1" cx="223.6" cy="108.7" r="1.2"/>
	<circle class="st1" cx="220.9" cy="111.5" r="1.2"/>
	<circle class="st1" cx="222.5" cy="115.5" r="1.2"/>
	<circle class="st1" cx="225" cy="112.3" r="1.2"/>
	<circle class="st1" cx="228" cy="108.7" r="1.2"/>
	<circle class="st1" cx="226.8" cy="116.5" r="1.2"/>
	<circle class="st1" cx="229.1" cy="112.6" r="1.2"/>
</g>
<g>
	<circle class="st1" cx="172.8" cy="108.7" r="1.2"/>
	<circle class="st1" cx="170.2" cy="111.5" r="1.2"/>
	<circle class="st1" cx="171.7" cy="115.5" r="1.2"/>
	<circle class="st1" cx="174.2" cy="112.3" r="1.2"/>
	<circle class="st1" cx="177.2" cy="108.7" r="1.2"/>
	<circle class="st1" cx="176" cy="116.5" r="1.2"/>
	<circle class="st1" cx="178.3" cy="112.6" r="1.2"/>
</g>
<g>
	<path class="st9" d="M212.3,119.4c0,7-5.7,12.7-12.7,12.7c-7,0-12.7-5.7-12.7-12.7"/>
</g>
<path class="st1" d="M206.6,130c-1.5-1.4-4.1-2.6-7-2.6c-2.9,0-5.5,1.2-7,2.6c2,1.4,4.4,2.1,7.1,2.1
	C202.2,132.1,204.6,131.3,206.6,130z"/>
<g>
	<path class="st13" d="M205.3,119.4v4.5c0,0.6-0.5,1.1-1.1,1.1h-2.6c-0.6,0-1.1-0.5-1.1-1.1v-4.5"/>
</g>
<g>
	<path class="st13" d="M199.1,119.4v4.5c0,0.6-0.5,1.1-1.1,1.1h-2.6c-0.6,0-1.1-0.5-1.1-1.1v-4.5"/>
</g>
<g>
	<g>
		<circle class="st1" cx="199.6" cy="84.3" r="25.4"/>
	</g>
	<g>
		<circle class="st13" cx="199.6" cy="84.3" r="17.6"/>
		<g>
			<circle class="st14" cx="199.6" cy="84.3" r="9.4"/>
			<circle class="st9" cx="199.6" cy="84.3" r="6.9"/>
		</g>
	</g>
	<g>
		<circle class="st13" cx="192.7" cy="77.5" r="4.9"/>
	</g>
	<g class="st15">
		<circle class="st13" cx="199.6" cy="84.3" r="25.4"/>
	</g>
	<g>
		<circle class="st16" cx="199.6" cy="84.3" r="25.4"/>
	</g>
</g>
<g>
	<path class="st9" d="M174.1,150.7h-12.7c-0.4,0-0.7-0.3-0.7-0.7l0,0c0-0.4,0.3-0.7,0.7-0.7h12.7c0.4,0,0.7,0.3,0.7,0.7l0,0
		C174.9,150.4,174.5,150.7,174.1,150.7z"/>
	<path class="st9" d="M174.1,153.4h-12.7c-0.4,0-0.7-0.3-0.7-0.7l0,0c0-0.4,0.3-0.7,0.7-0.7h12.7c0.4,0,0.7,0.3,0.7,0.7l0,0
		C174.9,153,174.5,153.4,174.1,153.4z"/>
	<path class="st9" d="M174.1,156h-12.7c-0.4,0-0.7-0.3-0.7-0.7l0,0c0-0.4,0.3-0.7,0.7-0.7h12.7c0.4,0,0.7,0.3,0.7,0.7l0,0
		C174.9,155.7,174.5,156,174.1,156z"/>
</g>
<path class="st17" d="M203.5,59.2c-13.9-2.2-26.9,7.3-29,21.2c-1.3,8.4,1.6,16.4,7.2,21.9l35.9-35.9
	C213.9,62.7,209.1,60.1,203.5,59.2z"/>
<path class="st9" d="M212.8,203.2c0-3-2.4-5.4-5.4-5.4c-0.4,0-0.7,0-1,0.1c-0.1,2.5,0.3,5.9,1.9,10.5
	C210.8,208.1,212.8,205.9,212.8,203.2z"/>
<circle class="st9" cx="214.9" cy="207.3" r="1.9"/>
<circle class="st9" cx="215.2" cy="203.5" r="0.8"/>
<circle class="st9" cx="189" cy="199.6" r="2.2"/>
<circle class="st9" cx="190.4" cy="195.7" r="1"/>
<g>
	<g>
		<path class="st0" d="M245.1,196c0.3-0.2,9.8-36.7,9.2-51.6c-0.6-12.6-0.7-16.9,1.6-17.4c2.3-0.5,3,5.5,3,5.5s2.2,29.7-10,64.1
			c0,0,5.5,12.7-0.6,14c0,0-1.8,0.5-1.8-5.3c0,0,0.6,7.3-3.1,6.8c-3.3-0.4,0.4-7.6,0.4-7.6s-1.9,5-4.6,4.5
			C235.5,208.6,239.1,199.4,245.1,196z"/>
		<path class="st1" d="M238.2,207.6l-1.3,4.2c-0.1,0.4,0.4,0.7,0.6,0.4c1.1-1.2,2.8-3.1,2.9-4c0.2-1.1-1.3-0.9-1.9-0.9
			C238.4,207.3,238.3,207.4,238.2,207.6z"/>
		<path class="st1" d="M242.5,210.7l-0.8,4.4c-0.1,0.4,0.4,0.6,0.7,0.3c1-1.4,2.4-3.4,2.4-4.3c0.1-1.1-1.4-0.8-2-0.6
			C242.6,210.5,242.5,210.6,242.5,210.7z"/>
		<path class="st1" d="M247.5,209.1l-0.3,4.4c0,0.4,0.5,0.6,0.7,0.2c0.8-1.5,2-3.7,1.9-4.6c-0.1-1.1-1.5-0.6-2.1-0.4
			C247.6,208.9,247.5,209,247.5,209.1z"/>
	</g>
	<path class="st9" d="M256.4,124.4c2.7,0,5,2.2,5,5v3.6h-9.9v-3.6C251.4,126.6,253.7,124.4,256.4,124.4z"/>
</g>
<path class="st1" d="M86.5,82"/>
<path class="st0" d="M88.1,81.2c0,0,3.1,49.1,54.6,49.1l1.6-5.2c0,0-43.8,3.2-51.4-43.9"/>
<path class="st9" d="M145.4,127.1c0-2.7-2.2-5-5-5h-3.6v9.9h3.6C143.2,132.1,145.4,129.9,145.4,127.1z"/>
<path class="st0" d="M89.8,69c0.3-1,1.5-1.5,2.4-1c1.6,0.9,3.5,2.8,2.7,6.7c-0.7,3.2-2.8,5.9-4.2,4C89.6,77.2,88.9,72,89.8,69z"/>
</svg>
