<?xml version="1.0" encoding="utf-8"?>
<!-- Generator: Adobe Illustrator 24.0.0, SVG Export Plug-In . SVG Version: 6.00 Build 0)  -->
<svg version="1.1" id="Layer_1" xmlns="http://www.w3.org/2000/svg" xmlns:xlink="http://www.w3.org/1999/xlink" x="0px" y="0px"
	 viewBox="0 0 360 295" style="enable-background:new 0 0 360 295;" xml:space="preserve">
<style type="text/css">
	.st0{opacity:0.35;enable-background:new    ;}
	.st1{fill:#F9A6FF;}
	.st2{display:none;}
	.st3{opacity:0.28;fill:#9700B8;enable-background:new    ;}
	.st4{fill:#9700B8;}
	.st5{fill:#5D0081;}
	.st6{fill:#EB18FF;}
	.st7{opacity:0.64;fill:#3E005A;}
	.st8{fill:none;stroke:#FFFFFF;stroke-width:2.8104;stroke-linecap:round;stroke-miterlimit:10;}
	.st9{opacity:0.3;fill:#3E005A;}
	.st10{fill:#FFFFFF;}
	.st11{opacity:0.45;}
	.st12{fill:none;stroke:#FFFFFF;stroke-width:1.4052;stroke-miterlimit:10;}
	.st13{opacity:0.45;fill:#FFFFFF;}
</style>
<g id="Fog">
</g>
<g id="Sky">
	<g id="Layer_12">
	</g>
</g>
<g id="Mountains">
</g>
<g id="Trees">
</g>
<g id="Floor">
</g>
<g id="Dekoration">
</g>
<g id="Mask" class="st0">
	<path class="st1" d="M246.8,284.5c-97.4,25.1-160.9-8.2-212.6-90.3c-18.2-28.9-44.9-84-28-123.5c25.6-59.8,73.8-20.3,123.7-22
		c21.1-0.7,37.5-15,57.7-17.8c34.7-4.8,40.5,3.9,73.7,10.6c53,10.8,83.7,10.4,94.7,71.8C371.7,201.1,333.7,262.1,246.8,284.5z"/>
</g>
<g id="Lines">
</g>
<g id="Text" class="st2">
</g>
<g id="Fog_Overlay">
</g>
<ellipse class="st3" cx="186.56" cy="257.63" rx="55.8" ry="9.38"/>
<g>
	<g>
		<g>
			<path class="st4" d="M177.83,205.92c0,0,5.86,5.96-2.65,23.53c-0.37,0.77-0.83,1.59-1.34,2.27c-1.42,1.89-5.17,3.34-5.3-3.25
				c0,0-0.97,5.56-4.24,3.31c-2.56-1.76-4.66-15.65,6.17-26.21"/>
			<path class="st5" d="M163.9,137.89c-7.77,43.1,5.81,67.6,5.81,67.6l8.93,0.43c-7.32-12.58-1.68-54.71-0.29-64.24
				c0.18-1.24,0.29-1.92,0.29-1.92"/>
			<g>
				<path class="st6" d="M167.18,230.81c-0.73,1.9-2.73,3.93-1.65,6.55c0,0-2.9-1.49-1.97-6.98c0.11-0.65,0.33-1.29,0.89-1.63
					c0.69-0.42,1.64-0.75,2.38,0.02C167.34,229.3,167.45,230.11,167.18,230.81z"/>
			</g>
			<g>
				<path class="st6" d="M173.08,231.79c-0.48,1.98-2.21,4.25-0.8,6.71c0,0-3.07-1.11-2.85-6.67c0.03-0.66,0.16-1.32,0.67-1.73
					c0.63-0.51,1.53-0.95,2.36-0.29C173.05,230.28,173.26,231.07,173.08,231.79z"/>
			</g>
		</g>
		<path class="st6" d="M177.96,207.03h-8.85c-1.02,0-1.84-0.82-1.84-1.84v-0.11c0-1.02,0.82-1.84,1.84-1.84h8.85
			c1.02,0,1.84,0.82,1.84,1.84v0.11C179.8,206.21,178.97,207.03,177.96,207.03z"/>
	</g>
	<path class="st4" d="M196.42,205.92c0,0-5.86,5.96,2.65,23.53c0.37,0.77,0.83,1.59,1.34,2.27c1.42,1.89,5.17,3.34,5.3-3.25
		c0,0,0.97,5.56,4.24,3.31c2.56-1.76,4.66-15.65-6.17-26.21"/>
	<path class="st5" d="M210.35,137.89c7.77,43.1-5.81,67.6-5.81,67.6l-8.93,0.43c7.32-12.58,1.68-54.71,0.29-64.24
		c-0.18-1.24-0.29-1.92-0.29-1.92"/>
	<g>
		<path class="st6" d="M207.07,230.81c0.73,1.9,2.73,3.93,1.65,6.55c0,0,2.9-1.49,1.97-6.98c-0.11-0.65-0.33-1.29-0.89-1.63
			c-0.69-0.42-1.64-0.75-2.38,0.02C206.92,229.3,206.8,230.11,207.07,230.81z"/>
	</g>
	<g>
		<path class="st6" d="M201.17,231.79c0.48,1.98,2.21,4.25,0.8,6.71c0,0,3.07-1.11,2.85-6.67c-0.03-0.66-0.16-1.32-0.67-1.73
			c-0.63-0.51-1.53-0.95-2.36-0.29C201.2,230.28,200.99,231.07,201.17,231.79z"/>
	</g>
	<path class="st6" d="M196.29,207.03h8.85c1.02,0,1.84-0.82,1.84-1.84v-0.11c0-1.02-0.82-1.84-1.84-1.84h-8.85
		c-1.02,0-1.84,0.82-1.84,1.84v0.11C194.45,206.21,195.28,207.03,196.29,207.03z"/>
	<path class="st6" d="M181.47,33.44c0,0,4.75-14.5-6.09-23.11c0,0,7.25,0.73,10.85,8.61c0,0-2.79-8.91,2.77-17.91
		c0,0-1.1,10.96,2.52,17.53c0,0,1.42-8.62,6.89-10.28c0,0-2.83,6.63-2.26,13.74s2.76,12.01,2.76,12.01L181.47,33.44z"/>
	<g>
		<g>
			<g>
				<path class="st6" d="M131.66,31.68c0.32-30.64,24.64,18.6,55.28,18.92c30.64,0.32,55.98-48.4,55.66-17.76
					c-0.32,30.64-25.33,47.19-55.97,46.87S131.33,62.32,131.66,31.68z"/>
				<path class="st7" d="M242.6,32.84c0.07-6.82-1.13-9.7-3.37-10.08c0,0-0.39,26.81-18.21,38.04l2.13,9.14
					C234.9,62.07,242.42,49.55,242.6,32.84z"/>
				<path class="st7" d="M131.66,31.68c0.07-6.82,1.33-9.68,3.58-10c0,0-0.17,26.81,17.41,38.41l-2.32,9.09
					C138.73,61.06,131.48,48.39,131.66,31.68z"/>
			</g>
		</g>
	</g>
	<path class="st4" d="M250.24,126.4c0,40.58-28.25,58.77-63.1,58.77s-63.1-18.2-63.1-58.77s28.25-97.68,63.1-97.68
		S250.24,85.83,250.24,126.4z"/>
	<path class="st6" d="M248.95,140.59c-14.14,7.77-35.32,16.79-61.81,16.81c-26.49-0.02-47.67-9.04-61.81-16.81
		c5.89,30.65,31.33,44.58,61.81,44.58C217.63,185.17,243.06,171.25,248.95,140.59z"/>
	<path class="st5" d="M246.87,111.24c0.74,0,1.46-0.07,2.16-0.19c-1.18-7.84-3.18-15.92-5.9-23.82c-4.96,1.58-8.56,6.23-8.56,11.71
		C234.58,105.74,240.08,111.24,246.87,111.24z"/>
	<circle class="st5" cx="138.56" cy="112.13" r="3.58"/>
	<circle class="st5" cx="149.43" cy="103.92" r="5.76"/>
	<circle class="st5" cx="227.86" cy="101.39" r="4.73"/>
	<circle class="st5" cx="229.11" cy="90.41" r="2.43"/>
	<path class="st5" d="M215.79,52.14h-4.98c-0.74,0-1.33-0.6-1.33-1.33l0,0c0-0.74,0.6-1.33,1.33-1.33h4.98
		c0.74,0,1.33,0.6,1.33,1.33l0,0C217.13,51.54,216.53,52.14,215.79,52.14z"/>
	<path class="st5" d="M219.28,55.99h-4.98c-0.74,0-1.33-0.6-1.33-1.33v0c0-0.74,0.6-1.33,1.33-1.33h4.98c0.74,0,1.33,0.6,1.33,1.33
		v0C220.62,55.4,220.02,55.99,219.28,55.99z"/>
	<path class="st5" d="M214.25,59.63h-4.98c-0.74,0-1.33-0.6-1.33-1.33v0c0-0.74,0.6-1.33,1.33-1.33h4.98c0.74,0,1.33,0.6,1.33,1.33
		l0,0C215.58,59.03,214.99,59.63,214.25,59.63z"/>
	<path class="st5" d="M142.15,137.92h4.98c0.74,0,1.33,0.6,1.33,1.33l0,0c0,0.74-0.6,1.33-1.33,1.33h-4.98
		c-0.74,0-1.33-0.6-1.33-1.33l0,0C140.81,138.52,141.41,137.92,142.15,137.92z"/>
	<path class="st5" d="M138.66,134.06h4.98c0.74,0,1.33,0.6,1.33,1.33l0,0c0,0.74-0.6,1.33-1.33,1.33h-4.98
		c-0.74,0-1.33-0.6-1.33-1.33l0,0C137.32,134.66,137.92,134.06,138.66,134.06z"/>
	<path class="st5" d="M143.69,130.43h4.98c0.74,0,1.33,0.6,1.33,1.33l0,0c0,0.74-0.6,1.33-1.33,1.33h-4.98
		c-0.74,0-1.33-0.6-1.33-1.33l0,0C142.36,131.03,142.95,130.43,143.69,130.43z"/>
	<path class="st8" d="M158.74,52.82c0,0,9.06-11.79,20.25-12.7"/>
	<line class="st8" x1="183.63" y1="39.86" x2="184.49" y2="39.86"/>
	<path class="st9" d="M248.81,109.62c-15.82,34.1-43.69,57.24-82.57,73.1c6.54,1.65,13.58,2.46,20.9,2.46
		c34.85,0,63.1-18.2,63.1-58.77C250.24,121.04,249.75,115.39,248.81,109.62z"/>
	<path class="st5" d="M187.5,78.89c-3.74,9.01-6.57,18.48-8.3,27.72c0.35,0.03,0.71,0.04,1.07,0.04c8.19,0,14.82-6.64,14.82-14.82
		C195.09,86.27,192.02,81.43,187.5,78.89z"/>
	<g>
		<circle class="st6" cx="213.13" cy="115.29" r="1.35"/>
		<circle class="st6" cx="210.25" cy="118.3" r="1.35"/>
		<circle class="st6" cx="211.94" cy="122.7" r="1.35"/>
		<circle class="st6" cx="214.65" cy="119.23" r="1.35"/>
		<circle class="st6" cx="217.91" cy="115.29" r="1.35"/>
		<circle class="st6" cx="216.56" cy="123.76" r="1.35"/>
		<circle class="st6" cx="219.06" cy="119.52" r="1.35"/>
	</g>
	<g>
		<circle class="st6" cx="158.1" cy="115.29" r="1.35"/>
		<circle class="st6" cx="155.22" cy="118.3" r="1.35"/>
		<circle class="st6" cx="156.91" cy="122.7" r="1.35"/>
		<circle class="st6" cx="159.62" cy="119.23" r="1.35"/>
		<circle class="st6" cx="162.88" cy="115.29" r="1.35"/>
		<circle class="st6" cx="161.53" cy="123.76" r="1.35"/>
		<circle class="st6" cx="164.03" cy="119.52" r="1.35"/>
	</g>
	<g>
		<path class="st5" d="M200.86,126.9c0,7.58-6.14,13.72-13.72,13.72c-7.58,0-13.72-6.14-13.72-13.72"/>
	</g>
	<path class="st6" d="M194.75,138.32c-1.67-1.53-4.45-2.81-7.62-2.81c-3.18,0-5.97,1.26-7.64,2.79c2.18,1.47,4.81,2.32,7.64,2.32
		C189.96,140.63,192.58,139.78,194.75,138.32z"/>
	<g>
		<path class="st10" d="M193.26,126.9v4.9c0,0.65-0.53,1.18-1.18,1.18h-2.86c-0.65,0-1.18-0.53-1.18-1.18v-4.9"/>
	</g>
	<g>
		<path class="st10" d="M186.56,126.9v4.9c0,0.65-0.53,1.18-1.18,1.18h-2.86c-0.65,0-1.18-0.53-1.18-1.18v-4.9"/>
	</g>
	<g>
		<g>
			<circle class="st6" cx="187.14" cy="88.88" r="27.53"/>
		</g>
		<g>
			<circle class="st10" cx="187.14" cy="88.88" r="19.06"/>
			<g>
				<circle class="st1" cx="187.14" cy="88.88" r="10.15"/>
				<circle class="st5" cx="187.14" cy="88.88" r="7.53"/>
			</g>
		</g>
		<g>
			<circle class="st10" cx="179.61" cy="81.51" r="5.28"/>
		</g>
		<g class="st11">
			<circle class="st10" cx="187.14" cy="88.88" r="27.53"/>
		</g>
		<g>
			<circle class="st12" cx="187.14" cy="88.88" r="27.53"/>
		</g>
	</g>
	<g>
		<path class="st5" d="M159.54,160.78h-13.79c-0.44,0-0.8-0.36-0.8-0.8l0,0c0-0.44,0.36-0.8,0.8-0.8h13.79c0.44,0,0.8,0.36,0.8,0.8
			l0,0C160.34,160.42,159.98,160.78,159.54,160.78z"/>
		<path class="st5" d="M159.54,163.68h-13.79c-0.44,0-0.8-0.36-0.8-0.8l0,0c0-0.44,0.36-0.8,0.8-0.8h13.79c0.44,0,0.8,0.36,0.8,0.8
			l0,0C160.34,163.32,159.98,163.68,159.54,163.68z"/>
		<path class="st5" d="M159.54,166.58h-13.79c-0.44,0-0.8-0.36-0.8-0.8l0,0c0-0.44,0.36-0.8,0.8-0.8h13.79c0.44,0,0.8,0.36,0.8,0.8
			l0,0C160.34,166.23,159.98,166.58,159.54,166.58z"/>
	</g>
	<path class="st13" d="M191.4,61.68c-15.02-2.35-29.11,7.92-31.46,22.94c-1.42,9.05,1.75,17.76,7.77,23.76l38.94-38.94
		C202.66,65.44,197.41,62.62,191.4,61.68z"/>
	<path class="st5" d="M201.41,217.72c0-3.2-2.6-5.8-5.8-5.8c-0.39,0-0.76,0.04-1.13,0.11c-0.14,2.72,0.29,6.45,2.05,11.41
		C199.29,223,201.41,220.61,201.41,217.72z"/>
	<circle class="st5" cx="203.65" cy="222.08" r="2.02"/>
	<circle class="st5" cx="204.08" cy="217.99" r="0.84"/>
	<circle class="st5" cx="175.66" cy="213.74" r="2.41"/>
	<circle class="st5" cx="177.2" cy="209.55" r="1.08"/>
	<g>
		<g>
			<path class="st4" d="M136.02,209.86c-0.34-0.2-10.66-39.78-9.93-55.87c0.62-13.65,0.74-18.32-1.73-18.88
				c-2.47-0.57-3.3,6.01-3.3,6.01s-2.39,32.23,10.82,69.48c0,0-6,13.73,0.67,15.21c0,0,1.95,0.5,1.97-5.73c0,0-0.64,7.9,3.38,7.39
				c3.62-0.46-0.45-8.22-0.45-8.22s2.09,5.42,4.98,4.92C146.41,223.49,142.56,213.58,136.02,209.86z"/>
			<path class="st6" d="M143.52,222.43l1.41,4.6c0.13,0.41-0.39,0.71-0.68,0.39c-1.23-1.34-3-3.41-3.16-4.33
				c-0.2-1.15,1.45-1.03,2.1-0.94C143.35,222.17,143.47,222.28,143.52,222.43z"/>
			<path class="st6" d="M138.91,225.83l0.87,4.73c0.08,0.42-0.47,0.66-0.72,0.31c-1.07-1.48-2.58-3.73-2.64-4.67
				c-0.07-1.16,1.56-0.85,2.2-0.69C138.76,225.56,138.88,225.68,138.91,225.83z"/>
			<path class="st6" d="M133.47,224.09l0.32,4.8c0.03,0.43-0.54,0.6-0.75,0.22c-0.89-1.59-2.14-4-2.08-4.94
				c0.07-1.16,1.65-0.67,2.26-0.43C133.36,223.8,133.46,223.94,133.47,224.09z"/>
		</g>
		<path class="st5" d="M123.8,132.3c-2.98,0-5.39,2.41-5.39,5.39v3.88h10.78v-3.88C129.18,134.71,126.77,132.3,123.8,132.3z"/>
	</g>
	<g>
		<g>
			<path class="st4" d="M236.46,209.86c0.34-0.2,10.66-39.78,9.93-55.87c-0.62-13.65-0.74-18.32,1.73-18.88
				c2.47-0.57,3.3,6.01,3.3,6.01s2.39,32.23-10.82,69.48c0,0,6,13.73-0.67,15.21c0,0-1.95,0.5-1.97-5.73c0,0,0.64,7.9-3.38,7.39
				c-3.62-0.46,0.45-8.22,0.45-8.22s-2.09,5.42-4.98,4.92C226.07,223.49,229.92,213.58,236.46,209.86z"/>
			<path class="st6" d="M228.96,222.43l-1.41,4.6c-0.13,0.41,0.39,0.71,0.68,0.39c1.23-1.34,3-3.41,3.16-4.33
				c0.2-1.15-1.45-1.03-2.1-0.94C229.13,222.17,229,222.28,228.96,222.43z"/>
			<path class="st6" d="M233.57,225.83l-0.87,4.73c-0.08,0.42,0.47,0.66,0.72,0.31c1.07-1.48,2.58-3.73,2.64-4.67
				c0.07-1.16-1.56-0.85-2.2-0.69C233.71,225.56,233.6,225.68,233.57,225.83z"/>
			<path class="st6" d="M239,224.09l-0.32,4.8c-0.03,0.43,0.54,0.6,0.75,0.22c0.89-1.59,2.14-4,2.08-4.94
				c-0.07-1.16-1.65-0.67-2.26-0.43C239.11,223.8,239.02,223.94,239,224.09z"/>
		</g>
		<path class="st5" d="M248.68,132.3c2.98,0,5.39,2.41,5.39,5.39v3.88h-10.78v-3.88C243.29,134.71,245.7,132.3,248.68,132.3z"/>
	</g>
</g>
</svg>
