<?xml version="1.0" encoding="utf-8"?>
<!-- Generator: Adobe Illustrator 24.0.0, SVG Export Plug-In . SVG Version: 6.00 Build 0)  -->
<svg version="1.1" id="Layer_1" xmlns="http://www.w3.org/2000/svg" xmlns:xlink="http://www.w3.org/1999/xlink" x="0px" y="0px"
	 viewBox="0 0 400 414" style="enable-background:new 0 0 400 414;" xml:space="preserve">
<style type="text/css">
	.st0{opacity:0.35;fill:#214978;}
	.st1{fill:#36009F;}
	.st2{fill:#90A9FF;}
	.st3{fill:#5C5EFF;}
	.st4{fill:#4C25D0;}
	.st5{fill:none;stroke:#36009F;stroke-width:3.5911;stroke-linecap:round;stroke-miterlimit:10;}
	.st6{fill:#92DDFF;}
	.st7{fill:#214978;}
	.st8{fill:#349FDB;}
	.st9{fill:none;stroke:#349FDB;stroke-width:6.5024;stroke-linecap:round;stroke-miterlimit:10;}
	.st10{fill:none;stroke:#FFFFFF;stroke-width:6.7258;stroke-linecap:round;stroke-miterlimit:10;}
	.st11{opacity:0.47;fill:#214978;}
	.st12{opacity:0.12;fill:#FFFFFF;}
	.st13{fill:#FFFFFF;}
	.st14{fill:none;stroke:#0084BF;stroke-width:4.0355;stroke-linecap:round;stroke-miterlimit:10;}
	.st15{fill:none;stroke:#FFFFFF;stroke-width:3.3629;stroke-miterlimit:10;}
	.st16{fill:#EB18FF;}
	.st17{fill:#9700B8;}
	.st18{fill:none;stroke:#FFFFFF;stroke-width:5.0011;stroke-linecap:round;stroke-miterlimit:10;}
	.st19{opacity:0.19;fill:#506EFF;}
	.st20{opacity:0.83;}
	.st21{opacity:0.56;fill:#FFFFFF;}
	.st22{fill:none;stroke:#FFFFFF;stroke-width:2.5006;stroke-miterlimit:10;}
	.st23{opacity:0.3;fill:#4C25D0;}
</style>
<ellipse class="st0" cx="197.97" cy="384.15" rx="139.07" ry="23.85"/>
<g>
	<path class="st6" d="M164.12,370.51c0,0-21.64,4.74-28.84,12.38c-1.02,1.08-0.17,2.56,1.29,2.82c4.28,0.75,11.82-1.21,16.09-4.41
		c0,0-7.09,3.99-9.67,9.3c-0.74,1.53,0.22,4.28,5.7,2.75c6.75-1.89,21.25-5.13,28.43-9.44c0,0,5.69,2.07,11.31,4.3
		c2.57,1.02,3.92-0.09,3.55-1.24c-1-3.09-3.66-8.1-10.73-11.32v-14.96h-17.52L164.12,370.51z"/>
	<path class="st7" d="M164.74,364.6h15.73c2.36,0,4.27-1.91,4.27-4.27V215.45c0-2.36-1.91-4.27-4.27-4.27h-15.73
		c-2.36,0-4.27,1.91-4.27,4.27v144.87C160.46,362.69,162.38,364.6,164.74,364.6z"/>
	<path class="st8" d="M183.73,366.59h-22.25c-1.87,0-3.38-1.51-3.38-3.38v-2.17c0-1.87,1.51-3.38,3.38-3.38h22.25
		c1.87,0,3.38,1.51,3.38,3.38v2.17C187.11,365.08,185.6,366.59,183.73,366.59z"/>
</g>
<g>
	<path class="st6" d="M231.91,370.51c0,0,21.64,4.74,28.84,12.38c1.02,1.08,0.17,2.56-1.29,2.82c-4.28,0.75-11.82-1.21-16.09-4.41
		c0,0,7.09,3.99,9.67,9.3c0.74,1.53-0.22,4.28-5.7,2.75c-6.75-1.89-21.25-5.13-28.43-9.44c0,0-5.69,2.07-11.31,4.3
		c-2.57,1.02-3.92-0.09-3.55-1.24c1-3.09,3.66-8.1,10.73-11.32v-14.96h17.52L231.91,370.51z"/>
	<path class="st7" d="M231.29,364.6h-15.73c-2.36,0-4.27-1.91-4.27-4.27V215.45c0-2.36,1.91-4.27,4.27-4.27h15.73
		c2.36,0,4.27,1.91,4.27,4.27v144.87C235.56,362.69,233.65,364.6,231.29,364.6z"/>
	<path class="st8" d="M234.55,366.59H212.3c-1.87,0-3.38-1.51-3.38-3.38v-2.17c0-1.87,1.51-3.38,3.38-3.38h22.25
		c1.87,0,3.38,1.51,3.38,3.38v2.17C237.93,365.08,236.42,366.59,234.55,366.59z"/>
</g>
<g>
	<path class="st9" d="M181.31,15.48c0,0-12.97,19.19,7.78,38.38"/>
	<circle class="st6" cx="180.27" cy="14.45" r="10.11"/>
</g>
<g>
	<path class="st9" d="M219.17,21.19c0,0,12.97,19.19-7.78,38.38"/>
	<circle class="st6" cx="220.21" cy="19.11" r="9.08"/>
</g>
<g>
	<path class="st8" d="M335.26,35.27c0,0-46.19-13.63-83.68,23.86l29.91,29.91l29.91,29.91C348.89,81.46,335.26,35.27,335.26,35.27z"
		/>
	<path class="st7" d="M265.7,93.25l-5.06-25.07c0,0,27.63-26.64,58.21-21.71C318.85,46.48,254.29,70.04,265.7,93.25z"/>
</g>
<g>
	<path class="st8" d="M64.18,35.27c0,0,46.19-13.63,83.68,23.86l-29.91,29.91l-29.91,29.91C50.55,81.46,64.18,35.27,64.18,35.27z"/>
	<path class="st7" d="M133.74,93.25l5.06-25.07c0,0-27.63-26.64-58.21-21.71C80.59,46.48,145.15,70.04,133.74,93.25z"/>
</g>
<g>
	<circle class="st6" cx="199.72" cy="194.13" r="145.81"/>
	<path class="st10" d="M113.64,104.15c7.63-10.74,25.8-34.1,61.42-37.06"/>
	<line class="st10" x1="189.9" y1="67.09" x2="189.79" y2="67.09"/>
</g>
<path class="st8" d="M199.72,300c-61.32,0-105.13-19.93-127.08-34.34c25.01,44.34,72.54,74.28,127.08,74.28
	c54.53,0,102.07-29.94,127.08-74.28C304.85,280.08,261.04,300,199.72,300z"/>
<path class="st11" d="M345.53,194.13c0-1.33-0.02-2.66-0.06-3.98c-13.63,39.88-65.6,148.98-222.06,128.24
	c22.2,13.66,48.33,21.55,76.31,21.55C280.25,339.94,345.53,274.66,345.53,194.13z"/>
<g>
	<circle class="st8" cx="309.5" cy="129.18" r="8.01"/>
	<circle class="st8" cx="295.1" cy="141.76" r="3.29"/>
</g>
<circle class="st8" cx="309.35" cy="148.88" r="6.09"/>
<g>
	<circle class="st8" cx="90.3" cy="153.64" r="8.01"/>
	<circle class="st8" cx="103.04" cy="139.39" r="3.29"/>
</g>
<circle class="st8" cx="88.02" cy="134.07" r="6.09"/>
<g>
	<circle class="st8" cx="260.31" cy="218.63" r="2.57"/>
	<circle class="st8" cx="267" cy="212.92" r="2.57"/>
	<circle class="st8" cx="269.57" cy="222.18" r="2.57"/>
	<circle class="st8" cx="261.86" cy="227.87" r="2.57"/>
	<circle class="st8" cx="270.78" cy="232.02" r="2.57"/>
	<circle class="st8" cx="276.36" cy="216.06" r="2.57"/>
	<circle class="st8" cx="278.93" cy="225.3" r="2.57"/>
	<circle class="st8" cx="253.19" cy="225.87" r="2.57"/>
	<circle class="st8" cx="258.33" cy="235.83" r="2.57"/>
</g>
<g>
	<circle class="st8" cx="139.13" cy="218.63" r="2.57"/>
	<circle class="st8" cx="132.44" cy="212.92" r="2.57"/>
	<circle class="st8" cx="129.87" cy="222.18" r="2.57"/>
	<circle class="st8" cx="137.58" cy="227.87" r="2.57"/>
	<circle class="st8" cx="128.66" cy="232.02" r="2.57"/>
	<circle class="st8" cx="123.07" cy="216.06" r="2.57"/>
	<circle class="st8" cx="120.51" cy="225.3" r="2.57"/>
	<circle class="st8" cx="146.25" cy="225.87" r="2.57"/>
	<circle class="st8" cx="141.11" cy="235.83" r="2.57"/>
</g>
<ellipse class="st7" cx="199.72" cy="156.41" rx="74.56" ry="54"/>
<ellipse class="st12" cx="199.72" cy="156.41" rx="74.56" ry="54"/>
<circle class="st13" cx="201.59" cy="162.59" r="44.9"/>
<g>
	<circle class="st8" cx="201.59" cy="171.69" r="23.91"/>
	<circle class="st7" cx="201.59" cy="171.69" r="17.74"/>
</g>
<circle class="st13" cx="188.64" cy="158.1" r="9.38"/>
<g>
	<path class="st6" d="M65.4,250.54c0,0-29.41,52.21,12.16,110.9c0,0-6.37,18.85,5.95,22.36c0,0,6.3,0.73,2.32-7.55
		c0,0,4.28,4.72,6.53,4.43c0,0,5.64-0.96,2.36-8.63c0,0,5.39,8.1,7.82,2.56c0.78-2.08,0.65-16.61-12.11-18.63
		c0,0-31.97-36.94-20.52-87.44C69.91,268.55,79.71,242.79,65.4,250.54z"/>
	<path class="st7" d="M74.7,273.21c0,0,11.78-27.11-1.31-30.21c-13.1-3.1-20.01,25.24-20.01,25.24L74.7,273.21z"/>
</g>
<g>
	<path class="st6" d="M334.03,250.54c0,0,29.41,52.21-12.16,110.9c0,0,6.37,18.85-5.95,22.36c0,0-6.3,0.73-2.32-7.55
		c0,0-4.28,4.72-6.53,4.43c0,0-5.64-0.96-2.36-8.63c0,0-5.39,8.1-7.82,2.56c-0.78-2.08-0.65-16.61,12.11-18.63
		c0,0,31.97-36.94,20.52-87.44C329.53,268.55,319.73,242.79,334.03,250.54z"/>
	<path class="st7" d="M324.74,273.21c0,0-11.78-27.11,1.31-30.21c13.1-3.1,20.01,25.24,20.01,25.24L324.74,273.21z"/>
</g>
<g>
	<g>
		<path class="st14" d="M103.34,187.99c0,0-57.35-3.81-95.05,41.77"/>
	</g>
	<path class="st14" d="M25.72,249.29c0,0,15.91-34,80.94-52.28"/>
	<path class="st14" d="M48.17,255.1c0,0,28.62-36.24,63.74-50.13"/>
</g>
<g>
	<g>
		<path class="st14" d="M301.86,187.99c0,0,57.35-3.81,95.05,41.77"/>
	</g>
	<path class="st14" d="M379.47,249.29c0,0-15.91-34-80.94-52.28"/>
	<path class="st14" d="M357.02,255.1c0,0-28.62-36.24-63.74-50.13"/>
</g>
<path class="st8" d="M244.17,77.2L244.17,77.2c0,0.01,0,0.03,0,0.04c0,0.95,0.52,1.73,1.17,1.73l20.6,0.12
	c0.65,0,1.18-0.77,1.18-1.73c0-0.01,0-0.02,0-0.03v0c0-0.01,0-0.03,0-0.04c0-0.95-0.52-1.73-1.17-1.73l-20.6-0.12
	c-0.65,0-1.18,0.77-1.18,1.73C244.17,77.18,244.17,77.19,244.17,77.2z"/>
<path class="st8" d="M239.93,84.05L239.93,84.05c0,0.01,0,0.03,0,0.04c0,0.95,0.52,1.73,1.17,1.73l20.6,0.12
	c0.65,0,1.18-0.77,1.18-1.73c0-0.01,0-0.02,0-0.03l0,0c0-0.01,0-0.03,0-0.04c0-0.95-0.52-1.73-1.17-1.73l-20.6-0.12
	c-0.65,0-1.18,0.77-1.18,1.73C239.93,84.03,239.93,84.04,239.93,84.05z"/>
<path class="st8" d="M245.72,91.34L245.72,91.34c0,0.01,0,0.03,0,0.04c0,0.95,0.52,1.73,1.17,1.73l20.6,0.12
	c0.65,0,1.18-0.77,1.18-1.73c0-0.01,0-0.02,0-0.03l0,0c0-0.01,0-0.03,0-0.04c0-0.95-0.52-1.73-1.17-1.73l-20.6-0.12
	c-0.65,0-1.18,0.77-1.18,1.73C245.72,91.32,245.72,91.33,245.72,91.34z"/>
<path class="st8" d="M107.8,252.66L107.8,252.66c0,0.01,0,0.03,0,0.04c0,0.95,0.52,1.73,1.17,1.73l20.6,0.12
	c0.65,0,1.18-0.77,1.18-1.73c0-0.01,0-0.02,0-0.03v0c0-0.01,0-0.03,0-0.04c0-0.95-0.52-1.73-1.17-1.73l-20.6-0.12
	c-0.65,0-1.18,0.77-1.18,1.73C107.8,252.64,107.8,252.65,107.8,252.66z"/>
<path class="st8" d="M103.57,259.5L103.57,259.5c0,0.01,0,0.03,0,0.04c0,0.95,0.52,1.73,1.17,1.73l20.6,0.12
	c0.65,0,1.18-0.77,1.18-1.73c0-0.01,0-0.02,0-0.03l0,0c0-0.01,0-0.03,0-0.04c0-0.95-0.52-1.73-1.17-1.73l-20.6-0.12
	c-0.65,0-1.18,0.77-1.18,1.73C103.57,259.48,103.57,259.49,103.57,259.5z"/>
<path class="st8" d="M109.36,266.79L109.36,266.79c0,0.01,0,0.03,0,0.04c0,0.95,0.52,1.73,1.17,1.73l20.6,0.12
	c0.65,0,1.18-0.77,1.18-1.73c0-0.01,0-0.02,0-0.03l0,0c0-0.01,0-0.03,0-0.04c0-0.95-0.52-1.73-1.17-1.73l-20.6-0.12
	c-0.65,0-1.18,0.77-1.18,1.73C109.36,266.77,109.36,266.78,109.36,266.79z"/>
<path class="st14" d="M169.76,251.15c3.37-6.09,15.51-10.6,29.96-10.6c14.12,0,26.03,4.31,29.71,10.19"/>
<g>
	<path class="st8" d="M198.93,210.41c22.76,0,43.12-7.39,56.79-19.03c-4.23,0.66-8.37,1.85-12.26,3.61
		c-2.87,1.3-5.82,2.92-8.96,2.65c-1.06-0.09-2.09-0.4-3.15-0.49c-3.81-0.33-7.32,2.1-11.12,2.51c-4.67,0.51-9.27-2.05-13.95-1.57
		c-3.03,0.31-5.92,1.89-8.96,1.64c-2.94-0.24-5.55-2.15-8.5-2.4c-3.23-0.27-6.46,1.51-9.62,0.82c-2.61-0.57-4.65-2.72-7.26-3.3
		c-3.6-0.8-7.24,1.57-10.91,1.19c-2.92-0.3-5.52-2.33-8.46-2.33c-1.84,0-3.53,0.79-5.13,1.75
		C160.84,204.71,178.96,210.41,198.93,210.41z"/>
</g>
<ellipse class="st15" cx="199.72" cy="156.41" rx="74.56" ry="54"/>
</svg>
