<?xml version="1.0" encoding="utf-8"?>
<!-- Generator: Adobe Illustrator 24.0.0, SVG Export Plug-In . SVG Version: 6.00 Build 0)  -->
<svg version="1.1" id="Layer_1" xmlns="http://www.w3.org/2000/svg" xmlns:xlink="http://www.w3.org/1999/xlink" x="0px" y="0px"
	 viewBox="0 0 320 331.2" style="enable-background:new 0 0 320 331.2;" xml:space="preserve">
<style type="text/css">
	.st0{opacity:0.35;fill:#214978;}
	.st1{fill:#36009F;}
	.st2{fill:#90A9FF;}
	.st3{fill:#5C5EFF;}
	.st4{fill:#4C25D0;}
	.st5{fill:none;stroke:#36009F;stroke-width:2.8622;stroke-linecap:round;stroke-miterlimit:10;}
	.st6{fill:#92DDFF;}
	.st7{fill:#214978;}
	.st8{fill:#349FDB;}
	.st9{fill:none;stroke:#349FDB;stroke-width:5.16;stroke-linecap:round;stroke-miterlimit:10;}
	.st10{fill:none;stroke:#FFFFFF;stroke-width:5.3373;stroke-linecap:round;stroke-miterlimit:10;}
	.st11{opacity:0.47;fill:#214978;}
	.st12{opacity:0.12;fill:#FFFFFF;}
	.st13{fill:#FFFFFF;}
	.st14{fill:none;stroke:#0084BF;stroke-width:3.2024;stroke-linecap:round;stroke-miterlimit:10;}
	.st15{fill:none;stroke:#FFFFFF;stroke-width:2.6686;stroke-miterlimit:10;}
	.st16{fill:#EB18FF;}
	.st17{fill:#9700B8;}
	.st18{fill:none;stroke:#FFFFFF;stroke-width:3.9861;stroke-linecap:round;stroke-miterlimit:10;}
	.st19{opacity:0.19;fill:#506EFF;}
	.st20{opacity:0.83;}
	.st21{opacity:0.56;fill:#FFFFFF;}
	.st22{fill:none;stroke:#FFFFFF;stroke-width:1.993;stroke-miterlimit:10;}
	.st23{opacity:0.3;fill:#4C25D0;}
	.st24{fill:#5D0081;}
	.st25{opacity:0.64;fill:#3E005A;}
	.st26{fill:none;stroke:#FFFFFF;stroke-width:3.4387;stroke-linecap:round;stroke-miterlimit:10;}
	.st27{opacity:0.3;fill:#3E005A;}
	.st28{fill:#F9A6FF;}
	.st29{opacity:0.45;}
	.st30{fill:none;stroke:#FFFFFF;stroke-width:1.7194;stroke-miterlimit:10;}
	.st31{opacity:0.45;fill:#FFFFFF;}
	.st32{fill:none;stroke:#FFFFFF;stroke-width:1.8812;stroke-linecap:round;stroke-miterlimit:10;}
</style>
<ellipse class="st0" cx="158.9" cy="306" rx="110.4" ry="18.9"/>
<g>
	<path class="st6" d="M132.1,295.2c0,0-17.2,3.8-22.9,9.8c-0.8,0.9-0.1,2,1,2.2c3.4,0.6,9.4-1,12.8-3.5c0,0-5.6,3.2-7.7,7.4
		c-0.6,1.2,0.2,3.4,4.5,2.2c5.4-1.5,16.9-4.1,22.6-7.5c0,0,4.5,1.6,9,3.4c2,0.8,3.1-0.1,2.8-1c-0.8-2.5-2.9-6.4-8.5-9v-11.9h-13.9
		L132.1,295.2z"/>
	<path class="st7" d="M132.6,290.5H145c1.9,0,3.4-1.5,3.4-3.4v-115c0-1.9-1.5-3.4-3.4-3.4h-12.5c-1.9,0-3.4,1.5-3.4,3.4v115
		C129.2,289,130.7,290.5,132.6,290.5z"/>
	<path class="st8" d="M147.6,292.1H130c-1.5,0-2.7-1.2-2.7-2.7v-1.7c0-1.5,1.2-2.7,2.7-2.7h17.7c1.5,0,2.7,1.2,2.7,2.7v1.7
		C150.3,290.9,149.1,292.1,147.6,292.1z"/>
</g>
<g>
	<path class="st6" d="M185.9,295.2c0,0,17.2,3.8,22.9,9.8c0.8,0.9,0.1,2-1,2.2c-3.4,0.6-9.4-1-12.8-3.5c0,0,5.6,3.2,7.7,7.4
		c0.6,1.2-0.2,3.4-4.5,2.2c-5.4-1.5-16.9-4.1-22.6-7.5c0,0-4.5,1.6-9,3.4c-2,0.8-3.1-0.1-2.8-1c0.8-2.5,2.9-6.4,8.5-9v-11.9h13.9
		L185.9,295.2z"/>
	<path class="st7" d="M185.4,290.5h-12.5c-1.9,0-3.4-1.5-3.4-3.4v-115c0-1.9,1.5-3.4,3.4-3.4h12.5c1.9,0,3.4,1.5,3.4,3.4v115
		C188.8,289,187.2,290.5,185.4,290.5z"/>
	<path class="st8" d="M188,292.1h-17.7c-1.5,0-2.7-1.2-2.7-2.7v-1.7c0-1.5,1.2-2.7,2.7-2.7H188c1.5,0,2.7,1.2,2.7,2.7v1.7
		C190.6,290.9,189.4,292.1,188,292.1z"/>
</g>
<g>
	<path class="st9" d="M145.7,13.4c0,0-10.3,15.2,6.2,30.5"/>
	<circle class="st6" cx="144.9" cy="12.6" r="8"/>
</g>
<g>
	<path class="st9" d="M175.7,18c0,0,10.3,15.2-6.2,30.5"/>
	<circle class="st6" cx="176.6" cy="16.3" r="7.2"/>
</g>
<g>
	<path class="st8" d="M267.9,29.2c0,0-36.7-10.8-66.4,18.9l23.7,23.7l23.7,23.7C278.7,65.8,267.9,29.2,267.9,29.2z"/>
	<path class="st7" d="M212.7,75.2l-4-19.9c0,0,21.9-21.1,46.2-17.2C254.8,38,203.6,56.7,212.7,75.2z"/>
</g>
<g>
	<path class="st8" d="M52.8,29.2c0,0,36.7-10.8,66.4,18.9L95.4,71.8L71.7,95.6C41.9,65.8,52.8,29.2,52.8,29.2z"/>
	<path class="st7" d="M108,75.2l4-19.9c0,0-21.9-21.1-46.2-17.2C65.8,38,117,56.7,108,75.2z"/>
</g>
<g>
	<circle class="st6" cx="160.3" cy="155.2" r="115.7"/>
	<path class="st10" d="M92,83.8c6.1-8.5,20.5-27.1,48.7-29.4"/>
	<line class="st10" x1="152.5" y1="54.4" x2="152.4" y2="54.4"/>
</g>
<path class="st8" d="M160.3,239.2c-48.7,0-83.4-15.8-100.8-27.2c19.8,35.2,57.6,58.9,100.8,58.9c43.3,0,81-23.8,100.8-58.9
	C243.7,223.4,209,239.2,160.3,239.2z"/>
<path class="st11" d="M276,155.2c0-1.1,0-2.1,0-3.2c-10.8,31.6-52.1,118.2-176.2,101.8c17.6,10.8,38.4,17.1,60.6,17.1
	C224.2,270.9,276,219.1,276,155.2z"/>
<g>
	<circle class="st8" cx="247.4" cy="103.7" r="6.4"/>
	<circle class="st8" cx="236" cy="113.7" r="2.6"/>
</g>
<circle class="st8" cx="247.3" cy="119.3" r="4.8"/>
<g>
	<circle class="st8" cx="73.5" cy="123.1" r="6.4"/>
	<circle class="st8" cx="83.6" cy="111.8" r="2.6"/>
</g>
<circle class="st8" cx="71.7" cy="107.6" r="4.8"/>
<g>
	<circle class="st8" cx="208.4" cy="174.7" r="2"/>
	<circle class="st8" cx="213.7" cy="170.1" r="2"/>
	<circle class="st8" cx="215.7" cy="177.5" r="2"/>
	<circle class="st8" cx="209.6" cy="182" r="2"/>
	<circle class="st8" cx="216.7" cy="185.3" r="2"/>
	<circle class="st8" cx="221.1" cy="172.6" r="2"/>
	<circle class="st8" cx="223.2" cy="179.9" r="2"/>
	<circle class="st8" cx="202.7" cy="180.4" r="2"/>
	<circle class="st8" cx="206.8" cy="188.3" r="2"/>
</g>
<g>
	<circle class="st8" cx="112.2" cy="174.7" r="2"/>
	<circle class="st8" cx="106.9" cy="170.1" r="2"/>
	<circle class="st8" cx="104.9" cy="177.5" r="2"/>
	<circle class="st8" cx="111" cy="182" r="2"/>
	<circle class="st8" cx="103.9" cy="185.3" r="2"/>
	<circle class="st8" cx="99.5" cy="172.6" r="2"/>
	<circle class="st8" cx="97.5" cy="179.9" r="2"/>
	<circle class="st8" cx="117.9" cy="180.4" r="2"/>
	<circle class="st8" cx="113.8" cy="188.3" r="2"/>
</g>
<ellipse class="st7" cx="160.3" cy="125.3" rx="59.2" ry="42.9"/>
<ellipse class="st12" cx="160.3" cy="125.3" rx="59.2" ry="42.9"/>
<circle class="st13" cx="161.8" cy="130.2" r="35.6"/>
<g>
	<circle class="st8" cx="161.8" cy="137.4" r="19"/>
	<circle class="st7" cx="161.8" cy="137.4" r="14.1"/>
</g>
<circle class="st13" cx="151.5" cy="126.6" r="7.4"/>
<g>
	<path class="st6" d="M53.7,200c0,0-23.3,41.4,9.7,88c0,0-5.1,15,4.7,17.7c0,0,5,0.6,1.8-6c0,0,3.4,3.7,5.2,3.5c0,0,4.5-0.8,1.9-6.8
		c0,0,4.3,6.4,6.2,2c0.6-1.7,0.5-13.2-9.6-14.8c0,0-25.4-29.3-16.3-69.4C57.3,214.3,65.1,193.8,53.7,200z"/>
	<path class="st7" d="M61.1,218c0,0,9.4-21.5-1-24s-15.9,20-15.9,20L61.1,218z"/>
</g>
<g>
	<path class="st6" d="M266.9,200c0,0,23.3,41.4-9.7,88c0,0,5.1,15-4.7,17.7c0,0-5,0.6-1.8-6c0,0-3.4,3.7-5.2,3.5
		c0,0-4.5-0.8-1.9-6.8c0,0-4.3,6.4-6.2,2c-0.6-1.7-0.5-13.2,9.6-14.8c0,0,25.4-29.3,16.3-69.4C263.3,214.3,255.5,193.8,266.9,200z"
		/>
	<path class="st7" d="M259.5,218c0,0-9.4-21.5,1-24c10.4-2.5,15.9,20,15.9,20L259.5,218z"/>
</g>
<g>
	<g>
		<path class="st14" d="M83.8,150.3c0,0-45.5-3-75.4,33.1"/>
	</g>
	<path class="st14" d="M22.2,199c0,0,12.6-27,64.2-41.5"/>
	<path class="st14" d="M40.1,203.6c0,0,22.7-28.8,50.6-39.8"/>
</g>
<g>
	<g>
		<path class="st14" d="M241.4,150.3c0,0,45.5-3,75.4,33.1"/>
	</g>
	<path class="st14" d="M303,199c0,0-12.6-27-64.2-41.5"/>
	<path class="st14" d="M285.1,203.6c0,0-22.7-28.8-50.6-39.8"/>
</g>
<path class="st8" d="M195.6,62.4L195.6,62.4C195.6,62.4,195.6,62.4,195.6,62.4c0,0.8,0.4,1.4,0.9,1.4l16.4,0.1
	c0.5,0,0.9-0.6,0.9-1.4c0,0,0,0,0,0v0c0,0,0,0,0,0c0-0.8-0.4-1.4-0.9-1.4L196.5,61C196,61,195.6,61.6,195.6,62.4
	C195.6,62.4,195.6,62.4,195.6,62.4z"/>
<path class="st8" d="M192.2,67.9L192.2,67.9C192.2,67.9,192.2,67.9,192.2,67.9c0,0.8,0.4,1.4,0.9,1.4l16.4,0.1
	c0.5,0,0.9-0.6,0.9-1.4c0,0,0,0,0,0l0,0c0,0,0,0,0,0c0-0.8-0.4-1.4-0.9-1.4l-16.4-0.1C192.6,66.5,192.2,67.1,192.2,67.9
	C192.2,67.8,192.2,67.9,192.2,67.9z"/>
<path class="st8" d="M196.8,73.6L196.8,73.6C196.8,73.7,196.8,73.7,196.8,73.6c0,0.8,0.4,1.4,0.9,1.4l16.4,0.1
	c0.5,0,0.9-0.6,0.9-1.4c0,0,0,0,0,0l0,0c0,0,0,0,0,0c0-0.8-0.4-1.4-0.9-1.4l-16.4-0.1C197.2,72.2,196.8,72.9,196.8,73.6
	C196.8,73.6,196.8,73.6,196.8,73.6z"/>
<path class="st8" d="M87.4,201.7L87.4,201.7C87.4,201.7,87.4,201.7,87.4,201.7c0,0.8,0.4,1.4,0.9,1.4l16.4,0.1
	c0.5,0,0.9-0.6,0.9-1.4c0,0,0,0,0,0l0,0c0,0,0,0,0,0c0-0.8-0.4-1.4-0.9-1.4l-16.4-0.1C87.8,200.3,87.4,200.9,87.4,201.7
	C87.4,201.6,87.4,201.7,87.4,201.7z"/>
<path class="st8" d="M84,207.1L84,207.1C84,207.1,84,207.1,84,207.1c0,0.8,0.4,1.4,0.9,1.4l16.4,0.1c0.5,0,0.9-0.6,0.9-1.4
	c0,0,0,0,0,0l0,0c0,0,0,0,0,0c0-0.8-0.4-1.4-0.9-1.4l-16.4-0.1C84.4,205.7,84,206.3,84,207.1C84,207.1,84,207.1,84,207.1z"/>
<path class="st8" d="M88.6,212.9L88.6,212.9C88.6,212.9,88.6,212.9,88.6,212.9c0,0.8,0.4,1.4,0.9,1.4l16.4,0.1
	c0.5,0,0.9-0.6,0.9-1.4c0,0,0,0,0,0l0,0c0,0,0,0,0,0c0-0.8-0.4-1.4-0.9-1.4l-16.4-0.1C89,211.5,88.6,212.1,88.6,212.9
	C88.6,212.9,88.6,212.9,88.6,212.9z"/>
<path class="st14" d="M136.5,200.5c2.7-4.8,12.3-8.4,23.8-8.4c11.2,0,20.7,3.4,23.6,8.1"/>
<g>
	<path class="st8" d="M159.7,168.1c18.1,0,34.2-5.9,45.1-15.1c-3.4,0.5-6.6,1.5-9.7,2.9c-2.3,1-4.6,2.3-7.1,2.1
		c-0.8-0.1-1.7-0.3-2.5-0.4c-3-0.3-5.8,1.7-8.8,2c-3.7,0.4-7.4-1.6-11.1-1.2c-2.4,0.2-4.7,1.5-7.1,1.3c-2.3-0.2-4.4-1.7-6.7-1.9
		c-2.6-0.2-5.1,1.2-7.6,0.6c-2.1-0.5-3.7-2.2-5.8-2.6c-2.9-0.6-5.7,1.2-8.7,0.9c-2.3-0.2-4.4-1.8-6.7-1.9c-1.5,0-2.8,0.6-4.1,1.4
		C129.5,163.6,143.8,168.1,159.7,168.1z"/>
</g>
<ellipse class="st15" cx="160.3" cy="125.3" rx="59.2" ry="42.9"/>
</svg>
