<?xml version="1.0" encoding="utf-8"?>
<!-- Generator: Adobe Illustrator 24.0.0, SVG Export Plug-In . SVG Version: 6.00 Build 0)  -->
<svg version="1.1" id="Layer_1" xmlns="http://www.w3.org/2000/svg" xmlns:xlink="http://www.w3.org/1999/xlink" x="0px" y="0px"
	 viewBox="0 0 400 414" style="enable-background:new 0 0 400 414;" xml:space="preserve">
<style type="text/css">
	.st0{opacity:0.35;fill:#214978;}
	.st1{fill:#36009F;}
	.st2{fill:#90A9FF;}
	.st3{fill:#5C5EFF;}
	.st4{fill:#4C25D0;}
	.st5{fill:none;stroke:#36009F;stroke-width:3.5911;stroke-linecap:round;stroke-miterlimit:10;}
	.st6{fill:#92DDFF;}
	.st7{fill:#214978;}
	.st8{fill:#349FDB;}
	.st9{fill:none;stroke:#349FDB;stroke-width:6.5024;stroke-linecap:round;stroke-miterlimit:10;}
	.st10{fill:none;stroke:#FFFFFF;stroke-width:6.7258;stroke-linecap:round;stroke-miterlimit:10;}
	.st11{opacity:0.47;fill:#214978;}
	.st12{opacity:0.12;fill:#FFFFFF;}
	.st13{fill:#FFFFFF;}
	.st14{fill:none;stroke:#0084BF;stroke-width:4.0355;stroke-linecap:round;stroke-miterlimit:10;}
	.st15{fill:none;stroke:#FFFFFF;stroke-width:3.3629;stroke-miterlimit:10;}
	.st16{fill:#EB18FF;}
	.st17{fill:#9700B8;}
	.st18{fill:none;stroke:#FFFFFF;stroke-width:5.0011;stroke-linecap:round;stroke-miterlimit:10;}
	.st19{opacity:0.19;fill:#506EFF;}
	.st20{opacity:0.83;}
	.st21{opacity:0.56;fill:#FFFFFF;}
	.st22{fill:none;stroke:#FFFFFF;stroke-width:2.5006;stroke-miterlimit:10;}
	.st23{opacity:0.3;fill:#4C25D0;}
</style>
<ellipse class="st0" cx="202.58" cy="391.48" rx="98.27" ry="16.52"/>
<g>
	<g>
		<g>
			<g>
				<g>
					<g>
						<rect x="170.79" y="328.96" class="st1" width="22.13" height="58.14"/>
					</g>
				</g>
				<g>
					<g>
						<rect x="170.79" y="308.42" class="st1" width="22.13" height="58.14"/>
					</g>
				</g>
			</g>
		</g>
		<path class="st2" d="M173.77,374.1c0,0-30.18-2.38-30.29,3.87c-0.12,6.41,8.59,4.38,8.59,4.38s-12.3,1.69-7.2,7.41
			c6.86,7.7,48.06-2.67,48.06-2.67v-16.37L173.77,374.1z"/>
		<rect x="170.79" y="366.56" class="st2" width="22.13" height="17.15"/>
		<path class="st3" d="M192.35,369.45h-20.98c-1.37,0-2.49-1.11-2.49-2.49v-0.79c0-1.37,1.11-2.49,2.49-2.49h20.98
			c1.37,0,2.49,1.11,2.49,2.49v0.79C194.84,368.33,193.72,369.45,192.35,369.45z"/>
		<path class="st3" d="M170.37,391.48c5.62-0.78,11.1-1.84,15.25-2.72c-1.5-2.3-4.1-3.82-7.05-3.82
			C174.57,384.94,171.23,387.74,170.37,391.48z"/>
		<circle class="st3" cx="185.35" cy="382.43" r="2.99"/>
		<circle class="st3" cx="180.01" cy="379.11" r="1.68"/>
	</g>
	<g>
		<g>
			<g>
				<g>
					<g>
						
							<rect x="213.24" y="328.96" transform="matrix(-1 -4.512491e-11 4.512491e-11 -1 448.62 716.0605)" class="st1" width="22.13" height="58.14"/>
					</g>
				</g>
				<g>
					<g>
						
							<rect x="213.24" y="308.42" transform="matrix(-1 -4.475499e-11 4.475499e-11 -1 448.62 674.9826)" class="st1" width="22.13" height="58.14"/>
					</g>
				</g>
			</g>
		</g>
		<path class="st2" d="M232.4,374.1c0,0,30.18-2.38,30.29,3.87c0.12,6.41-8.59,4.38-8.59,4.38s12.3,1.69,7.2,7.41
			c-6.86,7.7-48.06-2.67-48.06-2.67v-16.37L232.4,374.1z"/>
		<rect x="213.24" y="366.56" class="st2" width="22.13" height="17.15"/>
		<path class="st3" d="M234.78,369.45h-20.98c-1.37,0-2.49-1.11-2.49-2.49v-0.79c0-1.37,1.11-2.49,2.49-2.49h20.98
			c1.37,0,2.49,1.11,2.49,2.49v0.79C237.26,368.33,236.15,369.45,234.78,369.45z"/>
		<path class="st3" d="M250.57,373.82c-3.21-0.18-6.61-0.19-9.6-0.12c-0.02,0.19-0.04,0.38-0.04,0.58c0,2.67,2.16,4.83,4.83,4.83
			s4.83-2.16,4.83-4.83C250.59,374.12,250.58,373.97,250.57,373.82z"/>
		<circle class="st3" cx="239.26" cy="380" r="1.68"/>
		<circle class="st3" cx="244.45" cy="382.95" r="2.47"/>
	</g>
</g>
<path class="st4" d="M100.83,258.3c0-64.96,45.33-50.66,101.24-50.66s101.24-14.3,101.24,50.66s-45.33,85.09-101.24,85.09
	S100.83,323.27,100.83,258.3z"/>
<g>
	<g>
		<circle class="st3" cx="214.43" cy="258.29" r="5"/>
		<g>
			<circle class="st4" cx="216.77" cy="256.2" r="0.8"/>
			<circle class="st4" cx="212.09" cy="260.38" r="0.8"/>
		</g>
	</g>
	<g>
		<circle class="st3" cx="214.43" cy="281.51" r="5"/>
		<g>
			<circle class="st4" cx="216.77" cy="279.42" r="0.8"/>
			<circle class="st4" cx="212.09" cy="283.6" r="0.8"/>
		</g>
	</g>
	<g>
		<circle class="st3" cx="214.43" cy="304.73" r="5"/>
		<g>
			<circle class="st4" cx="216.77" cy="302.64" r="0.8"/>
			<circle class="st4" cx="212.09" cy="306.82" r="0.8"/>
		</g>
	</g>
	<g>
		<circle class="st3" cx="214.43" cy="327.95" r="5"/>
		<g>
			<circle class="st4" cx="216.77" cy="325.86" r="0.8"/>
			<circle class="st4" cx="212.09" cy="330.04" r="0.8"/>
		</g>
	</g>
</g>
<line class="st5" x1="203.08" y1="228.44" x2="203.08" y2="337.49"/>
<rect x="174.79" y="284.88" class="st16" width="56.42" height="35.49"/>
<polygon class="st16" points="233.89,282.52 203,263.58 172.11,282.52 "/>
<rect x="174.79" y="284.88" class="st16" width="56.42" height="35.49"/>
<polygon class="st17" points="172.11,282.52 203,301.45 233.89,282.52 "/>
<rect x="184.13" y="286.96" class="st13" width="37.75" height="21.1"/>
<polygon class="st16" points="203,301.45 172.11,282.52 172.11,321.38 233.89,321.38 233.89,282.52 "/>
<g>
	<path class="st1" d="M112.26,206.94c0,0-63.25,80.09,40.43,106.18l3.04-23.99c0,0-61.41-16.2-33.91-73.17
		C121.82,215.97,122.9,193.62,112.26,206.94z"/>
	<path class="st2" d="M163.92,294.31c0,0,16.43-5.61,18.76-1.66c2.79,4.73-2.27,7.73-5.4,7.23c0,0,11.14-1.24,11.51,4.1
		c0.38,5.43-6.86,6.26-13.17,3.98c0,0,10.02,1.79,8.68,5.99c-1.38,4.3-14.67,4.36-27.67-4.36
		C143.64,300.86,163.92,294.31,163.92,294.31z"/>
	<path class="st3" d="M160.76,316.54l-7.81-1.53c-2.61-0.51-4.31-3.04-3.8-5.65l3.86-19.71c0.51-2.61,3.04-4.31,5.65-3.8l7.81,1.53
		c2.61,0.51,4.31,3.04,3.8,5.65l-3.86,19.71C165.89,315.36,163.37,317.05,160.76,316.54z"/>
</g>
<g>
	<path class="st1" d="M293.41,206.94c0,0,63.25,80.09-40.43,106.18l-3.04-23.99c0,0,61.41-16.2,33.91-73.17
		C283.86,215.97,282.78,193.62,293.41,206.94z"/>
	<path class="st2" d="M241.76,294.31c0,0-16.43-5.61-18.76-1.66c-2.79,4.73,2.27,7.73,5.4,7.23c0,0-11.14-1.24-11.51,4.1
		c-0.38,5.43,6.86,6.26,13.17,3.98c0,0-10.02,1.79-8.68,5.99c1.38,4.3,14.67,4.36,27.67-4.36
		C262.04,300.86,241.76,294.31,241.76,294.31z"/>
	<path class="st3" d="M244.92,316.54l7.81-1.53c2.61-0.51,4.31-3.04,3.8-5.65l-3.86-19.71c-0.51-2.61-3.04-4.31-5.65-3.8l-7.81,1.53
		c-2.61,0.51-4.31,3.04-3.8,5.65l3.86,19.71C239.78,315.36,242.31,317.05,244.92,316.54z"/>
</g>
<g>
	<g>
		<path class="st3" d="M162.73,101.81c-9.46,8.74-27.9,4.17-41.18-10.21s-21.69-43.55-12.23-52.29s33.21,6.27,46.49,20.64
			S172.19,93.07,162.73,101.81z"/>
		<path class="st4" d="M117.91,40.93c0,0,21.21,4.82,37.82,27.61l-4.13,3.18C151.6,71.73,144.71,57.35,117.91,40.93z"/>
	</g>
	<g>
		<path class="st3" d="M243.44,101.81c9.46,8.74,27.9,4.17,41.18-10.21c13.28-14.38,21.69-43.55,12.23-52.29
			s-33.21,6.27-46.49,20.64C237.07,74.33,233.98,93.07,243.44,101.81z"/>
		<path class="st4" d="M288.25,40.93c0,0-21.21,4.82-37.82,27.61l4.13,3.18C254.57,71.73,261.46,57.35,288.25,40.93z"/>
	</g>
</g>
<path class="st2" d="M301.66,150.4c0,54.44-44.16,80.81-98.6,80.81s-98.55-26.37-98.55-80.81s44.13-113.69,98.57-113.69
	S301.66,95.96,301.66,150.4z"/>
<circle class="st3" cx="203.29" cy="118.35" r="46.56"/>
<path class="st3" d="M273,131.02c0,15.9,12.41,28.9,28.07,29.86c0.38-3.37,0.58-6.86,0.58-10.47c0-15.77-3.71-31.95-10.3-46.97
	C280.58,107.95,273,118.6,273,131.02z"/>
<path class="st3" d="M104.71,156.57c9.92-1.86,17.43-10.57,17.43-21.03c0-8.51-4.97-15.85-12.16-19.3
	c-3.54,11.21-5.48,22.79-5.48,34.16C104.51,152.5,104.58,154.55,104.71,156.57z"/>
<circle class="st3" cx="126.63" cy="156.12" r="5.53"/>
<circle class="st3" cx="262.85" cy="145.79" r="4.39"/>
<path class="st18" d="M129.05,104.84c0,0,5.08-14.55,19.07-24.8"/>
<line class="st18" x1="154.59" y1="74.95" x2="155.09" y2="74.49"/>
<g>
	<g>
		<circle class="st4" cx="241.95" cy="169.22" r="1.77"/>
		<circle class="st4" cx="238.4" cy="173.13" r="1.77"/>
		<circle class="st4" cx="238.4" cy="173.13" r="1.77"/>
		<circle class="st4" cx="245.49" cy="174.9" r="1.77"/>
		<circle class="st4" cx="239.81" cy="179" r="1.77"/>
		<circle class="st4" cx="248.59" cy="169.98" r="1.77"/>
		<circle class="st4" cx="246.82" cy="181.51" r="1.77"/>
		<circle class="st4" cx="252.13" cy="175.83" r="1.77"/>
	</g>
	<g>
		<circle class="st4" cx="164.64" cy="167.91" r="1.77"/>
		<circle class="st4" cx="168.18" cy="171.82" r="1.77"/>
		<circle class="st4" cx="168.18" cy="171.82" r="1.77"/>
		<circle class="st4" cx="161.09" cy="173.59" r="1.77"/>
		<circle class="st4" cx="166.78" cy="177.69" r="1.77"/>
		<circle class="st4" cx="157.99" cy="168.67" r="1.77"/>
		<circle class="st4" cx="159.76" cy="180.2" r="1.77"/>
		<circle class="st4" cx="154.45" cy="174.51" r="1.77"/>
	</g>
</g>
<g>
	<g>
		<path class="st3" d="M246.55,61.98c-0.84,1.45-4.85,1.83-7.86,0.1c-3.01-1.74-3.87-4.94-3.03-6.39c0.84-1.45,3.95-1.21,6.96,0.52
			C245.62,57.95,247.38,60.53,246.55,61.98z"/>
		<path class="st4" d="M244.44,5.48c-1.13,1.58-0.76,3.78,0.83,4.91l16.98,12.09l-8.65,12.15l-10.04-7.15
			c-1.58-1.13-3.78-0.76-4.91,0.83s-0.76,3.78,0.83,4.91l10.04,7.15l-10.7,15.02c-1.13,1.58-0.76,3.78,0.83,4.91
			c1.58,1.13,3.78,0.76,4.91-0.83l25.48-35.78c1.13-1.58,0.76-3.78-0.83-4.91L249.35,4.65C247.77,3.53,245.57,3.89,244.44,5.48z"/>
	</g>
	<g>
		<path class="st3" d="M159.62,61.98c0.84,1.45,4.85,1.83,7.86,0.1c3.01-1.74,3.87-4.94,3.03-6.39c-0.84-1.45-3.95-1.21-6.96,0.52
			C160.54,57.95,158.78,60.53,159.62,61.98z"/>
		<path class="st4" d="M161.73,5.48c1.13,1.58,0.76,3.78-0.83,4.91l-16.98,12.09l8.65,12.15l10.04-7.15
			c1.58-1.13,3.78-0.76,4.91,0.83s0.76,3.78-0.83,4.91l-10.04,7.15l10.7,15.02c1.13,1.58,0.76,3.78-0.83,4.91
			c-1.58,1.13-3.78,0.76-4.91-0.83L136.14,23.7c-1.13-1.58-0.76-3.78,0.83-4.91l19.85-14.13C158.4,3.53,160.6,3.89,161.73,5.48z"/>
	</g>
</g>
<g>
	<path class="st1" d="M225.83,179.96c0,12.56-10.18,22.75-22.75,22.75s-22.75-10.18-22.75-22.75"/>
</g>
<path class="st3" d="M215.73,198.88c-2.76-2.54-7.38-4.66-12.63-4.66c-5.26,0-9.9,2.09-12.66,4.63c3.62,2.43,7.98,3.85,12.67,3.85
	C207.78,202.71,212.12,201.3,215.73,198.88z"/>
<g>
	<path class="st13" d="M217.32,179.96v7.66c0,1.13-0.92,2.05-2.05,2.05h-4.97c-1.13,0-2.05-0.92-2.05-2.05v-7.66"/>
</g>
<circle class="st13" cx="203.08" cy="117.29" r="35"/>
<g>
	<circle class="st2" cx="203.08" cy="117.29" r="18.63"/>
	<circle class="st1" cx="203.08" cy="117.29" r="13.83"/>
</g>
<circle class="st13" cx="189.26" cy="103.77" r="9.7"/>
<circle class="st3" cx="272.53" cy="158.52" r="6.39"/>
<path class="st3" d="M214.8,53.3c7.26,0,13.36-4.99,15.05-11.73c-8.51-3.12-17.49-4.85-26.76-4.85c-1.26,0-2.52,0.04-3.77,0.11
	c-0.02,0.32-0.03,0.64-0.03,0.96C199.28,46.35,206.23,53.3,214.8,53.3z"/>
<circle class="st3" cx="192.77" cy="51.75" r="5.17"/>
<circle class="st3" cx="204.5" cy="57.22" r="2.95"/>
<circle class="st19" cx="203.29" cy="118.35" r="46.56"/>
<g class="st20">
	<path class="st21" d="M170.75,151.5c-18.37-17.99-18.67-47.47-0.67-65.84s47.47-18.67,65.84-0.67"/>
</g>
<circle class="st22" cx="203.29" cy="118.35" r="46.56"/>
<path class="st23" d="M186.69,230.38c5.33,0.56,10.79,0.84,16.37,0.84c54.44,0,98.6-26.37,98.6-80.81c0-12.95-2.5-26.18-7.04-38.81
	C292.84,145.19,277.81,213.8,186.69,230.38z"/>
<path class="st3" d="M203.07,245.6c0,0,87.24-0.63,87.24-51.37v-1.91c0,0-13.29,27.19-87.44,27.22
	c-74.16-0.04-87.09-27.22-87.09-27.22v1.91c0,50.74,87.24,51.37,87.24,51.37"/>
</svg>
