<?xml version="1.0" encoding="utf-8"?>
<!-- Generator: Adobe Illustrator 24.0.0, SVG Export Plug-In . SVG Version: 6.00 Build 0)  -->
<svg version="1.1" id="Layer_1" xmlns="http://www.w3.org/2000/svg" xmlns:xlink="http://www.w3.org/1999/xlink" x="0px" y="0px"
	 viewBox="0 0 320 331.2" style="enable-background:new 0 0 320 331.2;" xml:space="preserve">
<style type="text/css">
	.st0{opacity:0.35;fill:#214978;}
	.st1{fill:#36009F;}
	.st2{fill:#90A9FF;}
	.st3{fill:#5C5EFF;}
	.st4{fill:#4C25D0;}
	.st5{fill:none;stroke:#36009F;stroke-width:2.8622;stroke-linecap:round;stroke-miterlimit:10;}
	.st6{fill:#92DDFF;}
	.st7{fill:#214978;}
	.st8{fill:#349FDB;}
	.st9{fill:none;stroke:#349FDB;stroke-width:5.16;stroke-linecap:round;stroke-miterlimit:10;}
	.st10{fill:none;stroke:#FFFFFF;stroke-width:5.3373;stroke-linecap:round;stroke-miterlimit:10;}
	.st11{opacity:0.47;fill:#214978;}
	.st12{opacity:0.12;fill:#FFFFFF;}
	.st13{fill:#FFFFFF;}
	.st14{fill:none;stroke:#0084BF;stroke-width:3.2024;stroke-linecap:round;stroke-miterlimit:10;}
	.st15{fill:none;stroke:#FFFFFF;stroke-width:2.6686;stroke-miterlimit:10;}
	.st16{fill:#EB18FF;}
	.st17{fill:#9700B8;}
	.st18{fill:none;stroke:#FFFFFF;stroke-width:3.9861;stroke-linecap:round;stroke-miterlimit:10;}
	.st19{opacity:0.19;fill:#506EFF;}
	.st20{opacity:0.83;}
	.st21{opacity:0.56;fill:#FFFFFF;}
	.st22{fill:none;stroke:#FFFFFF;stroke-width:1.993;stroke-miterlimit:10;}
	.st23{opacity:0.3;fill:#4C25D0;}
	.st24{fill:#5D0081;}
	.st25{opacity:0.64;fill:#3E005A;}
	.st26{fill:none;stroke:#FFFFFF;stroke-width:3.4387;stroke-linecap:round;stroke-miterlimit:10;}
	.st27{opacity:0.3;fill:#3E005A;}
	.st28{fill:#F9A6FF;}
	.st29{opacity:0.45;}
	.st30{fill:none;stroke:#FFFFFF;stroke-width:1.7194;stroke-miterlimit:10;}
	.st31{opacity:0.45;fill:#FFFFFF;}
	.st32{fill:none;stroke:#FFFFFF;stroke-width:1.8812;stroke-linecap:round;stroke-miterlimit:10;}
</style>
<ellipse class="st0" cx="162.6" cy="312.4" rx="78.3" ry="13.2"/>
<g>
	<g>
		<g>
			<g>
				<g>
					<g>
						<rect x="137.3" y="262.6" class="st1" width="17.6" height="46.3"/>
					</g>
				</g>
				<g>
					<g>
						<rect x="137.3" y="246.2" class="st1" width="17.6" height="46.3"/>
					</g>
				</g>
			</g>
		</g>
		<path class="st2" d="M139.7,298.6c0,0-24.1-1.9-24.1,3.1c-0.1,5.1,6.8,3.5,6.8,3.5s-9.8,1.3-5.7,5.9c5.5,6.1,38.3-2.1,38.3-2.1
			v-13L139.7,298.6z"/>
		<rect x="137.3" y="292.6" class="st2" width="17.6" height="13.7"/>
		<path class="st3" d="M154.5,294.9h-16.7c-1.1,0-2-0.9-2-2v-0.6c0-1.1,0.9-2,2-2h16.7c1.1,0,2,0.9,2,2v0.6
			C156.5,294,155.6,294.9,154.5,294.9z"/>
		<path class="st3" d="M137,312.4c4.5-0.6,8.8-1.5,12.2-2.2c-1.2-1.8-3.3-3-5.6-3C140.3,307.2,137.6,309.5,137,312.4z"/>
		<circle class="st3" cx="148.9" cy="305.2" r="2.4"/>
		<circle class="st3" cx="144.6" cy="302.6" r="1.3"/>
	</g>
	<g>
		<g>
			<g>
				<g>
					<g>
						
							<rect x="171.1" y="262.6" transform="matrix(-1 -4.516932e-11 4.516932e-11 -1 359.9036 571.5453)" class="st1" width="17.6" height="46.3"/>
					</g>
				</g>
				<g>
					<g>
						
							<rect x="171.1" y="246.2" transform="matrix(-1 -4.475676e-11 4.475676e-11 -1 359.9036 538.8049)" class="st1" width="17.6" height="46.3"/>
					</g>
				</g>
			</g>
		</g>
		<path class="st2" d="M186.4,298.6c0,0,24.1-1.9,24.1,3.1c0.1,5.1-6.8,3.5-6.8,3.5s9.8,1.3,5.7,5.9c-5.5,6.1-38.3-2.1-38.3-2.1v-13
			L186.4,298.6z"/>
		<rect x="171.1" y="292.6" class="st2" width="17.6" height="13.7"/>
		<path class="st3" d="M188.3,294.9h-16.7c-1.1,0-2-0.9-2-2v-0.6c0-1.1,0.9-2,2-2h16.7c1.1,0,2,0.9,2,2v0.6
			C190.3,294,189.4,294.9,188.3,294.9z"/>
		<path class="st3" d="M200.9,298.4c-2.6-0.1-5.3-0.1-7.6-0.1c0,0.2,0,0.3,0,0.5c0,2.1,1.7,3.8,3.8,3.8s3.8-1.7,3.8-3.8
			C200.9,298.6,200.9,298.5,200.9,298.4z"/>
		<circle class="st3" cx="191.9" cy="303.3" r="1.3"/>
		<circle class="st3" cx="196" cy="305.6" r="2"/>
	</g>
</g>
<path class="st4" d="M81.5,206.3c0-51.8,36.1-40.4,80.7-40.4s80.7-11.4,80.7,40.4s-36.1,67.8-80.7,67.8S81.5,258.1,81.5,206.3z"/>
<g>
	<g>
		<circle class="st3" cx="172.1" cy="206.3" r="4"/>
		<g>
			<circle class="st4" cx="173.9" cy="204.6" r="0.6"/>
			<circle class="st4" cx="170.2" cy="207.9" r="0.6"/>
		</g>
	</g>
	<g>
		<circle class="st3" cx="172.1" cy="224.8" r="4"/>
		<g>
			<circle class="st4" cx="173.9" cy="223.1" r="0.6"/>
			<circle class="st4" cx="170.2" cy="226.4" r="0.6"/>
		</g>
	</g>
	<g>
		<circle class="st3" cx="172.1" cy="243.3" r="4"/>
		<g>
			<circle class="st4" cx="173.9" cy="241.6" r="0.6"/>
			<circle class="st4" cx="170.2" cy="245" r="0.6"/>
		</g>
	</g>
	<g>
		<circle class="st3" cx="172.1" cy="261.8" r="4"/>
		<g>
			<circle class="st4" cx="173.9" cy="260.1" r="0.6"/>
			<circle class="st4" cx="170.2" cy="263.5" r="0.6"/>
		</g>
	</g>
</g>
<line class="st5" x1="163" y1="182.5" x2="163" y2="269.4"/>
<rect x="140.5" y="227.5" class="st16" width="45" height="28.3"/>
<polygon class="st16" points="187.6,225.6 163,210.5 138.3,225.6 "/>
<rect x="140.5" y="227.5" class="st16" width="45" height="28.3"/>
<polygon class="st17" points="138.3,225.6 163,240.7 187.6,225.6 "/>
<rect x="147.9" y="229.1" class="st13" width="30.1" height="16.8"/>
<polygon class="st16" points="163,240.7 138.3,225.6 138.3,256.6 187.6,256.6 187.6,225.6 "/>
<g>
	<path class="st1" d="M90.6,165.4c0,0-50.4,63.8,32.2,84.6l2.4-19.1c0,0-48.9-12.9-27-58.3C98.3,172.5,99.1,154.7,90.6,165.4z"/>
	<path class="st2" d="M131.8,235c0,0,13.1-4.5,15-1.3c2.2,3.8-1.8,6.2-4.3,5.8c0,0,8.9-1,9.2,3.3c0.3,4.3-5.5,5-10.5,3.2
		c0,0,8,1.4,6.9,4.8c-1.1,3.4-11.7,3.5-22.1-3.5S131.8,235,131.8,235z"/>
	<path class="st3" d="M129.3,252.7l-6.2-1.2c-2.1-0.4-3.4-2.4-3-4.5l3.1-15.7c0.4-2.1,2.4-3.4,4.5-3l6.2,1.2c2.1,0.4,3.4,2.4,3,4.5
		l-3.1,15.7C133.4,251.8,131.4,253.1,129.3,252.7z"/>
</g>
<g>
	<path class="st1" d="M235,165.4c0,0,50.4,63.8-32.2,84.6l-2.4-19.1c0,0,48.9-12.9,27-58.3C227.4,172.5,226.6,154.7,235,165.4z"/>
	<path class="st2" d="M193.9,235c0,0-13.1-4.5-15-1.3c-2.2,3.8,1.8,6.2,4.3,5.8c0,0-8.9-1-9.2,3.3c-0.3,4.3,5.5,5,10.5,3.2
		c0,0-8,1.4-6.9,4.8c1.1,3.4,11.7,3.5,22.1-3.5S193.9,235,193.9,235z"/>
	<path class="st3" d="M196.4,252.7l6.2-1.2c2.1-0.4,3.4-2.4,3-4.5l-3.1-15.7c-0.4-2.1-2.4-3.4-4.5-3l-6.2,1.2
		c-2.1,0.4-3.4,2.4-3,4.5l3.1,15.7C192.3,251.8,194.3,253.1,196.4,252.7z"/>
</g>
<g>
	<g>
		<path class="st3" d="M130.9,81.6c-7.5,7-22.2,3.3-32.8-8.1s-17.3-34.7-9.7-41.7s26.5,5,37.1,16.5S138.4,74.6,130.9,81.6z"/>
		<path class="st4" d="M95.2,33c0,0,16.9,3.8,30.1,22l-3.3,2.5C122,57.6,116.5,46.1,95.2,33z"/>
	</g>
	<g>
		<path class="st3" d="M195.2,81.6c7.5,7,22.2,3.3,32.8-8.1c10.6-11.5,17.3-34.7,9.7-41.7c-7.5-7-26.5,5-37.1,16.5
			C190.1,59.7,187.7,74.6,195.2,81.6z"/>
		<path class="st4" d="M230.9,33c0,0-16.9,3.8-30.1,22l3.3,2.5C204.1,57.6,209.6,46.1,230.9,33z"/>
	</g>
</g>
<path class="st2" d="M241.6,120.3c0,43.4-35.2,64.4-78.6,64.4s-78.5-21-78.5-64.4s35.2-90.6,78.6-90.6S241.6,76.9,241.6,120.3z"/>
<circle class="st3" cx="163.2" cy="94.7" r="37.1"/>
<path class="st3" d="M218.8,104.8c0,12.7,9.9,23,22.4,23.8c0.3-2.7,0.5-5.5,0.5-8.3c0-12.6-3-25.5-8.2-37.4
	C224.8,86.5,218.8,94.9,218.8,104.8z"/>
<path class="st3" d="M84.6,125.2c7.9-1.5,13.9-8.4,13.9-16.8c0-6.8-4-12.6-9.7-15.4c-2.8,8.9-4.4,18.2-4.4,27.2
	C84.5,122,84.5,123.6,84.6,125.2z"/>
<circle class="st3" cx="102.1" cy="124.8" r="4.4"/>
<circle class="st3" cx="210.7" cy="116.6" r="3.5"/>
<path class="st18" d="M104,84c0,0,4-11.6,15.2-19.8"/>
<line class="st18" x1="124.4" y1="60.1" x2="124.8" y2="59.8"/>
<g>
	<g>
		<circle class="st4" cx="194" cy="135.3" r="1.4"/>
		<circle class="st4" cx="191.2" cy="138.4" r="1.4"/>
		<circle class="st4" cx="191.2" cy="138.4" r="1.4"/>
		<circle class="st4" cx="196.8" cy="139.8" r="1.4"/>
		<circle class="st4" cx="192.3" cy="143.1" r="1.4"/>
		<circle class="st4" cx="199.3" cy="135.9" r="1.4"/>
		<circle class="st4" cx="197.9" cy="145.1" r="1.4"/>
		<circle class="st4" cx="202.1" cy="140.5" r="1.4"/>
	</g>
	<g>
		<circle class="st4" cx="132.4" cy="134.2" r="1.4"/>
		<circle class="st4" cx="135.2" cy="137.4" r="1.4"/>
		<circle class="st4" cx="135.2" cy="137.4" r="1.4"/>
		<circle class="st4" cx="129.6" cy="138.8" r="1.4"/>
		<circle class="st4" cx="134.1" cy="142" r="1.4"/>
		<circle class="st4" cx="127.1" cy="134.8" r="1.4"/>
		<circle class="st4" cx="128.5" cy="144" r="1.4"/>
		<circle class="st4" cx="124.3" cy="139.5" r="1.4"/>
	</g>
</g>
<g>
	<g>
		<path class="st3" d="M197.7,49.8c-0.7,1.2-3.9,1.5-6.3,0.1c-2.4-1.4-3.1-3.9-2.4-5.1c0.7-1.2,3.1-1,5.5,0.4
			C196.9,46.6,198.3,48.7,197.7,49.8z"/>
		<path class="st4" d="M196,4.8c-0.9,1.3-0.6,3,0.7,3.9l13.5,9.6l-6.9,9.7l-8-5.7c-1.3-0.9-3-0.6-3.9,0.7s-0.6,3,0.7,3.9l8,5.7
			l-8.5,12c-0.9,1.3-0.6,3,0.7,3.9s3,0.6,3.9-0.7l20.3-28.5c0.9-1.3,0.6-3-0.7-3.9L199.9,4.1C198.6,3.2,196.9,3.5,196,4.8z"/>
	</g>
	<g>
		<path class="st3" d="M128.4,49.8c0.7,1.2,3.9,1.5,6.3,0.1c2.4-1.4,3.1-3.9,2.4-5.1c-0.7-1.2-3.1-1-5.5,0.4
			C129.1,46.6,127.7,48.7,128.4,49.8z"/>
		<path class="st4" d="M130.1,4.8c0.9,1.3,0.6,3-0.7,3.9l-13.5,9.6l6.9,9.7l8-5.7c1.3-0.9,3-0.6,3.9,0.7s0.6,3-0.7,3.9l-8,5.7
			l8.5,12c0.9,1.3,0.6,3-0.7,3.9c-1.3,0.9-3,0.6-3.9-0.7l-20.3-28.5c-0.9-1.3-0.6-3,0.7-3.9l15.8-11.3
			C127.4,3.2,129.2,3.5,130.1,4.8z"/>
	</g>
</g>
<g>
	<path class="st1" d="M181.2,143.8c0,10-8.1,18.1-18.1,18.1c-10,0-18.1-8.1-18.1-18.1"/>
</g>
<path class="st3" d="M173.1,158.9c-2.2-2-5.9-3.7-10.1-3.7c-4.2,0-7.9,1.7-10.1,3.7c2.9,1.9,6.4,3.1,10.1,3.1
	C166.8,162,170.2,160.9,173.1,158.9z"/>
<g>
	<path class="st13" d="M174.4,143.8v6.1c0,0.9-0.7,1.6-1.6,1.6h-4c-0.9,0-1.6-0.7-1.6-1.6v-6.1"/>
</g>
<circle class="st13" cx="163" cy="93.9" r="27.9"/>
<g>
	<circle class="st2" cx="163" cy="93.9" r="14.8"/>
	<circle class="st1" cx="163" cy="93.9" r="11"/>
</g>
<circle class="st13" cx="152" cy="83.1" r="7.7"/>
<circle class="st3" cx="218.4" cy="126.8" r="5.1"/>
<path class="st3" d="M172.4,42.9c5.8,0,10.6-4,12-9.4c-6.8-2.5-13.9-3.9-21.3-3.9c-1,0-2,0-3,0.1c0,0.3,0,0.5,0,0.8
	C160,37.4,165.5,42.9,172.4,42.9z"/>
<circle class="st3" cx="154.8" cy="41.7" r="4.1"/>
<circle class="st3" cx="164.2" cy="46" r="2.3"/>
<circle class="st19" cx="163.2" cy="94.7" r="37.1"/>
<g class="st20">
	<path class="st21" d="M137.3,121.2c-14.6-14.3-14.9-37.8-0.5-52.5s37.8-14.9,52.5-0.5"/>
</g>
<circle class="st22" cx="163.2" cy="94.7" r="37.1"/>
<path class="st23" d="M150,184c4.2,0.4,8.6,0.7,13,0.7c43.4,0,78.6-21,78.6-64.4c0-10.3-2-20.9-5.6-30.9
	C234.6,116.1,222.6,170.8,150,184z"/>
<path class="st3" d="M163,196.2c0,0,69.5-0.5,69.5-40.9v-1.5c0,0-10.6,21.7-69.7,21.7c-59.1,0-69.4-21.7-69.4-21.7v1.5
	C93.4,195.7,163,196.2,163,196.2"/>
</svg>
