<?xml version="1.0" encoding="utf-8"?>
<!-- Generator: Adobe Illustrator 24.0.0, SVG Export Plug-In . SVG Version: 6.00 Build 0)  -->
<svg version="1.1" id="Layer_1" xmlns="http://www.w3.org/2000/svg" xmlns:xlink="http://www.w3.org/1999/xlink" x="0px" y="0px"
	 viewBox="0 0 320 331.2" style="enable-background:new 0 0 320 331.2;" xml:space="preserve">
<style type="text/css">
	.st0{opacity:0.35;fill:#214978;}
	.st1{fill:#36009F;}
	.st2{fill:#90A9FF;}
	.st3{fill:#5C5EFF;}
	.st4{fill:#4C25D0;}
	.st5{fill:none;stroke:#36009F;stroke-width:2.8622;stroke-linecap:round;stroke-miterlimit:10;}
	.st6{fill:#92DDFF;}
	.st7{fill:#214978;}
	.st8{fill:#349FDB;}
	.st9{fill:none;stroke:#349FDB;stroke-width:5.16;stroke-linecap:round;stroke-miterlimit:10;}
	.st10{fill:none;stroke:#FFFFFF;stroke-width:5.3373;stroke-linecap:round;stroke-miterlimit:10;}
	.st11{opacity:0.47;fill:#214978;}
	.st12{opacity:0.12;fill:#FFFFFF;}
	.st13{fill:#FFFFFF;}
	.st14{fill:none;stroke:#0084BF;stroke-width:3.2024;stroke-linecap:round;stroke-miterlimit:10;}
	.st15{fill:none;stroke:#FFFFFF;stroke-width:2.6686;stroke-miterlimit:10;}
	.st16{fill:#EB18FF;}
	.st17{fill:#9700B8;}
	.st18{fill:none;stroke:#FFFFFF;stroke-width:3.9861;stroke-linecap:round;stroke-miterlimit:10;}
	.st19{opacity:0.19;fill:#506EFF;}
	.st20{opacity:0.83;}
	.st21{opacity:0.56;fill:#FFFFFF;}
	.st22{fill:none;stroke:#FFFFFF;stroke-width:1.993;stroke-miterlimit:10;}
	.st23{opacity:0.3;fill:#4C25D0;}
	.st24{fill:#5D0081;}
	.st25{opacity:0.64;fill:#3E005A;}
	.st26{fill:none;stroke:#FFFFFF;stroke-width:3.4387;stroke-linecap:round;stroke-miterlimit:10;}
	.st27{opacity:0.3;fill:#3E005A;}
	.st28{fill:#F9A6FF;}
	.st29{opacity:0.45;}
	.st30{fill:none;stroke:#FFFFFF;stroke-width:1.7194;stroke-miterlimit:10;}
	.st31{opacity:0.45;fill:#FFFFFF;}
	.st32{fill:none;stroke:#FFFFFF;stroke-width:1.8812;stroke-linecap:round;stroke-miterlimit:10;}
</style>
<ellipse class="st0" cx="206.9" cy="313.6" rx="68.3" ry="11.5"/>
<g>
	<g>
		<path class="st17" d="M196.2,254.3c0,0,7.2,7.3-3.2,28.8c-0.5,0.9-1,1.9-1.6,2.8c-1.7,2.3-6.3,4.1-6.5-4c0,0-1.2,6.8-5.2,4
			c-3.1-2.2-5.7-19.2,7.5-32.1"/>
		<path class="st24" d="M179.2,171.1c-9.5,52.7,7.1,82.7,7.1,82.7l10.9,0.5c-9-15.4-2.1-66.9-0.4-78.6c0.2-1.5,0.4-2.4,0.4-2.4"/>
		<g>
			<path class="st16" d="M183.2,284.8c-0.9,2.3-3.3,4.8-2,8c0,0-3.6-1.8-2.4-8.5c0.1-0.8,0.4-1.6,1.1-2c0.8-0.5,2-0.9,2.9,0
				C183.4,282.9,183.5,283.9,183.2,284.8z"/>
		</g>
		<g>
			<path class="st16" d="M190.4,286c-0.6,2.4-2.7,5.2-1,8.2c0,0-3.8-1.4-3.5-8.2c0-0.8,0.2-1.6,0.8-2.1c0.8-0.6,1.9-1.2,2.9-0.4
				C190.4,284.1,190.6,285.1,190.4,286z"/>
		</g>
	</g>
	<path class="st16" d="M196.4,255.7h-10.8c-1.2,0-2.3-1-2.3-2.3v-0.1c0-1.2,1-2.3,2.3-2.3h10.8c1.2,0,2.3,1,2.3,2.3v0.1
		C198.6,254.7,197.6,255.7,196.4,255.7z"/>
</g>
<path class="st17" d="M219,254.3c0,0-7.2,7.3,3.2,28.8c0.5,0.9,1,1.9,1.6,2.8c1.7,2.3,6.3,4.1,6.5-4c0,0,1.2,6.8,5.2,4
	c3.1-2.2,5.7-19.2-7.5-32.1"/>
<path class="st24" d="M236,171.1c9.5,52.7-7.1,82.7-7.1,82.7l-10.9,0.5c9-15.4,2.1-66.9,0.4-78.6c-0.2-1.5-0.4-2.4-0.4-2.4"/>
<g>
	<path class="st16" d="M232,284.8c0.9,2.3,3.3,4.8,2,8c0,0,3.6-1.8,2.4-8.5c-0.1-0.8-0.4-1.6-1.1-2c-0.8-0.5-2-0.9-2.9,0
		C231.8,282.9,231.7,283.9,232,284.8z"/>
</g>
<g>
	<path class="st16" d="M224.8,286c0.6,2.4,2.7,5.2,1,8.2c0,0,3.8-1.4,3.5-8.2c0-0.8-0.2-1.6-0.8-2.1c-0.8-0.6-1.9-1.2-2.9-0.4
		C224.8,284.1,224.6,285.1,224.8,286z"/>
</g>
<path class="st16" d="M218.8,255.7h10.8c1.2,0,2.3-1,2.3-2.3v-0.1c0-1.2-1-2.3-2.3-2.3h-10.8c-1.2,0-2.3,1-2.3,2.3v0.1
	C216.6,254.7,217.6,255.7,218.8,255.7z"/>
<path class="st16" d="M200.7,43.3c0,0,5.8-17.7-7.5-28.3c0,0,8.9,0.9,13.3,10.5c0,0-3.4-10.9,3.4-21.9c0,0-1.4,13.4,3.1,21.5
	c0,0,1.7-10.6,8.4-12.6c0,0-3.5,8.1-2.8,16.8S222,44,222,44L200.7,43.3z"/>
<g>
	<g>
		<g>
			<path class="st16" d="M139.7,41.1c0.4-37.5,30.2,22.8,67.6,23.2c37.5,0.4,68.5-59.2,68.1-21.7s-31,57.7-68.5,57.3
				C169.5,99.5,139.3,78.6,139.7,41.1z"/>
			<path class="st25" d="M275.5,42.5c0.1-8.3-1.4-11.9-4.1-12.3c0,0-0.5,32.8-22.3,46.5l2.6,11.2C266,78.3,275.2,63,275.5,42.5z"/>
			<path class="st25" d="M139.7,41.1c0.1-8.3,1.6-11.8,4.4-12.2c0,0-0.2,32.8,21.3,47L162.6,87C148.4,77.1,139.5,61.5,139.7,41.1z"
				/>
		</g>
	</g>
</g>
<path class="st17" d="M284.8,157c0,49.6-34.6,71.9-77.2,71.9s-77.2-22.3-77.2-71.9S165,37.5,207.6,37.5S284.8,107.4,284.8,157z"/>
<path class="st16" d="M283.2,174.4c-17.3,9.5-43.2,20.5-75.6,20.6c-32.4,0-58.3-11.1-75.6-20.6c7.2,37.5,38.3,54.5,75.6,54.5
	S276,211.9,283.2,174.4z"/>
<path class="st24" d="M280.7,138.5c0.9,0,1.8-0.1,2.6-0.2c-1.4-9.6-3.9-19.5-7.2-29.1c-6.1,1.9-10.5,7.6-10.5,14.3
	C265.6,131.7,272.4,138.5,280.7,138.5z"/>
<circle class="st24" cx="148.2" cy="139.5" r="4.4"/>
<circle class="st24" cx="161.5" cy="129.5" r="7.1"/>
<circle class="st24" cx="257.4" cy="126.4" r="5.8"/>
<circle class="st24" cx="259" cy="113" r="3"/>
<path class="st24" d="M242.7,66.1h-6.1c-0.9,0-1.6-0.7-1.6-1.6v0c0-0.9,0.7-1.6,1.6-1.6h6.1c0.9,0,1.6,0.7,1.6,1.6v0
	C244.3,65.4,243.6,66.1,242.7,66.1z"/>
<path class="st24" d="M246.9,70.9h-6.1c-0.9,0-1.6-0.7-1.6-1.6v0c0-0.9,0.7-1.6,1.6-1.6h6.1c0.9,0,1.6,0.7,1.6,1.6v0
	C248.6,70.1,247.8,70.9,246.9,70.9z"/>
<path class="st24" d="M240.8,75.3h-6.1c-0.9,0-1.6-0.7-1.6-1.6l0,0c0-0.9,0.7-1.6,1.6-1.6h6.1c0.9,0,1.6,0.7,1.6,1.6l0,0
	C242.4,74.6,241.7,75.3,240.8,75.3z"/>
<path class="st24" d="M152.6,171.1h6.1c0.9,0,1.6,0.7,1.6,1.6v0c0,0.9-0.7,1.6-1.6,1.6h-6.1c-0.9,0-1.6-0.7-1.6-1.6v0
	C150.9,171.8,151.7,171.1,152.6,171.1z"/>
<path class="st24" d="M148.3,166.4h6.1c0.9,0,1.6,0.7,1.6,1.6v0c0,0.9-0.7,1.6-1.6,1.6h-6.1c-0.9,0-1.6-0.7-1.6-1.6v0
	C146.7,167.1,147.4,166.4,148.3,166.4z"/>
<path class="st24" d="M154.4,161.9h6.1c0.9,0,1.6,0.7,1.6,1.6l0,0c0,0.9-0.7,1.6-1.6,1.6h-6.1c-0.9,0-1.6-0.7-1.6-1.6l0,0
	C152.8,162.7,153.5,161.9,154.4,161.9z"/>
<path class="st26" d="M172.9,67c0,0,11.1-14.4,24.8-15.5"/>
<line class="st26" x1="203.3" y1="51.1" x2="204.4" y2="51.1"/>
<path class="st27" d="M283.1,136.5c-19.4,41.7-53.5,70-101,89.4c8,2,16.6,3,25.6,3c42.6,0,77.2-22.3,77.2-71.9
	C284.8,150.4,284.2,143.5,283.1,136.5z"/>
<path class="st24" d="M208,98.9c-4.6,11-8,22.6-10.2,33.9c0.4,0,0.9,0,1.3,0c10,0,18.1-8.1,18.1-18.1
	C217.3,107.9,213.6,102,208,98.9z"/>
<g>
	<circle class="st16" cx="239.4" cy="143.4" r="1.7"/>
	<circle class="st16" cx="235.9" cy="147.1" r="1.7"/>
	<circle class="st16" cx="238" cy="152.5" r="1.7"/>
	<circle class="st16" cx="241.3" cy="148.2" r="1.7"/>
	<circle class="st16" cx="245.3" cy="143.4" r="1.7"/>
	<circle class="st16" cx="243.6" cy="153.8" r="1.7"/>
	<circle class="st16" cx="246.7" cy="148.6" r="1.7"/>
</g>
<g>
	<circle class="st16" cx="172.1" cy="143.4" r="1.7"/>
	<circle class="st16" cx="168.5" cy="147.1" r="1.7"/>
	<circle class="st16" cx="170.6" cy="152.5" r="1.7"/>
	<circle class="st16" cx="173.9" cy="148.2" r="1.7"/>
	<circle class="st16" cx="177.9" cy="143.4" r="1.7"/>
	<circle class="st16" cx="176.3" cy="153.8" r="1.7"/>
	<circle class="st16" cx="179.3" cy="148.6" r="1.7"/>
</g>
<g>
	<path class="st24" d="M224.4,157.6c0,9.3-7.5,16.8-16.8,16.8s-16.8-7.5-16.8-16.8"/>
</g>
<path class="st16" d="M216.9,171.6c-2-1.9-5.5-3.4-9.3-3.4c-3.9,0-7.3,1.5-9.3,3.4c2.7,1.8,5.9,2.8,9.4,2.8
	C211.1,174.4,214.3,173.4,216.9,171.6z"/>
<g>
	<path class="st13" d="M215.1,157.6v6c0,0.8-0.6,1.4-1.4,1.4h-3.5c-0.8,0-1.4-0.6-1.4-1.4v-6"/>
</g>
<g>
	<path class="st13" d="M206.9,157.6v6c0,0.8-0.6,1.4-1.4,1.4H202c-0.8,0-1.4-0.6-1.4-1.4v-6"/>
</g>
<g>
	<g>
		<circle class="st16" cx="207.6" cy="111.1" r="33.7"/>
	</g>
	<g>
		<circle class="st13" cx="207.6" cy="111.1" r="23.3"/>
		<g>
			<circle class="st28" cx="207.6" cy="111.1" r="12.4"/>
			<circle class="st24" cx="207.6" cy="111.1" r="9.2"/>
		</g>
	</g>
	<g>
		<circle class="st13" cx="198.4" cy="102.1" r="6.5"/>
	</g>
	<g class="st29">
		<circle class="st13" cx="207.6" cy="111.1" r="33.7"/>
	</g>
	<g>
		<circle class="st30" cx="207.6" cy="111.1" r="33.7"/>
	</g>
</g>
<g>
	<path class="st24" d="M173.8,199.1H157c-0.5,0-1-0.4-1-1l0,0c0-0.5,0.4-1,1-1h16.9c0.5,0,1,0.4,1,1l0,0
		C174.8,198.6,174.4,199.1,173.8,199.1z"/>
	<path class="st24" d="M173.8,202.6H157c-0.5,0-1-0.4-1-1l0,0c0-0.5,0.4-1,1-1h16.9c0.5,0,1,0.4,1,1l0,0
		C174.8,202.2,174.4,202.6,173.8,202.6z"/>
	<path class="st24" d="M173.8,206.2H157c-0.5,0-1-0.4-1-1l0,0c0-0.5,0.4-1,1-1h16.9c0.5,0,1,0.4,1,1l0,0
		C174.8,205.7,174.4,206.2,173.8,206.2z"/>
</g>
<path class="st31" d="M212.8,77.8c-18.4-2.9-35.6,9.7-38.5,28.1c-1.7,11.1,2.1,21.7,9.5,29.1l47.6-47.6
	C226.6,82.4,220.2,79,212.8,77.8z"/>
<path class="st24" d="M225.1,268.7c0-3.9-3.2-7.1-7.1-7.1c-0.5,0-0.9,0-1.4,0.1c-0.2,3.3,0.3,7.9,2.5,14
	C222.5,275.2,225.1,272.3,225.1,268.7z"/>
<circle class="st24" cx="227.8" cy="274.1" r="2.5"/>
<circle class="st24" cx="228.3" cy="269.1" r="1"/>
<circle class="st24" cx="193.6" cy="263.9" r="2.9"/>
<circle class="st24" cx="195.4" cy="258.7" r="1.3"/>
<g>
	<path class="st17" d="M60.1,110.5c0,0-18.6-13.2-11-20.4c0,0,2.2-2.2,7,5.9c0,0-7-9.8-1.4-12.3c5.1-2.2,5.8,11.1,5.8,11.1
		s-1.5-8.7,2.6-10.3c5.7-2.2,8.2,13.5,2.6,23.5"/>
	<path class="st16" d="M66,86l-1.8-7.1c-0.2-0.6-1.1-0.6-1.2,0c-0.6,2.7-1.2,6.8-0.7,8.1c0.6,1.7,2.7,0.2,3.5-0.4
		C66,86.4,66.1,86.2,66,86z"/>
	<path class="st16" d="M57.3,85.1l-2.6-6.8c-0.2-0.6-1.1-0.5-1.2,0.2c-0.2,2.8-0.4,6.9,0.2,8.1c0.8,1.6,2.7-0.1,3.4-0.8
		C57.4,85.6,57.4,85.3,57.3,85.1z"/>
	<path class="st16" d="M51.6,91.6l-3.3-6.5c-0.3-0.6-1.2-0.4-1.2,0.3c0.1,2.8,0.3,6.9,1.1,8.1c1,1.5,2.7-0.4,3.3-1.2
		C51.7,92.1,51.7,91.9,51.6,91.6z"/>
</g>
<g>
	<g>
		<path class="st17" d="M267.9,259.1c0.4-0.2,13-48.7,12.2-68.4c-0.8-16.7-0.9-22.4,2.1-23.1c3-0.7,4,7.4,4,7.4s2.9,39.4-13.2,85
			c0,0,7.3,16.8-0.8,18.6c0,0-2.4,0.6-2.4-7c0,0,0.8,9.7-4.1,9c-4.4-0.6,0.6-10.1,0.6-10.1s-2.6,6.6-6.1,6
			C255.2,275.8,259.9,263.7,267.9,259.1z"/>
		<path class="st16" d="M258.8,274.5l-1.7,5.6c-0.2,0.5,0.5,0.9,0.8,0.5c1.5-1.6,3.7-4.2,3.9-5.3c0.2-1.4-1.8-1.3-2.6-1.1
			C259,274.2,258.8,274.3,258.8,274.5z"/>
		<path class="st16" d="M264.4,278.7l-1.1,5.8c-0.1,0.5,0.6,0.8,0.9,0.4c1.3-1.8,3.2-4.6,3.2-5.7c0.1-1.4-1.9-1-2.7-0.8
			C264.6,278.3,264.4,278.5,264.4,278.7z"/>
		<path class="st16" d="M271.1,276.5l-0.4,5.9c0,0.5,0.7,0.7,0.9,0.3c1.1-1.9,2.6-4.9,2.5-6c-0.1-1.4-2-0.8-2.8-0.5
			C271.2,276.2,271.1,276.3,271.1,276.5z"/>
	</g>
	<path class="st24" d="M282.9,164.2c3.6,0,6.6,3,6.6,6.6v4.8h-13.2v-4.8C276.3,167.2,279.3,164.2,282.9,164.2z"/>
</g>
<path class="st17" d="M59.7,107c0,0,4.1,65.1,72.4,65.1l2.1-6.9c0,0-58.1,4.2-68.2-58.2"/>
<path class="st24" d="M135.8,167.8c0-3.6-3-6.6-6.6-6.6h-4.8v13.2h4.8C132.8,174.4,135.8,171.5,135.8,167.8z"/>
<g>
	<path class="st16" d="M67.3,55.3c-9.4,0.1-17,7.8-16.9,17.2l0,0.1v-0.1c-0.1-9.4-7.8-17-17.2-16.9c-9.4,0.1-17,7.8-16.9,17.2
		c-0.8,13.8,34.5,39.6,34.5,39.6l0-0.1l0,0.1c0,0,34.7-26.5,33.7-40.3C84.4,62.8,76.7,55.2,67.3,55.3"/>
	<path class="st32" d="M32.6,60.4l0.9,0 M20.3,72.8c0.2-0.4,1-8.5,8.9-11.4"/>
</g>
<path class="st17" d="M62,90.7c0.4-1.4,2-2,3.2-1.3c2.1,1.2,4.7,3.7,3.6,8.9c-0.9,4.3-3.7,7.8-5.6,5.4C61.7,101.7,60.8,94.7,62,90.7
	z"/>
</svg>
