<?xml version="1.0" encoding="utf-8"?>
<!-- Generator: Adobe Illustrator 23.0.1, SVG Export Plug-In . SVG Version: 6.00 Build 0)  -->
<svg version="1.1" id="Layer_1" xmlns="http://www.w3.org/2000/svg" xmlns:xlink="http://www.w3.org/1999/xlink" x="0px" y="0px"
	 viewBox="0 0 24 24" style="enable-background:new 0 0 24 24;" xml:space="preserve">
<style type="text/css">
	.st0{fill:#FFFFFF;fill-opacity:0;}
	.st1{fill:#FFFFFF;}
</style>
<g>
	<rect class="st0" width="24" height="24"/>
	<path class="st1" d="M12,1C6,0.9,1.1,5.8,1,11.8c0,4.7,3.1,8.8,7.5,10.2c0.6,0.1,0.8-0.2,0.8-0.5v-1.8c-3.1,0.6-3.7-1.4-3.7-1.4
		c-0.2-0.7-0.6-1.2-1.2-1.6C3.3,16,4.4,16,4.4,16c0.7,0.1,1.3,0.5,1.7,1.1c0.6,1.1,2.1,1.5,3.2,0.9c0.1-0.5,0.3-1.1,0.7-1.4
		c-2.4-0.3-5-1.2-5-5.3c0-1.1,0.4-2.1,1.1-2.9C5.8,7.4,5.8,6.4,6.2,5.5c0,0,0.9-0.3,3,1.1c1.8-0.5,3.7-0.5,5.5,0
		c2.1-1.4,3-1.1,3-1.1c0.4,0.9,0.4,1.9,0.1,2.8c0.8,0.8,1.2,1.8,1.2,2.9c0,4.1-2.6,5.1-5,5.3c0.5,0.5,0.8,1.3,0.8,2v3
		c0,0.4,0.2,0.6,0.8,0.5c4.4-1.4,7.5-5.6,7.5-10.2C22.9,5.8,18,0.9,12,1"/>
</g>
</svg>
