<?xml version="1.0" encoding="utf-8"?>
<!-- Generator: Adobe Illustrator 23.0.1, SVG Export Plug-In . SVG Version: 6.00 Build 0)  -->
<svg version="1.1" id="Layer_1" xmlns="http://www.w3.org/2000/svg" xmlns:xlink="http://www.w3.org/1999/xlink" x="0px" y="0px"
	 viewBox="0 0 525 500" style="enable-background:new 0 0 525 500;" xml:space="preserve">
<style type="text/css">
	.st0{fill:#FFFFFF;}
</style>
<path class="st0" d="M452.8,321.5c0,45.5-32.7,84.7-77.3,92.4c-5.6,1-11.3,1.5-17,1.5c-1.9,0-2.7,0.7-3.3,2.5
	c-8.9,25.5-26.7,40.8-53.5,44.6c-17.7,2.5-33.8-2.2-48-13.3c-2-1.5-3.2-1.6-5.2-0.1c-16.5,11.8-35,17-55.2,15.8
	c-39.4-2.4-72.6-32.5-78.8-71.4c-0.4-2.7-0.9-5.4-0.9-8.1c0-2.3-0.9-3.1-3-3.5c-11.9-2.3-22.8-7.2-32.3-14.7
	c-17.6-13.8-28.2-31.8-30.6-54c-2.8-25.5,5.1-47.5,23-65.8c1.4-1.5,1.5-2.5,0.5-4.2c-6.9-12-10.2-25-9.6-38.9
	c1.3-34.5,25.3-62.9,58.7-70c3.9-0.8,5.9-2.3,7.6-6c16.5-35.4,44.1-57,82.4-64.1c26.9-5,52.3,0.4,75.9,14.2c2,1.2,3.6,1.3,5.8,0.6
	c37.4-10.9,70.6-3,98.7,23.8c16.6,15.8,25.8,35.8,28.5,58.7c0.6,5,0.9,10,0.5,15.1c-0.1,1.9,0.4,2.7,2.2,3.4
	c16.9,6.2,28.5,17.9,33.6,35.1c6.3,21.4,1,40.2-15,55.8c-1.4,1.4-1.1,2.2-0.3,3.5C448.4,288.9,452.8,304.6,452.8,321.5z
	 M285.8,314.1c0,19.4,12.4,36.5,30.1,42.3c8.8,2.9,17.9,4.3,27.2,4.7c6.6,0.3,13.2-0.2,19.3-3.2c4.8-2.4,7.1-6.4,6.8-11.6
	c-0.2-5.3-2.6-9.3-7.7-11.4c-1.8-0.7-3.6-1.3-5.4-1.7c-5.6-1-11.2-1.8-16.8-2.9c-9.2-1.8-13-6.7-13.2-16c-0.1-8.2,2.1-16,4.7-23.7
	c4.6-14,10.9-27.4,16.8-40.9c5.8-13,11.8-26,15.9-39.7c2.2-7.5,3.3-15.1,1.3-22.9c-3.1-11.8-10.2-19.8-22.4-22
	c-11.2-2.1-22.3-2.3-32.5,4.4c-3.4,2.2-6.6,1.7-9.5-0.9c-2.2-2-4.4-4-6.5-6.1c-10.3-9.5-24-10-35.1-1.3c-4.5,3.5-8.2,7.9-13.1,10.9
	c-4.3,2.7-8.7,3.5-13.5,0.9c-4.6-2.4-9.3-4.6-14.1-6.7c-4.8-2.2-9.4-4.8-14.8-5.3c-17.1-1.5-34.9,8.7-42.4,24.1
	c-3.3,6.8-6.1,13.9-8.6,21c-11.9,33-21.7,66.6-31.7,100.2c-4.5,15,0.8,29.8,13.5,37.9c9.9,6.3,20.8,7.9,32,4.5
	c9.1-2.7,14.1-10.1,17.6-18.3c11.6-27.3,22-55.1,33.1-82.7c3-7.6,6-15.2,9.2-22.7c3.3-7.6,12.6-10.1,18.2-5.1
	c3.4,3.1,4.3,7.1,3.9,11.5c-0.4,4.7-2.2,9-3.9,13.2c-7.2,18.2-14.5,36.3-21.7,54.4c-1.5,3.7-3,7.3-3.7,11.3
	c-1.1,6.8,1.6,12.8,7.1,15.2c5.6,2.4,11.5,2.8,17.4,0.7c6.8-2.5,10.9-7.8,14-14c10.8-21.2,21.5-42.4,32.2-63.5
	c5-9.8,10-19.5,15.1-29.2c1.9-3.6,4.1-7,7.6-9.3c3.2-2,6.6-2.2,9.9-0.3c3.2,1.8,3.4,5,3.3,8.3c-0.1,1.7-0.6,3.4-1.2,5
	c-1.4,3.3-2.7,6.7-4.2,10c-9,18.8-18,37.6-26.9,56.5C289.2,297.8,285.4,305.8,285.8,314.1z M411.4,453c0-12.5-10.5-22.9-23.1-23
	c-12.9,0-23.4,10.3-23.4,23.1c-0.1,12.5,10.6,23.2,23.2,23.2C400.9,476.3,411.4,465.8,411.4,453z M21.9,261.5
	c12.2,0,22.4-10.1,22.3-22.2c-0.1-12.1-10.1-22.1-22.1-22.1C9.8,217.2,0,227,0,239.3C0,251.6,9.8,261.5,21.9,261.5z M294,13.8
	c-12.2-0.1-22.2,9.7-22.2,21.8c-0.1,12.1,9.8,22,22,22c12.1,0,21.8-9.7,21.8-21.8C315.7,23.6,306.1,13.8,294,13.8z M473.9,150.8
	c-0.1-10-8.6-18.6-18.7-18.6c-10.3-0.1-19,8.6-18.9,18.9c0.1,10.2,8.4,18.4,18.7,18.5C465.5,169.5,473.9,161.2,473.9,150.8z
	 M88.6,97.2c0,9.4,7.3,16.8,16.7,16.8c9.5,0,16.8-7.4,16.8-17c0-9.3-7.4-16.5-16.7-16.5C95.8,80.6,88.6,87.7,88.6,97.2z M264,485.9
	c0.1-7.9-6.4-14.3-14.3-14.3c-8.1,0-14.5,6.3-14.5,14.3c0,7.9,6.4,14.2,14.4,14.2C257.6,500.1,263.9,493.9,264,485.9z M488,262.9
	c-7.6-0.1-14.2,6.6-14.2,14.2c0.1,7.5,6.4,13.7,14,13.7c8,0,14-5.9,14-13.7C501.8,269.2,495.6,262.9,488,262.9z M153-0.1
	c-6.7,0-11.9,5.1-11.9,11.8c0,6.6,5.2,11.8,12,11.8c6.5,0,11.6-5.2,11.6-11.8C164.7,5,159.6-0.1,153-0.1z M514.6,199.5
	c-5.5-0.1-10.4,4.8-10.5,10.4c-0.1,5.7,4.7,10.5,10.5,10.5c5.8,0,10.3-4.5,10.4-10.3C525.1,204.3,520.4,199.6,514.6,199.5z
	 M99.5,406.5c0-5.6-4.8-10.4-10.4-10.4c-5.7,0-10.4,4.8-10.4,10.6c0,5.7,4.7,10.3,10.5,10.2C94.9,416.9,99.5,412.2,99.5,406.5z"/>
</svg>
