<?xml version="1.0" encoding="utf-8"?>
<!-- Generator: Adobe Illustrator 23.0.1, SVG Export Plug-In . SVG Version: 6.00 Build 0)  -->
<svg version="1.0" id="Layer_1" xmlns="http://www.w3.org/2000/svg" xmlns:xlink="http://www.w3.org/1999/xlink" x="0px" y="0px"
	 viewBox="0 0 980 980" enable-background="new 0 0 980 980" xml:space="preserve">
<g>
	<path fill="#FEFEFE" d="M952.4,444.5c-2.5-25.2-7.1-50.1-13.7-74.6c-12.9-47.4-32.7-91.7-59.6-132.9c-25-38.2-55.2-71.7-89.9-101.2
		c-26.6-22.6-55.6-41.7-86.6-57.6c-24.4-12.6-49.7-22.8-76-30.8c-28-8.6-56.6-14.5-85.8-17.5c-7.8-0.8-15.6-0.3-23.4-1.5
		c-0.9,0-1.9,0-2.8,0c-0.9,1.6-1.9,1.4-2.8,0c-1.9,0-3.8,0-5.7,0c-2.5,1.5-5,1.4-7.6,0c-5,0-10.1,0-15.1,0c-2.5,1.4-5,1.5-7.6,0
		c-1.9,0-3.8,0-5.7,0c-1.3,1.3-2.5,1.5-3.8,0c-0.9,0-1.9,0-2.8,0c-6.4,0.9-12.8,0.5-19.2,1.1c-25.2,2.5-50.1,7.1-74.6,13.7
		c-47.8,12.9-92.3,33-133.7,60.1c-34.1,22.4-64.4,49.2-91.7,79.5c-25.9,28.8-47.6,60.6-65.5,94.8c-14.4,27.5-25.7,56.4-34.2,86.3
		c-7.2,25.5-12.4,51.3-15,77.7c-0.7,7-0.2,14.1-1.4,21c0,1.3,0,2.5,0,3.8c1.2,0.2,0.9,1.1,0.8,1.9c0,1.3,0.7,2.8-0.8,3.8
		c0,1.9,0,3.8,0,5.7c1.6,2.8,1.4,5.7,0,8.5c0,3.1,0,6.3,0,9.4c1.4,2.8,1.6,5.7,0,8.5c0,1.9,0,3.8,0,5.7c1.6,1,0.8,2.5,0.8,3.8
		c0,0,0,0,0,0c0.1,0.8,0.4,1.6-0.8,1.9c0,1.3,0,2.5,0,3.8c0.6,0.6,0.5,1.4,0.5,2.2c0,12.9,1.4,25.7,3.3,38.4
		c8.5,55.6,26.3,108,53.7,157.2c25.5,45.6,58,85.5,96.9,120.3c30.6,27.4,64.4,50.3,101.2,68.7c34.2,17.1,70,29.7,107.4,37.9
		c16.7,3.7,33.6,6.5,50.7,8.1c6.8,0.6,13.8,0.1,20.5,1.4c1.3,0,2.5,0,3.8,0c1.9-1.6,3.8-1.4,5.7,0c1.9,0,3.8,0,5.7,0
		c3.5-1.6,6.9-1.5,10.4,0c1.9,0,3.8,0,5.7,0c3.1-1.4,6.3-1.5,9.4,0c1.9,0,3.8,0,5.7,0c1.9-1.3,3.8-1.6,5.7,0c0.9,0,1.9,0,2.8,0
		c0.6-0.6,1.4-0.5,2.2-0.5c12.4-0.2,24.8-1.1,37.1-2.9C613.5,941.9,667,924,717.1,896c48.4-27.1,90.4-61.9,126.5-104
		c24.1-28.1,44.4-58.6,61.2-91.5c13.5-26.4,24.1-54,32.2-82.5c7.3-25.4,12.3-51.3,15-77.7c0.7-7,0.1-14.1,1.4-21c0-1.3,0-2.5,0-3.8
		c-1.2-0.2-0.9-1.1-0.8-1.9c0-1.3-0.8-2.8,0.8-3.8c0-1.9,0-3.8,0-5.7c-1.5-3.1-1.4-6.3,0-9.4c0-2.5,0-5,0-7.6
		c-1.4-3.1-1.5-6.3,0-9.4c0-1.9,0-3.8,0-5.7c-1.6-1-0.8-2.5-0.8-3.8c0,0,0,0,0,0c-0.1-0.8-0.4-1.6,0.8-1.9c0-0.9,0-1.9,0-2.8
		C952.5,457.3,953,450.8,952.4,444.5z M382,558.2c-6.3,11.2-12.8,22.3-19,33.6c-5.8,10.7-14.2,15.7-26.8,15.5
		c-25.6-0.5-51.3-0.1-76.9-0.2c-13.4,0-18.7-9-12.1-20.7c28.4-50.1,56.8-100.1,85.4-150.1c1.8-3.1,1.9-5.2,0.1-8.4
		c-17.6-30-35-60.2-52.4-90.4c-0.9-1.5-1.8-3-2.5-4.5c-3.9-9,0.5-16.4,10.4-16.6c14.5-0.3,28.9-0.1,43.4-0.1c0,0,0-0.1,0-0.1
		c13.2,0,26.4,0.2,39.6-0.1c10.5-0.2,18.3,4.3,23.4,13.1c19.4,33.4,38.5,66.9,57.9,100.3c1.5,2.5,0.2,4.1-0.8,5.9
		C428.4,476.3,405.2,517.2,382,558.2z M734.8,221.8c-28.5,50.4-57.1,100.7-85.6,151.1c-32.2,56.8-64.4,113.5-96.7,170.2
		c-1.6,2.9-1.4,4.9,0.1,7.6c37.9,68.8,75.7,137.7,113.5,206.6c1.1,1.9,2.2,3.8,3,5.8c3.7,8.9-1,16.6-10.6,16.7
		c-15.2,0.3-30.5,0.1-45.8,0.1c-12.1,0-24.2-0.3-36.3,0.1c-11.6,0.4-19.5-4.9-24.9-14.6C541,746.3,530.5,727,520,707.7
		c-28.6-52.3-57.1-104.6-85.8-156.9c-1.7-3-1.6-5.1,0.1-8.1C495.2,435.3,556,327.7,616.9,220.1c1.5-2.7,3.1-5.5,4.9-8
		c4.6-6.7,10.9-10.1,19.1-10c13.8,0.2,27.7,0,41.5,0c13.7,0,27.4,0,41,0C736.4,202.1,741.3,210.4,734.8,221.8z"/>
	<path fill="#FEFEFE" d="M477.8,953.5c3.5,0,6.9,0,10.4,0C484.7,952.7,481.2,952.7,477.8,953.5z"/>
	<path fill="#FEFEFE" d="M953.5,487.2c0-3.1,0-6.3,0-9.4C952.7,480.9,952.7,484.1,953.5,487.2z"/>
	<path fill="#FEFEFE" d="M953.5,504.2c0-3.1,0-6.3,0-9.4C952.7,497.9,952.7,501.1,953.5,504.2z"/>
	<path fill="#FEFEFE" d="M493.8,953.5c3.1,0,6.3,0,9.4,0C500.1,952.7,497,952.7,493.8,953.5z"/>
	<path fill="#FEFEFE" d="M28.5,477.8c0,2.8,0,5.7,0,8.5C29.3,483.4,29.3,480.6,28.5,477.8z"/>
	<path fill="#FEFEFE" d="M28.5,495.7c0,2.8,0,5.7,0,8.5C29.3,501.4,29.3,498.6,28.5,495.7z"/>
	<path fill="#FEFEFE" d="M483.4,28.5c-2.5,0-5,0-7.6,0C478.4,29.3,480.9,29.3,483.4,28.5z"/>
	<path fill="#FEFEFE" d="M506.1,28.5c-2.5,0-5,0-7.6,0C501.1,29.3,503.6,29.3,506.1,28.5z"/>
	<path fill="#FEFEFE" d="M466.5,953.5c1.9,0,3.8,0,5.7,0C470.2,952.7,468.3,952.7,466.5,953.5z"/>
	<path fill="#FEFEFE" d="M508.9,953.5c1.9,0,3.8,0,5.7,0C512.7,952.7,510.8,952.7,508.9,953.5z"/>
	<path fill="#FEFEFE" d="M470.2,28.5c-1.3,0-2.5,0-3.8,0C467.7,29.3,469,29.3,470.2,28.5z"/>
	<path fill="#FEFEFE" d="M29,468.7c0-0.1,0-0.2,0-0.4c-0.2,0-0.3,0-0.5,0c0,1.3,0,2.5,0,3.8C29.4,471.1,28.8,469.8,29,468.7z"/>
	<path fill="#FEFEFE" d="M953,468.7c0.2,1.1-0.4,2.4,0.5,3.4c0-1.3,0-2.5,0-3.8c-0.2,0-0.3,0-0.5,0C953,468.4,953,468.6,953,468.7z"
		/>
	<path fill="#FEFEFE" d="M29,513.3c-0.2-1.1,0.4-2.4-0.5-3.4c0,1.3,0,2.5,0,3.8c0.2,0,0.3,0,0.5,0C29,513.6,29,513.4,29,513.3z"/>
	<path fill="#FEFEFE" d="M953,513.3c0,0.1,0,0.2,0,0.4c0.2,0,0.3,0,0.5,0c0-1.3,0-2.5,0-3.8C952.6,510.9,953.2,512.2,953,513.3z"/>
	<path fill="#FEFEFE" d="M514.6,28.5c-0.9,0-1.9,0-2.8,0C512.7,29.2,513.7,29.2,514.6,28.5z"/>
	<path fill="#FEFEFE" d="M29,468.1c0-0.6,0-1.1-0.5-1.6c0,0.6,0,1.3,0,1.9C28.7,468.1,28.8,468,29,468.1z"/>
	<path fill="#FEFEFE" d="M29,468.1c0,0.1,0,0.2,0,0.3c0.1,0,0.2,0,0.3,0C29.2,468.2,29.1,468.1,29,468.1z"/>
	<path fill="#FEFEFE" d="M953,468.1c0.2,0,0.3,0,0.5,0.3c0-0.6,0-1.3,0-1.9C953,466.9,953,467.5,953,468.1z"/>
	<path fill="#FEFEFE" d="M953,468.1c-0.1,0-0.2,0.1-0.3,0.3v0c0.1,0,0.2,0,0.3,0C953,468.2,953,468.1,953,468.1z"/>
	<path fill="#FEFEFE" d="M29,513.9c-0.2,0-0.3,0-0.5-0.3c0,0.6,0,1.3,0,1.9C29,515.1,29,514.5,29,513.9z"/>
	<path fill="#FEFEFE" d="M29,513.9c0.1,0,0.2-0.1,0.3-0.3v0c-0.1,0-0.2,0-0.3,0C29,513.8,29,513.9,29,513.9z"/>
	<path fill="#FEFEFE" d="M953,513.9c0,0.6,0,1.1,0.5,1.6c0-0.6,0-1.3,0-1.9C953.3,513.9,953.2,514,953,513.9z"/>
	<path fill="#FEFEFE" d="M953,513.9c0-0.1,0-0.2,0-0.3c-0.1,0-0.2,0-0.3,0C952.8,513.8,952.9,513.9,953,513.9z"/>
</g>
</svg>
